<svg xmlns="http://www.w3.org/2000/svg" xmlns:xlink="http://www.w3.org/1999/xlink" viewBox="0 0 416 496"><defs><style>.cls-1{fill:none;}.cls-2{fill:#f0bc5e;}.cls-3{clip-path:url(#clip-path);}</style><clipPath id="clip-path"><rect class="cls-1" width="416" height="496"/></clipPath></defs><title>Ресурс 1</title><g id="Слой_2" data-name="Слой 2"><g id="Слой_1-2" data-name="Слой 1"><path d="M208,400a86.43,86.43,0,0,1-86.49-79L120,304.72,136,303.27l1.49,16.29a70.84,70.84,0,0,0,141.09,0l1.49-16.3L296,304.73,294.48,321A86.42,86.42,0,0,1,208,400Zm0,0"/><path class="cls-2" d="M311.66,114.3l.2-6c-11.57,5.44-35.62,14.57-72.1,18.18.07.53.16,1,.24,1.55a415.75,415.75,0,0,0-16,114.24V248H192v-5.76A415.75,415.75,0,0,0,176,128c.08-.54.17-1,.25-1.55-36.49-3.61-60.54-12.73-72.1-18.18l.2,6,17,56.81A156.64,156.64,0,0,1,128,216.22a156.48,156.48,0,0,1-11.23,58.32l-5.53,13.83,4.35,8.68A97.64,97.64,0,0,0,159,340.43a109.71,109.71,0,0,0,98.08,0A97.65,97.65,0,0,0,300.43,297l4.34-8.68-5.53-13.83a156.94,156.94,0,0,1-4.61-103.44Zm0,0"/><rect x="144" y="144" width="16" height="16"/><rect x="256" y="144" width="16" height="16"/><rect x="216" y="280" width="16" height="16"/><g class="cls-3"><rect x="184" y="280" width="16" height="16"/><path d="M370.25,366.86a143.62,143.62,0,0,0,20.32-26.26,145.44,145.44,0,0,0,19.5-92.45,310.45,310.45,0,0,0-61.41-150l-1.89-2.46a82.28,82.28,0,0,0,17.5-36.34l.26-1.33a83,83,0,0,0-.86-36.29L362.73,18A23.72,23.72,0,0,0,329.11,2.5L287.38,23.36l-14-4.66a93.88,93.88,0,0,1-12.26-5.08l-4.07-2c-30.29-15.15-67.8-15.15-98.09,0l-4.07,2a92.78,92.78,0,0,1-12.26,5.08l-14,4.66L86.9,2.5A23.73,23.73,0,0,0,53.27,18l-.95,3.78A83,83,0,0,0,51.46,58l.26,1.34a82.25,82.25,0,0,0,17.5,36.34l-1.89,2.46a310.42,310.42,0,0,0-61.41,150A143.78,143.78,0,0,0,45.74,366.87,183.12,183.12,0,0,0,0,488v8H416v-8a183.11,183.11,0,0,0-45.75-121.14Zm-21.39-312-.26,1.34a66.34,66.34,0,0,1-11.73,26.5L321.78,63l24.51-42.89a6.65,6.65,0,0,1,.93,1.75l.95,3.78a66.91,66.91,0,0,1,.7,29.27ZM300.23,34.83l26.91-13.46L311.23,49.22ZM104.77,49.21,88.86,21.37l26.92,13.46Zm-37.36,7-.26-1.34a67,67,0,0,1,.69-29.27l.95-3.79a6.73,6.73,0,0,1,.93-1.74L94.22,63,79.14,82.75A66.51,66.51,0,0,1,67.41,56.25ZM21.8,250.14A294.53,294.53,0,0,1,80,107.9l52.82-69.09,14.82-4.94A111.36,111.36,0,0,0,162,27.93l4.07-2a95.25,95.25,0,0,1,83.78,0l4.07,2a111.59,111.59,0,0,0,14.36,5.95l14.82,4.94L336,107.9a294.42,294.42,0,0,1,58.23,142.24,128.77,128.77,0,0,1-79.95,135.54L269.72,403.5A274.24,274.24,0,0,0,208,438a274.16,274.16,0,0,0-61.71-34.5l-44.54-17.82a128.78,128.78,0,0,1-80-135.54ZM16.18,480A167,167,0,0,1,57.5,377.69a144.44,144.44,0,0,0,38.31,22.85l44.54,17.82a258.22,258.22,0,0,1,59,33.16L208,458l8.64-6.49a258.48,258.48,0,0,1,59-33.16l44.54-17.82a144.88,144.88,0,0,0,38.31-22.85A167.07,167.07,0,0,1,399.82,480H16.18Zm0,0"/></g><path d="M184,242.24v2.46c-18.89,7.72-32,24.2-32,43.3h16c0-17.65,17.95-32,40-32s40,14.35,40,32h16c0-19.1-13.11-35.57-32-43.3v-2.46a407.63,407.63,0,0,1,14.74-108.47c50.52-6,76.28-22.2,77.59-23L315.7,97.26C315.34,97.49,279,120,208,120S100.66,97.49,100.31,97.26l-8.63,13.47c1.31.84,27.06,17,77.59,23A407.67,407.67,0,0,1,184,242.24Zm45.78-107A423.84,423.84,0,0,0,216,240.55a58.81,58.81,0,0,0-16.06,0,423.84,423.84,0,0,0-13.75-105.29c6.92.44,14.11.74,21.78.74s14.86-.3,21.79-.74Zm0,0"/></g></g></svg>