<svg xmlns="http://www.w3.org/2000/svg" xmlns:xlink="http://www.w3.org/1999/xlink" viewBox="0 0 480 488"><defs><style>.cls-1{fill:none;}.cls-2{clip-path:url(#clip-path);}.cls-3{fill:#f0bc5e;}</style><clipPath id="clip-path" transform="translate(0)"><rect class="cls-1" width="480" height="488"/></clipPath></defs><title>Ресурс 28</title><g id="Слой_2" data-name="Слой 2"><g id="Слой_1-2" data-name="Слой 1"><g class="cls-2"><path class="cls-3" d="M82.53,5.79A9.67,9.67,0,0,0,64,9.67v3.67a27,27,0,0,0,.52,5.26,220.4,220.4,0,0,0,27.1,70.1l2.62,4.38A12.32,12.32,0,0,1,96,99.4v.32a12.29,12.29,0,0,1-19.1,10.22A137.13,137.13,0,0,1,41.39,75.55L18.89,44A9.69,9.69,0,0,0,11,40H9.67A9.67,9.67,0,0,0,0,49.67a26.76,26.76,0,0,0,2.83,12l3.28,6.56A443.38,443.38,0,0,0,48,136L26.4,164.8A12,12,0,0,0,36,184h.82a11.93,11.93,0,0,0,6-1.59L91,154.87a21.8,21.8,0,0,1,27.56,5L152,200l24-24A439.46,439.46,0,0,1,111,70.76Zm0,0" transform="translate(0)"/><path class="cls-3" d="M470.33,40H469a9.68,9.68,0,0,0-7.87,4l-22.5,31.5a137.21,137.21,0,0,1-35.51,34.39A12.28,12.28,0,0,1,384,99.72V99.4a12.32,12.32,0,0,1,1.75-6.32l2.62-4.37a220.26,220.26,0,0,0,27.1-70.1,27,27,0,0,0,.52-5.26V9.67a9.67,9.67,0,0,0-18.54-3.88L369,70.75A439.35,439.35,0,0,1,304,176l24,24,33.46-40.16a21.8,21.8,0,0,1,27.56-5l48.21,27.54a12,12,0,0,0,6,1.59H444a12,12,0,0,0,9.6-19.2L432,136a443.69,443.69,0,0,0,41.89-67.78l3.28-6.56a26.82,26.82,0,0,0,2.83-12A9.67,9.67,0,0,0,470.33,40Zm0,0" transform="translate(0)"/></g><path class="cls-3" d="M240,160a120,120,0,0,0-47.43,9.79,602.47,602.47,0,0,1,28.84,145.9L224,352h32l2.59-36.3a602.46,602.46,0,0,1,28.84-145.9A119.87,119.87,0,0,0,240,160Zm0,0" transform="translate(0)"/><rect x="296" y="264" width="16" height="16"/><rect x="176" y="264" width="16" height="16"/><path d="M416,182,337.35,199.5a87.55,87.55,0,0,0-20.55-21.9,128,128,0,0,0-153.61,0,87.54,87.54,0,0,0-20.54,21.9L64,182v16.09c0,.64.11,1.25.13,1.89H64v35.5A44.49,44.49,0,0,0,108.5,280h23.59a128.18,128.18,0,0,0,12.85,31.75,227.44,227.44,0,0,1,23.19,57.71l8.12,32.47.11,0c-.16,1.81-.36,3.6-.36,5.43v4.49a48.08,48.08,0,0,0,8.11,26.77,39,39,0,0,0,9.75,10.08c5,16.61,18.76,39.34,46.14,39.34s41.15-22.73,46.14-39.34a39.22,39.22,0,0,0,9.75-10.08A48.13,48.13,0,0,0,304,411.81v-4.49c0-1.82-.2-3.62-.36-5.41l.11,0,8.12-32.47a227.61,227.61,0,0,1,23.19-57.71A128.47,128.47,0,0,0,347.91,280H371.5A44.49,44.49,0,0,0,416,235.5V200h-.13c0-.63.13-1.25.13-1.89Zm-16.21,20a33.71,33.71,0,0,1-18.51,26.4A34.16,34.16,0,0,1,366.11,232H350.37A88.33,88.33,0,0,0,345,214.18ZM135,214.18A88.33,88.33,0,0,0,129.63,232H113.89a34.14,34.14,0,0,1-15.16-3.57A33.68,33.68,0,0,1,80.21,202ZM108.5,264a28.86,28.86,0,0,1-6.91-.85A28.45,28.45,0,0,1,80,235.5v-.76A50.07,50.07,0,0,0,113.89,248H128a128.66,128.66,0,0,0,1,16ZM240,472c-13,0-21-8-25.73-16.15.8,0,1.58.14,2.39.14a39.44,39.44,0,0,0,17.5-4.13l5.85-2.93,5.85,2.93a39.44,39.44,0,0,0,17.5,4.13c.78,0,1.53-.1,2.3-.14C260.87,464,252.92,472,240,472Zm15.48-64.84-11.05,22.11c-1.69,3.38-7.16,3.38-8.84,0l-11.06-22.11a4.84,4.84,0,0,1-.53-2.21,5,5,0,0,1,4.95-4.94h22.11a5,5,0,0,1,4.42,7.16ZM288,411.81a32.11,32.11,0,0,1-5.43,17.9,23.73,23.73,0,0,1-25.65,9.35,22.23,22.23,0,0,0,1.81-2.64l11.06-22.11a21.2,21.2,0,0,0,2.21-9.37A21,21,0,0,0,251.05,384H228.95A21,21,0,0,0,208,404.94a21.2,21.2,0,0,0,2.21,9.37l11.06,22.11a20.67,20.67,0,0,0,1.8,2.63,23.73,23.73,0,0,1-25.66-9.35A32.15,32.15,0,0,1,192,411.81v-4.49A47.31,47.31,0,0,1,239.32,360h1.36A47.32,47.32,0,0,1,288,407.33Zm33.18-108a243.61,243.61,0,0,0-24.82,61.77l-2.08,8.32A62.65,62.65,0,0,0,240.68,344h-1.36a62.65,62.65,0,0,0-53.6,29.91l-2.08-8.32a243.39,243.39,0,0,0-24.83-61.77A112.76,112.76,0,0,1,144,248a72.38,72.38,0,0,1,28.8-57.6,112,112,0,0,1,134.39,0A72.36,72.36,0,0,1,336,248a112.69,112.69,0,0,1-14.82,55.82ZM400,235.5A28.5,28.5,0,0,1,371.5,264H351a128.65,128.65,0,0,0,1-16h14.11A50.07,50.07,0,0,0,400,234.75Zm0,0" transform="translate(0)"/></g></g></svg>