<svg xmlns="http://www.w3.org/2000/svg" viewBox="0 0 490 488.11"><defs><style>.cls-1{fill:#f0bc5e;}</style></defs><title>Ресурс 27</title><g id="Слой_2" data-name="Слой 2"><g id="Слой_1-2" data-name="Слой 1"><path class="cls-1" d="M213.06,224.11V262a99.34,99.34,0,0,1,29.11-4.45h5.65A99.27,99.27,0,0,1,276.94,262V224.11A276.4,276.4,0,0,1,323.5,70.32l2.86-4.3A153.33,153.33,0,0,0,258,49.93H232A153.26,153.26,0,0,0,163.64,66l2.85,4.3a276.35,276.35,0,0,1,46.57,153.78Zm0,0" transform="translate(0 -0.96)"/><rect x="260.97" y="352.38" width="15.97" height="15.97"/><rect x="213.06" y="352.38" width="15.97" height="15.97"/><rect x="165.16" y="152.77" width="15.97" height="15.97"/><rect x="308.88" y="152.77" width="15.97" height="15.97"/><path d="M434.31,5.25A156.41,156.41,0,0,0,328.93,58.37,161,161,0,0,0,258,41.94H232a161.08,161.08,0,0,0-70.9,16.43A156.34,156.34,0,0,0,55.69,5.25L0,1,6.31,13.58A143.88,143.88,0,0,1,21.44,77.65V99.77a108.2,108.2,0,0,0,59.81,96.79l8.08,4c.18.65.31,1.31.49,2l11.87,41.52.3.91a102.49,102.49,0,0,0,6.93,95.71l25.51,40.82.32-.2a105.53,105.53,0,0,0,16.24,41A59.93,59.93,0,0,0,182.09,446c4.74,16.55,22.59,43.1,62.91,43.1s58.18-26.55,62.93-43.1A60,60,0,0,0,339,422.34a105.53,105.53,0,0,0,16.24-41l.33.2,25.51-40.82a102.51,102.51,0,0,0,6.84-95.89l12.25-42.26c.18-.64.31-1.31.49-2l8.08-4a108.23,108.23,0,0,0,59.82-96.79V77.65a143.88,143.88,0,0,1,15.13-64.07L490,1Zm1.23,15.92L463.8,19c-.24.61-.39,1.24-.63,1.84l-4.91.38A156.41,156.41,0,0,0,353.71,73.43q-5.1-3.76-10.46-7.08a140.45,140.45,0,0,1,92.28-45.19Zm-381.08,0a140.4,140.4,0,0,1,92.27,45.2c-3.56,2.22-7.05,4.58-10.46,7.08A156.41,156.41,0,0,0,31.73,21.22l-4.9-.39c-.22-.6-.38-1.23-.62-1.84ZM40.95,125.1a92.41,92.41,0,0,1-3.54-25.34V77.65a159.8,159.8,0,0,0-5.36-40.31A140.37,140.37,0,0,1,123.9,83.52a117.22,117.22,0,0,0-38.59,86.85c0,3.49.21,7,.53,10.44A92.43,92.43,0,0,1,40.95,125.1ZM245,473.1c-26.78,0-39-14.05-44.3-24l.39,0A60,60,0,0,0,245,430a60,60,0,0,0,43.91,19.16c.17,0,.34,0,.5,0-5.22,9.92-17.34,24-44.42,24Zm2.21-63.87h-4.43a16.76,16.76,0,0,1-14.28-7.91l-28.86-46.18a16.84,16.84,0,0,1,14.28-25.75h62.14a16.83,16.83,0,0,1,14.27,25.76l-28.85,46.18a16.76,16.76,0,0,1-14.28,7.91Zm93.6-45.6a89.59,89.59,0,0,1-15.1,49.85,44.14,44.14,0,0,1-65.53,9A32.6,32.6,0,0,0,275,409.77l28.86-46.17a32.8,32.8,0,0,0-27.81-50.18H213.93a32.79,32.79,0,0,0-27.82,50.18L215,409.77a32.65,32.65,0,0,0,14.86,12.73,44.14,44.14,0,0,1-65.54-9,89.55,89.55,0,0,1-15.1-49.85v-2.44a97.92,97.92,0,0,1,24.23-64.48,91.36,91.36,0,0,1,68.76-31.2h5.65a91.35,91.35,0,0,1,68.76,31.2,97.92,97.92,0,0,1,24.23,64.48Zm44-165.47L377,225.55l-.29-.44a70.91,70.91,0,0,1-11.95-39.45h-16A86.81,86.81,0,0,0,363.43,234l2.73,4.09a86.81,86.81,0,0,1,1.39,94.17l-11.3,18.08a113.85,113.85,0,0,0-27.64-64.13,107.35,107.35,0,0,0-80.77-36.65h-5.65a107.35,107.35,0,0,0-80.78,36.65,113.84,113.84,0,0,0-27.63,64.13l-11.3-18.08a86.8,86.8,0,0,1,1.38-94.17l2.73-4.09a86.84,86.84,0,0,0,14.63-48.32h-16a70.91,70.91,0,0,1-11.94,39.45l-.22.33-7.91-27.29A101.13,101.13,0,0,1,134.76,95.21,145.08,145.08,0,0,1,232,57.91H258a145.1,145.1,0,0,1,97.21,37.3,101.14,101.14,0,0,1,29.58,102.94Zm67.76-98.39a91.94,91.94,0,0,1-48.43,81.05c.3-3.47.52-7,.52-10.45A117.23,117.23,0,0,0,366.1,83.52a140.35,140.35,0,0,1,91.85-46.19,159.62,159.62,0,0,0-5.35,40.31Zm0,0" transform="translate(0 -0.96)"/></g></g></svg>