<svg xmlns="http://www.w3.org/2000/svg" viewBox="0 0 432.01 496"><defs><style>.cls-1{fill:#f0bc5e;}</style></defs><title>Ресурс 26</title><g id="Слой_2" data-name="Слой 2"><g id="Слой_1-2" data-name="Слой 1"><path class="cls-1" d="M74.82,350.12A62.86,62.86,0,0,1,24,376l8.26,16.51a28,28,0,0,0,48.1,3.42L144,304l-24-16Zm0,0"/><path class="cls-1" d="M357.18,350.12,312,288l-24,16,63.64,91.93a28,28,0,0,0,48.1-3.42L408,376a62.86,62.86,0,0,1-50.82-25.88Zm0,0"/><path d="M409.59,48.43,404.5,40A82.71,82.71,0,0,0,333.93,0,81.85,81.85,0,0,0,260.3,45.5l-.17.34A111.06,111.06,0,0,0,224.73,40H207.27a111.06,111.06,0,0,0-35.4,5.84l-.17-.34A81.86,81.86,0,0,0,98.07,0,82.71,82.71,0,0,0,27.5,40l-5.08,8.47a157.31,157.31,0,0,0-9.7,142.89l14.83,34.6L48,219.1V240H62.06a89.16,89.16,0,0,0,54.25-18.31A114.3,114.3,0,0,0,132,240L101,281.4l52.3,41.84,10.84-13.54c1.81,13.28,4.26,27.2,7.5,42.75l19.92,95.66A60.38,60.38,0,0,0,250.4,496a59.75,59.75,0,0,0,42.53-17.62,64.7,64.7,0,0,0,19.07-46v-5.92a18.43,18.43,0,0,0-33.75-10.23l-4,6a21.8,21.8,0,0,1-12.44,8.93,191.2,191.2,0,0,1,0-93.45c2.35-9.42,4.15-19,5.7-28.54l11.24,14,52.3-41.84L300,240a114.09,114.09,0,0,0,15.7-18.3A89.16,89.16,0,0,0,369.94,240H384V219.1l20.46,6.82,14.83-34.6a157.28,157.28,0,0,0-9.7-142.89ZM333.93,16a66.64,66.64,0,0,1,56.86,32.19l5.08,8.47a141.34,141.34,0,0,1,19.7,62,157.61,157.61,0,0,0-14-30.23L396.5,80a82.23,82.23,0,0,0-117-25.55c-1.48-.84-3-1.57-4.52-2.34a65.91,65.91,0,0,1,59-36.05ZM36.14,56.66l5.08-8.47A66.64,66.64,0,0,1,98.07,16a65.91,65.91,0,0,1,59,36.05c-1.51.77-3,1.5-4.52,2.34A82.23,82.23,0,0,0,35.5,80l-5.08,8.46a157.24,157.24,0,0,0-14,30.23,141.24,141.24,0,0,1,19.7-62ZM64,224V196.9l-27.54,9.18-9-21.06c-1.23-2.85-2.19-5.77-3.21-8.67-.12-2.33-.21-4.66-.21-7a141.26,141.26,0,0,1,20.14-72.7l5.08-8.47A66.26,66.26,0,0,1,138.16,64.3a111.16,111.16,0,0,0-21,21.79,84,84,0,0,0-31-6.1H80V96h6.11a68.18,68.18,0,0,1,22.51,3.89,111,111,0,0,0-9.46,25.23A76.11,76.11,0,0,0,72,120v16a60.16,60.16,0,0,1,24.61,5.4c-.29,3.27-.61,6.55-.61,9.87v5.5c0,1.24.17,2.45.21,3.68A76,76,0,0,0,70.11,168l-1.69.84,7.16,14.31,1.69-.84a60.11,60.11,0,0,1,20.57-6,113.52,113.52,0,0,0,10.21,31.54A73.26,73.26,0,0,1,64,224ZM240.17,392h-44l-3.34-16h47.44c-.13,3-.27,6-.27,9,0,2.35.09,4.69.17,7ZM216,328v16h28.08c-1,5.3-1.93,10.63-2.57,16h-52l-2.25-10.81c-.37-1.79-.68-3.45-1-5.19H200V328H183.18c-1-5.48-1.85-10.82-2.6-16h70.31c-.95,5.36-2.1,10.69-3.33,16Zm71.53,103.13,4-6.05c1.2-1.78,4.44-.8,4.44,1.35v5.92a48.81,48.81,0,0,1-14.38,34.73A43.87,43.87,0,0,1,250.4,480a44.33,44.33,0,0,1-43.21-35.15L199.5,408h41.8a209.91,209.91,0,0,0,13.77,55.22l1.5,3.75L271.43,461l-1.5-3.75c-1.42-3.53-2.52-7.14-3.72-10.72a37.77,37.77,0,0,0,21.31-15.43Zm2.84-204-12-16-12.8,9.6,43.34,57.8-27.7,22.16L270.32,287.1c1-10.67,1.68-21.39,1.68-32.11v-7H256v7c0,3-.19,6-.28,9H240v16h14.92c-.42,5.34-.88,10.68-1.55,16H178.52c-.58-5.37-1-10.69-1.41-16H224V264H176.29c-.18-5.24-.29-10.54-.29-16H160c0,13.62.5,26.37,1.59,39.21l-10.84,13.55-27.7-22.16,43.34-57.8-12.8-9.6-12,16A98,98,0,0,1,112,156.78v-5.5A95.27,95.27,0,0,1,207.27,56h17.47A95.27,95.27,0,0,1,320,151.27v5.5a98,98,0,0,1-29.63,70.38Zm105.18-21.07L368,196.9V224a73.27,73.27,0,0,1-44.05-16.08,113.49,113.49,0,0,0,10.21-31.54,60,60,0,0,1,20.57,6l1.69.84,7.16-14.31-1.7-.84a76.08,76.08,0,0,0-26.09-7.54c0-1.23.21-2.44.21-3.68v-5.5c0-3.32-.32-6.59-.61-9.87A60,60,0,0,1,360,136V120a76.11,76.11,0,0,0-27.17,5.12,110.59,110.59,0,0,0-9.46-25.23A68.21,68.21,0,0,1,345.89,96H352V80h-6.11a84.18,84.18,0,0,0-31,6.09,110.92,110.92,0,0,0-21-21.79,66.28,66.28,0,0,1,89,23.89l5.08,8.47A141.27,141.27,0,0,1,408,169.35c0,2.34-.1,4.66-.21,7-1,2.9-2,5.82-3.21,8.67Zm0,0"/><rect x="264" y="136" width="16" height="16"/><rect x="152" y="136" width="16" height="16"/></g></g></svg>