<svg xmlns="http://www.w3.org/2000/svg" viewBox="0 0 496 496"><defs><style>.cls-1{fill:#f0bc5e;}</style></defs><title>Ресурс 25</title><g id="Слой_2" data-name="Слой 2"><g id="Слой_1-2" data-name="Слой 1"><path class="cls-1" d="M168,392l-5.66-15.55a585.31,585.31,0,0,0-70.55-135.6A65.12,65.12,0,0,1,80.2,206.06h-8l-3.57,14.3A225.3,225.3,0,0,1,25.75,307l-5.31,6.63,142.93,100.9h8.43A42.67,42.67,0,0,1,168,397Zm0,0"/><path class="cls-1" d="M470.25,307a225.3,225.3,0,0,1-42.91-86.63l-3.57-14.3h-8a65.12,65.12,0,0,1-11.59,34.79,585.31,585.31,0,0,0-70.55,135.6L328,392v5a42.73,42.73,0,0,1-3.81,17.53h8.43l142.93-100.9Zm0,0"/><path d="M176,248V224a40,40,0,0,0-40-40H112v24a40,40,0,0,0,40,40Zm-48-40v-8h8a24,24,0,0,1,24,24v8h-8a24,24,0,0,1-24-24Zm0,0"/><path d="M320,224v24h24a40,40,0,0,0,40-40V184H360a40,40,0,0,0-40,40Zm48-16a24,24,0,0,1-24,24h-8v-8a24,24,0,0,1,24-24h8Zm0,0"/><path d="M496,21.27A21.3,21.3,0,0,0,474.73,0h-2.06a20.41,20.41,0,0,0-2.12.11L453.37,1.82A211,211,0,0,0,341,48.18c-.82,0-1.63-.18-2.47-.18H157.43c-.83,0-1.64.14-2.47.18A211,211,0,0,0,42.62,1.82L25.44.11A19.89,19.89,0,0,0,23.34,0H21.27A21.28,21.28,0,0,0,1.72,29.66L72.21,194.11c-.11,1.59-.21,3.18-.21,4.77v4.55a72.93,72.93,0,0,0,13.23,42,576.88,576.88,0,0,1,69.59,133.75L160,393.4V397a50.81,50.81,0,0,0,16.32,37.28C180.77,456.1,201.14,496,248,496s67.23-39.9,71.68-61.7A50.81,50.81,0,0,0,336,397V393.4l5.17-14.21a576.87,576.87,0,0,1,69.59-133.75,72.86,72.86,0,0,0,13.24-42v-4.56c0-1.59-.1-3.18-.21-4.77l70.5-164.48A21.14,21.14,0,0,0,496,21.27Zm-41-3.53L472.66,16h2.06A5.28,5.28,0,0,1,480,21.27a5.4,5.4,0,0,1-.43,2.08l-1,2.35-1.19.12A210.84,210.84,0,0,0,372.29,66.59,39.84,39.84,0,0,0,359.61,54,195,195,0,0,1,455,17.74ZM338.57,64a23.91,23.91,0,0,1,22.19,14.86l22.73,55.23a66.84,66.84,0,0,0-68,7.3l-10.73,8.05L248,92.69l-56.75,56.75-10.73-8.05a66.85,66.85,0,0,0-68-7.3l22.73-55.23A23.93,23.93,0,0,1,157.43,64Zm-73,362.13L248,414.38l-17.61,11.74c-.46.3-1,.53-1.43.81a76.13,76.13,0,0,0-51.56-49,72,72,0,0,1,141.21,0,76.13,76.13,0,0,0-51.56,49c-.47-.28-1-.5-1.44-.81ZM248,304a87.61,87.61,0,0,0-25.73,3.85l-3-19.85H232V272H216.89l-2.4-16h67l-2.4,16H248v16h28.71l-3,19.85A87.69,87.69,0,0,0,248,304Zm35.91-64H212.09l-2.4-16h76.62Zm4.8-32H207.29l-2.4-16H256V176H202.49l-2-13.19L248,115.31l47.5,47.5-2,13.19H272v16h19.11ZM21.27,16,41,17.74A194.94,194.94,0,0,1,136.38,54,39.68,39.68,0,0,0,123.7,66.59,210.72,210.72,0,0,0,18.62,25.82l-1.18-.12-1-2.34A5.39,5.39,0,0,1,16,21.27,5.28,5.28,0,0,1,21.27,16Zm3.49,26.81A194.76,194.76,0,0,1,116.85,81.5L86.61,155l.09,0a73.19,73.19,0,0,0-8.05,13.51ZM98.34,236.26A56.93,56.93,0,0,1,88,203.44v-4.56a57.42,57.42,0,0,1,12.54-35.75A50.73,50.73,0,0,1,140.34,144a51.35,51.35,0,0,1,30.59,10.19l13.64,10.24L207,314.18A88.37,88.37,0,0,0,165.38,362a592.82,592.82,0,0,0-67-125.74Zm77.66,158a60.13,60.13,0,0,1,37.69,37.58c-.9.07-1.79.2-2.7.2a35,35,0,0,1-35-35ZM248,480c-29.37,0-43.94-19.4-50.75-33.94a50.58,50.58,0,0,0,42-6.62l8.73-5.82,8.73,5.82A50.66,50.66,0,0,0,298.84,446c-6.75,14.53-21.28,34-50.84,34Zm37-48c-.91,0-1.8-.13-2.7-.2A60.15,60.15,0,0,1,320,394.22V397a35,35,0,0,1-35,35ZM408,203.44a56.91,56.91,0,0,1-10.34,32.82,593.41,593.41,0,0,0-67,125.74A88.37,88.37,0,0,0,289,314.18l22.45-149.75,13.65-10.23A51.35,51.35,0,0,1,355.66,144a50.74,50.74,0,0,1,39.81,19.14A57.45,57.45,0,0,1,408,198.88ZM409.31,155l.09,0L379.15,81.5a194.71,194.71,0,0,1,92.09-38.69l-53.87,125.7A73.26,73.26,0,0,0,409.31,155Zm0,0"/></g></g></svg>