<svg xmlns="http://www.w3.org/2000/svg" viewBox="0 0 400 496"><defs><style>.cls-1{fill:#f0bc5e;}</style></defs><title>Ресурс 24</title><g id="Слой_2" data-name="Слой 2"><g id="Слой_1-2" data-name="Слой 1"><path class="cls-1" d="M342.77,154.14l-1.27-2a85.3,85.3,0,0,0-139-8.08L200,147.19,197.46,144a85.32,85.32,0,0,0-139,8.09l-1.26,2a113.36,113.36,0,0,0,3.89,126A76.21,76.21,0,0,0,123,312h13.76a40,40,0,0,1,31.29-47.2c0-.28-.07-.53-.1-.8l8-64h48l8,64c0,.27-.06.52-.1.8A40,40,0,0,1,263.19,312H277a76.23,76.23,0,0,0,61.92-31.86,113.38,113.38,0,0,0,3.9-126ZM144,224a31.83,31.83,0,0,1-24.67-52.15,68.35,68.35,0,0,1,15,7.42,126,126,0,0,0,41.15,17.84A31.93,31.93,0,0,1,144,224Zm112,0a31.93,31.93,0,0,1-31.49-26.9,126.09,126.09,0,0,0,41.15-17.84,68.2,68.2,0,0,1,15-7.42A31.83,31.83,0,0,1,256,224Zm0,0"/><rect x="168" y="296" width="16" height="16"/><rect x="216" y="296" width="16" height="16"/><path d="M271.77,308.56c.14-1.5.23-3,.23-4.56a48.06,48.06,0,0,0-32.62-45.43l-4-32.37a39.82,39.82,0,0,0,57.53-49.4,53.84,53.84,0,0,1,9-.81H304V160h-2.15a73.21,73.21,0,0,0-40.63,12.61C248,181.46,226.56,192,200,192s-48-10.54-61.22-19.39A73.23,73.23,0,0,0,98.14,160H96v16h2.14a53.84,53.84,0,0,1,9,.81,39.89,39.89,0,0,0,57.54,49.4l-4,32.37A48.06,48.06,0,0,0,128,304c0,1.54.09,3.05.23,4.56a127.09,127.09,0,0,0-32,57.5l-.7,4.79,3.2,3.2c1.93,1.93,4,3.65,6,5.45C107.9,388.39,131.62,448,200,448s92.15-59.73,95.27-68.53c2.13-1.91,4.32-3.74,6.37-5.79l3.24-3.21-1.1-4.42a127.09,127.09,0,0,0-32-57.5Zm-1.66-122.64a60.06,60.06,0,0,1,7.48-4.27,23.94,23.94,0,0,1-43,21.07,135.89,135.89,0,0,0,35.51-16.8Zm-53.34,20.75,6.18,49.4a47.26,47.26,0,0,0-22.95,6.5,47.13,47.13,0,0,0-22.94-6.5l6.17-49.4a106.55,106.55,0,0,0,33.54,0ZM144,216a23.88,23.88,0,0,1-21.59-34.34,62,62,0,0,1,7.48,4.27,136,136,0,0,0,35.51,16.8A23.8,23.8,0,0,1,144,216ZM133.68,326.61A48,48,0,0,0,176,352V336a32,32,0,0,1,0-64,31.7,31.7,0,0,1,19.18,6.56L200,282.2l4.82-3.64A31.7,31.7,0,0,1,224,272a32,32,0,1,1,0,64v16a48,48,0,0,0,42.32-25.39A111,111,0,0,1,287,365.54a127.15,127.15,0,0,1-174.09,0,111.13,111.13,0,0,1,20.72-38.92ZM200,432c-33.52,0-54.08-16.62-66-32.13A143,143,0,0,0,265.7,400c-12.05,15.48-32.61,32-65.7,32Zm0,0"/><path d="M398.44,284.52A643.12,643.12,0,0,1,392,193.88V192C392,86.14,305.86,0,200,0S8,86.14,8,192v1.87a643.31,643.31,0,0,1-6.44,90.65A155,155,0,0,0,67.49,434.39l55,37.63a137.28,137.28,0,0,0,155,0l55-37.62a155,155,0,0,0,65.93-149.87Zm-75,136.66-55,37.63a121.31,121.31,0,0,1-137,0l-55-37.62A139,139,0,0,1,16,306.45a140.71,140.71,0,0,1,1.39-19.66A658.5,658.5,0,0,0,24,193.88V192C24,95,103,16,200,16S376,95,376,192v1.88a658.5,658.5,0,0,0,6.61,92.91A140.54,140.54,0,0,1,384,306.45a139,139,0,0,1-60.52,114.73Zm0,0"/></g></g></svg>