<svg xmlns="http://www.w3.org/2000/svg" viewBox="0 0 452.66 496"><defs><style>.cls-1{fill:#f0bc5e;}</style></defs><title>Ресурс 29</title><g id="Слой_2" data-name="Слой 2"><g id="Слой_1-2" data-name="Слой 1"><path class="cls-1" d="M178.34,424a56,56,0,1,1,0-112h1.94a29.23,29.23,0,0,1,13.14-36c-1.06-1.28-2.12-2.55-3.18-4a107.38,107.38,0,0,0-66-38.47l-17.85-3v18.6a129,129,0,0,0-64-17.16h-32l28.18,37.57a80.54,80.54,0,0,0-35,51.95L0,338.82l30.65-7.66a147.55,147.55,0,0,0-4.31,35.39,89.44,89.44,0,0,0,135.46,76.7L180.55,432c1.73-3,3.46-5.82,5.18-8.5a56.3,56.3,0,0,1-7.4.5Zm0,0" transform="translate(0)"/><path class="cls-1" d="M452.66,338.83l-3.47-17.31a80.56,80.56,0,0,0-35-51.95L442.34,232h-32a128.91,128.91,0,0,0-64,17.17V230.56l-17.86,3a107.35,107.35,0,0,0-66,38.47c-1.06,1.41-2.12,2.67-3.18,4a29.23,29.23,0,0,1,13.14,36h1.94a56,56,0,1,1-7.4,111.5c1.73,2.68,3.45,5.47,5.18,8.5l18.76,11.25a89.43,89.43,0,0,0,135.46-76.7A147.11,147.11,0,0,0,422,331.16Zm0,0" transform="translate(0)"/><rect x="234.34" y="296" width="16" height="16"/><rect x="202.34" y="296" width="16" height="16"/><path d="M162.34,176a24,24,0,1,0-24,24,24,24,0,0,0,24-24Zm-32,0a8,8,0,1,1,8,8,8,8,0,0,1-8-8Zm0,0" transform="translate(0)"/><path d="M290.34,176a24,24,0,1,0,24-24,24,24,0,0,0-24,24Zm32,0a8,8,0,1,1-8-8,8,8,0,0,1,8,8Zm0,0" transform="translate(0)"/><path d="M383,0a67,67,0,0,0-60.22,37.21,96.46,96.46,0,0,1-18.12,25.14l-2.73,2.73a175.73,175.73,0,0,0-151.19,0L148,62.36a96.57,96.57,0,0,1-18.12-25.14A67.34,67.34,0,0,0,2.34,67.34v3.2A82.41,82.41,0,0,0,11,107.21a81.41,81.41,0,0,0,55.5,43.28A174.89,174.89,0,0,0,50.34,224v8.27a128,128,0,0,1,16,2.06V224A159.94,159.94,0,0,1,137.69,90.91,209,209,0,0,1,194.34,234.5v32.14a37.61,37.61,0,0,0-24,35c0,1,.17,1.93.25,2.9A64,64,0,0,0,178.34,432c.59,0,1.15-.08,1.73-.09l16,64.09h60.5l16-64.09c.57,0,1.14.09,1.73.09a64,64,0,0,0,7.75-127.48c.08-1,.25-1.93.25-2.9a37.61,37.61,0,0,0-24-35V234.51A209,209,0,0,1,315,90.91,159.94,159.94,0,0,1,386.34,224v10.33a127.8,127.8,0,0,1,16-2.06V224a175,175,0,0,0-16.15-73.52,81.41,81.41,0,0,0,55.5-43.28,82.41,82.41,0,0,0,8.66-36.67v-3.2A67.4,67.4,0,0,0,383,0ZM337.1,44.38a51.21,51.21,0,0,1,73.77-20.09,66.82,66.82,0,0,0-56.09,36.93,96.46,96.46,0,0,1-18.12,25.14l-.36.36A175.79,175.79,0,0,0,316.61,73,112.73,112.73,0,0,0,337.1,44.38Zm-221.52,0A112.4,112.4,0,0,0,136.06,73a176.84,176.84,0,0,0-19.69,13.73l-.36-.36A96.57,96.57,0,0,1,97.89,61.21,66.81,66.81,0,0,0,41.8,24.28a51.23,51.23,0,0,1,73.77,20.09ZM74.13,135.8l-2.74-.54A65.6,65.6,0,0,1,25.3,100a66.3,66.3,0,0,1-7-29.52v-3.2a50.88,50.88,0,0,1,6.94-25.64A51.13,51.13,0,0,1,37.67,40,51.06,51.06,0,0,1,83.59,68.38,112.36,112.36,0,0,0,104.36,97.3a177.18,177.18,0,0,0-30.23,38.5ZM196,429.47a62.8,62.8,0,0,0,22.38-11.61V480h-9.75ZM244.09,480h-9.75V417.87a62.91,62.91,0,0,0,22.38,11.61Zm30-154.9a37.08,37.08,0,0,0,3.31-5,48,48,0,1,1-44.22,72.47l-6.85-11.43-6.86,11.43a48,48,0,1,1-44.21-72.47,37.07,37.07,0,0,0,3.31,5l16.63,20.78A37.43,37.43,0,0,0,224.57,360h3.53a37.41,37.41,0,0,0,29.37-14.12Zm-7.76-23.49a21.71,21.71,0,0,1-4.73,13.5L245,335.89A21.53,21.53,0,0,1,228.1,344h-3.53a21.54,21.54,0,0,1-16.88-8.11l-16.62-20.77A21.61,21.61,0,0,1,208,280h36.77a21.64,21.64,0,0,1,21.61,21.62Zm-24-67.11V264h-32V234.5a224.88,224.88,0,0,0-58.54-152,159.13,159.13,0,0,1,149.07,0,224.88,224.88,0,0,0-58.54,152Zm192-164a66,66,0,0,1-53.06,64.72l-2.73.55a176.82,176.82,0,0,0-30.23-38.5,112.79,112.79,0,0,0,20.78-28.93A50.44,50.44,0,0,1,427.4,41.69a50.9,50.9,0,0,1,6.94,25.65Zm0,0" transform="translate(0)"/></g></g></svg>