<svg xmlns="http://www.w3.org/2000/svg" viewBox="0 0 368 496"><defs><style>.cls-1{fill:#f0bc5e;}</style></defs><title>Ресурс 22</title><g id="Слой_2" data-name="Слой 2"><g id="Слой_1-2" data-name="Слой 1"><rect x="144" y="392" width="16" height="16"/><rect x="208" y="392" width="16" height="16"/><rect x="104" y="176" width="16" height="16"/><rect x="248" y="176" width="16" height="16"/><path d="M360,0a94.67,94.67,0,0,0-48.7,13.49A123.13,123.13,0,0,0,276,45.32l-7,9.37-8.75-5.47-8.48,13.57,18.88,11.8A87.5,87.5,0,0,1,312,149.21v66.31a88.26,88.26,0,0,1-10.74,42.14L274,307.59A103.43,103.43,0,0,0,262,345.9l-2.62,23.58A50.82,50.82,0,0,0,221,352c-1.69,0-3.35.21-5,.37V303.85A771.34,771.34,0,0,1,239,117l.75-3-15.52-3.88-.75,3A787.21,787.21,0,0,0,200,303.85v52.74a51.16,51.16,0,0,0-7.27,4L184,366.38l-8.73-5.82a51.16,51.16,0,0,0-7.27-4V303.85a787.32,787.32,0,0,0-23.49-190.78l-.75-3-15.52,3.88.75,3a771.45,771.45,0,0,1,23,186.89v48.52c-1.66-.16-3.33-.37-5-.37a50.84,50.84,0,0,0-38.33,17.47L106,345.89A103.62,103.62,0,0,0,94,307.57L66.74,257.66A88.2,88.2,0,0,1,56,215.52V149.21A87.51,87.51,0,0,1,97.36,74.59l18.88-11.8-8.48-13.57L99,54.68l-7-9.37a123.07,123.07,0,0,0-35.3-31.83A94.74,94.74,0,0,0,8,0H0V36.78A114,114,0,0,0,42.73,126,104.86,104.86,0,0,0,40,149.21v66.31a104.41,104.41,0,0,0,12.69,49.81l27.24,49.91a87.72,87.72,0,0,1,10.21,32.43L96,400.88h.06c0,.72-.1,1.4-.1,2.11a45,45,0,0,0,16.78,35l1.41,9.93A56.27,56.27,0,0,0,169.62,496h28.74a56.27,56.27,0,0,0,55.43-48.08l1.41-9.93A44.93,44.93,0,0,0,272,403c0-.71-.08-1.4-.11-2.11H272l5.91-53.21a87.67,87.67,0,0,1,10.21-32.43l27.24-49.92A104.41,104.41,0,0,0,328,215.52V149.21a104.86,104.86,0,0,0-2.73-23.2A114,114,0,0,0,368,36.78V0ZM48.46,27.21A106.87,106.87,0,0,1,79.19,54.92l6.36,8.48a106.81,106.81,0,0,0-9,6.72l-.6-.8A123.13,123.13,0,0,0,40.69,37.5,94.11,94.11,0,0,0,16,27.15V16.41a78.73,78.73,0,0,1,32.46,10.8ZM16.4,44a78.51,78.51,0,0,1,16.06,7.25,107,107,0,0,1,30.73,27.7l2,2.66A102.83,102.83,0,0,0,48,109.26,97.82,97.82,0,0,1,16.4,44Zm182,436H169.62a40.15,40.15,0,0,1-39.36-33.35A45,45,0,0,0,141,448h86a44.85,44.85,0,0,0,10.74-1.35A40.14,40.14,0,0,1,198.37,480ZM227,432H141a29,29,0,0,1-29-29,35,35,0,0,1,54.39-29.11L184,385.62l17.61-11.74A35,35,0,0,1,256,403a29,29,0,0,1-29,29ZM288.81,54.92a107.2,107.2,0,0,1,30.73-27.71A78.66,78.66,0,0,1,352,16.41V27.15a94.35,94.35,0,0,0-24.7,10.34A123.13,123.13,0,0,0,292,69.32l-.6.8a105.1,105.1,0,0,0-9-6.72ZM320,109.26a102.64,102.64,0,0,0-17.2-27.69l2-2.64a107.2,107.2,0,0,1,30.73-27.71A78.77,78.77,0,0,1,351.6,44,97.82,97.82,0,0,1,320,109.26Zm0,0" transform="translate(0)"/><path class="cls-1" d="M184,185.33l-4.12-2.47A108.79,108.79,0,0,1,131.34,120l-12.57,12.57L105.93,113.3a59,59,0,0,1,12.24-78.88A84.37,84.37,0,0,1,170.69,16h26.62a84.27,84.27,0,0,1,52.52,18.43,59,59,0,0,1,12.25,78.86l-12.83,19.26L236.67,120a108.8,108.8,0,0,1-48.54,62.88Zm0,0" transform="translate(0)"/></g></g></svg>