<svg xmlns="http://www.w3.org/2000/svg" viewBox="0 0 496 411.91"><defs><style>.cls-1{fill:#f0bc5e;}</style></defs><title>Ресурс 15</title><g id="Слой_2" data-name="Слой 2"><g id="Слой_1-2" data-name="Слой 1"><path class="cls-1" d="M51.18,190.84A378.26,378.26,0,0,1,136.77,59.15L168,27.91h6.7A103.92,103.92,0,1,0,50.43,193.1c.27-.75.46-1.52.75-2.26Zm0,0" transform="translate(0 0)"/><path class="cls-1" d="M392,0a104.08,104.08,0,0,0-70.7,27.91H328l31.23,31.23a378.25,378.25,0,0,1,85.59,131.69c.29.73.47,1.51.75,2.25A104,104,0,0,0,392,0Zm0,0" transform="translate(0 0)"/><path class="cls-1" d="M154.05,233.83a303.15,303.15,0,0,0,51-131.64h-.17A96.08,96.08,0,0,0,88,195.91a95.41,95.41,0,0,0,46,81.94l1.92,1.17h1a101.52,101.52,0,0,1,17.21-45.19Zm0,0" transform="translate(0 0)"/><path class="cls-1" d="M312,99.91a96.72,96.72,0,0,0-20.89,2.28h-.17a303.19,303.19,0,0,0,51,131.64,101.51,101.51,0,0,1,17.2,45.2h1l1.92-1.17a96,96,0,0,0-50-178Zm0,0" transform="translate(0 0)"/><rect x="208" y="275.91" width="16" height="16"/><rect x="272" y="275.91" width="16" height="16"/><path d="M439.21,158.1A71.82,71.82,0,0,0,392,32a71.1,71.1,0,0,0-37.79,10.82l-22.9-22.91H164.69l-22.9,22.91A71.1,71.1,0,0,0,104,32,71.82,71.82,0,0,0,56.78,158.1c-4.72,9.75-9.15,19.66-13.07,29.87A175.08,175.08,0,0,0,32,251.06,144.85,144.85,0,0,0,176.85,395.91h26a71.73,71.73,0,0,0,90.32,0h26A144.86,144.86,0,0,0,464,251.06,175.11,175.11,0,0,0,452.29,188c-3.92-10.21-8.35-20.12-13.07-29.87ZM448,104a56,56,0,0,1-16.36,39.27,383.8,383.8,0,0,0-65.78-88.75A55.25,55.25,0,0,1,392,48a56.07,56.07,0,0,1,56,56ZM184,283.51a31.6,31.6,0,0,1,53.95-22.34L248,271.22l10.06-10.06a31.6,31.6,0,1,1,44.69,44.69l-33.09,33.09a30.64,30.64,0,0,1-43.31,0l-33.09-33.09A31.39,31.39,0,0,1,184,283.51Zm131.06,82.41a71.53,71.53,0,0,0,4.94-26v-30a47.6,47.6,0,0,0-72-61.29,47.6,47.6,0,0,0-72,61.28v30a71.53,71.53,0,0,0,4.94,26,93.31,93.31,0,0,1-20.31-127.53A310.1,310.1,0,0,0,216,61.14V35.91h64V61.14a310.07,310.07,0,0,0,55.37,177.25,93.32,93.32,0,0,1-20.3,127.54ZM48,104a56.07,56.07,0,0,1,56-56,55.3,55.3,0,0,1,26.14,6.52,384,384,0,0,0-65.78,88.75A56,56,0,0,1,48,104Zm0,147.06a159,159,0,0,1,10.65-57.34A367.76,367.76,0,0,1,142.43,64.81l28.89-28.9H200V61.14a294.2,294.2,0,0,1-52.52,168.14,109.21,109.21,0,0,0,25.33,150.45A128.64,128.64,0,0,1,48,251.06ZM248,395.91a56.07,56.07,0,0,1-56-56V327.22l23,23a46.64,46.64,0,0,0,65.94,0l23-23v12.69a56.07,56.07,0,0,1-56,56Zm152.73-45.13a129,129,0,0,1-77.54,28.95,109.21,109.21,0,0,0,25.33-150.45A294.18,294.18,0,0,1,296,61.14V35.91h28.69L353.57,64.8a367.87,367.87,0,0,1,83.78,128.91A159,159,0,0,1,448,251.06a128.36,128.36,0,0,1-47.27,99.72Zm0,0" transform="translate(0 0)"/><rect x="136" y="163.91" width="16" height="16"/><rect x="344" y="163.91" width="16" height="16"/></g></g></svg>