<svg xmlns="http://www.w3.org/2000/svg" viewBox="0 0 496 456"><defs><style>.cls-1{fill:#f0bc5e;}</style></defs><title>Ресурс 14</title><g id="Слой_2" data-name="Слой 2"><g id="Слой_1-2" data-name="Слой 1"><path class="cls-1" d="M318.83,76.39A158.2,158.2,0,0,0,257.27,64H238.73a158.2,158.2,0,0,0-61.57,12.39l16.71,40.1A286.36,286.36,0,0,1,216,227.14V272h64V227.14A286.18,286.18,0,0,1,302.13,116.5Zm0,0"/><path d="M288,312a24,24,0,1,0,24,24,24,24,0,0,0-24-24Zm0,32a8,8,0,1,1,8-8,8,8,0,0,1-8,8Zm0,0"/><path d="M208,312a24,24,0,1,0,24,24,24,24,0,0,0-24-24Zm0,32a8,8,0,1,1,8-8,8,8,0,0,1-8,8Zm0,0"/><path d="M168,160a24,24,0,1,0,24,24,24,24,0,0,0-24-24Zm0,32a8,8,0,1,1,8-8,8,8,0,0,1-8,8Zm0,0"/><path d="M328,160a24,24,0,1,0,24,24,24,24,0,0,0-24-24Zm0,32a8,8,0,1,1,8-8,8,8,0,0,1-8,8Zm0,0"/><path d="M466.46,0a29.61,29.61,0,0,0-6.65.76L414.41,11.24A152.6,152.6,0,0,0,325,70.57,165.45,165.45,0,0,0,257.27,56H238.73A165.56,165.56,0,0,0,171,70.56,152.55,152.55,0,0,0,81.59,11.24L36.19.76A29.53,29.53,0,0,0,0,29.54V31.1c0,.83,0,1.64.1,2.45l5.25,63a95.84,95.84,0,0,0,72,85A166,166,0,0,0,72,219.18a126.63,126.63,0,0,0-40,89.5c-.86,33.85,12,66.19,36.24,91.06A133.59,133.59,0,0,0,163.37,440h32.94c13.09,9.85,30.06,16,51.69,16s38.47-6.15,51.55-16h33.07a133.63,133.63,0,0,0,95.09-40.25c24.24-24.87,37.11-57.2,36.24-91.07a126.7,126.7,0,0,0-40-89.5,165.48,165.48,0,0,0-5.29-37.65,95.85,95.85,0,0,0,72-85l5.25-63c.08-.82.11-1.64.11-2.47V29.54A29.58,29.58,0,0,0,466.46,0ZM418,26.83l45.4-10.48A13.7,13.7,0,0,1,480,29.54V31.1c0,.38,0,.74,0,1.12v.1a29.8,29.8,0,0,0-4.14.43L430.41,43.23a152.28,152.28,0,0,0-76.58,43.86,168.4,168.4,0,0,0-14.34-9.2A136.53,136.53,0,0,1,418,26.83ZM16,29.54A13.69,13.69,0,0,1,32.59,16.35L78,26.83a136.54,136.54,0,0,1,78.52,51.06,168.55,168.55,0,0,0-14.35,9.2A152.42,152.42,0,0,0,65.59,43.24L20.18,32.76a29.6,29.6,0,0,0-4.13-.44v-.11c0-.37,0-.73,0-1.1ZM81.57,166.15A80,80,0,0,1,21.3,95.24l-3.89-46.7L62,58.83A136.31,136.31,0,0,1,129.55,97,167.18,167.18,0,0,0,82,166.27Zm98.3,219.4a53.22,53.22,0,0,0,63-9.15l5.09-5.09,5.09,5.09a53.23,53.23,0,0,0,63,9.19C309.64,409.2,292.73,440,248,440s-61.73-30.64-68.13-54.45ZM290.74,376a37,37,0,0,1-26.34-10.91L248,348.69l-16.41,16.4A37.25,37.25,0,0,1,168,338.74,58.81,58.81,0,0,1,226.74,280h42.5A58.81,58.81,0,0,1,328,338.74,37.3,37.3,0,0,1,290.74,376ZM448,309.1c.75,29.5-10.5,57.73-31.71,79.49A117.51,117.51,0,0,1,332.63,424H315.34c12.05-16.2,18.38-36.57,20.18-56.55A52.86,52.86,0,0,0,344,338.74,74.82,74.82,0,0,0,269.26,264h-42.5A74.83,74.83,0,0,0,152,338.74a52.91,52.91,0,0,0,8.47,28.71c1.76,20,8,40.37,20,56.54H163.37a117.54,117.54,0,0,1-83.64-35.43c-21.2-21.75-32.45-50-31.7-79.48a111,111,0,0,1,37.31-80.41L88,226.3v-3.57C88,139.62,155.62,72,238.73,72h18.53C340.38,72,408,139.62,408,222.73v3.57l2.66,2.38A110.93,110.93,0,0,1,448,309.1Zm3.6-164a80,80,0,0,1-37.13,21l-.45.11A167.11,167.11,0,0,0,366.44,97,136.34,136.34,0,0,1,434,58.83l44.59-10.29-3.89,46.7a80,80,0,0,1-23.14,49.88Zm0,0"/></g></g></svg>