<svg xmlns="http://www.w3.org/2000/svg" viewBox="0 0 496 496"><defs><style>.cls-1{fill:#f0bc5e;}</style></defs><title>Ресурс 13</title><g id="Слой_2" data-name="Слой 2"><g id="Слой_1-2" data-name="Слой 1"><path class="cls-1" d="M248,136a127.53,127.53,0,0,0-91.91,39l21.83,15.6a88.4,88.4,0,0,1,36,59.17l10.06,70.38a17.37,17.37,0,0,1,1.82-.18h44.46a17.37,17.37,0,0,1,1.82.18l10.06-70.38a88.44,88.44,0,0,1,36-59.17L339.91,175A127.53,127.53,0,0,0,248,136Zm0,0"/><path d="M475.47,0h-1.93a20,20,0,0,0-5,.62L455.7,3.82A207.63,207.63,0,0,0,314.44,125.38l-6.89,16.54a134.39,134.39,0,0,0-119.09,0l-6.89-16.54A206.93,206.93,0,0,0,75.85,16.24,206.78,206.78,0,0,0,40.3,3.83L27.44.62a20,20,0,0,0-5-.62H20.53A20.52,20.52,0,0,0,2.93,31.09a265,265,0,0,1,31,76.77l8.26,35.81a189.78,189.78,0,0,0,70.42,108.7c-.32,3.84-.59,7.7-.59,11.63v40h16V264a120,120,0,1,1,240,0v40h16V264c0-3.93-.27-7.79-.59-11.63a189.69,189.69,0,0,0,70.42-108.7l8.25-35.81a265.3,265.3,0,0,1,31-76.77A20.51,20.51,0,0,0,475.47,0Zm-360,234a172.71,172.71,0,0,1-39.2-46.67,174.46,174.46,0,0,1-18.48-47.23l-8.26-35.8A280.22,280.22,0,0,0,31.92,52.6c1.77.74,3.57,1.41,5.31,2.21A191,191,0,0,1,134.8,155.53l8.89,21.34A135.62,135.62,0,0,0,115.45,234Zm40.35-69.66-6.23-14.95A207,207,0,0,0,43.85,40.24a210.27,210.27,0,0,0-22.38-8.57c-1.62-2.94-3.11-5.94-4.83-8.82A4.43,4.43,0,0,1,16,20.53,4.53,4.53,0,0,1,20.53,16h1.93a4.58,4.58,0,0,1,1.1.14l12.88,3.22a190.92,190.92,0,0,1,32.8,11.45,191,191,0,0,1,97.57,100.73l7.6,18.27a136.53,136.53,0,0,0-18.61,14.51ZM321.59,149.8l7.61-18.27A191.64,191.64,0,0,1,459.57,19.35l12.86-3.21a4.66,4.66,0,0,1,1.1-.14h1.93A4.53,4.53,0,0,1,480,20.53a4.43,4.43,0,0,1-.65,2.33c-1.73,2.88-3.21,5.88-4.83,8.82a209.44,209.44,0,0,0-22.38,8.57A206.89,206.89,0,0,0,346.43,149.38l-6.23,14.95a136,136,0,0,0-18.61-14.52ZM446.5,104.27l-8.26,35.8A172.15,172.15,0,0,1,380.55,234a135.66,135.66,0,0,0-28.25-57.1l8.89-21.34A191,191,0,0,1,458.77,54.8c1.73-.79,3.54-1.46,5.31-2.21a280.51,280.51,0,0,0-17.58,51.68Zm0,0"/><path class="cls-1" d="M167.49,402.79a62.58,62.58,0,0,1-5.16-93.12,74.63,74.63,0,0,1,12.43-9.94c-1.62-1.25-3.25-2.41-4.87-3.73L165,293.57c-17.94-9-40.93-6.55-56.5,5.82C84.63,318.41,72,344.89,72,376c0,57.34,43.06,104,96,104a90.29,90.29,0,0,0,42-10.47c.59-.41,1.17-.69,1.75-1.09L200.5,416a47,47,0,0,1-29.37-10.3Zm0,0"/><path class="cls-1" d="M387.46,299.39C371.9,287,348.91,284.6,331,293.57L326.11,296c-1.62,1.33-3.25,2.49-4.87,3.73a73.94,73.94,0,0,1,12.43,9.94,62.58,62.58,0,0,1-5.16,93.11l-3.63,2.9A47,47,0,0,1,295.5,416l-11.3,52.44c.59.4,1.17.68,1.75,1.09A90.43,90.43,0,0,0,328,480c52.94,0,96-46.66,96-104,0-31.1-12.63-57.59-36.54-76.61Zm0,0"/><path d="M339.33,304a81.46,81.46,0,0,0-58-24h-3.56l-2.29,16h5.84A65.58,65.58,0,0,1,328,315.33a55,55,0,0,1,16,38.59,54.33,54.33,0,0,1-20.48,42.61l-3.65,2.91a39,39,0,0,1-55.57-7.05l-3.24-4.31a24.63,24.63,0,0,0,6.2-5.34l23.11-28.89A25.78,25.78,0,0,0,270.23,312H225.76a25.78,25.78,0,0,0-20.12,41.87l23.12,28.88a24.36,24.36,0,0,0,6.18,5.34l-3.24,4.31a39,39,0,0,1-55.58,7.05l-3.63-2.91A54.33,54.33,0,0,1,152,353.92a55,55,0,0,1,16-38.59A65.58,65.58,0,0,1,214.65,296h5.84l-2.29-16h-3.56a81.44,81.44,0,0,0-58,24,70.59,70.59,0,0,0,5.83,105l3.63,2.9a55.07,55.07,0,0,0,27.78,11.5L209.54,496h76.92l15.63-72.56a55.07,55.07,0,0,0,27.77-11.5l3.65-2.91a70.58,70.58,0,0,0,5.82-105ZM218.14,343.87A9.76,9.76,0,0,1,225.77,328h44.47a9.76,9.76,0,0,1,7.62,15.87l-23.1,28.88a8.92,8.92,0,0,1-13.51,0ZM256,480V456H240v24H222.46l-12.27-57A55.23,55.23,0,0,0,240,407.21V440h16V407.22A55.33,55.33,0,0,0,285.81,423l-12.27,57Zm0,0"/><rect x="168" y="240" width="16" height="16"/><rect x="312" y="240" width="16" height="16"/></g></g></svg>