<svg xmlns="http://www.w3.org/2000/svg" viewBox="0 0 496 424"><defs><style>.cls-1{fill:#f0bc5e;}</style></defs><title>Ресурс 9</title><g id="Слой_2" data-name="Слой 2"><g id="Слой_1-2" data-name="Слой 1"><path d="M260.69,312H235.31a19.31,19.31,0,0,0-13.66,33l7,7a27.32,27.32,0,0,0,38.63,0l7-7a19.31,19.31,0,0,0-13.65-33ZM263,333.66l-7,7a11.57,11.57,0,0,1-16,0l-7-7a3.31,3.31,0,0,1,2.34-5.65h25.38a3.31,3.31,0,0,1,2.34,5.66Zm0,0" transform="translate(0 0)"/><path d="M392,0c-26,0-50.82,11.8-70,33.22L334,43.88C350,25.9,370.65,16,392,16c48.52,0,88,50.24,88,112s-39.48,112-88,112a22.7,22.7,0,0,1-21.72-16H392c39.7,0,72-43.06,72-96s-32.3-96-72-96c-15.38,0-30,6.31-42.37,18.25l11.13,11.51C370,52.76,380.85,48,392,48c30.88,0,56,35.89,56,80s-25.12,80-56,80H366.57l.86-2a108.9,108.9,0,0,0,6.73-62.23A80.49,80.49,0,0,0,416,128l21.34-16L416,96a80.51,80.51,0,0,0-48-16h-8V96h8a64.38,64.38,0,0,1,38.4,12.8l4.27,3.2-4.27,3.2a64.28,64.28,0,0,1-36.51,12.64c-.57-1.65-1.06-3.32-1.71-4.94L359.43,101,344.57,107l8.75,21.86a93.39,93.39,0,0,1-.64,70.93l-48.84,116c-.63-.89-1.16-1.84-1.86-2.69l-21.59-25.89c-.12-.14-.26-.27-.39-.41V274.6a303.12,303.12,0,0,1,15.59-96.07l-15.18-5.06A319,319,0,0,0,264,274.59v.61a41.52,41.52,0,0,0-32,0v-.61a319.26,319.26,0,0,0-16.41-101.13l-15.18,5.06A303.34,303.34,0,0,1,216,274.59v12.15c-.12.14-.27.27-.38.42L194,313.07c-.7.84-1.23,1.79-1.86,2.68l-48.84-116a93.44,93.44,0,0,1-.65-70.93L151.43,107,136.57,101l-8.75,21.86c-.65,1.63-1.14,3.3-1.71,4.94a64.4,64.4,0,0,1-36.5-12.64L85.34,112l4.27-3.2A64.43,64.43,0,0,1,128,96h8V80h-8A80.51,80.51,0,0,0,80,96L58.67,112,80,128a80.49,80.49,0,0,0,41.83,15.74A108.9,108.9,0,0,0,128.57,206l.86,2H104c-30.88,0-56-35.89-56-80s25.12-80,56-80c11.15,0,22,4.76,31.24,13.75l11.13-11.51C134,38.31,119.38,32,104,32,64.3,32,32,75.06,32,128s32.3,96,72,96h21.72A22.69,22.69,0,0,1,104,240c-48.52,0-88-50.24-88-112S55.48,16,104,16c21.35,0,42,9.9,58,27.88L174,33.22C154.82,11.8,130,0,104,0,46.66,0,0,57.43,0,128S46.66,256,104,256a38.64,38.64,0,0,0,35.66-23.7l44.57,105.86c-.05.87-.23,1.72-.23,2.6a43.16,43.16,0,0,0,17.07,34.34l1.78,10.65a45.78,45.78,0,0,0,90.3,0l1.78-10.65A43.17,43.17,0,0,0,312,340.76c0-.87-.18-1.73-.23-2.6L356.34,232.3A38.64,38.64,0,0,0,392,256c57.34,0,104-57.43,104-128S449.34,0,392,0ZM248,408a29.67,29.67,0,0,1-29.37-24.86,43.75,43.75,0,0,0,8.61.86h41.52a43.72,43.72,0,0,0,8.61-.86A29.66,29.66,0,0,1,248,408Zm20.76-40H227.25a27.24,27.24,0,0,1-20.93-44.68l21.59-25.91a26.17,26.17,0,0,1,40.2,0l21.58,25.9A27.24,27.24,0,0,1,268.76,368Zm0,0" transform="translate(0 0)"/><rect x="304" y="160" width="16" height="32"/><rect x="176" y="160" width="16" height="32"/><path class="cls-1" d="M312,24a55.34,55.34,0,0,0-16.46,2.56,55.83,55.83,0,0,0-95.09,0A55.11,55.11,0,0,0,184,24a56,56,0,0,0-23.95,106.57A55.93,55.93,0,0,0,248,173.89a55.93,55.93,0,0,0,87.95-43.32A56,56,0,0,0,312,24Zm0,0" transform="translate(0 0)"/></g></g></svg>