<svg xmlns="http://www.w3.org/2000/svg" viewBox="0 0 456.23 496"><defs><style>.cls-1{fill:#f0bc5e;}</style></defs><title>Ресурс 7</title><g id="Слой_2" data-name="Слой 2"><g id="Слой_1-2" data-name="Слой 1"><path d="M372.11,152h-16v-8a128,128,0,0,0-256,0v8h-16v-8c0-79.4,64.6-144,144-144s144,64.6,144,144Zm0,0"/><rect x="284.11" y="72" width="16" height="16"/><rect x="156.11" y="72" width="16" height="16"/><path d="M418.86,483.7a349.6,349.6,0,0,1-54.75-188V272h-16v23.7A365.65,365.65,0,0,0,397.87,480H262.53l2-1.34a141.64,141.64,0,0,0,60.94-94.25,487.93,487.93,0,0,0,6.62-80V288h-16v16.37a472.56,472.56,0,0,1-6.41,77.42,125.7,125.7,0,0,1-36.63,69.54,559,559,0,0,0,11-172l-15.93,1.45a543.14,543.14,0,0,1-11.7,171.58L250.05,480H206.18l-6.39-27.7a543,543,0,0,1-11.69-171.58l-15.94-1.45a559.12,559.12,0,0,0,11,172,125.73,125.73,0,0,1-36.63-69.54,472.13,472.13,0,0,1-6.41-77.42V288h-16v16.37a488,488,0,0,0,6.62,80,141.66,141.66,0,0,0,60.94,94.25l2,1.34H58.35a365.62,365.62,0,0,0,49.76-184.31V272h-16v23.7a349.59,349.59,0,0,1-54.75,188L29.54,496H426.69Zm0,0"/><path class="cls-1" d="M308.11,120a87.65,87.65,0,0,0-48.93,14.84c-1,1-1.9,2-2.86,3a29.5,29.5,0,0,1,13.3,46.31L254.11,203.5a33.29,33.29,0,0,1-52,0l-15.51-19.39a29.49,29.49,0,0,1,13.29-46.31c-.95-1-1.9-1.91-2.86-3a88,88,0,1,0,31.07,109.81,88,88,0,1,0,80-124.65Zm0,0"/><path d="M228.11,224a41.05,41.05,0,0,1-32.24-15.5L180.36,189.1A37.61,37.61,0,0,1,209.72,128H246.5a37.61,37.61,0,0,1,29.36,61.11l-15.5,19.4A41.11,41.11,0,0,1,228.11,224Zm-18.39-80a21.61,21.61,0,0,0-16.87,35.11l15.52,19.4a25.29,25.29,0,0,0,39.49,0l15.51-19.41A21.6,21.6,0,0,0,246.5,144Zm0,0"/><rect x="140.11" y="160" width="16" height="16"/><rect x="124.11" y="200" width="16" height="16"/><rect x="164.11" y="216" width="16" height="16"/><path d="M8.23,222.85,0,209.14A176.47,176.47,0,0,1,90.76,184h9.35v16H90.76A160.44,160.44,0,0,0,8.23,222.85Zm0,0"/><rect x="300.11" y="160" width="16" height="16"/><rect x="316.11" y="200" width="16" height="16"/><rect x="276.11" y="216" width="16" height="16"/><path d="M448,222.85A160.43,160.43,0,0,0,365.46,200h-9.35V184h9.35a176.43,176.43,0,0,1,90.76,25.15Zm0,0"/><path d="M8.23,254.85,0,241.14A176.47,176.47,0,0,1,90.76,216h9.35v16H90.76A160.44,160.44,0,0,0,8.23,254.85Zm0,0"/><path d="M448,254.85A160.43,160.43,0,0,0,365.46,232h-9.35V216h9.35a176.43,176.43,0,0,1,90.76,25.14Zm0,0"/></g></g></svg>