<svg xmlns="http://www.w3.org/2000/svg" viewBox="0 0 491 479.99"><defs><style>.cls-1{fill:#f0bc5e;}</style></defs><title>Ресурс 6</title><g id="Слой_2" data-name="Слой 2"><g id="Слой_1-2" data-name="Слой 1"><path d="M245.5,480c-37,0-54.7-43.18-55.43-45l14.85-6c.14.35,14.45,35,40.58,35,26.28,0,40.43-34.63,40.57-35L300.93,435c-.73,1.85-18.43,45-55.43,45Zm0,0" transform="translate(0 -0.01)"/><path class="cls-1" d="M358,191.16A70.84,70.84,0,0,0,294.67,152H282.6a639.64,639.64,0,0,0-13.1,128.29v88.44a12,12,0,0,1,5.6,18.46l-16.8,22.4a16,16,0,0,1-25.6,0l-16.8-22.4a12,12,0,0,1,5.6-18.46V280.29A640.27,640.27,0,0,0,208.41,152H196.34A70.84,70.84,0,0,0,133,191.16l-16.64,33.28,2.38,3.81a286.46,286.46,0,0,1,43,135.56l1.65,29.76a49.17,49.17,0,0,0,82.14,33.66,49.17,49.17,0,0,0,82.15-33.67l1.65-29.76a286.49,286.49,0,0,1,43-135.56l2.38-3.8Zm0,0" transform="translate(0 -0.01)"/><path d="M442,307.74a115.78,115.78,0,0,0,35-24l14-14-9.93-5A101.89,101.89,0,0,1,454.5,245.7a184,184,0,0,1-31.18-41.53L408,176.36A196.38,196.38,0,0,0,459.68,60.45c1.21-13.38,1.82-26.92,1.82-40.25V0H427.35a211.61,211.61,0,0,0-60.76,8.91A132.65,132.65,0,0,0,290,70a169.83,169.83,0,0,0-89,0,132.64,132.64,0,0,0-76.6-61A211.33,211.33,0,0,0,63.65,0H29.5V20.2c0,13.33.61,26.87,1.88,40.94A195.76,195.76,0,0,0,83,176.36l-15.3,27.82A184.25,184.25,0,0,1,36.5,245.7,102.2,102.2,0,0,1,9.93,264.85l-9.93,5,14,14a115.78,115.78,0,0,0,35,24,66.1,66.1,0,0,1-30,20.68L9,331.73l5.82,8.72a146.34,146.34,0,0,0,93.66,62.72l61.39,12.28a49,49,0,0,1-6.09-17.54l-52.16-10.43a130.29,130.29,0,0,1-77.73-47.92,82.16,82.16,0,0,0,32.27-28.16L74,299.72,64,296.42a99.76,99.76,0,0,1-37.38-22.61A118.15,118.15,0,0,0,47.82,257,199.83,199.83,0,0,0,81.7,211.88L110.25,160a154.26,154.26,0,0,1,74.69-67.59l.59,1.94a631.56,631.56,0,0,1,28,186v83.8a19.91,19.91,0,0,0-8,15.9,20.18,20.18,0,0,0,4,12l16.81,22.39a24,24,0,0,0,38.38,0L281.5,392v0a20.11,20.11,0,0,0,4-12,19.91,19.91,0,0,0-8-15.9v-83.8a631.56,631.56,0,0,1,28-186l.59-1.94a154.26,154.26,0,0,1,74.7,67.6l28.54,51.89A200.37,200.37,0,0,0,443.18,257a118.15,118.15,0,0,0,21.16,16.8A99.76,99.76,0,0,1,427,296.42l-9.94,3.3,7.79,11.67a82.14,82.14,0,0,0,32.27,28.16,130.28,130.28,0,0,1-77.73,47.92L327.19,397.9a48.76,48.76,0,0,1-6.09,17.54l61.39-12.28a146.32,146.32,0,0,0,93.66-62.72l5.82-8.72L472,328.42a66.2,66.2,0,0,1-30-20.68ZM371.2,24.25A195.62,195.62,0,0,1,427.35,16H445.5V20.2c0,3.9-.16,7.86-.27,11.81h-1.86a211.6,211.6,0,0,0-60.76,8.91,131.87,131.87,0,0,0-62.22,40.49c-4.84-2.37-9.81-4.49-14.86-6.39A116.61,116.61,0,0,1,371.2,24.25ZM45.5,16H63.65a195.76,195.76,0,0,1,56.17,8.24A116.66,116.66,0,0,1,185.5,75c-5.05,1.9-10,4-14.86,6.39a131.84,131.84,0,0,0-62.23-40.49A211.65,211.65,0,0,0,47.65,32H45.78c-.11-3.95-.27-7.89-.27-11.81ZM96.23,152.27l-5.11,9.29A180.46,180.46,0,0,1,47.27,59c-.33-3.66-.51-7.33-.75-11h1.13a195.76,195.76,0,0,1,56.17,8.24,115.84,115.84,0,0,1,52.45,33.1,170,170,0,0,0-60,62.93ZM268.69,382.42l-16.8,22.39c-3,4-9.8,4-12.8,0l-16.8-22.38a4.19,4.19,0,0,1-.79-2.42,4,4,0,0,1,4-4h40a4,4,0,0,1,4,4,4.1,4.1,0,0,1-.81,2.42ZM290.17,89.63A647.84,647.84,0,0,0,261.5,280.29V360h-32V280.29A647.84,647.84,0,0,0,200.83,89.63L200,87a152.66,152.66,0,0,1,91,0Zm44.58-.28a115.75,115.75,0,0,1,52.45-33.1A195.62,195.62,0,0,1,443.35,48h1.12c-.25,3.88-.44,7.71-.8,11.67a179.84,179.84,0,0,1-43.79,101.88l-5.11-9.29a170.13,170.13,0,0,0-60-62.93Zm0,0" transform="translate(0 -0.01)"/><rect x="173.5" y="208" width="16" height="16"/><rect x="301.5" y="208" width="16" height="16"/></g></g></svg>