<svg xmlns="http://www.w3.org/2000/svg" viewBox="0 0 117.76 104.88"><defs><style>.cls-1{fill:none;stroke:#30e3ca;stroke-linecap:round;stroke-linejoin:round;stroke-width:3.68px}</style></defs><g id="Layer_2" data-name="Layer 2"><g id="Objects"><path class="cls-1" d="M115.92 46h-5.52a8.3 8.3 0 00-5.52 1.84M84.64 22.08l5.52-16.56s-5.44-3.68-11-3.68c-2.45 0 0 16.56 0 16.56"/><path class="cls-1" d="M77.59 9.2a47.85 47.85 0 00-60.68 40.22c-1.86 1.92-2.73 2.31-4 .26C11.27 47.15 4.37 34.27 3.68 35s-1.84.69-1.84 3.68S5.52 51.75 5.52 55.2 1.84 68.73 1.84 71.72s1.15 3 1.84 3.67 7.59-12.16 9.2-14.68c1.3-2.05 2.17-1.66 4 .26a47.83 47.83 0 0095.32-5.77 13.19 13.19 0 013.68-9.2l-2.69-5.38a12.09 12.09 0 01-1-6.74 7.19 7.19 0 00-4-7.18 7.06 7.06 0 00-2.71-.91 8.8 8.8 0 01-5.7-2.71 48.25 48.25 0 00-11.52-9.32"/><path class="cls-1" d="M33.12 18.4c-2.76-4.6-6-9.2-12.88-9.2 0 0 5.52 5.52 5.52 16.56M93.84 92"/><circle class="cls-1" cx="104.88" cy="33.12" r="1.84"/></g></g></svg>