<svg xmlns="http://www.w3.org/2000/svg" viewBox="0 0 117.76 62.76"><defs><style>.cls-1{fill:none;stroke:#30e3ca;stroke-linecap:round;stroke-linejoin:round;stroke-width:3.68px}</style></defs><g id="Layer_2" data-name="Layer 2"><g id="Objects"><path class="cls-1" d="M82.26 49.79s19.9-1.15 26.16-1.84c8.3-.92 7.48-3.68 7.48-3.68 0-1.61-5.45-10.57-13.08-14.71a69.16 69.16 0 00-26.17-7.35c-8.43-.64-8.06-12.53-15-18.39-2.67-2.27-6.77-3-5.6 0s6.77 15.86 0 18.39-24.25 3.45-44.81 20.22c0 0-7.07-2.79-9.34 0C1.28 43.2 5.64 48 5.64 48S1.9 55 1.9 59c0 .16 7.79-3.22 9.34-9.19.66-2.52 19.38-6.86 33.64-3.68 15.11 3.37 24.3 3.68 24.3 3.68"/><path class="cls-1" d="M71.05 48s-3 11.64-1.87 12.87 13.39-9.5 14.95-14.71 22.11 0 29.9 0m-44.85 3.63c-2.81 0-11.22-2.84-16.82-11-6-8.71-13.47-5.73-16.82-3.68a2.07 2.07 0 001.87 3.68c3.74-1.15 5.71 0 5.6 0-1.16-.52-5.34-2.3-18.68 6.85m74.75-6.88c-1.17-2.38-5.76-5.75-15-5.52a11.31 11.31 0 005.6 5.52c3.95 1.53 9.4 0 9.4 0z"/></g></g></svg>