<svg xmlns="http://www.w3.org/2000/svg" viewBox="0 0 117.76 53.52"><defs><style>.cls-1{fill:none;stroke:#30e3ca;stroke-linecap:round;stroke-linejoin:round;stroke-width:3.68px}</style></defs><g id="Layer_2" data-name="Layer 2"><g id="Objects"><path class="cls-1" d="M111.07 26.72c-5.42-13.84-20.14-17.52-43-15.53C43 13.38 19.78 31.43 18.4 31.43c-5.21 0-11.65 1.08-16.56 3.68 0 0 9.51 3.68 16.56 3.68.46 0 1.38 8.13 5.52 12.88.28.33 3.22-8.12 1.84-14.72 0 0 18.8-9.44 35-5.52 18.94 4.6 37.34 1.92 47.64 5.32 5.77 1.9 7.56-2.56 7.56-5.32 0-3.06-11-7.36-11-7.36m9.62 11.12c-.92-1.49-5.79-4.75-13.46-6.82"/><path class="cls-1" d="M83 10.69c-1.22-1.8-6.44-8.85-14.87-8.85a17.83 17.83 0 012.4 9.16m25.14 23.88c0 2.07-4.74 9.59-18.54 9.59 0 0 9.27-4.14 9.27-9.94m-3.6-10.38c-3.22-.69-10.93 3.56-16.56 1.84 0 0 10.58 6.9 22.08 1.84"/></g></g></svg>