<svg xmlns="http://www.w3.org/2000/svg" viewBox="0 0 117.76 112.42"><defs><style>.cls-1{fill:none;stroke:#30e3ca;stroke-linecap:round;stroke-linejoin:round;stroke-width:3.68px}</style></defs><g id="Layer_2" data-name="Layer 2"><g id="Objects"><path class="cls-1" d="M113.34 41.5L80.8 43.2a10.92 10.92 0 01-11.11-8.08L61.25 3.66a2.45 2.45 0 00-4.74 0l-8.44 31.46A10.92 10.92 0 0137 43.2L4.42 41.5A2.45 2.45 0 003 46l27.28 17.75a10.92 10.92 0 014.24 13.07l-11.66 30.42a2.45 2.45 0 003.83 2.76L52 89.53a10.9 10.9 0 0113.74 0L91.07 110a2.45 2.45 0 003.83-2.78l-11.66-30.4a10.92 10.92 0 014.24-13.07L114.8 46a2.45 2.45 0 00-1.46-4.5z"/><circle class="cls-1" cx="58.88" cy="62.22" r="7.36"/><path class="cls-1" d="M23.92 110.06l29.44-40.29m11.04 0l29.44 40.29m-42.32-50.3L3.68 43.82m62.56 15.94l47.84-15.94m-55.2 11.04V3.34M42.32 68.59l9.2-3.54m2.01-10.19l-5.69-7.82m27.6 21.55l-9.2-3.54M64.4 54.63l5.52-7.59M58.88 69.58v9.2"/></g></g></svg>