<svg xmlns="http://www.w3.org/2000/svg" viewBox="0 0 117.76 88.2"><defs><style>.cls-1{fill:none;stroke:#30e3ca;stroke-linecap:round;stroke-linejoin:round;stroke-width:3.68px}</style></defs><g id="Layer_2" data-name="Layer 2"><g id="Objects"><ellipse class="cls-1" cx="58.88" cy="44.53" rx="26.62" ry="17.11"/><path class="cls-1" d="M45.57 27.42v3.8m26.62-3.8v3.8M34.16 35c.07-2.61-1.9-4.63-5.7-5.7S20 28.13 19 31.22s4.83 13.31 7.61 13.31c3.04 0 7.39-4.75 7.55-9.53z"/><path class="cls-1" d="M23.23 28.64a7.24 7.24 0 01-.48-6.92c1.3-3.22 15.93-24.37 26.62-19m3.81 7.59c-1.51 3-15.85 17.11-22.82 19.7"/><path class="cls-1" d="M53.18 10.31s-9.51 5.07-15.18 3.8A18.58 18.58 0 0149.37 2.7m15.21 7.61s9.51 5.07 15.21 3.8A18.58 18.58 0 0068.39 2.7M51.27 59.74A53.29 53.29 0 0146.11 65a1.88 1.88 0 01-1.25.48H27.34A1.93 1.93 0 0026 66L15.71 76.3a1.88 1.88 0 00-.56 1.34v8.72"/><path class="cls-1" d="M45.57 57.84l-1.21 1.21a1.91 1.91 0 01-1.66.53L21.38 56a1.86 1.86 0 00-1 .11l-8.55 3.42a2 2 0 00-.78.57l-7 8.71a1.9 1.9 0 00-.4.92L1.84 82.56m34.22-30.42l-12.9-1.85a1.83 1.83 0 01-.75-.27L1.84 36.93m30.42 11.4l-11.13-5.56a1.72 1.72 0 01-.49-.36l-8.89-8.88a2 2 0 01-.52-1l-1.78-8.91M83.6 35c-.07-2.61 1.9-4.63 5.7-5.7s8.44-1.19 9.51 1.9S94 44.53 91.2 44.53c-3.09 0-7.48-4.75-7.6-9.53z"/><path class="cls-1" d="M94.53 28.64a7.24 7.24 0 00.47-6.92c-1.3-3.22-15.93-24.37-26.62-19m-3.8 7.59c1.51 3 15.85 17.11 22.82 19.7M66.49 59.74A53.29 53.29 0 0071.65 65a1.88 1.88 0 001.25.48h17.52a1.93 1.93 0 011.34.55l10.29 10.3a1.88 1.88 0 01.56 1.34v8.72"/><path class="cls-1" d="M72.19 57.84l1.21 1.21a1.91 1.91 0 001.66.53L96.38 56a1.86 1.86 0 011 .11l8.62 3.45a2 2 0 01.78.57l7 8.71a1.9 1.9 0 01.4.92l1.83 12.8M81.7 52.14l12.9-1.85a1.83 1.83 0 00.75-.27l20.57-13.09M85.5 48.33l11.13-5.56a1.72 1.72 0 00.49-.36l8.88-8.88a2 2 0 00.52-1l1.78-8.94"/></g></g></svg>