<svg xmlns="http://www.w3.org/2000/svg" viewBox="0 0 117.76 74.98"><defs><style>.cls-1{fill:none;stroke:#30e3ca;stroke-linecap:round;stroke-linejoin:round;stroke-width:3.68px}</style></defs><g id="Layer_2" data-name="Layer 2"><g id="Objects"><path class="cls-1" d="M97.52 44.85s-5.52.92-7.36-5.52M92 50.37a7 7 0 01-5.52-3.68"/><path class="cls-1" d="M1.84 37.49a17.58 17.58 0 005.52 12.88S11.73 43 25.76 43s13.57 22.08 36.8 22.08c29.44 0 49.45-20.7 53.36-25.76 0 0-5.52-1.6-5.52-1.84 0-4 5.52-7.36 5.52-7.36C112.93 28.29 92 9.89 62.56 9.89 39.33 9.89 39.79 32 25.76 32s-18.4-7.36-18.4-7.36a17.58 17.58 0 00-5.52 12.85"/><path class="cls-1" d="M105.71 23.06c-.6-2.59-16.77-21.22-49.36-21.22-24.15 0-21.91 30-28.55 30m77.08 18.53c-.6 2.59-13.8 22.77-48.53 22.77-24.15 0-21.91-29.95-28.55-29.95m75.24-14.9zm1.84 7.36zM90.16 13.57V9.89m-7.36 1.84V8.05m-7.36 1.84V4.37m-7.36 5.52V4.37m-7.36 5.52V2.53m-7.36 7.36V2.53M46 15.41V4.37m-7.36 18.4V11.73m51.52 47.84v3.68m-7.36 0v3.68m-7.36-1.84v5.52m-7.36-5.52v5.52m-7.36-5.52v7.36m-7.36-7.36v7.36M46 59.57v11.04m-7.36-18.4v11.04M23.92 33.81v9.2"/></g></g></svg>