<svg xmlns="http://www.w3.org/2000/svg" viewBox="0 0 27.35 27.36"><defs><clipPath id="clip-path"><path fill="none" d="M5 4h18v19H5z"/></clipPath><clipPath id="clip-path-3"><path class="cls-2" d="M13.67 22.36A8.68 8.68 0 105 13.68a8.72 8.72 0 008.67 8.67z"/></clipPath><clipPath id="clip-path-4"><path class="cls-2" d="M13.49 17.39a1.11 1.11 0 01-.86-.45l-2.38-2.87a1 1 0 01-.25-.64.85.85 0 01.85-.85.9.9 0 01.72.37l1.9 2.36 6.66-9.83a.87.87 0 01.75-.48.85.85 0 01.89.81 1.26 1.26 0 01-.22.62l-7.22 10.49a1 1 0 01-.84.47z"/></clipPath><style>.cls-2{fill:none;clip-path:url(#clip-path)}</style></defs><g id="Слой_2" data-name="Слой 2"><g id="Слой_1-2" data-name="Слой 1"><g clip-path="url(#clip-path-3)"><path fill="#f1d130" d="M0 0h27.35v27.36H0z"/></g><g clip-path="url(#clip-path-4)"><path fill="#313131" d="M5 0h21.77v22.39H5z"/></g><g clip-path="url(#clip-path)"><path d="M13.49 17.39a1.11 1.11 0 01-.86-.45l-2.38-2.87a1 1 0 01-.25-.64.85.85 0 01.85-.85.9.9 0 01.72.37l1.9 2.36 6.66-9.83a.87.87 0 01.75-.48.85.85 0 01.89.81 1.26 1.26 0 01-.22.62l-7.22 10.49a1 1 0 01-.84.47z" stroke="#343131" stroke-miterlimit="10" fill="none"/></g></g></g></svg>