<svg width="62" height="40" xmlns="http://www.w3.org/2000/svg"><g fill="none" fill-rule="evenodd"><rect fill="#FFF" width="62" height="40" rx="4"/><g fill-rule="nonzero"><path d="M49.786 35.08v.08h.075c.016 0 .03-.004.04-.01a.036.036 0 00.015-.03.034.034 0 00-.015-.03.072.072 0 00-.04-.01h-.075zm.075-.057c.039 0 .069.008.09.026.021.017.031.04.031.07a.081.081 0 01-.025.062.123.123 0 01-.071.03l.099.114h-.077l-.092-.113h-.03v.113h-.065v-.302h.14zm-.02.407a.258.258 0 00.233-.156.259.259 0 00-.054-.279.252.252 0 00-.178-.073.256.256 0 00-.182.073.246.246 0 00-.053.081.245.245 0 00-.02.1c0 .034.006.068.02.098a.238.238 0 00.135.135.25.25 0 00.1.02m0-.58a.327.327 0 01.235.096.32.32 0 01.07.357.338.338 0 01-.176.173.331.331 0 01-.464-.3c0-.045.01-.087.027-.126a.32.32 0 01.176-.174.331.331 0 01.132-.026m-30.62-1.166c0-.576.377-1.05.995-1.05.59 0 .989.453.989 1.05 0 .598-.399 1.051-.989 1.051-.618 0-.996-.474-.996-1.05m2.657 0v-1.642h-.713v.399c-.227-.296-.57-.481-1.037-.481-.92 0-1.642.721-1.642 1.723 0 1.003.722 1.724 1.642 1.724.467 0 .81-.185 1.037-.481v.398h.713v-1.64zm24.116 0c0-.577.378-1.051.996-1.051.59 0 .988.453.988 1.05 0 .598-.397 1.051-.988 1.051-.618 0-.996-.474-.996-1.05m2.658 0v-2.96h-.715v1.717c-.226-.296-.57-.481-1.036-.481-.92 0-1.642.721-1.642 1.723 0 1.003.721 1.724 1.642 1.724.467 0 .81-.185 1.036-.481v.398h.715v-1.64zm-17.915-1.085c.46 0 .755.288.83.796h-1.703c.076-.474.364-.796.873-.796m.014-.64c-.962 0-1.635.701-1.635 1.724 0 1.044.7 1.724 1.683 1.724.494 0 .947-.123 1.345-.46l-.35-.529a1.57 1.57 0 01-.954.344c-.46 0-.88-.213-.982-.804h2.437c.007-.09.014-.179.014-.275-.007-1.023-.639-1.723-1.558-1.723m8.617 1.723c0-.576.378-1.05.995-1.05.59 0 .99.453.99 1.05 0 .598-.4 1.051-.99 1.051-.617 0-.995-.474-.995-1.05m2.657 0v-1.642h-.714v.399c-.227-.296-.57-.481-1.036-.481-.92 0-1.642.721-1.642 1.723 0 1.003.721 1.724 1.642 1.724.466 0 .81-.185 1.036-.481v.398h.714v-1.64zm-6.688 0c0 .995.694 1.723 1.751 1.723.495 0 .824-.11 1.18-.391l-.342-.577c-.268.192-.55.295-.859.295-.57-.007-.988-.419-.988-1.05 0-.632.418-1.044.988-1.051.31 0 .591.103.86.295l.342-.577c-.357-.281-.686-.391-1.18-.391-1.058 0-1.752.728-1.752 1.723m9.201-1.723c-.412 0-.68.192-.865.48v-.398h-.707v3.282h.714v-1.84c0-.542.233-.844.7-.844.145 0 .296.02.447.082l.22-.672a1.52 1.52 0 00-.509-.09m-19.13.343c-.343-.226-.817-.343-1.338-.343-.832 0-1.367.398-1.367 1.05 0 .536.398.866 1.132.969l.338.048c.39.055.576.158.576.343 0 .254-.261.399-.749.399-.494 0-.85-.158-1.091-.344l-.337.556c.392.288.886.426 1.421.426.948 0 1.498-.446 1.498-1.071 0-.577-.433-.879-1.147-.982l-.336-.049c-.31-.04-.557-.102-.557-.322 0-.24.233-.384.625-.384.419 0 .824.158 1.023.281l.309-.577zm9.208-.343c-.412 0-.68.192-.865.48v-.398h-.707v3.282h.714v-1.84c0-.542.233-.844.7-.844.145 0 .295.02.446.082l.22-.672a1.52 1.52 0 00-.508-.09m-6.09.082h-1.167v-.995h-.722v.995h-.665v.653h.665v1.497c0 .762.296 1.215 1.14 1.215.31 0 .666-.096.893-.254l-.206-.611a1.321 1.321 0 01-.632.185c-.357 0-.473-.22-.473-.55v-1.482h1.167v-.653zm-10.67 3.282v-2.06c0-.775-.495-1.297-1.292-1.304-.419-.007-.851.123-1.154.584-.226-.364-.583-.584-1.084-.584-.35 0-.693.103-.961.487v-.405h-.715v3.282h.72v-1.819c0-.57.317-.872.805-.872.474 0 .713.309.713.865v1.826h.722v-1.819c0-.57.33-.872.803-.872.487 0 .72.309.72.865v1.826h.722z" fill="#231F20"/><path d="M50.226 24.41v-.48h-.125l-.145.33-.143-.33h-.126v.48h.089v-.362l.135.312h.092l.135-.313v.363h.088zm-.793 0v-.398h.16v-.081h-.408v.08h.16v.399h.088z" fill="#F79410"/><path fill="#FF5F00" d="M36.016 26.472H25.201V7.034h10.815z"/><path d="M25.894 16.751a12.34 12.34 0 014.72-9.718 12.308 12.308 0 00-7.638-2.643c-6.827 0-12.36 5.534-12.36 12.361 0 6.828 5.533 12.362 12.36 12.362a12.31 12.31 0 007.639-2.643 12.341 12.341 0 01-4.721-9.719" fill="#EB001B"/><path d="M50.603 16.751c0 6.828-5.533 12.362-12.36 12.362-2.884 0-5.537-.988-7.64-2.643a12.34 12.34 0 004.722-9.719 12.34 12.34 0 00-4.722-9.718 12.311 12.311 0 017.64-2.643c6.827 0 12.36 5.534 12.36 12.361" fill="#F79E1B"/></g></g></svg>