<svg width="87" height="40" xmlns="http://www.w3.org/2000/svg" xmlns:xlink="http://www.w3.org/1999/xlink"><defs><linearGradient x1="16.148%" y1="39.935%" x2="85.832%" y2="60.549%" id="c"><stop stop-color="#222357" offset="0%"/><stop stop-color="#254AA5" offset="100%"/></linearGradient><path d="M35.262 15.29c-.039-3.063 2.73-4.772 4.815-5.788 2.143-1.043 2.862-1.712 2.854-2.644-.016-1.427-1.709-2.057-3.293-2.081-2.765-.043-4.372.746-5.65 1.343l-.995-4.66C34.275.87 36.649.354 39.11.332c5.778 0 9.558 2.852 9.579 7.274.022 5.612-7.763 5.923-7.71 8.432.018.76.744 1.572 2.335 1.779.787.104 2.96.184 5.424-.951l.967 4.508c-1.325.482-3.028.945-5.148.945-5.439 0-9.264-2.891-9.295-7.03m23.735 6.641a2.507 2.507 0 01-2.34-1.56L48.401.663h5.774l1.15 3.175h7.055l.666-3.175h5.089l-4.44 21.267h-4.699m.808-5.745l1.666-7.986h-4.563l2.897 7.986M28.262 21.93L23.71.663h5.502l4.549 21.267h-5.5m-8.14 0L14.397 7.455 12.08 19.763c-.272 1.374-1.346 2.167-2.538 2.167H.181l-.131-.617c1.922-.417 4.105-1.09 5.428-1.81.81-.44 1.04-.824 1.306-1.868L11.172.663h5.814l8.915 21.267h-5.778" id="a"/></defs><g fill="none" fill-rule="evenodd"><rect fill="#FFF" width="87" height="40" rx="4"/><g transform="matrix(1 0 0 -1 8.087 31.965)"><mask id="b" fill="#fff"><use xlink:href="#a"/></mask><g mask="url(#b)"><path fill="url(#c)" fill-rule="nonzero" d="M0 41.572l67.085 24.706 15.262-41.442L15.262.13" transform="translate(-7.08 -21.879)"/></g></g></g></svg>