<svg xmlns="http://www.w3.org/2000/svg" viewBox="0 0 477.89 496"><title>Ресурс 5</title><g id="Слой_2" data-name="Слой 2"><g id="Слой_1-2" data-name="Слой 1"><path d="M468.67,482.16A176.43,176.43,0,0,1,439,384v-2.36a147.79,147.79,0,0,0-4.8-108.13l-6.23-14a227.94,227.94,0,0,1-17.59-61.88,170.7,170.7,0,0,0-11.21-41.45A79.94,79.94,0,0,0,375,0C339,0,307.53,24.6,298,58.59a170,170,0,0,0-118.16,0C170.38,24.6,138.94,0,103,0A79.94,79.94,0,0,0,78.79,156.15,171.28,171.28,0,0,0,67.57,197.6,228.37,228.37,0,0,1,50,259.48l-6.23,14A147.81,147.81,0,0,0,39,381.64V384A176.43,176.43,0,0,1,9.23,482.16L0,496H477.89ZM375,16a64,64,0,0,1,17.42,125.54c-2.58-4.95-5.36-9.77-8.38-14.42a48,48,0,1,0-56.42-54.46c-4.76-2.86-9.68-5.45-14.71-7.84A64.34,64.34,0,0,1,375,16ZM343.3,83.43A32.11,32.11,0,0,1,343,80a32,32,0,1,1,32,32,19.77,19.77,0,0,1-2.16-.23A174.86,174.86,0,0,0,343.3,83.43Zm-34.14-2.62A419.77,419.77,0,0,0,256.4,216H221.5A419.67,419.67,0,0,0,168.73,80.81a155.08,155.08,0,0,1,140.44,0ZM239,296a25.21,25.21,0,0,1-19.75-9.49l-15.51-19.4A21.61,21.61,0,0,1,220.57,232h36.78a21.62,21.62,0,0,1,16.87,35.12L258.7,286.51A25.21,25.21,0,0,1,239,296ZM39,80A64,64,0,0,1,165,64.81c-5,2.4-9.95,5-14.71,7.84a48,48,0,1,0-56.42,54.47c-3,4.65-5.8,9.47-8.38,14.42A63.94,63.94,0,0,1,39,80Zm66.16,31.77A19.93,19.93,0,0,1,103,112a32,32,0,1,1,32-32,33.45,33.45,0,0,1-.35,3.43,174.71,174.71,0,0,0-29.49,28.34ZM29.38,480A192.12,192.12,0,0,0,53,411.38,148.77,148.77,0,0,0,74.45,438.8,195,195,0,0,0,135,480Zm183.14,0A178.11,178.11,0,0,1,85.75,427.49,132.49,132.49,0,0,1,58.37,280l6.24-14a244.6,244.6,0,0,0,18.82-66.21,157.08,157.08,0,0,1,71.44-111A403.68,403.68,0,0,1,205.79,219,37.65,37.65,0,0,0,183,253.62c0,.91.17,1.81.23,2.71A104.16,104.16,0,0,0,135,344h16a88,88,0,0,1,37.12-71.57,37.59,37.59,0,0,0,3.13,4.67l15.51,19.4A41,41,0,0,0,231,311.17v57.47c-31.12,4.56-46.46,34.41-47.16,35.78l14.3,7.18c.14-.27,14.33-27.59,40.85-27.59s40.71,27.33,40.84,27.57l14.31-7.16c-.69-1.37-16-31.22-47.15-35.77V311.18a41,41,0,0,0,24.24-14.67l15.51-19.4a38.09,38.09,0,0,0,3.13-4.67A88.05,88.05,0,0,1,327,344v16a88,88,0,0,1-176,0H135a104,104,0,0,0,208,0V344a104.16,104.16,0,0,0-48.23-87.67c.07-.91.23-1.8.23-2.71A37.65,37.65,0,0,0,272.11,219,404,404,0,0,1,323,88.78a157.1,157.1,0,0,1,71.44,111A244.31,244.31,0,0,0,413.3,266l6.23,14a132.45,132.45,0,0,1-27.37,147.48A178.11,178.11,0,0,1,265.38,480Zm130.4,0a195.17,195.17,0,0,0,60.54-41.2A149.63,149.63,0,0,0,425,411.38,191.82,191.82,0,0,0,448.53,480Zm0,0"/><path d="M183,184v-8H103v8a40,40,0,1,0,80,0Zm-62.63,8h45.25a24,24,0,0,1-45.25,0Zm0,0"/><path d="M295,184a40,40,0,1,0,80,0v-8H295Zm62.63,8a24,24,0,0,1-45.27,0Zm0,0"/></g></g></svg>