<svg xmlns="http://www.w3.org/2000/svg" viewBox="0 0 416 490"><title>Ресурс 4</title><g id="Слой_2" data-name="Слой 2"><g id="Слой_1-2" data-name="Слой 1"><path d="M416,112a16,16,0,0,0-16-16h-.07l-36.32.18A54,54,0,0,0,330,0H305l14.68,22a21.85,21.85,0,0,1-18.29,34l-15.36.22a196,196,0,0,0-156.15,0L114.46,56A21.85,21.85,0,0,1,96.27,22L111,0H86A54,54,0,0,0,52.4,96.21L16.07,96H16A16,16,0,0,0,0,112a64,64,0,0,0,64,64H92.14A160.31,160.31,0,0,0,88,212c0,5.14.31,10.27.81,15.39l-5.11,3.83A69.59,69.59,0,0,0,56,286.63a68.77,68.77,0,0,0,20.29,49L77.7,337a64.81,64.81,0,0,0,20.54,78.67l8.52,6.38a52.18,52.18,0,0,0,36.86,34.08,146.64,146.64,0,0,1,52.69,25.07L208,490l11.7-8.78a146.59,146.59,0,0,1,52.69-25.07,52.2,52.2,0,0,0,36.86-34.08l8.52-6.39A64.83,64.83,0,0,0,338.3,337l1.41-1.41a68.8,68.8,0,0,0,20.28-49,69.59,69.59,0,0,0-27.7-55.4l-5.11-3.83c.5-5.12.81-10.26.81-15.4a160.31,160.31,0,0,0-4.14-36H352a64,64,0,0,0,64-64Zm-16,0a47.54,47.54,0,0,1-2.79,16H321.28a45,45,0,0,0,5.94-15.61ZM312,212a145.28,145.28,0,0,1-15.26,64.62l-16.9,33.8A24,24,0,0,0,256,288H234.05l20.3-88h12.79a61.71,61.71,0,0,0,41.95-16.41A144.45,144.45,0,0,1,312,212Zm-9.46-51.27c.55,1.46,1.08,2.95,1.59,4.43a45.74,45.74,0,0,1-37,18.84H255.88l.08-10ZM198.37,288l-3.7-16h26.66l-3.69,16ZM225,256H191l-3.7-16H228.7Zm-65-72H148.84a45.75,45.75,0,0,1-37-18.84c.5-1.48,1-3,1.59-4.43l46.65,13.33Zm-53.15-.41A61.71,61.71,0,0,0,148.84,200h13L182,288H160a24,24,0,0,0-23.84,22.43l-16.9-33.8a143.3,143.3,0,0,1-12.36-93ZM152,312a8,8,0,0,1,8-8h96a8,8,0,0,1,8,8v30.1l-5.27,10.54a56.71,56.71,0,0,1-101.45,0L152,342.1ZM335.41,51.07a38,38,0,0,0-.46-34.76,38,38,0,0,1,14.61,70.22l-16.38,9.83-6,0a45.62,45.62,0,0,0-14.6-26.05,37.64,37.64,0,0,0,22.8-19.27Zm-41,26.31a29.55,29.55,0,0,1,9.09,47.75l-8.35-16.72-14.31,7.16L296,146l-42,12-19.88-100A179.54,179.54,0,0,1,281.3,71.56ZM217.49,56.25,240,168.79v22.3l-.21.91H216v16h20.1l-3.7,16h-48.8l-3.7-16H200V192H176.21l-.21-.91v-22.3L198.51,56.25Q203.24,56,208,56t9.49.25Zm-35.63,1.68-20,100L120,146l15.18-30.37-14.31-7.16-8.35,16.71a29.55,29.55,0,0,1,9.09-47.75l13.13-5.83a179.29,179.29,0,0,1,47.15-13.63ZM66.44,86.53A38,38,0,0,1,81.05,16.32a37.86,37.86,0,0,0,22.33,54,45.66,45.66,0,0,0-14.59,26l-6,0Zm22.34,25.86A45,45,0,0,0,94.72,128H18.79A47.54,47.54,0,0,1,16,112ZM64,160A47.8,47.8,0,0,1,28.3,144h74.89a161.21,161.21,0,0,0-6.46,16ZM344,286.63a52.85,52.85,0,0,1-14.05,36L318.4,307.2l-12.8,9.6,12.48,16.64A49.49,49.49,0,0,1,311.6,400a52.06,52.06,0,0,0-8.39-23.56l-8.56-12.84-13.31,8.88,8.56,12.84a36.3,36.3,0,0,1-21.4,55.35,162.54,162.54,0,0,0-58.41,27.8L208,470l-2.1-1.57a162.54,162.54,0,0,0-58.41-27.8,36.3,36.3,0,0,1-21.4-55.35l8.56-12.84-13.31-8.88-8.56,12.84A52,52,0,0,0,104.4,400a49.5,49.5,0,0,1-6.48-66.54L110.4,316.8l-12.8-9.6L86.05,322.59a52.87,52.87,0,0,1-14.05-36,53.47,53.47,0,0,1,19.61-41.18,160.54,160.54,0,0,0,13.34,38.32l38,76a72.72,72.72,0,0,0,130.09,0l38-76a160.66,160.66,0,0,0,13.34-38.32A53.44,53.44,0,0,1,344,286.63ZM312.81,144H387.7A47.8,47.8,0,0,1,352,160H319.27a163.17,163.17,0,0,0-6.46-16Zm0,0" transform="translate(0 0)"/><rect x="232" y="328" width="16" height="16"/><rect x="168" y="328" width="16" height="16"/></g></g></svg>