<svg xmlns="http://www.w3.org/2000/svg" viewBox="0 0 496 464"><title>Ресурс 30</title><g id="Слой_2" data-name="Слой 2"><g id="Слой_1-2" data-name="Слой 1"><rect x="264" y="328" width="16" height="16"/><rect x="216" y="328" width="16" height="16"/><path d="M152,232a47,47,0,0,0,33-13.66L203.31,200,185,181.66a46.63,46.63,0,0,0-65.94,0L100.69,200,119,218.34A47,47,0,0,0,152,232Zm-21.66-39a30.63,30.63,0,0,1,43.31,0l7,7-7,7a30.63,30.63,0,0,1-43.31,0l-7-7Zm0,0"/><path d="M468.3,0A172.85,172.85,0,0,0,346,50.64L333.49,63.2A138.3,138.3,0,0,0,270.82,48H225.19a138.27,138.27,0,0,0-62.67,15.2L150,50.64A172.85,172.85,0,0,0,27.7,0H0V8C0,24.2.82,40.57,2.43,56.68L6.62,98.55C7.53,107.76,8,117.1,8,126.31A115.43,115.43,0,0,0,57,220.7a136.71,136.71,0,0,0,17.86,85.81l25.41,43.55A325.79,325.79,0,0,0,36.11,377l7.77,14a309.83,309.83,0,0,1,64.7-26.69l3.55,6.06a63.52,63.52,0,0,0,12.19,35.23c-6.44,6.06-12.64,12.36-18.46,19L90,442.73l12,10.54,15.88-18.15c5.45-6.23,11.27-12.14,17.31-17.83a64.05,64.05,0,0,0,51.67,13.79C192.69,440.21,211.3,464,248,464s55.31-23.79,61.11-32.92a64,64,0,0,0,51.66-13.79c6,5.69,11.86,11.6,17.32,17.84L394,453.28l12-10.54L390.14,424.6c-5.81-6.64-12-12.95-18.46-19a63.52,63.52,0,0,0,12.19-35.23l3.55-6.06a309.83,309.83,0,0,1,64.7,26.7l7.77-14a325.72,325.72,0,0,0-64.16-26.94l25.42-43.56A136.75,136.75,0,0,0,439,220.71a115.45,115.45,0,0,0,49-94.4c0-9.21.47-18.55,1.38-27.75l4.18-41.88C495.18,40.57,496,24.2,496,8V0ZM357.36,62A156.91,156.91,0,0,1,468.3,16h11.63c-.05,2.83-.23,5.66-.32,8.5A172.36,172.36,0,0,0,370,74.64l-7.92,7.92a138.62,138.62,0,0,0-14.37-11Zm-86.54,2a121.65,121.65,0,0,1,40.69,7.1A402.17,402.17,0,0,0,264,260.24V296H232V260.24A402.28,402.28,0,0,0,184.5,71.1,121.57,121.57,0,0,1,225.18,64Zm38.89,257.14a47.8,47.8,0,0,1,50.19,20.23,325.5,325.5,0,0,0-48.13-5c.06-.91.23-1.8.23-2.71a37.09,37.09,0,0,0-2.29-12.48ZM296,333.62a21.67,21.67,0,0,1-4.74,13.5l-10.52,13.15a41.94,41.94,0,0,1-65.48,0l-10.52-13.15A21.61,21.61,0,0,1,221.61,312h52.78A21.64,21.64,0,0,1,296,333.62Zm-111.77,2.71a325.5,325.5,0,0,0-48.13,5,47.75,47.75,0,0,1,50.19-20.22A37,37,0,0,0,184,333.62c0,.91.17,1.8.23,2.71ZM24,126.31c0-9.75-.5-19.62-1.46-29.34L18.35,55.09c-.48-4.8-.82-9.65-1.15-14.48a157.73,157.73,0,0,1,24.55,4.08A157.4,157.4,0,0,1,76.3,57.82L83.7,43.63A173.35,173.35,0,0,0,45.63,29.16,173.49,173.49,0,0,0,16.39,24.5c-.1-2.83-.27-5.66-.32-8.5H27.7A156.83,156.83,0,0,1,138.64,61.94l9.59,9.6a141.76,141.76,0,0,0-14.37,11l-7.92-7.92a174,174,0,0,0-25.48-21L91.52,66.88a158.8,158.8,0,0,1,23.12,19.07l7.79,7.79A136.55,136.55,0,0,0,107,114.27L76.32,164.49a138.33,138.33,0,0,0-16.1,38.6A99.43,99.43,0,0,1,24,126.31ZM72,236.72a122.44,122.44,0,0,1,18-63.88l30.69-50.22a122.59,122.59,0,0,1,49.12-45.19A386.06,386.06,0,0,1,216,260.24v36.33a37.54,37.54,0,0,0-20.86,10.37,63.87,63.87,0,0,0-79,38.59L88.69,298.44A122.61,122.61,0,0,1,72,236.72ZM128,368a47.88,47.88,0,0,1,.85-8.82,309,309,0,0,1,60.1-7,38,38,0,0,0,3.29,4.93l.8,1a278.32,278.32,0,0,0-56.75,36.82A47.72,47.72,0,0,1,128,368Zm19.41,38.46a261.73,261.73,0,0,1,56-35.52,57.71,57.71,0,0,0,17.31,14.15,47.72,47.72,0,0,1-73.28,21.37ZM248,448c-24.8,0-38.93-13.8-45.1-21.89a63.54,63.54,0,0,0,32.86-35.43,57.05,57.05,0,0,0,24.48,0,63.56,63.56,0,0,0,32.84,35.43C286.89,434.16,272.7,448,248,448Zm72-32a47.63,47.63,0,0,1-44.69-30.9,57.76,57.76,0,0,0,17.31-14.15,261.73,261.73,0,0,1,56,35.52A47.65,47.65,0,0,1,320,416Zm-17-57.89.8-1a38.15,38.15,0,0,0,3.3-4.94,309.71,309.71,0,0,1,60.1,7,47.53,47.53,0,0,1-7.45,35.77A278,278,0,0,0,303,358.11Zm104.37-59.66-27.47,47.09a63.87,63.87,0,0,0-79-38.6A37.44,37.44,0,0,0,280,296.57V260.24a386.06,386.06,0,0,1,46.21-182.8,122.65,122.65,0,0,1,49.12,45.19L406,172.84a122.52,122.52,0,0,1,1.3,125.61ZM473.46,97c-1,9.73-1.46,19.6-1.46,29.34a99.46,99.46,0,0,1-36.22,76.79,138.37,138.37,0,0,0-16.1-38.6L389,114.28a135.56,135.56,0,0,0-15.43-20.54L381.36,86a156.45,156.45,0,0,1,97.43-45.34c-.34,4.84-.66,9.68-1.14,14.48Zm0,0"/><path d="M344,168a47,47,0,0,0-33,13.66L292.69,200,311,218.34a46.63,46.63,0,0,0,65.94,0L395.31,200,377,181.66A47,47,0,0,0,344,168Zm21.66,39a30.63,30.63,0,0,1-43.31,0l-7-7,7-7a30.63,30.63,0,0,1,43.31,0l7,7Zm0,0"/></g></g></svg>