<svg xmlns="http://www.w3.org/2000/svg" viewBox="0 0 452.66 496"><title>Ресурс 29</title><g id="Слой_2" data-name="Слой 2"><g id="Слой_1-2" data-name="Слой 1"><rect x="234.33" y="296" width="16" height="16"/><rect x="202.33" y="296" width="16" height="16"/><path d="M452.66,338.83l-3.47-17.32a80.53,80.53,0,0,0-35-51.94L442.33,232h-32c-2.67,0-5.34.1-8,.27V224a175,175,0,0,0-16.15-73.52,81.41,81.41,0,0,0,55.5-43.28,82.41,82.41,0,0,0,8.66-36.67v-3.2A67.34,67.34,0,0,0,322.77,37.21a96.46,96.46,0,0,1-18.12,25.14l-2.73,2.73a175.73,175.73,0,0,0-151.19,0L148,62.36a96.59,96.59,0,0,1-18.12-25.14A67.34,67.34,0,0,0,2.33,67.34v3.2A82.41,82.41,0,0,0,11,107.21a81.41,81.41,0,0,0,55.5,43.28A174.91,174.91,0,0,0,50.33,224v8.27c-2.66-.18-5.33-.27-8-.27h-32L38.5,269.57a80.53,80.53,0,0,0-35,51.94L0,338.83l30.65-7.66a146.75,146.75,0,0,0-4.32,35.39,89.45,89.45,0,0,0,135.46,76.7l18.35-11L196.08,496h60.5l15.95-63.76,18.35,11a89.45,89.45,0,0,0,135.46-76.7A146.75,146.75,0,0,0,422,331.17Zm-66.33-104.5a129.23,129.23,0,0,0-40,14.84V230.55l-17.86,3a107.19,107.19,0,0,0-64,36.2,37,37,0,0,0-6.12-3.09V234.51A209,209,0,0,1,315,90.91,159.94,159.94,0,0,1,386.33,224ZM274.33,416a47.65,47.65,0,0,1-41.14-23.38l-6.86-11.43-6.85,11.43a48,48,0,1,1-44.22-72.47,37.07,37.07,0,0,0,3.31,5l16.63,20.78A37.43,37.43,0,0,0,224.56,360h3.53a37.42,37.42,0,0,0,29.37-14.12l16.62-20.77a37.21,37.21,0,0,0,3.31-5A48,48,0,0,1,274.33,416ZM207.95,280h36.77a21.62,21.62,0,0,1,16.87,35.12L245,335.89A21.53,21.53,0,0,1,228.1,344h-3.53a21.53,21.53,0,0,1-16.88-8.11l-16.63-20.77A21.61,21.61,0,0,1,207.95,280ZM434.33,70.53a66,66,0,0,1-53.06,64.72l-2.73.55A177,177,0,0,0,348.3,97.3a112.65,112.65,0,0,0,20.77-28.93,50.45,50.45,0,0,1,58.31-26.68,50.91,50.91,0,0,1,6.94,25.65ZM337.09,44.38a51.21,51.21,0,0,1,73.77-20.09,66.82,66.82,0,0,0-56.09,36.93,96.46,96.46,0,0,1-18.12,25.14l-.36.36A175.78,175.78,0,0,0,316.6,73a112.75,112.75,0,0,0,20.49-28.62ZM300.86,82.53a224.88,224.88,0,0,0-58.54,152V264h-32V234.5a224.88,224.88,0,0,0-58.54-152,159.13,159.13,0,0,1,149.07,0ZM115.57,44.38A112.37,112.37,0,0,0,136.05,73a176.85,176.85,0,0,0-19.69,13.73l-.36-.36A96.59,96.59,0,0,1,97.89,61.21,66.81,66.81,0,0,0,41.79,24.28a51.23,51.23,0,0,1,73.77,20.09ZM71.38,135.26A65.6,65.6,0,0,1,25.3,100a66.29,66.29,0,0,1-7-29.52v-3.2a50.87,50.87,0,0,1,6.94-25.64A51.13,51.13,0,0,1,37.66,40,51,51,0,0,1,83.57,68.38,112.45,112.45,0,0,0,104.35,97.3a177.23,177.23,0,0,0-30.23,38.5ZM66.33,224A159.94,159.94,0,0,1,137.68,90.91,209,209,0,0,1,194.33,234.5v32.14a37.49,37.49,0,0,0-6.12,3.09,107.21,107.21,0,0,0-64-36.2l-17.86-3v18.62a129.42,129.42,0,0,0-40-14.84Zm49.44,216a73.52,73.52,0,0,1-73.44-73.44A131,131,0,0,1,49,325.14l5.49-16.43L21.15,317a64.64,64.64,0,0,1,32.76-37.89l8.58-4.29L42.33,248a112.76,112.76,0,0,1,67.2,22.4l12.8,9.6V249.45a91.33,91.33,0,0,1,54.31,31.37,37.39,37.39,0,0,0-6.31,20.8c0,1,.17,1.93.25,2.9A63.92,63.92,0,0,0,156.18,428l-2.62,1.57A73.46,73.46,0,0,1,115.77,440Zm80.18-10.53a62.79,62.79,0,0,0,22.38-11.61V480h-9.75ZM244.08,480h-9.75V417.87a62.92,62.92,0,0,0,22.38,11.61Zm92.81-40a73.41,73.41,0,0,1-37.78-10.46L296.49,428a63.92,63.92,0,0,0-14.41-123.45c.08-1,.25-1.93.25-2.9A37.35,37.35,0,0,0,276,280.82a91.27,91.27,0,0,1,54.31-31.37V280l12.8-9.6a112.76,112.76,0,0,1,67.2-22.4l-20.15,26.87,8.58,4.29A64.69,64.69,0,0,1,431.51,317l-33.38-8.34,5.49,16.43a131.24,131.24,0,0,1,6.71,41.43A73.52,73.52,0,0,1,336.89,440Zm0,0" transform="translate(0)"/><path d="M138.33,200a24,24,0,1,0-24-24,24,24,0,0,0,24,24Zm0-32a8,8,0,1,1-8,8,8,8,0,0,1,8-8Zm0,0" transform="translate(0)"/><path d="M314.33,152a24,24,0,1,0,24,24,24,24,0,0,0-24-24Zm0,32a8,8,0,1,1,8-8,8,8,0,0,1-8,8Zm0,0" transform="translate(0)"/></g></g></svg>