<svg xmlns="http://www.w3.org/2000/svg" viewBox="0 0 496 440"><title>Ресурс 23</title><g id="Слой_2" data-name="Слой 2"><g id="Слой_1-2" data-name="Слой 1"><path d="M176,144a24,24,0,1,0-24,24,24,24,0,0,0,24-24Zm-32,0a8,8,0,1,1,8,8,8,8,0,0,1-8-8Zm0,0"/><path d="M481.34,128.41a87.25,87.25,0,0,0,0-96.8l-1.18-1.77A67,67,0,0,0,377.06,19.62a127.84,127.84,0,0,1-27.48,20.79,175.39,175.39,0,0,0-203.17,0,127.84,127.84,0,0,1-27.48-20.79A67,67,0,0,0,15.83,29.83l-1.17,1.76a87.25,87.25,0,0,0,0,96.81,70.82,70.82,0,0,0,59,31.59A176.3,176.3,0,0,0,72,184v34.67A119.88,119.88,0,0,0,197.41,423c12.45,10,28.9,17,50.59,17s38.14-7,50.59-17A119.88,119.88,0,0,0,424,218.67V184a176.3,176.3,0,0,0-1.68-24,70.82,70.82,0,0,0,59-31.59Zm-93-97.47a51,51,0,0,1,78.47,7.76L468,40.46a72.24,72.24,0,0,1,4.42,7.8,66.65,66.65,0,0,0-79.38,11.36,129.13,129.13,0,0,1-11.45,10A178.52,178.52,0,0,0,363.12,51a143.83,143.83,0,0,0,25.25-20.11ZM344.28,56.52l-9.09,5.79a152.93,152.93,0,0,0-71,123.42,77,77,0,0,0-32.39,0,152.91,152.91,0,0,0-71-123.42l-9.09-5.79a158.82,158.82,0,0,1,192.57,0ZM28,40.46l1.17-1.76a51,51,0,0,1,78.48-7.77A144.13,144.13,0,0,0,132.88,51a177.84,177.84,0,0,0-18.49,18.59,128.83,128.83,0,0,1-11.45-10A66.63,66.63,0,0,0,23.56,48.27,70.37,70.37,0,0,1,28,40.46ZM73.69,144A54.85,54.85,0,0,1,28,119.53,71.06,71.06,0,0,1,16,80c0-1.86.27-3.68.41-5.52a50.85,50.85,0,0,1,75.22-3.54,144.39,144.39,0,0,0,12.92,11.29A175.09,175.09,0,0,0,76.64,144ZM88,184A159.44,159.44,0,0,1,138.88,67.31l13.34,8.49a137,137,0,0,1,63.75,115,80.38,80.38,0,0,0-28.36,20.83A119.67,119.67,0,0,0,88,210.09Zm91.59,182.77A64.36,64.36,0,0,0,192,368a63.55,63.55,0,0,0,17-2.36L217.44,408h61.12l8.58-42.89a62.61,62.61,0,0,0,29.37,1.08,110.55,110.55,0,0,1-9.22,21.89C293.87,411.91,273.93,424,248,424c-44.34,0-61.85-35.73-68.41-57.23ZM248,296a20.37,20.37,0,0,1-17.37-9.83l-13.09-21.82A10.69,10.69,0,0,1,216,258.8,10.81,10.81,0,0,1,226.79,248h42.41a10.8,10.8,0,0,1,9.26,16.34l-13.09,21.82A20.39,20.39,0,0,1,248,296Zm-24,63.33a64.47,64.47,0,0,0,24.15-24.7,64.43,64.43,0,0,0,23.9,24.18L265.44,392H230.56ZM464,320a103.9,103.9,0,0,1-153.61,91.34c15.43-18.44,21.93-40.9,24.32-51.79a64,64,0,0,0-21.57-119.47l-2.27,15.84a48,48,0,1,1-54.23,55,36.41,36.41,0,0,0,22.45-16.5l13.09-21.82a26.78,26.78,0,0,0-23-40.57H226.79a26.79,26.79,0,0,0-23,40.59l13.09,21.82a36.42,36.42,0,0,0,22.54,16.52,48,48,0,1,1-54.31-54.43l-2.27-15.84a64,64,0,0,0-21.43,119.56c2.5,11.12,9,33,24.18,51.13a104,104,0,1,1,.32-182.57l6.18,3.39,4.15-5.7a63.81,63.81,0,0,1,103.48,0l4.15,5.7,6.18-3.39A104,104,0,0,1,464,320ZM360,200a120.34,120.34,0,0,0-51.6,11.66A80.44,80.44,0,0,0,280,190.82a137,137,0,0,1,63.75-115l13.34-8.49A159.46,159.46,0,0,1,408,184v26.09A119.24,119.24,0,0,0,360,200Zm62.31-56h-3a175.09,175.09,0,0,0-27.9-61.77,143.29,143.29,0,0,0,12.92-11.29,50.85,50.85,0,0,1,75.22,3.54c.14,1.84.41,3.66.41,5.52a71.06,71.06,0,0,1-12,39.53A54.85,54.85,0,0,1,422.31,144Zm0,0"/><path d="M344,120a24,24,0,1,0,24,24,24,24,0,0,0-24-24Zm0,32a8,8,0,1,1,8-8,8,8,0,0,1-8,8Zm0,0"/></g></g></svg>