<svg xmlns="http://www.w3.org/2000/svg" viewBox="0 0 440.48 496"><title>Ресурс 21</title><g id="Слой_2" data-name="Слой 2"><g id="Слой_1-2" data-name="Слой 1"><path d="M393,331a255,255,0,0,1,39,19.77l8.48-13.56a270.89,270.89,0,0,0-44.67-22.33c.17-2.12.43-4.25.43-6.4a82,82,0,0,0-11.68-42.17l-8.16-13.61a123,123,0,0,0,13.88-104.83A79.61,79.61,0,0,0,422.34,50l.17-.21c-.11-.09-.23-.16-.34-.25a80,80,0,0,0-148.4,1.3A160.73,160.73,0,0,0,244.06,48H196.43a160.64,160.64,0,0,0-29.71,2.81,80,80,0,0,0-148.4-1.3c-.11.09-.23.16-.34.25l.17.21a79.58,79.58,0,0,0,32.07,97.9A123,123,0,0,0,64.08,252.71l-8.16,13.61a82,82,0,0,0-11.68,42.17c0,2.16.27,4.27.43,6.4A271.57,271.57,0,0,0,0,337.21l8.48,13.56a255.08,255.08,0,0,1,39-19.77A81.92,81.92,0,0,0,74,371.45a310,310,0,0,0-43.44,46.78l-.73,1,12.8,9.6.73-1a294.37,294.37,0,0,1,44.26-47,104.29,104.29,0,0,1,44.18,50.07l16.85,40.45A39.88,39.88,0,0,0,185.57,496h69.34a39.88,39.88,0,0,0,36.92-24.62l16.86-40.45a104.21,104.21,0,0,1,44.17-50.07,295,295,0,0,1,44.26,47l.72,1,12.8-9.59-.73-1a310.56,310.56,0,0,0-43.44-46.78A82,82,0,0,0,393,331Zm-8.6-198.23a123.86,123.86,0,0,0-16.29-26,160.39,160.39,0,0,0-43.78-37.23A64,64,0,0,1,372.24,48a63.19,63.19,0,0,1,36.58,11.51,63.76,63.76,0,0,1-24.39,73.27ZM334.5,96a145.56,145.56,0,0,1,21.26,21c.21.25.38.52.57.77A15.87,15.87,0,0,1,334.5,96Zm13.73-80a63.8,63.8,0,0,1,45.43,19,79.41,79.41,0,0,0-83.8,27.14,159.34,159.34,0,0,0-20.23-7.52A64.19,64.19,0,0,1,348.24,16ZM275.82,67.51A16,16,0,0,1,244.24,64a145.37,145.37,0,0,1,31.59,3.5ZM92.24,16a64.2,64.2,0,0,1,58.61,38.6,159.41,159.41,0,0,0-20.23,7.52A79.41,79.41,0,0,0,46.82,35,63.79,63.79,0,0,1,92.24,16Zm40,72a16,16,0,0,1-28.5,9.91,143.46,143.46,0,0,1,26.41-17.64A15.92,15.92,0,0,1,132.24,88Zm-104-8a63.67,63.67,0,0,1,3.43-20.49A63.18,63.18,0,0,1,68.24,48a63.92,63.92,0,0,1,47.87,21.57A160.52,160.52,0,0,0,72.34,106.8a124.06,124.06,0,0,0-16.29,26A63.67,63.67,0,0,1,28.24,80Zm32,228.49a65.94,65.94,0,0,1,9.4-33.93l4.83-8A124.37,124.37,0,0,0,89,281l6.15,5.13,10.24-12.3-6.15-5.13a108.31,108.31,0,0,1-14.49-151.8c2.33-2.84,4.88-5.43,7.38-8.07a31.86,31.86,0,0,0,52.63-35.15A144.32,144.32,0,0,1,196.41,64h31.82a31.94,31.94,0,0,0,62.91,7.85,143.19,143.19,0,0,1,30.42,14.8A31.6,31.6,0,0,0,316.24,104a32,32,0,0,0,32,32,31.7,31.7,0,0,0,17.1-5.17,108.12,108.12,0,0,1-24.07,137.9l-6.15,5.13,10.24,12.3L351.5,281A123.6,123.6,0,0,0,366,266.5l4.83,8a66,66,0,0,1,9.4,33.94c0,.28-.05.54-.05.82a271,271,0,0,0-49.73-11.1,55.63,55.63,0,0,0-78.21-36.66V233.68a103,103,0,0,1,10.88-46.15l3.37,2.25a61.83,61.83,0,0,0,67.5,0l17.34-11.56-7.13-10.69a52.85,52.85,0,0,0-87.93,0,118.91,118.91,0,0,0-20,66.16v39.2a56.61,56.61,0,0,0-5.82,7.11H210.06a55.92,55.92,0,0,0-5.82-7.11v-39.2a118.91,118.91,0,0,0-20-66.16,52.85,52.85,0,0,0-87.93,0l-7.13,10.69,17.34,11.56a61.83,61.83,0,0,0,67.5,0l3.37-2.25a102.83,102.83,0,0,1,10.88,46.15v27.87A55.63,55.63,0,0,0,110,298.21a270.43,270.43,0,0,0-49.73,11.1c0-.28-.06-.55-.06-.82ZM296.77,312c6.49,0,12.95.3,19.39.79a39.6,39.6,0,0,1-5.62,19.47c-7.54-4.13-15.18-8.07-23-11.57L281,335.31c6.3,2.8,12.46,5.86,18.52,9.09a39.63,39.63,0,0,1-23.27,7.6A40.05,40.05,0,0,1,251,342.93c.11-.19.25-.34.37-.53l13.09-21.82a26.66,26.66,0,0,0-14.06-38.93,39.83,39.83,0,0,1,62.78,14.93c-5.44-.33-10.89-.57-16.36-.57h-4.53v16ZM153,320.69c-7.87,3.5-15.51,7.44-23,11.57a39.59,39.59,0,0,1-5.63-19.47c6.44-.49,12.9-.79,19.39-.79h4.53V296h-4.53c-5.47,0-10.93.25-16.36.57a39.83,39.83,0,0,1,62.78-14.93,26.67,26.67,0,0,0-14.07,38.94l13.09,21.82c.11.19.25.35.37.53A40.1,40.1,0,0,1,164.24,352,39.62,39.62,0,0,1,141,344.4c6.06-3.22,12.22-6.28,18.52-9.09ZM241.45,296a10.8,10.8,0,0,1,9.25,16.34l-13.09,21.82a20.26,20.26,0,0,1-34.75,0l-13.09-21.82a10.7,10.7,0,0,1-1.55-5.54A10.81,10.81,0,0,1,199,296Zm-77.21,72a56,56,0,0,0,16-2.4V384h16V357.89a55.52,55.52,0,0,0,4.64-3.61,35.63,35.63,0,0,0,38.72,0,56.28,56.28,0,0,0,4.64,3.61V384h16V365.6a55.77,55.77,0,0,0,16,2.4c1.44,0,2.86-.11,4.27-.21L254.82,432H185.66L160,367.79c1.41.1,2.83.21,4.27.21ZM271.45,173.85a36.84,36.84,0,0,1,57.58,0l-3.92,2.62a45.59,45.59,0,0,1-49.75,0Zm-102.42,0-3.92,2.62a45.59,45.59,0,0,1-49.75,0l-3.92-2.62a36.85,36.85,0,0,1,57.59,0ZM62.49,325.41a254.38,254.38,0,0,1,45.88-10.95A55.64,55.64,0,0,0,116,340.3,312.53,312.53,0,0,0,86.38,361a66,66,0,0,1-23.89-35.62Zm231.42,99.37-16.86,40.44A23.93,23.93,0,0,1,254.9,480H185.57a24,24,0,0,1-22.16-14.78l-16.85-40.45a120.24,120.24,0,0,0-45.75-54.57A294.82,294.82,0,0,1,126,352.84a56.18,56.18,0,0,0,15,10l-.2.08,34,85h90.83l34-85-.2-.08a56.32,56.32,0,0,0,15-10,298.09,298.09,0,0,1,25.24,17.37,120.26,120.26,0,0,0-45.75,54.58Zm30.57-84.48a55.54,55.54,0,0,0,7.63-25.84A254.54,254.54,0,0,1,378,325.41,66,66,0,0,1,354.1,361a313,313,0,0,0-29.62-20.73Zm0,0" transform="translate(0)"/><rect x="196.24" y="80" width="16" height="16"/><rect x="348.24" y="144" width="16" height="16"/><rect x="228.24" y="128" width="16" height="16"/><rect x="84.24" y="128" width="16" height="16"/><rect x="156.24" y="112" width="16" height="16"/></g></g></svg>