<svg xmlns="http://www.w3.org/2000/svg" xmlns:xlink="http://www.w3.org/1999/xlink" viewBox="0 0 496 495.94"><defs><style>.cls-1{fill:none;}.cls-2{clip-path:url(#clip-path);}</style><clipPath id="clip-path" transform="translate(0 0)"><rect class="cls-1" width="496" height="496"/></clipPath></defs><title>Ресурс 17</title><g id="Слой_2" data-name="Слой 2"><g id="Слой_1-2" data-name="Слой 1"><rect x="264" y="247.94" width="16" height="16"/><g class="cls-2"><rect x="216" y="247.94" width="16" height="16"/><path d="M482.43,399.94,456,382.32l-24,16-24-16-26.43,17.61H370.21L388,355.49a55.61,55.61,0,0,0,4-20.8v-6.75a56.07,56.07,0,0,0-56-56c-1.38,0-2.73.11-4.08.21a107.79,107.79,0,0,0,8.63-15,160.47,160.47,0,0,1,63.34,21.64l8.23-13.72A176.55,176.55,0,0,0,347,241.87L357,217a287.82,287.82,0,0,1,71.94-9.07H432v-16h-3.07a304.16,304.16,0,0,0-63.31,6.66l13.61-27.21A121.62,121.62,0,0,0,392,117.26v-.83a120.8,120.8,0,0,0-53.89-100.7,94.79,94.79,0,0,0-81.88-11L248,7.51l-8.23-2.75a94.69,94.69,0,0,0-81.87,11A120.8,120.8,0,0,0,104,116.43v.83a121.62,121.62,0,0,0,12.78,54.13l13.61,27.21a303.63,303.63,0,0,0-63.31-6.66H64v16h3.07A287.57,287.57,0,0,1,139,217L149,241.87a176.35,176.35,0,0,0-65.07,23.21l8.23,13.72a160.41,160.41,0,0,1,63.34-21.64,108.34,108.34,0,0,0,8.63,15c-1.36-.11-2.72-.22-4.09-.22a56.07,56.07,0,0,0-56,56v6.76a55.62,55.62,0,0,0,4,20.8l17.78,44.44h-3.36L96,382.32l-24,16-24-16L21.57,399.94H0v16H26.43L48,401.55l24,16,24-16,21.57,14.38h15a31.57,31.57,0,0,0,54.93,0h22.42l14.73-7.36L248,416.37l23.38-7.79,14.73,7.36h22.41a31.57,31.57,0,0,0,54.93,0h22.95L408,401.55l24,16,24-16,21.57,14.38H496v-16ZM376,327.94v6.76a39.86,39.86,0,0,1-2.86,14.86l-7.36,18.38H306.21l-7.35-18.38A39.92,39.92,0,0,1,296,334.7v-6.76a40,40,0,0,1,80,0Zm-96-88a8,8,0,0,1,8,8,40,40,0,0,1-80,0,8,8,0,0,1,8-8Zm-32,64a55.54,55.54,0,0,0,27.87-7.5c-4,11.84-12,23.5-27.87,23.5s-23.84-11.67-27.87-23.5a55.54,55.54,0,0,0,27.87,7.5ZM376,117.26a105.5,105.5,0,0,1-11.09,47l-18.19,36.39c-.5,1-.91,2.06-1.38,3.08a307,307,0,0,0-36.48,12.89l6.3,14.7c7.32-3.13,14.75-5.88,22.25-8.38l-6.93,17.34c-3-.16-6.08-.31-9.12-.31H312v16h9.35c.61,0,1.2.06,1.81.07a93.08,93.08,0,0,1-28.52,31.06,94.87,94.87,0,0,0,1.19-10.15,55.6,55.6,0,0,0,8.17-29,24,24,0,0,0-24-24V174.29a202.83,202.83,0,0,1,13-71.46,60,60,0,0,1,56.13-38.89H361.8a104.82,104.82,0,0,1,14.2,52.5ZM166.77,29a78.67,78.67,0,0,1,67.94-9.11L248,24.37l13.29-4.43A78.64,78.64,0,0,1,329.23,29a104.75,104.75,0,0,1,21.23,18.89h-1.38A76,76,0,0,0,278,97.21a218.83,218.83,0,0,0-14,77.08v49.65H232V174.29a218.75,218.75,0,0,0-14-77.07,75.94,75.94,0,0,0-71.11-49.28h-1.37A105,105,0,0,1,166.77,29Zm7.88,210.89c-3,0-6.08.15-9.1.31l-6.93-17.34c7.49,2.51,14.92,5.25,22.25,8.39l6.31-14.71a306.08,306.08,0,0,0-36.48-12.89c-.47-1-.88-2.07-1.38-3.08l-18.19-36.4a105.36,105.36,0,0,1-11.1-47v-.83a104.83,104.83,0,0,1,14.2-52.5h12.71A59.93,59.93,0,0,1,203,102.83a202.72,202.72,0,0,1,13,71.45v49.66a24,24,0,0,0-24,24,55.61,55.61,0,0,0,8.17,29,93.86,93.86,0,0,0,1.19,10.15A93.14,93.14,0,0,1,172.83,256c.62,0,1.21-.07,1.82-.07H184v-16ZM120,334.7v-6.76a40,40,0,1,1,80,0v6.76a39.86,39.86,0,0,1-2.86,14.86l-7.36,18.38H130.21l-7.35-18.38A39.77,39.77,0,0,1,120,334.7Zm25.49,71.41-8.87-22.17H152v29.7a15.51,15.51,0,0,1-6.51-7.53Zm29,0a15.46,15.46,0,0,1-6.51,7.52V383.94h15.38Zm98.11-14.8L248,399.51l-24.62-8.21-17.27,8.64H194.21L212,355.49a55.61,55.61,0,0,0,4-20.8v-6.75a56,56,0,0,0-.53-7.27c7.36,9,17.83,15.27,32.53,15.27s25.17-6.3,32.53-15.27a56,56,0,0,0-.53,7.27v6.76a55.62,55.62,0,0,0,4,20.8l17.78,44.44h-11.9Zm48.87,14.8-8.87-22.17H328v29.7a15.51,15.51,0,0,1-6.51-7.53Zm29,0a15.54,15.54,0,0,1-6.51,7.52V383.94h15.38Zm0,0" transform="translate(0 0)"/></g><rect x="16" y="439.94" width="16" height="16"/><rect x="48" y="479.94" width="16" height="16"/><rect x="104" y="439.94" width="16" height="16"/><g class="cls-2"><rect x="184" y="455.94" width="16" height="16"/><rect x="480" y="439.94" width="16" height="16"/></g><rect x="448" y="479.94" width="16" height="16"/><rect x="392" y="439.94" width="16" height="16"/><rect x="312" y="455.94" width="16" height="16"/><path d="M320,119.94a24,24,0,1,0,24,24,24,24,0,0,0-24-24Zm0,32a8,8,0,1,1,8-8,8,8,0,0,1-8,8Zm0,0" transform="translate(0 0)"/><path d="M200,143.94a24,24,0,1,0-24,24,24,24,0,0,0,24-24Zm-24,8a8,8,0,1,1,8-8,8,8,0,0,1-8,8Zm0,0" transform="translate(0 0)"/></g></g></svg>