<svg xmlns="http://www.w3.org/2000/svg" viewBox="0 0 496 424"><title>Ресурс 15</title><g id="Слой_2" data-name="Слой 2"><g id="Слой_1-2" data-name="Слой 1"><rect x="208" y="288" width="16" height="16"/><rect x="272" y="288" width="16" height="16"/><path d="M496,104A103.87,103.87,0,0,0,317.14,32H178.86A103.94,103.94,0,1,0,47.37,191.24c-1.21,2.95-2.51,5.83-3.66,8.82A175.12,175.12,0,0,0,32,263.15,144.85,144.85,0,0,0,176.85,408h26a71.73,71.73,0,0,0,90.32,0h26A144.86,144.86,0,0,0,464,263.15a175.15,175.15,0,0,0-11.71-63.1c-1.14-3-2.44-5.87-3.66-8.82A104.16,104.16,0,0,0,496,104ZM348.52,241.37a294.06,294.06,0,0,1-47.09-112.61A79.57,79.57,0,0,1,392,208a79.36,79.36,0,0,1-29.36,61.91,109.36,109.36,0,0,0-14.12-28.54Zm-13.15,9.11A93.31,93.31,0,0,1,315.06,378,71.51,71.51,0,0,0,320,352V322a47.6,47.6,0,0,0-72-61.29A47.6,47.6,0,0,0,176,322v30a71.51,71.51,0,0,0,4.94,26,93.31,93.31,0,0,1-20.31-127.53A310.11,310.11,0,0,0,216,73.22V48h64V73.22a310.11,310.11,0,0,0,55.37,177.26ZM184,295.6a31.6,31.6,0,0,1,53.95-22.34L248,283.31l10.06-10.05a31.6,31.6,0,1,1,44.69,44.69L269.66,351a30.63,30.63,0,0,1-43.31,0l-33.09-33.09A31.4,31.4,0,0,1,184,295.6Zm-50.64-25.69A80,80,0,0,1,184,128a80.26,80.26,0,0,1,10.57.76,294.06,294.06,0,0,1-47.09,112.61,109.36,109.36,0,0,0-14.12,28.54ZM16,104A87.86,87.86,0,0,1,160.22,36.46l-11.3,11.3A72,72,0,0,0,32,104a72.37,72.37,0,0,0,29,57.61c-2.47,4.79-4.78,9.67-7,14.58A88,88,0,0,1,16,104Zm52.69,43.39A56,56,0,0,1,104,48a55.59,55.59,0,0,1,33.5,11.19l-6.38,6.38a384.4,384.4,0,0,0-62.43,81.82ZM48,263.15a159,159,0,0,1,10.65-57.34A367.81,367.81,0,0,1,142.43,76.89L171.31,48H200V73.22A297.11,297.11,0,0,1,197.19,113,95.4,95.4,0,0,0,88,208a95.2,95.2,0,0,0,41.34,78.69,110.71,110.71,0,0,0-1.34,17,108.69,108.69,0,0,0,44.81,88.1A128.65,128.65,0,0,1,48,263.15ZM248,408a56.07,56.07,0,0,1-56-56V339.31l23,23a46.63,46.63,0,0,0,65.94,0l23-23V352a56.07,56.07,0,0,1-56,56Zm152.73-45.13a129,129,0,0,1-77.54,29A108.69,108.69,0,0,0,368,303.72a109.8,109.8,0,0,0-1.34-17A95.85,95.85,0,0,0,312,112a96.48,96.48,0,0,0-13.19,1A297.12,297.12,0,0,1,296,73.22V48h28.69l28.89,28.89A367.92,367.92,0,0,1,437.35,205.8,159,159,0,0,1,448,263.15a128.35,128.35,0,0,1-47.27,99.72Zm26.58-215.48a384.23,384.23,0,0,0-62.43-81.8L358.5,59.2A55.92,55.92,0,0,1,448,104a56.31,56.31,0,0,1-20.69,43.39Zm14.77,28.79c-2.27-4.9-4.58-9.79-7-14.58A71.92,71.92,0,0,0,392,32a71.42,71.42,0,0,0-44.92,15.77l-11.3-11.3a87.87,87.87,0,1,1,106.3,139.72Zm0,0" transform="translate(0 0)"/><rect x="136" y="176" width="16" height="16"/><rect x="344" y="176" width="16" height="16"/></g></g></svg>