<svg xmlns="http://www.w3.org/2000/svg" viewBox="0 0 439.11 490"><title>Ресурс 8</title><g id="Слой_2" data-name="Слой 2"><g id="Слой_1-2" data-name="Слой 1"><path d="M439.11,325.24l-6.91-27.61a143.19,143.19,0,0,0-16.17-39,108.36,108.36,0,0,1-14.91-45.68l-.81-8.89A162.76,162.76,0,0,0,394,172.08l1,.76,10.23-13.49a110.57,110.57,0,0,0,20.13-44.55,109.18,109.18,0,0,0,1.05-37.32l-1-6.95A439.87,439.87,0,0,1,420.94,8V0h-8a75.81,75.81,0,0,0-48.1,17.27,328.32,328.32,0,0,1-62.9,40.68l-12.71,6.28a162.91,162.91,0,0,0-24.49-6.08,86.29,86.29,0,0,0-45.19,5.21,86.07,86.07,0,0,0-45.18-5.2,163.4,163.4,0,0,0-24.48,6.07l-12.71-6.28a328,328,0,0,1-62.9-40.68A75.79,75.79,0,0,0,26.18,0h-8V8a438.49,438.49,0,0,1-4.5,62.52l-1,7a109,109,0,0,0,1.05,37.31,110.41,110.41,0,0,0,20.13,44.56l10.22,13.48,1-.76a162.52,162.52,0,0,0-6.29,32L38,212.9a108.53,108.53,0,0,1-14.91,45.69,143.59,143.59,0,0,0-16.17,39L0,325.24l36.29-14.52A144.47,144.47,0,0,0,27.56,360v14.95l24.07-16A103,103,0,0,0,68.9,412.43l7.65,11.47,7.25-14.5a216.66,216.66,0,0,0,34.1,44.26l10,10,7.35-29.41,1.4,1.86a66.9,66.9,0,0,0,37.22,24.72,51.82,51.82,0,0,1,18.59,8.85L219.56,490l27.11-20.33a51.62,51.62,0,0,1,18.59-8.85,66.86,66.86,0,0,0,37.21-24.71l1.4-1.87,7.35,29.41,10-10a217.21,217.21,0,0,0,34.11-44.26l7.25,14.5,7.65-11.47a103,103,0,0,0,17.27-53.53l24.07,16V360a144.38,144.38,0,0,0-8.73-49.28ZM409.7,111.62a94.43,94.43,0,0,1-17.18,38.06l-4.41,5.82a163,163,0,0,0-49.84-65.18l3.91-2a340.08,340.08,0,0,0,64.45-42c.75,8.86,1.72,17.7,3,26.46l1,6.95a93.46,93.46,0,0,1-.91,31.86ZM375,29.61a59.8,59.8,0,0,1,30-13.08c.07,3.63.39,7.25.54,10.88a75.67,75.67,0,0,0-8.11,5.81A323.56,323.56,0,0,1,335,74L323.14,80q-6.84-4.19-14.12-7.69a342.74,342.74,0,0,0,66-42.68Zm-310.91,0a342.62,342.62,0,0,0,66,42.68Q122.81,75.8,116,80L104.1,74A323.89,323.89,0,0,1,41.66,33.21a74,74,0,0,0-8.1-5.8c.16-3.63.48-7.25.55-10.88a59.73,59.73,0,0,1,30,13.07ZM46.61,149.7a94.24,94.24,0,0,1-17.18-38.07,93,93,0,0,1-.91-31.85l1-7c1.27-8.76,2.24-17.59,3-26.45A340.15,340.15,0,0,0,97,88.37l3.91,2A162.92,162.92,0,0,0,51,155.51ZM371.56,329.05v26.11a87,87,0,0,1-7.62,35.69l-8.38-16.74-8,15.95a200.62,200.62,0,0,1-27.83,41.71l-8.5-34-21.58,28.75a50.88,50.88,0,0,1-28.29,18.8,67.4,67.4,0,0,0-24.31,11.57L219.56,470l-17.5-13.13a67.29,67.29,0,0,0-24.32-11.57,50.89,50.89,0,0,1-28.29-18.81l-21.57-28.74-8.5,34a200.28,200.28,0,0,1-27.83-41.71l-8-15.94-8.37,16.74a87,87,0,0,1-7.62-35.69V329.05l-23,15.35A128.21,128.21,0,0,1,57,303l11.1-22.19-45,18a127.67,127.67,0,0,1,13.64-31.92A123.42,123.42,0,0,0,46.56,246,115.5,115.5,0,0,0,89,271.59l5.07-15.17a99.75,99.75,0,0,1-38.77-24l-3.63-3.63a125.37,125.37,0,0,0,2.24-14.46l.72-8L60,211.78a115.8,115.8,0,0,0,45,27.83l5.07-15.17a99.79,99.79,0,0,1-38.77-24L57.77,186.9A146.58,146.58,0,0,1,177,74c12.68-2.1,26.32-.22,39.63,5.49l3.11,1.21,3.05-1.3c13.1-5.61,26.7-7.46,39.41-5.4A146.61,146.61,0,0,1,381.38,186.9l-13.57,13.58a99.67,99.67,0,0,1-38.77,24l5.07,15.17a115.59,115.59,0,0,0,45-27.82l5.37-5.37.72,8a121.63,121.63,0,0,0,2.24,14.46l-3.63,3.63a99.68,99.68,0,0,1-38.77,24l5.07,15.17A115.65,115.65,0,0,0,392.59,246a122.94,122.94,0,0,0,9.77,20.79A127.78,127.78,0,0,1,416,298.75l-45-18L382.12,303a127.84,127.84,0,0,1,12.5,41.45Zm0,0" transform="translate(0 0)"/><path d="M271.15,201.41a15.38,15.38,0,0,1,1.5-21.32l2.16,4.32a42.69,42.69,0,0,0,73.7,4.59l9.34-14L347,164.18a61.9,61.9,0,0,0,15.17-15.73l-13.31-8.88A45.8,45.8,0,0,1,310.72,160H283.05a31.45,31.45,0,0,0-31.34,29.92,164.56,164.56,0,0,0-16.16,70.81V288h-32V260.73a164.51,164.51,0,0,0-16.16-70.81A31.45,31.45,0,0,0,156.06,160H128.4a45.78,45.78,0,0,1-38.18-20.44L76.9,148.43a62,62,0,0,0,15.17,15.73L81.27,175l9.34,14a42.68,42.68,0,0,0,73.69-4.58l2.16-4.32a15.51,15.51,0,0,1,2,20.75l-49,48.28a93.73,93.73,0,0,0,11.31,143l9,6.42a50.24,50.24,0,0,0,17.64,7.9c4.38,10.11,19.13,33.53,62.13,33.53s57.75-23.43,62.13-33.53a50.31,50.31,0,0,0,17.64-7.9l9-6.42a93.74,93.74,0,0,0,11.31-143Zm61.17-29.34,4.95,4.95-2.07,3.1a26.68,26.68,0,0,1-46.06-2.87L288.5,176h22.21a61.83,61.83,0,0,0,21.61-3.93ZM126.12,192a26.64,26.64,0,0,1-22.2-11.88l-2.07-3.1,4.95-4.95A61.8,61.8,0,0,0,128.4,176h22.21l-.62,1.25A26.51,26.51,0,0,1,126.12,192Zm93.44,168a25.18,25.18,0,0,1-19.75-9.5L183,329.5A15.7,15.7,0,0,1,195.25,304h48.62a15.7,15.7,0,0,1,12.26,25.5l-16.83,21A25.17,25.17,0,0,1,219.56,360ZM140.1,379.14a77.75,77.75,0,0,1-9.38-118.63l48.67-48a148.4,148.4,0,0,1,8.16,48.24v28.32A31.6,31.6,0,0,0,170.5,339.5l16.82,21a41.15,41.15,0,0,0,13.54,11l-.68,1.35a34.62,34.62,0,0,1-51.09,12.7ZM219.56,424c-24.58,0-36.92-9.1-42.94-16.55A50.28,50.28,0,0,0,214.5,380l2.09-4.18c1,.07,2,.17,3,.17s2-.1,3-.17l2.09,4.18a50.28,50.28,0,0,0,37.88,27.43c-6,7.45-18.36,16.55-42.94,16.55ZM299,379.14l-9,6.42a34.63,34.63,0,0,1-51.09-12.7l-.68-1.35a41.08,41.08,0,0,0,13.53-11l16.83-21a31.6,31.6,0,0,0-17.07-50.43V260.73a148.41,148.41,0,0,1,8.14-48.2l48.69,48A77.76,77.76,0,0,1,299,379.14Zm0,0" transform="translate(0 0)"/><path d="M219.56,104.94A68.74,68.74,0,0,0,249.79,112a68,68,0,0,0,21.57-3.5l14.73-4.9L281,88.43l-14.73,4.9a52.83,52.83,0,0,1-39.88-2.83l-6.86-3.44-6.86,3.43a52.78,52.78,0,0,1-39.88,2.83L158.1,88.43,153,103.59l14.73,4.9a68.92,68.92,0,0,0,51.8-3.55Zm0,0" transform="translate(0 0)"/><path d="M219.56,136.95A68.74,68.74,0,0,0,249.79,144a68,68,0,0,0,21.57-3.5l14.73-4.9L281,120.43l-14.73,4.9a52.87,52.87,0,0,1-39.88-2.83l-6.86-3.44-6.86,3.43a52.78,52.78,0,0,1-39.88,2.83l-14.73-4.89L153,135.59l14.73,4.9a68.92,68.92,0,0,0,51.8-3.55Zm0,0" transform="translate(0 0)"/></g></g></svg>