<svg xmlns="http://www.w3.org/2000/svg" viewBox="0 0 117.76 44.24"><defs><style>.cls-1{fill:none;stroke:#30e3ca;stroke-linecap:round;stroke-linejoin:round;stroke-width:3.68px}</style></defs><g id="Layer_2" data-name="Layer 2"><g id="Objects"><path class="cls-1" d="M60.72 34.08c-9-1.36-16.56-2.72-16.56-2.72S36.8 35.81 36.8 35c0-3.2-3.53-5.52-5.52-5.52s-7.51 2.15-7.36 1.84c1.92-3.91 1.07-3.68-3.68-3.68-3.83 0-9.81 11-11 11S11 30 11 27.68 1.8 10.81 1.8 9.28s13.84 12.88 16.6 12.88h3.68c1.44 0 4.71-3.68 5.52-3.68 2.53 0 2.15 1.84 5.52 1.84s25.76-4 27.6-5.52.31-12 1.84-12.88 6.44 6.44 9.2 9.2S80.5 13 88.32 13s27.6 11.5 27.6 12.88c0 0-.92 5.52-9.2 5.52-4 0-9.2-3.68-14.72 0"/><path class="cls-1" d="M108.56 31.36c0 3.68-12.42 5.52-22.08 5.52a145.19 145.19 0 01-16.56-1.49"/><path class="cls-1" d="M68.08 27.68A183.41 183.41 0 0055.2 42.4c5.06 0 20.24-12.88 25.76-12.88h5.52m9.2-5.52"/></g></g></svg>