<svg xmlns="http://www.w3.org/2000/svg" viewBox="0 0 117.76 42.37"><defs><style>.cls-1{fill:none;stroke:#30e3ca;stroke-linecap:round;stroke-linejoin:round;stroke-width:3.68px}</style></defs><g id="Layer_2" data-name="Layer 2"><g id="Objects"><path class="cls-1" d="M9.9 23.75c-3.11-1.92-1-6.16 3-7.14 8.74-2.19 36.49 3.68 58.88 3.68 38.49 0 42-5.35 44.16-9.2 0 0-2-6.44-23.92-3.68-19.12 2.4-65 0-71.76 0-11.5 0-18.4 3.22-18.4 9.2C1.84 25.5 33 27 33 40.53c0 0-6.25-5.51-13.59-7-9.61-2-17.58-5.87-17.58-16.91M92 12.86c-2.6 0-3.86 1.69-7.38.15"/><path class="cls-1" d="M80.05 8.11c-.7-1.39-4.29-6.26-6.37-6.22C32.66 2.5 1.84-1.79 1.84 16m40.07 2.15c-1.69 2.24-5.89 5.79-7.41 5.6-6.45-.77-24.9-5.07-24.6 0m94.98-12.66"/></g></g></svg>