<svg xmlns="http://www.w3.org/2000/svg" viewBox="0 0 117.76 71.12"><defs><style>.cls-1{fill:none;stroke:#30e3ca;stroke-linecap:round;stroke-linejoin:round;stroke-width:3.68px}</style></defs><g id="Layer_2" data-name="Layer 2"><g id="Objects"><path class="cls-1" d="M60.76 42.28C62.6 56.38 71.58 65.34 75.46 68c4.45 3.06 19.93 0 29.42-3 11.87-3.68 11-10.34 11-11.72 0-1.84-1.84-3.83-1.84-3.83-3 2.3-15.47 9.46-25.74 9.46 0 0-1.84-22.52 8.25-32.63 0 0-8.25-17.12-23-17.12-9.88 0-12.87 5.52-12.87 5.52"/><path class="cls-1" d="M71.79 66.18c-1.07.77-3.53 2.14-7.35-1.84S36.86 36.61 36.86 33.09c0-5.67 3.68-7.35 3.68-7.35"/><path class="cls-1" d="M60.76 34.93c-2.45-2.15-11-3.1-14.71-3.68-2.87-.45-3.83-7.89-3.67-9.19.32-2.74 18.72-8.16 20.22-5.51 4.06 7.18-1.84 11.72-1.84 18.38m-20.5 3.51S9 33.9 1.93 33.09C1.48 33 2.23 17 14.8 16.55c4.44-.16 23.9 9.19 23.9 9.19m9.19 22.06H36.63c-3.56 0-7.81-6.09-3.53-10.08m3.76-6.47s-12.69-3.61-21-4.94"/><path class="cls-1" d="M55.35 16.12c-.59-1.23-1.14-5.05-7.46-5.05s-18.79 7.87-18.3 10.52m31.17 11.96s-3.58-6.38-6.44-9.55m42.26 2.31l3.4 5.94m-7.84 1.1L95.69 37m-5.95 3.94l3.57 2.42m20.76 6.12c-1.76-2.63-3.71-5.66-6-8.54m.33 11.99a73.71 73.71 0 00-4.6-6.82m-1.9 9.81a32.64 32.64 0 00-3.27-5.52M82.82 31.25A1.84 1.84 0 1181 29.41a1.84 1.84 0 011.82 1.84zM99.36 3.68a1.84 1.84 0 11-1.84-1.84 1.84 1.84 0 011.84 1.84zm-1.84 0s-5.38 7.92-5.38 15.84"/></g></g></svg>