<svg xmlns="http://www.w3.org/2000/svg" viewBox="0 0 117.76 116.16"><defs><style>.cls-1{fill:none;stroke:#30e3ca;stroke-linecap:round;stroke-linejoin:round;stroke-width:3.68px}</style></defs><g id="Layer_2" data-name="Layer 2"><g id="Objects"><circle class="cls-1" cx="58.88" cy="58.12" r="16.56"/><path class="cls-1" d="M42.32 58.12H1.84m114.08 0H75.44m-16.56 9.2v40.48m0-101.2v40.48m3.68 14.72L94.2 93.44M23.92 23.06L55.3 54.44m-8.74 15.08L17.94 98.14M99 17.08L70.38 45.7M53.64 69.28l-17.1 41.29M80.18 5.2L65.01 41.82m9.92 23.05l30.06 12.45M9.31 37.61l33.45 13.85m5.15 10.52L16.01 75.2m84.61-35.05L66.22 54.4m-.98 18.86l17 41.06M35.73 1.84l16.36 39.49"/></g></g></svg>