<svg width="129" height="40" xmlns="http://www.w3.org/2000/svg"><g fill="none" fill-rule="evenodd"><rect fill="#FFF" width="129" height="40" rx="4"/><g fill-rule="nonzero"><path d="M29.847 8.074C28.574 6.622 26.271 6 23.326 6h-8.548c-.603 0-1.115.438-1.21 1.032L10.01 29.607a.734.734 0 00.725.848h5.278l1.325-8.407-.04.264a1.22 1.22 0 011.204-1.033h2.507c4.927 0 8.785-2.001 9.911-7.79.034-.171.063-.338.088-.5-.142-.076-.142-.076 0 0 .336-2.14-.002-3.596-1.16-4.915" fill="#003087"/><path d="M84.372 18.749h-2.84a.818.818 0 00-.678.36l-3.919 5.77-1.66-5.545a.821.821 0 00-.786-.585h-2.792a.492.492 0 00-.465.65l3.127 9.18-2.942 4.151a.492.492 0 00.402.776h2.837c.269 0 .52-.131.675-.352l9.445-13.633a.492.492 0 00-.404-.772m-18.989 5.5c-.273 1.614-1.554 2.699-3.19 2.699-.819 0-1.476-.264-1.897-.764-.418-.494-.575-1.2-.443-1.984.254-1.6 1.557-2.72 3.167-2.72.803 0 1.454.267 1.884.77.433.508.603 1.217.48 1.999m3.937-5.5h-2.825a.492.492 0 00-.487.415l-.124.79-.197-.286c-.612-.888-1.977-1.186-3.338-1.186-3.122 0-5.79 2.367-6.308 5.685-.27 1.655.113 3.237 1.052 4.341.862 1.014 2.093 1.437 3.559 1.437 2.517 0 3.912-1.616 3.912-1.616l-.126.785a.492.492 0 00.486.568h2.544a.82.82 0 00.81-.691l1.529-9.674a.492.492 0 00-.487-.568m-16.957.067c-.323 2.119-1.94 2.119-3.506 2.119h-.89l.625-3.955a.49.49 0 01.485-.415h.409c1.065 0 2.07 0 2.59.606.31.363.404.902.287 1.645m-.681-5.527H45.78a.82.82 0 00-.81.693l-2.386 15.132a.492.492 0 00.485.568h2.819a.82.82 0 00.81-.691l.644-4.083a.82.82 0 01.81-.692h1.866c3.888 0 6.132-1.881 6.717-5.61.264-1.63.011-2.911-.752-3.809-.84-.986-2.327-1.508-4.301-1.508" fill="#002F86"/><path d="M114.743 13.705l-2.422 15.41a.492.492 0 00.486.568h2.436a.82.82 0 00.81-.693l2.388-15.132a.492.492 0 00-.486-.568h-2.726a.491.491 0 00-.486.415m-7.269 10.544c-.273 1.614-1.554 2.699-3.19 2.699-.819 0-1.475-.264-1.897-.764-.418-.494-.575-1.2-.443-1.984.254-1.6 1.557-2.72 3.167-2.72.803 0 1.454.267 1.884.77.433.508.603 1.217.48 1.999m3.938-5.5h-2.826a.492.492 0 00-.487.415l-.124.79-.197-.286c-.612-.888-1.976-1.186-3.338-1.186-3.122 0-5.789 2.367-6.308 5.685-.27 1.655.113 3.237 1.052 4.341.862 1.014 2.093 1.437 3.559 1.437 2.517 0 3.912-1.616 3.912-1.616l-.126.785a.492.492 0 00.486.568h2.545a.82.82 0 00.81-.691l1.528-9.674a.492.492 0 00-.486-.568m-16.958.067c-.323 2.119-1.94 2.119-3.506 2.119h-.89l.625-3.955a.49.49 0 01.485-.415h.409c1.065 0 2.071 0 2.59.606.31.363.404.902.287 1.645m-.681-5.527h-5.902a.82.82 0 00-.81.693l-2.386 15.132a.492.492 0 00.485.568h3.029a.574.574 0 00.567-.484l.677-4.29a.82.82 0 01.81-.692h1.866c3.888 0 6.132-1.881 6.717-5.61.264-1.63.011-2.911-.752-3.809-.84-.986-2.327-1.508-4.301-1.508" fill="#009CDE"/><path d="M29.847 8.074C28.574 6.622 26.271 6 23.326 6h-8.548c-.603 0-1.115.438-1.21 1.032L10.01 29.607a.734.734 0 00.725.848h5.278l1.325-8.407-.04.264a1.22 1.22 0 011.204-1.033h2.507c4.927 0 8.785-2.001 9.911-7.79.034-.171.063-.338.088-.5-.142-.076-.142-.076 0 0 .336-2.14-.002-3.596-1.16-4.915" fill="#003087"/><path d="M18.762 13.017a1.071 1.071 0 011.057-.903h6.701c.794 0 1.534.052 2.21.16a9.264 9.264 0 011.35.323c.333.111.643.24.927.392.336-2.14-.002-3.596-1.16-4.915C28.574 6.623 26.272 6 23.328 6h-8.55c-.602 0-1.114.438-1.208 1.033l-3.56 22.573a.733.733 0 00.725.849h5.278l1.325-8.407 1.425-9.031z" fill="#002F86"/><path d="M31.007 12.989c-.026.163-.054.329-.087.5-1.127 5.788-4.985 7.79-9.911 7.79h-2.51c-.6 0-1.11.438-1.203 1.033l-1.284 8.142-.365 2.31c-.061.39.24.743.634.743h4.449a1.07 1.07 0 001.057-.903l.043-.227.839-5.314.054-.294a1.07 1.07 0 011.057-.903h.665c4.31 0 7.684-1.75 8.67-6.814.412-2.116.2-3.883-.89-5.124a4.249 4.249 0 00-1.218-.94" fill="#009CDE"/><path d="M29.827 12.518a8.22 8.22 0 00-.532-.136 9.915 9.915 0 00-.564-.107 13.91 13.91 0 00-2.211-.161h-6.701a1.068 1.068 0 00-1.057.904l-1.424 9.03-.042.263A1.219 1.219 0 0118.5 21.28h2.509c4.926 0 8.784-2.001 9.91-7.79.034-.171.062-.337.088-.5a6.085 6.085 0 00-1.18-.47" fill="#012069"/></g></g></svg>