<svg xmlns="http://www.w3.org/2000/svg" xmlns:xlink="http://www.w3.org/1999/xlink" viewBox="0 0 105.47 105.99"><defs><style>.cls-1{fill:none;}.cls-2{clip-path:url(#clip-path);}</style><clipPath id="clip-path" transform="translate(0)"><rect class="cls-1" y="0.15" width="105.84" height="106.8"/></clipPath></defs><title>Ресурс 1</title><g id="Слой_2" data-name="Слой 2"><g id="Слой_1-2" data-name="Слой 1"><path d="M37.21,39.31A4.42,4.42,0,1,1,41.55,34a4.43,4.43,0,0,1-3.48,5.19,4.32,4.32,0,0,1-.87.09Zm0-6.44a2.24,2.24,0,0,0-.4,0,2,2,0,1,0,.4,0Zm0,0" transform="translate(0)"/><path d="M42.84,39.39a1.21,1.21,0,0,1-1-.59l-3.08-5.27a1.2,1.2,0,0,1,2.07-1.21l3.08,5.27a1.2,1.2,0,0,1-.43,1.64,1.23,1.23,0,0,1-.61.16Zm0,0" transform="translate(0)"/><path d="M30.72,35.07a1.2,1.2,0,0,1-.41-2.33l5.87-2.14A1.2,1.2,0,0,1,37,32.86L31.13,35a1.26,1.26,0,0,1-.41.07Zm0,0" transform="translate(0)"/><path d="M52.55,95.87h0a10.41,10.41,0,0,1-10.73-9.08L37,62.11s-.27-1.28-1.52-6.86-3-7.41-3.88-8.32a35.85,35.85,0,0,1-3.32-4.29c-3.71-6.27-3-11.19-2.83-11.91.9-8.82,7.34-15,15.7-15S53.8,20.09,53.8,28.63a1.2,1.2,0,0,1-2.4,0c0-7.24-3.15-10.47-10.22-10.47S28.61,23.46,27.86,31c0,0,0,.09,0,.14s-.89,4.47,2.49,10.2a34.58,34.58,0,0,0,3,3.86c1.6,1.6,3.26,3.86,4.52,9.48s1.54,6.91,1.54,6.91l4.8,24.72a1,1,0,0,1,0,.11,8,8,0,0,0,8.36,7,1.2,1.2,0,0,1,0,2.4Zm0,0" transform="translate(0)"/><path d="M52.61,90.75a6.83,6.83,0,0,1-7.11-7c0-3.7,5.35-3.7,7.11-3.7a1.2,1.2,0,0,1,0,2.4c-3,0-4.71.47-4.71,1.3a4.46,4.46,0,0,0,4.71,4.57,1.2,1.2,0,1,1,0,2.4Zm0,0" transform="translate(0)"/><path d="M46.87,24.88a1.19,1.19,0,0,1-1.12-.77c-.1-.27-2.53-6.5-7.3-5.52A1.2,1.2,0,0,1,38,16.24c5.43-1.11,8.94,4.11,10,7a1.2,1.2,0,0,1-1.12,1.62Zm0,0" transform="translate(0)"/><g class="cls-2"><path d="M40.3,26.35a1.2,1.2,0,0,1-1.08-.68c-2.24-4.71-6.25-4-6.29-4a1.2,1.2,0,1,1-.45-2.36c2-.38,6.48.24,8.91,5.33a1.2,1.2,0,0,1-1.09,1.71Zm0,0" transform="translate(0)"/><path d="M1.2,106a1.2,1.2,0,0,1-.85-2C14,90.31,19,73.34,16.27,50.53c-3.16-26.13,6-38.18,6.77-39.07C33.6-3.46,47.39-.76,53.22,2.76A1.2,1.2,0,0,1,52,4.81c-.64-.38-15.13-8.75-27,8.07l-.05.07a29.85,29.85,0,0,0-4.3,9c-1.79,5.57-3.58,15-2,28.33,2.86,23.6-2.41,41.2-16.61,55.39a1.19,1.19,0,0,1-.85.35Zm0,0" transform="translate(0)"/></g><path d="M13.4,105.38a1.2,1.2,0,0,1-.91-2c.13-.15,13.06-15.27,11.71-33.53a1.2,1.2,0,0,1,2.4-.17C28,89,14.87,104.33,14.3,105a1.19,1.19,0,0,1-.9.41Zm0,0" transform="translate(0)"/><path d="M22.2,105.38a1.19,1.19,0,0,1-.79-.29,1.2,1.2,0,0,1-.12-1.69c.13-.15,13.05-15.27,11.71-33.53a1.2,1.2,0,0,1,2.39-.17C36.82,89,23.67,104.33,23.11,105a1.19,1.19,0,0,1-.91.41Zm0,0" transform="translate(0)"/><path d="M31,105.38a1.2,1.2,0,0,1-.8-2.09c.09-.08,8.81-8.16,10.21-22.76a1.2,1.2,0,0,1,2.39.23c-1.49,15.57-10.61,24-11,24.31a1.19,1.19,0,0,1-.81.31Zm0,0" transform="translate(0)"/><path d="M53.2,90.75a1.2,1.2,0,0,1,0-2.4,4.46,4.46,0,0,0,4.71-4.57c0-.82-1.72-1.3-4.71-1.3a1.2,1.2,0,0,1,0-2.4c1.76,0,7.11,0,7.11,3.7a6.83,6.83,0,0,1-7.11,7Zm0,0" transform="translate(0)"/><path d="M68.27,39.31a4.36,4.36,0,0,1-.87-.09,4.42,4.42,0,1,1,5.19-3.48,4.41,4.41,0,0,1-4.32,3.56Zm-2-4.81a2,2,0,0,0,1.59,2.38,2,2,0,0,0,.79-4,2,2,0,0,0-2.37,1.59Zm0,0" transform="translate(0)"/><path d="M62.64,39.39a1.22,1.22,0,0,1-.61-.16,1.2,1.2,0,0,1-.43-1.64l3.08-5.27a1.2,1.2,0,1,1,2.07,1.21L63.67,38.8a1.2,1.2,0,0,1-1,.59Zm0,0" transform="translate(0)"/><path d="M74.75,35.07a1.24,1.24,0,0,1-.41-.07l-5.87-2.14a1.2,1.2,0,0,1,.82-2.26l5.87,2.14a1.2,1.2,0,0,1-.41,2.33Zm0,0" transform="translate(0)"/><path d="M52.92,95.87a1.2,1.2,0,1,1,0-2.4,8,8,0,0,0,8.36-7s0-.07,0-.1l4.8-24.7s.27-1.29,1.54-6.93,2.92-7.89,4.52-9.49a35,35,0,0,0,3-3.92c3.34-5.67,2.46-10.1,2.45-10.14s0-.09,0-.14c-.75-7.58-6.22-12.87-13.31-12.87S54.07,21.4,54.07,28.64a1.2,1.2,0,0,1-2.4,0c0-8.54,4.25-12.88,12.63-12.88s14.8,6.16,15.7,15c.14.71.89,5.63-2.78,11.86a35.9,35.9,0,0,1-3.36,4.34c-.9.91-2.59,2.59-3.87,8.31s-1.53,6.87-1.53,6.88L63.65,86.78a10.4,10.4,0,0,1-10.73,9.08Zm0,0" transform="translate(0)"/><path d="M52.86,90.75a1.2,1.2,0,0,1,0-2.4,4.47,4.47,0,0,0,4.72-4.57c0-.82-1.72-1.3-4.72-1.3a1.2,1.2,0,0,1,0-2.4c1.76,0,7.11,0,7.11,3.7a6.83,6.83,0,0,1-7.11,7Zm0,0" transform="translate(0)"/><path d="M58.6,24.88a1.18,1.18,0,0,1-.42-.07,1.2,1.2,0,0,1-.7-1.55c1.09-2.91,4.59-8.13,10-7A1.2,1.2,0,0,1,67,18.59c-4.82-1-7.28,5.45-7.3,5.51a1.19,1.19,0,0,1-1.12.78Zm0,0" transform="translate(0)"/><g class="cls-2"><path d="M65.17,26.35a1.23,1.23,0,0,1-.52-.12,1.2,1.2,0,0,1-.57-1.6C66.51,19.55,71,18.92,73,19.31a1.2,1.2,0,0,1-.44,2.36c-.18,0-4.09-.64-6.3,4a1.21,1.21,0,0,1-1.09.68Zm0,0" transform="translate(0)"/><path d="M104.27,106a1.19,1.19,0,0,1-.85-.35C89.23,91.44,83.95,73.84,86.81,50.24c1.61-13.33-.18-22.77-2-28.33a29.86,29.86,0,0,0-4.3-9l-.05-.07C68.61-4,54.1,4.45,53.49,4.81a1.2,1.2,0,0,1-1.24-2.06c5.83-3.52,19.62-6.22,30.18,8.7.72.9,9.93,12.95,6.77,39.07-2.76,22.81,2.29,39.78,15.92,53.41a1.2,1.2,0,0,1-.85,2Zm0,0" transform="translate(0)"/></g><path d="M92.07,105.38a1.19,1.19,0,0,1-.91-.41c-.56-.64-13.71-16-12.29-35.28a1.2,1.2,0,0,1,2.39.17C79.92,88.16,92.84,103.25,93,103.4a1.2,1.2,0,0,1-.91,2Zm0,0" transform="translate(0)"/><path d="M83.27,105.38a1.2,1.2,0,0,1-.91-.41c-.56-.64-13.71-16-12.29-35.28a1.2,1.2,0,0,1,2.4.17C71.12,88.16,84,103.25,84.18,103.4a1.2,1.2,0,0,1-.91,2Zm0,0" transform="translate(0)"/><path d="M74.47,105.38a1.2,1.2,0,0,1-.8-.31c-.39-.35-9.5-8.73-11-24.31a1.2,1.2,0,1,1,2.39-.23c1.41,14.66,10.13,22.68,10.21,22.76a1.2,1.2,0,0,1-.8,2.09Zm0,0" transform="translate(0)"/><path d="M52.28,90.75a6.83,6.83,0,0,1-7.11-7c0-3.7,5.35-3.7,7.11-3.7a1.2,1.2,0,0,1,0,2.4c-3,0-4.71.47-4.71,1.3a4.46,4.46,0,0,0,4.71,4.57,1.2,1.2,0,1,1,0,2.4Zm0,0" transform="translate(0)"/></g></g></svg>