<svg xmlns="http://www.w3.org/2000/svg" xmlns:xlink="http://www.w3.org/1999/xlink" viewBox="0 0 69.66 96.75"><defs><style>.cls-1{fill:none;}.cls-2{clip-path:url(#clip-path);}</style><clipPath id="clip-path" transform="translate(0 -0.25)"><rect class="cls-1" y="0.04" width="69.84" height="97.92"/></clipPath></defs><title>Ресурс 5</title><g id="Слой_2" data-name="Слой 2"><g id="Слой_1-2" data-name="Слой 1"><path d="M26.5,76a1.16,1.16,0,0,1-.58-.15C15.53,70.11,5,56.57,5,41.85,5,22,17.93,7,35,7a1.2,1.2,0,1,1,0,2.4c-15.73,0-27.6,13.93-27.6,32.4,0,13.8,9.89,26.5,19.65,31.92A1.2,1.2,0,0,1,26.5,76Zm0,0" transform="translate(0 -0.25)"/><path d="M27.82,91.67a1.2,1.2,0,0,1-1.13-1.62,10.26,10.26,0,0,1,2.43-3.49c.12-.12.07-.63,0-.92C22.84,68.86,21,59,20.91,58.6a1.2,1.2,0,1,1,2.36-.43c0,.1,1.9,10.08,8.08,26.66a3.47,3.47,0,0,1-.58,3.47,8,8,0,0,0-1.83,2.59,1.2,1.2,0,0,1-1.12.78Zm0,0" transform="translate(0 -0.25)"/><path d="M31.21,97a5,5,0,0,1-4.88-5,5.21,5.21,0,0,1,.56-2.36A1.2,1.2,0,0,1,29,90.69a2.83,2.83,0,0,0-.3,1.27,2.49,2.49,0,1,0,5,0,1.2,1.2,0,1,1,2.4,0,5,5,0,0,1-4.88,5Zm0,0" transform="translate(0 -0.25)"/><path d="M15.67,47.26a4.3,4.3,0,1,1,2.91-7.47,4.3,4.3,0,0,1-2.73,7.46Zm0-6.2h-.08a1.9,1.9,0,1,0,2,1.82,1.91,1.91,0,0,0-1.89-1.82Zm0,0" transform="translate(0 -0.25)"/><g class="cls-2"><path d="M19.81,49.89a1.2,1.2,0,0,1-1.18-1l-1-5.86a1.2,1.2,0,0,1,2.36-.42l1,5.86a1.2,1.2,0,0,1-1,1.39l-.21,0Zm0,0" transform="translate(0 -0.25)"/><path d="M12.65,19.56a13,13,0,0,1-8.65-4A15.49,15.49,0,0,1,.37,9.74c-.69-2.22-.41-4.07.77-5.2s3-1.32,5.23-.53A15.42,15.42,0,0,1,12,7.9a13.78,13.78,0,0,1,3.37,6.17c.2.83.76,3.64-.51,4.85a3.26,3.26,0,0,1-2.24.64ZM3.91,5.93a1.55,1.55,0,0,0-1.11.35c-.48.46-.53,1.48-.14,2.75a13.27,13.27,0,0,0,3.07,4.87c2.64,2.76,6.45,3.45,7.49,3.23.31-1-.18-4.7-2.93-7.58A13.25,13.25,0,0,0,5.56,6.26a5,5,0,0,0-1.65-.33Zm0,0" transform="translate(0 -0.25)"/><path d="M17.33,15.55a1.2,1.2,0,0,1-1.2-1.15c-.27-7.05-3.89-9.86-3.93-9.89C10.25,3,8.46,2.4,6.85,2.76c-2.56.58-4,3.36-4,3.39A1.2,1.2,0,0,1,.7,5.08C.77,4.92,2.63,1.26,6.31.42c2.35-.53,4.82.2,7.36,2.18.17.13,4.54,3.52,4.86,11.7a1.2,1.2,0,0,1-1.15,1.25Zm0,0" transform="translate(0 -0.25)"/></g><path d="M34.76,59.44a18.62,18.62,0,0,1-7.45-1.32,1.2,1.2,0,1,1,1-2.17A16.75,16.75,0,0,0,34.76,57a1.2,1.2,0,0,1,0,2.4Zm0,0" transform="translate(0 -0.25)"/><path d="M34.76,65.58a18.59,18.59,0,0,1-7.45-1.32,1.2,1.2,0,1,1,1-2.17,16.71,16.71,0,0,0,6.42,1.09,1.2,1.2,0,0,1,0,2.4Zm0,0" transform="translate(0 -0.25)"/><path d="M34.76,71c-4.66,0-6.39-1.16-6.57-1.3a1.2,1.2,0,0,1,1.39-2c.07,0,1.46.85,5.19.85a1.2,1.2,0,0,1,0,2.4Zm0,0" transform="translate(0 -0.25)"/><path d="M34.76,76.11c-4.55,0-5.52-.74-5.86-1.3a1.2,1.2,0,0,1,1.83-1.51,11.71,11.71,0,0,0,4,.41,1.2,1.2,0,0,1,0,2.4Zm0,0" transform="translate(0 -0.25)"/><path d="M43.16,76a1.2,1.2,0,0,1-.58-2.25c9.77-5.42,19.65-18.12,19.65-31.92,0-18.47-11.87-32.4-27.6-32.4a1.2,1.2,0,0,1,0-2.4c17.1,0,30,15,30,34.8,0,14.73-10.51,28.26-20.89,34a1.16,1.16,0,0,1-.58.15Zm0,0" transform="translate(0 -0.25)"/><path d="M41.84,91.67a1.2,1.2,0,0,1-1.12-.78,7.82,7.82,0,0,0-1.8-2.55,3.47,3.47,0,0,1-.62-3.49c6.2-16.62,8.06-26.58,8.08-26.68a1.2,1.2,0,1,1,2.36.43c-.07.41-1.92,10.26-8.19,27.07-.09.27-.13.78,0,.93A10.24,10.24,0,0,1,43,90.05a1.2,1.2,0,0,1-1.13,1.62Zm0,0" transform="translate(0 -0.25)"/><path d="M38.45,97a5,5,0,0,1-4.88-5A1.2,1.2,0,1,1,36,92a2.49,2.49,0,1,0,5,0,2.83,2.83,0,0,0-.3-1.27,1.2,1.2,0,0,1,2.14-1.09A5.17,5.17,0,0,1,43.33,92a5,5,0,0,1-4.88,5Zm0,0" transform="translate(0 -0.25)"/><path d="M54,47.26H53.8a4.3,4.3,0,1,1,.18,0Zm-1.9-4.38a1.9,1.9,0,1,0,2-1.82,1.9,1.9,0,0,0-2,1.82Zm0,0" transform="translate(0 -0.25)"/><g class="cls-2"><path d="M49.84,49.89l-.21,0a1.2,1.2,0,0,1-1-1.39l1-5.86a1.2,1.2,0,0,1,2.36.42L51,48.9a1.2,1.2,0,0,1-1.18,1Zm0,0" transform="translate(0 -0.25)"/><path d="M57,19.56a3.28,3.28,0,0,1-2.24-.64c-1.27-1.21-.71-4-.5-4.86A13.76,13.76,0,0,1,57.63,7.9,15.42,15.42,0,0,1,63.28,4c2.19-.79,4-.6,5.23.54s1.46,3,.77,5.2a15.41,15.41,0,0,1-3.63,5.82,13,13,0,0,1-8.65,4Zm-.57-2.42c1,.23,4.85-.47,7.49-3.23A13.27,13.27,0,0,0,67,9c.39-1.27.34-2.3-.14-2.75s-1.51-.46-2.76,0a13.18,13.18,0,0,0-4.73,3.29c-2.76,2.89-3.25,6.63-2.93,7.58Zm0,0" transform="translate(0 -0.25)"/><path d="M52.33,15.55h0a1.2,1.2,0,0,1-1.15-1.25C51.45,6.12,55.82,2.73,56,2.59c2.52-2,5-2.7,7.35-2.17C67,1.26,68.88,4.92,69,5.08a1.2,1.2,0,0,1-2.15,1.07c0-.05-1.46-2.82-4-3.39-1.61-.36-3.4.22-5.34,1.73-.16.12-3.67,2.93-3.94,9.9a1.2,1.2,0,0,1-1.2,1.15Zm0,0" transform="translate(0 -0.25)"/></g><path d="M34.89,59.44a1.2,1.2,0,1,1,0-2.4A16.78,16.78,0,0,0,41.32,56a1.2,1.2,0,0,1,1,2.17,18.7,18.7,0,0,1-7.44,1.31Zm0,0" transform="translate(0 -0.25)"/><path d="M34.89,65.58a1.2,1.2,0,1,1,0-2.4,16.74,16.74,0,0,0,6.42-1.09,1.2,1.2,0,0,1,1,2.17,18.7,18.7,0,0,1-7.44,1.31Zm0,0" transform="translate(0 -0.25)"/><path d="M34.89,71a1.2,1.2,0,0,1,0-2.4c3.82,0,5.18-.85,5.19-.85a1.22,1.22,0,0,1,1.66.32,1.19,1.19,0,0,1-.27,1.64c-.18.13-1.91,1.3-6.57,1.3Zm0,0" transform="translate(0 -0.25)"/><path d="M34.89,76.11a1.2,1.2,0,0,1,0-2.4,11.7,11.7,0,0,0,4-.41,1.2,1.2,0,0,1,1.83,1.51c-.34.56-1.31,1.3-5.86,1.3Zm0,0" transform="translate(0 -0.25)"/></g></g></svg>