<svg xmlns="http://www.w3.org/2000/svg" viewBox="0 0 103.37 102.35"><title>Ресурс 4</title><g id="Слой_2" data-name="Слой 2"><g id="Слой_1-2" data-name="Слой 1"><path d="M36.44,57.87a3.46,3.46,0,1,1,3.46-3.45,3.46,3.46,0,0,1-3.46,3.45Zm0-4.51a1.06,1.06,0,1,0,1.06,1.05,1.05,1.05,0,0,0-1.06-1.05Zm0,0" transform="translate(0 -0.65)"/><path d="M51.66,103H49.28c-4.07,0-7-1-8.87-2.91s-2.55-4.44-2.43-8c.11-3,.31-4.64,1.83-7.24l-.44-.94A87.45,87.45,0,0,1,32,55.49,15.73,15.73,0,0,1,19.88,61h0a10.72,10.72,0,0,1-10-6.27,1.2,1.2,0,0,1,.57-1.52c.18-.09,18.35-9.32,20.43-10.35a4.16,4.16,0,0,0,1.63-1.17,1.17,1.17,0,0,1,.06-.16l1.12-2.37a1.2,1.2,0,0,1,.81-.66,1.18,1.18,0,0,1,1,.23c.06,0,1.92,1.37,5.35,0s5.34-3.15,5.54-8.79a1.2,1.2,0,1,1,2.4.09c-.21,6-2.13,9-7,10.93a8.8,8.8,0,0,1-6.43.34l-.55,1.18C34.6,43,34,44,31.95,45c-1.77.88-15.33,7.76-19.32,9.79a8.43,8.43,0,0,0,7.31,3.81h0a13.24,13.24,0,0,0,11.32-6.16l.65-1.36a1.2,1.2,0,0,1,2.28.49,83.66,83.66,0,0,0,7.35,31.33l.7,1.5a1.21,1.21,0,0,1-.07,1.14c-1.54,2.48-1.7,3.65-1.8,6.62s.48,4.93,1.76,6.26,3.8,2.18,7.14,2.18h2.38a1.2,1.2,0,1,1,0,2.4Zm0,0" transform="translate(0 -0.65)"/><path d="M11.48,55.33A1.2,1.2,0,0,1,11,53.05c.3-.14,7.33-3.47,12.81-1.89s9-1.14,9.08-1.17a1.2,1.2,0,0,1,1.53,1.85c-1.5,1.25-5.8,3.2-11.28,1.63-4.6-1.32-11,1.72-11.11,1.75a1.23,1.23,0,0,1-.52.12Zm0,0" transform="translate(0 -0.65)"/><path d="M36.38,68.41a1.2,1.2,0,0,1-1.16-1.5c.09-.34,2.18-8.38,2.82-10.29a3.76,3.76,0,0,0-.8-2.88,1.2,1.2,0,0,1,1.91-1.46c.2.27,2,2.68,1.16,5.1-.61,1.83-2.75,10.05-2.77,10.13a1.2,1.2,0,0,1-1.16.9Zm0,0" transform="translate(0 -0.65)"/><path d="M51.66,99.07c-4.23,0-8.65-.54-9.33-4.52-.46-2.67-.18-5.38.71-6.89a4,4,0,0,1,4.41-1.61,3.91,3.91,0,0,1,2.79,4.1,1.92,1.92,0,0,0,.41,1.42,1.15,1.15,0,0,0,.8.19,1.21,1.21,0,0,1,1.38,1,1.2,1.2,0,0,1-.95,1.38,3.54,3.54,0,0,1-2.76-.7,4,4,0,0,1-1.29-3.28c0-1-.34-1.6-1-1.79a1.67,1.67,0,0,0-1.71.5,9.06,9.06,0,0,0-.41,5.28c.22,1.32,1.22,2.53,7,2.53a1.2,1.2,0,1,1,0,2.4Zm0,0" transform="translate(0 -0.65)"/><path d="M68.6,40.86a1.19,1.19,0,0,1-1.19-1.37v0c-.52-4.74,6.61-6.84,12.87-8.14C95.17,28.22,101,23.26,101,13.6a12.37,12.37,0,0,0-1.52-6.3,20.78,20.78,0,0,1,.22,4.25c-.37,9.3-9.29,11.5-12,11.95-3.42.56-11.63,1-12,1.06-15.75,1.24-18.78,6.12-18.81,6.17a1.25,1.25,0,0,1-1.22.6,25.29,25.29,0,0,0-7.82,0,1.2,1.2,0,0,1-1.3-.61s-3-4.91-18.82-6.15c-.33,0-8.54-.5-12-1.06C13,23,4.07,20.86,3.7,11.55a20.82,20.82,0,0,1,.23-4.29A12.43,12.43,0,0,0,2.4,13.6c0,9.66,5.8,14.62,20.69,17.71C35,33.79,36.23,37,36,39.45v0a1.2,1.2,0,0,1-2.26.71,1.64,1.64,0,0,1-.12-1c.3-2.77-6.75-4.66-11-5.54C2.74,29.54,0,21.59,0,13.6,0,2.93,8.52.71,8.6.69a1.2,1.2,0,0,1,1.11,2,6,6,0,0,1-.78.59c-1.22.83-3.07,2.08-2.83,8.14.29,7.29,7.1,9.19,10,9.67,3.29.54,11.65,1,11.73,1,14.06,1.11,18.83,5,20.26,6.68a28.79,28.79,0,0,1,7.15,0c1.41-1.68,6.16-5.59,20.25-6.7.11,0,8.46-.5,11.75-1,2.91-.48,9.73-2.38,10-9.67.24-6.06-1.61-7.31-2.83-8.14a6.41,6.41,0,0,1-.78-.59,1.2,1.2,0,0,1,1.11-2c.09,0,8.6,2.24,8.6,12.91,0,13.51-10.86,17.63-22.6,20.06-4.23.88-11.27,2.76-11,5.54a1.71,1.71,0,0,1-.12,1,1.2,1.2,0,0,1-1.07.66Zm0,0" transform="translate(0 -0.65)"/><path d="M66.92,57.87a3.46,3.46,0,1,1,3.45-3.45,3.46,3.46,0,0,1-3.45,3.45Zm0-4.51A1.06,1.06,0,1,0,68,54.41a1.06,1.06,0,0,0-1.05-1.05Zm0,0" transform="translate(0 -0.65)"/><path d="M54.09,103H51.71a1.2,1.2,0,0,1,0-2.4h2.38c3.34,0,5.74-.73,7.14-2.18S63.09,95,63,92.16s-.26-4.14-1.8-6.62a1.2,1.2,0,0,1-.07-1.14l.71-1.52a83.47,83.47,0,0,0,7.34-31.32,1.2,1.2,0,0,1,2.28-.49l.65,1.36A13.21,13.21,0,0,0,83.37,58.6a8.48,8.48,0,0,0,7.37-3.82c-4-2-17.54-8.9-19.31-9.79-2-1-2.65-2-2.83-2.54L68,41.28a8.76,8.76,0,0,1-6.42-.33C56.69,39,54.78,36,54.57,30a1.2,1.2,0,1,1,2.4-.09c.2,5.64,2,7.38,5.54,8.79s5.33,0,5.35,0a1.19,1.19,0,0,1,1-.23,1.21,1.21,0,0,1,.81.66l1.12,2.38a1.07,1.07,0,0,1,.06.16,4.13,4.13,0,0,0,1.63,1.17c2.07,1,20.25,10.26,20.43,10.35a1.2,1.2,0,0,1,.57,1.52A10.76,10.76,0,0,1,83.43,61a15.71,15.71,0,0,1-12.07-5.51A87.6,87.6,0,0,1,64,83.86l-.45,1c1.52,2.59,1.72,4.2,1.82,7.24.13,3.57-.67,6.19-2.43,8S58.16,103,54.09,103Zm0,0" transform="translate(0 -0.65)"/><path d="M91.89,55.33a1.17,1.17,0,0,1-.52-.12c-.06,0-6.51-3.07-11.11-1.75C74.78,55,70.49,53.09,69,51.84A1.2,1.2,0,1,1,70.52,50s3.53,2.76,9.07,1.17,12.51,1.75,12.81,1.89a1.2,1.2,0,0,1-.52,2.28Zm0,0" transform="translate(0 -0.65)"/><path d="M67,68.41a1.2,1.2,0,0,1-1.16-.9c0-.08-2.17-8.3-2.78-10.13-.81-2.42,1-4.83,1.17-5.1a1.2,1.2,0,0,1,1.91,1.46,3.76,3.76,0,0,0-.8,2.88c.64,1.91,2.73,9.95,2.82,10.29a1.2,1.2,0,0,1-.86,1.47,1.37,1.37,0,0,1-.3,0Zm0,0" transform="translate(0 -0.65)"/><path d="M51.71,99.07a1.2,1.2,0,0,1,0-2.4c5.74,0,6.74-1.21,7-2.53a9,9,0,0,0-.41-5.28,1.66,1.66,0,0,0-1.71-.5c-.68.18-1,.78-1,1.78a4,4,0,0,1-1.31,3.33,3.48,3.48,0,0,1-2.76.64,1.2,1.2,0,0,1,.49-2.35,1.08,1.08,0,0,0,.77-.17,1.94,1.94,0,0,0,.41-1.45,3.91,3.91,0,0,1,2.79-4.1,4,4,0,0,1,4.41,1.61c.89,1.52,1.16,4.22.71,6.89-.68,4-5.1,4.52-9.33,4.52Zm0,0" transform="translate(0 -0.65)"/></g></g></svg>