<svg xmlns="http://www.w3.org/2000/svg" xmlns:xlink="http://www.w3.org/1999/xlink" viewBox="0 0 72.56 122.47"><defs><style>.cls-1{fill:none;}.cls-2{clip-path:url(#clip-path);}</style><clipPath id="clip-path" transform="translate(0 -0.53)"><rect class="cls-1" y="0.12" width="72.96" height="123.84"/></clipPath></defs><title>Ресурс 3</title><g id="Слой_2" data-name="Слой 2"><g id="Слой_1-2" data-name="Слой 1"><g class="cls-2"><path d="M24.16,96.43a1.21,1.21,0,0,1-.31,0C10.75,92.92-.82,75.45,0,60.45,1,43.81,11.82,32.1,21.35,21.76,28.1,14.45,33.93,8.14,34.94,1.55a1.2,1.2,0,1,1,2.37.36c-1.12,7.31-7.18,13.87-14.19,21.48-9.27,10-19.77,21.41-20.68,37.2-.89,15.34,11.11,30.6,22,33.48a1.2,1.2,0,0,1-.31,2.36Zm0,0" transform="translate(0 -0.53)"/></g><path d="M36.24,123a1.2,1.2,0,0,1-1.19-1.06c-.26-2.2-2.25-4.32-4.55-6.78-3.34-3.58-7.51-8-7.47-14.64,0-7.64,6.16-11.64,9.8-13.34a1.2,1.2,0,1,1,1,2.18c-3.13,1.46-8.39,4.86-8.42,11.18,0,5.65,3.61,9.54,6.82,13,2.48,2.65,4.82,5.15,5.18,8.14A1.2,1.2,0,0,1,36.38,123Zm0,0" transform="translate(0 -0.53)"/><path d="M36.22,45.16a11.72,11.72,0,0,1-3.42-.4c-2.91-.76-6.34-2.39-6.34-8.11,0-4.86,1.78-9.3,3.66-14C32.38,17,35,10.52,35,2a1.2,1.2,0,0,1,2.4,0c0,9-2.66,15.69-5,21.57-1.87,4.68-3.49,8.73-3.49,13.13,0,3.83,1.77,5.06,4.62,5.8a9.94,9.94,0,0,0,2.74.3,1.2,1.2,0,1,1,0,2.4Zm0,0" transform="translate(0 -0.53)"/><path d="M36.27,53.39h-12c-1.7,0-4.18-1.29-4.18-3.31s2.4-3.31,4.12-3.31h12a1.2,1.2,0,0,1,0,2.4h-12c-.86,0-1.72.67-1.72.91a2.16,2.16,0,0,0,1.77.91h12a1.2,1.2,0,0,1,0,2.4Zm0,0" transform="translate(0 -0.53)"/><path d="M36.15,101.23c-6.43,0-9.69-2.2-9.69-6.53a5.69,5.69,0,0,1,2.32-4.34c.76-.55,3.34-2.17,4.46-2.87-.16-.62-.54-1.68-.77-2.31s-.45-1.25-.58-1.7c-.41-1.45-.66-14.9-.72-19,.16-8.77-.94-10.7-1.11-10.94a1.2,1.2,0,0,1,1.4-1.94c1.5.88,2.25,5.46,2.1,12.88.13,8.12.39,17.33.63,18.33.1.36.31.93.53,1.54.95,2.62,1.53,4.22.24,4.87-.49.3-4,2.48-4.8,3.08a3.29,3.29,0,0,0-1.32,2.39c0,1.23,0,4.13,7.29,4.13a1.2,1.2,0,1,1,0,2.4Zm0,0" transform="translate(0 -0.53)"/><path d="M31.87,69a1.21,1.21,0,0,1-.64-.19c-3.76-2.39-6.62-1.75-6.74-1.72a1.2,1.2,0,0,1-.58-2.33c.16,0,3.93-.94,8.61,2A1.2,1.2,0,0,1,31.87,69Zm0,0" transform="translate(0 -0.53)"/><path d="M32.28,76.09a1.21,1.21,0,0,1-.73-.25,9.75,9.75,0,0,0-8-2.09,1.2,1.2,0,0,1-.66-2.31A12.09,12.09,0,0,1,33,73.93a1.2,1.2,0,0,1-.73,2.16Zm0,0" transform="translate(0 -0.53)"/><path d="M32.73,83.47a1.21,1.21,0,0,1-.83-.34c-3.46-3.34-6.32-2.56-6.34-2.55a1.2,1.2,0,1,1-.72-2.29c.17,0,4.2-1.26,8.73,3.11a1.2,1.2,0,0,1-.83,2.07Zm0,0" transform="translate(0 -0.53)"/><path d="M33.73,97.21a1.16,1.16,0,0,1-.38-.06L32.88,97c-1.22-.39-2.28-.74-2.6-1.73a1.72,1.72,0,0,1,.3-1.58A1.56,1.56,0,0,1,31.85,93c.87,0,1.83.78,2.87,2.29a1.2,1.2,0,0,1-1,1.88Zm0,0" transform="translate(0 -0.53)"/><path d="M29.38,105a1.19,1.19,0,0,1-1.08-1.71c.07-.16,1.91-3.86,7.85-3.86a1.2,1.2,0,1,1,0,2.4c-4.36,0-5.64,2.41-5.69,2.51a1.21,1.21,0,0,1-1.08.66Zm0,0" transform="translate(0 -0.53)"/><g class="cls-2"><path d="M30.36,92a1.2,1.2,0,0,1-1-.47c-7.83-10.3-8.12-19.62-8.13-20-.11-12.89,10.46-15.13,10.57-15.15a1.2,1.2,0,0,1,.47,2.35c-.35.07-8.73,1.92-8.64,12.77,0,.07.31,8.95,7.64,18.59a1.2,1.2,0,0,1-1,1.93Zm0,0" transform="translate(0 -0.53)"/><path d="M48.41,96.43a1.2,1.2,0,0,1-.31-2.36C59,91.18,71,75.92,70.12,60.58c-.91-15.78-11.41-27.16-20.68-37.2-7-7.6-13.07-14.16-14.19-21.48a1.2,1.2,0,0,1,2.37-.36c1,6.59,6.84,12.9,13.58,20.21,9.54,10.34,20.35,22,21.31,38.69.87,15-10.7,32.47-23.8,35.94a1.24,1.24,0,0,1-.31,0Zm0,0" transform="translate(0 -0.53)"/></g><path d="M36.28,123h-.14a1.2,1.2,0,0,1-1.05-1.34c.36-3,2.71-5.48,5.2-8.13,3.22-3.42,6.88-7.31,6.85-13,0-6.32-5.29-9.72-8.42-11.18a1.2,1.2,0,0,1,1-2.18c3.64,1.7,9.76,5.7,9.8,13.34,0,6.61-4.14,11.05-7.5,14.62-2.31,2.45-4.3,4.57-4.56,6.77A1.2,1.2,0,0,1,36.28,123Zm0,0" transform="translate(0 -0.53)"/><path d="M36.35,45.16a1.2,1.2,0,0,1,0-2.4A10.25,10.25,0,0,0,39,42.48c2.92-.77,4.68-2,4.68-5.82,0-4.39-1.61-8.44-3.48-13.13-2.35-5.88-5-12.55-5-21.57a1.2,1.2,0,1,1,2.4,0c0,8.55,2.57,15,4.84,20.68,1.88,4.71,3.66,9.16,3.66,14,0,5.72-3.43,7.35-6.41,8.13a11.93,11.93,0,0,1-3.34.38Zm0,0" transform="translate(0 -0.53)"/><path d="M48.31,53.39h-12a1.2,1.2,0,0,1,0-2.4h12a2.18,2.18,0,0,0,1.78-.91c0-.24-.86-.91-1.72-.91h-12a1.2,1.2,0,1,1,0-2.4h12c1.72,0,4.12,1.26,4.12,3.31S50,53.39,48.31,53.39Zm0,0" transform="translate(0 -0.53)"/><path d="M36.41,101.23a1.2,1.2,0,0,1,0-2.4c7.29,0,7.29-2.89,7.29-4.12a3.3,3.3,0,0,0-1.32-2.39c-.84-.6-4.3-2.77-4.8-3.08-1.29-.65-.71-2.25.24-4.87.22-.6.43-1.17.53-1.54.24-1,.5-10.2.63-18.36-.14-7.38.61-12,2.11-12.84a1.2,1.2,0,0,1,1.4,1.94c-.16.24-1.27,2.17-1.11,10.9-.06,4.13-.3,17.57-.72,19-.13.46-.35,1.06-.58,1.71s-.61,1.68-.77,2.3c1.12.7,3.7,2.32,4.46,2.87A5.68,5.68,0,0,1,46.1,94.7c0,4.33-3.26,6.53-9.69,6.53Zm0,0" transform="translate(0 -0.53)"/><path d="M40.69,69a1.2,1.2,0,0,1-.64-2.22c4.68-3,8.44-2.07,8.6-2a1.2,1.2,0,0,1-.58,2.33c-.14,0-3-.66-6.74,1.72a1.21,1.21,0,0,1-.64.19Zm0,0" transform="translate(0 -0.53)"/><path d="M40.29,76.09a1.2,1.2,0,0,1-.73-2.16,12.07,12.07,0,0,1,10.1-2.49A1.2,1.2,0,0,1,49,73.75a9.7,9.7,0,0,0-8,2.09,1.2,1.2,0,0,1-.73.25Zm0,0" transform="translate(0 -0.53)"/><path d="M39.84,83.47A1.2,1.2,0,0,1,39,81.4c4.53-4.37,8.57-3.16,8.74-3.11A1.2,1.2,0,0,1,47,80.59c-.14,0-2.93-.76-6.36,2.54a1.2,1.2,0,0,1-.84.34Zm0,0" transform="translate(0 -0.53)"/><path d="M38.87,97.25a1.2,1.2,0,0,1-1-1.84c1-1.54,1.92-2.35,2.78-2.39a1.51,1.51,0,0,1,1.3.6,1.72,1.72,0,0,1,.35,1.57C42,96.18,41,96.56,39.75,97l-.46.17a1.22,1.22,0,0,1-.42.08Zm0,0" transform="translate(0 -0.53)"/><path d="M43.19,105a1.21,1.21,0,0,1-1.08-.67c-.07-.12-1.36-2.51-5.7-2.51a1.2,1.2,0,1,1,0-2.4c5.95,0,7.78,3.7,7.86,3.86a1.2,1.2,0,0,1-.57,1.6,1.23,1.23,0,0,1-.51.12Zm0,0" transform="translate(0 -0.53)"/><path d="M42.21,92a1.2,1.2,0,0,1-1-1.93c7.36-9.69,7.64-18.52,7.64-18.61C49,60.6,40.61,58.75,40.25,58.68a1.2,1.2,0,0,1,.47-2.35c.11,0,10.68,2.26,10.57,15.14,0,.41-.31,9.72-8.13,20a1.2,1.2,0,0,1-1,.47Zm0,0" transform="translate(0 -0.53)"/><path d="M27.59,59.18A3.39,3.39,0,1,1,31,55.78a3.4,3.4,0,0,1-3.39,3.39Zm0-4.39a1,1,0,1,0,1,1,1,1,0,0,0-1-1Zm0,0" transform="translate(0 -0.53)"/><path d="M45,59.18a3.39,3.39,0,1,1,3.39-3.39A3.4,3.4,0,0,1,45,59.18Zm0-4.39a1,1,0,1,0,1,1,1,1,0,0,0-1-1Zm0,0" transform="translate(0 -0.53)"/></g></g></svg>