<svg xmlns="http://www.w3.org/2000/svg" xmlns:xlink="http://www.w3.org/1999/xlink" viewBox="0 0 94.87 95.81"><defs><style>.cls-1{fill:none;}.cls-2{clip-path:url(#clip-path);}</style><clipPath id="clip-path" transform="translate(0 -0.19)"><rect class="cls-1" width="94.8" height="96.96"/></clipPath></defs><title>Ресурс 2</title><g id="Слой_2" data-name="Слой 2"><g id="Слой_1-2" data-name="Слой 1"><g class="cls-2"><path d="M29.34,29a1.2,1.2,0,0,1-.61-2.24A38,38,0,0,1,47.36,21.2a1.2,1.2,0,0,1,1.17,1.23,1.19,1.19,0,0,1-1.23,1.17,36.41,36.41,0,0,0-17.36,5.23,1.2,1.2,0,0,1-.61.17Zm0,0" transform="translate(0 -0.19)"/><path d="M47.34,96l-.23,0C15.18,89.85,3,52.94,2.86,52.57-.84,42.22-1,28.88,2.53,13c.11-.48.19-.84.23-1.07.43-2.32-.42-4.12-1.4-5.9a3.89,3.89,0,0,1,.79-4.82A3.6,3.6,0,0,1,7,1.1,56.86,56.86,0,0,1,32.64,35.56a1.2,1.2,0,1,1-2.35.48A55.49,55.49,0,0,0,5.65,3.09a1.19,1.19,0,0,1-.21-.16A1.18,1.18,0,0,0,3.73,3a1.47,1.47,0,0,0-.28,1.86c1.11,2,2.24,4.4,1.66,7.5,0,.25-.13.63-.25,1.15C1.49,28.95,1.58,41.84,5.13,51.8c.13.39,11.91,36,42.43,41.82A1.2,1.2,0,0,1,47.34,96Zm0,0" transform="translate(0 -0.19)"/></g><path d="M27.6,63.26a4,4,0,1,1,4-4,4,4,0,0,1-4,4Zm0-5.6a1.6,1.6,0,1,0,1.6,1.6,1.6,1.6,0,0,0-1.6-1.6Zm0,0" transform="translate(0 -0.19)"/><path d="M37.07,68.07H37a1.2,1.2,0,0,1-1.15-1.25l.27-6.54a1,1,0,0,1,0-.11,6.23,6.23,0,0,1,1.61-3.55c.9-.78,7.48-6,8.24-6.64a2.3,2.3,0,0,1,1.54-.75,1.2,1.2,0,0,1,.23,2.38l-.08.07a1,1,0,0,1-.13.13c-.07.06-7.33,5.86-8.24,6.64a4.16,4.16,0,0,0-.79,2l-.26,6.47a1.2,1.2,0,0,1-1.2,1.15Zm0,0" transform="translate(0 -0.19)"/><path d="M41.27,67.67a1.2,1.2,0,0,1-1.2-1.08l-.45-4.68c-.28-1-.09-3.11,2.41-4.58a3.45,3.45,0,0,1,2.92-.66A1.8,1.8,0,0,1,46,58c0,.16.07.33.09.49.16.92.16,1,1.34.9a1.2,1.2,0,0,1,.13,2.4c-2.95.15-3.53-1.3-3.8-2.73a3.15,3.15,0,0,0-.45.25l-.08.05c-1.56.9-1.36,1.82-1.33,1.93a.8.8,0,0,1,.05.25l.47,4.8a1.2,1.2,0,0,1-1.08,1.31Zm0,0" transform="translate(0 -0.19)"/><path d="M45.47,66.47a1.2,1.2,0,0,1-1-.53l-1.67-2.46a1.2,1.2,0,1,1,2-1.34l1.67,2.46a1.2,1.2,0,0,1-1,1.88Zm0,0" transform="translate(0 -0.19)"/><path d="M8,47.93a1.19,1.19,0,0,1-.71-.23A1.2,1.2,0,0,1,7,46,34.47,34.47,0,0,1,22.36,34.95C22.06,31.45,20,17.74,6.21,3.57A1.2,1.2,0,0,1,7.93,1.89C24.61,19,24.8,35.12,24.8,35.8A1.2,1.2,0,0,1,24,36.94,32.38,32.38,0,0,0,9,47.44a1.2,1.2,0,0,1-1,.49Zm0,0" transform="translate(0 -0.19)"/><path d="M8.54,37.54a1.2,1.2,0,0,1-.84-2.06c7.55-7.41,14.17-8.18,14.45-8.21a1.2,1.2,0,0,1,.25,2.39c-.07,0-6.13.77-13,7.53a1.19,1.19,0,0,1-.84.34Zm0,0" transform="translate(0 -0.19)"/><path d="M7.6,28.73a1.2,1.2,0,0,1-.77-2.12c7.38-6.15,12.26-6.91,12.46-6.93a1.2,1.2,0,0,1,.34,2.38c-.08,0-4.52.77-11.27,6.4a1.17,1.17,0,0,1-.77.28Zm0,0" transform="translate(0 -0.19)"/><path d="M7.74,19.8a1.2,1.2,0,0,1-.68-2.19A29.84,29.84,0,0,1,16,13.3a1.2,1.2,0,0,1,.57,2.33,28.14,28.14,0,0,0-8.14,4,1.2,1.2,0,0,1-.68.21Zm0,0" transform="translate(0 -0.19)"/><path d="M47.54,91.4C36.32,91.4,28.78,78,26.05,72.26L25.94,72c-.69-1.24-.2-1.94,0-2.18a1.2,1.2,0,0,1,1.74.05c.27.31,6.83,7.44,13.82,1.92.47-.43,3.28-2.92,6-2.92a1.2,1.2,0,0,1,0,2.4c-1.57,0-3.69,1.66-4.38,2.3l-.07.07c-4.71,3.75-9.53,2.93-13.06,1C33.2,80.3,39.44,89,47.54,89a1.2,1.2,0,1,1,0,2.4Zm0,0" transform="translate(0 -0.19)"/><path d="M38.47,82.26a1.2,1.2,0,0,1-1-.6l-3.34-5.8a1.2,1.2,0,0,1,2.08-1.2l1.59,2.76.38-2.73a1.2,1.2,0,1,1,2.38.33l-.86,6.2a1.2,1.2,0,0,1-1,1l-.23,0Zm0,0" transform="translate(0 -0.19)"/><g class="cls-2"><path d="M65.53,29a1.2,1.2,0,0,1-.61-.17A36.56,36.56,0,0,0,47.56,23.6a1.19,1.19,0,0,1-1.23-1.17,1.2,1.2,0,0,1,1.17-1.23,38.09,38.09,0,0,1,18.64,5.57A1.2,1.2,0,0,1,65.53,29Zm0,0" transform="translate(0 -0.19)"/><path d="M47.54,96a1.2,1.2,0,0,1-.23-2.38c30.55-5.86,42.3-41.43,42.42-41.79,3.57-10,3.66-22.88.27-38.36-.11-.52-.2-.91-.24-1.15-.57-3.1.55-5.5,1.66-7.5A1.47,1.47,0,0,0,91.13,3a1.18,1.18,0,0,0-1.7,0,1.45,1.45,0,0,1-.21.16A55.35,55.35,0,0,0,64.58,36a1.2,1.2,0,1,1-2.35-.48A56.86,56.86,0,0,1,87.88,1.1a3.6,3.6,0,0,1,4.85.07A3.89,3.89,0,0,1,93.52,6c-1,1.79-1.83,3.58-1.4,5.9,0,.23.12.59.23,1.07C95.82,28.88,95.71,42.22,92,52.6c-.11.34-12.31,37.25-44.24,43.38l-.23,0Zm0,0" transform="translate(0 -0.19)"/></g><path d="M67.27,63.26a4,4,0,1,1,4-4,4,4,0,0,1-4,4Zm0-5.6a1.6,1.6,0,1,0,1.6,1.6,1.6,1.6,0,0,0-1.6-1.6Zm0,0" transform="translate(0 -0.19)"/><path d="M57.8,68.07a1.19,1.19,0,0,1-1.2-1.15l-.26-6.47a4.18,4.18,0,0,0-.79-2c-.91-.78-8.16-6.58-8.24-6.64l-.13-.12-.08-.07a1.2,1.2,0,0,1,.23-2.38,2.33,2.33,0,0,1,1.55.75c.76.61,7.33,5.87,8.23,6.64a6.24,6.24,0,0,1,1.61,3.55s0,.07,0,.11L59,66.82a1.2,1.2,0,0,1-1.15,1.25Zm0,0" transform="translate(0 -0.19)"/><path d="M53.6,67.67h-.12a1.2,1.2,0,0,1-1.08-1.31l.46-4.8a1.19,1.19,0,0,1,.07-.29c0-.07.22-1-1.34-1.89l-.08,0a3.2,3.2,0,0,0-.45-.25c-.27,1.43-.86,2.88-3.8,2.73a1.2,1.2,0,0,1,.13-2.4c1.17.06,1.18,0,1.34-.89l.09-.49a1.81,1.81,0,0,1,1.1-1.36,3.44,3.44,0,0,1,2.91.66c2.5,1.47,2.69,3.54,2.41,4.58l-.46,4.68a1.2,1.2,0,0,1-1.19,1.08Zm0,0" transform="translate(0 -0.19)"/><path d="M49.4,66.47a1.2,1.2,0,0,1-1-1.87l1.67-2.46a1.2,1.2,0,1,1,2,1.34L50.4,65.94a1.21,1.21,0,0,1-1,.53Zm0,0" transform="translate(0 -0.19)"/><path d="M86.87,47.93a1.21,1.21,0,0,1-1-.49,32.47,32.47,0,0,0-15-10.5,1.2,1.2,0,0,1-.84-1.14c0-.68.19-16.82,16.88-33.91a1.2,1.2,0,1,1,1.71,1.68C74.78,17.78,72.8,31.46,72.52,34.94A34.51,34.51,0,0,1,87.84,46a1.2,1.2,0,0,1-1,1.91Zm0,0" transform="translate(0 -0.19)"/><path d="M86.34,37.54a1.18,1.18,0,0,1-.84-.34c-7-6.83-13-7.52-13-7.53a1.2,1.2,0,0,1,.25-2.39c.28,0,6.9.8,14.45,8.2a1.2,1.2,0,0,1-.84,2.06Zm0,0" transform="translate(0 -0.19)"/><path d="M87.27,28.73a1.19,1.19,0,0,1-.77-.28c-6.86-5.72-11.22-6.39-11.27-6.4a1.2,1.2,0,1,1,.34-2.37c.2,0,5.09.79,12.47,6.93a1.2,1.2,0,0,1-.77,2.12Zm0,0" transform="translate(0 -0.19)"/><path d="M87.14,19.8a1.22,1.22,0,0,1-.68-.21,28,28,0,0,0-8.14-4,1.2,1.2,0,0,1,.57-2.33,29.8,29.8,0,0,1,8.93,4.31,1.2,1.2,0,0,1-.68,2.19Zm0,0" transform="translate(0 -0.19)"/><path d="M47.34,91.4a1.2,1.2,0,0,1,0-2.4c3,0,10.46-1.48,17.56-14.34-3.53,1.93-8.37,2.78-13.11-1l-.07-.06C51,73,48.91,71.3,47.34,71.3a1.2,1.2,0,0,1,0-2.4c2.7,0,5.51,2.48,6,2.92A8.59,8.59,0,0,0,62.79,73a14.43,14.43,0,0,0,4.35-3.11,1.2,1.2,0,0,1,1.74-.05c.24.24.73.94,0,2.2l-.1.22C66.09,78,58.54,91.4,47.34,91.4Zm0,0" transform="translate(0 -0.19)"/><path d="M56.4,82.26l-.23,0a1.2,1.2,0,0,1-1-1L54.35,75a1.2,1.2,0,1,1,2.38-.34l.38,2.73,1.59-2.76a1.2,1.2,0,0,1,2.08,1.19l-3.34,5.8a1.19,1.19,0,0,1-1,.6Zm0,0" transform="translate(0 -0.19)"/></g></g></svg>