<svg xmlns="http://www.w3.org/2000/svg" xmlns:xlink="http://www.w3.org/1999/xlink" viewBox="0 0 109.41 91.75"><defs><style>.cls-1{fill:none;}.cls-2{clip-path:url(#clip-path);}</style><clipPath id="clip-path" transform="translate(0 -0.25)"><rect class="cls-1" y="0.08" width="109.92" height="92.88"/></clipPath></defs><title>Ресурс 83</title><g id="Слой_2" data-name="Слой 2"><g id="Слой_1-2" data-name="Слой 1"><path d="M42.48,85.88a1.17,1.17,0,0,1-.43-.08C19.6,77.28,6.19,59.24,6.19,37.53,6.19,14.54,24.84.25,54.84.25a1.2,1.2,0,0,1,0,2.4C26.32,2.65,8.6,16,8.6,37.53c0,20.67,12.82,37.88,34.3,46a1.2,1.2,0,0,1-.42,2.32Zm0,0" transform="translate(0 -0.25)"/><path d="M36.67,47.07a4.47,4.47,0,1,1,4.46-4.47,4.47,4.47,0,0,1-4.46,4.47Zm0-6.54a2.07,2.07,0,1,0,2.07,2.07,2.07,2.07,0,0,0-2.07-2.07Zm0,0" transform="translate(0 -0.25)"/><g class="cls-2"><path d="M54.55,92h0A14.31,14.31,0,0,1,43.2,87.1c-3.42-4-5.2-10.09-5.28-18.23V65.46c0-.33.27-7.21,2.86-12.42a1.2,1.2,0,1,1,2.15,1.07c-2.35,4.74-2.61,11.33-2.61,11.39v3.36c.07,7.43,1.7,13.2,4.7,16.67a12,12,0,0,0,9.53,4.07,1.2,1.2,0,0,1,0,2.4Zm0,0" transform="translate(0 -0.25)"/><path d="M8.43,25.89a1.19,1.19,0,0,1-.8-.31C3.11,21.53.19,16.22,0,11.73A9.07,9.07,0,0,1,2.42,5C8-1,17,2.19,23.44,7.94a1.2,1.2,0,0,1-1.6,1.79c-5.55-5-13.18-7.87-17.68-3.12a6.63,6.63,0,0,0-1.76,5c.16,3.87,2.77,8.53,6.82,12.16a1.2,1.2,0,0,1-.8,2.09Zm0,0" transform="translate(0 -0.25)"/></g><path d="M12.07,20.27a1.19,1.19,0,0,1-.8-.3,9.68,9.68,0,0,1-3.46-6.24,4.07,4.07,0,0,1,1.09-3c2.16-2.28,6-1.71,9.43,1.41a1.2,1.2,0,0,1-1.6,1.79c-2-1.76-4.71-3-6.09-1.54a1.68,1.68,0,0,0-.43,1.29,7.41,7.41,0,0,0,2.67,4.55,1.2,1.2,0,0,1-.8,2.09Zm0,0" transform="translate(0 -0.25)"/><path d="M54.62,86.85c-5.91,0-10.18-5.8-10.18-9.71,0-4.53,6.62-4.53,10.18-4.53a1.2,1.2,0,0,1,0,2.4c-5.38,0-7.79.66-7.79,2.13,0,2.57,3.21,7.31,7.79,7.31a1.2,1.2,0,0,1,0,2.4Zm0,0" transform="translate(0 -0.25)"/><path d="M66.93,85.88a1.2,1.2,0,0,1-.43-2.32c21.48-8.15,34.31-25.35,34.31-46C100.81,16,83.09,2.65,54.56,2.65a1.2,1.2,0,1,1,0-2.4c30,0,48.65,14.29,48.65,37.28,0,21.71-13.4,39.75-35.86,48.27a1.16,1.16,0,0,1-.43.08Zm0,0" transform="translate(0 -0.25)"/><path d="M72.74,47.07A4.47,4.47,0,1,1,77.2,42.6a4.47,4.47,0,0,1-4.47,4.47Zm0-6.54A2.07,2.07,0,1,0,74.8,42.6a2.07,2.07,0,0,0-2.07-2.07Zm0,0" transform="translate(0 -0.25)"/><g class="cls-2"><path d="M54.85,92a1.2,1.2,0,1,1,0-2.4,12,12,0,0,0,9.53-4.07c3-3.47,4.63-9.24,4.7-16.68V65.46s-.26-6.61-2.61-11.35A1.2,1.2,0,1,1,68.63,53c2.58,5.21,2.84,12.09,2.85,12.38v3.44C71.4,77,69.63,83.14,66.2,87.1A14.31,14.31,0,0,1,54.85,92Zm0,0" transform="translate(0 -0.25)"/><path d="M101,25.89a1.2,1.2,0,0,1-.8-2.09c4-3.63,6.66-8.29,6.82-12.16a6.63,6.63,0,0,0-1.75-5c-4.5-4.75-12.13-1.86-17.68,3.12A1.2,1.2,0,1,1,86,7.94C92.38,2.19,101.37-1,107,5a9.06,9.06,0,0,1,2.41,6.77c-.18,4.49-3.1,9.8-7.62,13.85a1.19,1.19,0,0,1-.8.31Zm0,0" transform="translate(0 -0.25)"/></g><path d="M97.33,20.27a1.2,1.2,0,0,1-.8-2.09,7.39,7.39,0,0,0,2.67-4.55,1.69,1.69,0,0,0-.43-1.29c-1.39-1.46-4.13-.23-6.1,1.54a1.2,1.2,0,0,1-1.6-1.79c3.48-3.12,7.27-3.68,9.44-1.41a4.08,4.08,0,0,1,1.09,3A9.67,9.67,0,0,1,98.13,20a1.2,1.2,0,0,1-.8.3Zm0,0" transform="translate(0 -0.25)"/><path d="M54.78,86.85a1.2,1.2,0,0,1,0-2.4c4.57,0,7.78-4.74,7.78-7.31,0-1.48-2.4-2.13-7.78-2.13a1.2,1.2,0,0,1,0-2.4c3.56,0,10.19,0,10.19,4.53,0,3.91-4.28,9.71-10.19,9.71Zm0,0" transform="translate(0 -0.25)"/></g></g></svg>