<svg xmlns="http://www.w3.org/2000/svg" xmlns:xlink="http://www.w3.org/1999/xlink" viewBox="0 0 98.47 98.46"><defs><style>.cls-1{fill:none;}.cls-2{clip-path:url(#clip-path);}</style><clipPath id="clip-path" transform="translate(0 -0.53)"><rect class="cls-1" y="0.12" width="98.88" height="99.84"/></clipPath></defs><title>Ресурс 82</title><g id="Слой_2" data-name="Слой 2"><g id="Слой_1-2" data-name="Слой 1"><path d="M39.25,94.28l-.21,0C15.69,90,0,72,0,49.53a49,49,0,1,1,98,0c0,22.08-15.19,40-37.8,44.5a1.2,1.2,0,1,1-.47-2.35C81.18,87.37,95.6,70.44,95.6,49.53a46.6,46.6,0,1,0-93.2,0c0,21.3,14.9,38.33,37.07,42.37a1.2,1.2,0,0,1-.22,2.38Zm0,0" transform="translate(0 -0.53)"/><path d="M33.6,53.13a5,5,0,1,1,5-5,5,5,0,0,1-5,5Zm0-7.6a2.6,2.6,0,1,0,2.6,2.6,2.61,2.61,0,0,0-2.6-2.6Zm0,0" transform="translate(0 -0.53)"/><g class="cls-2"><path d="M49.27,99a14.63,14.63,0,0,1-10.34-4.73c-4.73-4.75-7.55-12.07-7.53-19.6,0-8.51,2.37-22.79,17.8-22.79a1.2,1.2,0,0,1,0,2.4c-10,0-15.36,7.05-15.4,20.39,0,6.8,2.59,13.66,6.82,17.9a12.31,12.31,0,0,0,8.64,4,1.2,1.2,0,1,1,0,2.4Zm0,0" transform="translate(0 -0.53)"/><path d="M8.29,25.2a1.2,1.2,0,0,1-.82-.33C3.15,20.78.43,15.5.37,11.09A8.9,8.9,0,0,1,2.92,4.51C8.58-1.15,17.31,2.18,23.45,8A1.2,1.2,0,1,1,21.8,9.74C16.5,4.72,9.14,1.69,4.61,6.2a6.49,6.49,0,0,0-1.85,4.86c0,3.79,2.48,8.41,6.35,12.07a1.2,1.2,0,0,1-.83,2.07Zm0,0" transform="translate(0 -0.53)"/></g><path d="M12,19.8a1.21,1.21,0,0,1-.82-.33A9.5,9.5,0,0,1,8,13.25a4,4,0,0,1,1.16-3C11.3,8.1,15,8.76,18.34,11.91a1.2,1.2,0,1,1-1.65,1.74c-1.87-1.77-4.5-3-5.89-1.67a1.64,1.64,0,0,0-.45,1.24,7.23,7.23,0,0,0,2.48,4.5A1.2,1.2,0,0,1,12,19.8Zm0,0" transform="translate(0 -0.53)"/><path d="M65.23,53.13a5,5,0,1,1,5-5,5,5,0,0,1-5,5Zm0-7.6a2.6,2.6,0,1,0,2.6,2.6,2.6,2.6,0,0,0-2.6-2.6Zm0,0" transform="translate(0 -0.53)"/><g class="cls-2"><path d="M49.57,99a1.2,1.2,0,1,1,0-2.4C57.73,96.6,65,86.35,65,74.66c.06-7.57-1.63-13.12-5-16.52-2.55-2.57-6-3.87-10.39-3.87a1.2,1.2,0,0,1,0-2.4c5,0,9.09,1.54,12.1,4.57,3.84,3.87,5.76,10,5.7,18.23C67.34,87.64,59,99,49.57,99Zm0,0" transform="translate(0 -0.53)"/><path d="M90.54,25.2a1.2,1.2,0,0,1-.82-2.07c3.87-3.66,6.3-8.29,6.35-12.07A6.49,6.49,0,0,0,94.22,6.2C89.7,1.69,82.33,4.72,77,9.74A1.2,1.2,0,1,1,75.39,8c6.14-5.82,14.87-9.15,20.53-3.48a8.9,8.9,0,0,1,2.55,6.58c-.06,4.41-2.78,9.69-7.1,13.78a1.21,1.21,0,0,1-.83.33Zm0,0" transform="translate(0 -0.53)"/></g><path d="M86.82,19.8A1.2,1.2,0,0,1,86,17.73a7.21,7.21,0,0,0,2.48-4.51A1.61,1.61,0,0,0,88,12c-1.38-1.38-4-.1-5.89,1.66a1.2,1.2,0,1,1-1.65-1.74c3.33-3.15,7-3.81,9.23-1.62a4,4,0,0,1,1.16,3,9.47,9.47,0,0,1-3.24,6.21,1.18,1.18,0,0,1-.82.33Zm0,0" transform="translate(0 -0.53)"/><path d="M49.31,92.36c-6.26,0-10-3.56-10-9.53,0-4.47,6.51-4.47,10-4.47,2.48,0,10,0,10,4.57,0,6-3.64,9.43-10,9.43Zm0-11.6c-5.25,0-7.6.64-7.6,2.07,0,3.25,1.32,7.13,7.6,7.13,5,0,7.6-2.37,7.6-7,0-1.36-2.84-2.17-7.6-2.17Zm0,0" transform="translate(0 -0.53)"/></g></g></svg>