<svg xmlns="http://www.w3.org/2000/svg" xmlns:xlink="http://www.w3.org/1999/xlink" viewBox="0 0 49.1 118.4"><defs><style>.cls-1{fill:none;}.cls-2{clip-path:url(#clip-path);}</style><clipPath id="clip-path" transform="translate(0 -0.6)"><rect class="cls-1" y="0.2" width="49.92" height="119.76"/></clipPath></defs><title>Ресурс 81</title><g id="Слой_2" data-name="Слой 2"><g id="Слой_1-2" data-name="Слой 1"><g class="cls-2"><path d="M11.29,57.46a1.19,1.19,0,0,1-.79-.3C3.77,51.26-.16,40.45,0,28.25.32,4.19,15.55.6,24.6.6a1.2,1.2,0,1,1,0,2.4C5.57,3,2.53,18.84,2.4,28.28c-.15,11.51,3.47,21.63,9.68,27.07a1.2,1.2,0,0,1-.79,2.1Zm0,0" transform="translate(0 -0.6)"/></g><path d="M5.6,38A4.37,4.37,0,1,1,10,33.67,4.37,4.37,0,0,1,5.6,38Zm0-6.33a2,2,0,1,0,2,2,2,2,0,0,0-2-2Zm0,0" transform="translate(0 -0.6)"/><path d="M6.38,33.67a.77.77,0,1,1-.77-.77.77.77,0,0,1,.77.77Zm0,0" transform="translate(0 -0.6)"/><path d="M24.4,119a1.2,1.2,0,0,1-.84-.35C6.8,102,9.48,81.81,11.41,73.92a33.64,33.64,0,0,0-.73-15.5C7.84,47.85,7.55,33.72,7.54,33.12A1.2,1.2,0,0,1,9.93,33c0,.13.46,3.17,3.29,3.78a52.09,52.09,0,0,0,11.41,1.11,1.2,1.2,0,0,1,0,2.4,54,54,0,0,1-11.92-1.16,6.21,6.21,0,0,1-2.56-1.17A109.09,109.09,0,0,0,13,57.79a35.7,35.7,0,0,1,.74,16.7C11.46,83.8,9.94,101.7,25.25,117a1.2,1.2,0,0,1,0,1.69,1.22,1.22,0,0,1-.86.35Zm0,0" transform="translate(0 -0.6)"/><path d="M21.94,65.8a1.2,1.2,0,0,1-1.2-1.09l-.46-5.07C19,50.11,17,48.55,16.41,48.3a.72.72,0,0,0-.31-.06,1.2,1.2,0,0,1-1.4-2,2.78,2.78,0,0,1,2.66-.19c2.49,1.07,4.22,5.41,5.3,13.27l.47,5.12A1.2,1.2,0,0,1,22,65.79Zm0,0" transform="translate(0 -0.6)"/><path d="M16.26,83.56h-.18a3.47,3.47,0,0,1-2.47-1.18c-2.32-2.5-2.08-8.42-2-9.09a1.19,1.19,0,0,1,1.26-1.14A1.2,1.2,0,0,1,14,73.41c-.11,2.13.18,6,1.41,7.33a1.14,1.14,0,0,0,.84.41,1,1,0,0,0,.7-.26,2.39,2.39,0,0,0,.41-1.73,1.27,1.27,0,0,1,1-1.33,1.1,1.1,0,0,1,1.29.71c.19.2,1.27,1.1,4.87,1.1a1.2,1.2,0,0,1,0,2.4,13,13,0,0,1-5-.81,3.55,3.55,0,0,1-.89,1.41,3.37,3.37,0,0,1-2.3.91Zm0,0" transform="translate(0 -0.6)"/><path d="M37.82,57.46a1.2,1.2,0,0,1-.79-2.1c6.21-5.45,9.83-15.57,9.67-27.07C46.57,18.84,43.53,3,24.5,3a1.2,1.2,0,1,1,0-2.4c9,0,24.28,3.59,24.59,27.65.16,12.2-3.76,23-10.49,28.91a1.2,1.2,0,0,1-.79.3Zm0,0" transform="translate(0 -0.6)"/><path d="M43.5,38a4.37,4.37,0,1,1,4.37-4.37A4.37,4.37,0,0,1,43.5,38Zm0-6.33a2,2,0,1,0,2,2,2,2,0,0,0-2-2Zm0,0" transform="translate(0 -0.6)"/><path d="M44.27,33.67a.77.77,0,1,1-.77-.77.77.77,0,0,1,.77.77Zm0,0" transform="translate(0 -0.6)"/><path d="M24.7,119a1.2,1.2,0,0,1-.85-2.05C39.17,101.7,37.64,83.8,35.37,74.48a35.64,35.64,0,0,1,.74-16.7A108.91,108.91,0,0,0,38.95,37.9a6.26,6.26,0,0,1-2.56,1.18,54.26,54.26,0,0,1-11.92,1.16,1.2,1.2,0,0,1,0-2.4,51.83,51.83,0,0,0,11.41-1.11c2.83-.6,3.28-3.65,3.29-3.78a1.2,1.2,0,0,1,2.39.18c0,.6-.3,14.73-3.14,25.29a33.63,33.63,0,0,0-.73,15.5c1.93,7.9,4.6,28.06-12.15,44.74a1.21,1.21,0,0,1-.85.35Zm0,0" transform="translate(0 -0.6)"/><path d="M27.17,65.8h-.11A1.2,1.2,0,0,1,26,64.49l.46-5.07c1.08-7.91,2.81-12.25,5.3-13.32a2.76,2.76,0,0,1,2.66.19l-1.4,2,.05,0s-.19-.07-.43.05c-.57.3-2.52,2-3.8,11.36l-.46,5a1.2,1.2,0,0,1-1.2,1.09Zm0,0" transform="translate(0 -0.6)"/><path d="M32.82,83.56a3.39,3.39,0,0,1-2.28-.92,3.58,3.58,0,0,1-.89-1.41,13,13,0,0,1-5,.81,1.2,1.2,0,0,1,0-2.4c3.61,0,4.68-.9,4.88-1.1a1.1,1.1,0,0,1,1.29-.71,1.27,1.27,0,0,1,1,1.33,2.42,2.42,0,0,0,.41,1.73,1,1,0,0,0,.66.27,1.14,1.14,0,0,0,.88-.42c1.24-1.33,1.52-5.21,1.41-7.33a1.2,1.2,0,1,1,2.4-.12c0,.66.27,6.58-2,9.09a3.52,3.52,0,0,1-2.55,1.18Zm0,0" transform="translate(0 -0.6)"/></g></g></svg>