<svg xmlns="http://www.w3.org/2000/svg" xmlns:xlink="http://www.w3.org/1999/xlink" viewBox="0 0 95.89 83.2"><defs><style>.cls-1{fill:none;}.cls-2{clip-path:url(#clip-path);}</style><clipPath id="clip-path" transform="translate(0 -0.8)"><rect class="cls-1" width="96" height="84.96"/></clipPath></defs><title>Ресурс 78</title><g id="Слой_2" data-name="Слой 2"><g id="Слой_1-2" data-name="Слой 1"><path d="M11.41,57.47a8.13,8.13,0,1,1,8.13-8.13,8.15,8.15,0,0,1-8.13,8.13Zm0-13.86a5.73,5.73,0,1,0,5.74,5.73,5.74,5.74,0,0,0-5.74-5.73Zm0,0" transform="translate(0 -0.8)"/><path d="M33.55,66.72a10.8,10.8,0,0,1-4.95-1.24c-4.23-2.17-7.6-7-9-12.94-2.1-8.77-7.34-9.2-7.57-9.21l-.14,0c-4.47-.77-8.2,2.25-8.23,2.28a1.2,1.2,0,1,1-1.52-1.85c.18-.15,4.59-3.71,10.1-2.8.88.07,7.28,1,9.69,11,1.26,5.26,4.17,9.5,7.79,11.36a8.13,8.13,0,0,0,7,.34,1.2,1.2,0,1,1,.91,2.22,10.61,10.61,0,0,1-4,.81Zm0,0" transform="translate(0 -0.8)"/><g class="cls-2"><path d="M47.95,84a1.21,1.21,0,0,1-1-.53L35.48,66.54A1.21,1.21,0,0,1,35.63,65l11.46-11.6a1.2,1.2,0,0,1,2.05.84V82.8a1.21,1.21,0,0,1-1.2,1.2ZM38,66l8.72,12.88V57.19Zm0,0" transform="translate(0 -0.8)"/><path d="M3,80.54a1.2,1.2,0,0,1-1.15-.86C-3.48,62,4.33,53.29,4.66,52.92a1.2,1.2,0,0,1,1.77,1.62c-.09.09-7.18,8.2-2.27,24.44a1.2,1.2,0,0,1-.8,1.5,1.22,1.22,0,0,1-.35.05Zm0,0" transform="translate(0 -0.8)"/></g><path d="M39.28,63.47a1.2,1.2,0,0,1-1.12-.77C38,62.32,23.64,25.53,4.28,31.15a1.2,1.2,0,0,1-.67-2.3c9-2.61,18.23,2.35,26.73,14.34A94.82,94.82,0,0,1,40.4,61.84a1.2,1.2,0,0,1-1.12,1.63Zm0,0" transform="translate(0 -0.8)"/><path d="M43.81,59.07A1.2,1.2,0,0,1,42.62,58c0-.41-3.67-41.15-26.36-45.45a1.2,1.2,0,0,1,.45-2.36C26.91,12.1,35,21,40.23,35.91A98.7,98.7,0,0,1,45,57.77a1.2,1.2,0,0,1-1.1,1.29Zm0,0" transform="translate(0 -0.8)"/><path d="M7.81,43.33a1.19,1.19,0,0,1-.51-.11,1.2,1.2,0,0,1-.58-1.6c.11-.23,2.75-5.72,8-7.38,2.94-.93,6.07-.46,9.3,1.38a1.2,1.2,0,0,1-1.19,2.08,9.09,9.09,0,0,0-7.39-1.18c-4.25,1.34-6.51,6.07-6.53,6.11a1.2,1.2,0,0,1-1.09.69Zm0,0" transform="translate(0 -0.8)"/><path d="M4.48,48.4H4.42c-.53,0-3.17-.48-3.51-6.94,0-.15-.68-15.65,10.79-27.68C20,5.1,32.16.72,48,.8a1.2,1.2,0,0,1,0,2.4h-.38c-15,0-26.45,4.11-34.19,12.24C2.67,26.73,3.3,41.19,3.31,41.34,3.51,45.1,4.53,46,4.54,46a1.2,1.2,0,0,1-.06,2.4Zm0,0" transform="translate(0 -0.8)"/><path d="M84.48,57.47a8.13,8.13,0,1,1,8.13-8.13,8.14,8.14,0,0,1-8.13,8.13Zm0-13.86a5.73,5.73,0,1,0,5.73,5.73,5.74,5.74,0,0,0-5.73-5.73Zm0,0" transform="translate(0 -0.8)"/><path d="M62.34,66.72a10.6,10.6,0,0,1-4-.81,1.2,1.2,0,1,1,.91-2.22,8.12,8.12,0,0,0,7-.34C69.81,61.49,72.72,57.24,74,52c2.41-10.09,8.81-11,9.69-11,5.52-.91,9.92,2.65,10.11,2.8a1.2,1.2,0,1,1-1.52,1.86s-3.79-3-8.23-2.28l-.15,0c-.21,0-5.45.45-7.55,9.21-1.42,5.93-4.79,10.76-9,12.93a10.82,10.82,0,0,1-4.95,1.24Zm0,0" transform="translate(0 -0.8)"/><g class="cls-2"><path d="M47.95,84a1.17,1.17,0,0,1-.35-.05,1.2,1.2,0,0,1-.85-1.14V54.27a1.2,1.2,0,0,1,2.05-.84L60.27,65a1.2,1.2,0,0,1,.14,1.51L48.94,83.47a1.2,1.2,0,0,1-1,.53Zm1.2-26.81v21.7L57.86,66Zm0,0" transform="translate(0 -0.8)"/><path d="M92.88,80.54A1.21,1.21,0,0,1,91.73,79c4.95-16.35-2.2-24.36-2.27-24.44a1.2,1.2,0,0,1,1.77-1.63c.33.37,8.14,9.11,2.8,26.76a1.2,1.2,0,0,1-1.15.86Zm0,0" transform="translate(0 -0.8)"/></g><path d="M56.61,63.47a1.22,1.22,0,0,1-.43-.08,1.2,1.2,0,0,1-.69-1.55A94.47,94.47,0,0,1,65.55,43.19c8.5-12,17.75-17,26.73-14.34a1.2,1.2,0,1,1-.67,2.3C72.23,25.52,57.88,62.32,57.73,62.7a1.2,1.2,0,0,1-1.12.77Zm0,0" transform="translate(0 -0.8)"/><path d="M52.08,59.07H52a1.2,1.2,0,0,1-1.1-1.3,98.6,98.6,0,0,1,4.78-21.86C60.85,21,69,12.09,79.19,10.15a1.2,1.2,0,0,1,.45,2.36C56.93,16.82,53.31,57.56,53.27,58a1.2,1.2,0,0,1-1.19,1.1Zm0,0" transform="translate(0 -0.8)"/><path d="M88.08,43.33A1.2,1.2,0,0,1,87,42.65c0-.07-2.33-4.79-6.55-6.12a9.09,9.09,0,0,0-7.37,1.18,1.2,1.2,0,0,1-1.19-2.08c3.23-1.84,6.35-2.31,9.3-1.38,5.24,1.66,7.88,7.14,8,7.38a1.2,1.2,0,0,1-1.09,1.71Zm0,0" transform="translate(0 -0.8)"/><path d="M91.41,48.4a1.2,1.2,0,0,1-.2-2.38c.14-.08,1.16-.81,1.37-4.68,0-.15.64-14.61-10.12-25.91C74.71,7.31,63.21,3.2,48.26,3.2a3.27,3.27,0,0,0-.38,0,1.2,1.2,0,0,1,0-2.4c15.82-.11,28,4.29,36.32,13C95.66,25.81,95,41.31,95,41.46c-.34,6.46-3,6.91-3.51,6.94Zm0,0" transform="translate(0 -0.8)"/></g></g></svg>