<svg xmlns="http://www.w3.org/2000/svg" xmlns:xlink="http://www.w3.org/1999/xlink" viewBox="0 0 90.26 103.27"><defs><style>.cls-1{fill:none;}.cls-2{clip-path:url(#clip-path);}</style><clipPath id="clip-path" transform="translate(0 -0.74)"><rect class="cls-1" y="0.08" width="90.96" height="104.88"/></clipPath></defs><title>Ресурс 77</title><g id="Слой_2" data-name="Слой 2"><g id="Слой_1-2" data-name="Слой 1"><path d="M26.41,60.31a4.53,4.53,0,1,1,4.53-4.53,4.54,4.54,0,0,1-4.53,4.53Zm0-6.67a2.13,2.13,0,1,0,2.13,2.13,2.14,2.14,0,0,0-2.13-2.13Zm0,0" transform="translate(0 -0.74)"/><path d="M38.93,92.14a3.53,3.53,0,1,1,3.53-3.53,3.53,3.53,0,0,1-3.53,3.53Zm0-4.66a1.13,1.13,0,1,0,1.13,1.13,1.13,1.13,0,0,0-1.13-1.12Zm0,0" transform="translate(0 -0.74)"/><path d="M37.39,98.47a7.08,7.08,0,0,1-4.87-2.13c-3.37-3.86-2.85-8.29,1.67-14.38,4.88-6.57,10.9-6.28,11.15-6.26a1.2,1.2,0,0,1-.14,2.39c-.21,0-5-.18-9.08,5.3-4.73,6.38-3.67,9.22-1.82,11.33.21.22,2.51,2.45,5.17.68,1-.67,1.73-1.18,2.29-1.58,1.5-1.07,2.12-1.51,3.6-1.51a1.2,1.2,0,0,1,0,2.4c-.69,0-.77,0-2.21,1.06-.58.41-1.32.94-2.34,1.62a6.06,6.06,0,0,1-3.41,1.08Zm0,0" transform="translate(0 -0.74)"/><path d="M38.75,102.15H38.6c-21-2.43-34-16.72-34-37.29A56.13,56.13,0,0,1,15.71,31.37c7.65-10,18.05-15.53,29.29-15.53a1.2,1.2,0,0,1,0,2.4c-22.72,0-38,24.1-38,46.61C7,84.4,18.94,97.45,38.88,99.76a1.2,1.2,0,0,1-.14,2.39Zm0,0" transform="translate(0 -0.74)"/><path d="M51.61,92.14a3.53,3.53,0,1,1,3.53-3.53,3.53,3.53,0,0,1-3.53,3.53Zm0-4.66a1.13,1.13,0,1,0,1.13,1.13,1.13,1.13,0,0,0-1.13-1.12Zm0,0" transform="translate(0 -0.74)"/><path d="M53.14,98.47a6.06,6.06,0,0,1-3.4-1.08c-1-.68-1.77-1.22-2.35-1.62-1.43-1-1.52-1.06-2.2-1.06a1.2,1.2,0,1,1,0-2.4c1.48,0,2.1.44,3.59,1.51.56.4,1.28.92,2.28,1.59,2.74,1.82,5.11-.61,5.21-.71,1.82-2.08,2.87-4.92-1.86-11.3-4.11-5.54-9-5.3-9.07-5.29a1.2,1.2,0,1,1-.15-2.39c.25,0,6.27-.31,11.15,6.26,4.52,6.09,5.05,10.52,1.71,14.34a7.12,7.12,0,0,1-4.91,2.17Zm0,0" transform="translate(0 -0.74)"/><path d="M33.79,56.9a1.22,1.22,0,0,1-.36-.05c-.33-.11-8.21-2.62-11.5-8.78a1.2,1.2,0,0,1,2.12-1.13c2.82,5.28,10,7.6,10.1,7.62a1.2,1.2,0,0,1-.36,2.34Zm0,0" transform="translate(0 -0.74)"/><g class="cls-2"><path d="M45.19,104c-8.54,0-9.39-6.43-9.4-6.5a1.2,1.2,0,0,1,2.38-.29c0,.2.69,4.39,7,4.39a1.2,1.2,0,0,1,0,2.4Zm0,0" transform="translate(0 -0.74)"/><path d="M12.6,38l-.25,0A13.56,13.56,0,0,1,3.2,31.4C-2,22.64.49,8.71,1.45,5.46c.8-2.74,1.95-4.25,3.5-4.63,1.39-.34,2.89.29,4.46,1.89.89.76,11.42,10,14.21,21.73A1.2,1.2,0,1,1,21.3,25C18.62,13.81,7.93,4.61,7.82,4.51l-.08-.08C6.82,3.5,6,3,5.53,3.16c-.23.06-1,.44-1.78,3C2.91,9,.54,22.24,5.26,30.17a11.26,11.26,0,0,0,7.58,5.46A1.2,1.2,0,0,1,12.6,38Zm0,0" transform="translate(0 -0.74)"/></g><path d="M19.66,28.73a1.2,1.2,0,0,1-1.16-.91C15.48,15.51,2,9.76,1.87,9.71a1.2,1.2,0,0,1,.92-2.21c.6.25,14.73,6.25,18,19.75a1.21,1.21,0,0,1-.88,1.45,1.23,1.23,0,0,1-.29,0Zm0,0" transform="translate(0 -0.74)"/><path d="M37.13,101.34h-.19c-.39-.06-9.56-1.63-13.51-8.28-2.11-3.57-2.3-7.87-.57-12.78.14-.38,3.36-9,11.74-11.87a1.2,1.2,0,0,1,1.18,2c-.07.07-7.46,6.67-5.86,14.07a4.65,4.65,0,0,0,2.19,3,1.2,1.2,0,1,1-1,2.16,7,7,0,0,1-3.5-4.7,15,15,0,0,1,2.07-10.67,20.78,20.78,0,0,0-4.52,6.77c-1.48,4.2-1.36,7.82.38,10.75,3.38,5.7,11.74,7.12,11.82,7.14a1.2,1.2,0,0,1-.19,2.38Zm0,0" transform="translate(0 -0.74)"/><path d="M63.85,60.31a4.53,4.53,0,1,1,4.53-4.53,4.54,4.54,0,0,1-4.53,4.53Zm0-6.67A2.13,2.13,0,1,0,66,55.77a2.14,2.14,0,0,0-2.13-2.13Zm0,0" transform="translate(0 -0.74)"/><path d="M51.51,102.15a1.2,1.2,0,0,1-.14-2.39C71.19,97.47,83,84.42,83,64.86a53.94,53.94,0,0,0-10.49-32c-7.13-9.4-16.82-14.58-27.28-14.58a1.2,1.2,0,0,1,0-2.4c11.23,0,21.6,5.52,29.19,15.53a56.38,56.38,0,0,1,11,33.48c0,20.9-12.63,34.84-33.78,37.29Zm0,0" transform="translate(0 -0.74)"/><path d="M56.46,56.9a1.2,1.2,0,0,1-.36-2.34c.07,0,7.28-2.34,10.1-7.62a1.2,1.2,0,0,1,2.12,1.13c-3.3,6.16-11.17,8.68-11.5,8.78a1.2,1.2,0,0,1-.36.05Zm0,0" transform="translate(0 -0.74)"/><g class="cls-2"><path d="M45.07,104a1.2,1.2,0,0,1,0-2.4c6.34,0,7-4.21,7-4.39a1.2,1.2,0,0,1,2.38.29c0,.06-.86,6.5-9.4,6.5Zm0,0" transform="translate(0 -0.74)"/><path d="M77.66,38a1.2,1.2,0,0,1-.25-2.37A11.26,11.26,0,0,0,85,30.17c4.73-7.93,2.36-21.18,1.52-24-.75-2.54-1.55-2.93-1.78-3-.5-.12-1.3.34-2.21,1.28l-.08.08C82.33,4.6,71.64,13.81,69,25a1.2,1.2,0,1,1-2.33-.55C69.43,12.73,80,3.48,80.84,2.72,82.41,1.12,83.91.48,85.31.83c1.55.39,2.7,1.9,3.5,4.64,1,3.25,3.46,17.18-1.76,25.93A13.56,13.56,0,0,1,77.91,38l-.25,0Zm0,0" transform="translate(0 -0.74)"/></g><path d="M70.59,28.73a1.22,1.22,0,0,1-.29,0,1.2,1.2,0,0,1-.88-1.45c3.3-13.5,17.44-19.51,18-19.75a1.2,1.2,0,1,1,.92,2.21c-.14.05-13.62,5.8-16.63,18.11a1.2,1.2,0,0,1-1.17.91Zm0,0" transform="translate(0 -0.74)"/><path d="M53.13,101.34a1.2,1.2,0,0,1-.2-2.39c.09,0,8.47-1.45,11.83-7.15,1.73-2.92,1.85-6.54.36-10.75a20.87,20.87,0,0,0-4.51-6.75A15,15,0,0,1,62.68,85a7,7,0,0,1-3.5,4.67,1.2,1.2,0,1,1-1-2.16,4.65,4.65,0,0,0,2.19-3c1.6-7.43-5.79-14-5.86-14.1a1.2,1.2,0,0,1,1.18-2C64,71.28,67.25,79.89,67.39,80.26c1.74,4.93,1.55,9.23-.56,12.79-3.94,6.66-13.12,8.22-13.5,8.28Zm0,0" transform="translate(0 -0.74)"/></g></g></svg>