<svg xmlns="http://www.w3.org/2000/svg" xmlns:xlink="http://www.w3.org/1999/xlink" viewBox="0 0 139.8 102.09"><defs><style>.cls-1{fill:none;}.cls-2{clip-path:url(#clip-path);}</style><clipPath id="clip-path" transform="translate(0 -0.91)"><rect class="cls-1" y="0.04" width="139.92" height="103.92"/></clipPath></defs><title>Ресурс 76</title><g id="Слой_2" data-name="Слой 2"><g id="Слой_1-2" data-name="Слой 1"><path d="M53.67,88.94a1.2,1.2,0,0,1-.94-.45C45.48,79.4,43.45,67,43.36,66.43c-1.82-8.91.33-22.57.42-23.15a1.2,1.2,0,1,1,2.37.38c0,.14-2.17,13.8-.43,22.34,0,.17,2,12.41,8.89,21a1.2,1.2,0,0,1-.94,1.95Zm0,0" transform="translate(0 -0.91)"/><path d="M50.12,57.32l-.23,0a1.2,1.2,0,0,1-.95-1.41A4.08,4.08,0,0,0,47,51.57a1.2,1.2,0,0,1,1.16-2.11,6.47,6.47,0,0,1,3.1,6.89,1.2,1.2,0,0,1-1.18,1Zm0,0" transform="translate(0 -0.91)"/><path d="M46.65,56.19a3.55,3.55,0,1,1,3.55-3.55,3.55,3.55,0,0,1-3.55,3.55Zm0-4.7a1.15,1.15,0,1,0,1.15,1.15,1.15,1.15,0,0,0-1.15-1.15Zm0,0" transform="translate(0 -0.91)"/><path d="M63.16,76a1.2,1.2,0,0,1-.85-.35c-5.74-5.75-4.47-13.39-4.41-13.71a1.2,1.2,0,0,1,2.36.42c0,.07-1.09,6.75,3.75,11.59A1.2,1.2,0,0,1,63.16,76Zm0,0" transform="translate(0 -0.91)"/><path d="M59.73,95.9a3.73,3.73,0,1,1,3.73-3.73,3.74,3.74,0,0,1-3.73,3.73Zm0-5.06a1.33,1.33,0,1,0,1.33,1.33,1.33,1.33,0,0,0-1.33-1.33Zm0,0" transform="translate(0 -0.91)"/><path d="M59.7,100.82a6,6,0,0,1-.7,0c-4.12-.05-7.71-4-7.71-8.52A7.79,7.79,0,0,1,63.45,85.8a1.2,1.2,0,1,1-1.34,2,5.4,5.4,0,0,0-8.41,4.48c0,2.89,2.31,6.12,5.4,6.12l.21,0a5,5,0,0,0,3.58-1.08c2.41-1.83,3.76-1.8,4.48-1.79h.12a1.2,1.2,0,0,1,0,2.4h-.18c-.46,0-1.23,0-3,1.3a7.67,7.67,0,0,1-4.63,1.59Zm0,0" transform="translate(0 -0.91)"/><path d="M67.5,103H65.69a5.67,5.67,0,0,1-5.3-2.88,1.2,1.2,0,0,1,2.16-1,3.37,3.37,0,0,0,3.14,1.52H67.5a1.2,1.2,0,0,1,0,2.4Zm0,0" transform="translate(0 -0.91)"/><path d="M69.48,103H67.68a1.2,1.2,0,0,1,0-2.4h1.81a3.36,3.36,0,0,0,3.14-1.52,1.21,1.21,0,0,1,1.6-.54,1.19,1.19,0,0,1,.57,1.58A5.68,5.68,0,0,1,69.48,103Zm0,0" transform="translate(0 -0.91)"/><path d="M29.54,67.06A65.82,65.82,0,0,1,21,66.45l-.24,0a2.25,2.25,0,0,1-2.08-2.2,1.2,1.2,0,0,1,.09-.47,36.54,36.54,0,0,1,4.09-7.22c8.49-11.58,21-13.41,21.64-13.21l-.37,1.14.15,1.19a31.67,31.67,0,0,0-19.48,12.3,33.66,33.66,0,0,0-3.55,6.12h.05c4.19.55,18.11,1.91,21.47-3.68a1.2,1.2,0,0,1,2.05,1.24c-1.34,2.22-5,5.44-15.28,5.44Zm0,0" transform="translate(0 -0.91)"/><g class="cls-2"><path d="M33,62.85l-.62,0A14.18,14.18,0,0,1,22.89,58a1.2,1.2,0,1,1,1.86-1.52,11.91,11.91,0,0,0,7.81,4c3.37.16,6.8-1.48,10.21-4.87a1.2,1.2,0,0,1,1.7,1.7C40.76,61,36.91,62.85,33,62.85Zm0,0" transform="translate(0 -0.91)"/><path d="M26.89,46.85c-19.59,0-24.95-15.11-25-15.27C-.7,24.19-.62,17.65,2.12,12.15,6.25,3.89,14.87,1.08,15.24,1a1.2,1.2,0,0,1,1.25,2C6.16,14.19,10.56,23.15,10.6,23.24c1.83,3.67,5.13,8.35,10.48,9.91,4.33,1.26,9.32.22,14.84-3.09,12.27-7.36,15-9.63,15-9.65l.14-.11c4.17-2.62,8.11-3.41,11.71-2.36,5.52,1.62,8.11,7,8.21,7.24a1.19,1.19,0,0,1,.11.51V39.51a1.2,1.2,0,0,1-1.83,1c-9.15-5.65-13.83-3.38-20.7.79s-16.29,5.19-16.68,5.22a42.08,42.08,0,0,1-5,.31ZM11.34,5.58a19.91,19.91,0,0,0-7.08,7.67C1.82,18.14,1.78,24,4.16,30.8c.23.66,5.75,16,27.47,13.35.12,0,9.16-.93,15.69-4.89,7-4.24,12.4-6.7,21.38-1.84V26c-.51-.93-2.71-4.61-6.62-5.74-2.89-.84-6.14-.15-9.67,2-.52.43-3.7,2.89-15.25,9.82C31,35.78,25.41,36.9,20.41,35.45c-6.18-1.8-9.91-7-12-11.12C8.27,24,4.37,16,11.34,5.58Zm0,0" transform="translate(0 -0.91)"/></g><path d="M86.12,88.94a1.17,1.17,0,0,1-.75-.26A1.19,1.19,0,0,1,85.19,87c6.86-8.6,8.86-20.82,8.88-20.94,1.75-8.59-.4-22.26-.42-22.39A1.2,1.2,0,1,1,96,43.28c.09.58,2.24,14.23.41,23.2-.07.48-2.11,12.93-9.36,22a1.19,1.19,0,0,1-.94.45Zm0,0" transform="translate(0 -0.91)"/><path d="M89.67,57.32a1.2,1.2,0,0,1-1.18-1,6.46,6.46,0,0,1,3.1-6.88,1.2,1.2,0,0,1,1.16,2.1,4.09,4.09,0,0,0-1.9,4.32,1.2,1.2,0,0,1-.95,1.41l-.23,0Zm0,0" transform="translate(0 -0.91)"/><path d="M93.14,56.19a3.55,3.55,0,1,1,3.55-3.55,3.56,3.56,0,0,1-3.55,3.55Zm0-4.7a1.15,1.15,0,1,0,1.15,1.15,1.15,1.15,0,0,0-1.15-1.15Zm0,0" transform="translate(0 -0.91)"/><path d="M76.64,76A1.2,1.2,0,0,1,75.79,74c4.87-4.87,3.76-11.52,3.75-11.59a1.2,1.2,0,0,1,2.36-.42c.05.32,1.33,8-4.41,13.71a1.2,1.2,0,0,1-.85.35Zm0,0" transform="translate(0 -0.91)"/><path d="M80.07,95.9a3.73,3.73,0,1,1,3.73-3.73,3.74,3.74,0,0,1-3.73,3.73Zm0-5.06a1.33,1.33,0,1,0,1.33,1.33,1.33,1.33,0,0,0-1.33-1.33Zm0,0" transform="translate(0 -0.91)"/><path d="M80.09,100.82a7.67,7.67,0,0,1-4.63-1.59c-1.74-1.32-2.52-1.31-3-1.3H72.3a1.2,1.2,0,0,1,0-2.4h.13c.73,0,2.07,0,4.49,1.79a5.06,5.06,0,0,0,3.58,1.08l.21,0c3.09,0,5.4-3.23,5.4-6.12a5.4,5.4,0,0,0-8.41-4.48,1.2,1.2,0,0,1-1.34-2A7.79,7.79,0,0,1,88.5,92.26c0,4.51-3.59,8.47-7.71,8.52a5.26,5.26,0,0,1-.7,0Zm0,0" transform="translate(0 -0.91)"/><path d="M74.11,103H72.3a1.2,1.2,0,0,1,0-2.4h1.81a3.36,3.36,0,0,0,3.14-1.52,1.21,1.21,0,0,1,1.6-.54,1.19,1.19,0,0,1,.56,1.58,5.67,5.67,0,0,1-5.3,2.88Zm0,0" transform="translate(0 -0.91)"/><path d="M72.12,103H70.31a5.68,5.68,0,0,1-5.3-2.88,1.2,1.2,0,0,1,2.17-1,3.36,3.36,0,0,0,3.14,1.52h1.81a1.2,1.2,0,0,1,0,2.4Zm0,0" transform="translate(0 -0.91)"/><path d="M110.26,67.06C100,67.06,96.31,63.85,95,61.63A1.2,1.2,0,0,1,97,60.39c2.27,3.77,10.3,5.15,21.47,3.68h.05A33.72,33.72,0,0,0,115,57.94a31.67,31.67,0,0,0-19.49-12.3l.15-1.19h0l-.37-1.14c.64-.2,13.15,1.64,21.64,13.21A36.29,36.29,0,0,1,121,63.75a1.21,1.21,0,0,1,.09.47,2.24,2.24,0,0,1-2.08,2.2l-.24,0a65.71,65.71,0,0,1-8.55.61Zm0,0" transform="translate(0 -0.91)"/><g class="cls-2"><path d="M106.76,62.85c-3.88,0-7.72-1.87-11.43-5.59A1.2,1.2,0,0,1,97,55.56c3.41,3.41,6.86,5,10.24,4.88a11.83,11.83,0,0,0,7.78-4A1.2,1.2,0,0,1,116.91,58a14.21,14.21,0,0,1-9.53,4.84Zm0,0" transform="translate(0 -0.91)"/><path d="M112.89,46.85a42.21,42.21,0,0,1-5-.31c-.36,0-9.65-1-16.65-5.22s-11.55-6.44-20.7-.79a1.2,1.2,0,0,1-1.83-1V25.69a1.22,1.22,0,0,1,.11-.51c.11-.23,2.69-5.62,8.21-7.24,3.6-1.06,7.54-.26,11.7,2.36l.15.11s2.72,2.29,15,9.65c5.52,3.31,10.51,4.35,14.84,3.09,5.35-1.56,8.65-6.24,10.48-9.89.18-.37,4.38-9.13-5.87-20.33a1.2,1.2,0,0,1,1.25-2c.36.12,9,2.93,13.11,11.18,2.75,5.5,2.83,12,.23,19.44-.05.16-5.41,15.25-25,15.25ZM80.27,34.75c4.26,0,7.94,1.93,12.21,4.52,6.54,4,15.57,4.88,15.66,4.88,21.76,2.6,27.27-12.69,27.5-13.34C138,24,138,18.12,135.53,13.23a19.81,19.81,0,0,0-7.08-7.66c7,10.45,3.07,18.39,2.88,18.76-2,4.07-5.77,9.32-11.95,11.12-5,1.45-10.63.33-16.74-3.34-11.56-6.93-14.73-9.39-15.25-9.82-3.54-2.2-6.79-2.89-9.68-2C73.77,21.4,71.6,25,71.1,26V37.43a19.16,19.16,0,0,1,9.17-2.68Zm0,0" transform="translate(0 -0.91)"/></g></g></g></svg>