<svg xmlns="http://www.w3.org/2000/svg" xmlns:xlink="http://www.w3.org/1999/xlink" viewBox="0 0 104.86 81.69"><defs><style>.cls-1{fill:none;}.cls-2{clip-path:url(#clip-path);}</style><clipPath id="clip-path" transform="translate(0 -0.31)"><rect class="cls-1" y="0.16" width="104.88" height="82.8"/></clipPath></defs><title>Ресурс 74</title><g id="Слой_2" data-name="Слой 2"><g id="Слой_1-2" data-name="Слой 1"><path d="M37,66.44A1.2,1.2,0,0,1,36.1,66c-7.87-9.87-10.18-23.33-10.34-24.32a54.91,54.91,0,0,1-1.09-11.25c0-8.37,2.11-15.25,6-19.88A29.34,29.34,0,0,1,52.54.31a1.2,1.2,0,0,1,0,2.4c-12.54,0-20,9.25-20,9.34C23.94,22.31,28.07,41,28.11,41.18S30.38,55,38,64.49A1.2,1.2,0,0,1,37,66.44Zm0,0" transform="translate(0 -0.31)"/><path d="M67.77,66.44a1.2,1.2,0,0,1-.94-1.95c7.6-9.52,9.83-23.1,9.85-23.24s4.17-19-4.37-29.18c-.1-.12-7.55-9.37-20-9.37a1.2,1.2,0,0,1,0-2.4A29.34,29.34,0,0,1,74.18,10.57C78,15.17,80.1,22,80.14,30.42a55.23,55.23,0,0,1-1.09,11.25c-.16,1-2.47,14.45-10.34,24.32a1.18,1.18,0,0,1-.94.45Zm0,0" transform="translate(0 -0.31)"/><path d="M33.11,38.16l-.23,0a1.2,1.2,0,0,1-.95-1.41,4.65,4.65,0,0,0-2.16-4.91,1.2,1.2,0,1,1,1.15-2.11,7,7,0,0,1,3.37,7.48,1.2,1.2,0,0,1-1.18,1Zm0,0" transform="translate(0 -0.31)"/><g class="cls-2"><path d="M29.27,36.91a3.8,3.8,0,1,1,3.8-3.8,3.81,3.81,0,0,1-3.8,3.8Zm0-5.2a1.4,1.4,0,1,0,1.4,1.4,1.4,1.4,0,0,0-1.4-1.4Zm0,0" transform="translate(0 -0.31)"/><path d="M38.27,65.61a1.19,1.19,0,0,1-.68-.22,1.2,1.2,0,0,1-.3-1.67c6.08-8.74,5.2-20.2,5.19-20.31C42.09,25.83,26.41,20.32,25.74,20.1c-.16-.06-13.05-4.62-22,2.38-.09.07-1.66,1.27-1.24,2.9a1.23,1.23,0,0,1,0,.16c0,.17.71,4.46,7.12,5.14l.13,0A16,16,0,0,0,25,24.88a1.2,1.2,0,0,1,1.87,1.5A18.35,18.35,0,0,1,9.32,33.06C2.75,32.34.45,28.11.14,25.91c-.77-3.17,2-5.25,2.13-5.34,10-7.8,23.68-2.95,24.26-2.73.15.05,17.93,6.23,18.34,25.45,0,.43,1,12.37-5.61,21.81a1.19,1.19,0,0,1-1,.52Zm0,0" transform="translate(0 -0.31)"/><path d="M12.53,29.86a6.83,6.83,0,0,1-3-.54A4.31,4.31,0,0,1,7,26.43a3.83,3.83,0,0,1,.82-3c.49-.54,4.94-4.93,18.14-2.95a1.2,1.2,0,0,1,1,1.36.92.92,0,0,1,0,.15,1.21,1.21,0,0,1,.3.3A1.2,1.2,0,0,1,27,23.93C20,28.82,15.3,29.86,12.53,29.86ZM9.63,25a1.45,1.45,0,0,0-.27,1c.12.52.76.95,1.28,1.21,0,0,4.41,1.85,13.89-4.5-4-.45-12.18-.68-14.91,2.3Zm0,0" transform="translate(0 -0.31)"/><path d="M66.6,65.61a1.2,1.2,0,0,1-1-.52C59,55.65,60,43.71,60,43.21c.41-19.15,18.18-25.33,18.36-25.39.55-.2,14.24-5.06,24.26,2.77.09.07,2.88,2.14,2.1,5.32-.31,2.21-2.61,6.43-9.18,7.15A18.34,18.34,0,0,1,78,26.38a1.2,1.2,0,0,1,1.87-1.5A16.14,16.14,0,0,0,95.1,30.7l.13,0c6.41-.68,7.1-5,7.12-5.16a.87.87,0,0,1,0-.14,3,3,0,0,0-1.21-2.87c-9-7-21.9-2.47-22-2.42-.7.23-16.39,5.74-16.76,23.25,0,.19-.88,11.67,5.19,20.39a1.2,1.2,0,0,1-1,1.89Zm0,0" transform="translate(0 -0.31)"/></g><path d="M92.33,29.86c-2.77,0-7.5-1-14.43-5.93a1.2,1.2,0,0,1-.29-1.67,1.21,1.21,0,0,1,.3-.3c0-.05,0-.1,0-.15a1.2,1.2,0,0,1,1-1.36c13.21-2,17.65,2.41,18.12,2.92a3.81,3.81,0,0,1,.84,3.07,4.3,4.3,0,0,1-2.56,2.89,6.75,6.75,0,0,1-3,.54Zm-12-7.18C89.8,29,94.19,27.18,94.24,27.17c.5-.25,1.15-.68,1.26-1.21a1.46,1.46,0,0,0-.29-1c-2.71-3-10.85-2.72-14.89-2.27Zm0,0" transform="translate(0 -0.31)"/><path d="M41.4,15.54a3.56,3.56,0,0,1-3.4-3.7,1.2,1.2,0,1,1,2.4,0,1,1,0,1,0,2,0,1.2,1.2,0,1,1,2.4,0,3.57,3.57,0,0,1-3.4,3.7Zm0,0" transform="translate(0 -0.31)"/><path d="M50.18,14.63a3.57,3.57,0,0,1-3.4-3.7,1.2,1.2,0,0,1,2.4,0,1,1,0,1,0,2,0,1.2,1.2,0,1,1,2.4,0,3.56,3.56,0,0,1-3.4,3.7Zm0,0" transform="translate(0 -0.31)"/><path d="M43.6,12.57a1.2,1.2,0,0,1-1.2-1.09,3.86,3.86,0,0,1,.71-2.63,3.29,3.29,0,0,1,2.34-1.36A3.25,3.25,0,0,1,48,8.4a3.88,3.88,0,0,1,1.17,2.47,1.2,1.2,0,1,1-2.39.21,1.48,1.48,0,0,0-.43-.94.89.89,0,0,0-.68-.27.91.91,0,0,0-.62.38,1.48,1.48,0,0,0-.25,1,1.2,1.2,0,0,1-1.09,1.3Zm0,0" transform="translate(0 -0.31)"/><path d="M43.74,74.14a4,4,0,1,1,4-4,4,4,0,0,1-4,4Zm0-5.6a1.6,1.6,0,1,0,1.6,1.6,1.6,1.6,0,0,0-1.6-1.6Zm0,0" transform="translate(0 -0.31)"/><path d="M43.72,79.59a6.14,6.14,0,0,1-.77,0c-4.49-.06-8.41-4.38-8.41-9.3a8.5,8.5,0,0,1,13.25-7.05,1.2,1.2,0,0,1-1.34,2,6.1,6.1,0,0,0-9.51,5.06c0,3.26,2.61,6.9,6.1,6.9l.21,0a5.69,5.69,0,0,0,4.06-1.22c2.63-2,4.09-2,4.89-1.95h.14a1.2,1.2,0,1,1,0,2.4h-.19c-.52,0-1.41,0-3.37,1.46a8.36,8.36,0,0,1-5,1.74Zm0,0" transform="translate(0 -0.31)"/><path d="M52.34,82h-2a6.16,6.16,0,0,1-5.75-3.12,1.2,1.2,0,0,1,2.17-1,3.85,3.85,0,0,0,3.59,1.74h2a1.2,1.2,0,0,1,0,2.4Zm0,0" transform="translate(0 -0.31)"/><path d="M71.76,38.16a1.2,1.2,0,0,1-1.18-1A7,7,0,0,1,74,29.71a1.2,1.2,0,0,1,1.15,2.11,4.65,4.65,0,0,0-2.17,4.92A1.2,1.2,0,0,1,72,38.14l-.23,0Zm0,0" transform="translate(0 -0.31)"/><path d="M75.6,36.91a3.8,3.8,0,1,1,3.8-3.8,3.8,3.8,0,0,1-3.8,3.8Zm0-5.2a1.4,1.4,0,1,0,1.4,1.4,1.4,1.4,0,0,0-1.4-1.4Zm0,0" transform="translate(0 -0.31)"/><path d="M63.47,15.54a3.57,3.57,0,0,1-3.4-3.7,1.2,1.2,0,1,1,2.4,0,1,1,0,1,0,2,0,1.2,1.2,0,1,1,2.4,0,3.56,3.56,0,0,1-3.4,3.7Zm0,0" transform="translate(0 -0.31)"/><path d="M54.7,14.63a3.56,3.56,0,0,1-3.4-3.7,1.2,1.2,0,1,1,2.4,0,1,1,0,1,0,2,0,1.2,1.2,0,0,1,2.4,0,3.56,3.56,0,0,1-3.4,3.7Zm0,0" transform="translate(0 -0.31)"/><path d="M61.27,12.57h-.11a1.2,1.2,0,0,1-1.09-1.3,1.51,1.51,0,0,0-.26-1,.82.82,0,0,0-1.3-.12,1.49,1.49,0,0,0-.43.94,1.2,1.2,0,0,1-2.39-.22A3.86,3.86,0,0,1,56.87,8.4a3.22,3.22,0,0,1,4.89.45,3.85,3.85,0,0,1,.71,2.64,1.2,1.2,0,0,1-1.19,1.09Zm0,0" transform="translate(0 -0.31)"/><path d="M61.14,74.14a4,4,0,1,1,4-4,4,4,0,0,1-4,4Zm0-5.6a1.6,1.6,0,1,0,1.6,1.6,1.6,1.6,0,0,0-1.6-1.6Zm0,0" transform="translate(0 -0.31)"/><path d="M61.16,79.59a8.34,8.34,0,0,1-5-1.74c-2-1.49-2.85-1.47-3.38-1.46h-.19a1.2,1.2,0,1,1,0-2.4h.14c.79,0,2.25-.05,4.88,1.95a5.7,5.7,0,0,0,4.07,1.22l.2,0c3.49,0,6.1-3.64,6.1-6.9a6.11,6.11,0,0,0-9.51-5.06,1.2,1.2,0,1,1-1.34-2,8.5,8.5,0,0,1,13.25,7.05c0,4.92-3.92,9.24-8.41,9.3a6.14,6.14,0,0,1-.77,0Zm0,0" transform="translate(0 -0.31)"/><path d="M54.53,82h-2a1.2,1.2,0,0,1,0-2.4h2a3.87,3.87,0,0,0,3.58-1.73,1.2,1.2,0,1,1,2.17,1A6.15,6.15,0,0,1,54.53,82Zm0,0" transform="translate(0 -0.31)"/></g></g></svg>