<svg xmlns="http://www.w3.org/2000/svg" xmlns:xlink="http://www.w3.org/1999/xlink" viewBox="0 0 91.51 96.54"><defs><style>.cls-1{fill:none;}.cls-2{clip-path:url(#clip-path);}</style><clipPath id="clip-path" transform="translate(0 -0.46)"><rect class="cls-1" y="0.04" width="91.92" height="97.92"/></clipPath></defs><title>Ресурс 73</title><g id="Слой_2" data-name="Слой 2"><g id="Слой_1-2" data-name="Слой 1"><g class="cls-2"><path d="M23.54,73.18a1.2,1.2,0,0,1-.73-.25c-9.68-7.39-9.41-21-9-23.7a10.32,10.32,0,0,1-5.9-6.15c-1.64-5.78.65-9.39,2.32-10.72C6.64,28.22,2.32,18.29.56,11.57c-2-7.73,2-10,2.2-10.06C5.06.16,8.86-.57,13.65,3.74a26.62,26.62,0,0,1,4.5,5.41c1.19,2.14,1.95,2.57,2.18,2.66A33.35,33.35,0,0,1,45.52.67h0a1.2,1.2,0,0,1,0,2.4h0A31,31,0,0,0,22,13.58a2.19,2.19,0,0,1-1.88.63c-1.36-.18-2.67-1.44-4-3.86C16,10.28,9.83.15,3.93,3.6c-.12.07-2.55,1.59-1,7.36,1.75,6.69,6.18,16.75,9.5,20.2l.1.12a2,2,0,0,1,.35,1.49,2,2,0,0,1-1,1.36s-3.33,2.37-1.67,8.27a7.81,7.81,0,0,0,5.21,4.83,1.2,1.2,0,0,1,.9,1.16,4,4,0,0,1-.17,1.26C16.05,50.67,15,64,24.27,71a1.2,1.2,0,0,1-.73,2.16Zm0,0" transform="translate(0 -0.46)"/></g><path d="M48.9,91.22a4.66,4.66,0,0,1-1.71-.3,3.71,3.71,0,0,1-1.43-1,3.78,3.78,0,0,1-1.43,1c-4.86,1.92-14.68-6.06-15.79-7-5.65-4.1-5.83-9.1-5.84-9.31.12-16.52,3.7-28.29,10.66-35,5.69-5.51,11.52-5.42,11.77-5.41h1.28c.23,0,6-.09,11.73,5.41,7,6.73,10.55,18.5,10.66,35,0,.25-.18,5.25-5.9,9.39-.93.78-8.87,7.23-14,7.23ZM45.09,36.6c-.3,0-5.28.08-10.12,4.8-6.34,6.19-9.76,17.68-9.86,33.21,0,.12.2,4,4.91,7.44,3.81,3.16,10.76,7.7,13.43,6.64.22-.09.88-.35,1.08-1.85V61.13c0-3-5.21-3.68-6.8-3.82a5.34,5.34,0,0,1-3.9-1.73,3,3,0,0,1-.66-2.1,3.3,3.3,0,0,1,1.12-2.55,5.44,5.44,0,0,1,4-.93,9,9,0,0,1,7.48,5.19A9.08,9.08,0,0,1,53.28,50a5.43,5.43,0,0,1,3.95.93,3.3,3.3,0,0,1,1.12,2.55,3,3,0,0,1-.66,2.1,5.33,5.33,0,0,1-3.9,1.73c-1.59.14-6.8.85-6.8,3.83V86.84c.21,1.5.87,1.76,1.09,1.85,2.53,1,9.34-3.25,13.37-6.6,4.76-3.46,5-7.36,5-7.53C66.3,59,62.87,47.51,56.48,41.34c-5-4.82-10-4.73-10-4.74H45.09Zm9,15.75a3.41,3.41,0,0,0-.5,0,6.74,6.74,0,0,0-5.75,4,15.58,15.58,0,0,1,5.74-1.48c1.92-.18,2.4-.86,2.38-1.24a.76.76,0,0,1,0-.13.94.94,0,0,0-.29-.8,2.64,2.64,0,0,0-1.58-.4Zm-16.66,0a2.61,2.61,0,0,0-1.58.4,1,1,0,0,0-.29.8.93.93,0,0,1,0,.18c0,.32.47,1,2.39,1.18a15.63,15.63,0,0,1,5.73,1.47,6.71,6.71,0,0,0-5.69-4,4.38,4.38,0,0,0-.55,0Zm0,0" transform="translate(0 -0.46)"/><g class="cls-2"><path d="M18.59,44.67a4.27,4.27,0,1,1,4.27-4.27,4.27,4.27,0,0,1-4.27,4.27Zm0-6.13a1.87,1.87,0,1,0,1.87,1.87,1.87,1.87,0,0,0-1.87-1.87Zm0,0" transform="translate(0 -0.46)"/><path d="M67.94,73.22a1.2,1.2,0,0,1-.73-2.16c9.27-7,8.25-20.37,8.15-21.4a4,4,0,0,1-.17-1.26,1.2,1.2,0,0,1,.9-1.16,7.84,7.84,0,0,0,5.22-4.86c1.66-5.86-1.64-8.21-1.68-8.24a2,2,0,0,1-1-1.36A2,2,0,0,1,79,31.29l.1-.12c3.32-3.45,7.76-13.51,9.5-20.2,1.51-5.76-.92-7.29-1-7.35C81.69.15,75.48,10.28,75.42,10.39c-1.32,2.37-2.63,3.64-4,3.82a2.17,2.17,0,0,1-1.84-.57A31,31,0,0,0,46,3.07h0a1.2,1.2,0,0,1,0-2.4h0A33.39,33.39,0,0,1,71.18,11.81c.23-.09,1-.52,2.16-2.62a26.48,26.48,0,0,1,4.52-5.45C82.66-.57,86.46.16,88.8,1.53c.13.07,4.17,2.31,2.16,10-1.76,6.73-6.07,16.66-9.68,20.8,1.69,1.36,4,5,2.33,10.69a10.34,10.34,0,0,1-5.91,6.18c.41,2.73.68,16.35-9,23.73a1.16,1.16,0,0,1-.72.25Zm0,0" transform="translate(0 -0.46)"/></g><path d="M72.93,44.67a4.27,4.27,0,1,1,4.26-4.27,4.27,4.27,0,0,1-4.26,4.27Zm0-6.13a1.87,1.87,0,1,0,1.87,1.87,1.87,1.87,0,0,0-1.87-1.87Zm0,0" transform="translate(0 -0.46)"/><path d="M46.28,97H45c-7.87,0-12.66-9.83-12.86-10.24a1.2,1.2,0,0,1,2.16-1c0,.09,4.33,8.88,10.69,8.88h1.32c6.36,0,10.65-8.79,10.69-8.87a1.2,1.2,0,0,1,2.16,1c-.2.42-5,10.24-12.86,10.24Zm0,0" transform="translate(0 -0.46)"/></g></g></svg>