<svg xmlns="http://www.w3.org/2000/svg" xmlns:xlink="http://www.w3.org/1999/xlink" viewBox="0 0 107.06 102.8"><defs><style>.cls-1{fill:none;}.cls-2{clip-path:url(#clip-path);}</style><clipPath id="clip-path" transform="translate(0 -0.2)"><rect class="cls-1" y="0.04" width="107.76" height="103.92"/></clipPath></defs><title>Ресурс 63</title><g id="Слой_2" data-name="Слой 2"><g id="Слой_1-2" data-name="Слой 1"><path d="M53.66,103A14.92,14.92,0,0,1,45,100.31c-6.41-3.46-18.89-15.44-27.32-26.24a21.78,21.78,0,0,1-3.43-21.14l0-.08C22,38,32.21,31.18,39.44,28.12A35.69,35.69,0,0,1,53.61,25a1.2,1.2,0,1,1-.1,2.4c-.29,0-23.09-.55-37.06,26.51a19.38,19.38,0,0,0,3.12,18.69C27.73,83,40.19,95,46.23,98.24a1,1,0,0,1,.19.13,12.59,12.59,0,0,0,7.25,2.23,1.2,1.2,0,0,1,0,2.4Zm0,0" transform="translate(0 -0.2)"/><path d="M24.65,40.15l-.24,0a6,6,0,1,1,7.16-6.63,1.2,1.2,0,1,1-2.38.3,3.6,3.6,0,1,0-4.3,4,1.2,1.2,0,0,1-.24,2.38Zm0,0" transform="translate(0 -0.2)"/><g class="cls-2"><path d="M53.59,90.5H53a3.28,3.28,0,0,1-2.85-1.81c-1.12-2.16-2.22-2.27-3.1-2.35a4.12,4.12,0,0,1-.93-.17,2.58,2.58,0,0,1-1.61-2.57,2.68,2.68,0,0,1,1.54-2.32c2.25-1.2,7-1.14,7.51-1.13a1.2,1.2,0,0,1,1.18,1.22,1.17,1.17,0,0,1-1.22,1.18c-1.78,0-5.08.17-6.35.86l-.08,0c-.06,0-.18.14-.18.19a.79.79,0,0,0,0,.27l.33,0c1.14.11,3.27.32,5,3.66a.91.91,0,0,0,.7.49h.56a1.2,1.2,0,0,1,0,2.4Zm0,0" transform="translate(0 -0.2)"/><path d="M18.36,49.9a1.28,1.28,0,0,1-.29,0c-5-1.25-6.79-7.28-6.86-7.53L.42,8.57C-.94,4.39,1.39,2.3,1.8,2A7.26,7.26,0,0,1,10,1.06c1,.62,22.37,14.41,26.48,17.93,4.53,3.86,3.94,10.17,3.91,10.43A1.2,1.2,0,0,1,38,29.18s.47-5.33-3.09-8.37C30.89,17.4,8.93,3.25,8.71,3.11a4.9,4.9,0,0,0-5.38.7l-.07.06s-1.46,1.2-.57,4l10.8,33.8c0,.09,1.49,5,5.15,5.9a1.2,1.2,0,0,1-.29,2.36Zm0,0" transform="translate(0 -0.2)"/><path d="M32.46,34.2l-.2,0a1.2,1.2,0,0,1-1-1.38c.93-5.55-3.48-8.67-4-9C25.52,22.61,1,6.57.71,6.4A1.2,1.2,0,1,1,2,4.39c.25.16,24.82,16.21,26.61,17.41.64.42,6.19,4.35,5,11.39a1.2,1.2,0,0,1-1.18,1Zm0,0" transform="translate(0 -0.2)"/></g><path d="M36.34,69.79a13,13,0,0,1-5.36-1c-5-2.23-7.42-7.58-8.25-9.78-.76-2-.62-2.34-.48-2.65.48-1,8.77-4.55,15.09-1.71C42.51,56.93,45,62.73,46.06,66l0,.09,0,0a1.21,1.21,0,0,1,0,.93c-.34.72-4.9,2.74-9.72,2.74ZM32,66.56c4.23,1.9,9.43.18,11.52-.67-.94-2.62-3.13-7.29-7.13-9.09-4.39-2-9.71-.12-11.62.68.66,2,2.92,7.14,7.23,9.08Zm0,0" transform="translate(0 -0.2)"/><path d="M34.38,68.25a1.2,1.2,0,0,1-.61-.16,9.75,9.75,0,0,1-2.52-6.47,10.27,10.27,0,0,1,2.3-6.23,1.28,1.28,0,0,1,.87-.37h0c1.44,0,3.13,4.1,3.12,6.63a10.68,10.68,0,0,1-2.16,6.05,1.2,1.2,0,0,1-.41.39,1.18,1.18,0,0,1-.6.16Zm-.73-6.62a7.44,7.44,0,0,0,.73,3.08,7.35,7.35,0,0,0,.76-3.08,7.49,7.49,0,0,0-.74-3.13,7.71,7.71,0,0,0-.76,3.13Zm0,0" transform="translate(0 -0.2)"/><path d="M44.42,97.08c-5.71,0-10.37-4.25-10.37-9.48a12.32,12.32,0,0,1,2.31-6.94l-.25-.07-2-.05h0A21.08,21.08,0,0,1,29.6,80a20.92,20.92,0,0,1-16.7-20.37,1.2,1.2,0,1,1,2.4,0,18.53,18.53,0,0,0,14.82,18,18.65,18.65,0,0,0,4.07.45l2.08.05h.13a3.08,3.08,0,0,1,2.4,1.56,2.23,2.23,0,0,1-.49,2.31,9.86,9.86,0,0,0-1.85,5.52c0,3.91,3.57,7.09,8,7.09,4,0,8-1.88,8-6.08a1.2,1.2,0,1,1,2.4,0c0,5-4.27,8.48-10.37,8.48Zm0,0" transform="translate(0 -0.2)"/><path d="M33.16,49.8a1.2,1.2,0,0,1-.2-2.39c.37-.06,8.82-1.59,9-10.44a1.2,1.2,0,0,1,2.4,0c-.22,10.88-10.9,12.74-11,12.76l-.2,0Zm0,0" transform="translate(0 -0.2)"/><path d="M41.9,50.6a1.2,1.2,0,0,1-.5-2.29c.25-.12,5.83-2.8,5.83-11a1.2,1.2,0,0,1,2.4,0c0,9.86-6.95,13.1-7.24,13.23a1.22,1.22,0,0,1-.49.1Zm0,0" transform="translate(0 -0.2)"/><path d="M53.5,53.93a1.2,1.2,0,0,1-1.2-1.2v-16a1.2,1.2,0,1,1,2.4,0v16a1.2,1.2,0,0,1-1.2,1.2Zm0,0" transform="translate(0 -0.2)"/><path d="M53.4,103a1.2,1.2,0,1,1,0-2.4,12.44,12.44,0,0,0,7.25-2.23,1.2,1.2,0,0,1,.19-.13c6-3.21,18.5-15.2,26.65-25.64A19.4,19.4,0,0,0,90.61,53.9c-4-7.82-11.45-18.24-23.81-23.52a34.2,34.2,0,0,0-13.25-3,1.2,1.2,0,0,1-.1-2.4,35.74,35.74,0,0,1,14.17,3.12C74.85,31.18,85.09,38,92.77,52.85l0,.08a21.78,21.78,0,0,1-3.43,21.14c-8.43,10.8-20.91,22.78-27.32,26.24A14.91,14.91,0,0,1,53.4,103Zm0,0" transform="translate(0 -0.2)"/><path d="M82.41,40.15a1.2,1.2,0,0,1-.24-2.37,3.6,3.6,0,1,0-4.3-4,1.2,1.2,0,0,1-2.38-.29,6,6,0,1,1,7.16,6.62l-.24,0Zm0,0" transform="translate(0 -0.2)"/><g class="cls-2"><path d="M54,90.5h-.55a1.2,1.2,0,0,1,0-2.4H54a.92.92,0,0,0,.7-.48c1.74-3.34,3.87-3.56,5-3.67l.33,0a1.06,1.06,0,0,0,0-.23c0-.09-.13-.2-.21-.25-1.32-.72-4.62-.92-6.4-.88h0a1.2,1.2,0,0,1,0-2.4c.53,0,5.26-.07,7.51,1.13a2.7,2.7,0,0,1,1.54,2.36,2.58,2.58,0,0,1-1.62,2.53,4.09,4.09,0,0,1-.93.17c-.88.09-2,.2-3.11,2.38A3.27,3.27,0,0,1,54,90.5Zm0,0" transform="translate(0 -0.2)"/><path d="M88.69,49.9a1.2,1.2,0,0,1-.29-2.36c3.66-.91,5.12-5.82,5.14-5.87L104.35,7.83c.89-2.77-.52-3.93-.58-4a4.94,4.94,0,0,0-5.48-.71c-.17.11-22.12,14.26-26.12,17.67-3.58,3.05-3.09,8.31-3.09,8.37a1.2,1.2,0,0,1-2.39.24c0-.27-.61-6.57,3.91-10.43C74.73,15.48,96.14,1.68,97,1.09a7.28,7.28,0,0,1,8.21.88c.41.32,2.74,2.41,1.38,6.6L95.84,42.36c-.06.22-1.84,6.25-6.85,7.5a1.27,1.27,0,0,1-.29,0Zm0,0" transform="translate(0 -0.2)"/></g><path d="M74.59,34.2a1.2,1.2,0,0,1-1.18-1c-1.18-7,4.38-11,5-11.39C80.21,20.61,104.79,4.56,105,4.39a1.2,1.2,0,0,1,1.31,2c-.25.16-24.82,16.21-26.59,17.4-.5.34-4.91,3.45-4,9a1.2,1.2,0,0,1-1,1.38l-.2,0Zm0,0" transform="translate(0 -0.2)"/><path d="M70.71,69.79c-4.82,0-9.38-2-9.72-2.74a1.2,1.2,0,0,1,0-.93v0L61,66c1-3.25,3.55-9.06,8.72-11.39,6.32-2.84,14.6.68,15.08,1.7.14.32.29.64-.47,2.66-.83,2.2-3.3,7.55-8.25,9.78a13,13,0,0,1-5.36,1Zm-7.15-3.91c2.09.85,7.29,2.57,11.52.67s6.56-7.05,7.23-9.08c-1.91-.8-7.23-2.65-11.61-.68-4,1.8-6.19,6.47-7.14,9.09Zm0,0" transform="translate(0 -0.2)"/><path d="M72.68,68.25a1.19,1.19,0,0,1-.6-.16,1.17,1.17,0,0,1-.4-.38,10.71,10.71,0,0,1-2.16-6.07c0-2.52,1.68-6.59,3.09-6.62a1.21,1.21,0,0,1,.9.37,10.27,10.27,0,0,1,2.3,6.23,9.75,9.75,0,0,1-2.52,6.47,1.23,1.23,0,0,1-.6.16Zm0-9.74a7.49,7.49,0,0,0-.74,3.13,7.34,7.34,0,0,0,.76,3.08,7.43,7.43,0,0,0,.73-3.08,7.63,7.63,0,0,0-.76-3.12Zm0,0" transform="translate(0 -0.2)"/><path d="M62.64,97.08c-6.11,0-10.37-3.49-10.37-8.48a1.2,1.2,0,0,1,2.4,0c0,4.2,4,6.08,8,6.08,4.39,0,8-3.17,8-7.07a10,10,0,0,0-1.85-5.53,2.23,2.23,0,0,1-.49-2.31,3.08,3.08,0,0,1,2.4-1.56h.13l2-.05A18.91,18.91,0,0,0,91.77,59.67a1.2,1.2,0,1,1,2.4,0A20.91,20.91,0,0,1,77.46,80a21.2,21.2,0,0,1-4.59.5l-1.93.05-.25.07A12.25,12.25,0,0,1,73,87.61c0,5.21-4.65,9.47-10.37,9.47Zm0,0" transform="translate(0 -0.2)"/><path d="M73.9,49.8l-.2,0c-.11,0-10.79-1.89-11-12.76a1.2,1.2,0,0,1,2.4,0c.18,8.9,8.63,10.38,9,10.44a1.2,1.2,0,0,1-.19,2.39Zm0,0" transform="translate(0 -0.2)"/><path d="M65.16,50.6a1.21,1.21,0,0,1-.49-.1c-.3-.13-7.24-3.37-7.24-13.23a1.2,1.2,0,1,1,2.4,0c0,8.26,5.59,10.93,5.83,11a1.2,1.2,0,0,1-.5,2.29Zm0,0" transform="translate(0 -0.2)"/></g></g></svg>