<svg xmlns="http://www.w3.org/2000/svg" xmlns:xlink="http://www.w3.org/1999/xlink" viewBox="0 0 95.09 97.83"><defs><style>.cls-1{fill:none;}.cls-2{clip-path:url(#clip-path);}</style><clipPath id="clip-path" transform="translate(0 -0.17)"><rect class="cls-1" y="0.08" width="96" height="98.88"/></clipPath></defs><title>Ресурс 66</title><g id="Слой_2" data-name="Слой 2"><g id="Слой_1-2" data-name="Слой 1"><path d="M63.44,19.6a5.2,5.2,0,1,1,5.2-5.2,5.2,5.2,0,0,1-5.2,5.2Zm0-8a2.8,2.8,0,1,0,2.8,2.8,2.81,2.81,0,0,0-2.8-2.8Zm0,0" transform="translate(0 -0.17)"/><path d="M61.73,19.06a1.2,1.2,0,0,1-.57-2.26,2.77,2.77,0,0,0,0-4.91A1.2,1.2,0,1,1,62.3,9.78a5.17,5.17,0,0,1,0,9.13,1.19,1.19,0,0,1-.57.14Zm0,0" transform="translate(0 -0.17)"/><path d="M88.24,47.63a1.22,1.22,0,0,1-.29,0,1.2,1.2,0,0,1-.87-1.46c6.19-24.88-4.29-28.53-4.4-28.57l-.14-.05a3.25,3.25,0,0,0-4.27,1.21,91,91,0,0,1-7.09,8.94,11,11,0,0,1-7.32,3.7c-4.5.53-9.54-2.77-10.05-3.12L51,26.61a6,6,0,0,0-3.18-.91,1.2,1.2,0,0,1,0-2.4,8.4,8.4,0,0,1,4.42,1.25l2.79,1.64.07,0s4.75,3.2,8.51,2.73h.17c.11,0,2.83,0,5.64-3a90.68,90.68,0,0,0,6.82-8.59,5.58,5.58,0,0,1,7.22-2.09c1.19.43,12.43,5.21,5.92,31.4a1.2,1.2,0,0,1-1.16.91Zm0,0" transform="translate(0 -0.17)"/><path d="M61.44,41.5A1.2,1.2,0,0,1,60.28,40a62.23,62.23,0,0,0,.49-9.44,1.2,1.2,0,1,1,2.4,0c0,.19,0,3.23-.12,6.08A16.49,16.49,0,0,0,66,29.16a1.2,1.2,0,1,1,2.38.28,19.27,19.27,0,0,1-6.12,11.78,1.21,1.21,0,0,1-.77.28Zm0,0" transform="translate(0 -0.17)"/><path d="M55,28.54a1.2,1.2,0,0,1-1.19-1.08c-.72-7.16-4.09-13.29-6.35-13.29a1.2,1.2,0,1,1,0-2.4c4.69,0,8.09,9,8.74,15.45a1.2,1.2,0,0,1-1.07,1.31Zm0,0" transform="translate(0 -0.17)"/><path d="M63.94,72.17a3.87,3.87,0,0,1-3.87-3.87,1.2,1.2,0,0,1,2.4,0,1.47,1.47,0,1,0,2.93,0,1.2,1.2,0,0,1,2.4,0,3.87,3.87,0,0,1-3.87,3.87Zm0,0" transform="translate(0 -0.17)"/><path d="M69.34,64a3.87,3.87,0,0,1-3.86-3.87,1.2,1.2,0,1,1,2.4,0,1.47,1.47,0,1,0,2.93,0,1.2,1.2,0,1,1,2.4,0A3.87,3.87,0,0,1,69.34,64Zm0,0" transform="translate(0 -0.17)"/><path d="M73.49,55.16a3.87,3.87,0,0,1-3.87-3.87,1.2,1.2,0,1,1,2.4,0,1.47,1.47,0,1,0,2.93,0,1.2,1.2,0,1,1,2.4,0,3.87,3.87,0,0,1-3.86,3.87Zm0,0" transform="translate(0 -0.17)"/><path d="M78.82,55.16A3.87,3.87,0,0,1,75,51.29a1.2,1.2,0,0,1,2.4,0,1.47,1.47,0,1,0,2.93,0,1.2,1.2,0,0,1,2.4,0,3.87,3.87,0,0,1-3.87,3.87Zm0,0" transform="translate(0 -0.17)"/><path d="M81.55,46.3a3.87,3.87,0,0,1-3.87-3.86,1.2,1.2,0,1,1,2.4,0,1.47,1.47,0,0,0,2.93,0,1.2,1.2,0,1,1,2.4,0,3.87,3.87,0,0,1-3.86,3.86Zm0,0" transform="translate(0 -0.17)"/><path d="M70.43,21a3.86,3.86,0,0,1-2.33-.78,1.2,1.2,0,0,1,1.45-1.92,1.47,1.47,0,0,0,1.77-2.33A1.2,1.2,0,0,1,72.77,14,3.86,3.86,0,0,1,70.43,21Zm0,0" transform="translate(0 -0.17)"/><path d="M73.65,16.7a3.85,3.85,0,0,1-2.33-.79A1.2,1.2,0,0,1,72.78,14a1.46,1.46,0,0,0,2.05-.28,1.46,1.46,0,0,0,.28-1.09,1.44,1.44,0,0,0-.57-1A1.2,1.2,0,0,1,76,9.75a3.87,3.87,0,0,1-1.81,6.91,3.58,3.58,0,0,1-.54,0Zm0,0" transform="translate(0 -0.17)"/><path d="M49.46,67.26c-.94,0-1.71-.07-2-.1a1.2,1.2,0,0,1,.24-2.39c1.6.16,4.22.12,5.07-.46a26.69,26.69,0,0,0,2.5-4A105.72,105.72,0,0,1,66.53,43.52c1.78-2.18,6.23-8.71,5.31-12.58a3.66,3.66,0,0,0-2.28-2.55,1.2,1.2,0,1,1,1-2.19,6,6,0,0,1,3.64,4.19c1.38,5.82-5.51,14.31-5.8,14.67a103.55,103.55,0,0,0-11,16.42c-1.67,2.94-2.44,4.26-3.23,4.81a9,9,0,0,1-4.66,1Zm0,0" transform="translate(0 -0.17)"/><g class="cls-2"><path d="M51.37,72.5a25.61,25.61,0,0,1-4-.35,1.2,1.2,0,1,1,.41-2.37c2.13.37,5.64.54,6.75-.22a25.54,25.54,0,0,0,2.73-4.36A98.94,98.94,0,0,1,72,44.31c.08-.09,11.44-13.31,4.09-23.72a1.2,1.2,0,1,1,2-1.38c3.52,5,3.87,11.22,1,18a34.63,34.63,0,0,1-5.31,8.7A97,97,0,0,0,59.32,66.37c-1.77,3.15-2.59,4.56-3.46,5.17a8.39,8.39,0,0,1-4.48,1Zm0,0" transform="translate(0 -0.17)"/><path d="M59.51,83.06H35.58a1.2,1.2,0,0,1-.88-.39C2.89,48.23-1.58,38,.4,22.94,2.07,10.2,17.73,3.72,18.4,3.45,31.16-2.44,36.4,1,39.88,3.2l.75.48c4.26,2.65,6.81,2.55,6.83,2.55h.18c.06,0,2.61.09,6.83-2.55l.75-.48c3.47-2.25,8.72-5.65,21.53.27.61.25,16.28,6.72,17.95,19.47,2,15.08-2.5,25.29-34.3,59.73a1.21,1.21,0,0,1-.88.39ZM36.1,80.66H59c30.82-33.42,35.18-43.23,33.33-57.4C90.82,11.88,75.94,5.74,75.79,5.67,64.13.29,59.91,3,56.52,5.22l-.78.5C51.1,8.6,48.16,8.65,47.55,8.63S44,8.6,39.35,5.72l-.78-.5C35.18,3,31,.29,19.36,5.65c-.2.08-15.09,6.25-16.58,17.6-1.86,14.18,2.5,24,33.33,57.4Zm0,0" transform="translate(0 -0.17)"/><path d="M48.05,18a4.79,4.79,0,0,1-.84-.06,1.2,1.2,0,0,1,.45-2.36c.14,0,2.75.41,5.4-2.65.53-.61,1.14-1.4,1.79-2.23,3.58-4.62,9-11.59,16.59-9.34a1.2,1.2,0,0,1-.68,2.3c-6-1.78-10.64,4.17-14,8.51-.67.86-1.3,1.68-1.88,2.34A9.06,9.06,0,0,1,48.05,18Zm0,0" transform="translate(0 -0.17)"/></g><path d="M31.65,19.6a5.2,5.2,0,1,1,5.2-5.2,5.2,5.2,0,0,1-5.2,5.2Zm0-8a2.8,2.8,0,1,0,2.8,2.8,2.8,2.8,0,0,0-2.8-2.8Zm0,0" transform="translate(0 -0.17)"/><g class="cls-2"><path d="M33.36,19.06a1.19,1.19,0,0,1-.57-.14,5.17,5.17,0,0,1,0-9.13,1.2,1.2,0,1,1,1.14,2.11,2.77,2.77,0,0,0,0,4.91,1.2,1.2,0,0,1-.57,2.26Zm0,0" transform="translate(0 -0.17)"/><path d="M6.85,47.63a1.2,1.2,0,0,1-1.16-.91c-6.51-26.2,4.73-31,5.91-31.41a5.61,5.61,0,0,1,7.27,2.16A90.72,90.72,0,0,0,25.64,26a8.66,8.66,0,0,0,5.64,3h.18c3.77.47,8.46-2.7,8.5-2.73l.07,0,2.81-1.66a8.37,8.37,0,0,1,4.4-1.24,1.2,1.2,0,0,1,0,2.4,6,6,0,0,0-3.16.89l-2.8,1.65c-.52.35-5.55,3.64-10.05,3.12a11,11,0,0,1-7.32-3.7,91.75,91.75,0,0,1-7.05-8.88,3.26,3.26,0,0,0-4.3-1.27l-.14.05c-.09,0-10.53,3.91-4.4,28.57a1.2,1.2,0,0,1-.87,1.46,1.22,1.22,0,0,1-.29,0Zm0,0" transform="translate(0 -0.17)"/></g><path d="M33.65,41.5a1.2,1.2,0,0,1-.77-.28,19.29,19.29,0,0,1-6.12-11.78,1.2,1.2,0,1,1,2.39-.28A16.44,16.44,0,0,0,32,36.58c-.2-2.86-.23-5.93-.23-6.13a1.2,1.2,0,1,1,2.4,0c0,.07.09,7.16.65,9.6a1.2,1.2,0,0,1-.54,1.29,1.23,1.23,0,0,1-.63.18Zm0,0" transform="translate(0 -0.17)"/><path d="M40.05,28.54h-.12a1.2,1.2,0,0,1-1.07-1.31c.64-6.48,4-15.45,8.74-15.45a1.2,1.2,0,1,1,0,2.4c-2.27,0-5.64,6.13-6.35,13.29a1.21,1.21,0,0,1-1.19,1.08Zm0,0" transform="translate(0 -0.17)"/><path d="M31.15,72.17a3.87,3.87,0,0,1-3.87-3.87,1.2,1.2,0,0,1,2.4,0,1.47,1.47,0,1,0,2.93,0,1.2,1.2,0,0,1,2.4,0,3.87,3.87,0,0,1-3.87,3.87Zm0,0" transform="translate(0 -0.17)"/><path d="M25.75,64a3.87,3.87,0,0,1-3.86-3.87,1.2,1.2,0,1,1,2.4,0,1.47,1.47,0,1,0,2.93,0,1.2,1.2,0,1,1,2.4,0A3.87,3.87,0,0,1,25.75,64Zm0,0" transform="translate(0 -0.17)"/><path d="M21.61,55.16a3.87,3.87,0,0,1-3.87-3.87,1.2,1.2,0,0,1,2.4,0,1.47,1.47,0,1,0,2.93,0,1.2,1.2,0,1,1,2.4,0,3.87,3.87,0,0,1-3.87,3.87Zm0,0" transform="translate(0 -0.17)"/><path d="M16.27,55.16a3.87,3.87,0,0,1-3.87-3.87,1.2,1.2,0,1,1,2.4,0,1.47,1.47,0,1,0,2.93,0,1.2,1.2,0,0,1,2.4,0,3.87,3.87,0,0,1-3.87,3.87Zm0,0" transform="translate(0 -0.17)"/><path d="M13.55,46.3a3.87,3.87,0,0,1-3.87-3.86,1.2,1.2,0,1,1,2.4,0,1.47,1.47,0,0,0,2.93,0,1.2,1.2,0,1,1,2.4,0,3.87,3.87,0,0,1-3.87,3.86Zm0,0" transform="translate(0 -0.17)"/><path d="M24.66,21A3.86,3.86,0,0,1,22.32,14a1.2,1.2,0,0,1,1.45,1.91,1.47,1.47,0,0,0,1.77,2.33A1.2,1.2,0,0,1,27,20.17a3.86,3.86,0,0,1-2.33.78Zm0,0" transform="translate(0 -0.17)"/><path d="M21.44,16.7a3.53,3.53,0,0,1-.53,0A3.87,3.87,0,0,1,19.1,9.75a1.2,1.2,0,0,1,1.45,1.92,1.43,1.43,0,0,0-.57,1A1.47,1.47,0,0,0,22.32,14a1.2,1.2,0,0,1,1.45,1.91,3.85,3.85,0,0,1-2.33.79Zm0,0" transform="translate(0 -0.17)"/><path d="M45.62,67.26a9,9,0,0,1-4.66-1c-.79-.54-1.56-1.86-3.23-4.8a103.57,103.57,0,0,0-11-16.41c-.3-.37-7.19-8.86-5.81-14.68a6,6,0,0,1,3.64-4.19,1.2,1.2,0,1,1,1,2.19,3.66,3.66,0,0,0-2.29,2.55c-.92,3.88,3.53,10.41,5.32,12.6A105.81,105.81,0,0,1,39.83,60.3a26.18,26.18,0,0,0,2.5,4c.84.58,3.47.62,5.07.46a1.2,1.2,0,0,1,.24,2.39c-.3,0-1.07.1-2,.1Zm0,0" transform="translate(0 -0.17)"/><g class="cls-2"><path d="M43.72,72.5a8.39,8.39,0,0,1-4.48-1c-.88-.61-1.7-2-3.46-5.17A96.82,96.82,0,0,0,21.32,46,34.78,34.78,0,0,1,16,37.24c-2.86-6.8-2.5-13,1-18a1.2,1.2,0,0,1,2,1.38C11.59,31,23,44.22,23.09,44.35A98.79,98.79,0,0,1,37.87,65.2a25.47,25.47,0,0,0,2.73,4.36c1.11.76,4.62.59,6.75.22a1.2,1.2,0,0,1,.41,2.37,25.67,25.67,0,0,1-4,.35Zm0,0" transform="translate(0 -0.17)"/><path d="M47.15,18c-1.28,0-4.07-.41-6.91-3.46-.7-.75-1.46-1.71-2.26-2.73C34.68,7.69,30.16,2,24.33,3.7a1.2,1.2,0,1,1-.68-2.3c7.39-2.18,12.7,4.53,16.21,9,.77,1,1.5,1.9,2.14,2.58,2.83,3,5.34,2.69,5.44,2.68A1.2,1.2,0,0,1,47.87,18a4.7,4.7,0,0,1-.72.05Zm0,0" transform="translate(0 -0.17)"/></g><path d="M52.5,65.1s-1.3-4.1-6.9-4.3-8,3.14-9.9,12.1-6,17.1-9.2,17.9c0,0,5,.3,8.7-5.5,0,0,.15-.4.35-.45s.75-.15.7,1.8.25,9.95,7.65,10.15c0,0-7.5-5.4-3-22.7,0,0,2.53-9.33,7.46-8.93,0,0,.67,0,.67.33Zm0,0" transform="translate(0 -0.17)"/><path d="M43.91,98h0c-6.32-.17-8.67-5.54-8.81-10.46C31.2,92.22,26.64,92,26.43,92a1.2,1.2,0,0,1-.22-2.36c2.35-.59,6.35-7.71,8.32-17,1.79-8.45,4.21-13.3,11.12-13,6.37.23,7.94,4.93,8,5.13a1.19,1.19,0,0,1-.14,1,1.21,1.21,0,0,1-.87.54l-3.47.4a1.21,1.21,0,0,1-.94-.3l0,0c-3.18-.13-5.55,5.9-6.14,8.06-4.2,16.14,2.49,21.37,2.56,21.42A1.2,1.2,0,0,1,43.91,98ZM35.69,83.63a1.54,1.54,0,0,1,1,.34c.59.48.83,1.29.79,2.71,0,1.61.14,6.07,3.21,8-1.93-3.37-3.8-9.83-.93-20.89C42.39,64,47.6,63.92,48.41,64a2.25,2.25,0,0,1,1.08.27l1-.12a6.55,6.55,0,0,0-5-2.12c-4.16-.15-6.64,1.54-8.68,11.15a47.23,47.23,0,0,1-5.6,14.72,11.91,11.91,0,0,0,2.86-3.13,1.74,1.74,0,0,1,1.13-1.05,1.54,1.54,0,0,1,.43-.06Zm0,0" transform="translate(0 -0.17)"/><path d="M53.57,23a1.13,1.13,0,0,1-.5-.11,13,13,0,0,0-10.92,0A1.2,1.2,0,1,1,41,20.74a15.27,15.27,0,0,1,13.08,0A1.2,1.2,0,0,1,53.57,23Zm0,0" transform="translate(0 -0.17)"/></g></g></svg>