<svg xmlns="http://www.w3.org/2000/svg" xmlns:xlink="http://www.w3.org/1999/xlink" viewBox="0 0 104.6 97.28"><defs><style>.cls-1{fill:none;}.cls-2{clip-path:url(#clip-path);}</style><clipPath id="clip-path" transform="translate(0 -0.72)"><rect class="cls-1" y="0.08" width="104.88" height="98.88"/></clipPath></defs><title>Ресурс 67</title><g id="Слой_2" data-name="Слой 2"><g id="Слой_1-2" data-name="Слой 1"><path d="M36.9,82.44A1.2,1.2,0,0,1,36,82C28,72,25.7,58.21,25.61,57.63c-2-9.85.37-24.94.47-25.58a1.18,1.18,0,0,1,.55-.83,1.2,1.2,0,0,1,1-.13c1.6.49,3.75-1,4.38-1.55,2.49-2.16,2.22-4.37,2.21-4.46a1.24,1.24,0,0,1,.32-1c7.31-7.66,17.35-6.87,17.77-6.83a1.2,1.2,0,0,1-.21,2.39c-.13,0-9-.67-15.47,5.74a8,8,0,0,1-3,6,9.21,9.21,0,0,1-5.29,2.25h0c-.52,3.74-1.93,15.67-.31,23.61,0,.19,2.26,13.77,9.86,23.29a1.2,1.2,0,0,1-.19,1.68,1.17,1.17,0,0,1-.75.27Zm0,0" transform="translate(0 -0.72)"/><path d="M27.27,33.45a1.19,1.19,0,0,1-.71-.23c-8.66-6.28-8.86-19-8.86-19.56.22-7.24,1.24-11.33,3.1-12.55A2.14,2.14,0,0,1,22.38.75c1.26.12,1.86,1.53,2,2.86a.64.64,0,0,1,0,.09A24.68,24.68,0,0,0,36,23.86,1.2,1.2,0,1,1,34.82,26,26.75,26.75,0,0,1,22,3.84a3.21,3.21,0,0,0-.1-.5c-.48.64-1.56,2.89-1.8,10.34,0,.07.21,12,7.87,17.59a1.2,1.2,0,0,1-.7,2.17Zm0,0" transform="translate(0 -0.72)"/><path d="M21.23,13.06a5.07,5.07,0,0,1-2.55-.69,1.2,1.2,0,0,1,1.24-2.06,2.32,2.32,0,0,0,3.21-.77,1.2,1.2,0,1,1,2,1.39,4.61,4.61,0,0,1-3.85,2.12Zm0,0" transform="translate(0 -0.72)"/><path d="M33,54.16l-.23,0a1.2,1.2,0,0,1-.95-1.41,4.65,4.65,0,0,0-2.16-4.91,1.2,1.2,0,1,1,1.15-2.11,7,7,0,0,1,3.37,7.48,1.2,1.2,0,0,1-1.18,1Zm0,0" transform="translate(0 -0.72)"/><g class="cls-2"><path d="M29.13,52.91a3.8,3.8,0,1,1,3.8-3.8,3.8,3.8,0,0,1-3.8,3.8Zm0-5.2a1.4,1.4,0,1,0,1.4,1.4,1.4,1.4,0,0,0-1.4-1.4Zm0,0" transform="translate(0 -0.72)"/><path d="M15.56,49.28A19.28,19.28,0,0,1,6.33,46.9C.39,44-.34,39.24.11,37.06c.35-3.25,3.68-4.26,3.82-4.3,12.08-4,22.78,5.39,23.23,5.79a1.2,1.2,0,0,1-1.59,1.8c-.1-.09-10.14-8.82-20.93-5.29-.11,0-2,.63-2.15,2.3a1.16,1.16,0,0,1,0,.15c0,.17-.85,4.44,5,7.26l.12.07a16,16,0,0,0,17.27-1,1.2,1.2,0,1,1,1.37,2,18.27,18.27,0,0,1-10.63,3.45Zm0,0" transform="translate(0 -0.72)"/></g><path d="M16.07,45.83c-5.76,0-7.93-2-8.24-2.36A4.31,4.31,0,0,1,6.4,39.89,3.82,3.82,0,0,1,8.2,37.3c.65-.34,6.32-3,18.07,3.38a1.2,1.2,0,0,1,.48,1.63l-.08.13a1.16,1.16,0,0,1,.18.38A1.2,1.2,0,0,1,26,44.3a37.84,37.84,0,0,1-9.95,1.54ZM9.36,39.4a1.47,1.47,0,0,0-.59.84,2.3,2.3,0,0,0,.8,1.58s3.52,3.24,14.59.48c-3.64-1.79-11.22-4.78-14.81-2.9Zm0,0" transform="translate(0 -0.72)"/><path d="M41.27,31.54a3.56,3.56,0,0,1-3.4-3.7,1.2,1.2,0,0,1,2.4,0,1,1,0,1,0,2,0,1.2,1.2,0,1,1,2.4,0,3.56,3.56,0,0,1-3.4,3.7Zm0,0" transform="translate(0 -0.72)"/><path d="M50,30.64a3.56,3.56,0,0,1-3.4-3.7,1.2,1.2,0,1,1,2.4,0,1,1,0,1,0,2,0,1.2,1.2,0,0,1,2.4,0,3.56,3.56,0,0,1-3.4,3.7Zm0,0" transform="translate(0 -0.72)"/><path d="M43.46,28.57a1.19,1.19,0,0,1-1.19-1.09A3.85,3.85,0,0,1,43,24.84a3.25,3.25,0,0,1,2.34-1.35A3.55,3.55,0,0,1,49,26.86a1.2,1.2,0,1,1-2.39.22c-.07-.7-.57-1.25-1.12-1.2a.89.89,0,0,0-.62.38,1.5,1.5,0,0,0-.26,1,1.2,1.2,0,0,1-1.09,1.3Zm0,0" transform="translate(0 -0.72)"/><path d="M47.4,73.34a1.19,1.19,0,0,1-.85-.35c-6.31-6.31-4.91-14.7-4.85-15.05a1.2,1.2,0,0,1,2.36.41c0,.07-1.23,7.54,4.18,12.94a1.2,1.2,0,0,1-.85,2Zm0,0" transform="translate(0 -0.72)"/><path d="M43.6,90.14a4,4,0,1,1,4-4,4,4,0,0,1-4,4Zm0-5.6a1.6,1.6,0,1,0,1.6,1.6,1.6,1.6,0,0,0-1.6-1.6Zm0,0" transform="translate(0 -0.72)"/><path d="M43.58,95.59a5.84,5.84,0,0,1-.77,0c-4.49-.05-8.41-4.37-8.41-9.3a8.5,8.5,0,0,1,13.25-7,1.2,1.2,0,0,1-1.34,2,6.1,6.1,0,0,0-9.51,5.06c0,3.26,2.61,6.9,6.1,6.9l.21,0a5.7,5.7,0,0,0,4.06-1.23c2.63-2,4.1-2,4.89-1.95h.14a1.2,1.2,0,0,1,0,2.4H52c-.53,0-1.41,0-3.38,1.46a8.34,8.34,0,0,1-5,1.74Zm0,0" transform="translate(0 -0.72)"/><path d="M52.2,98h-2a6.15,6.15,0,0,1-5.75-3.11,1.2,1.2,0,0,1,2.17-1A3.85,3.85,0,0,0,50.2,95.6h2a1.2,1.2,0,1,1,0,2.4Zm0,0" transform="translate(0 -0.72)"/><path d="M67.7,82.44a1.2,1.2,0,0,1-.94-1.95c7.6-9.53,9.83-23.1,9.85-23.24,1.63-8,.22-19.92-.3-23.66h0A9.23,9.23,0,0,1,71,31.34a8,8,0,0,1-3-6c-6.5-6.45-15.38-5.75-15.47-5.74a1.2,1.2,0,0,1-.21-2.39c.43,0,10.46-.83,17.77,6.83a1.2,1.2,0,0,1,.32,1c0,.07-.27,2.28,2.2,4.43.69.6,2.81,2,4.39,1.56a1.2,1.2,0,0,1,1.54,1c.1.64,2.48,15.73.46,25.63C78.89,58.21,76.64,72,68.64,82a1.2,1.2,0,0,1-.94.45Zm0,0" transform="translate(0 -0.72)"/><path d="M77.33,33.45a1.2,1.2,0,0,1-.7-2.17c7.69-5.58,7.87-17.52,7.87-17.64C84.27,6.21,83.19,4,82.7,3.33a3.73,3.73,0,0,0-.1.5A26.75,26.75,0,0,1,69.77,26a1.2,1.2,0,1,1-1.15-2.1A24.8,24.8,0,0,0,80.2,3.7a.73.73,0,0,1,0-.09c.15-1.32.75-2.73,2-2.86a2.13,2.13,0,0,1,1.59.35c1.86,1.23,2.88,5.32,3.1,12.5,0,.59-.2,13.32-8.86,19.61a1.2,1.2,0,0,1-.71.23Zm0,0" transform="translate(0 -0.72)"/><path d="M83.37,13.06a4.61,4.61,0,0,1-3.85-2.12,1.2,1.2,0,0,1,2-1.39,2.32,2.32,0,0,0,3.21.77,1.2,1.2,0,0,1,1.23,2.06,5.07,5.07,0,0,1-2.55.69Zm0,0" transform="translate(0 -0.72)"/><path d="M71.62,54.16a1.2,1.2,0,0,1-1.18-1,7,7,0,0,1,3.37-7.48A1.2,1.2,0,0,1,75,47.81a4.64,4.64,0,0,0-2.17,4.92,1.2,1.2,0,0,1-.95,1.41l-.23,0Zm0,0" transform="translate(0 -0.72)"/><g class="cls-2"><path d="M75.46,52.91a3.8,3.8,0,1,1,3.8-3.8,3.8,3.8,0,0,1-3.8,3.8Zm0-5.2a1.4,1.4,0,1,0,1.4,1.4,1.4,1.4,0,0,0-1.4-1.4Zm0,0" transform="translate(0 -0.72)"/><path d="M89,49.28a18.27,18.27,0,0,1-10.63-3.45,1.2,1.2,0,1,1,1.37-2,16,16,0,0,0,17.27,1l.12-.06c5.8-2.82,5-7.09,4.95-7.27l0-.14c-.16-1.7-2.09-2.28-2.11-2.29-10.85-3.56-20.86,5.19-21,5.28a1.2,1.2,0,0,1-1.59-1.79c.45-.4,11.16-9.75,23.27-5.78.11,0,3.43,1,3.78,4.29.45,2.19-.27,6.94-6.21,9.84A19.24,19.24,0,0,1,89,49.28Zm0,0" transform="translate(0 -0.72)"/></g><path d="M88.53,45.83a37.84,37.84,0,0,1-9.95-1.54,1.19,1.19,0,0,1-.66-1.85l-.08-.13a1.2,1.2,0,0,1,.48-1.63c11.75-6.34,17.42-3.73,18-3.41a3.84,3.84,0,0,1,1.84,2.6,4.3,4.3,0,0,1-1.43,3.59c-.31.33-2.49,2.37-8.24,2.37Zm-8.1-3.53C91.54,45.07,95,41.85,95,41.82a2.26,2.26,0,0,0,.79-1.58,1.46,1.46,0,0,0-.62-.85c-3.56-1.87-11.13,1.12-14.77,2.92Zm0,0" transform="translate(0 -0.72)"/><path d="M63.33,31.54a3.56,3.56,0,0,1-3.4-3.7,1.2,1.2,0,1,1,2.4,0,1,1,0,1,0,2,0,1.2,1.2,0,1,1,2.4,0,3.56,3.56,0,0,1-3.4,3.7Zm0,0" transform="translate(0 -0.72)"/><path d="M54.56,30.64a3.57,3.57,0,0,1-3.4-3.7,1.2,1.2,0,0,1,2.4,0,1,1,0,1,0,2,0,1.2,1.2,0,1,1,2.4,0,3.56,3.56,0,0,1-3.4,3.7Zm0,0" transform="translate(0 -0.72)"/><path d="M61.14,28.57H61a1.2,1.2,0,0,1-1.08-1.3,1.49,1.49,0,0,0-.25-1,.91.91,0,0,0-.62-.38c-.53,0-1.05.5-1.12,1.2a1.2,1.2,0,1,1-2.39-.21,3.56,3.56,0,0,1,3.72-3.38,3.25,3.25,0,0,1,2.34,1.35,3.86,3.86,0,0,1,.71,2.64,1.19,1.19,0,0,1-1.19,1.09Zm0,0" transform="translate(0 -0.72)"/><path d="M57.2,73.34a1.2,1.2,0,0,1-.85-2c5.43-5.44,4.19-12.87,4.17-12.94a1.2,1.2,0,0,1,2.36-.42C63,58.29,64.35,66.68,58,73a1.2,1.2,0,0,1-.85.35Zm0,0" transform="translate(0 -0.72)"/><path d="M61,90.14a4,4,0,1,1,4-4,4,4,0,0,1-4,4Zm0-5.6a1.6,1.6,0,1,0,1.6,1.6,1.6,1.6,0,0,0-1.6-1.6Zm0,0" transform="translate(0 -0.72)"/><path d="M61,95.59a8.36,8.36,0,0,1-5-1.74c-2-1.49-2.85-1.47-3.37-1.46h-.2a1.2,1.2,0,0,1,0-2.4h.14c.79,0,2.25,0,4.89,2a5.7,5.7,0,0,0,4.07,1.22l.2,0c3.49,0,6.1-3.64,6.1-6.9a6.1,6.1,0,0,0-9.51-5.06,1.2,1.2,0,0,1-1.34-2,8.5,8.5,0,0,1,13.25,7c0,4.92-3.92,9.24-8.41,9.3a6.9,6.9,0,0,1-.77,0Zm0,0" transform="translate(0 -0.72)"/><path d="M54.4,98h-2a1.2,1.2,0,1,1,0-2.4h2A3.86,3.86,0,0,0,58,93.87a1.2,1.2,0,1,1,2.17,1A6.15,6.15,0,0,1,54.4,98Zm0,0" transform="translate(0 -0.72)"/></g></g></svg>