<svg xmlns="http://www.w3.org/2000/svg" xmlns:xlink="http://www.w3.org/1999/xlink" viewBox="0 0 101.05 95.02"><defs><style>.cls-1{fill:none;}.cls-2{clip-path:url(#clip-path);}</style><clipPath id="clip-path" transform="translate(0 -0.98)"><rect class="cls-1" width="101.76" height="96.96"/></clipPath></defs><title>Ресурс 69</title><g id="Слой_2" data-name="Слой 2"><g id="Слой_1-2" data-name="Слой 1"><path d="M36.34,44.17a4.43,4.43,0,1,1,4.43-4.43,4.44,4.44,0,0,1-4.43,4.43Zm0-6.46a2,2,0,1,0,2,2,2,2,0,0,0-2-2Zm0,0" transform="translate(0 -0.98)"/><path d="M29.69,43.7H29.6a1.2,1.2,0,0,1-1.11-1.29,7.31,7.31,0,0,1,7.93-7.11,1.2,1.2,0,0,1-.15,2.39,5,5,0,0,0-5.38,4.9,1.2,1.2,0,0,1-1.2,1.11Zm0,0" transform="translate(0 -0.98)"/><g class="cls-2"><path d="M43.88,82.53c-1.59,0-21.78-.76-27.74-38.22a1.2,1.2,0,0,1,2.37-.37c5.75,36.15,25.24,36.18,25.41,36.19,2.89,0,4.19-.73,4.77-1.34a2,2,0,0,0,.59-1.37s0-.07,0-.09V73.87a1.2,1.2,0,0,1,2.4,0V77.3a4.34,4.34,0,0,1-1.17,3.07C49.21,81.8,47,82.53,44,82.53Zm0,0" transform="translate(0 -0.98)"/><path d="M32.17,7.24A1.2,1.2,0,0,1,31.66,5C42.85-.22,50.51,1.12,50.83,1.17a1.2,1.2,0,0,1-.43,2.36c-.11,0-7.32-1.21-17.73,3.59a1.2,1.2,0,0,1-.5.11Zm0,0" transform="translate(0 -0.98)"/><path d="M9.64,58.43a2.43,2.43,0,0,1-.8-.12c-.63-.17-1.15-.76-1.87-2.08A73.79,73.79,0,0,1,1.59,40.8C.28,35.31-.89,27.82,1,23.34c2.11-5.11,9.53-9.89,15.38-13C22.48,7.09,29,4.59,30.32,4.5a2.46,2.46,0,0,1,2.35,1c1,1.4.14,3.58-.15,4.21L14.57,53.46c-1.08,2.59-2.36,4.19-3.81,4.75a3.05,3.05,0,0,1-1.12.22ZM30.49,6.89a72.31,72.31,0,0,0-13.16,5.65C9.62,16.65,4.6,20.81,3.18,24.26-.2,32.43,7.79,53.88,9.67,56c.4,0,1.5-.65,2.69-3.49l18-43.8a4.09,4.09,0,0,0,.4-1.85Zm0,0" transform="translate(0 -0.98)"/></g><path d="M50.65,74c-4.47,0-9-4.59-9-7.89,0-3.5,4.58-3.5,9-3.5,3.58,0,9,0,9,3.58,0,3.27-4.54,7.81-9,7.81Zm0-9C48,65,44,65,44,66.07c0,1.71,3.19,5.49,6.61,5.49s6.6-3.72,6.6-5.41c0-.44-.86-1.18-6.6-1.18Zm0,0" transform="translate(0 -0.98)"/><path d="M50.48,96a6.88,6.88,0,0,1-5.21-2.2c-3.64-3.87-3.2-11.55-3.18-11.87a1.2,1.2,0,0,1,2.39.15c0,.07-.39,7,2.54,10.08a4.37,4.37,0,0,0,2.26,1.32V76.07a1.2,1.2,0,1,1,2.4,0V94.8a1.2,1.2,0,0,1-1.2,1.2Zm0,0" transform="translate(0 -0.98)"/><path d="M64.71,44.17a4.43,4.43,0,1,1,4.43-4.43,4.44,4.44,0,0,1-4.43,4.43Zm0-6.46a2,2,0,1,0,2,2,2,2,0,0,0-2-2Zm0,0" transform="translate(0 -0.98)"/><path d="M71.36,43.7a1.21,1.21,0,0,1-1.2-1.11,5,5,0,0,0-5.38-4.89,1.2,1.2,0,0,1-.15-2.39,7.31,7.31,0,0,1,7.93,7.11,1.2,1.2,0,0,1-1.11,1.29Zm0,0" transform="translate(0 -0.98)"/><g class="cls-2"><path d="M57.15,82.53h-.07c-3,0-5.23-.73-6.53-2.17a4.34,4.34,0,0,1-1.17-3.07V73.87a1.2,1.2,0,0,1,2.4,0v3.47s0,.08,0,.12a2,2,0,0,0,.59,1.34c.58.61,1.88,1.34,4.74,1.34.82,0,19.72-.22,25.44-36.19a1.2,1.2,0,0,1,2.37.38C79,81.76,58.76,82.53,57.15,82.53Zm0,0" transform="translate(0 -0.98)"/><path d="M68.89,7.24a1.2,1.2,0,0,1-.5-.11C57.89,2.28,50.73,3.52,50.66,3.54a1.2,1.2,0,0,1-.43-2.36c.32-.06,8-1.39,19.17,3.78a1.2,1.2,0,0,1-.51,2.29Zm0,0" transform="translate(0 -0.98)"/><path d="M91.41,58.43a3.05,3.05,0,0,1-1.12-.22c-1.45-.57-2.73-2.16-3.81-4.75l-18-43.81c-.27-.6-1.11-2.78-.13-4.18a2.47,2.47,0,0,1,2.35-1c1.36.09,7.84,2.59,14,5.85,5.85,3.11,13.27,7.88,15.38,13,1.84,4.48.67,12-.64,17.46a73.56,73.56,0,0,1-5.38,15.42c-.72,1.32-1.24,1.91-1.87,2.08a2.43,2.43,0,0,1-.8.13ZM70.34,6.9a4.06,4.06,0,0,0,.38,1.82l18,43.83C89.88,55.38,91,56,91.39,56c1.88-2.16,9.86-23.61,6.5-31.78-1.42-3.45-6.45-7.61-14.15-11.71A72.23,72.23,0,0,0,70.56,6.89Zm0,0" transform="translate(0 -0.98)"/></g><path d="M50.58,96a1.2,1.2,0,0,1-1.2-1.2V76.07a1.2,1.2,0,1,1,2.4,0v17.4A4.37,4.37,0,0,0,54,92.15c2.93-3.11,2.54-10,2.54-10.08A1.2,1.2,0,0,1,57.7,80.8,1.21,1.21,0,0,1,59,81.92c0,.33.45,8-3.18,11.87A6.88,6.88,0,0,1,50.58,96Zm0,0" transform="translate(0 -0.98)"/></g></g></svg>