<svg xmlns="http://www.w3.org/2000/svg" xmlns:xlink="http://www.w3.org/1999/xlink" viewBox="0 0 106.4 84.31"><defs><style>.cls-1{fill:none;}.cls-2{clip-path:url(#clip-path);}</style><clipPath id="clip-path" transform="translate(0 -0.69)"><rect class="cls-1" y="0.04" width="106.8" height="85.92"/></clipPath></defs><title>Ресурс 70</title><g id="Слой_2" data-name="Слой 2"><g id="Слой_1-2" data-name="Слой 1"><path d="M38.71,45.69a5,5,0,1,1,5-5,5,5,0,0,1-5,5Zm0-7.6a2.6,2.6,0,1,0,2.6,2.6,2.61,2.61,0,0,0-2.6-2.6Zm0,0" transform="translate(0 -0.69)"/><path d="M35.53,66a1.25,1.25,0,0,1-.54-.13,1.2,1.2,0,0,1-.52-1.62,17,17,0,0,1,1.67-2.65c.54-.71,1.09-1.35,1.68-2a24.71,24.71,0,0,0,4.63-7.09c3.89-9,4.78-21.16,5.43-30l.07-1c.73-9.93,4.89-10.05,5.38-10l-.09,2.4h.07c-.67.07-2.51,1.61-3,7.83l-.08,1c-.66,9.05-1.57,21.45-5.62,30.82a27.12,27.12,0,0,1-5,7.71c-.56.64-1.08,1.25-1.58,1.9a14.65,14.65,0,0,0-1.44,2.29,1.2,1.2,0,0,1-1.08.66Zm0,0" transform="translate(0 -0.69)"/><g class="cls-2"><path d="M43.54,81.39a9.52,9.52,0,0,1-7.11-3.14,12.76,12.76,0,0,1-3.22-9.48,11.72,11.72,0,0,1,1.66-5.28,1.2,1.2,0,1,1,2.05,1.25,9.29,9.29,0,0,0-1.31,4.21,10.45,10.45,0,0,0,2.58,7.66A7.19,7.19,0,0,0,43.54,79a8.68,8.68,0,0,0,7.22-3.3A6.6,6.6,0,0,0,52,72.81a1.21,1.21,0,0,1,1.36-1,1.19,1.19,0,0,1,1,1.36,8.94,8.94,0,0,1-1.73,4,11.12,11.12,0,0,1-9.09,4.21Zm0,0" transform="translate(0 -0.69)"/><path d="M33.54,9.72a1.2,1.2,0,0,1-.72-2.16C42.93,0,52.89.69,53.3.72a1.2,1.2,0,0,1-.2,2.39A30.52,30.52,0,0,0,34.26,9.48a1.2,1.2,0,0,1-.72.24Zm0,0" transform="translate(0 -0.69)"/></g><path d="M53.22,73.58a9.47,9.47,0,0,1-6.67-3,6.14,6.14,0,0,1-1.94-4.3c.21-4.07,5.27-4.07,8.61-4.07a1.2,1.2,0,0,1,0,2.4c-5.12,0-6.16.66-6.21,1.79a4,4,0,0,0,1.28,2.52,7.17,7.17,0,0,0,4.93,2.28,1.2,1.2,0,1,1,0,2.4Zm0,0" transform="translate(0 -0.69)"/><g class="cls-2"><path d="M52.38,85c-8.7,0-10.66-4.21-10.74-4.39a1.2,1.2,0,0,1,2.18-1c.05.1,1.77,3.21,9.34,3a1.2,1.2,0,1,1,.07,2.4Zm0,0" transform="translate(0 -0.69)"/><path d="M21.29,79.1a7.57,7.57,0,0,1-4.62-2C-4.66,57.78.47,42.38.7,41.74,5.56,26.92,17.29,15.43,17.79,14.95c8.3-8.59,12.8-8.53,13.73-8.4a4.32,4.32,0,0,1,2.83,1.21,3.82,3.82,0,0,1,1.18,2.87,1.15,1.15,0,0,1-.07.38L35,12.24l0,.09L32,18.55c-10,18.58-7.45,31.09-6.2,37.11.18.9.35,1.68.44,2.34a64.76,64.76,0,0,1,.52,10.14c0,.23-.14,4.42-.51,7.11A4.43,4.43,0,0,1,22.35,79a4.67,4.67,0,0,1-1.05.12ZM31.05,8.92c-.61,0-4.39.32-11.57,7.73C19.34,16.79,7.65,28.24,3,42.51c0,.05-1.23,3.68,0,9.48,1.17,5.39,4.77,13.82,15.3,23.36.52.49,2.14,1.64,3.55,1.28l.18,0a2.07,2.07,0,0,0,1.85-1.69c.36-2.57.49-6.81.49-6.86h0a64.58,64.58,0,0,0-.49-9.72c-.08-.58-.24-1.32-.42-2.18-1.31-6.29-4-19.39,6.42-38.68l2.89-6.12.36-1a1.47,1.47,0,0,0-.46-.92,1.92,1.92,0,0,0-1.3-.53l-.23,0Zm0,0" transform="translate(0 -0.69)"/></g><path d="M36.3,77.59a1.21,1.21,0,0,1-.75-.26c-.3-.25-7.54-6.07-10.71-12.23A1.2,1.2,0,0,1,27,64c2.95,5.71,10,11.39,10.08,11.45a1.2,1.2,0,0,1-.75,2.14Zm0,0" transform="translate(0 -0.69)"/><path d="M67.69,45.69a5,5,0,1,1,5-5,5,5,0,0,1-5,5Zm0-7.6a2.6,2.6,0,1,0,2.6,2.6,2.61,2.61,0,0,0-2.6-2.6Zm0,0" transform="translate(0 -0.69)"/><path d="M70.87,66a1.2,1.2,0,0,1-1.07-.66,14.87,14.87,0,0,0-1.44-2.29c-.49-.65-1-1.26-1.57-1.9a27.1,27.1,0,0,1-5-7.71c-4.05-9.37-5-21.76-5.62-30.82l-.07-1c-.46-6.21-2.3-7.75-3-7.82l0-1.2,0-1.2c.5,0,4.64.11,5.38,10l.08,1c.65,8.88,1.54,21,5.43,30a24.64,24.64,0,0,0,4.63,7.09c.58.67,1.13,1.31,1.67,2a17.38,17.38,0,0,1,1.67,2.65,1.2,1.2,0,0,1-.53,1.61,1.18,1.18,0,0,1-.54.13Zm0,0" transform="translate(0 -0.69)"/><g class="cls-2"><path d="M62.86,81.39a11.14,11.14,0,0,1-9.12-4.24,9,9,0,0,1-1.7-4,1.2,1.2,0,1,1,2.38-.35,6.64,6.64,0,0,0,1.21,2.85A8.71,8.71,0,0,0,62.86,79a7.19,7.19,0,0,0,5.35-2.38,10.44,10.44,0,0,0,2.58-7.67,9.28,9.28,0,0,0-1.31-4.21,1.2,1.2,0,1,1,2.05-1.25,11.67,11.67,0,0,1,1.66,5.28A12.73,12.73,0,0,1,70,78.24a9.52,9.52,0,0,1-7.11,3.14Zm0,0" transform="translate(0 -0.69)"/><path d="M72.85,9.72a1.21,1.21,0,0,1-.72-.24A30.52,30.52,0,0,0,53.29,3.12a1.2,1.2,0,0,1-.2-2.39c.42,0,10.37-.75,20.48,6.84a1.2,1.2,0,0,1-.72,2.16Zm0,0" transform="translate(0 -0.69)"/></g><path d="M53.18,73.58a1.2,1.2,0,0,1,0-2.4A7.17,7.17,0,0,0,58.1,68.9a4,4,0,0,0,1.29-2.52c-.06-1.14-1.09-1.79-6.22-1.79a1.2,1.2,0,0,1,0-2.4c3.35,0,8.41,0,8.61,4.07a6.15,6.15,0,0,1-1.94,4.3,9.47,9.47,0,0,1-6.67,3Zm0,0" transform="translate(0 -0.69)"/><g class="cls-2"><path d="M54,85h-.86a1.2,1.2,0,0,1,.07-2.4c7.72.24,9.32-2.92,9.33-2.95a1.2,1.2,0,1,1,2.2,1c-.08.18-2,4.39-10.74,4.39Zm0,0" transform="translate(0 -0.69)"/><path d="M85.1,79.1A4.72,4.72,0,0,1,84,79a4.44,4.44,0,0,1-3.91-3.74c-.37-2.69-.5-6.88-.51-7.11A64.49,64.49,0,0,1,80.14,58c.09-.66.25-1.44.44-2.34,1.25-6,3.84-18.53-6.18-37l-3-6.28,0-.09L70.94,11a1.15,1.15,0,0,1-.08-.38,3.83,3.83,0,0,1,1.19-2.87,4.31,4.31,0,0,1,2.82-1.21c.93-.13,5.43-.18,13.76,8.43.47.45,12.2,11.94,17.07,26.78.22.62,5.35,16-16,35.37a7.53,7.53,0,0,1-4.6,2ZM73.62,11.35l2.93,6.17C87,36.76,84.24,49.85,82.93,56.15c-.18.86-.33,1.6-.41,2.18A63.47,63.47,0,0,0,82,68.05h0s.13,4.28.49,6.86a2.07,2.07,0,0,0,1.86,1.69l.17,0c1.69.42,3.51-1.25,3.53-1.27,20.2-18.3,15.41-32.69,15.36-32.83-4.68-14.3-16.38-25.75-16.5-25.86C79,8.5,75.25,8.92,75.2,8.93l-.18,0a1.92,1.92,0,0,0-1.3.53,1.48,1.48,0,0,0-.46.92Zm0,0" transform="translate(0 -0.69)"/></g><path d="M70.09,77.59a1.22,1.22,0,0,1-.94-.45,1.2,1.2,0,0,1,.19-1.69c.07-.06,7.14-5.75,10.09-11.45a1.2,1.2,0,0,1,2.13,1.1c-3.18,6.16-10.41,12-10.72,12.22a1.2,1.2,0,0,1-.75.26Zm0,0" transform="translate(0 -0.69)"/></g></g></svg>