<svg xmlns="http://www.w3.org/2000/svg" xmlns:xlink="http://www.w3.org/1999/xlink" viewBox="0 0 77.06 123.73"><defs><style>.cls-1{fill:none;}.cls-2{clip-path:url(#clip-path);}</style><clipPath id="clip-path" transform="translate(0 -0.27)"><rect class="cls-1" y="0.16" width="78" height="124.8"/></clipPath></defs><title>Ресурс 56</title><g id="Слой_2" data-name="Слой 2"><g id="Слой_1-2" data-name="Слой 1"><path d="M32,118.67a4.11,4.11,0,1,1,4.11-4.11A4.12,4.12,0,0,1,32,118.67Zm0-5.83a1.71,1.71,0,1,0,1.71,1.72A1.72,1.72,0,0,0,32,112.84Zm0,0" transform="translate(0 -0.27)"/><path d="M34.92,115.76a1.2,1.2,0,0,1-1.19-1.11c0-.41-.52-3.93-5.72-3.93a1.2,1.2,0,0,1,0-2.4c6.07,0,8,4,8.12,6.15A1.2,1.2,0,0,1,35,115.75Zm0,0" transform="translate(0 -0.27)"/><path d="M21.79,71.31a1.2,1.2,0,0,1-1.2-1.14c-.41-8.44-7.33-9-7.62-9.06a1.2,1.2,0,1,1,.17-2.39c.09,0,9.34.8,9.84,11.34a1.2,1.2,0,0,1-1.14,1.26Zm0,0" transform="translate(0 -0.27)"/><g class="cls-2"><path d="M15.34,67.35a4.15,4.15,0,0,1-.65-.06,3.92,3.92,0,0,1-2.5-1.48,3.61,3.61,0,0,1-.71-2.8A3.8,3.8,0,0,1,15.89,60a3.93,3.93,0,0,1,2.5,1.49,3.62,3.62,0,0,1-.85,5.24,3.91,3.91,0,0,1-2.19.67Zm-.11-5a1.37,1.37,0,0,0-1.4,1.09,1.24,1.24,0,0,0,.25,1,1.54,1.54,0,0,0,1,.57,1.56,1.56,0,0,0,1.11-.23,1.22,1.22,0,0,0,.29-1.79,1.54,1.54,0,0,0-1-.58l-.26,0Zm0,0" transform="translate(0 -0.27)"/><path d="M38.64,124H33.19c-5.29,0-7.93-4.57-8-4.76-2.94-5-2.51-11.18-2.17-16.13,0-.59.08-1.17.11-1.73a17.91,17.91,0,0,0-1.76-8.56C4.12,61.13,12.9,40.56,13,40.36c0,0,.37-1.31-1.68-3.74l-.07-.09C8.32,33.07-.58,22.52,0,6.3.06,5.81.4,1.82,2.9.84A4.5,4.5,0,0,1,6.73,1C10,2.54,12.49,7.5,14.11,15.71A71.56,71.56,0,0,1,14.71,37a1.1,1.1,0,0,1-.07.26c1.23,2.39.62,3.88.53,4.07S6.79,61,23.44,91.67a20.18,20.18,0,0,1,2,9.84c0,.57-.07,1.15-.11,1.76-.32,4.62-.72,10.37,1.85,14.77a7.34,7.34,0,0,0,6,3.56h5.45a1.2,1.2,0,0,1,0,2.4ZM4.59,2.89A1.68,1.68,0,0,0,3.92,3l-.13.06C3,3.37,2.5,5.4,2.43,6.42c-.55,14.5,7,24.25,10.19,28a72.81,72.81,0,0,0-.86-18.27c-1.89-9.62-4.55-12.26-6-13a2.66,2.66,0,0,0-1.19-.3Zm0,0" transform="translate(0 -0.27)"/></g><path d="M24.79,29.51a1.2,1.2,0,0,1-.69-2.18,24.65,24.65,0,0,1,4.58-2.53,3.82,3.82,0,0,0,1-1.31,33.68,33.68,0,0,0,1.65-6c1.4-6.22,3-13.28,7.05-13.28a1.2,1.2,0,1,1,0,2.4c-2.14,0-3.81,7.42-4.71,11.41a33.23,33.23,0,0,1-1.85,6.54,5.8,5.8,0,0,1-2,2.3l-.15.07a22.74,22.74,0,0,0-4.23,2.32,1.19,1.19,0,0,1-.69.22Zm0,0" transform="translate(0 -0.27)"/><path d="M38.33,88.85c-5.77,0-7.46-3.43-8-4.56l-.05-.1c-.52-1-2.27-9.57-3-13.2a1.2,1.2,0,1,1,2.35-.48c1.14,5.63,2.5,11.89,2.81,12.62l0,.09c.52,1,1.59,3.22,5.87,3.22a1.2,1.2,0,1,1,0,2.4Zm0,0" transform="translate(0 -0.27)"/><g class="cls-2"><path d="M21.53,90.74h-.2a1.2,1.2,0,0,1-1-1.38c1.87-11,10-10.2,10.12-10.19a1.2,1.2,0,0,1-.26,2.39c-.27,0-6-.46-7.49,8.21a1.2,1.2,0,0,1-1.18,1Zm0,0" transform="translate(0 -0.27)"/><path d="M23.58,30a1.94,1.94,0,0,1-.78-.16A2.55,2.55,0,0,1,21.45,28C18.8,12.22,14,6.26,10.37,4A7.65,7.65,0,0,0,4.71,2.79,1.2,1.2,0,1,1,4,.49,9.85,9.85,0,0,1,11.63,2c5.82,3.61,9.91,12.18,12.16,25.48A1.2,1.2,0,0,1,25,29.55a2.58,2.58,0,0,1-1.4.46Zm0,0" transform="translate(0 -0.27)"/></g><path d="M38.36,44.31c-1.45,0-3.45-.74-4.73-4.26-.52-1.44-5.18-13.55-5.23-13.68a1.2,1.2,0,1,1,2.24-.86c.19.5,4.71,12.26,5.24,13.72.45,1.22,1.23,2.68,2.47,2.68a1.2,1.2,0,0,1,0,2.4Zm0,0" transform="translate(0 -0.27)"/><path d="M45.05,118.67a4.11,4.11,0,1,1,4.11-4.11,4.12,4.12,0,0,1-4.11,4.11Zm0-5.82a1.71,1.71,0,1,0,1.71,1.71,1.71,1.71,0,0,0-1.71-1.71Zm0,0" transform="translate(0 -0.27)"/><path d="M42.14,115.75H42a1.19,1.19,0,0,1-1.1-1.28c.15-2.13,2-6.15,8.11-6.15a1.2,1.2,0,1,1,0,2.4c-5.22,0-5.68,3.53-5.72,3.93a1.21,1.21,0,0,1-1.2,1.1Zm0,0" transform="translate(0 -0.27)"/><path d="M55.27,71.31h-.06a1.2,1.2,0,0,1-1.14-1.26c.51-10.54,9.75-11.33,9.84-11.34a1.2,1.2,0,0,1,.18,2.39c-.31,0-7.22.69-7.63,9.06a1.2,1.2,0,0,1-1.2,1.14Zm0,0" transform="translate(0 -0.27)"/><g class="cls-2"><path d="M61.72,67.35A3.77,3.77,0,0,1,58,64.25a3.62,3.62,0,0,1,.72-2.8A4,4,0,0,1,64,60.58,3.62,3.62,0,0,1,65.59,63a3.8,3.8,0,0,1-3.22,4.29,4.13,4.13,0,0,1-.65.06Zm-1.4-3.49a1.48,1.48,0,0,0,2.89-.47,1.23,1.23,0,0,0-.54-.83,1.54,1.54,0,0,0-1.11-.23,1.52,1.52,0,0,0-1,.57,1.24,1.24,0,0,0-.25,1Zm0,0" transform="translate(0 -0.27)"/><path d="M43.87,124H38.42a1.2,1.2,0,0,1,0-2.4h5.45c3.91,0,5.94-3.51,6-3.55,2.58-4.41,2.18-10.16,1.86-14.78,0-.6-.08-1.19-.11-1.75a20.21,20.21,0,0,1,2-9.84C70.27,61,62,41.52,61.87,41.33s-.69-1.66.53-4.05a1.1,1.1,0,0,1-.07-.26c-1.52-10.18.52-20.86.6-21.31C64.57,7.5,67.05,2.54,70.33,1A4.49,4.49,0,0,1,74.16.85c2.5,1,2.84,5,2.87,5.42.61,16.26-8.28,26.81-11.21,30.27l-.07.08c-2.07,2.45-1.67,3.77-1.66,3.78.08.17,8.86,20.74-8.35,52.42A18.06,18.06,0,0,0,54,101.38c0,.56.07,1.14.11,1.73.34,4.95.77,11.11-2.18,16.14-.1.18-2.75,4.75-8,4.75ZM72.47,2.89a2.62,2.62,0,0,0-1.19.3c-1.42.72-4.08,3.36-6,13a72.82,72.82,0,0,0-.86,18.26c3.14-3.76,10.74-13.52,10.18-28.05-.08-1.19-.61-3-1.36-3.32L73.11,3a1.71,1.71,0,0,0-.64-.11Zm0,0" transform="translate(0 -0.27)"/></g><path d="M52.27,29.51a1.18,1.18,0,0,1-.69-.22A22.8,22.8,0,0,0,47.35,27l-.14-.07a5.77,5.77,0,0,1-2-2.3A34.74,34.74,0,0,1,43.29,18c-.93-4-2.65-11.38-4.66-11.38a1.2,1.2,0,0,1,0-2.4c3.92,0,5.48,6.73,7,13.23a35.08,35.08,0,0,0,1.7,6,3.7,3.7,0,0,0,1.06,1.31A25,25,0,0,1,53,27.33a1.2,1.2,0,0,1-.69,2.18Zm0,0" transform="translate(0 -0.27)"/><path d="M38.73,88.85a1.2,1.2,0,1,1,0-2.4c4.28,0,5.35-2.18,5.87-3.22l.05-.11c.3-.71,1.66-7,2.8-12.6A1.2,1.2,0,1,1,49.8,71c-.73,3.62-2.49,12.17-3,13.2l-.05.1c-.56,1.13-2.25,4.56-8,4.56Zm0,0" transform="translate(0 -0.27)"/><g class="cls-2"><path d="M55.53,90.74a1.2,1.2,0,0,1-1.18-1c-1.48-8.69-7.25-8.23-7.49-8.21a1.2,1.2,0,0,1-.26-2.39c.08,0,8.25-.8,10.12,10.19a1.2,1.2,0,0,1-1,1.39Zm0,0" transform="translate(0 -0.27)"/><path d="M53.48,30a2.56,2.56,0,0,1-1.4-.46,1.2,1.2,0,0,1,1.18-2.08C55.51,14.19,59.6,5.61,65.43,2A9.87,9.87,0,0,1,73,.49a1.2,1.2,0,0,1-.69,2.3,7.55,7.55,0,0,0-5.75,1.3C63,6.35,58.25,12.32,55.61,28a2.56,2.56,0,0,1-1.35,1.87,2,2,0,0,1-.79.16Zm0,0" transform="translate(0 -0.27)"/></g><path d="M38.69,44.31a1.2,1.2,0,0,1,0-2.4c1.24,0,2-1.46,2.47-2.67.53-1.46,5.05-13.22,5.24-13.72a1.2,1.2,0,1,1,2.24.86c0,.12-4.7,12.24-5.22,13.68-1.28,3.52-3.28,4.26-4.73,4.26Zm0,0" transform="translate(0 -0.27)"/></g></g></svg>