<svg xmlns="http://www.w3.org/2000/svg" xmlns:xlink="http://www.w3.org/1999/xlink" viewBox="0 0 98.6 97.39"><defs><style>.cls-1{fill:none;}.cls-2{clip-path:url(#clip-path);}</style><clipPath id="clip-path" transform="translate(0 -0.61)"><rect class="cls-1" y="0.08" width="98.88" height="98.88"/></clipPath></defs><title>Ресурс 55</title><g id="Слой_2" data-name="Слой 2"><g id="Слой_1-2" data-name="Слой 1"><g class="cls-2"><path d="M49,98h-.14C43,97.32,39,95.39,36.93,92.27c-2.85-4.24-1.37-9.5-.67-12,.13-.47.25-.87.28-1.09a6.09,6.09,0,0,0-.82-3.79l-.05-.1C24.15,53.08,25.39,44.31,25.45,44c.35-2.71-.29-3.54-1.45-4a3.55,3.55,0,0,1-2.56-4c.09-2.62,2.6-3.64,3.95-3.81,1.64-.23,2.73-2.56,3-3.43a1.2,1.2,0,0,1,2.29.71c-.06.19-1.47,4.6-5,5.1-.2,0-1.87.3-1.87,1.58a1.15,1.15,0,0,1,0,.32c0,.21,0,.82,1.08,1.26,3.63,1.42,3.14,5.16,3,6.57,0,.11-1.07,8.57,10,29.82a8.44,8.44,0,0,1,1.14,5.42,13.55,13.55,0,0,1-.34,1.36c-.66,2.35-1.88,6.72.35,10C40.61,93.45,44,95,49.12,95.61A1.2,1.2,0,0,1,49,98Zm0,0" transform="translate(0 -0.61)"/><path d="M24.61,42.61c-4.6,0-20-1.23-24.36-17.32a5.53,5.53,0,0,1,2-6.18c.12-.09,3.17-2.05,6.95,1l1.18,1c3.38,2.84,9,7.58,17.48,9.59A1.2,1.2,0,0,1,27.32,33c-9-2.14-14.92-7.11-18.46-10.09L7.71,22c-2.42-2-4.1-.88-4.11-.87-1.76,1.16-1.06,3.48-1.05,3.51,4.56,17,22.38,15.63,23.14,15.56a1.2,1.2,0,0,1,.21,2.39s-.5,0-1.3,0Zm0,0" transform="translate(0 -0.61)"/></g><path d="M26.27,28C22.65,28,17.11,23.78,12,19.6L11.24,19a5.42,5.42,0,0,0-4.86-1.33l-.22.05C4.09,18,2.86,20.92,2.56,22A1.2,1.2,0,0,1,.24,21.4C.3,21.18,1.73,16,5.73,15.34a7.87,7.87,0,0,1,7,1.77l.78.63C23.61,26,26.26,26.08,26.95,25.4a1.23,1.23,0,0,1,.35-.24c.17-.18,1.19-1.46,1.43-7L29.4,9a1.21,1.21,0,0,1,1.28-1.11A1.2,1.2,0,0,1,31.79,9.2l-.66,9.14c-.29,6.48-1.66,8.41-2.68,8.94a3.25,3.25,0,0,1-2.18.74Zm0,0" transform="translate(0 -0.61)"/><path d="M32.27,10A4.7,4.7,0,1,1,37,5.31a4.7,4.7,0,0,1-4.7,4.7Zm0-7a2.3,2.3,0,1,0,2.3,2.3A2.3,2.3,0,0,0,32.27,3Zm0,0" transform="translate(0 -0.61)"/><path d="M40.24,27.62a4.6,4.6,0,0,1-.67,0,5.19,5.19,0,0,1-3.45-1.18c-4.47-3-3.66-15.6-3.45-18.11a1.2,1.2,0,0,1,2.39.2c-.44,5.31-.17,14.34,2.43,16a1.11,1.11,0,0,1,.25.2,2.9,2.9,0,0,0,1.92.55h.19a2.58,2.58,0,0,0,3-2.35l.93-5.08c.32-1.7,1.86-4.91,5.45-4.91a1.2,1.2,0,0,1,0,2.4c-2.48,0-3.06,2.84-3.09,3l-.93,5.06a4.93,4.93,0,0,1-5,4.36Zm0,0" transform="translate(0 -0.61)"/><path d="M30.83,57.09a4,4,0,0,1-2.12-.63h0A3.92,3.92,0,0,1,27,54.2a3.42,3.42,0,0,1,2.74-4.32,3.89,3.89,0,0,1,2.77.57,3.94,3.94,0,0,1,1.74,2.43A3.41,3.41,0,0,1,31.48,57a3.72,3.72,0,0,1-.66.06ZM30,54.44a1.52,1.52,0,0,0,1.08.23,1,1,0,0,0,.85-1.27,1.58,1.58,0,0,0-1.75-1.16,1.08,1.08,0,0,0-.73.46,1.09,1.09,0,0,0-.11.86,1.53,1.53,0,0,0,.67.87Zm0,0" transform="translate(0 -0.61)"/><path d="M34.08,58.36H34a1.2,1.2,0,0,1-1.1-1.29c.16-2.05-.24-3.53-1.18-4.39a4.82,4.82,0,0,0-3.58-.91,1.2,1.2,0,1,1-.4-2.36,7.2,7.2,0,0,1,5.6,1.5c1.52,1.38,2.18,3.52,2,6.34a1.2,1.2,0,0,1-1.19,1.11Zm0,0" transform="translate(0 -0.61)"/><path d="M42.73,90.35a3.6,3.6,0,1,1,3.6-3.6,3.61,3.61,0,0,1-3.6,3.6Zm0-4.8a1.2,1.2,0,1,0,1.2,1.2,1.2,1.2,0,0,0-1.2-1.2Zm0,0" transform="translate(0 -0.61)"/><path d="M46.88,91.24a1.2,1.2,0,0,1-1.2-1.2c0-4.23-2.91-4.5-3-4.5a1.2,1.2,0,0,1,.17-2.4c1.82.13,5.26,1.75,5.26,6.9a1.19,1.19,0,0,1-1.2,1.2Zm0,0" transform="translate(0 -0.61)"/><g class="cls-2"><path d="M49.62,98a1.2,1.2,0,0,1-.14-2.39c5.08-.59,8.51-2.16,10.2-4.67,2.23-3.32,1-7.69.35-10-.16-.56-.28-1-.34-1.36a8.47,8.47,0,0,1,1.14-5.42c11-21.25,10-29.71,10-29.79-.19-1.43-.68-5.18,2.95-6.6,1.28-.5,1.09-1.23,1.08-1.26a1.15,1.15,0,0,1,0-.32c0-1.28-1.67-1.55-1.86-1.58-3.52-.5-4.93-4.91-5-5.1a1.2,1.2,0,0,1,2.29-.71c.28.87,1.36,3.2,3,3.43,1.32.17,3.84,1.18,3.93,3.81a3.55,3.55,0,0,1-2.56,4c-1.16.45-1.8,1.29-1.45,4,.06.33,1.29,9.09-10.22,31.28l-.06.11a6.09,6.09,0,0,0-.82,3.79c0,.21.15.62.28,1.09.71,2.52,2.18,7.78-.67,12-2.09,3.12-6.1,5-11.91,5.72Zm0,0" transform="translate(0 -0.61)"/><path d="M74,42.61c-.8,0-1.28,0-1.3,0a1.2,1.2,0,1,1,.21-2.39c.75.06,18.59,1.41,23.13-15.52,0-.14.7-2.41-1-3.55-.17-.1-1.8-1-4.12.86l-1.15.95c-3.55,3-9.48,7.95-18.46,10.09a1.2,1.2,0,0,1-.56-2.34c8.43-2,14.09-6.75,17.48-9.59l1.18-1c3.77-3.05,6.82-1.08,7-1,2.6,1.71,2.45,4.82,2,6.23C94,41.38,78.61,42.61,74,42.61Zm0,0" transform="translate(0 -0.61)"/></g><path d="M72.34,28a3.26,3.26,0,0,1-2.18-.74c-1-.53-2.39-2.46-2.68-9l-.67-9.1A1.2,1.2,0,1,1,69.2,9l.67,9.13c.24,5.53,1.26,6.82,1.43,7a1.21,1.21,0,0,1,.35.24c.68.68,3.33.6,13.42-7.65l.78-.64a7.87,7.87,0,0,1,7-1.77c4,.64,5.43,5.84,5.49,6.07A1.2,1.2,0,1,1,96,22c-.3-1.1-1.53-4-3.6-4.32l-.23-.06A5.43,5.43,0,0,0,87.36,19l-.77.62C81.49,23.78,76,28,72.34,28Zm0,0" transform="translate(0 -0.61)"/><path d="M66.34,10a4.69,4.69,0,1,1,2.14-.51,4.7,4.7,0,0,1-2.14.51Zm0-7a2.3,2.3,0,1,0,0,4.6,2.3,2.3,0,0,0,2.3-2.3A2.31,2.31,0,0,0,66.34,3Zm0,0" transform="translate(0 -0.61)"/><path d="M58.36,27.62a4.94,4.94,0,0,1-5-4.38l-.93-5c0-.12-.6-3-3-3h-.06a1.2,1.2,0,0,1,0-2.4h.08c3.55,0,5.07,3.21,5.38,4.92l.93,5.07a2.58,2.58,0,0,0,3,2.36h.18a2.89,2.89,0,0,0,1.95-.57,1.72,1.72,0,0,1,.22-.18c2.6-1.61,2.87-10.64,2.44-15.95a1.2,1.2,0,1,1,2.39-.2c.21,2.52,1,15.14-3.45,18.12A5.22,5.22,0,0,1,59,27.58a5.36,5.36,0,0,1-.67,0Zm0,0" transform="translate(0 -0.61)"/><path d="M67.78,57.09a3.74,3.74,0,0,1-.66-.06,3.42,3.42,0,0,1-2.78-4.16,3.93,3.93,0,0,1,1.74-2.43,3.87,3.87,0,0,1,2.77-.57,3.41,3.41,0,0,1,2.74,4.32,3.91,3.91,0,0,1-1.7,2.27,4,4,0,0,1-2.12.63Zm.42-4.88a1.55,1.55,0,0,0-.83.25,1.51,1.51,0,0,0-.68.93,1.08,1.08,0,0,0,.12.8,1.06,1.06,0,0,0,.73.46,1.53,1.53,0,0,0,1.07-.23,1.5,1.5,0,0,0,.67-.88,1,1,0,0,0-.84-1.32l-.24,0Zm0,0" transform="translate(0 -0.61)"/><path d="M64.53,58.36a1.2,1.2,0,0,1-1.2-1.11c-.22-2.83.44-5,2-6.34a7.2,7.2,0,0,1,5.6-1.5,1.2,1.2,0,0,1-.4,2.36,4.83,4.83,0,0,0-3.6.91c-.93.86-1.33,2.33-1.17,4.38a1.2,1.2,0,0,1-1.11,1.29Zm0,0" transform="translate(0 -0.61)"/><path d="M55.87,90.35a3.6,3.6,0,1,1,3.6-3.6,3.61,3.61,0,0,1-3.6,3.6Zm0-4.8a1.2,1.2,0,1,0,1.2,1.2,1.2,1.2,0,0,0-1.2-1.2Zm0,0" transform="translate(0 -0.61)"/><path d="M51.72,91.24a1.2,1.2,0,0,1-1.2-1.2c0-5.16,3.45-6.77,5.27-6.9a1.2,1.2,0,0,1,.18,2.4c-.32,0-3.05.42-3.05,4.5a1.19,1.19,0,0,1-1.2,1.2Zm0,0" transform="translate(0 -0.61)"/><path d="M45.8,75.38a1.2,1.2,0,0,1-1.14-1.58,8.54,8.54,0,0,0,.07-1.05c-4.08-7.63-5.78-20.91-5.86-21.48a1.2,1.2,0,0,1,2.38-.3c0,.14,1.75,13.73,5.73,20.9a1.21,1.21,0,0,1,.15.58,8.56,8.56,0,0,1-.19,2.11,1.21,1.21,0,0,1-1.14.82Zm0,0" transform="translate(0 -0.61)"/><path d="M52.87,75.39a1.22,1.22,0,0,1-1.15-.83,8.54,8.54,0,0,1-.2-2.12,1.19,1.19,0,0,1,.15-.58c4-7.18,5.71-20.77,5.73-20.9a1.2,1.2,0,0,1,2.38.3c-.07.57-1.77,13.85-5.86,21.48A7.7,7.7,0,0,0,54,73.82a1.19,1.19,0,0,1-.76,1.51,1.3,1.3,0,0,1-.38.06Zm0,0" transform="translate(0 -0.61)"/><path d="M41.43,40.35a1.7,1.7,0,1,1-1.7-1.7,1.7,1.7,0,0,1,1.7,1.7Zm0,0" transform="translate(0 -0.61)"/><path d="M60.33,40.35a1.7,1.7,0,1,1-1.7-1.7,1.7,1.7,0,0,1,1.7,1.7Zm0,0" transform="translate(0 -0.61)"/><path d="M51,35.44a1.7,1.7,0,1,1-1.7-1.7,1.7,1.7,0,0,1,1.7,1.7Zm0,0" transform="translate(0 -0.61)"/></g></g></svg>