<svg xmlns="http://www.w3.org/2000/svg" xmlns:xlink="http://www.w3.org/1999/xlink" viewBox="0 0 81.62 100.6"><defs><style>.cls-1{fill:none;}.cls-2{clip-path:url(#clip-path);}</style><clipPath id="clip-path" transform="translate(0 -0.4)"><rect class="cls-1" y="0.2" width="81.84" height="101.76"/></clipPath></defs><title>Ресурс 42</title><g id="Слой_2" data-name="Слой 2"><g id="Слой_1-2" data-name="Слой 1"><g class="cls-2"><path d="M5.07,42.4a1.27,1.27,0,0,1-.32,0,1.2,1.2,0,0,1-.84-1.48C8.68,23.63,15.62,12.24,25.79,5A25.21,25.21,0,0,1,40.74.4a1.2,1.2,0,1,1,0,2.4A23.06,23.06,0,0,0,27.23,6.94c-9.75,6.92-16.4,17.89-21,34.58a1.2,1.2,0,0,1-1.16.88Zm0,0" transform="translate(0 -0.4)"/><path d="M6.77,55.19A6.42,6.42,0,0,1,5.24,55,6.57,6.57,0,0,1,.76,51.65a7.8,7.8,0,0,1-.5-5.4A7.85,7.85,0,0,1,3,41.66a6.59,6.59,0,0,1,5.65-.93,6.73,6.73,0,0,1,4.46,3.66,1.2,1.2,0,1,1-2.16,1,4.35,4.35,0,0,0-2.87-2.38,4.22,4.22,0,0,0-3.65.52,5.52,5.52,0,0,0-1.88,3.22,5.43,5.43,0,0,0,.3,3.73A4.18,4.18,0,0,0,5.8,52.67a4.33,4.33,0,0,0,3.71-.86A1.2,1.2,0,1,1,11,53.7a6.82,6.82,0,0,1-4.22,1.49Zm0,0" transform="translate(0 -0.4)"/></g><path d="M8.36,51.75H8.12a3.53,3.53,0,0,1-2.07-6.19,3.53,3.53,0,0,1,5.27.74,1.2,1.2,0,1,1-2,1.31,1.13,1.13,0,0,0-1.69-.24,1.13,1.13,0,1,0,1.5,1.69,1.2,1.2,0,0,1,1.62,1.77,3.56,3.56,0,0,1-2.39.93Zm0,0" transform="translate(0 -0.4)"/><path d="M33.27,22.53a1.17,1.17,0,0,1-.54-.13,1.2,1.2,0,0,1-.52-1.61c.13-.25,3.27-6.3,8.09-6.5,2.9-.11,5.64,1.86,8.13,5.88a1.2,1.2,0,1,1-2,1.26c-2-3.23-4-4.83-6-4.75-2.84.11-5.34,3.79-6.06,5.2a1.2,1.2,0,0,1-1.07.65Zm0,0" transform="translate(0 -0.4)"/><path d="M27.08,56.11A50.93,50.93,0,0,1,16.74,55l-.22-.07a2.33,2.33,0,0,1-1.26-2.84,77.58,77.58,0,0,1,3.91-9.66c1.64-2.84,5.37-4.09,5.85-4.23a76.93,76.93,0,0,1,12.24-2.76,4.38,4.38,0,0,1,3.51.84,3.46,3.46,0,0,1,1.16,2.39h0l.17,10.43a1.28,1.28,0,0,1-.12.54c-2.5,5.22-9.09,6.49-14.91,6.49Zm-9.5-3.41c2.38.5,18.25,3.47,22.13-3.87l-.16-10.11a1.06,1.06,0,0,0-.35-.66,2.22,2.22,0,0,0-1.64-.26,74.57,74.57,0,0,0-11.72,2.63l-.09,0s-3.27,1-4.5,3.15a75.77,75.77,0,0,0-3.68,9.09Zm0,0" transform="translate(0 -0.4)"/><path d="M29.11,59.3A4.1,4.1,0,0,1,25,55.2a1.2,1.2,0,0,1,2.4,0,1.7,1.7,0,0,0,3.4,0,1.2,1.2,0,1,1,2.4,0,4.1,4.1,0,0,1-4.1,4.1Zm0,0" transform="translate(0 -0.4)"/><path d="M27.26,67.55a1.22,1.22,0,0,1-.35-.05c-9.34-2.83-11.4-13.14-11.48-13.58a1.2,1.2,0,0,1,2.36-.45c0,.15,1.91,9.33,9.82,11.73a1.2,1.2,0,0,1-.35,2.35Zm0,0" transform="translate(0 -0.4)"/><path d="M36.21,78.4l-.22,0c-5-.89-8.17-2.75-9.54-5.54a7.81,7.81,0,0,1,.09-6.6,5.9,5.9,0,0,1,4.33-3.36c4.22-.67,8.78,3.66,9,3.85a1.2,1.2,0,1,1-1.66,1.73c-1.07-1-4.41-3.6-6.93-3.21a3.59,3.59,0,0,0-2.58,2.11,5.46,5.46,0,0,0,0,4.44c1,2,3.7,3.47,7.8,4.21a1.2,1.2,0,0,1-.21,2.38Zm0,0" transform="translate(0 -0.4)"/><path d="M24.62,92.27a2,2,0,0,1-.87-.2,2.12,2.12,0,0,1-1.13-1.56c-.92-6.74,1-10.75,2.73-12.93a10.31,10.31,0,0,1,4.28-3.25,1.2,1.2,0,0,1,.77,2.27c-.3.11-6.72,2.53-5.46,13.13l.06,0c.23-.13.69-.5,1.19-.9,2.57-2,7.93-6.32,14.64-6.13A1.2,1.2,0,0,1,42,83.9a1.21,1.21,0,0,1-1.23,1.17c-5.87-.16-10.55,3.59-13.09,5.6a14.93,14.93,0,0,1-1.48,1.1,3.2,3.2,0,0,1-1.59.5Zm0,0" transform="translate(0 -0.4)"/><g class="cls-2"><path d="M40.81,101C25.22,101,23,91.55,22.93,91.15a1.2,1.2,0,0,1,2.35-.51c.08.34,2,8,15.53,8a1.2,1.2,0,0,1,0,2.4Zm0,0" transform="translate(0 -0.4)"/><path d="M23.81,92.93a1.13,1.13,0,0,1-.41-.07C-1.37,83.9,3,53.72,3.09,53.42a1.2,1.2,0,0,1,2.37.37A46.66,46.66,0,0,0,6.18,69.2c2.39,10.74,8.46,17.94,18,21.4a1.2,1.2,0,0,1-.41,2.33Zm0,0" transform="translate(0 -0.4)"/><path d="M57.66,92.93a1.2,1.2,0,0,1-.41-2.33C80.19,82.31,76.05,54.07,76,53.79a1.2,1.2,0,1,1,2.37-.37c.05.3,4.47,30.48-20.31,39.45a1.15,1.15,0,0,1-.41.07Zm0,0" transform="translate(0 -0.4)"/></g><path d="M36.34,74.37a8.41,8.41,0,0,1-3.55-1A3.78,3.78,0,0,1,30.73,71a2.46,2.46,0,0,1,.38-1.94A2.54,2.54,0,0,1,32.9,68a3.66,3.66,0,0,1,2.84,1.15c1.36,1.23,2.8,3.59,2,4.63a1.66,1.66,0,0,1-1.44.54Zm-3.16-3.94h0a.14.14,0,0,0-.09.05c0,.15.25.45.89.8a5.62,5.62,0,0,0,.83.38,6.19,6.19,0,0,0-.65-.69c-.56-.51-.87-.54-.95-.54Zm0,0" transform="translate(0 -0.4)"/><path d="M76.27,42.6a1.2,1.2,0,0,1-1.16-.88C70.49,24.93,63.73,13.57,54.44,7A23.26,23.26,0,0,0,40.88,2.8a1.2,1.2,0,1,1,0-2.4,25.21,25.21,0,0,1,15,4.68c9.7,6.88,16.76,18.67,21.54,36a1.2,1.2,0,0,1-.84,1.48,1.11,1.11,0,0,1-.32,0Zm0,0" transform="translate(0 -0.4)"/><path d="M74.84,55.19a6.85,6.85,0,0,1-4.22-1.49,1.2,1.2,0,0,1,1.48-1.89,4.33,4.33,0,0,0,3.71.86,4.19,4.19,0,0,0,2.91-2.12,5.43,5.43,0,0,0,.3-3.73,5.53,5.53,0,0,0-1.88-3.22,4.21,4.21,0,0,0-3.65-.52,4.34,4.34,0,0,0-2.87,2.37,1.2,1.2,0,1,1-2.16-1,6.73,6.73,0,0,1,4.46-3.66,6.56,6.56,0,0,1,5.65.93,7.85,7.85,0,0,1,2.79,4.59,7.8,7.8,0,0,1-.5,5.4,6.94,6.94,0,0,1-6,3.54Zm0,0" transform="translate(0 -0.4)"/><path d="M73.26,51.75a3.55,3.55,0,0,1-2.39-.93A1.2,1.2,0,0,1,72.49,49a1.11,1.11,0,0,0,.84.3,1.13,1.13,0,0,0,1-1.21,1.1,1.1,0,0,0-.39-.77,1.13,1.13,0,0,0-1.69.24,1.2,1.2,0,1,1-2-1.31A3.53,3.53,0,0,1,76.77,48a3.53,3.53,0,0,1-3.27,3.77Zm0,0" transform="translate(0 -0.4)"/><path d="M54.54,56.11c-5.82,0-12.42-1.27-14.91-6.49a1.28,1.28,0,0,1-.12-.54l.17-10.43h0a3.46,3.46,0,0,1,1.16-2.39,4.38,4.38,0,0,1,3.52-.84A77.38,77.38,0,0,1,56.6,38.17c.48.15,4.21,1.39,5.85,4.23A77.84,77.84,0,0,1,66.34,52,2.34,2.34,0,0,1,65.1,54.9l-.22.07a50.93,50.93,0,0,1-10.34,1.14ZM41.91,48.83C45.79,56.16,61.59,53.21,64,52.7a72.05,72.05,0,0,0-3.65-9.1c-1.24-2.14-4.47-3.14-4.51-3.15l-.08,0a74.58,74.58,0,0,0-11.72-2.63,2.22,2.22,0,0,0-1.64.26,1.07,1.07,0,0,0-.35.67Zm0,0" transform="translate(0 -0.4)"/><path d="M52.51,59.3a4.1,4.1,0,0,1-4.1-4.1,1.2,1.2,0,0,1,2.4,0,1.7,1.7,0,0,0,3.4,0,1.2,1.2,0,0,1,2.4,0,4.1,4.1,0,0,1-4.1,4.1Zm0,0" transform="translate(0 -0.4)"/><path d="M54.36,67.55A1.2,1.2,0,0,1,54,65.2c8-2.41,9.8-11.63,9.82-11.73a1.2,1.2,0,0,1,2.36.45C66.1,54.36,64,64.67,54.71,67.5a1.22,1.22,0,0,1-.35.05Zm0,0" transform="translate(0 -0.4)"/><path d="M45.41,78.4A1.2,1.2,0,0,1,45.19,76c4.1-.73,6.79-2.19,7.8-4.21a5.46,5.46,0,0,0-.05-4.46,3.57,3.57,0,0,0-2.57-2.09c-2.52-.4-5.86,2.18-6.94,3.21a1.2,1.2,0,1,1-1.66-1.73c.19-.18,4.75-4.52,9-3.85a5.87,5.87,0,0,1,4.32,3.34,7.8,7.8,0,0,1,.1,6.61c-1.37,2.78-4.58,4.64-9.54,5.54l-.22,0Zm0,0" transform="translate(0 -0.4)"/><path d="M57,92.27a3.2,3.2,0,0,1-1.59-.5,14.94,14.94,0,0,1-1.48-1.1c-2.53-2-7.23-5.77-13.09-5.6a1.2,1.2,0,0,1-.06-2.4c6.71-.17,12.07,4.09,14.65,6.13a14.89,14.89,0,0,0,1.19.9l.07,0C58,79.12,51.5,76.7,51.22,76.6A1.2,1.2,0,0,1,52,74.33a10.29,10.29,0,0,1,4.27,3.25C58,79.76,59.92,83.77,59,90.5a2.13,2.13,0,0,1-1.13,1.57,2,2,0,0,1-.87.2Zm0,0" transform="translate(0 -0.4)"/><path d="M40.81,101a1.2,1.2,0,0,1,0-2.4c13.55,0,15.45-7.63,15.53-8a1.2,1.2,0,0,1,2.35.51c-.09.4-2.29,9.85-17.87,9.85Zm0,0" transform="translate(0 -0.4)"/><path d="M45.3,74.36a1.71,1.71,0,0,1-1.49-.57c-.73-1,.7-3.37,2.07-4.6A3.69,3.69,0,0,1,48.72,68a2.54,2.54,0,0,1,1.79,1.06A2.45,2.45,0,0,1,50.89,71a3.78,3.78,0,0,1-2.06,2.34,8.36,8.36,0,0,1-3.53,1Zm3.14-3.93c-.09,0-.39,0-1,.54a6.28,6.28,0,0,0-.65.69,5.62,5.62,0,0,0,.83-.37c.64-.35.86-.66.89-.78a.1.1,0,0,0-.09-.08Zm0,0" transform="translate(0 -0.4)"/></g></g></svg>