<svg xmlns="http://www.w3.org/2000/svg" xmlns:xlink="http://www.w3.org/1999/xlink" viewBox="0 0 129.27 95.08"><defs><style>.cls-1{fill:none;}.cls-2{clip-path:url(#clip-path);}</style><clipPath id="clip-path" transform="translate(0 -0.91)"><rect class="cls-1" width="129.84" height="96.96"/></clipPath></defs><title>Ресурс 44</title><g id="Слой_2" data-name="Слой 2"><g id="Слой_1-2" data-name="Слой 1"><path d="M48.89,94.51h-.52c-17.06,0-31-14.28-31-31.83a32.45,32.45,0,0,1,6.34-19l.23-.38c1.55-2.38,9.34-14.48,12.58-22.95C41.78,6.73,50.73.54,64.7.93a1.2,1.2,0,0,1,1.17,1.23,1.22,1.22,0,0,1-1.23,1.17c-13-.37-21,5.16-25.85,17.89C35.54,29.71,28.18,41.26,26,44.6l-.23.4-.07.09A30,30,0,0,0,19.8,62.67C19.8,78.9,32.63,92.1,48.4,92.1c3.66.11,13.34-.7,15-5.49V83.13a1.2,1.2,0,0,1,2.4,0V86.8a1.19,1.19,0,0,1-.06.35c-2.12,7-14.14,7.36-16.85,7.36Zm0,0" transform="translate(0 -0.91)"/><path d="M45.15,47.18a3.53,3.53,0,0,1-1.87-.51c-2.05-1.26-2.38-4.34-.74-7s4.53-3.78,6.58-2.52,2.38,4.34.74,7a5.83,5.83,0,0,1-4.71,3ZM47.26,39a3.53,3.53,0,0,0-2.67,1.88c-1,1.6-.81,3.23-.05,3.7s2.3-.13,3.28-1.73.82-3.23.05-3.7a1.12,1.12,0,0,0-.61-.16Zm0,0" transform="translate(0 -0.91)"/><path d="M61.07,80.27a1.19,1.19,0,0,1-.85-.35c-1.15-1.15-3.5-3.11-3.52-3.12a1.2,1.2,0,1,1,1.53-1.85c.1.09,2.46,2.05,3.68,3.28a1.2,1.2,0,0,1-.85,2Zm0,0" transform="translate(0 -0.91)"/><path d="M32.55,32a1.2,1.2,0,0,1-1.06-.64,4.45,4.45,0,0,0-3-2.47,3.56,3.56,0,0,0-2.77.5,3,3,0,0,1-2.54.77,2.54,2.54,0,0,1-1.68-1.29c-2.06-4,4.28-11.33,7.93-14.63A8.68,8.68,0,0,1,41,13.75a1.2,1.2,0,0,1-1.54,1.84,6.35,6.35,0,0,0-8.43.36c-5.41,4.9-8.24,10.14-7.41,11.77l.05,0a1.23,1.23,0,0,0,.53-.3,5.93,5.93,0,0,1,4.76-1,6.7,6.7,0,0,1,4.61,3.7,1.2,1.2,0,0,1-.5,1.62,1.25,1.25,0,0,1-.56.14Zm0,0" transform="translate(0 -0.91)"/><path d="M38.7,59.11A19.9,19.9,0,0,1,32,57.71a23.7,23.7,0,0,1-3.71-1.8A8.85,8.85,0,0,0,25,54.58c-2.18-.37-4.21,2-4.24,2A1.2,1.2,0,0,1,19,55c.12-.14,2.93-3.42,6.47-2.81a11.06,11.06,0,0,1,4.07,1.61,21.55,21.55,0,0,0,3.4,1.65,16.39,16.39,0,0,0,6.68,1.18c4.07-.47,7.22-1.55,9.35-5.25l.06-.1a21.42,21.42,0,0,0,3.08-10,150.61,150.61,0,0,1,3-21.74c2.33-10,5.43-14.94,9.45-14.94h0a1.2,1.2,0,0,1,0,2.4h0C59.46,7,55.63,24.36,54.5,41.48A23.64,23.64,0,0,1,51,52.64c-2.79,4.82-7.19,5.94-11.13,6.4a10,10,0,0,1-1.19.07Zm0,0" transform="translate(0 -0.91)"/><path d="M64.54,96c-7.74,0-12.25-1.74-12.44-1.82A1.2,1.2,0,0,1,53,91.95,35.05,35.05,0,0,0,64.53,93.6a1.2,1.2,0,1,1,0,2.4Zm0,0" transform="translate(0 -0.91)"/><g class="cls-2"><path d="M44.13,72.13a1.19,1.19,0,0,1-.43-.08L5.3,57.25A1.2,1.2,0,1,1,6.16,55l38.4,14.8a1.2,1.2,0,0,1-.43,2.32Zm0,0" transform="translate(0 -0.91)"/><path d="M1.2,86.53a1.2,1.2,0,0,1-.25-2.37L40,75.76a1.2,1.2,0,0,1,.5,2.35L1.45,86.51a1.12,1.12,0,0,1-.25,0Zm0,0" transform="translate(0 -0.91)"/></g><path d="M80.35,94.51c-2.69,0-14.72-.39-16.84-7.36a1.15,1.15,0,0,1-.05-.35V83.13a1.2,1.2,0,0,1,2.4,0v3.48c1.66,4.79,11.34,5.59,15,5.49,15.8,0,28.63-13.2,28.63-29.43a30,30,0,0,0-5.9-17.58l-.07-.09-.26-.43c-2.16-3.3-9.52-14.85-12.77-23.33C85.6,8.5,77.64,3,64.63,3.33A1.21,1.21,0,0,1,63.4,2.17,1.2,1.2,0,0,1,64.57.94c14-.38,22.93,5.79,28.16,19.43,3.25,8.47,11,20.57,12.56,22.91l.25.41a32.48,32.48,0,0,1,6.34,19c0,17.55-13.91,31.84-31,31.84Zm0,0" transform="translate(0 -0.91)"/><path d="M84.12,47.18a5.83,5.83,0,0,1-4.71-3c-1.64-2.66-1.31-5.74.74-7s4.94-.15,6.58,2.52,1.31,5.75-.74,7a3.55,3.55,0,0,1-1.87.51ZM82,39a1.12,1.12,0,0,0-.61.16c-.76.47-.93,2.11.05,3.7s2.52,2.19,3.28,1.73.93-2.11,0-3.7A3.53,3.53,0,0,0,82,39Zm0,0" transform="translate(0 -0.91)"/><path d="M68.2,80.27a1.2,1.2,0,0,1-.85-2C68.57,77,70.93,75,71,74.94a1.2,1.2,0,0,1,1.54,1.85s-2.38,2-3.52,3.13a1.18,1.18,0,0,1-.85.35Zm0,0" transform="translate(0 -0.91)"/><path d="M96.71,32a1.18,1.18,0,0,1-.55-.14,1.2,1.2,0,0,1-.51-1.62,6.7,6.7,0,0,1,4.61-3.7,5.93,5.93,0,0,1,4.75,1,1.16,1.16,0,0,0,.54.29l.06-.07c.82-1.59-2-6.83-7.42-11.73a6.29,6.29,0,0,0-8.42-.37,1.2,1.2,0,0,1-1.54-1.84,8.68,8.68,0,0,1,11.58.43c3.64,3.3,10,10.62,7.93,14.64a2.54,2.54,0,0,1-1.67,1.29,3,3,0,0,1-2.55-.77,3.54,3.54,0,0,0-2.77-.5,4.43,4.43,0,0,0-3,2.47,1.2,1.2,0,0,1-1.07.64Zm0,0" transform="translate(0 -0.91)"/><path d="M90.57,59.11A10,10,0,0,1,89.38,59c-3.94-.46-8.34-1.58-11.13-6.4a23.6,23.6,0,0,1-3.48-11.16C73.63,24.36,69.81,7,64.69,7h0a1.2,1.2,0,0,1,0-2.4h0c4,0,7.12,4.89,9.45,14.94a150.21,150.21,0,0,1,3,21.73,21.24,21.24,0,0,0,3.08,10l.06.09c2.13,3.71,5.27,4.78,9.35,5.26a16.35,16.35,0,0,0,6.65-1.17,21.3,21.3,0,0,0,3.43-1.67,11.08,11.08,0,0,1,4.07-1.61c3.54-.61,6.35,2.67,6.47,2.81a1.2,1.2,0,0,1-1.83,1.55c-.05-.06-2.07-2.37-4.23-2a8.9,8.9,0,0,0-3.28,1.32,23.66,23.66,0,0,1-3.75,1.82,19.76,19.76,0,0,1-6.62,1.39Zm0,0" transform="translate(0 -0.91)"/><path d="M64.73,96a1.2,1.2,0,1,1,0-2.4A35.17,35.17,0,0,0,76.3,92a1.2,1.2,0,0,1,.87,2.23C77,94.26,72.47,96,64.73,96Zm0,0" transform="translate(0 -0.91)"/><path d="M85.13,72.13a1.2,1.2,0,0,1-.43-2.32L123.1,55a1.2,1.2,0,0,1,.86,2.24l-38.4,14.8a1.21,1.21,0,0,1-.43.08Zm0,0" transform="translate(0 -0.91)"/><path d="M128.07,86.53a1.1,1.1,0,0,1-.25,0l-39.07-8.4a1.2,1.2,0,0,1,.5-2.35l39.07,8.4a1.2,1.2,0,0,1-.25,2.37Zm0,0" transform="translate(0 -0.91)"/></g></g></svg>