<svg xmlns="http://www.w3.org/2000/svg" xmlns:xlink="http://www.w3.org/1999/xlink" viewBox="0 0 60.21 114.52"><defs><style>.cls-1{fill:none;}.cls-2{clip-path:url(#clip-path);}</style><clipPath id="clip-path" transform="translate(0 -0.48)"><rect class="cls-1" y="0.04" width="60.96" height="115.92"/></clipPath></defs><title>Ресурс 46</title><g id="Слой_2" data-name="Слой 2"><g id="Слой_1-2" data-name="Слой 1"><path d="M7.79,27.58a1.21,1.21,0,0,1-.94-.45A16.29,16.29,0,0,1,3.28,16.33c.33-6,4.36-6.27,4.54-6.28A1.21,1.21,0,0,1,9,10.87c.32,1,3,6.41,4.79,9.83a1.2,1.2,0,0,1-.5,1.61A14.27,14.27,0,0,0,8.83,27a1.21,1.21,0,0,1-.95.59ZM7.22,12.75c-.62.42-1.41,1.41-1.54,3.75a14,14,0,0,0,2.1,7.77,16.46,16.46,0,0,1,3.4-3.47c-1-1.91-3-5.94-4-8.06Zm0,0" transform="translate(0 -0.48)"/><path d="M52.23,27.58h-.08a1.22,1.22,0,0,1-1-.59s-2-3.37-4.48-4.69a1.19,1.19,0,0,1-.5-1.6C48,17.27,50.68,11.83,51,10.87a1.2,1.2,0,0,1,1.21-.82c.17,0,4.2.32,4.54,6.31a16.26,16.26,0,0,1-3.58,10.77,1.21,1.21,0,0,1-.94.45Zm-3.38-6.77a16.48,16.48,0,0,1,3.41,3.47,13.89,13.89,0,0,0,2.1-7.74c-.13-2.36-.92-3.36-1.55-3.78-1,2.11-3,6.14-4,8.05Zm0,0" transform="translate(0 -0.48)"/><path d="M23.7,109.67a4.11,4.11,0,1,1,4.11-4.11,4.12,4.12,0,0,1-4.11,4.11Zm0-5.82a1.71,1.71,0,1,0,1.71,1.71,1.71,1.71,0,0,0-1.71-1.71Zm0,0" transform="translate(0 -0.48)"/><path d="M26.61,106.76a1.2,1.2,0,0,1-1.2-1.1c0-.41-.51-3.93-5.72-3.93a1.2,1.2,0,0,1,0-2.4c6.07,0,8,4,8.12,6.15a1.2,1.2,0,0,1-1.11,1.28Zm0,0" transform="translate(0 -0.48)"/><path d="M16.28,97a1.2,1.2,0,0,1-.7-2.18c3.34-2.4,8.84-6.4,9.36-6.88l.14-.12a3.24,3.24,0,0,0,1-2.38c.1-2.24,0-23.62,0-23.84a1.27,1.27,0,0,1,0-.21A2.26,2.26,0,0,0,25.46,60c-1.12-1.33-5.28-8-5.75-8.8L19.64,51a3,3,0,0,1,0-2.32c.3-.7,8.5-17.73,9.44-19.66a1.2,1.2,0,0,1,2.16,1c-3.65,7.57-9.16,19-9.39,19.57a.58.58,0,0,0,0,.35c1.3,2.1,4.64,7.41,5.48,8.41a4.51,4.51,0,0,1,1.19,3.29c0,1.59.09,21.63,0,23.89a5.55,5.55,0,0,1-1.93,4.17c-1,.88-7.53,5.58-9.56,7a1.21,1.21,0,0,1-.7.23Zm0,0" transform="translate(0 -0.48)"/><path d="M13.48,62.31a1.2,1.2,0,0,1-1.2-1.14c-.41-8.44-7.33-9-7.62-9.06a1.2,1.2,0,0,1-1.11-1.28,1.21,1.21,0,0,1,1.28-1.11c.09,0,9.34.8,9.85,11.34a1.2,1.2,0,0,1-1.14,1.26Zm0,0" transform="translate(0 -0.48)"/><g class="cls-2"><path d="M7,58.35a3.7,3.7,0,0,1-.65-.05A3.8,3.8,0,0,1,3.16,54a3.62,3.62,0,0,1,1.57-2.43,4,4,0,0,1,5.35.87,3.61,3.61,0,0,1,.71,2.8A3.76,3.76,0,0,1,7,58.35Zm-.1-5a1.51,1.51,0,0,0-.85.25,1.27,1.27,0,0,0-.55.83,1.41,1.41,0,0,0,1.24,1.54,1.4,1.4,0,0,0,1.66-1.06,1.24,1.24,0,0,0-.25-1,1.52,1.52,0,0,0-1-.57l-.27,0Zm0,0" transform="translate(0 -0.48)"/><path d="M30.33,115H24.88c-5.29,0-7.93-4.57-8-4.77-2.94-5-2.51-11.18-2.17-16.13,0-.59.08-1.17.12-1.73A17.85,17.85,0,0,0,13,83.81C-4.19,52.13,4.59,31.56,4.68,31.36a.6.6,0,0,0-.08-.52l-.09-.15-1-1.9c-5.41-9.61-4.6-19.21,2.29-27L6,1.6A2.54,2.54,0,0,1,8.21.49a1.9,1.9,0,0,1,1.45,1l.05.11c.23.55,5.55,13.59,6.35,15.8a5.48,5.48,0,0,0,.24.58,26,26,0,0,1,14.08-4.26c6.94.56,8.42,3.09,8.65,3.59a1.2,1.2,0,0,1-.29,1.39C33.53,23.36,23.14,46.76,23,47a1.2,1.2,0,0,1-2.23-.08c-1.25-3.49-2.2-9.68-2.7-13.61-.69,1.56-1.47,3.53-2.1,5.34a1.2,1.2,0,0,1-2.32-.2,41,41,0,0,1,1.24-18.33,4.72,4.72,0,0,1-1.12-1.91c-.68-1.88-4.86-12.14-6-15l-.17.19c-6.25,7-6.93,15.42-2,24.24l1,1.88a2.94,2.94,0,0,1,.26,2.8c-.09.2-8.4,19.68,8.26,50.34a20.19,20.19,0,0,1,2,9.84c0,.57-.07,1.15-.11,1.76-.32,4.62-.72,10.37,1.85,14.77a7.35,7.35,0,0,0,6,3.56h5.45a1.2,1.2,0,0,1,0,2.4ZM18.88,28.38a1.18,1.18,0,0,1,.46.09,1.19,1.19,0,0,1,.73,1A134.31,134.31,0,0,0,22.2,43c2.86-6.21,9.57-20.24,14.08-25.25-.78-.55-2.5-1.38-6-1.67h-.11a24.17,24.17,0,0,0-12.66,4,39.11,39.11,0,0,0-1.88,13c.84-2,1.78-3.8,2.54-4.41a1.18,1.18,0,0,1,.75-.27Zm0,0" transform="translate(0 -0.48)"/></g><path d="M36.52,109.67a4.11,4.11,0,1,1,4.11-4.11,4.12,4.12,0,0,1-4.11,4.11Zm0-5.83a1.71,1.71,0,1,0,1.71,1.71,1.72,1.72,0,0,0-1.71-1.71Zm0,0" transform="translate(0 -0.48)"/><path d="M33.61,106.76h-.09a1.2,1.2,0,0,1-1.11-1.28c.15-2.13,2-6.15,8.11-6.15a1.2,1.2,0,0,1,0,2.4c-5.38,0-5.71,3.76-5.72,3.92a1.2,1.2,0,0,1-1.2,1.11Zm0,0" transform="translate(0 -0.48)"/><path d="M43.94,97a1.2,1.2,0,0,1-.7-.23c-2-1.46-8.56-6.17-9.56-7a5.54,5.54,0,0,1-1.93-4.17c-.1-2.26,0-22.3,0-23.89a4.52,4.52,0,0,1,1.18-3.29c.84-1,4.18-6.3,5.48-8.4a.61.61,0,0,0,0-.35c-.24-.54-5.75-12-9.4-19.57a1.2,1.2,0,0,1,2.16-1C32.09,31,40.3,48,40.6,48.72a3,3,0,0,1,0,2.33l-.07.13c-.47.76-4.63,7.46-5.75,8.79a2.17,2.17,0,0,0-.63,1.51.82.82,0,0,1,0,.17c0,.21-.1,21.6,0,23.84a3.19,3.19,0,0,0,1,2.39l.13.12c.51.47,6,4.47,9.35,6.88a1.2,1.2,0,0,1-.7,2.17Zm0,0" transform="translate(0 -0.48)"/><path d="M46.75,62.31h-.06a1.19,1.19,0,0,1-1.14-1.26c.51-10.54,9.75-11.33,9.84-11.34a1.2,1.2,0,1,1,.18,2.39c-.31,0-7.22.69-7.63,9.06a1.19,1.19,0,0,1-1.19,1.14Zm0,0" transform="translate(0 -0.48)"/><g class="cls-2"><path d="M53.19,58.35A3.9,3.9,0,0,1,51,57.68a3.62,3.62,0,0,1-.85-5.24A3.93,3.93,0,0,1,52.65,51a3.8,3.8,0,0,1,4.41,3,3.6,3.6,0,0,1-.72,2.8,3.92,3.92,0,0,1-2.5,1.48,4.15,4.15,0,0,1-.65.05ZM51.8,54.86a1.23,1.23,0,0,0,.55.83,1.58,1.58,0,0,0,2.09-.34,1.24,1.24,0,0,0,.25-1A1.4,1.4,0,0,0,53,53.33a1.51,1.51,0,0,0-1,.57,1.23,1.23,0,0,0-.25,1Zm0,0" transform="translate(0 -0.48)"/><path d="M35.34,115H29.89a1.2,1.2,0,0,1,0-2.4h5.45c3.91,0,5.94-3.51,6-3.55,2.58-4.41,2.18-10.16,1.86-14.78,0-.6-.08-1.19-.11-1.76a20.16,20.16,0,0,1,2-9.84C61.75,52,53.43,32.52,53.35,32.33a3,3,0,0,1,.26-2.8l.93-1.83c5-8.87,4.3-17.25-1.95-24.29l-.17-.19c-1.16,2.84-5.34,13.11-6,15-.32.89-.88,2.11-2,2.37A1.65,1.65,0,0,1,43,20.26a23.88,23.88,0,0,0-13.09-4.15,1.2,1.2,0,1,1-.09-2.4A26,26,0,0,1,43.91,18a5.08,5.08,0,0,0,.24-.58c.8-2.22,6.13-15.25,6.35-15.8l.05-.11A1.9,1.9,0,0,1,52,.49,2.55,2.55,0,0,1,54.19,1.6l.2.22c6.89,7.76,7.7,17.35,2.26,27l-.94,1.86a1.17,1.17,0,0,1-.11.18.61.61,0,0,0-.06.49c.09.2,8.88,20.77-8.34,52.46a18.06,18.06,0,0,0-1.75,8.56c0,.56.07,1.14.11,1.73.34,5,.77,11.11-2.18,16.15-.1.18-2.75,4.75-8,4.75Zm0,0" transform="translate(0 -0.48)"/></g></g></g></svg>