<svg xmlns="http://www.w3.org/2000/svg" xmlns:xlink="http://www.w3.org/1999/xlink" viewBox="0 0 98.4 97.33"><defs><style>.cls-1{fill:none;}.cls-2{clip-path:url(#clip-path);}</style><clipPath id="clip-path" transform="translate(0 -0.67)"><rect class="cls-1" y="0.08" width="98.88" height="98.88"/></clipPath></defs><title>Ресурс 48</title><g id="Слой_2" data-name="Слой 2"><g id="Слой_1-2" data-name="Слой 1"><path d="M49.24,84.93h-.69a1.2,1.2,0,1,1,0-2.4h.69a1.42,1.42,0,0,0,1.13-.74c2.12-4.05,4.67-4.31,6-4.45a3.67,3.67,0,0,0,.54-.07c.14,0,.21-.41.21-.59,0-.33-.42-.55-.42-.55-1.9-1-6.52-1.17-8.14-1.14a1.2,1.2,0,1,1-.05-2.4c.66,0,6.51-.09,9.25,1.38a3.09,3.09,0,0,1,1.77,2.68,2.93,2.93,0,0,1-1.82,2.88,4.76,4.76,0,0,1-1.09.2c-1.17.12-2.63.26-4.13,3.13a3.77,3.77,0,0,1-3.28,2.06Zm0,0" transform="translate(0 -0.67)"/><path d="M40.14,77.86A1.2,1.2,0,0,1,39,76.8a33,33,0,0,1,3.86-17.72,1.2,1.2,0,1,1,2.12,1.13,31.08,31.08,0,0,0-3.6,16.33,1.2,1.2,0,0,1-1.05,1.33Zm0,0" transform="translate(0 -0.67)"/><path d="M39.54,92.69c-.3,0-.59,0-.89,0a11,11,0,0,1-10.19-11.5A13.16,13.16,0,0,1,31.7,73.4c3-3.63,5.51-7.32,5.32-15.8C36.91,54.79,35.93,47,32.7,45.1A1.2,1.2,0,0,1,33.94,43c4.92,2.95,5.44,13.31,5.48,14.48.21,9.32-2.66,13.55-5.88,17.41a10.84,10.84,0,0,0-2.69,6.26,8.61,8.61,0,0,0,7.94,9.07,10.07,10.07,0,0,0,6.39-1.62,6.42,6.42,0,0,0,2.86-5,1.2,1.2,0,1,1,2.39.15,8.83,8.83,0,0,1-3.88,6.8,12.27,12.27,0,0,1-7,2.08Zm0,0" transform="translate(0 -0.67)"/><path d="M49.94,84.93h-.69A3.78,3.78,0,0,1,46,82.84c-1.48-2.84-2.95-3-4.12-3.11a4.77,4.77,0,0,1-1.09-.2,2.94,2.94,0,0,1-1.82-2.92A3.08,3.08,0,0,1,40.7,74c2.75-1.47,8.59-1.4,9.25-1.38a1.2,1.2,0,0,1,1.18,1.22A1.17,1.17,0,0,1,49.91,75c-1.62,0-6.25.11-8.09,1.11l-.07,0s-.41.22-.41.52.07.57.21.61a3.86,3.86,0,0,0,.54.07c1.37.14,3.93.39,6,4.41a1.43,1.43,0,0,0,1.15.77h.69a1.2,1.2,0,1,1,0,2.4Zm0,0" transform="translate(0 -0.67)"/><path d="M58.46,77.86h-.14a1.2,1.2,0,0,1-1.06-1.33,31.22,31.22,0,0,0-3.6-16.33,1.2,1.2,0,1,1,2.12-1.12A33.06,33.06,0,0,1,59.65,76.8a1.21,1.21,0,0,1-1.19,1.07Zm0,0" transform="translate(0 -0.67)"/><path d="M30.85,52.8a5.33,5.33,0,0,1,0-10.67h0a5.33,5.33,0,0,1,0,10.67Zm0-8.27a2.93,2.93,0,1,0,2.93,2.93,2.93,2.93,0,0,0-2.93-2.93Zm0,0" transform="translate(0 -0.67)"/><g class="cls-2"><path d="M5.12,57.17A1.2,1.2,0,0,1,5,54.77c10.38-1,11.73-2.58,14.46-7.49,3.35-6,11.19-5.18,11.52-5.14a1.2,1.2,0,0,1-.28,2.39c-.09,0-6.58-.69-9.14,3.92-3.31,6-5.71,7.71-16.34,8.72Zm0,0" transform="translate(0 -0.67)"/><path d="M7.39,26.12A1.24,1.24,0,0,1,6.84,26C1,22.93-1.57,16.07,1,10.36A10.21,10.21,0,0,1,7,4.81a11.47,11.47,0,0,1,9.13.89,13.8,13.8,0,0,1,4.67,4,1.2,1.2,0,0,1-1.93,1.43A11.4,11.4,0,0,0,15,7.82a9.11,9.11,0,0,0-7.23-.74,7.81,7.81,0,0,0-4.58,4.27c-2,4.55.05,10,4.77,12.51a1.2,1.2,0,0,1-.56,2.26Zm0,0" transform="translate(0 -0.67)"/></g><path d="M10.23,20.83a1.17,1.17,0,0,1-.52-.12,6,6,0,0,1-3.38-4.34,4.81,4.81,0,0,1,4.55-5.78A6.09,6.09,0,0,1,16,13.15a1.2,1.2,0,0,1-1.95,1.4A3.68,3.68,0,0,0,11,13a2.48,2.48,0,0,0-1.85.91,2.53,2.53,0,0,0-.46,2,3.7,3.7,0,0,0,2,2.6,1.2,1.2,0,0,1-.52,2.28Zm0,0" transform="translate(0 -0.67)"/><path d="M43.66,19.87a2.33,2.33,0,1,1-2.34-2.33,2.33,2.33,0,0,1,2.34,2.33Zm0,0" transform="translate(0 -0.67)"/><path d="M41.53,9.6a2.33,2.33,0,1,1-2.34-2.34A2.33,2.33,0,0,1,41.53,9.6Zm0,0" transform="translate(0 -0.67)"/><path d="M32.2,16a2.33,2.33,0,1,1-2.33-2.33A2.33,2.33,0,0,1,32.2,16Zm0,0" transform="translate(0 -0.67)"/><path d="M23.93,23.87a2.33,2.33,0,1,1-2.33-2.33,2.33,2.33,0,0,1,2.33,2.33Zm0,0" transform="translate(0 -0.67)"/><path d="M16.33,34.53A2.33,2.33,0,1,1,14,32.2a2.33,2.33,0,0,1,2.33,2.34Zm0,0" transform="translate(0 -0.67)"/><path d="M32.76,28.37A2.33,2.33,0,1,1,30.43,26a2.33,2.33,0,0,1,2.33,2.33Zm0,0" transform="translate(0 -0.67)"/><path d="M15.66,61.87a2.33,2.33,0,1,1-2.34-2.33,2.33,2.33,0,0,1,2.34,2.33Zm0,0" transform="translate(0 -0.67)"/><path d="M21.66,70.67a2.33,2.33,0,1,1-2.34-2.34,2.33,2.33,0,0,1,2.34,2.34Zm0,0" transform="translate(0 -0.67)"/><path d="M81.13,70.67a2.33,2.33,0,1,1-2.33-2.34,2.33,2.33,0,0,1,2.33,2.34Zm0,0" transform="translate(0 -0.67)"/><path d="M42.13,28c.68.53-1.35,2.3-3.35,4.87s-3.22,5-3.9,4.44-.47-3.71,1.53-6.28,5-3.56,5.71-3Zm0,0" transform="translate(0 -0.67)"/><path d="M58.86,92.69a12.26,12.26,0,0,1-7-2.08A8.85,8.85,0,0,1,48,83.81a1.2,1.2,0,1,1,2.4-.15,6.43,6.43,0,0,0,2.86,5,10.11,10.11,0,0,0,6.39,1.62,8.6,8.6,0,0,0,7.94-9,.66.66,0,0,1,0-.09,10.84,10.84,0,0,0-2.69-6.25c-3.21-3.86-6.08-8.09-5.88-17.4,0-1.19.57-11.55,5.48-14.5a1.2,1.2,0,0,1,1.23,2.06c-3.23,1.94-4.21,9.69-4.32,12.51-.19,8.47,2.3,12.16,5.32,15.79a13.14,13.14,0,0,1,3.25,7.76,11,11,0,0,1-10.19,11.5c-.3,0-.6,0-.89,0Zm0,0" transform="translate(0 -0.67)"/><path d="M67.54,52.8a5.33,5.33,0,0,1,0-10.67h0a5.33,5.33,0,0,1,0,10.67Zm0-8.27h0a2.93,2.93,0,1,0,2,.75,2.94,2.94,0,0,0-2-.75Zm0,0" transform="translate(0 -0.67)"/><path d="M93.28,57.17h-.11c-10.62-1-13-2.75-16.34-8.71-2.57-4.62-9.08-3.93-9.14-3.92a1.2,1.2,0,0,1-.28-2.39c.33,0,8.17-.89,11.52,5.14,2.73,4.91,4.09,6.51,14.46,7.49a1.2,1.2,0,0,1-.11,2.39Zm0,0" transform="translate(0 -0.67)"/><g class="cls-2"><path d="M51.94,98H46.45C38,98,34,94.37,29.32,90.16c-1.59-1.44-3.23-2.92-5.19-4.4-13.2-10-21.4-25.09-21.4-39.49,0-26,18.74-45.6,43.59-45.6h5.75c24.85,0,43.59,19.6,43.59,45.6,0,14.41-8.2,29.54-21.4,39.49-2,1.48-3.6,3-5.19,4.4C64.43,94.37,60.43,98,51.94,98ZM46.32,3.07A40.09,40.09,0,0,0,16.67,15.55C9.23,23.49,5.13,34.4,5.13,46.26c0,13.67,7.84,28.07,20.45,37.58,2,1.54,3.72,3.06,5.35,4.54,4.45,4,8,7.22,15.52,7.22h5.49c7.55,0,11.07-3.19,15.52-7.22,1.63-1.48,3.31-3,5.35-4.54,12.61-9.51,20.45-23.91,20.45-37.58,0-11.86-4.1-22.77-11.54-30.71A40.09,40.09,0,0,0,52.08,3.07Zm0,0" transform="translate(0 -0.67)"/><path d="M91,26.12a1.2,1.2,0,0,1-.56-2.26c4.72-2.47,6.82-8,4.77-12.51a7.83,7.83,0,0,0-4.58-4.27,9.13,9.13,0,0,0-7.24.74,11.41,11.41,0,0,0-3.85,3.3,1.2,1.2,0,0,1-1.93-1.43,13.81,13.81,0,0,1,4.67-4,11.48,11.48,0,0,1,9.13-.88,10.2,10.2,0,0,1,6,5.55c2.56,5.71,0,12.57-5.85,15.62a1.25,1.25,0,0,1-.55.14Zm0,0" transform="translate(0 -0.67)"/></g><path d="M88.16,20.83a1.2,1.2,0,0,1-.52-2.28A3.7,3.7,0,0,0,89.7,16a2.53,2.53,0,0,0-.46-2A2.47,2.47,0,0,0,87.38,13a3.67,3.67,0,0,0-3.08,1.55,1.2,1.2,0,0,1-1.95-1.4,6.06,6.06,0,0,1,5.16-2.55,4.84,4.84,0,0,1,3.6,1.82,4.9,4.9,0,0,1,.95,4,6,6,0,0,1-3.38,4.34,1.14,1.14,0,0,1-.52.12Zm0,0" transform="translate(0 -0.67)"/><path d="M61.53,9.6A2.33,2.33,0,1,1,59.2,7.26,2.33,2.33,0,0,1,61.53,9.6Zm0,0" transform="translate(0 -0.67)"/><path d="M70.87,16a2.33,2.33,0,1,1-2.33-2.33A2.33,2.33,0,0,1,70.87,16Zm0,0" transform="translate(0 -0.67)"/><path d="M79.14,23.87a2.33,2.33,0,1,1-2.34-2.33,2.33,2.33,0,0,1,2.34,2.33Zm0,0" transform="translate(0 -0.67)"/><path d="M86.73,34.53A2.33,2.33,0,1,1,84.4,32.2a2.33,2.33,0,0,1,2.33,2.34Zm0,0" transform="translate(0 -0.67)"/><path d="M70.3,28.37A2.33,2.33,0,1,1,68,26a2.33,2.33,0,0,1,2.33,2.33Zm0,0" transform="translate(0 -0.67)"/><path d="M87.4,61.87a2.33,2.33,0,1,1-2.34-2.33,2.33,2.33,0,0,1,2.34,2.33Zm0,0" transform="translate(0 -0.67)"/><path d="M56.27,28c-.67.53,1.35,2.3,3.35,4.87s3.22,5,3.9,4.44S64,33.64,62,31.07s-5-3.56-5.71-3Zm0,0" transform="translate(0 -0.67)"/></g></g></svg>