<svg xmlns="http://www.w3.org/2000/svg" xmlns:xlink="http://www.w3.org/1999/xlink" viewBox="0 0 93.79 99.32"><defs><style>.cls-1{fill:none;}.cls-2{clip-path:url(#clip-path);}</style><clipPath id="clip-path" transform="translate(0 -0.67)"><rect class="cls-1" y="0.16" width="93.84" height="100.8"/></clipPath></defs><title>Ресурс 49</title><g id="Слой_2" data-name="Слой 2"><g id="Слой_1-2" data-name="Слой 1"><path d="M46.64,67.56H46a1.2,1.2,0,0,1,0-2.4h.61a1.11,1.11,0,0,0,.88-.58c1.91-3.66,4.22-3.89,5.46-4l.45-.06a.94.94,0,0,0,.09-.39c0-.2-.3-.36-.3-.37-1.66-.9-5.72-1-7.16-1a1.18,1.18,0,0,1-1.22-1.18A1.2,1.2,0,0,1,46,56.36c.58,0,5.8-.08,8.26,1.24a2.88,2.88,0,0,1,1.64,2.5,2.74,2.74,0,0,1-1.7,2.68,4.27,4.27,0,0,1-1,.18c-1,.1-2.26.23-3.56,2.71a3.47,3.47,0,0,1-3,1.9Zm0,0" transform="translate(0 -0.67)"/><path d="M38.58,61.3a1.2,1.2,0,0,1-1.19-1.06,29.45,29.45,0,0,1,3.44-15.78,1.2,1.2,0,1,1,2.12,1.13A27.54,27.54,0,0,0,39.77,60a1.2,1.2,0,0,1-1.06,1.32Zm0,0" transform="translate(0 -0.67)"/><path d="M37.54,75.16l-.74,0A11.08,11.08,0,0,1,29.63,72a8.85,8.85,0,0,1-2.7-6.86c.34-5.43,3.38-7.07,5.86-7.49a1.2,1.2,0,0,1,.4,2.37c-1.54.26-3.61,1.09-3.86,5.27a6.46,6.46,0,0,0,2,5,8.71,8.71,0,0,0,5.63,2.45c4.45.28,8.25-2.62,8.5-6.45a1.2,1.2,0,1,1,2.4.15c-.31,4.93-4.86,8.72-10.3,8.72Zm0,0" transform="translate(0 -0.67)"/><path d="M56.15,75.16c-5.45,0-10-3.79-10.31-8.72A1.2,1.2,0,0,1,47,65.17a1.19,1.19,0,0,1,1.27,1.13c.24,3.83,4.06,6.73,8.5,6.45s7.87-3.63,7.63-7.46C64.1,61.1,62,60.27,60.5,60a1.2,1.2,0,0,1,.4-2.37c2.49.42,5.52,2.06,5.86,7.49.32,5.16-4.11,9.64-9.87,10l-.74,0Zm0,0" transform="translate(0 -0.67)"/><path d="M47.26,67.56h-.61a3.49,3.49,0,0,1-3-1.93c-1.28-2.45-2.53-2.58-3.54-2.67a4.24,4.24,0,0,1-1-.18,2.75,2.75,0,0,1-1.7-2.72A2.85,2.85,0,0,1,39,57.6c2.47-1.32,7.68-1.26,8.26-1.25a1.2,1.2,0,0,1,0,2.4c-1.43,0-5.49.09-7.1,1l-.07,0s-.28.17-.28.33a.8.8,0,0,0,.1.42l.43.05c1.24.12,3.55.35,5.45,4a1.12,1.12,0,0,0,.89.61h.61a1.2,1.2,0,1,1,0,2.4Zm0,0" transform="translate(0 -0.67)"/><path d="M54.8,61.3h-.14A1.2,1.2,0,0,1,53.61,60a27.52,27.52,0,0,0-3.18-14.39,1.2,1.2,0,1,1,2.12-1.12A29.39,29.39,0,0,1,56,60.23,1.2,1.2,0,0,1,54.8,61.3Zm0,0" transform="translate(0 -0.67)"/><path d="M46.82,82.85c-7,0-11.18-3.15-11.18-8.42a1.2,1.2,0,0,1,2.4,0c0,5.23,5.5,6,8.78,6,4,0,8.78-1,8.78-6a1.2,1.2,0,0,1,2.4,0c0,5.35-4.08,8.42-11.18,8.42Zm0,0" transform="translate(0 -0.67)"/><path d="M31.56,47.46a4.62,4.62,0,0,1,0-9.24h0a4.62,4.62,0,1,1,0,9.24Zm0-6.84a2.22,2.22,0,1,0,2.22,2.22,2.21,2.21,0,0,0-2.22-2.22Zm0,0" transform="translate(0 -0.67)"/><path d="M35.69,49.12a1.2,1.2,0,0,1-.91-.41l-2-2.3a1.2,1.2,0,0,1,1.81-1.58l2,2.3a1.2,1.2,0,0,1-.91,2Zm0,0" transform="translate(0 -0.67)"/><path d="M29.13,41.58a1.2,1.2,0,0,1-.91-.41L25.91,38.5a1.2,1.2,0,1,1,1.81-1.57L30,39.59a1.2,1.2,0,0,1-.91,2Zm0,0" transform="translate(0 -0.67)"/><path d="M29.44,61.6a1.2,1.2,0,0,1-1.19-1c0-.09-.53-2.84-4.63-6.46a20.41,20.41,0,0,1-5.32-21.87,1.2,1.2,0,0,1,2.24.86c-2.8,7.33.32,15.37,4.67,19.21,4.81,4.25,5.38,7.57,5.42,7.93a1.2,1.2,0,0,1-1,1.35Zm0,0" transform="translate(0 -0.67)"/><path d="M14.45,27a1.16,1.16,0,0,1-.62-.18A10.4,10.4,0,0,1,9.71,13.24a8.74,8.74,0,0,1,5.42-4.41,9.8,9.8,0,0,1,7.73,1.25,11.73,11.73,0,0,1,3.75,3.65,1.2,1.2,0,0,1-2,1.3,9.31,9.31,0,0,0-3-2.9,7.42,7.42,0,0,0-5.84-1,6.37,6.37,0,0,0-3.94,3.22,8,8,0,0,0,3.24,10.45A1.2,1.2,0,0,1,14.45,27Zm0,0" transform="translate(0 -0.67)"/><g class="cls-2"><path d="M17.83,23.58a1.22,1.22,0,0,1-.59-.16,5.25,5.25,0,0,1-2.65-4,4.22,4.22,0,0,1,4.35-4.75,5.25,5.25,0,0,1,4.31,2.55,1.2,1.2,0,0,1-.16,1.46L18.7,23.21a1.18,1.18,0,0,1-.86.37Zm1-6.5a1.88,1.88,0,0,0-1.4.58A1.94,1.94,0,0,0,17,19.19a2.76,2.76,0,0,0,.75,1.58l2.9-3a2.75,2.75,0,0,0-1.73-.71Zm0,0" transform="translate(0 -0.67)"/><path d="M22,11.91a1.2,1.2,0,0,1-.05-2.4c1.78-.08,7.95-4,11.75-6.71l.1-.07C37.4.65,40.59.14,43.25,1.23A9,9,0,0,1,48,6.79a1.2,1.2,0,0,1-2.31.65,6.69,6.69,0,0,0-3.42-4C40.4,2.67,37.94,3.12,35,4.79c-1.74,1.25-9.9,7-13,7.12Zm0,0" transform="translate(0 -0.67)"/><path d="M46.76,100a1.22,1.22,0,0,1-.72-.24,199.19,199.19,0,0,1-16.79-14c-.15,2.67-.74,4.07-1.75,4.17-.45,0-1.25-.09-1.52-1.47-.33-1.65-4.76-7.93-11.71-13.57a31.36,31.36,0,0,1-8-9.58A13,13,0,0,1,3.83,68.4,1.2,1.2,0,0,1,2,66.86c.48-.78,0-5.13-1.09-9.32a.68.68,0,0,1,0-.09c-4.48-25,8.94-35.65,9.52-36.09a1.2,1.2,0,0,1,1.47,1.9c-.13.1-12.82,10.3-8.63,33.73a48.08,48.08,0,0,1,1.21,6.44,5.49,5.49,0,0,0,.42-1.62,1.2,1.2,0,0,1,2.34-.24c0,.05,1.88,6,8.54,11.41A54.34,54.34,0,0,1,26.87,84.9c0-.26,0-.51,0-.72a1.18,1.18,0,0,1,.08-.42,2,2,0,0,1,1.42-1.27,1.91,1.91,0,0,1,1.81.78A177.15,177.15,0,0,0,47.48,97.84a1.2,1.2,0,0,1-.72,2.16Zm0,0" transform="translate(0 -0.67)"/></g><path d="M26.82,24a1.22,1.22,0,0,1-.75-.27,1.2,1.2,0,0,1-.18-1.69,11.84,11.84,0,0,1,9.64-4.24,7.11,7.11,0,0,0-1.95-1,1.2,1.2,0,0,1,0-2.26c.35-.13,8.63-3.14,14,2a1.2,1.2,0,0,1-1.65,1.75c-2.59-2.45-6.19-2.51-8.68-2.15a7.7,7.7,0,0,1,1.77,2,1.3,1.3,0,0,1,.41,1.23A1.45,1.45,0,0,1,38,20.51a1.27,1.27,0,0,1-.4,0c-.25-.06-6.2-1.41-9.85,3.12a1.22,1.22,0,0,1-.94.45Zm0,0" transform="translate(0 -0.67)"/><path d="M66.8,24a1.21,1.21,0,0,1-.94-.45c-3.66-4.53-9.61-3.18-9.86-3.12a1.24,1.24,0,0,1-.4,0,1.45,1.45,0,0,1-1.42-1.09,1.3,1.3,0,0,1,.41-1.23,7.69,7.69,0,0,1,1.77-2c-2.5-.36-6.09-.3-8.68,2.15A1.2,1.2,0,0,1,46,16.57c5.41-5.12,13.7-2.12,14-2a1.2,1.2,0,0,1,0,2.26,7.22,7.22,0,0,0-1.95,1,11.84,11.84,0,0,1,9.64,4.24,1.2,1.2,0,0,1-.93,2Zm0,0" transform="translate(0 -0.67)"/><path d="M62.23,47.46a4.62,4.62,0,0,1,0-9.24h0a4.62,4.62,0,0,1,0,9.24Zm0-6.84h0a2.22,2.22,0,1,0,1.48.57,2.22,2.22,0,0,0-1.48-.57Zm0,0" transform="translate(0 -0.67)"/><path d="M58.09,49.12a1.2,1.2,0,0,1-.91-2l2-2.3A1.2,1.2,0,0,1,61,46.4l-2,2.3a1.2,1.2,0,0,1-.91.41Zm0,0" transform="translate(0 -0.67)"/><path d="M64.66,41.58a1.2,1.2,0,0,1-.91-2l2.32-2.66a1.2,1.2,0,1,1,1.81,1.57l-2.31,2.66a1.2,1.2,0,0,1-.91.41Zm0,0" transform="translate(0 -0.67)"/><path d="M64.35,61.6h-.16a1.2,1.2,0,0,1-1-1.35c0-.37.61-3.68,5.42-7.93,4.35-3.85,7.47-11.89,4.67-19.21a1.2,1.2,0,1,1,2.24-.86,20.41,20.41,0,0,1-5.32,21.88c-4.16,3.67-4.63,6.42-4.63,6.44a1.2,1.2,0,0,1-1.19,1Zm0,0" transform="translate(0 -0.67)"/><path d="M79.34,27a1.2,1.2,0,0,1-.62-2.22,8,8,0,0,0,3.23-10.45A6.35,6.35,0,0,0,78,11.15a7.44,7.44,0,0,0-5.85,1,9.32,9.32,0,0,0-3,2.89,1.2,1.2,0,0,1-2-1.3,11.68,11.68,0,0,1,3.75-3.65,9.78,9.78,0,0,1,7.73-1.25,8.73,8.73,0,0,1,5.42,4.41A10.39,10.39,0,0,1,80,26.86a1.17,1.17,0,0,1-.62.18Zm0,0" transform="translate(0 -0.67)"/><g class="cls-2"><path d="M76,23.58a1.18,1.18,0,0,1-.86-.37l-4.4-4.52a1.2,1.2,0,0,1-.16-1.46,5.26,5.26,0,0,1,4.31-2.55A4.24,4.24,0,0,1,78.11,16a4.29,4.29,0,0,1,1.09,3.4,5.26,5.26,0,0,1-2.65,4,1.23,1.23,0,0,1-.6.16Zm-2.79-5.79,2.9,3a2.77,2.77,0,0,0,.74-1.58,1.92,1.92,0,0,0-.47-1.53,1.88,1.88,0,0,0-1.45-.58,2.76,2.76,0,0,0-1.73.7Zm0,0" transform="translate(0 -0.67)"/><path d="M71.83,11.91h-.05c-3.1-.14-11.25-5.87-13-7.12-2.93-1.67-5.39-2.12-7.31-1.34a6.69,6.69,0,0,0-3.42,4,1.2,1.2,0,0,1-2.31-.65,9,9,0,0,1,4.8-5.56C53.2.14,56.39.65,60,2.74l.11.07c3.81,2.74,10,6.63,11.75,6.71a1.2,1.2,0,0,1-.06,2.4Zm0,0" transform="translate(0 -0.67)"/><path d="M47,100a1.2,1.2,0,0,1-.72-2.16A177.69,177.69,0,0,0,63.59,83.26a1.91,1.91,0,0,1,1.81-.78,2,2,0,0,1,1.42,1.27,1.27,1.27,0,0,1,.07.42c0,.21,0,.46,0,.72A54.17,54.17,0,0,1,78,73c6.7-5.44,8.52-11.35,8.54-11.41a1.2,1.2,0,0,1,2.35.24,5.5,5.5,0,0,0,.42,1.62A47.89,47.89,0,0,1,90.52,57c4.2-23.52-8.5-33.63-8.63-33.73a1.2,1.2,0,1,1,1.46-1.9c.57.44,14,11.13,9.52,36.09l0,.08c-1.06,4.19-1.57,8.55-1.09,9.32a1.21,1.21,0,0,1-.25,1.56,1.19,1.19,0,0,1-1.57,0,12.94,12.94,0,0,1-2.42-3.14,31.34,31.34,0,0,1-8,9.58C72.57,80.48,68.14,86.76,67.8,88.41c-.28,1.38-1.07,1.51-1.52,1.47-1-.1-1.59-1.5-1.75-4.17a198.49,198.49,0,0,1-16.79,14A1.22,1.22,0,0,1,47,100Zm0,0" transform="translate(0 -0.67)"/></g></g></g></svg>