<svg xmlns="http://www.w3.org/2000/svg" xmlns:xlink="http://www.w3.org/1999/xlink" viewBox="0 0 90.44 96.75"><defs><style>.cls-1{fill:none;}.cls-2{clip-path:url(#clip-path);}</style><clipPath id="clip-path" transform="translate(0 -0.25)"><rect class="cls-1" y="0.04" width="90.96" height="97.92"/></clipPath></defs><title>Ресурс 39</title><g id="Слой_2" data-name="Слой 2"><g id="Слой_1-2" data-name="Слой 1"><path d="M30.94,25.06a3.51,3.51,0,0,1-3.34-2.45,3.51,3.51,0,1,1,6.69-2.11A3.52,3.52,0,0,1,32,24.9a3.63,3.63,0,0,1-1.06.16Zm0-4.62a1.1,1.1,0,0,0-1,.6,1.08,1.08,0,0,0-.07.84,1.1,1.1,0,0,0,.54.65A1.11,1.11,0,0,0,32,21.22a1.1,1.1,0,0,0-.54-.65,1.12,1.12,0,0,0-.51-.12Zm0,0" transform="translate(0 -0.25)"/><path d="M36,23.1a1.19,1.19,0,0,1-.82-.33c-2.62-2.48-4.06-2.64-4.32-2.65-.11,0-.12,0-.25,0h0c-1.45,0-2.21,2-2.21,2a1.2,1.2,0,1,1-2.25-.82c.05-.14,1.33-3.53,4.42-3.56.71-.08,2.85,0,6.3,3.29a1.2,1.2,0,0,1,0,1.7,1.19,1.19,0,0,1-.87.38Zm0,0" transform="translate(0 -0.25)"/><path d="M33.85,4.38A1.2,1.2,0,0,1,33.62,2,66.2,66.2,0,0,1,45.42.83a1.2,1.2,0,0,1,0,2.4A64,64,0,0,0,34.08,4.35l-.23,0Zm0,0" transform="translate(0 -0.25)"/><path d="M30.79,29.74a7,7,0,0,1-4.57-2A1.2,1.2,0,0,1,27.8,26a4.39,4.39,0,0,0,3.38,1.34,4.85,4.85,0,0,0,2.93-1.93,1.2,1.2,0,0,1,2,1.34,7.27,7.27,0,0,1-4.59,3,5.72,5.72,0,0,1-.72.05Zm0,0" transform="translate(0 -0.25)"/><path d="M40.89,41.52a1.2,1.2,0,0,1-.6-2.24,10.94,10.94,0,0,1,4.95-1,1.19,1.19,0,0,1,1.23,1.18,1.2,1.2,0,0,1-1.18,1.22,9.47,9.47,0,0,0-3.83.69,1.18,1.18,0,0,1-.57.14Zm0,0" transform="translate(0 -0.25)"/><path d="M41,46.06a1.2,1.2,0,0,1-.67-2.19,9.88,9.88,0,0,1,4.85-1.1,1.2,1.2,0,0,1,.08,2.4,8.49,8.49,0,0,0-3.64.72,1.19,1.19,0,0,1-.62.17Zm0,0" transform="translate(0 -0.25)"/><path d="M40.54,37.28A1.2,1.2,0,0,1,40,35a13.22,13.22,0,0,1,5.22-.91,1.2,1.2,0,1,1,0,2.4,11.23,11.23,0,0,0-4.22.69,1.17,1.17,0,0,1-.49.11Zm0,0" transform="translate(0 -0.25)"/><path d="M45.25,97a14.76,14.76,0,0,1-11-4.37c-3.88-4-5.8-10.47-5.57-18.74a27.17,27.17,0,0,1,2-10.69c.25-.68.52-1.4.81-2.23.16-.46,2.25-6.06,2.48-6.7a24.81,24.81,0,0,0,2.07-12l-.59-4.09a1.2,1.2,0,1,1,2.38-.34L38.44,42a27.1,27.1,0,0,1-2.22,13.16c-.91,2.45-2.34,6.27-2.45,6.6-.29.86-.57,1.6-.83,2.31A25,25,0,0,0,31.05,74c-.22,7.49,1.52,13.52,4.89,17a12.46,12.46,0,0,0,9.31,3.64,1.2,1.2,0,1,1,0,2.4Zm0,0" transform="translate(0 -0.25)"/><path d="M29.72,77.53a1.2,1.2,0,0,1-.73-.25C19.58,70,24,54.64,25,51.62a18.24,18.24,0,0,0-2.16-15.07,63.24,63.24,0,0,1-7.83-19.31,1.2,1.2,0,0,1,2.35-.44,62.36,62.36,0,0,0,7.52,18.5,20.67,20.67,0,0,1,2.39,17.07c-.55,1.68-5.16,16.62,3.14,23a1.2,1.2,0,0,1-.73,2.15Zm0,0" transform="translate(0 -0.25)"/><g class="cls-2"><path d="M41.46,86.8a1.21,1.21,0,0,1-.89-.39c-8-8.68-2.35-18.9-2.29-19a1.2,1.2,0,0,1,2.09,1.18c-.2.35-4.8,8.83,2,16.2a1.2,1.2,0,0,1-.88,2Zm0,0" transform="translate(0 -0.25)"/><path d="M31.94,88.13a1.24,1.24,0,0,1-.56-.14C-9.33,66.54,1.18,16.71,1.31,16.22a3.63,3.63,0,0,1,1.86-2.45,3.93,3.93,0,0,1,2.14-.36A19.52,19.52,0,0,1,14.64,2.23c5.92-3,13.52-2.59,22.59,1.2l8.48,3.5a1.2,1.2,0,0,1-.91,2.22L36.3,5.64C27.91,2.14,21,1.71,15.72,4.38c-6.52,3.3-8.32,10.4-8.39,10.7a1.25,1.25,0,0,1-.62.8,1.22,1.22,0,0,1-1,.07,2.15,2.15,0,0,0-1.46,0c-.11.05-.42.21-.61.92-.13.47-10.25,48.41,28.86,69a1.2,1.2,0,0,1-.56,2.26Zm0,0" transform="translate(0 -0.25)"/></g><path d="M45.19,19.66h0A237.89,237.89,0,0,1,5.91,16a1.2,1.2,0,0,1,.48-2.35,235.84,235.84,0,0,0,38.82,3.61,1.2,1.2,0,0,1,0,2.4Zm0,0" transform="translate(0 -0.25)"/><path d="M45.26,27h0a11,11,0,0,1-4.95-1,1.2,1.2,0,0,1,1.17-2.1,9.42,9.42,0,0,0,3.82.69,1.2,1.2,0,0,1,0,2.4Zm0,0" transform="translate(0 -0.25)"/><path d="M45.25,31.22A13.24,13.24,0,0,1,40,30.31a1.2,1.2,0,0,1,1-2.18,11.23,11.23,0,0,0,4.22.69,1.2,1.2,0,0,1,0,2.4Zm0,0" transform="translate(0 -0.25)"/><path d="M59.5,25.06a3.51,3.51,0,1,1,3.11-5.13,3.51,3.51,0,0,1-1.49,4.73,3.54,3.54,0,0,1-1.62.4Zm0-4.62a1.11,1.11,0,1,0,1,.6,1.09,1.09,0,0,0-.65-.55,1.07,1.07,0,0,0-.33-.05Zm0,0" transform="translate(0 -0.25)"/><path d="M54.45,23.1A1.2,1.2,0,0,1,53.62,21c3.45-3.26,5.59-3.37,6.3-3.29,3.09,0,4.37,3.41,4.42,3.56a1.2,1.2,0,0,1-2.25.83s-.77-2-2.21-2h-.17l-.11,0c-.26,0-1.7.17-4.32,2.65a1.19,1.19,0,0,1-.82.33Zm0,0" transform="translate(0 -0.25)"/><path d="M56.59,4.38l-.23,0A64,64,0,0,0,45,3.23a1.2,1.2,0,1,1,0-2.4A66.23,66.23,0,0,1,56.81,2a1.2,1.2,0,0,1-.22,2.38Zm0,0" transform="translate(0 -0.25)"/><path d="M59.66,29.74a5.71,5.71,0,0,1-.73-.05,7.24,7.24,0,0,1-4.59-3,1.2,1.2,0,0,1,2-1.34,4.86,4.86,0,0,0,2.93,1.93A4.41,4.41,0,0,0,62.64,26a1.2,1.2,0,0,1,1.57,1.81,7,7,0,0,1-4.56,2Zm0,0" transform="translate(0 -0.25)"/><path d="M49.56,41.52a1.18,1.18,0,0,1-.58-.15,9.39,9.39,0,0,0-3.82-.69,1.2,1.2,0,0,1,0-2.4,10.93,10.93,0,0,1,4.94,1,1.2,1.2,0,0,1-.59,2.24Zm0,0" transform="translate(0 -0.25)"/><path d="M49.42,46.07a1.2,1.2,0,0,1-.64-.18,8.37,8.37,0,0,0-3.64-.72,1.2,1.2,0,1,1,.09-2.4,10,10,0,0,1,4.85,1.1,1.2,1.2,0,0,1-.66,2.21Zm0,0" transform="translate(0 -0.25)"/><path d="M49.9,37.28a1.19,1.19,0,0,1-.5-.11,11.27,11.27,0,0,0-4.22-.69,1.2,1.2,0,1,1,0-2.4,13.22,13.22,0,0,1,5.23.91,1.2,1.2,0,0,1-.51,2.29Zm0,0" transform="translate(0 -0.25)"/><path d="M45.18,97a1.2,1.2,0,0,1,0-2.4A12.45,12.45,0,0,0,54.5,91c3.37-3.47,5.11-9.5,4.89-17a25,25,0,0,0-1.88-9.92c-.26-.7-.54-1.44-.83-2.3-.11-.32-1.53-4.14-2.46-6.63A27,27,0,0,1,52,42l.6-4.17A1.2,1.2,0,1,1,55,38.2l-.59,4.13a24.76,24.76,0,0,0,2.07,11.91c.25.67,2.34,6.27,2.5,6.73.28.83.55,1.55.8,2.23a27.19,27.19,0,0,1,2,10.69c.24,8.26-1.68,14.74-5.57,18.74a14.75,14.75,0,0,1-11,4.37Zm0,0" transform="translate(0 -0.25)"/><path d="M60.72,77.53A1.2,1.2,0,0,1,60,75.38c8.3-6.4,3.69-21.33,3.14-23a20.68,20.68,0,0,1,2.39-17.07A62.08,62.08,0,0,0,73,16.81a1.2,1.2,0,0,1,2.36.44,63.5,63.5,0,0,1-7.83,19.31A18.23,18.23,0,0,0,65.4,51.62c1,3,5.45,18.41-4,25.66a1.2,1.2,0,0,1-.73.25Zm0,0" transform="translate(0 -0.25)"/><g class="cls-2"><path d="M49,86.8a1.2,1.2,0,0,1-.89-2c6.77-7.37,2.17-15.85,2-16.2a1.2,1.2,0,0,1,2.09-1.18c.06.1,5.67,10.33-2.29,19a1.19,1.19,0,0,1-.88.39Zm0,0" transform="translate(0 -0.25)"/><path d="M58.5,88.13a1.2,1.2,0,0,1-.56-2.26c39.11-20.62,29-68.55,28.87-69-.19-.71-.51-.87-.61-.92a2.16,2.16,0,0,0-1.48,0,1.21,1.21,0,0,1-1.61-.87c-.07-.31-1.87-7.4-8.39-10.7C69.45,1.71,62.53,2.14,54.14,5.64l-8.5,3.5a1.2,1.2,0,1,1-.91-2.22l8.49-3.5C62.28-.36,69.88-.76,75.8,2.23a19.5,19.5,0,0,1,9.32,11.19,3.89,3.89,0,0,1,2.14.35,3.64,3.64,0,0,1,1.86,2.45c.13.49,10.65,50.32-30.07,71.78a1.23,1.23,0,0,1-.56.14Zm0,0" transform="translate(0 -0.25)"/></g><path d="M45.25,19.66a1.2,1.2,0,0,1,0-2.4A235.44,235.44,0,0,0,84,13.66,1.2,1.2,0,1,1,84.53,16a238.35,238.35,0,0,1-39.26,3.66Zm0,0" transform="translate(0 -0.25)"/><path d="M45.18,27a1.2,1.2,0,0,1,0-2.4A9.32,9.32,0,0,0,49,23.93,1.2,1.2,0,0,1,50.15,26a11,11,0,0,1-4.94,1Zm0,0" transform="translate(0 -0.25)"/><path d="M45.18,31.22a1.2,1.2,0,1,1,0-2.4,11.2,11.2,0,0,0,4.22-.69,1.2,1.2,0,0,1,1,2.18,13.24,13.24,0,0,1-5.22.91Zm0,0" transform="translate(0 -0.25)"/></g></g></svg>