<svg xmlns="http://www.w3.org/2000/svg" xmlns:xlink="http://www.w3.org/1999/xlink" viewBox="0 0 98.02 96.37"><defs><style>.cls-1{fill:none;}.cls-2{clip-path:url(#clip-path);}</style><clipPath id="clip-path" transform="translate(0 -0.63)"><rect class="cls-1" y="0.04" width="98.88" height="97.92"/></clipPath></defs><title>Ресурс 38</title><g id="Слой_2" data-name="Слой 2"><g id="Слой_1-2" data-name="Слой 1"><path d="M65.27,44.67A7.66,7.66,0,1,1,72.92,37a7.66,7.66,0,0,1-7.66,7.66Zm0-12.91A5.26,5.26,0,1,0,70.52,37a5.26,5.26,0,0,0-5.26-5.25Zm0,0" transform="translate(0 -0.63)"/><path d="M67.71,37a2.45,2.45,0,1,1-2.45-2.45A2.45,2.45,0,0,1,67.71,37Zm0,0" transform="translate(0 -0.63)"/><path d="M54.37,37.51a5.42,5.42,0,0,1-5.47-5.36,5.07,5.07,0,0,1,.18-1.28c0-.05,0-.1,0-.15C51,23.72,57.42,19,65.19,19S79.41,23.7,81.27,30.68l0,.05a4.69,4.69,0,0,1,.19,1.36,5.42,5.42,0,0,1-10.41,2.07,6.58,6.58,0,0,0-11.83.45A1.13,1.13,0,0,1,59,35a5.48,5.48,0,0,1-4.62,2.53Zm-2.9-6.33a1.05,1.05,0,0,1,0,.18,2.93,2.93,0,0,0-.13.79,3,3,0,0,0,3.07,3,3.08,3.08,0,0,0,2.68-1.57.7.7,0,0,1,.09-.13,9,9,0,0,1,16.08-.31l0,.1a3,3,0,0,0,5.81-1.12,2.36,2.36,0,0,0-.11-.75.89.89,0,0,1,0-.12c-1.61-5.87-7.11-9.8-13.74-9.8s-12.11,3.92-13.73,9.77Zm0,0" transform="translate(0 -0.63)"/><path d="M69.5,76.7a1.2,1.2,0,0,1-1.16-.92C62.93,53.67,49.6,54.67,49,54.72a1.2,1.2,0,0,1-.24-2.39c.16,0,15.95-1.37,21.86,22.89a1.19,1.19,0,0,1-.88,1.45,1.18,1.18,0,0,1-.29,0Zm0,0" transform="translate(0 -0.63)"/><path d="M49.1,89.54a1.19,1.19,0,0,1-1.2-1.2V69.56a1.2,1.2,0,1,1,2.4,0V87c3-.57,10.87-2.87,18.13-11.87a1.2,1.2,0,1,1,1.87,1.51C60.41,88.85,49.61,89.52,49.16,89.54Zm0,0" transform="translate(0 -0.63)"/><path d="M51.41,66.76a1.2,1.2,0,0,1-.95-1.93L53.4,61a1.2,1.2,0,1,1,1.89,1.47L52.35,66.3a1.19,1.19,0,0,1-.95.46Zm0,0" transform="translate(0 -0.63)"/><path d="M65.65,66.13h-.14a1.2,1.2,0,0,1-1.05-1.33l.77-6.58c0-.64.51-6.73,5-10.1l.08-.05C70.4,48,80.62,41.45,79,31.75a1.2,1.2,0,0,1,2.37-.39c.77,4.7-.7,9.44-4.24,13.71a26.18,26.18,0,0,1-5.53,5c-3.68,2.81-4,8.25-4,8.31s0,.06,0,.08l-.77,6.61a1.2,1.2,0,0,1-1.19,1.06Zm0,0" transform="translate(0 -0.63)"/><g class="cls-2"><path d="M48.92,97a1.2,1.2,0,0,1,0-2.4c7.6,0,13.19-3.2,16.62-9.5a26.14,26.14,0,0,0,2.94-9.63,1.2,1.2,0,0,1,.3-.72,59.35,59.35,0,0,0,13.6-25.27A40,40,0,0,0,83.66,38s0-.07,0-.1C83.66,17.37,69.49,3,49.2,3a1.2,1.2,0,0,1,0-2.4c10.17,0,19.45,3.59,26.14,10.12,7,6.83,10.71,16.2,10.72,27.11.1,1.35,1.16,19.54-15.23,38.18-.34,3-3.18,21-21.91,21Zm0,0" transform="translate(0 -0.63)"/><path d="M85.11,40.1a1.2,1.2,0,0,1-.51-2.29c12-5.56,11-17.92,11-18-1-8.71-8.32-9-8.63-9a9.08,9.08,0,0,0-8.37,4.3,1.2,1.2,0,0,1-2.08-1.19A11.45,11.45,0,0,1,87,8.38c3.36.05,10,2.45,11,11.14,0,.16,1.18,14.2-12.38,20.47a1.19,1.19,0,0,1-.5.11Zm0,0" transform="translate(0 -0.63)"/></g><path d="M84.73,33.65a1.2,1.2,0,0,1-.57-2.25c5.79-3.17,5.17-9.68,5.16-9.74-.37-3.7-3.37-3.82-3.49-3.83a3.65,3.65,0,0,0-3.56,1.81,1.21,1.21,0,0,1-1.59.57,1.19,1.19,0,0,1-.59-1.57,6.06,6.06,0,0,1,5.8-3.21,6.19,6.19,0,0,1,5.81,6c0,.33.77,8.16-6.4,12.09a1.24,1.24,0,0,1-.58.15Zm0,0" transform="translate(0 -0.63)"/><path d="M32.75,44.67A7.66,7.66,0,1,1,40.41,37a7.66,7.66,0,0,1-7.66,7.66Zm0-12.91A5.26,5.26,0,1,0,38,37a5.26,5.26,0,0,0-5.26-5.25Zm0,0" transform="translate(0 -0.63)"/><path d="M35.2,37a2.45,2.45,0,1,1-2.45-2.45A2.45,2.45,0,0,1,35.2,37Zm0,0" transform="translate(0 -0.63)"/><path d="M43.65,37.51A5.48,5.48,0,0,1,39,35a1.21,1.21,0,0,1-.23-.35A6.58,6.58,0,0,0,27,34.16a5.42,5.42,0,0,1-10.41-2.07,4.59,4.59,0,0,1,.19-1.36v-.05C18.61,23.7,25.07,19,32.82,19s14.24,4.7,16.09,11.71a.92.92,0,0,1,0,.15,5.07,5.07,0,0,1,.18,1.28,5.42,5.42,0,0,1-5.47,5.36Zm-2.77-4.09.08.13a3.08,3.08,0,0,0,2.69,1.57,3,3,0,0,0,3.07-3,2.78,2.78,0,0,0-.13-.79.94.94,0,0,1,0-.18c-1.62-5.85-7.12-9.77-13.73-9.77s-12.13,3.94-13.74,9.8a.67.67,0,0,1,0,.12,2.36,2.36,0,0,0-.11.75,3,3,0,0,0,5.81,1.12l0-.1a9,9,0,0,1,16.09.31Zm0,0" transform="translate(0 -0.63)"/><path d="M28.52,76.7a1.2,1.2,0,0,1-1.17-1.49c3.06-12.56,8.77-18.11,13-20.56a15.89,15.89,0,0,1,8.86-2.32A1.2,1.2,0,0,1,49,54.72c-.6-.05-13.9-1-19.29,21.07a1.21,1.21,0,0,1-1.17.92Zm0,0" transform="translate(0 -0.63)"/><path d="M48.92,89.54h-.06c-.45,0-11.25-.69-21.14-12.94a1.2,1.2,0,1,1,1.87-1.51c7.3,9,15.14,11.32,18.13,11.87V69.56a1.2,1.2,0,1,1,2.4,0V88.34a1.2,1.2,0,0,1-1.2,1.2Zm0,0" transform="translate(0 -0.63)"/><path d="M46.61,66.76a1.2,1.2,0,0,1-.95-.46l-2.94-3.78A1.2,1.2,0,1,1,44.62,61l2.94,3.78a1.2,1.2,0,0,1-.21,1.68,1.22,1.22,0,0,1-.74.25Zm0,0" transform="translate(0 -0.63)"/><path d="M32.37,66.13a1.2,1.2,0,0,1-1.19-1.06l-.77-6.61s0-.05,0-.08-.32-5.5-4-8.31a26,26,0,0,1-5.53-5c-3.55-4.27-5-9-4.24-13.71a1.2,1.2,0,0,1,2.37.39C17.4,41.45,27.62,48,27.72,48.07l.09.05c4.48,3.37,4.95,9.45,5,10.1l.76,6.58a1.2,1.2,0,0,1-1.05,1.33Zm0,0" transform="translate(0 -0.63)"/><g class="cls-2"><path d="M49.1,97C30.37,97,27.53,79.06,27.19,76,10.8,57.4,11.86,39.21,12,37.86,12,27,15.68,17.58,22.68,10.75,29.37,4.22,38.65.63,48.82.63a1.2,1.2,0,1,1,0,2.4C28.53,3,14.36,17.37,14.36,37.91a.81.81,0,0,1,0,.1c0,.18-1.33,18.48,14.89,36.73a1.19,1.19,0,0,1,.3.72C29.6,76.24,31,94.6,49.1,94.6a1.2,1.2,0,0,1,0,2.4Zm0,0" transform="translate(0 -0.63)"/><path d="M12.91,40.1a1.22,1.22,0,0,1-.5-.11C-1.15,33.72,0,19.68,0,19.54,1,10.83,7.64,8.43,11,8.37h.29a11.4,11.4,0,0,1,10.21,5.51,1.2,1.2,0,0,1-2.08,1.19A9.07,9.07,0,0,0,11,10.77c-.31,0-7.64.28-8.63,9a18.57,18.57,0,0,0,11,18,1.2,1.2,0,0,1-.5,2.29Zm0,0" transform="translate(0 -0.63)"/></g><path d="M13.29,33.65a1.23,1.23,0,0,1-.58-.15c-7.17-3.93-6.43-11.77-6.4-12.1a6.19,6.19,0,0,1,5.81-6,6,6,0,0,1,5.8,3.21,1.2,1.2,0,0,1-2.18,1,3.68,3.68,0,0,0-3.55-1.8c-.31,0-3.14.25-3.5,3.82,0,.27-.59,6.59,5.16,9.75a1.2,1.2,0,0,1-.58,2.25Zm0,0" transform="translate(0 -0.63)"/></g></g></svg>