<svg xmlns="http://www.w3.org/2000/svg" xmlns:xlink="http://www.w3.org/1999/xlink" viewBox="0 0 101.52 90.64"><defs><style>.cls-1{fill:none;}.cls-2{clip-path:url(#clip-path);}</style><clipPath id="clip-path" transform="translate(0 -0.36)"><rect class="cls-1" y="0.04" width="101.76" height="91.92"/></clipPath></defs><title>Ресурс 37</title><g id="Слой_2" data-name="Слой 2"><g id="Слой_1-2" data-name="Слой 1"><path d="M50.82,91C38,91,16,67,16,42.38c0-21.3,13.66-35.07,34.8-35.07a1.2,1.2,0,1,1,0,2.4c-20,0-32.4,12.52-32.4,32.67,0,10.59,4.39,22.28,12,32.07,6.62,8.47,14.8,14.15,20.35,14.15a1.2,1.2,0,1,1,0,2.4Zm0,0" transform="translate(0 -0.36)"/><path d="M30.82,51.44a5,5,0,1,1,5-5,5,5,0,0,1-5,5Zm0-7.6a2.6,2.6,0,1,0,2.6,2.6,2.61,2.61,0,0,0-2.6-2.6Zm0,0" transform="translate(0 -0.36)"/><path d="M21,23.35a6.24,6.24,0,0,1-.83-.05,19.28,19.28,0,0,1-6-2.11,46,46,0,0,1-10.3-7.12A8,8,0,0,1,15.24,2.71c3.49,3.49,12,16,8.35,19.71a3.5,3.5,0,0,1-2.59.93ZM9.56,2.76a5.63,5.63,0,0,0-4,9.61A43.79,43.79,0,0,0,15.27,19a17.32,17.32,0,0,0,5.19,1.88,2,2,0,0,0,1.43-.19c1.6-1.6-4.11-12.07-8.35-16.32a5.58,5.58,0,0,0-4-1.65Zm0,0" transform="translate(0 -0.36)"/><g class="cls-2"><path d="M35,11.89A35,35,0,0,1,13.61,4.47a1.2,1.2,0,0,1,1.57-1.82A33.1,33.1,0,0,0,37.65,9.38a1.2,1.2,0,1,1,.2,2.39c-1,.08-1.92.12-2.85.12Zm0,0" transform="translate(0 -0.36)"/><path d="M44.6,83.78h-.19L1,77a1.2,1.2,0,0,1,.37-2.37l43.4,6.8a1.2,1.2,0,0,1-.18,2.38Zm0,0" transform="translate(0 -0.36)"/></g><path d="M3.09,89.6a1.2,1.2,0,0,1-.15-2.39L43.67,82A1.2,1.2,0,1,1,44,84.39L3.24,89.59Zm0,0" transform="translate(0 -0.36)"/><path d="M56.92,83.78a1.2,1.2,0,0,1-.18-2.38l43.4-6.8a1.2,1.2,0,0,1,.38,2.37l-43.4,6.8Zm0,0" transform="translate(0 -0.36)"/><path d="M98.43,89.6h-.15l-40.73-5.2A1.2,1.2,0,1,1,57.85,82l40.73,5.2a1.2,1.2,0,0,1-.15,2.39Zm0,0" transform="translate(0 -0.36)"/><path d="M51,91a1.2,1.2,0,0,1,0-2.4c11.62,0,32.4-23.3,32.4-46.22C83.4,22.23,71,9.71,51,9.71a1.2,1.2,0,0,1,0-2.4c21.14,0,34.8,13.77,34.8,35.07,0,11.12-4.57,23.35-12.55,33.55C66.08,85.08,57.35,91,51,91Zm0,0" transform="translate(0 -0.36)"/><path d="M71,51.44a5,5,0,1,1,5-5,5,5,0,0,1-5,5Zm0-7.6a2.6,2.6,0,1,0,2.6,2.6,2.61,2.61,0,0,0-2.6-2.6Zm0,0" transform="translate(0 -0.36)"/><path d="M80.82,23.35a3.52,3.52,0,0,1-2.59-.93C74.56,18.76,83.09,6.2,86.58,2.71A8,8,0,0,1,97.94,14.07a46.06,46.06,0,0,1-10.31,7.11,19.36,19.36,0,0,1-6,2.12,7,7,0,0,1-.83.05ZM92.26,2.76a5.58,5.58,0,0,0-4,1.65c-4.25,4.25-10,14.72-8.36,16.32a2,2,0,0,0,1.44.19A17.28,17.28,0,0,0,86.55,19a43.65,43.65,0,0,0,9.69-6.67,5.63,5.63,0,0,0-4-9.61Zm0,0" transform="translate(0 -0.36)"/><path d="M66.82,11.89q-1.39,0-2.85-.12a1.2,1.2,0,1,1,.2-2.39A33.09,33.09,0,0,0,86.64,2.65a1.2,1.2,0,0,1,1.57,1.82,35,35,0,0,1-21.39,7.43Zm0,0" transform="translate(0 -0.36)"/><path d="M51,90.79h-.17a1.32,1.32,0,0,1-.3,0c-4.25-1.09-6.88-5.73-6.88-9.39,0-4.75,4.4-4.85,7.16-4.86H51c2.76,0,7.16.11,7.16,4.86,0,3.67-2.62,8.3-6.86,9.39a1.14,1.14,0,0,1-.3,0Zm-.1-11.89c-4.12,0-4.86.65-4.86,2.45,0,2.72,1.95,6.13,4.87,7,2.91-.88,4.85-4.29,4.85-7,0-1.8-.74-2.45-4.86-2.45Zm0,0" transform="translate(0 -0.36)"/></g></g></svg>