<svg xmlns="http://www.w3.org/2000/svg" xmlns:xlink="http://www.w3.org/1999/xlink" viewBox="0 0 92.93 99.73"><defs><style>.cls-1{fill:none;}.cls-2{clip-path:url(#clip-path);}</style><clipPath id="clip-path" transform="translate(0 -0.27)"><rect class="cls-1" y="0.16" width="92.88" height="100.8"/></clipPath></defs><title>Ресурс 35</title><g id="Слой_2" data-name="Слой 2"><g id="Слой_1-2" data-name="Слой 1"><path d="M38.39,43a3.15,3.15,0,1,1,3.15-3.15A3.16,3.16,0,0,1,38.39,43Zm0-3.9a.75.75,0,1,0,.75.75.75.75,0,0,0-.75-.75Zm0,0" transform="translate(0 -0.27)"/><path d="M46.34,100a1.12,1.12,0,0,1-.34-.05C21.75,92.87,23.06,71.84,23.07,71.63c2-19,15.07-19.84,15.21-19.84a1.17,1.17,0,0,1,1.17.75,1.2,1.2,0,0,1-.32,1.36,26.58,26.58,0,0,0-7.8,19c1.24,1.43,7,7.54,15.19,8.11a1.2,1.2,0,1,1-.17,2.39c-10.31-.73-16.89-9-17.16-9.32a1.18,1.18,0,0,1-.25-.71,28.89,28.89,0,0,1,5.75-18.05C31.28,57,26.6,61.22,25.46,71.84c-.05.75-1.13,19.28,21.21,25.8a1.2,1.2,0,0,1-.34,2.35Zm0,0" transform="translate(0 -0.27)"/><path d="M46.34,86.88h-.15c-8-1-12.23-4.52-14.39-7.32A14.25,14.25,0,0,1,29,73.48a1.2,1.2,0,0,1,2.37-.35c.06.4,1.66,9.7,15.16,11.36a1.2,1.2,0,0,1-.14,2.39Zm0,0" transform="translate(0 -0.27)"/><g class="cls-2"><path d="M43.87,60a1.19,1.19,0,0,1-.85-.35l-2-2a1.2,1.2,0,0,1,1.7-1.7l2,2a1.2,1.2,0,0,1,0,1.7,1.19,1.19,0,0,1-.85.35Zm0,0" transform="translate(0 -0.27)"/><path d="M25.84,83.49a1.19,1.19,0,0,1-.38-.06l-1-.32c-3.42-1-10.55-3.22-16.3-8.69C.93,67.58-1.5,58.07.89,46.18c.16-.89,4.2-22.6,21.68-33.33l.1-.06s.79-.38,1.89-1a1.2,1.2,0,0,1,1.22,2.07c-1,.61-1.79,1-2,1.1C7.25,25.11,3.29,46.41,3.25,46.62-2,72.54,18.43,78.77,25.13,80.81l1.09.34a1.2,1.2,0,0,1-.38,2.34Zm0,0" transform="translate(0 -0.27)"/><path d="M30.1,58.43a1.16,1.16,0,0,1-.63-.18,1.19,1.19,0,0,1-.39-1.65l.15-.25A14.84,14.84,0,0,0,30.5,54.1c.59-1.76.34-2.4-.28-4-.24-.62-.55-1.39-.83-2.36a8.67,8.67,0,0,1,1.26-7.61c2-2.6,4.22-4.05,6.49-4.31,3-.33,5.16,1.49,6.11,2.27l.19.15a3.85,3.85,0,0,0,2.76,1,1.2,1.2,0,1,1,.47,2.36,6,6,0,0,1-4.73-1.49L41.73,40c-.83-.68-2.38-1.95-4.32-1.73-1.6.18-3.24,1.32-4.87,3.41a6.24,6.24,0,0,0-.85,5.43c.26.87.53,1.56.77,2.16a6.87,6.87,0,0,1,.32,5.59,15,15,0,0,1-1.5,2.75l-.15.25a1.19,1.19,0,0,1-1,.57Zm0,0" transform="translate(0 -0.27)"/><path d="M24.64,19.38a1.18,1.18,0,0,1-.36-.06,1.2,1.2,0,0,1-.84-1.08,17.74,17.74,0,0,1,4.91-12.6c4-4,10.09-5.78,18.05-5.31a1.2,1.2,0,0,1-.14,2.4C39,2.3,33.57,3.85,30.07,7.33a14.43,14.43,0,0,0-3.8,7,16.64,16.64,0,0,1,3-2.81,2.25,2.25,0,0,1,2.14-.14,1.59,1.59,0,0,1,.52.52,8.72,8.72,0,0,1,2.56-2.68,8.11,8.11,0,0,1,6.91-.77c1.71.35,4.84,2.29,4.85,7.23A1.19,1.19,0,0,1,45,16.91h0a1.2,1.2,0,0,1-1.2-1.19c0-4.14-2.66-4.83-3-4.89l-.1,0a5.76,5.76,0,0,0-5,.46c-2.34,1.53-3.27,5.05-3.43,6.28a1.22,1.22,0,0,1-1.23,1,1.2,1.2,0,0,1-1.15-1.13c0-.11-.11-1.93-.16-3.3a52.3,52.3,0,0,0-4.19,4.77,1.19,1.19,0,0,1-.94.46Zm0,0" transform="translate(0 -0.27)"/></g><path d="M54.54,43a3.15,3.15,0,1,1,3.15-3.15A3.15,3.15,0,0,1,54.54,43Zm0-3.9a.75.75,0,1,0,.75.75.75.75,0,0,0-.75-.75Zm0,0" transform="translate(0 -0.27)"/><path d="M46.59,100a1.2,1.2,0,0,1-.33-2.35c22.34-6.52,21.26-25.06,21.2-25.84-1.12-10.46-5.77-14.72-9.18-16.45a28.87,28.87,0,0,1,5.71,18,1.24,1.24,0,0,1-.25.71c-.28.35-6.85,8.59-17.16,9.32a1.21,1.21,0,0,1-1.28-1.11A1.19,1.19,0,0,1,46.4,81c8.22-.58,14-6.69,15.19-8.11a26.61,26.61,0,0,0-7.8-19,1.21,1.21,0,0,1-.32-1.36,1.19,1.19,0,0,1,1.17-.75c.13,0,13.18.87,15.2,19.81,0,.25,1.33,21.28-22.92,28.36a1.25,1.25,0,0,1-.34,0Zm0,0" transform="translate(0 -0.27)"/><path d="M46.59,86.88a1.2,1.2,0,0,1-.14-2.39c13.5-1.66,15.1-11,15.16-11.36a1.2,1.2,0,0,1,2.38.35c0,.11-1.86,11.5-17.24,13.39Zm0,0" transform="translate(0 -0.27)"/><g class="cls-2"><path d="M49.05,60a1.2,1.2,0,0,1-.85-2l2-2a1.2,1.2,0,0,1,1.7,1.7l-2,2a1.19,1.19,0,0,1-.85.35Zm0,0" transform="translate(0 -0.27)"/><path d="M67.09,83.49a1.2,1.2,0,0,1-.38-2.34l1.09-.34c6.7-2,27.1-8.28,21.88-34.16,0-.24-4-21.56-20.53-31.73-.21-.11-1-.49-2-1.11a1.2,1.2,0,0,1,1.23-2.06c1.1.65,1.88,1,1.89,1l.1.06C87.83,23.58,91.87,45.28,92,46.2c2.39,11.88,0,21.38-7.25,28.22C79,79.89,71.92,82.06,68.5,83.11l-1,.32a1.17,1.17,0,0,1-.38.06Zm0,0" transform="translate(0 -0.27)"/><path d="M62.82,58.43a1.19,1.19,0,0,1-1-.57l-.16-.27a15.14,15.14,0,0,1-1.49-2.73,6.89,6.89,0,0,1,.32-5.59c.24-.61.51-1.29.76-2.16a6.25,6.25,0,0,0-.83-5.42c-1.64-2.1-3.28-3.25-4.88-3.43C53.58,38,52,39.31,51.2,40l-.21.17a6,6,0,0,1-4.73,1.49,1.2,1.2,0,0,1,.45-2.36,3.82,3.82,0,0,0,2.78-1l.19-.15c.95-.78,3.15-2.59,6.11-2.27,2.26.25,4.45,1.7,6.5,4.32a8.68,8.68,0,0,1,1.25,7.6c-.29,1-.59,1.74-.84,2.36-.61,1.55-.86,2.2-.27,4a15,15,0,0,0,1.25,2.23l.17.27a1.2,1.2,0,0,1-.39,1.65,1.16,1.16,0,0,1-.63.18Zm0,0" transform="translate(0 -0.27)"/><path d="M68.29,19.38a1.2,1.2,0,0,1-.95-.46,51.42,51.42,0,0,0-4.2-4.77c-.05,1.37-.16,3.19-.16,3.29a1.2,1.2,0,0,1-1.15,1.13h0a1.2,1.2,0,0,1-1.19-1s-.64-4.45-3.44-6.28a5.75,5.75,0,0,0-5-.45l-.11,0c-.29.06-2.94.75-3,4.9a1.2,1.2,0,0,1-1.2,1.19h0a1.21,1.21,0,0,1-1.2-1.2c0-4.95,3.15-6.88,4.85-7.23a8.11,8.11,0,0,1,6.91.77A8.73,8.73,0,0,1,61,11.93a1.52,1.52,0,0,1,.52-.52,2.23,2.23,0,0,1,2.1.12,16.71,16.71,0,0,1,3,2.84,14.5,14.5,0,0,0-3.81-7c-3.5-3.48-9-5-16.2-4.59A1.2,1.2,0,0,1,46.52.34c8-.47,14,1.31,18.05,5.31a17.74,17.74,0,0,1,4.91,12.6,1.19,1.19,0,0,1-.84,1.08,1.24,1.24,0,0,1-.36.05Zm0,0" transform="translate(0 -0.27)"/></g></g></g></svg>