<svg xmlns="http://www.w3.org/2000/svg" xmlns:xlink="http://www.w3.org/1999/xlink" viewBox="0 0 100.66 98.46"><defs><style>.cls-1{fill:none;}.cls-2{clip-path:url(#clip-path);}</style><clipPath id="clip-path" transform="translate(0 -0.53)"><rect class="cls-1" y="0.12" width="100.8" height="99.84"/></clipPath></defs><title>Ресурс 29</title><g id="Слой_2" data-name="Слой 2"><g id="Слой_1-2" data-name="Слой 1"><path d="M40.4,94.28l-.21,0C16.83,90,1.15,72,1.15,49.53a49,49,0,1,1,98,0c0,22.07-15.19,40-37.8,44.5a1.2,1.2,0,1,1-.47-2.35c21.46-4.31,35.87-21.25,35.87-42.15a46.6,46.6,0,1,0-93.2,0c0,21.3,14.89,38.33,37.07,42.37a1.2,1.2,0,0,1-.21,2.38Zm0,0" transform="translate(0 -0.53)"/><path d="M34.75,53.13a5,5,0,1,1,5-5,5,5,0,0,1-5,5Zm0-7.6a2.6,2.6,0,1,0,2.6,2.6,2.6,2.6,0,0,0-2.6-2.6Zm0,0" transform="translate(0 -0.53)"/><g class="cls-2"><path d="M50.41,99c-3.82,0-7.66-1.85-10.8-5.22A26.48,26.48,0,0,1,33.69,82.9,1.2,1.2,0,1,1,36,82.24a24.08,24.08,0,0,0,5.37,9.89c2.72,2.92,5.85,4.46,9,4.46h0a1.2,1.2,0,1,1,0,2.4Zm0,0" transform="translate(0 -0.53)"/><path d="M7.8,28.43a1.19,1.19,0,0,1-.8-.3C2.85,24.44.24,19.5,0,14.92A11.16,11.16,0,0,1,3,6.58C7.52,1.7,16,.26,24.82,8a1.2,1.2,0,1,1-1.59,1.8C17.77,5,9.94,2.62,4.74,8.22A8.7,8.7,0,0,0,2.41,14.8C2.6,18.7,5,23.11,8.6,26.33A1.2,1.2,0,0,1,8.7,28a1.19,1.19,0,0,1-.9.4Zm0,0" transform="translate(0 -0.53)"/></g><path d="M50.71,99a1.2,1.2,0,1,1,0-2.4c6.11,0,12-5.92,14.43-14.39a1.2,1.2,0,1,1,2.31.65C64.78,92.36,57.9,99,50.71,99Zm0,0" transform="translate(0 -0.53)"/><path d="M29.31,66.23a3.45,3.45,0,0,1-1.15-.2c-3.13-1.14-4.38-5.86-4.85-8.57A24.54,24.54,0,0,1,23.86,46c2.25-6.37,8.68-9.93,14.32-7.94A10.75,10.75,0,0,1,44.36,44a11.66,11.66,0,0,1-.06,9.32c-1.22,2.74-3.89,5-6.48,7.21-.61.52-1.2,1-1.76,1.52L36,62.1c-2.54,2.27-4.64,4.13-6.7,4.13Zm5.62-26.31c-3.68,0-7.33,2.7-8.8,6.89-2,5.54-.22,15.84,2.86,17,1.1.4,3.21-1.47,5.44-3.46.63-.56,1.24-1.08,1.86-1.61,2.38-2,4.84-4.11,5.84-6.35a9.12,9.12,0,0,0,0-7.39,8.32,8.32,0,0,0-4.79-4.62,7.28,7.28,0,0,0-2.45-.42Zm0,0" transform="translate(0 -0.53)"/><path d="M50.33,89.1a1.2,1.2,0,0,1-1.2-1.2V85.47a7.24,7.24,0,0,1-3-2.78l0-.07c-1.66-3.18-3.27-3.34-4.57-3.46a5,5,0,0,1-1.16-.21,3.1,3.1,0,0,1-1.91-3.07,3.24,3.24,0,0,1,1.86-2.78c3-1.59,9.29-1.32,10-1.28a1.2,1.2,0,1,1-.13,2.4c-1.76-.09-6.75-.09-8.76,1l-.08,0s-.5.26-.5.66c0,.13,0,.68.3.77a4.07,4.07,0,0,0,.6.09c1.47.15,4.19.42,6.44,4.7.49.78,1.48,1.84,2.11,1.84a1.2,1.2,0,0,1,1.2,1.2v3.38a1.2,1.2,0,0,1-1.2,1.2Zm0,0" transform="translate(0 -0.53)"/><g class="cls-2"><path d="M65.91,53.13a5,5,0,1,1,5-5,5,5,0,0,1-5,5Zm0-7.6a2.6,2.6,0,1,0,2.6,2.6,2.6,2.6,0,0,0-2.6-2.6Zm0,0" transform="translate(0 -0.53)"/><path d="M92.85,28.43a1.2,1.2,0,0,1-.8-2.1c3.63-3.22,6-7.64,6.19-11.53a8.7,8.7,0,0,0-2.33-6.59c-5.2-5.59-13-3.21-18.48,1.63A1.2,1.2,0,1,1,75.84,8C82.16,2.43,91.37-.2,97.67,6.58a11.17,11.17,0,0,1,3,8.34c-.22,4.58-2.84,9.52-7,13.21a1.19,1.19,0,0,1-.79.3Zm0,0" transform="translate(0 -0.53)"/></g><path d="M71.34,66.23c-2.06,0-4.16-1.87-6.71-4.13-.61-.55-1.2-1.05-1.81-1.56-2.59-2.2-5.26-4.47-6.48-7.21A11.66,11.66,0,0,1,56.29,44a10.75,10.75,0,0,1,6.19-5.94c5.65-2,12.07,1.57,14.32,7.94a24.54,24.54,0,0,1,.55,11.45c-.47,2.71-1.72,7.43-4.85,8.57a3.42,3.42,0,0,1-1.15.2ZM58.54,52.35c1,2.24,3.46,4.33,5.84,6.35.62.52,1.23,1,1.8,1.55,2.18,1.95,4.4,3.91,5.49,3.51,3.08-1.12,4.82-11.42,2.86-17-1.81-5.12-6.85-8-11.26-6.48A8.35,8.35,0,0,0,58.5,45a9.15,9.15,0,0,0,0,7.4Zm0,0" transform="translate(0 -0.53)"/><path d="M50.33,89.1a1.2,1.2,0,0,1-1.2-1.2V84.51a1.2,1.2,0,0,1,1.2-1.2c.62,0,1.61-1.06,2.11-1.85,2.25-4.29,5-4.55,6.44-4.7a4.1,4.1,0,0,0,.61-.09c.25-.09.29-.64.29-.74,0-.42-.49-.68-.5-.68l-.07,0c-2-1.1-7-1.1-8.76-1a1.2,1.2,0,0,1-.13-2.39c.72,0,7-.32,10,1.28a3.24,3.24,0,0,1,1.86,2.82,3.07,3.07,0,0,1-1.9,3,4.83,4.83,0,0,1-1.16.21c-1.3.13-2.91.29-4.57,3.47l0,.07a7.22,7.22,0,0,1-3,2.78V87.9a1.2,1.2,0,0,1-1.2,1.2Zm0,0" transform="translate(0 -0.53)"/><path d="M43.48,91.87a1.2,1.2,0,0,1-.82-2.07c.11-.1,2.65-2.43,7.67-2.43a1.2,1.2,0,0,1,0,2.4c-4,0-6,1.71-6,1.79a1.2,1.2,0,0,1-.81.31Zm0,0" transform="translate(0 -0.53)"/><path d="M57.18,91.87a1.19,1.19,0,0,1-.81-.32c-.09-.08-2-1.78-6-1.78a1.2,1.2,0,1,1,0-2.4c5,0,7.56,2.33,7.67,2.43a1.2,1.2,0,0,1-.82,2.07Zm0,0" transform="translate(0 -0.53)"/></g></g></svg>