<svg xmlns="http://www.w3.org/2000/svg" xmlns:xlink="http://www.w3.org/1999/xlink" viewBox="0 0 101.03 92.43"><defs><style>.cls-1{fill:none;}.cls-2{clip-path:url(#clip-path);}</style><clipPath id="clip-path" transform="translate(0 -0.57)"><rect class="cls-1" y="0.12" width="101.76" height="93.84"/></clipPath></defs><title>Ресурс 32</title><g id="Слой_2" data-name="Слой 2"><g id="Слой_1-2" data-name="Слой 1"><path d="M34.16,44a5.33,5.33,0,1,1,5.33-5.33A5.34,5.34,0,0,1,34.16,44Zm0-8.27a2.93,2.93,0,1,0,2.93,2.93,2.94,2.94,0,0,0-2.93-2.93Zm0,0" transform="translate(0 -0.57)"/><path d="M38.89,42.52A1.2,1.2,0,0,1,37.73,41c0-.17,1-4-3.38-6.24l-.1-.05c-3.92-2-9.29-4.7-7.4-14.51,0-.08,1.71-9,10.34-10.23a1.2,1.2,0,0,1,.34,2.38c-6.93,1-8.31,8.22-8.32,8.29-1.55,8.05,2.35,10,6.13,11.93l.1.05c5,2.51,5.19,7,4.61,9a1.2,1.2,0,0,1-1.15.87Zm0,0" transform="translate(0 -0.57)"/><path d="M50.48,13.09H49a3.37,3.37,0,1,1,0-6.73h1.49a1.2,1.2,0,1,1,0,2.4H49a1,1,0,0,0,0,1.93h1.49a1.2,1.2,0,0,1,0,2.4Zm0,0" transform="translate(0 -0.57)"/><path d="M37.28,16.52a1.21,1.21,0,0,1-1.2-1.25l.41-10.79a1.2,1.2,0,0,1,1.57-1.1l9.71,3.13A1.2,1.2,0,1,1,47,8.8l-8.2-2.64-.28,7.48,8.89-2.94A1.2,1.2,0,0,1,48.18,13L37.66,16.46a1.15,1.15,0,0,1-.38.06Zm0,0" transform="translate(0 -0.57)"/><path d="M50.56,57.12a6.9,6.9,0,0,1-7-6.4c0-2.91,3.56-2.91,7-2.91a1.2,1.2,0,0,1,0,2.4c-1.37,0-4.22,0-4.61.49a4.53,4.53,0,0,0,4.61,4,1.2,1.2,0,0,1,0,2.4Zm0,0" transform="translate(0 -0.57)"/><path d="M22.47,93a1.2,1.2,0,0,1-1.2-1.11C19.13,64,28.41,50.39,28.81,49.83c7.36-10.58,15.63-10.77,16.47-10.74,5.35-.22,6.34,3.34,6.38,3.5a1.2,1.2,0,0,1-2.32.63c0-.12-.68-1.88-4-1.73h-.09c-.3,0-7.68-.06-14.47,9.72-.1.14-9.18,13.51-7.11,40.5A1.2,1.2,0,0,1,22.56,93Zm0,0" transform="translate(0 -0.57)"/><path d="M38.49,57.07a1.18,1.18,0,0,1-.56-.14,1.2,1.2,0,0,1-.49-1.62c3-5.56,7.19-6.66,7.37-6.7a1.2,1.2,0,0,1,.58,2.33c-.16,0-3.41,1-5.84,5.5a1.2,1.2,0,0,1-1.06.64Zm0,0" transform="translate(0 -0.57)"/><g class="cls-2"><path d="M33.5,92.58a1.2,1.2,0,0,1-1.19-1.11c-.2-2.69-.11-5.69-.1-5.82,1.08-18.86,12.56-24.95,13-25.2,4.07-2,4.05-3.91,4.05-3.93a1.17,1.17,0,0,1,1-1.32,1.22,1.22,0,0,1,1.35,1.05c0,.36.3,3.54-5.36,6.34-.42.22-10.73,5.77-11.73,23.16,0,0-.1,3,.1,5.53a1.2,1.2,0,0,1-1.11,1.29Zm0,0" transform="translate(0 -0.57)"/><path d="M2.56,92.58a1.2,1.2,0,0,1-1.19-1.06C.84,87.09.06,74.43,0,73.89-.42,46.13,4.58,25.53,14.89,12.61,22.48,3.1,30.2,1.46,31,1.31,37.71-.36,41.86,1.09,44.15,2.6a9.57,9.57,0,0,1,3.52,4,1.2,1.2,0,0,1-2.22.91c-.13-.3-2.94-6.57-13.93-3.82l-.09,0c-.07,0-7.55,1.41-14.81,10.62C4.34,29.85,2.12,55.24,2.43,73.8c0,.08.81,13.07,1.33,17.43A1.2,1.2,0,0,1,2.7,92.57Zm0,0" transform="translate(0 -0.57)"/></g><path d="M50.39,64.78A10.71,10.71,0,0,1,44.23,63a1.2,1.2,0,0,1,1.44-1.92,8.51,8.51,0,0,0,4.72,1.25,1.2,1.2,0,0,1,0,2.4Zm0,0" transform="translate(0 -0.57)"/><path d="M14.49,92.58a1.2,1.2,0,0,1-1.17-.94c-.56-2.53.7-6,.85-6.43,1.23-3.16,2.31-5.73,3.27-8,4.2-9.95,5.77-13.67,5.13-33.75-.82-25.37,9-31.12,9.42-31.36a1.2,1.2,0,0,1,1.17,2.09C33,14.29,24.2,19.76,25,43.38c.66,20.61-1.09,24.75-5.31,34.76-.95,2.25-2,4.8-3.23,7.91-.32.86-1.09,3.5-.75,5.06a1.2,1.2,0,0,1-.91,1.43l-.26,0Zm0,0" transform="translate(0 -0.57)"/><path d="M45.89,41a1.21,1.21,0,0,1-.79-.3c-.43-.37-10.43-9.29-10.93-18.29a10.92,10.92,0,0,1,2.93-8.22,1.2,1.2,0,1,1,1.77,1.61,8.51,8.51,0,0,0-2.31,6.47c.44,8,10,16.54,10.12,16.63a1.2,1.2,0,0,1,.11,1.7,1.22,1.22,0,0,1-.9.41Zm0,0" transform="translate(0 -0.57)"/><path d="M46.29,87.62a1.2,1.2,0,0,1-1.1-.71c-4.6-10.25-.71-17.2-.54-17.49a1.2,1.2,0,0,1,2.08,1.2c-.15.26-3.42,6.25.65,15.31a1.2,1.2,0,0,1-.61,1.59,1.15,1.15,0,0,1-.49.11Zm0,0" transform="translate(0 -0.57)"/><path d="M66.86,44a5.33,5.33,0,1,1,5.34-5.33A5.34,5.34,0,0,1,66.86,44Zm0-8.27a2.93,2.93,0,1,0,2.93,2.93,2.93,2.93,0,0,0-2.93-2.93Zm0,0" transform="translate(0 -0.57)"/><path d="M62.13,42.52A1.2,1.2,0,0,1,61,41.65c-.58-2-.36-6.52,4.61-9l.1-.05c3.77-1.91,7.68-3.88,6.13-11.92-.06-.31-1.44-7.31-8.32-8.3A1.2,1.2,0,1,1,63.84,10c8.62,1.24,10.33,10.15,10.34,10.24,1.89,9.8-3.49,12.52-7.41,14.5l-.1.05C62.21,37,63.24,40.83,63.28,41a1.2,1.2,0,0,1-.82,1.48,1.22,1.22,0,0,1-.33,0Zm0,0" transform="translate(0 -0.57)"/><path d="M52,13.09H50.55a1.2,1.2,0,0,1,0-2.4H52a1,1,0,1,0,0-1.93H50.55a1.2,1.2,0,1,1,0-2.4H52a3.37,3.37,0,1,1,0,6.73Zm0,0" transform="translate(0 -0.57)"/><path d="M63.75,16.52a1.15,1.15,0,0,1-.38-.06L52.84,13a1.2,1.2,0,1,1,.75-2.28l8.89,2.94L62.2,6.15,54,8.8a1.2,1.2,0,1,1-.74-2.29L63,3.38a1.2,1.2,0,0,1,1.57,1.1l.41,10.79a1.2,1.2,0,0,1-1.2,1.25Zm0,0" transform="translate(0 -0.57)"/><path d="M50.46,57.12a1.2,1.2,0,0,1,0-2.4,4.52,4.52,0,0,0,4.61-4c-.39-.51-3.24-.51-4.61-.51a1.2,1.2,0,0,1,0-2.4c3.44,0,7,0,7,2.91a6.9,6.9,0,0,1-7,6.4Zm0,0" transform="translate(0 -0.57)"/><path d="M78.55,93h-.09a1.2,1.2,0,0,1-1.11-1.29c2.07-27-7-40.36-7.11-40.5-6.79-9.77-14.16-9.75-14.48-9.72h-.09c-3.37-.15-4,1.65-4,1.73A1.22,1.22,0,0,1,50.2,44a1.19,1.19,0,0,1-.83-1.44c0-.15,1-3.71,6.38-3.5.84,0,9.11.16,16.47,10.75.39.56,9.68,14.12,7.54,42.05A1.2,1.2,0,0,1,78.55,93Zm0,0" transform="translate(0 -0.57)"/><path d="M62.53,57.07a1.2,1.2,0,0,1-1.06-.64c-2.47-4.63-5.8-5.49-5.83-5.5a1.2,1.2,0,1,1,.57-2.33c.18,0,4.4,1.14,7.37,6.7a1.2,1.2,0,0,1-.49,1.62,1.18,1.18,0,0,1-.57.14Zm0,0" transform="translate(0 -0.57)"/><g class="cls-2"><path d="M67.53,92.58h-.09a1.2,1.2,0,0,1-1.11-1.29c.19-2.56.1-5.53.1-5.56-1-17.45-11.63-23.09-11.74-23.14-5.65-2.79-5.39-6-5.34-6.33a1.2,1.2,0,0,1,2.38.27c0,.12.09,2,4,3.91.5.26,12,6.34,13.06,25.18,0,.16.1,3.16-.1,5.85a1.2,1.2,0,0,1-1.2,1.11Zm0,0" transform="translate(0 -0.57)"/><path d="M98.46,92.58h-.15a1.2,1.2,0,0,1-1-1.34c.52-4.36,1.32-17.36,1.33-17.49,1-64.3-28.7-70-29-70.08l-.09,0C58.49.9,55.69,7.21,55.57,7.48A1.21,1.21,0,0,1,54,8.13a1.2,1.2,0,0,1-.66-1.55,9.53,9.53,0,0,1,3.52-4c2.29-1.52,6.44-3,13.18-1.29.78.14,8.5,1.78,16.09,11.29C96.44,25.53,101.44,46.13,101,73.84c0,.59-.82,13.25-1.35,17.68a1.2,1.2,0,0,1-1.19,1.06Zm0,0" transform="translate(0 -0.57)"/></g><path d="M50.63,64.78a1.2,1.2,0,0,1,0-2.4,8.5,8.5,0,0,0,4.72-1.25A1.2,1.2,0,0,1,56.79,63a10.71,10.71,0,0,1-6.16,1.73Zm0,0" transform="translate(0 -0.57)"/><path d="M86.53,92.58l-.26,0a1.2,1.2,0,0,1-.91-1.43c.35-1.57-.43-4.2-.75-5.08-1.2-3.09-2.28-5.64-3.23-7.89-4.23-10-6-14.15-5.31-34.76C76.83,19.46,68,14.25,67.88,14.2A1.2,1.2,0,1,1,69,12.11c.42.23,10.23,6,9.42,31.36-.65,20.08.93,23.8,5.12,33.75,1,2.27,2,4.83,3.26,8,.15.41,1.41,3.92.85,6.45a1.2,1.2,0,0,1-1.17.94Zm0,0" transform="translate(0 -0.57)"/><path d="M55.13,41a1.2,1.2,0,0,1-.79-2.1c.09-.09,9.68-8.64,10.12-16.63a8.5,8.5,0,0,0-2.31-6.47,1.2,1.2,0,1,1,1.77-1.61,10.91,10.91,0,0,1,2.93,8.22c-.5,9-10.5,17.91-10.93,18.29a1.21,1.21,0,0,1-.79.3Zm0,0" transform="translate(0 -0.57)"/><path d="M54.73,87.62a1.15,1.15,0,0,1-.49-.11,1.2,1.2,0,0,1-.6-1.59c4.1-9.14.69-15.25.66-15.31a1.2,1.2,0,0,1,2.08-1.2c.16.29,4.05,7.25-.55,17.49a1.2,1.2,0,0,1-1.1.71Zm0,0" transform="translate(0 -0.57)"/></g></g></svg>