<svg xmlns="http://www.w3.org/2000/svg" xmlns:xlink="http://www.w3.org/1999/xlink" viewBox="0 0 92.61 98.66"><defs><style>.cls-1{fill:none;}.cls-2{clip-path:url(#clip-path);}</style><clipPath id="clip-path" transform="translate(0 -0.34)"><rect class="cls-1" y="0.12" width="92.88" height="99.84"/></clipPath></defs><title>Ресурс 25</title><g id="Слой_2" data-name="Слой 2"><g id="Слой_1-2" data-name="Слой 1"><path d="M46.35,60.79H45.7a1.2,1.2,0,0,1,0-2.4h.65a1.25,1.25,0,0,0,1-.6c2-3.63,4.43-3.85,5.73-4a4.09,4.09,0,0,0,.5-.06c.09,0,.13-.33.13-.36s-.22-.31-.33-.36c-1.79-.91-6.12-1-7.65-1h0a1.2,1.2,0,0,1,0-2.4c.62,0,6.11-.08,8.7,1.22a2.86,2.86,0,0,1,1.73,2.5A2.7,2.7,0,0,1,54.33,56a4.39,4.39,0,0,1-1,.17c-1.09.1-2.45.23-3.84,2.72a3.63,3.63,0,0,1-3.12,1.86Zm0,0" transform="translate(0 -0.34)"/><path d="M76.31,66.19A2.19,2.19,0,1,1,74.12,64a2.19,2.19,0,0,1,2.19,2.19Zm0,0" transform="translate(0 -0.34)"/><path d="M63.54,42a5.08,5.08,0,0,1,0-10.17h0a5.08,5.08,0,0,1,0,10.17Zm0-7.77h0a2.69,2.69,0,1,0,1.79.68,2.69,2.69,0,0,0-1.79-.68Zm0,0" transform="translate(0 -0.34)"/><path d="M87.73,46.06h-.11c-10-.95-12.28-2.6-15.41-8.22-2.4-4.32-8.46-3.66-8.52-3.65a1.2,1.2,0,0,1-.28-2.38c.31,0,7.73-.84,10.9,4.87,2.55,4.59,3.82,6.08,13.54,7a1.2,1.2,0,0,1-.11,2.39Zm0,0" transform="translate(0 -0.34)"/><g class="cls-2"><path d="M52.85,99c-.67,0-1.3,0-1.84-.07s-.84-.05-1.2-.05H46.24a1.2,1.2,0,0,1,0-2.4h3.57c.4,0,.85,0,1.34.06,3.31.2,7.43.44,9.15-6.18,1.84-7,5.75-10.79,16.22-20.78l.09-.08a34.87,34.87,0,0,0,11-26.13s0-.07,0-.11c0-11.13-3.84-21.36-10.82-28.81A37.59,37.59,0,0,0,49,2.74H43.6a1.2,1.2,0,1,1,0-2.4H49c23.38,0,41,18.43,41,42.87a36.83,36.83,0,0,1-11.78,28l-.08.08C68.07,81,64.29,84.58,62.62,91c-1.85,7.1-6.41,8-9.78,8Zm0,0" transform="translate(0 -0.34)"/><path d="M85.59,24.4A1.2,1.2,0,0,1,85,22.14a9.13,9.13,0,0,0,4.45-11.66,7.3,7.3,0,0,0-4.26-4,8.49,8.49,0,0,0-6.74.7,10.53,10.53,0,0,0-3.59,3.07A1.2,1.2,0,0,1,73,8.85a13.11,13.11,0,0,1,4.41-3.78A10.86,10.86,0,0,1,86,4.24a9.65,9.65,0,0,1,5.67,5.25,11.53,11.53,0,0,1-5.53,14.78,1.24,1.24,0,0,1-.55.14Zm0,0" transform="translate(0 -0.34)"/></g><path d="M82.92,19.43a1.2,1.2,0,0,1-.52-2.28,3.39,3.39,0,0,0,1.89-2.39,2.28,2.28,0,0,0-.42-1.86,2.23,2.23,0,0,0-1.68-.83,3.4,3.4,0,0,0-2.84,1.43,1.2,1.2,0,0,1-1.95-1.4,5.77,5.77,0,0,1,4.91-2.43,4.59,4.59,0,0,1,4.34,5.52,5.76,5.76,0,0,1-3.21,4.13,1.17,1.17,0,0,1-.52.12Zm0,0" transform="translate(0 -0.34)"/><path d="M57.89,8.81A2.19,2.19,0,1,1,55.7,6.61a2.19,2.19,0,0,1,2.19,2.19Zm0,0" transform="translate(0 -0.34)"/><path d="M66.67,14.82a2.19,2.19,0,1,1-2.2-2.19,2.2,2.2,0,0,1,2.2,2.19Zm0,0" transform="translate(0 -0.34)"/><path d="M74.43,22.21A2.19,2.19,0,1,1,72.24,20a2.19,2.19,0,0,1,2.19,2.2Zm0,0" transform="translate(0 -0.34)"/><path d="M81.58,32.24A2.19,2.19,0,1,1,79.38,30a2.2,2.2,0,0,1,2.19,2.19Zm0,0" transform="translate(0 -0.34)"/><path d="M82.2,57.92A2.19,2.19,0,1,1,80,55.73a2.19,2.19,0,0,1,2.19,2.19Zm0,0" transform="translate(0 -0.34)"/><path d="M52.95,18.61c-.63.49,1.27,2.16,3.15,4.58s3,4.67,3.66,4.17.44-3.49-1.44-5.91-4.73-3.34-5.37-2.84Zm0,0" transform="translate(0 -0.34)"/><path d="M46.33,44.69a1.2,1.2,0,0,1-1.2-1.2V38.42a3.74,3.74,0,0,1,.63-2.66,4.28,4.28,0,0,1,3.16-1.64L53,33.56a1.2,1.2,0,1,1,.32,2.38l-4.14.56a2.22,2.22,0,0,0-1.5.64,1.36,1.36,0,0,0-.21.95,1.7,1.7,0,0,1,0,.24v5.17a1.2,1.2,0,0,1-1.2,1.2Zm0,0" transform="translate(0 -0.34)"/><path d="M54.88,54.43a1.2,1.2,0,0,1-1.2-1.2V48.14a5.78,5.78,0,0,1,.95-4,4.06,4.06,0,0,1,2.84-1.53A1.2,1.2,0,1,1,57.75,45a1.69,1.69,0,0,0-1.22.61,3.6,3.6,0,0,0-.46,2.25,1.31,1.31,0,0,1,0,.18v5.17a1.2,1.2,0,0,1-1.2,1.2Zm0,0" transform="translate(0 -0.34)"/><path d="M50.84,51.36a1.2,1.2,0,0,1-1.2-1.2V45c-.12-1.85.57-5.59,4.07-6l6.44-.94a1.2,1.2,0,1,1,.35,2.38L54,41.39c-2.14.25-2,3.4-2,3.53v5.24a1.2,1.2,0,0,1-1.2,1.2Zm0,0" transform="translate(0 -0.34)"/><path d="M55.5,78.06h-.16a1.2,1.2,0,0,1-1-1L53,68.19a1.2,1.2,0,0,1,2.37-.36L56,72.32a26.86,26.86,0,0,0,1.29-4.4,1.2,1.2,0,1,1,2.37.38c-.52,3.25-3,8.81-3.09,9a1.21,1.21,0,0,1-1.1.71Zm0,0" transform="translate(0 -0.34)"/><path d="M51.16,93.74h-.1A1.19,1.19,0,0,1,50,92.44l.63-7.22a1.2,1.2,0,0,1,2.23-.51,29.24,29.24,0,0,1,2.91,6.54,1.2,1.2,0,1,1-2.34.55,14,14,0,0,0-.77-2.21l-.27,3.05a1.2,1.2,0,0,1-1.2,1.1Zm0,0" transform="translate(0 -0.34)"/><path d="M53.76,94.12H46.43a1.2,1.2,0,0,1,0-2.4h7.33a1.8,1.8,0,0,0,2-1.55s0-.09,0-.13A62.76,62.76,0,0,1,61,75.18c5.48-10.79,4.16-18.35,4.15-18.43a1.2,1.2,0,0,1,2.36-.44c.06.34,1.48,8.44-4.37,19.95a60.18,60.18,0,0,0-5,14.23,4.19,4.19,0,0,1-4.35,3.62Zm0,0" transform="translate(0 -0.34)"/><path d="M56.2,69.06a12.55,12.55,0,0,1-8.79-3.31A8.07,8.07,0,0,1,45,59.89a1.2,1.2,0,1,1,2.4,0,5.65,5.65,0,0,0,1.7,4.15,10.12,10.12,0,0,0,7.09,2.6,8.75,8.75,0,0,0,8.95-8.51A8.55,8.55,0,0,0,59,50.06a1.2,1.2,0,0,1,.71-2.29,10.93,10.93,0,0,1,7.85,10.38A11.15,11.15,0,0,1,56.2,69.06Zm0,0" transform="translate(0 -0.34)"/><path d="M46.33,44.69a1.2,1.2,0,0,1-1.2-1.2V38.42a3.74,3.74,0,0,1,.63-2.66,4.28,4.28,0,0,1,3.16-1.64L53,33.56a1.2,1.2,0,1,1,.32,2.38l-4.14.56a2.22,2.22,0,0,0-1.5.64,1.36,1.36,0,0,0-.21.95,1.7,1.7,0,0,1,0,.24v5.17a1.2,1.2,0,0,1-1.2,1.2Zm0,0" transform="translate(0 -0.34)"/><path d="M46.91,60.79h-.65a3.63,3.63,0,0,1-3.14-1.9c-1.37-2.46-2.73-2.58-3.82-2.68a4.9,4.9,0,0,1-1-.17,2.72,2.72,0,0,1-1.78-2.73,2.84,2.84,0,0,1,1.72-2.46c2.59-1.3,8.08-1.24,8.7-1.22a1.2,1.2,0,0,1,0,2.4h0c-1.53,0-5.87.09-7.6,1l-.07,0c-.09,0-.31.21-.31.32s0,.37.12.4a4.09,4.09,0,0,0,.5.06c1.3.12,3.71.35,5.71,3.94a1.25,1.25,0,0,0,1,.63h.65a1.2,1.2,0,0,1,0,2.4Zm0,0" transform="translate(0 -0.34)"/><path d="M20.68,66.19A2.19,2.19,0,1,1,18.49,64a2.19,2.19,0,0,1,2.19,2.19Zm0,0" transform="translate(0 -0.34)"/><path d="M29.07,42a5.08,5.08,0,1,1,0-10.17h0a5.08,5.08,0,1,1,0,10.17Zm0-7.77a2.68,2.68,0,1,0,2.69,2.68,2.67,2.67,0,0,0-2.69-2.68Zm0,0" transform="translate(0 -0.34)"/><path d="M4.88,46.06a1.2,1.2,0,0,1-.11-2.39c9.72-.92,11-2.41,13.54-7,3.17-5.71,10.59-4.91,10.9-4.87a1.2,1.2,0,0,1-.28,2.38c-.06,0-6.14-.64-8.52,3.65C17.28,43.45,15,45.11,5,46.05Zm0,0" transform="translate(0 -0.34)"/><g class="cls-2"><path d="M39.76,99c-3.37,0-7.92-.93-9.78-8C28.3,84.51,24.5,80.9,14.34,71.24a37.3,37.3,0,0,1-11.78-28C2.59,18.77,20.22.34,43.6.34H49a1.2,1.2,0,1,1,0,2.4H43.6A37.61,37.61,0,0,0,15.79,14.45C8.81,21.9,5,32.13,5,43.26a.73.73,0,0,1,0,.09A35.51,35.51,0,0,0,16,69.49c10.52,10,14.45,13.75,16.31,20.87C34,97,38.15,96.73,41.46,96.53c.49,0,.94-.05,1.34-.05h3.57a1.2,1.2,0,0,1,0,2.4H42.8c-.36,0-.76,0-1.2.05s-1.17.07-1.84.07Zm0,0" transform="translate(0 -0.34)"/><path d="M7,24.4a1.19,1.19,0,0,1-.55-.14A11.53,11.53,0,0,1,.94,9.49,9.63,9.63,0,0,1,6.61,4.24a10.85,10.85,0,0,1,8.63.84,13,13,0,0,1,4.41,3.77,1.2,1.2,0,0,1-1.93,1.43,10.6,10.6,0,0,0-3.6-3.07,8.49,8.49,0,0,0-6.74-.7,7.29,7.29,0,0,0-4.26,4A9.12,9.12,0,0,0,7.58,22.14,1.2,1.2,0,0,1,7,24.4Zm0,0" transform="translate(0 -0.34)"/></g><path d="M9.69,19.43a1.15,1.15,0,0,1-.52-.12A5.75,5.75,0,0,1,6,15.19,4.59,4.59,0,0,1,10.3,9.67a5.76,5.76,0,0,1,4.91,2.43,1.2,1.2,0,0,1-1.95,1.4,3.43,3.43,0,0,0-2.84-1.43,2.26,2.26,0,0,0-1.68.83,2.3,2.3,0,0,0-.42,1.87,3.4,3.4,0,0,0,1.89,2.39,1.2,1.2,0,0,1-.52,2.28Zm0,0" transform="translate(0 -0.34)"/><path d="M39.1,8.81a2.19,2.19,0,1,1-2.19-2.19A2.19,2.19,0,0,1,39.1,8.81Zm0,0" transform="translate(0 -0.34)"/><path d="M30.33,14.82a2.19,2.19,0,1,1-2.19-2.19,2.19,2.19,0,0,1,2.19,2.19Zm0,0" transform="translate(0 -0.34)"/><path d="M22.56,22.21A2.19,2.19,0,1,1,20.37,20a2.19,2.19,0,0,1,2.19,2.2Zm0,0" transform="translate(0 -0.34)"/><path d="M15.42,32.24A2.19,2.19,0,1,1,13.22,30a2.19,2.19,0,0,1,2.2,2.19Zm0,0" transform="translate(0 -0.34)"/><path d="M14.79,57.92a2.19,2.19,0,1,1-2.19-2.19,2.19,2.19,0,0,1,2.19,2.19Zm0,0" transform="translate(0 -0.34)"/><path d="M39.66,18.61c.64.49-1.26,2.16-3.14,4.58s-3,4.67-3.66,4.17-.44-3.49,1.44-5.91,4.73-3.34,5.37-2.84Zm0,0" transform="translate(0 -0.34)"/><path d="M46.27,44.69a1.2,1.2,0,0,1-1.2-1.2V38.32a1.07,1.07,0,0,1,0-.25,1.36,1.36,0,0,0-.21-.93,2.22,2.22,0,0,0-1.48-.63l-4.16-.57a1.2,1.2,0,0,1,.32-2.38l4.13.56a4.26,4.26,0,0,1,3.14,1.63,3.74,3.74,0,0,1,.63,2.66v5.07a1.2,1.2,0,0,1-1.2,1.2Zm0,0" transform="translate(0 -0.34)"/><path d="M37.72,54.43a1.2,1.2,0,0,1-1.2-1.2V48.07a1.3,1.3,0,0,1,0-.18,3.43,3.43,0,0,0-.46-2.26,1.68,1.68,0,0,0-1.21-.6,1.2,1.2,0,1,1,.27-2.38A4.06,4.06,0,0,1,38,44.17a5.77,5.77,0,0,1,.94,4v5.09a1.2,1.2,0,0,1-1.2,1.2Zm0,0" transform="translate(0 -0.34)"/><path d="M41.77,51.36a1.2,1.2,0,0,1-1.2-1.2V45c0-.21.16-3.36-1.95-3.6l-6.52-.95a1.2,1.2,0,1,1,.34-2.37l6.49.94c3.46.4,4.16,4.13,4,6.05v5.09a1.21,1.21,0,0,1-1.2,1.2Zm0,0" transform="translate(0 -0.34)"/><path d="M37.11,78.06a1.21,1.21,0,0,1-1.1-.71c-.1-.24-2.58-5.8-3.1-9.05a1.2,1.2,0,1,1,2.37-.38,26.35,26.35,0,0,0,1.29,4.4l.67-4.48a1.2,1.2,0,0,1,2.37.36L38.3,77a1.2,1.2,0,0,1-1,1Zm0,0" transform="translate(0 -0.34)"/><path d="M41.45,93.74a1.2,1.2,0,0,1-1.19-1.1l-.27-3a14.25,14.25,0,0,0-.77,2.21,1.2,1.2,0,0,1-2.34-.55,29.59,29.59,0,0,1,2.91-6.54,1.2,1.2,0,0,1,2.23.51l.63,7.21a1.2,1.2,0,0,1-1.09,1.3Zm0,0" transform="translate(0 -0.34)"/><path d="M46.18,94.12H38.85A4.19,4.19,0,0,1,34.5,90.5a60.42,60.42,0,0,0-5-14.23c-5.85-11.5-4.43-19.61-4.37-19.95a1.2,1.2,0,0,1,2.36.43c0,.08-1.3,7.71,4.15,18.43A62.8,62.8,0,0,1,36.85,90a1.1,1.1,0,0,1,0,.13,1.8,1.8,0,0,0,2,1.55h7.33a1.2,1.2,0,1,1,0,2.4Zm0,0" transform="translate(0 -0.34)"/><path d="M36.41,69.06A11.15,11.15,0,0,1,25.06,58.15a10.93,10.93,0,0,1,7.85-10.38,1.2,1.2,0,1,1,.72,2.29,8.54,8.54,0,0,0-6.16,8.09,8.75,8.75,0,0,0,9,8.51,10.12,10.12,0,0,0,7.09-2.6,5.62,5.62,0,0,0,1.69-4.15,1.2,1.2,0,0,1,2.4,0,8.07,8.07,0,0,1-2.39,5.86,12.54,12.54,0,0,1-8.79,3.31Zm0,0" transform="translate(0 -0.34)"/><path d="M46.28,39.52l-.25,0a1.2,1.2,0,0,1-.92-1.41,1.35,1.35,0,0,0-.21-.94,2.19,2.19,0,0,0-1.48-.64l-4.16-.57a1.2,1.2,0,0,1,.32-2.38l4.13.56a4.27,4.27,0,0,1,3.14,1.63,3.77,3.77,0,0,1,.6,2.82,1.2,1.2,0,0,1-1.17.95Zm0,0" transform="translate(0 -0.34)"/></g></g></svg>