<svg xmlns="http://www.w3.org/2000/svg" xmlns:xlink="http://www.w3.org/1999/xlink" viewBox="0 0 97.23 99.16"><defs><style>.cls-1{fill:none;}.cls-2{clip-path:url(#clip-path);}</style><clipPath id="clip-path" transform="translate(0 -0.84)"><rect class="cls-1" y="0.16" width="97.92" height="100.8"/></clipPath></defs><title>Ресурс 24</title><g id="Слой_2" data-name="Слой 2"><g id="Слой_1-2" data-name="Слой 1"><path d="M48.83,100c-17.2,0-29.22-9.41-29.22-22.9a19.65,19.65,0,0,1,1.2-6.79c.1-.26,2.36-6,5.2-9.44a24.52,24.52,0,0,0,3.8-9.16c1.33-7.39,9.52-13,19-13a1.2,1.2,0,1,1,0,2.4c-8.37,0-15.53,4.74-16.67,11a26.51,26.51,0,0,1-4.28,10.2c-2.62,3.19-4.81,8.75-4.83,8.8a17.18,17.18,0,0,0-1,5.94c0,12.07,11,20.5,26.82,20.5a1.2,1.2,0,1,1,0,2.4Zm0,0" transform="translate(0 -0.84)"/><path d="M48.76,100a1.2,1.2,0,1,1,0-2.4c15.79,0,26.82-8.43,26.82-20.5a17.24,17.24,0,0,0-1-6s-2.2-5.59-4.8-8.75a26.32,26.32,0,0,1-4.3-10.21c-1.14-6.31-8.31-11.05-16.68-11.05a1.2,1.2,0,0,1,0-2.4c9.51,0,17.69,5.59,19,13a24.21,24.21,0,0,0,3.82,9.17c2.82,3.42,5.07,9.15,5.16,9.39A19.66,19.66,0,0,1,78,77.1C78,90.58,66,100,48.76,100Zm0,0" transform="translate(0 -0.84)"/><path d="M33.13,68.86a3.43,3.43,0,0,1-3.11-2,3.43,3.43,0,1,1,6.33-.28h0a3.43,3.43,0,0,1-3.22,2.26Zm0-4.46a1,1,0,0,0-1,.68,1,1,0,0,0,0,.79,1,1,0,0,0,.58.54,1,1,0,1,0,.7-1.94,1.09,1.09,0,0,0-.35-.06Zm0,0" transform="translate(0 -0.84)"/><path d="M36.82,71.12a1.16,1.16,0,0,1-.38-.06,1.2,1.2,0,0,1-.76-1.52,4.26,4.26,0,0,0,0-3.37,3.58,3.58,0,0,0-1.93-1.61,1.2,1.2,0,0,1,.68-2.3,6.06,6.06,0,0,1,3.38,2.8A6.56,6.56,0,0,1,38,70.3a1.2,1.2,0,0,1-1.14.82Zm0,0" transform="translate(0 -0.84)"/><path d="M64.44,68.86a3.43,3.43,0,0,1-3.23-2.26h0a3.43,3.43,0,0,1,6.44-2.35,3.43,3.43,0,0,1-3.21,4.61Zm-1-3.08a1,1,0,1,0,.61-1.32,1,1,0,0,0-.61,1.32Zm0,0" transform="translate(0 -0.84)"/><g class="cls-2"><path d="M60.74,71.12a1.2,1.2,0,0,1-1.14-.82,6.54,6.54,0,0,1,.16-5.24,6,6,0,0,1,3.38-2.8,1.2,1.2,0,0,1,.68,2.3,3.63,3.63,0,0,0-1.95,1.63,4.28,4.28,0,0,0,0,3.35,1.2,1.2,0,0,1-.76,1.52,1.17,1.17,0,0,1-.38.06Zm0,0" transform="translate(0 -0.84)"/><path d="M33,48a1.22,1.22,0,0,1-.8-.3c-2.5-2.22-5.42-4.48-8.24-6.67-4.58-3.55-9.32-7.22-12.7-11C.93,18.56-.21,11.27,0,7.94A6.9,6.9,0,0,1,2.21,3,5.75,5.75,0,0,1,6.78,2c5.82.79,13.43,7.19,20.35,17.15,4.44,6.38,7.11,13.06,9.94,20.14.43,1.09.88,2.19,1.33,3.3a1.2,1.2,0,1,1-2.22.9q-.68-1.68-1.33-3.31c-2.78-6.95-5.41-13.51-9.69-19.66C17.46,9.4,10.45,4.88,6.46,4.35a3.55,3.55,0,0,0-2.7.52A4.57,4.57,0,0,0,2.42,8.11c-.17,2.37.52,9.11,10.59,20.33,3.25,3.62,7.89,7.22,12.39,10.71,2.85,2.21,5.8,4.5,8.36,6.76A1.2,1.2,0,0,1,33,48Zm0,0" transform="translate(0 -0.84)"/></g><path d="M33.82,46.76A1.19,1.19,0,0,1,32.69,46C20.88,14.93,1.61,11.18,1.42,11.15a1.2,1.2,0,1,1,.42-2.36c.84.15,20.8,4,33.1,36.36a1.2,1.2,0,0,1-.7,1.55,1.18,1.18,0,0,1-.43.08Zm0,0" transform="translate(0 -0.84)"/><path d="M64.27,47a1.2,1.2,0,0,1-.8-2.1C66,42.59,69,40.3,71.84,38.09,76.33,34.61,81,31,84.23,27.39,94.29,16.17,95,9.44,94.81,7.06a4.6,4.6,0,0,0-1.33-3.24,3.56,3.56,0,0,0-2.71-.52c-4,.54-11,5.05-18.7,16.13-4.28,6.16-6.91,12.72-9.69,19.66l-1.33,3.31a1.2,1.2,0,1,1-2.22-.9l1.33-3.3C63,31.13,65.67,24.44,70.1,18.07,77,8.11,84.63,1.7,90.45.92A5.74,5.74,0,0,1,95,2a6.92,6.92,0,0,1,2.19,4.91c.24,3.33-.9,10.62-11.2,22.1-3.39,3.78-8.12,7.45-12.7,11-2.82,2.19-5.74,4.45-8.24,6.67a1.19,1.19,0,0,1-.8.3Zm0,0" transform="translate(0 -0.84)"/><path d="M63.42,45.72a1.17,1.17,0,0,1-.43-.08,1.2,1.2,0,0,1-.7-1.55C74.59,11.76,94.55,7.88,95.4,7.73a1.2,1.2,0,1,1,.42,2.36c-.21,0-19.51,3.9-31.28,34.84a1.2,1.2,0,0,1-1.12.78Zm0,0" transform="translate(0 -0.84)"/><path d="M45.16,99.18a1.2,1.2,0,0,1-.84-2.06l3.34-3.23V87.56L43,84.42a1.2,1.2,0,1,1,1.34-2l5.16,3.49a1.21,1.21,0,0,1,.53,1V94.4a1.21,1.21,0,0,1-.36.86L46,98.84a1.18,1.18,0,0,1-.83.34Zm0,0" transform="translate(0 -0.84)"/><path d="M38.49,98.59a1.19,1.19,0,0,1-.33,0,10.8,10.8,0,0,1-7.42-10.88,9,9,0,0,1,5-7.79,1.2,1.2,0,0,1,1,2.19,6.61,6.61,0,0,0-3.59,5.75,8.43,8.43,0,0,0,5.68,8.42,1.2,1.2,0,0,1-.32,2.35Zm0,0" transform="translate(0 -0.84)"/><path d="M13.61,92.54a1.2,1.2,0,0,1,0-2.4l22.34-.69L5.6,78.05a1.2,1.2,0,1,1,.84-2.25l36,13.54A1.2,1.2,0,0,1,42,91.67l-28.4.87Zm0,0" transform="translate(0 -0.84)"/><path d="M52.5,99.18a1.2,1.2,0,0,1-.84-.34L48,95.26a1.21,1.21,0,0,1-.36-.86V86.92a1.2,1.2,0,0,1,.53-1l5.16-3.49a1.2,1.2,0,1,1,1.34,2L50,87.56v6.33l3.34,3.23a1.2,1.2,0,0,1-.84,2.06Zm0,0" transform="translate(0 -0.84)"/><path d="M59.17,98.59a1.2,1.2,0,0,1-.32-2.35,8.43,8.43,0,0,0,5.68-8.42,6.61,6.61,0,0,0-3.59-5.75,1.2,1.2,0,0,1,1-2.19,9,9,0,0,1,5,7.79,10.8,10.8,0,0,1-7.43,10.88,1.16,1.16,0,0,1-.32,0Zm0,0" transform="translate(0 -0.84)"/><path d="M84,92.54h0l-28.4-.87a1.2,1.2,0,0,1-.38-2.32l36-13.54a1.2,1.2,0,1,1,.85,2.25L61.75,89.46l22.34.69a1.2,1.2,0,0,1,0,2.4Zm0,0" transform="translate(0 -0.84)"/></g></g></svg>