<svg xmlns="http://www.w3.org/2000/svg" xmlns:xlink="http://www.w3.org/1999/xlink" viewBox="0 0 98.2 104.4"><defs><style>.cls-1{fill:none;}.cls-2{clip-path:url(#clip-path);}</style><clipPath id="clip-path" transform="translate(0 -0.6)"><rect class="cls-1" y="0.12" width="98.88" height="105.84"/></clipPath></defs><title>Ресурс 20</title><g id="Слой_2" data-name="Слой 2"><g id="Слой_1-2" data-name="Слой 1"><path d="M20.44,39h-.13a2.26,2.26,0,0,1-1.48-.71,6.3,6.3,0,0,1-1.37-6.59c-.35,0-.71,0-1.06,0A15.55,15.55,0,1,1,32,16.15a18.82,18.82,0,0,1-.31,3l-.06.37a37,37,0,0,1-9.4,18.68,2.49,2.49,0,0,1-1.74.77ZM19,29.08a1.42,1.42,0,0,1,1.12.53c.71.89,0,2.09-.23,2.6a3.93,3.93,0,0,0,.63,4.3l0,0s7.12-7.25,8.71-17.33l.06-.38a16.63,16.63,0,0,0,.28-2.63,13.15,13.15,0,1,0-10.93,13,1.75,1.75,0,0,1,.34,0Zm0,0" transform="translate(0 -0.6)"/><path d="M2.33,15.07a1.2,1.2,0,0,1-1-1.79c.34-.61,3.48-5.88,7.47-4.76.44.13.9.27,1.36.41,2.75.86,5.35,1.68,8-.58,6-5,9.76-2.3,11.49-.25a1.2,1.2,0,1,1-1.83,1.55c-1.33-1.57-3.61-3.23-8.11.55-3.7,3.1-7.36,1.95-10.31,1-.43-.14-.86-.27-1.29-.39C6.24,10.3,4,13.35,3.38,14.46a1.2,1.2,0,0,1-1,.61Zm0,0" transform="translate(0 -0.6)"/><path d="M41.93,91.6a1.2,1.2,0,0,1-1.11-.75c-4-10.08-7.16-13.76-7.19-13.79L33.57,77a31.87,31.87,0,0,0-4.67-4.76A32.79,32.79,0,0,1,19,59c-4.54-10.84-.08-21.49.11-21.94a1.2,1.2,0,0,1,2.21.95c0,.1-4.24,10.18-.1,20.07,2.76,6.59,6.06,9.5,9.25,12.32a34,34,0,0,1,5,5.09C35.84,76,39,79.85,43,90a1.2,1.2,0,0,1-1.12,1.65Zm0,0" transform="translate(0 -0.6)"/><path d="M34,59.4a3.47,3.47,0,1,1,3.47-3.47A3.47,3.47,0,0,1,34,59.4Zm0-4.53a1.07,1.07,0,1,0,1.07,1.07A1.07,1.07,0,0,0,34,54.87Zm0,0" transform="translate(0 -0.6)"/><path d="M37.43,61.67a1.25,1.25,0,0,1-.37-.06,1.2,1.2,0,0,1-.77-1.52c.86-2.64-1.39-5.16-1.41-5.18a5.69,5.69,0,0,0-6.05-1.43,1.2,1.2,0,1,1-.89-2.23,8,8,0,0,1,8.72,2c.13.14,3.22,3.56,1.92,7.55a1.2,1.2,0,0,1-1.14.83Zm0,0" transform="translate(0 -0.6)"/><path d="M49.06,98.64c-5.38,0-8-2.19-8.13-6.69A6.12,6.12,0,0,1,43.52,87a4.56,4.56,0,0,0,1.71-3.38,14.86,14.86,0,0,0-.7-4.37,1.2,1.2,0,0,1,2.26-.81,17.31,17.31,0,0,1,.84,5.16A6.93,6.93,0,0,1,45,89a3.68,3.68,0,0,0-1.62,3c.05,2.67,1,4.34,5.73,4.34a1.2,1.2,0,1,1,0,2.4Zm0,0" transform="translate(0 -0.6)"/><path d="M46.33,94.06h-.19a1.2,1.2,0,0,1-1-1.35c0-.33,0-1.42-1.95-1.81a1.2,1.2,0,0,1,.46-2.36c3.51.69,4.05,3.26,3.85,4.52a1.2,1.2,0,0,1-1.18,1Zm0,0" transform="translate(0 -0.6)"/><g class="cls-2"><path d="M49,43a1.2,1.2,0,0,1-1.2-1.2c0-10.67-7.32-21.65-8.51-23.36a19.2,19.2,0,0,0-8.12,3.32,1.2,1.2,0,1,1-1.35-2c11-7.5,19.52-1.91,19.88-1.67a1.21,1.21,0,0,1,.53,1l0,22.69h0A1.2,1.2,0,0,1,49,43ZM42.12,18.26a58.51,58.51,0,0,1,5.73,11.38l0-9.89a13.67,13.67,0,0,0-5.74-1.49Zm0,0" transform="translate(0 -0.6)"/><path d="M39.2,85.27a1.2,1.2,0,0,1-1-.5c-.59-.82-14.71-20.1-36.63-12.5A1.2,1.2,0,1,1,.81,70C24.45,61.8,40,83.15,40.18,83.37A1.2,1.2,0,0,1,39.89,85a1.18,1.18,0,0,1-.7.23Zm0,0" transform="translate(0 -0.6)"/><path d="M40.8,89.4a1.18,1.18,0,0,1-.82-.32,41.16,41.16,0,0,0-12.13-7.28C18.4,78.22,9.68,79.36,1.92,85.16A1.2,1.2,0,1,1,.48,83.24c20.17-15.1,40.93,3.89,41.14,4.08a1.2,1.2,0,0,1-.82,2.08Zm0,0" transform="translate(0 -0.6)"/></g><path d="M5.73,105a1.21,1.21,0,0,1-.47-.1,1.2,1.2,0,0,1-.63-1.57c3.47-8.08,8.55-13.27,15.11-15.45,11.2-3.71,22.52,2.74,23,3A1.2,1.2,0,0,1,41.53,93c-.11-.06-10.89-6.18-21.05-2.81-5.87,2-10.46,6.7-13.64,14.11a1.2,1.2,0,0,1-1.11.73Zm0,0" transform="translate(0 -0.6)"/><path d="M77.75,39A2.45,2.45,0,0,1,76,38.24a37,37,0,0,1-9.43-18.7l-.06-.37a18.71,18.71,0,0,1-.31-3A15.55,15.55,0,1,1,81.8,31.71c-.35,0-.71,0-1.06,0a6.3,6.3,0,0,1-1.38,6.59,2.24,2.24,0,0,1-1.48.71ZM69,19.16c1.59,10.08,8.66,17.29,8.73,17.36h0a3.94,3.94,0,0,0,.63-4.31c-.28-.51-.95-1.71-.24-2.6a1.45,1.45,0,0,1,1.46-.49,13.16,13.16,0,1,0-10.93-13,16.58,16.58,0,0,0,.28,2.63Zm0,0" transform="translate(0 -0.6)"/><path d="M95.87,15.07a1.21,1.21,0,0,1-1-.61c-.64-1.11-2.87-4.16-4.73-3.64-.42.12-.85.25-1.29.39-2.94.93-6.61,2.07-10.31-1-4.5-3.77-6.79-2.12-8.11-.55a1.2,1.2,0,1,1-1.84-1.55C70.28,6,74.07,3.35,80,8.35c2.69,2.26,5.29,1.44,8,.58.46-.14.91-.29,1.36-.41,4-1.13,7.12,4.16,7.47,4.76a1.2,1.2,0,0,1-1,1.79Zm0,0" transform="translate(0 -0.6)"/><path d="M56.27,91.6a1.22,1.22,0,0,1-.45-.09A1.2,1.2,0,0,1,55.16,90c4.05-10.1,7.2-14,7.57-14.44a34.2,34.2,0,0,1,5-5.09C70.9,67.61,74.2,64.69,77,58.1c4.16-9.92-.05-20-.09-20.07a1.2,1.2,0,0,1,2.21-.95c.19.45,4.65,11.09.1,21.94A32.8,32.8,0,0,1,69.3,72.22,31.88,31.88,0,0,0,64.63,77l-.05.07s-3.15,3.71-7.19,13.79a1.2,1.2,0,0,1-1.11.75Zm0,0" transform="translate(0 -0.6)"/><path d="M64.2,59.4a3.47,3.47,0,1,1,3.46-3.47A3.47,3.47,0,0,1,64.2,59.4Zm0-4.53a1.07,1.07,0,1,0,1.07,1.07,1.07,1.07,0,0,0-1.07-1.07Zm0,0" transform="translate(0 -0.6)"/><path d="M60.77,61.67a1.19,1.19,0,0,1-1.14-.83c-1.3-4,1.79-7.41,1.93-7.55a8,8,0,0,1,8.71-2,1.2,1.2,0,0,1-.89,2.23,5.66,5.66,0,0,0-6.06,1.43S61,57.45,61.91,60.09a1.21,1.21,0,0,1-.77,1.52,1.25,1.25,0,0,1-.37.06Zm0,0" transform="translate(0 -0.6)"/><path d="M49.13,98.64a1.2,1.2,0,1,1,0-2.4c4.71,0,5.68-1.66,5.73-4.34a3.7,3.7,0,0,0-1.64-3,6.94,6.94,0,0,1-2.66-5.32,17.27,17.27,0,0,1,.84-5.16,1.2,1.2,0,1,1,2.26.82,14.84,14.84,0,0,0-.7,4.38A4.55,4.55,0,0,0,54.67,87,6.12,6.12,0,0,1,57.27,92c-.09,4.5-2.75,6.69-8.13,6.69Zm0,0" transform="translate(0 -0.6)"/><path d="M51.86,94.05a1.18,1.18,0,0,1-1.17-1c-.2-1.26.34-3.83,3.85-4.52A1.2,1.2,0,0,1,55,90.89c-1.95.38-2,1.48-1.94,1.81A1.21,1.21,0,0,1,52,94Zm0,0" transform="translate(0 -0.6)"/><path d="M49.17,43a1.2,1.2,0,0,1-1.2-1.2h0l0-22.69a1.21,1.21,0,0,1,.53-1c.36-.24,8.87-5.84,19.88,1.67a1.2,1.2,0,0,1-1.35,2,19.21,19.21,0,0,0-8.12-3.32c-1.19,1.71-8.51,12.69-8.51,23.36a1.2,1.2,0,0,1-1.2,1.2Zm1.17-23.21,0,9.89a58.46,58.46,0,0,1,5.73-11.38,13.69,13.69,0,0,0-5.74,1.49Zm0,0" transform="translate(0 -0.6)"/><path d="M59,85.27a1.18,1.18,0,0,1-.7-.23A1.2,1.2,0,0,1,58,83.37C58.18,83.15,73.75,61.8,97.39,70a1.2,1.2,0,1,1-.79,2.27c-22-7.62-36.48,12.29-36.63,12.5a1.2,1.2,0,0,1-1,.5Zm0,0" transform="translate(0 -0.6)"/><path d="M57.4,89.4a1.2,1.2,0,0,1-.82-2.08c.21-.19,21-19.18,41.14-4.08a1.2,1.2,0,1,1-1.44,1.92C77.7,71.26,58.41,88.9,58.22,89.08a1.2,1.2,0,0,1-.82.32Zm0,0" transform="translate(0 -0.6)"/><path d="M92.47,105a1.2,1.2,0,0,1-1.11-.73c-3.18-7.42-7.78-12.16-13.66-14.11-10.18-3.37-20.93,2.75-21,2.81a1.2,1.2,0,0,1-1.21-2.07c.48-.28,11.8-6.73,23-3C85,90.05,90.1,95.25,93.57,103.33a1.2,1.2,0,0,1-.63,1.57,1.21,1.21,0,0,1-.47.1Zm0,0" transform="translate(0 -0.6)"/></g></g></svg>