<svg xmlns="http://www.w3.org/2000/svg" xmlns:xlink="http://www.w3.org/1999/xlink" viewBox="0 0 145.82 124.74"><defs><style>.cls-1{fill:none;}.cls-2{clip-path:url(#clip-path);}</style><clipPath id="clip-path" transform="translate(0 -0.26)"><rect class="cls-1" y="0.2" width="145.92" height="125.76"/></clipPath></defs><title>Ресурс 19</title><g id="Слой_2" data-name="Слой 2"><g id="Слой_1-2" data-name="Слой 1"><path d="M57.91,55.6a1.2,1.2,0,0,1-.79-2.1c3.84-3.39,9.14-5.1,15.77-5.1a1.2,1.2,0,1,1,0,2.4c-6,0-10.79,1.51-14.18,4.5a1.2,1.2,0,0,1-.79.3Zm0,0" transform="translate(0 -0.26)"/><path d="M72.83,125h-.05c-17.14-.73-16.9-8.54-16.72-14.23a12.72,12.72,0,0,0-.44-5,131.87,131.87,0,0,1-5-16.29c-.17-.76-4-18.09,0-27.64a1.2,1.2,0,0,1,2.21.93c-3.71,8.84.1,26,.14,26.16a128.52,128.52,0,0,0,4.86,15.91,14.3,14.3,0,0,1,.63,6c-.18,5.72-.34,11.13,14.43,11.76a1.2,1.2,0,0,1-.05,2.4Zm0,0" transform="translate(0 -0.26)"/><path d="M54.23,77.43a4.38,4.38,0,0,1-2.35-.69h0a4.1,4.1,0,0,1-1.45-5.6A3.79,3.79,0,0,1,53,69.43a4.44,4.44,0,0,1,5,3.34,3.8,3.8,0,0,1-.48,2.89,3.89,3.89,0,0,1-3.32,1.77Zm-1.07-2.72a1.71,1.71,0,0,0,2.37-.34,1.41,1.41,0,0,0,.17-1.08,2,2,0,0,0-2.26-1.5,1.43,1.43,0,0,0-1,.63,1.71,1.71,0,0,0,.71,2.29Zm0,0" transform="translate(0 -0.26)"/><path d="M58,78.91h-.09a1.2,1.2,0,0,1-1.11-1.29c.19-2.44-.29-4.21-1.42-5.25a5.77,5.77,0,0,0-4.34-1.11,1.2,1.2,0,0,1-.4-2.37c.15,0,3.81-.62,6.35,1.69,1.72,1.56,2.46,4,2.21,7.21A1.2,1.2,0,0,1,58,78.91Zm0,0" transform="translate(0 -0.26)"/><path d="M63.49,115.1a3.6,3.6,0,1,1,3.6-3.6,3.6,3.6,0,0,1-3.6,3.6Zm0-4.8a1.2,1.2,0,1,0,1.2,1.2,1.2,1.2,0,0,0-1.2-1.2Zm0,0" transform="translate(0 -0.26)"/><path d="M67.64,116a1.2,1.2,0,0,1-1.2-1.2c0-4.09-2.74-4.47-3-4.5A1.2,1.2,0,0,1,62.3,109a1.19,1.19,0,0,1,1.27-1.1c1.82.13,5.27,1.74,5.27,6.89a1.2,1.2,0,0,1-1.2,1.2Zm0,0" transform="translate(0 -0.26)"/><g class="cls-2"><path d="M72.83,124.7a1.2,1.2,0,0,1-1.2-1.2V121L70,120a1.2,1.2,0,0,1,1.28-2l2.17,1.37a1.19,1.19,0,0,1,.56,1v3.13a1.2,1.2,0,0,1-1.2,1.2Zm0,0" transform="translate(0 -0.26)"/><path d="M52.69,63.43h-.15c-21.63-2.73-34-8.54-34.93-9C7,50.14.94,41.1.1,28.3A63.49,63.49,0,0,1,2.78,7c1-3.34,2.88-5.76,5-6.47a4,4,0,0,1,3.7.56c3,2.12,1.35,5.66.8,6.82l-.13.28a2.75,2.75,0,0,1-.22.55c-1.4,3-2.15,8.56-2.23,16.6s1.57,12.14,3,14.17c1.67,2.43,3.41,2.63,3.6,2.64h.08a1.71,1.71,0,0,0,.21-.84,82.59,82.59,0,0,1,1.13-12.75,5.22,5.22,0,0,1,2.2-3.77,3.43,3.43,0,0,1,2.86-.24c2.14.72,3.13,2.46,2.79,4.9,0,.22-.08.5-.14.84A44.44,44.44,0,0,0,24.71,41a6,6,0,0,0,1.64,4.34,3.84,3.84,0,0,0,2.5,1h.21a1.1,1.1,0,0,0,.82-.11,1.23,1.23,0,0,0,.17-.8.65.65,0,0,1,0-.09A42.77,42.77,0,0,1,32,32.14c1.36-4.19,4.06-3.41,5.08-3.11,1.59.46,2.89,2.37,2.16,5C38.79,35.7,38,40.82,38,41.38A8.41,8.41,0,0,0,40.31,48c5.16,5.37,16.89,5.19,17,5.19a1.19,1.19,0,0,1,1.21,1c.43,3-.05,5.39-1.45,7a6.3,6.3,0,0,1-4.35,2.14ZM9.05,2.66a1.6,1.6,0,0,0-.53.09C7.21,3.2,5.86,5.13,5.07,7.67A61,61,0,0,0,2.5,28.14c.79,12,6.19,20.1,16.05,24.08l.07,0c.12.06,12.59,6,34.11,8.77a3.94,3.94,0,0,0,2.53-1.32,5.7,5.7,0,0,0,1-4.11c-3.25-.09-12.74-.79-17.68-5.91a10.85,10.85,0,0,1-3-8.5v-.1c0-.24.84-5.8,1.35-7.69.33-1.22-.11-2-.52-2.07-1-.28-1.49-.43-2.13,1.55a41.13,41.13,0,0,0-1.82,12.23,3.5,3.5,0,0,1-.85,2.73,3.15,3.15,0,0,1-2.73.82,6.19,6.19,0,0,1-4.12-1.59,8.28,8.28,0,0,1-2.44-6A47,47,0,0,1,23,29.84c.06-.31.1-.55.13-.75.22-1.6-.44-2-1.18-2.3a1.06,1.06,0,0,0-.89,0c-.27.16-.77.64-1.05,2.15A80.74,80.74,0,0,0,18.9,41.29a3.7,3.7,0,0,1-1,2.57A2.41,2.41,0,0,1,16,44.5c-.92-.07-9-1.2-8.78-19.23C7.37,12.63,9.13,8.9,9.71,7.67l.07-.15a3.82,3.82,0,0,1,.28-.69c1-2.06,1-3.13,0-3.82a1.73,1.73,0,0,0-1-.36Zm0,0" transform="translate(0 -0.26)"/></g><path d="M22.25,26.34l-.22,0a1.21,1.21,0,0,1-1-1.4,41.29,41.29,0,0,1,1.17-4.39l0-.12c.63-1.45,1.09-3.78.38-4.12s-.93-.23-1-.19c-1.08.43-2.39,3.87-2.84,5.06a2.83,2.83,0,0,1-1.37,1.61,4.19,4.19,0,0,1-3.38.05,3.39,3.39,0,0,1-2-1.63c-1.39-2.31-1.15-6.39.71-12.13.43-1.15.68-2.73.39-3.23,0,0,0-.06-.14-.08a1.2,1.2,0,0,1,.44-2.36,2.52,2.52,0,0,1,1.79,1.26c1,1.76,0,4.64-.22,5.21-2.05,6.33-1.51,9-1,10,.3.58.63.69.64.7s0,0,.11,0a2.16,2.16,0,0,0,1.52.12.59.59,0,0,0,.21-.19l0-.11c1.55-4.12,2.69-5.88,4.21-6.48a3.54,3.54,0,0,1,3,.27c3,1.5,1.13,6.35.79,7.17a39,39,0,0,0-1.09,4.06,1.2,1.2,0,0,1-1.18,1Zm0,0" transform="translate(0 -0.26)"/><path d="M33.59,32.33a1.15,1.15,0,0,1-.32,0,1.2,1.2,0,0,1-.84-1.48q.2-.73.4-1.42c.81-2.87,1.57-5.58.95-6.57-.07-.1-.26-.42-1.1-.57s-1.69,1.2-2.75,4l-.54,1.23a3.43,3.43,0,0,1-4,2.48A4.39,4.39,0,0,1,24,29.42a1.2,1.2,0,1,1,1.19-2.08,1.91,1.91,0,0,0,.6.2c.36.07.91.18,1.36-1l.55-1.23c.72-1.89,2.27-5.94,5.37-5.4a3.81,3.81,0,0,1,2.72,1.66c1.19,1.89.41,4.66-.67,8.5-.13.46-.26.92-.39,1.41a1.2,1.2,0,0,1-1.16.88Zm0,0" transform="translate(0 -0.26)"/><path d="M48.37,54.37a1.2,1.2,0,0,1-1-.52c-6.47-9.38-5.09-15.25-1.94-17.43,1.58-1.09,4.29-1.89,8.28.49a25.44,25.44,0,0,1,7.48,7.41,23.36,23.36,0,0,1,3.08,6.22,1.2,1.2,0,1,1-2.29.71,20.92,20.92,0,0,0-2.77-5.57A23,23,0,0,0,52.5,39c-1.6-1-3.89-1.82-5.69-.57-3.34,2.3-1,8.91,2.55,14.09a1.2,1.2,0,0,1-1,1.88Zm0,0" transform="translate(0 -0.26)"/><path d="M58.22,53.81a1.2,1.2,0,0,1-1.16-.87C53.36,39.77,45.23,39.75,45.14,39.71a1.2,1.2,0,1,1,0-2.4c.38,0,10.07.06,14.27,15a1.2,1.2,0,0,1-.83,1.48,1.34,1.34,0,0,1-.32,0Zm0,0" transform="translate(0 -0.26)"/><path d="M57.22,108.86h-.06A1.2,1.2,0,0,1,56,107.6c0-.84,1.13-20.7,11.76-24.52a1.2,1.2,0,1,1,.81,2.26c-9.14,3.29-10.17,22.19-10.18,22.38a1.2,1.2,0,0,1-1.2,1.14Zm0,0" transform="translate(0 -0.26)"/><path d="M87.91,55.6a1.2,1.2,0,0,1-.79-.3c-3.39-3-8.16-4.5-14.18-4.5a1.2,1.2,0,1,1,0-2.4c6.62,0,11.93,1.72,15.76,5.1a1.2,1.2,0,0,1-.79,2.1Zm0,0" transform="translate(0 -0.26)"/><path d="M73,125a1.2,1.2,0,0,1,0-2.4c14.77-.63,14.6-6,14.42-11.76a14.38,14.38,0,0,1,.63-6,128.91,128.91,0,0,0,4.87-15.93c0-.15,3.84-17.3.13-26.13a1.2,1.2,0,0,1,2.21-.93c4,9.54.15,26.88,0,27.61a130.86,130.86,0,0,1-5,16.32,12.78,12.78,0,0,0-.43,5c.18,5.69.41,13.5-16.72,14.23Zm0,0" transform="translate(0 -0.26)"/><path d="M91.59,77.43a3.88,3.88,0,0,1-3.32-1.77,3.8,3.8,0,0,1-.48-2.89,4.43,4.43,0,0,1,5-3.34,3.82,3.82,0,0,1,2.6,1.71,4.1,4.1,0,0,1-1.45,5.6h0a4.38,4.38,0,0,1-2.36.69Zm.48-5.66a2,2,0,0,0-1.07.32,2,2,0,0,0-.88,1.21,1.41,1.41,0,0,0,.17,1.08,1.85,1.85,0,0,0,3.08-1.95,1.43,1.43,0,0,0-1-.63,1.71,1.71,0,0,0-.31,0Zm0,0" transform="translate(0 -0.26)"/><path d="M87.81,78.91a1.2,1.2,0,0,1-1.2-1.11c-.25-3.23.5-5.65,2.21-7.21,2.53-2.32,6.19-1.72,6.35-1.69a1.2,1.2,0,0,1-.4,2.36,5.8,5.8,0,0,0-4.34,1.11c-1.13,1-1.61,2.81-1.43,5.25a1.2,1.2,0,0,1-1.11,1.29Zm0,0" transform="translate(0 -0.26)"/><path d="M82.33,115.1a3.6,3.6,0,1,1,3.6-3.6,3.61,3.61,0,0,1-3.6,3.6Zm0-4.8a1.2,1.2,0,1,0,1.2,1.2,1.2,1.2,0,0,0-1.2-1.2Zm0,0" transform="translate(0 -0.26)"/><path d="M78.18,116a1.2,1.2,0,0,1-1.2-1.2c0-5.15,3.44-6.77,5.26-6.89a1.2,1.2,0,0,1,.18,2.39c-.32,0-3,.42-3,4.5a1.2,1.2,0,0,1-1.2,1.2Zm0,0" transform="translate(0 -0.26)"/><g class="cls-2"><path d="M73,124.7a1.2,1.2,0,0,1-1.2-1.2v-3.13a1.2,1.2,0,0,1,.56-1L74.52,118a1.2,1.2,0,1,1,1.28,2l-1.61,1v2.47a1.2,1.2,0,0,1-1.2,1.2Zm0,0" transform="translate(0 -0.26)"/><path d="M93.13,63.43h0a6.31,6.31,0,0,1-4.36-2.14c-1.4-1.65-1.88-4-1.45-7a1.2,1.2,0,0,1,1.22-1c.12,0,11.85.17,17-5.19a8.41,8.41,0,0,0,2.35-6.64c-.08-.56-.83-5.68-1.28-7.34-.72-2.64.57-4.55,2.16-5,1-.3,3.72-1.08,5.08,3.11a42.86,42.86,0,0,1,1.94,13.14.9.9,0,0,1,0,.1,1.18,1.18,0,0,0,.18.79,1.08,1.08,0,0,0,.82.11H117c.39,0,3.89,0,4.15-5.31a44.62,44.62,0,0,0-.64-10.71c-.06-.34-.11-.62-.14-.84-.34-2.45.65-4.18,2.79-4.9a3.44,3.44,0,0,1,2.86.24,5.22,5.22,0,0,1,2.2,3.77,82.71,82.71,0,0,1,1.13,12.7,1.65,1.65,0,0,0,.23.88h.07c.07,0,6.71-.69,6.56-16.81-.08-8-.83-13.62-2.23-16.6a2.83,2.83,0,0,1-.22-.55l-.13-.28c-.55-1.16-2.24-4.7.8-6.82a4,4,0,0,1,3.7-.57c2.07.71,3.93,3.13,5,6.48a63.62,63.62,0,0,1,2.68,21.34c-.84,12.8-6.9,21.83-17.51,26.13-.93.45-13.3,6.25-34.93,9Zm-3.57-7.82a5.72,5.72,0,0,0,1,4.11A4,4,0,0,0,93.1,61c21.52-2.74,34-8.71,34.1-8.77l.07,0c9.86-4,15.26-12.07,16.05-24.07a60.85,60.85,0,0,0-2.58-20.48c-.78-2.54-2.13-4.46-3.45-4.91a1.61,1.61,0,0,0-1.54.26c-1,.69-1,1.76,0,3.82a4.12,4.12,0,0,1,.29.69l.07.15c.58,1.23,2.34,5,2.46,17.6.18,18-7.86,19.16-8.78,19.22a2.41,2.41,0,0,1-1.89-.64,3.73,3.73,0,0,1-1-2.61A80.59,80.59,0,0,0,125.83,29c-.29-1.5-.79-2-1.05-2.15a1,1,0,0,0-.89,0c-.74.25-1.4.7-1.18,2.3,0,.2.07.45.13.75a47,47,0,0,1,.67,11.25,8.27,8.27,0,0,1-2.44,6,6.3,6.3,0,0,1-4.12,1.59,3.17,3.17,0,0,1-2.73-.82,3.5,3.5,0,0,1-.85-2.74,41.15,41.15,0,0,0-1.82-12.23c-.65-2-1.17-1.83-2.13-1.55-.41.12-.85.86-.52,2.07.51,1.89,1.32,7.45,1.35,7.68v.1a10.86,10.86,0,0,1-3,8.5c-4.93,5.13-14.43,5.82-17.68,5.91Zm0,0" transform="translate(0 -0.26)"/></g><path d="M123.57,26.34a1.2,1.2,0,0,1-1.18-1,40.06,40.06,0,0,0-1.09-4.06c-.35-.82-2.25-5.67.79-7.17a3.54,3.54,0,0,1,3-.27c1.52.6,2.66,2.36,4.21,6.48a.62.62,0,0,1,0,.11c.14.34.8.39,1.73.07.1,0,.07,0,.18,0a1.53,1.53,0,0,0,.57-.68c.51-1,1.06-3.62-1-10-.19-.51-1.19-3.4-.2-5.16a2.51,2.51,0,0,1,1.79-1.26,1.2,1.2,0,1,1,.44,2.36c-.11,0-.12,0-.14.08-.28.51,0,2.09.38,3.18,1.88,5.79,2.12,9.87.73,12.18a3.39,3.39,0,0,1-2,1.63,4.19,4.19,0,0,1-3.37-.05A2.84,2.84,0,0,1,127,21.15c-.45-1.19-1.76-4.63-2.84-5.06-.09,0-.35-.14-1,.19s-.25,2.67.38,4.12a.76.76,0,0,1,0,.12,41.28,41.28,0,0,1,1.17,4.39,1.2,1.2,0,0,1-1,1.4l-.22,0Zm0,0" transform="translate(0 -0.26)"/><path d="M112.23,32.33a1.2,1.2,0,0,1-1.16-.88L110.68,30c-1.08-3.83-1.86-6.6-.67-8.5a3.8,3.8,0,0,1,2.72-1.65c3.11-.54,4.66,3.51,5.4,5.46l.5,1.11c.48,1.26,1,1.16,1.38,1.09a1.94,1.94,0,0,0,.6-.2,1.2,1.2,0,1,1,1.2,2.08,4.3,4.3,0,0,1-1.35.48c-1.84.35-3.31-.57-4.05-2.54l-.49-1.1c-1.07-2.82-2-4.14-2.77-4s-1,.46-1.1.57c-.62,1,.14,3.7.95,6.57l.4,1.42a1.2,1.2,0,0,1-.84,1.48,1.14,1.14,0,0,1-.32,0Zm0,0" transform="translate(0 -0.26)"/><path d="M97.45,54.37a1.2,1.2,0,0,1-1-1.88C100,47.32,102.35,40.7,99,38.4c-1.81-1.25-4.09-.38-5.69.57a23,23,0,0,0-6.73,6.71,21,21,0,0,0-2.77,5.57,1.2,1.2,0,1,1-2.29-.71,23.35,23.35,0,0,1,3.08-6.22,25.44,25.44,0,0,1,7.48-7.41c4-2.37,6.7-1.57,8.28-.49,3.15,2.18,4.53,8-1.93,17.43a1.21,1.21,0,0,1-1,.52Zm0,0" transform="translate(0 -0.26)"/><path d="M87.6,53.81a1.37,1.37,0,0,1-.32,0,1.2,1.2,0,0,1-.83-1.48c4.2-14.92,13.88-15,14.27-15a1.2,1.2,0,0,1,0,2.4h0c-.35,0-8.26.19-11.94,13.23a1.2,1.2,0,0,1-1.16.88Zm0,0" transform="translate(0 -0.26)"/><path d="M88.6,108.86a1.2,1.2,0,0,1-1.2-1.14c0-.19-1-19.09-10.17-22.38A1.2,1.2,0,1,1,78,83.08c10.63,3.83,11.71,23.68,11.76,24.52a1.2,1.2,0,0,1-1.14,1.25Zm0,0" transform="translate(0 -0.26)"/></g></g></svg>