<svg xmlns="http://www.w3.org/2000/svg" xmlns:xlink="http://www.w3.org/1999/xlink" viewBox="0 0 129.46 113.59"><defs><style>.cls-1{fill:none;}.cls-2{clip-path:url(#clip-path);}</style><clipPath id="clip-path" transform="translate(0 -0.41)"><rect class="cls-1" y="0.24" width="129.84" height="114.72"/></clipPath></defs><title>Ресурс 18</title><g id="Слой_2" data-name="Слой 2"><g id="Слой_1-2" data-name="Слой 1"><path d="M56.4,108.15a1.2,1.2,0,0,1-.73-.25,8.67,8.67,0,0,0-.87-.59c-4.91-2.89-4.85-7.42-4.82-9.6v-.14a10,10,0,0,1,.09-1.1c.23-1.95.62-5.2-4.36-13.4S41.4,66,42,62.44c-5.22.24-21.5.1-25.7-10.68a1.19,1.19,0,0,1,.29-1.3c.06-.06,6-5.62,14-.8l.07,0a43.24,43.24,0,0,1,5.62,4.79,24,24,0,0,1,1.87,2.33c1.23,1.66,2.29,3.1,3.75,3.12a1.21,1.21,0,0,1,.41.08l1.06-.07a1.19,1.19,0,0,1,1,.41,1.2,1.2,0,0,1,.26,1.07c0,.11-2.58,10.93,3.18,20.41,5.41,8.91,5,12.68,4.69,14.93a8.07,8.07,0,0,0-.08.84v.14c0,2-.07,5.32,3.64,7.5a10.71,10.71,0,0,1,1.12.75,1.2,1.2,0,0,1-.74,2.15ZM18.84,51.69C22,58.22,31.36,59.76,37.54,60c-.49-.56-.94-1.17-1.39-1.78a23.71,23.71,0,0,0-1.68-2.11,41.34,41.34,0,0,0-5.22-4.45c-5-3-8.93-1-10.4,0Zm0,0" transform="translate(0 -0.41)"/><path d="M44.47,54.81c-1.58,0-3.75-.84-7.24-3.72-5.36-4.44-8.83-5-8.87-5-3.77-.5-6.53,0-8.2,1.49a5.07,5.07,0,0,0-1.65,3.49,1.2,1.2,0,1,1-2.4.05,7.45,7.45,0,0,1,2.44-5.33c2.21-2,5.62-2.68,10.12-2.08.16,0,4.11.58,10.08,5.52,4.62,3.82,6,3.22,6.6,3l.06,0a.67.67,0,0,0,.22-.31.81.81,0,0,0-.23-.5c-1.08-1.4-2.08-2.67-2.34-3a2,2,0,0,1-.28-2.54A1.38,1.38,0,0,1,44,45.13c.59-.63,1.6-1.81,2.3-2.65A1.73,1.73,0,0,1,47,40.59a2.67,2.67,0,0,1,3.31.12l4.22,2.94a1.54,1.54,0,0,0,.85.14l.13-.07c.77-.43,1.83-1,9.17-1h0a1.2,1.2,0,0,1,0,2.4c-6.72,0-7.62.52-8,.74a2.91,2.91,0,0,1-.56.26,3.89,3.89,0,0,1-2.74-.32l-.14-.08-4.25-3,0,.14a1.21,1.21,0,0,1-.24.47c-.09.11-2.3,2.81-3.23,3.72l-.26.24,2,2.61A3,3,0,0,1,48,52.31a3.1,3.1,0,0,1-1.38,2l-.18.09-.13.05a4.5,4.5,0,0,1-1.83.4Zm0,0" transform="translate(0 -0.41)"/><path d="M45.72,75.25h0a3.78,3.78,0,0,1-2.61-6.47,3.93,3.93,0,0,1,2.69-1.08,3.78,3.78,0,0,1,0,7.55Zm0-5.15a1.38,1.38,0,0,0-1,2.34,1.37,1.37,0,0,0,1,.41h0a1.38,1.38,0,0,0,0-2.75Zm0,0" transform="translate(0 -0.41)"/><path d="M51.72,76.23a1.2,1.2,0,0,1-1.12-.78c-1.85-5-4.83-5.34-5-5.36a1.21,1.21,0,0,1-1.07-1.3,1.19,1.19,0,0,1,1.28-1.09c.19,0,4.59.42,7,6.91a1.21,1.21,0,0,1-1.12,1.62Zm0,0" transform="translate(0 -0.41)"/><path d="M72.79,108.37a1.2,1.2,0,0,1-.77-2.12,10.94,10.94,0,0,1,1.43-1c3.7-2.18,3.66-5.51,3.64-7.5V97.6a7.94,7.94,0,0,0-.07-.84c-.27-2.25-.72-6,4.69-14.93,5.75-9.47,3.2-20.3,3.18-20.4a1.21,1.21,0,0,1,.26-1.07,1.18,1.18,0,0,1,1-.41l1.06.07a1.15,1.15,0,0,1,.41-.07c1.46,0,2.53-1.46,3.75-3.12a25,25,0,0,1,1.87-2.33,43.9,43.9,0,0,1,5.61-4.79l.07,0c8-4.82,13.92.74,14,.8a1.2,1.2,0,0,1,.29,1.3C109,62.54,92.73,62.68,87.51,62.44c.55,3.55,1.23,12.43-3.75,20.64s-4.6,11.46-4.36,13.4c0,.38.08.75.09,1.11v.14c0,2.18.08,6.71-4.82,9.6a8.7,8.7,0,0,0-1.12.78,1.19,1.19,0,0,1-.76.27Zm27.44-56.68A41.41,41.41,0,0,0,95,56.14a22.48,22.48,0,0,0-1.68,2.11c-.45.61-.9,1.22-1.39,1.78,6.17-.26,15.5-1.8,18.69-8.34-1.47-1-5.36-3-10.4,0Zm0,0" transform="translate(0 -0.41)"/><path d="M85,54.81a4.49,4.49,0,0,1-1.83-.4L83,54.36l-.19-.09a3.09,3.09,0,0,1-1.37-2,3,3,0,0,1,.69-2.41c.82-1.07,1.61-2.06,2-2.62L83.94,47c-.93-.91-3.14-3.61-3.23-3.72a1.18,1.18,0,0,1-.23-.47l0-.14-4.25,3-.14.08a3.88,3.88,0,0,1-2.75.32,2.92,2.92,0,0,1-.56-.25c-.38-.21-1.29-.72-8-.74a1.2,1.2,0,0,1,0-2.4h0c7.38,0,8.44.61,9.21,1l.12.07a1.58,1.58,0,0,0,.86-.14l4.21-2.92a2.67,2.67,0,0,1,3.33-.12,1.71,1.71,0,0,1,.68,1.89c.7.84,1.71,2,2.3,2.65a1.35,1.35,0,0,1,1.25.73,2,2,0,0,1-.28,2.53c-.25.32-1.25,1.59-2.34,3a.79.79,0,0,0-.22.5.67.67,0,0,0,.22.31l.05,0c.59.25,2,.84,6.6-3,6-4.93,9.92-5.5,10.09-5.52,4.5-.6,7.9.1,10.11,2.08a7.43,7.43,0,0,1,2.45,5.33,1.22,1.22,0,0,1-1.22,1.18,1.2,1.2,0,0,1-1.18-1.22,5,5,0,0,0-1.68-3.52c-1.67-1.47-4.42-2-8.17-1.46,0,0-3.5.55-8.87,5C88.75,54,86.57,54.81,85,54.81Zm0,0" transform="translate(0 -0.41)"/><path d="M83.75,75.25a3.78,3.78,0,0,1,0-7.55h0a3.78,3.78,0,0,1,0,7.55Zm0-5.15h0a1.37,1.37,0,0,0-1,.42,1.36,1.36,0,0,0-.39,1,1.41,1.41,0,0,0,1.39,1.36,1.38,1.38,0,0,0,0-2.75Zm0,0" transform="translate(0 -0.41)"/><g class="cls-2"><path d="M77.75,76.23a1.21,1.21,0,0,1-1.12-1.62c2.42-6.48,6.82-6.89,7-6.91a1.2,1.2,0,0,1,.2,2.39c-.16,0-3.12.43-5,5.36a1.2,1.2,0,0,1-1.12.78Zm0,0" transform="translate(0 -0.41)"/><path d="M44.54,47.15a1.19,1.19,0,0,1-.62-.17C18.5,31.63,3.58,19.21.77,11.08-.78,6.6.29,4,1.46,2.56A6,6,0,0,1,7,.47a4.76,4.76,0,0,1,4,3.08,3.69,3.69,0,0,1-.86,3.81c-.48.48.16,2.72,1,4.26l.05.1c.91,2.12,3.49,5,5.7,7.16a7.72,7.72,0,0,1,.7-4.75,4.21,4.21,0,0,1,3.76-2.28h0c3.73,0,4.78,3.4,4.82,5.19A17.64,17.64,0,0,0,30.71,29.2a5.3,5.3,0,0,1,.47-2.56,4.25,4.25,0,0,1,3.95-2.52c3,.1,4.14,3.16,4.33,5C40,36.31,48,41.62,48.08,41.67a1.2,1.2,0,1,1-1.31,2c-.37-.24-9.06-6-9.7-14.39,0,0-.34-2.72-2-2.78a1.79,1.79,0,0,0-1.69,1.13c-.68,1.47,0,3.56,1.86,5.59a1.2,1.2,0,0,1-1.53,1.82c-.42-.26-10.34-6.62-9.92-18,0-.4-.2-2.76-2.43-2.77h0a1.81,1.81,0,0,0-1.66,1c-.79,1.43-.78,4.31,1.09,7.26A1.2,1.2,0,0,1,19,24.11c-.33-.28-8-6.9-10-11.38-.5-.94-2.55-5.07-.56-7.06A1.3,1.3,0,0,0,8.7,4.31,2.42,2.42,0,0,0,6.61,2.85a3.66,3.66,0,0,0-3.3,1.24C2.21,5.42,2.12,7.62,3,10.29c1.5,4.34,9,14.6,42.11,34.63a1.2,1.2,0,0,1-.62,2.23Zm0,0" transform="translate(0 -0.41)"/><path d="M84.92,47.15a1.2,1.2,0,0,1-.62-2.23c33.15-20,40.62-30.3,42.12-34.63.93-2.67.83-4.87-.27-6.2a3.67,3.67,0,0,0-3.31-1.24,2.42,2.42,0,0,0-2.08,1.46A1.3,1.3,0,0,0,121,5.67c2,2-.05,6.12-.56,7.06-2,4.48-9.66,11.1-10,11.38a1.2,1.2,0,0,1-1.79-1.55c1.88-2.95,1.88-5.82,1.09-7.26a1.81,1.81,0,0,0-1.66-1c-.25,0-2.38.09-2.43,2.84.41,11.35-9.5,17.71-9.92,18a1.2,1.2,0,0,1-1.53-1.82c1.84-2,2.54-4.13,1.85-5.59a1.8,1.8,0,0,0-1.68-1.13c-1.69.06-2,2.79-2,2.82-.63,8.35-9.32,14.1-9.69,14.34a1.2,1.2,0,1,1-1.31-2c.08-.05,8.07-5.36,8.62-12.56.2-1.83,1.34-4.88,4.34-5a4.2,4.2,0,0,1,3.95,2.52,5.33,5.33,0,0,1,.46,2.55,17.52,17.52,0,0,0,4.56-12.07c0-1.86,1.08-5.24,4.82-5.26h0a4.22,4.22,0,0,1,3.76,2.28,7.71,7.71,0,0,1,.7,4.74c2.22-2.2,4.79-5,5.7-7.15l0-.1c.86-1.57,1.48-3.78,1-4.26a3.7,3.7,0,0,1-.86-3.81,4.75,4.75,0,0,1,4-3.08A6,6,0,0,1,128,2.56c1.16,1.41,2.23,4,.68,8.52C125.87,19.21,111,31.63,85.54,47a1.19,1.19,0,0,1-.62.17Zm0,0" transform="translate(0 -0.41)"/></g><path d="M65.58,110.5a1.2,1.2,0,0,1-.21-2.38A3.45,3.45,0,0,0,68,105.06a1.2,1.2,0,1,1,2.37.38,5.85,5.85,0,0,1-4.57,5l-.2,0Zm0,0" transform="translate(0 -0.41)"/><path d="M64.6,114a9.14,9.14,0,1,1,9.14-9.15A9.15,9.15,0,0,1,64.6,114Zm0-15.89a6.74,6.74,0,1,0,6.75,6.74,6.75,6.75,0,0,0-6.75-6.74Zm0,0" transform="translate(0 -0.41)"/></g></g></svg>