<svg xmlns="http://www.w3.org/2000/svg" xmlns:xlink="http://www.w3.org/1999/xlink" viewBox="0 0 138.96 101.17"><defs><style>.cls-1{fill:none;}.cls-2{clip-path:url(#clip-path);}</style><clipPath id="clip-path" transform="translate(0 -0.83)"><rect class="cls-1" y="0.24" width="138.96" height="102.72"/></clipPath></defs><title>Ресурс 16</title><g id="Слой_2" data-name="Слой 2"><g id="Слой_1-2" data-name="Слой 1"><path d="M69.48,59.44h0a1.2,1.2,0,0,1-1.17-1.23l0-.84c0-.08.2-3.83-1.76-5.9A4.62,4.62,0,0,0,63,50.1a1.2,1.2,0,1,1,0-2.4,7,7,0,0,1,5.32,2.14c2.67,2.84,2.42,7.44,2.41,7.64v.79a1.2,1.2,0,0,1-1.2,1.17Zm0,0" transform="translate(0 -0.83)"/><path d="M69.57,94.9c-28.53,0-47.7-17.61-47.7-43.82A51.58,51.58,0,0,1,35.5,15.8,46.1,46.1,0,0,1,69.57.83a1.2,1.2,0,1,1,0,2.4,43.71,43.71,0,0,0-32.31,14.2,49.18,49.18,0,0,0-13,33.64c0,24.78,18.2,41.43,45.3,41.43a1.2,1.2,0,1,1,0,2.4Zm0,0" transform="translate(0 -0.83)"/><path d="M44.9,45.82a7.2,7.2,0,1,1,7.2-7.2,7.21,7.21,0,0,1-7.2,7.2Zm0-12a4.8,4.8,0,1,0,4.8,4.8,4.81,4.81,0,0,0-4.8-4.8Zm0,0" transform="translate(0 -0.83)"/><path d="M45.73,84.69a13.12,13.12,0,0,1,0-26.23,1.2,1.2,0,1,1,0,2.4,10.73,10.73,0,0,0,0,21.43A9.82,9.82,0,0,0,52,80c.73-.76,7.43-7.46,16.28-7.35V57a1.2,1.2,0,0,1,2.4,0V73.94a1.2,1.2,0,0,1-1.31,1.2c-8.62-.78-15.61,6.53-15.68,6.6l-.11.1a12.36,12.36,0,0,1-7.86,2.85Zm0,0" transform="translate(0 -0.83)"/><path d="M56.32,64.54A1.57,1.57,0,1,1,54.76,63a1.57,1.57,0,0,1,1.57,1.57Zm0,0" transform="translate(0 -0.83)"/><path d="M54.13,72.17a1.57,1.57,0,1,1-1.57-1.57,1.57,1.57,0,0,1,1.57,1.57Zm0,0" transform="translate(0 -0.83)"/><path d="M46.82,65.69a1.57,1.57,0,1,1-1.57-1.57,1.57,1.57,0,0,1,1.57,1.57Zm0,0" transform="translate(0 -0.83)"/><path d="M44.72,73.11a1.57,1.57,0,1,1-1.57-1.57,1.57,1.57,0,0,1,1.57,1.57Zm0,0" transform="translate(0 -0.83)"/><path d="M56.73,34.78A1.2,1.2,0,0,1,55.59,34a11.27,11.27,0,0,0-10.72-8,10.65,10.65,0,0,0-7.79,3.66A1.2,1.2,0,0,1,35.3,28a13.05,13.05,0,0,1,9.53-4.46,13.62,13.62,0,0,1,13,9.61,1.2,1.2,0,0,1-.75,1.52,1.17,1.17,0,0,1-.38.06Zm0,0" transform="translate(0 -0.83)"/><path d="M13.81,102a1.13,1.13,0,0,1-.36-.05,1.2,1.2,0,0,1-.79-1.51c10.78-34,40.12-29.5,40.41-29.45a1.2,1.2,0,0,1-.4,2.37c-1.12-.19-27.59-4.2-37.73,27.81a1.2,1.2,0,0,1-1.14.84Zm0,0" transform="translate(0 -0.83)"/><g class="cls-2"><path d="M11.17,86.66a1.19,1.19,0,0,1-.66-.2,1.2,1.2,0,0,1-.35-1.66C24.43,63.06,44.15,72,44.34,72.14a1.2,1.2,0,1,1-1,2.17c-.73-.34-18-8.14-31.14,11.81a1.2,1.2,0,0,1-1,.54Zm0,0" transform="translate(0 -0.83)"/><path d="M1.2,85.55a1.17,1.17,0,0,1-.62-.18,1.2,1.2,0,0,1-.41-1.65c18.52-30.53,46-19.19,46.23-19.07a1.2,1.2,0,1,1-.95,2.2c-1-.45-25.81-10.6-43.23,18.11a1.2,1.2,0,0,1-1,.58Zm0,0" transform="translate(0 -0.83)"/></g><path d="M11.13,86.29a1.22,1.22,0,0,1-.57-.14,1.2,1.2,0,0,1-.48-1.63c17.09-31.36,45-21.29,45.3-21.18a1.2,1.2,0,1,1-.84,2.25c-1.07-.4-26.27-9.4-42.34,20.08a1.21,1.21,0,0,1-1.06.63Zm0,0" transform="translate(0 -0.83)"/><path d="M69.48,59.44a1.19,1.19,0,0,1-1.2-1.17l0-.84c0-.15-.26-4.76,2.41-7.59A7,7,0,0,1,76,47.7a1.2,1.2,0,1,1,0,2.4,4.62,4.62,0,0,0-3.57,1.38c-2,2.07-1.77,5.82-1.77,5.86l0,.88a1.21,1.21,0,0,1-1.18,1.23Zm0,0" transform="translate(0 -0.83)"/><path d="M69.39,94.9a1.2,1.2,0,1,1,0-2.4c27.1,0,45.3-16.65,45.3-41.43a49.17,49.17,0,0,0-13-33.64A43.71,43.71,0,0,0,69.39,3.23a1.2,1.2,0,1,1,0-2.4,46.08,46.08,0,0,1,34.07,15A51.56,51.56,0,0,1,117.1,51.07c0,26.21-19.17,43.82-47.7,43.82Zm0,0" transform="translate(0 -0.83)"/><path d="M94.06,45.82a7.2,7.2,0,1,1,7.2-7.2,7.21,7.21,0,0,1-7.2,7.2Zm0-12a4.8,4.8,0,1,0,4.8,4.8,4.81,4.81,0,0,0-4.8-4.8Zm0,0" transform="translate(0 -0.83)"/><path d="M93.23,84.69a12.36,12.36,0,0,1-7.86-2.85l-.11-.1c-.07-.07-7.09-7.37-15.68-6.6a1.19,1.19,0,0,1-.92-.31,1.21,1.21,0,0,1-.39-.89V57a1.2,1.2,0,1,1,2.4,0V72.68C79.51,72.6,86.22,79.28,87,80a9.8,9.8,0,0,0,6.27,2.25,10.72,10.72,0,0,0,0-21.43,1.2,1.2,0,1,1,0-2.4,13.12,13.12,0,0,1,0,26.23Zm0,0" transform="translate(0 -0.83)"/><path d="M85.77,64.54A1.57,1.57,0,1,1,84.21,63a1.57,1.57,0,0,1,1.57,1.57Zm0,0" transform="translate(0 -0.83)"/><path d="M88,72.17A1.57,1.57,0,1,1,86.4,70.6,1.57,1.57,0,0,1,88,72.17Zm0,0" transform="translate(0 -0.83)"/><path d="M95.28,65.69a1.57,1.57,0,1,1-1.57-1.57,1.56,1.56,0,0,1,1.57,1.57Zm0,0" transform="translate(0 -0.83)"/><path d="M97.37,73.11a1.57,1.57,0,1,1-1.57-1.57,1.57,1.57,0,0,1,1.57,1.57Zm0,0" transform="translate(0 -0.83)"/><path d="M82.23,34.78A1.2,1.2,0,0,1,81.1,33.2a13.63,13.63,0,0,1,13-9.61A13,13,0,0,1,103.67,28a1.2,1.2,0,0,1-1.79,1.6A10.68,10.68,0,0,0,94.09,26a11.29,11.29,0,0,0-10.72,8,1.2,1.2,0,0,1-1.14.82Zm0,0" transform="translate(0 -0.83)"/><path d="M125.15,102a1.2,1.2,0,0,1-1.14-.84c-4.27-13.49-11.93-22.27-22.76-26.09a33.21,33.21,0,0,0-15-1.72,1.2,1.2,0,1,1-.4-2.37c.29-.05,29.63-4.59,40.41,29.45a1.2,1.2,0,0,1-.78,1.51,1.12,1.12,0,0,1-.36.05Zm0,0" transform="translate(0 -0.83)"/><g class="cls-2"><path d="M127.79,86.66a1.19,1.19,0,0,1-1-.54c-5.53-8.43-12.46-13-20.6-13.5a23.58,23.58,0,0,0-10.54,1.69,1.2,1.2,0,1,1-1-2.17c.2-.09,19.91-9.08,34.17,12.66a1.2,1.2,0,0,1-1,1.86Zm0,0" transform="translate(0 -0.83)"/><path d="M137.76,85.55a1.21,1.21,0,0,1-1-.58C119.32,56.26,94.55,66.42,93.51,66.86a1.2,1.2,0,0,1-.95-2.2c.27-.12,27.71-11.46,46.22,19.07a1.2,1.2,0,0,1-.4,1.65,1.18,1.18,0,0,1-.62.18Zm0,0" transform="translate(0 -0.83)"/></g><path d="M127.83,86.29a1.2,1.2,0,0,1-1.05-.63C110.71,56.18,85.5,65.19,84.43,65.58a1.2,1.2,0,0,1-.84-2.25c.28-.11,28.21-10.18,45.3,21.18a1.2,1.2,0,0,1-.48,1.63,1.22,1.22,0,0,1-.57.14Zm0,0" transform="translate(0 -0.83)"/></g></g></svg>