<svg xmlns="http://www.w3.org/2000/svg" xmlns:xlink="http://www.w3.org/1999/xlink" viewBox="0 0 60.21 121.12"><defs><style>.cls-1{fill:none;}.cls-2{clip-path:url(#clip-path);}</style><clipPath id="clip-path" transform="translate(0 -0.88)"><rect class="cls-1" y="0.08" width="60.96" height="122.88"/></clipPath></defs><title>Ресурс 21</title><g id="Слой_2" data-name="Слой 2"><g id="Слой_1-2" data-name="Слой 1"><path d="M7.79,34.58a1.21,1.21,0,0,1-.94-.45A16.29,16.29,0,0,1,3.28,23.32c.33-6,4.36-6.27,4.54-6.27A1.21,1.21,0,0,1,9,17.87c.32,1,3,6.41,4.79,9.83a1.2,1.2,0,0,1-.5,1.61C10.84,30.62,8.84,34,8.82,34a1.2,1.2,0,0,1-.95.59ZM7.21,19.75c-.62.42-1.41,1.41-1.54,3.75a14,14,0,0,0,2.1,7.78,16.36,16.36,0,0,1,3.4-3.47c-1-1.91-3-5.95-4-8.06Zm0,0" transform="translate(0 -0.88)"/><path d="M52.23,34.58h-.08a1.2,1.2,0,0,1-1-.59s-2-3.37-4.48-4.69a1.2,1.2,0,0,1-.5-1.6C48,24.28,50.67,18.83,51,17.87a1.19,1.19,0,0,1,1.21-.82c.17,0,4.2.32,4.54,6.32a16.28,16.28,0,0,1-3.58,10.77,1.2,1.2,0,0,1-.94.45Zm-3.38-6.77a16.48,16.48,0,0,1,3.41,3.47,13.88,13.88,0,0,0,2.1-7.74c-.13-2.36-.92-3.35-1.55-3.79-1,2.11-3,6.14-4,8.05Zm0,0" transform="translate(0 -0.88)"/><path d="M23.7,116.67a4.11,4.11,0,1,1,4.11-4.11,4.12,4.12,0,0,1-4.11,4.11Zm0-5.83a1.72,1.72,0,1,0,1.71,1.72,1.72,1.72,0,0,0-1.71-1.72Zm0,0" transform="translate(0 -0.88)"/><path d="M26.61,113.76a1.2,1.2,0,0,1-1.2-1.11c0-.41-.52-3.93-5.72-3.93a1.2,1.2,0,0,1,0-2.4c6.07,0,8,4,8.12,6.15a1.2,1.2,0,0,1-1.11,1.28Zm0,0" transform="translate(0 -0.88)"/><path d="M13.48,69.31a1.2,1.2,0,0,1-1.2-1.14c-.41-8.44-7.33-9-7.62-9.06a1.2,1.2,0,0,1,.17-2.39c.09,0,9.34.8,9.85,11.34a1.2,1.2,0,0,1-1.14,1.26Zm0,0" transform="translate(0 -0.88)"/><g class="cls-2"><path d="M7,65.35a3.72,3.72,0,0,1-.66-.06,3.89,3.89,0,0,1-2.5-1.48A3.61,3.61,0,0,1,3.16,61,3.81,3.81,0,0,1,7.57,58a3.93,3.93,0,0,1,2.5,1.49,3.62,3.62,0,0,1-.85,5.24A3.92,3.92,0,0,1,7,65.35Zm-.11-5a1.37,1.37,0,0,0-1.4,1.09,1.27,1.27,0,0,0,.25,1,1.56,1.56,0,0,0,1,.57,1.52,1.52,0,0,0,1.11-.23,1.22,1.22,0,0,0,.29-1.79,1.53,1.53,0,0,0-1-.57l-.26,0Zm0,0" transform="translate(0 -0.88)"/><path d="M30.32,122H24.88c-5.29,0-7.93-4.57-8-4.77-2.94-5-2.51-11.18-2.17-16.13,0-.59.08-1.17.11-1.73A17.92,17.92,0,0,0,13,90.81C-4.19,59.13,4.59,38.56,4.68,38.36a.6.6,0,0,0-.06-.49,1.15,1.15,0,0,1-.11-.17l-1-1.9c-5.41-9.61-4.6-19.21,2.29-27L6,8.6A2.55,2.55,0,0,1,8.22,7.49a1.91,1.91,0,0,1,1.45,1l.05.11c.23.55,5.55,13.59,6.35,15.81.09.25.17.44.24.58a26.39,26.39,0,0,1,11.36-4.1A1.2,1.2,0,1,1,28,23.25a23.86,23.86,0,0,0-10.75,4,1.66,1.66,0,0,1-1.41.31c-1.11-.26-1.66-1.48-2-2.37-.68-1.88-4.86-12.14-6-15l-.17.19c-6.25,7-6.94,15.41-2,24.24l1,1.88a3,3,0,0,1,.26,2.8c-.09.2-8.39,19.68,8.26,50.34a20.23,20.23,0,0,1,2,9.84q-.05.85-.12,1.76c-.32,4.62-.72,10.37,1.85,14.77a7.35,7.35,0,0,0,6,3.56h5.45a1.2,1.2,0,0,1,0,2.4Zm0,0" transform="translate(0 -0.88)"/></g><path d="M20.95,51.22h-.05a1.2,1.2,0,0,1-1.09-.84A53.11,53.11,0,0,1,18,40.58c-.66,1.51-1.38,3.36-2,5.06a1.2,1.2,0,0,1-2.32-.2,40.26,40.26,0,0,1,1.66-19.57,1.2,1.2,0,1,1,2.24.87,38.19,38.19,0,0,0-2,13.31c.84-2,1.78-3.81,2.53-4.41a1.2,1.2,0,0,1,1.95.88,76.35,76.35,0,0,0,1.16,9.69l3.2-7.66a1.2,1.2,0,1,1,2.21.93l-4.6,11a1.2,1.2,0,0,1-1.11.73Zm0,0" transform="translate(0 -0.88)"/><path d="M39,51.22a1.2,1.2,0,0,1-1.11-.73l-4.6-11a1.2,1.2,0,1,1,2.21-.93l3.2,7.66a76.66,76.66,0,0,0,1.16-9.69,1.2,1.2,0,0,1,1.94-.88c.76.6,1.7,2.45,2.54,4.41a38,38,0,0,0-2-13.31,1.2,1.2,0,0,1,2.24-.87,40.28,40.28,0,0,1,1.66,19.57,1.2,1.2,0,0,1-1.08,1,1.21,1.21,0,0,1-1.23-.8c-.6-1.7-1.32-3.55-2-5.06a53.11,53.11,0,0,1-1.81,9.8,1.19,1.19,0,0,1-1.09.84Zm0,0" transform="translate(0 -0.88)"/><path d="M36.52,116.67a4.11,4.11,0,1,1,4.11-4.11,4.12,4.12,0,0,1-4.11,4.11Zm0-5.82a1.71,1.71,0,1,0,1.71,1.71,1.72,1.72,0,0,0-1.71-1.71Zm0,0" transform="translate(0 -0.88)"/><path d="M33.61,113.76h-.09a1.2,1.2,0,0,1-1.11-1.29c.16-2.12,2.05-6.15,8.12-6.15a1.2,1.2,0,1,1,0,2.4c-5.38,0-5.71,3.77-5.72,3.93a1.2,1.2,0,0,1-1.2,1.11Zm0,0" transform="translate(0 -0.88)"/><path d="M46.75,69.31h-.06a1.2,1.2,0,0,1-1.14-1.26c.51-10.54,9.75-11.33,9.84-11.34a1.2,1.2,0,0,1,.18,2.39c-.31,0-7.22.69-7.63,9.06a1.2,1.2,0,0,1-1.19,1.14Zm0,0" transform="translate(0 -0.88)"/><g class="cls-2"><path d="M53.19,65.35a3.77,3.77,0,0,1-3.76-3.1,3.62,3.62,0,0,1,.72-2.8,4,4,0,0,1,5.35-.87A3.6,3.6,0,0,1,57.06,61a3.79,3.79,0,0,1-3.22,4.29,3.65,3.65,0,0,1-.65.06Zm-1.4-3.49a1.48,1.48,0,0,0,2.9-.47,1.24,1.24,0,0,0-.54-.83,1.59,1.59,0,0,0-2.1.34,1.26,1.26,0,0,0-.26,1Zm0,0" transform="translate(0 -0.88)"/><path d="M35.34,122H29.89a1.2,1.2,0,0,1,0-2.4h5.45a7.34,7.34,0,0,0,6-3.55c2.58-4.41,2.18-10.16,1.86-14.78,0-.6-.08-1.19-.11-1.75a20.18,20.18,0,0,1,2-9.84C61.75,59,53.43,39.52,53.35,39.33a3,3,0,0,1,.26-2.8l.93-1.83c5-8.87,4.3-17.25-1.95-24.29l-.17-.19c-1.16,2.84-5.34,13.1-6,15-.32.9-.88,2.11-2,2.37A1.67,1.67,0,0,1,43,27.27a24.19,24.19,0,0,0-11-4,1.2,1.2,0,0,1,.26-2.39A26.32,26.32,0,0,1,43.91,25a4.66,4.66,0,0,0,.24-.57c.8-2.22,6.13-15.25,6.35-15.8l.05-.11A1.9,1.9,0,0,1,52,7.5,2.52,2.52,0,0,1,54.19,8.6l.2.22c6.89,7.76,7.7,17.35,2.26,27l-.94,1.86a1,1,0,0,1-.11.17.58.58,0,0,0-.06.49c.09.2,8.87,20.78-8.34,52.46a18.08,18.08,0,0,0-1.76,8.56q.05.83.12,1.73c.34,4.95.76,11.11-2.18,16.14-.1.18-2.75,4.75-8,4.75Zm0,0" transform="translate(0 -0.88)"/></g><path d="M25.45,94.62a1.2,1.2,0,0,1-1.2-1.2C24.25,84,17,75.07,16.92,75a1.2,1.2,0,0,1,1.85-1.53c.32.39,7.88,9.65,7.88,20a1.2,1.2,0,0,1-1.2,1.2Zm0,0" transform="translate(0 -0.88)"/><path d="M35,94.62a1.2,1.2,0,0,1-1.2-1.2c0-10.31,7.55-19.58,7.88-20A1.2,1.2,0,1,1,43.57,75c-.07.09-7.33,9-7.33,18.43a1.2,1.2,0,0,1-1.2,1.2Zm0,0" transform="translate(0 -0.88)"/><path d="M29.95,62.62c-4,0-6.88-2.67-6.88-6.36,0-.11.25-7.79,1.88-20.69S28.8,2.16,28.83,2a1.2,1.2,0,0,1,2.39,0l3.66,33.29c.08.7,2,17.4,2,21s-2.92,6.36-7,6.36ZM30,13c-.79,7-1.82,16-2.69,22.86-1.62,12.78-1.86,20.35-1.86,20.43,0,2.29,1.84,3.92,4.48,3.92,2.2,0,4.56-1.24,4.56-4,0-3.48-2-20.58-2-20.75Zm0,0" transform="translate(0 -0.88)"/><path d="M29.76,54.72a9.4,9.4,0,0,1-5.89-2,1.2,1.2,0,0,1,1.55-1.83c.17.14,4,3.21,9.11-.09a1.2,1.2,0,1,1,1.3,2,11.1,11.1,0,0,1-6.07,1.9Zm0,0" transform="translate(0 -0.88)"/><path d="M29.76,47.25a9.4,9.4,0,0,1-5.89-2,1.2,1.2,0,1,1,1.55-1.83c.17.14,4,3.21,9.11-.09a1.2,1.2,0,1,1,1.3,2,11.1,11.1,0,0,1-6.07,1.89Zm0,0" transform="translate(0 -0.88)"/><path d="M29.79,39.8a9.93,9.93,0,0,1-4.21-.95,1.2,1.2,0,0,1,1-2.17,7.55,7.55,0,0,0,6.75-.15,1.2,1.2,0,1,1,1,2.16,10.47,10.47,0,0,1-4.61,1.1Zm0,0" transform="translate(0 -0.88)"/><path d="M29.78,32.33a9.75,9.75,0,0,1-3.16-.53,1.2,1.2,0,1,1,.78-2.27,7.46,7.46,0,0,0,5.11-.1,1.2,1.2,0,0,1,.83,2.25,10.25,10.25,0,0,1-3.56.65Zm0,0" transform="translate(0 -0.88)"/></g></g></svg>