<svg xmlns="http://www.w3.org/2000/svg" xmlns:xlink="http://www.w3.org/1999/xlink" viewBox="0 0 78.95 125.97"><defs><style>.cls-1{fill:none;}.cls-2{clip-path:url(#clip-path);}</style><clipPath id="clip-path" transform="translate(0 -0.03)"><rect class="cls-1" width="78.96" height="126.96"/></clipPath></defs><title>Ресурс 9</title><g id="Слой_2" data-name="Слой 2"><g id="Слой_1-2" data-name="Слой 1"><path d="M11.2,35.95A4.79,4.79,0,1,1,16,31.17a4.79,4.79,0,0,1-4.79,4.78Zm0-7.17a2.39,2.39,0,1,0,2.39,2.39,2.39,2.39,0,0,0-2.39-2.39Zm0,0" transform="translate(0 -0.03)"/><path d="M13.69,86.42c-7.06,0-12.3-7.86-12.59-14.91A21.54,21.54,0,0,1,7,55.16c4.48-4.69,11.29-8,20.27-9.93a66.18,66.18,0,0,1,12.1-1.45h0A1.19,1.19,0,0,1,40.6,45V74.5a1.2,1.2,0,0,1-1.3,1.2c-8.62-.78-17.61,7.74-17.7,7.83l-.07.06a12.32,12.32,0,0,1-7.84,2.84ZM3.5,71.42C3.75,77.37,8.16,84,13.69,84A9.8,9.8,0,0,0,20,81.76c.7-.67,9.17-8.51,18.2-8.51h0v-27c-4.57.23-20.93,1.68-29.44,10.6A19.22,19.22,0,0,0,3.5,71.42Zm0,0" transform="translate(0 -0.03)"/><path d="M37.32,41.5h-.1a1.2,1.2,0,0,1-1.09-1.3,4.48,4.48,0,0,0-.8-3,2.18,2.18,0,0,0-1.69-.63,1.2,1.2,0,0,1,0-2.4,4.55,4.55,0,0,1,3.46,1.41,6.79,6.79,0,0,1,1.43,4.78,1.2,1.2,0,0,1-1.2,1.1Zm0,0" transform="translate(0 -0.03)"/><path d="M39.85,87.26a40.38,40.38,0,0,1-13.35-2A1.2,1.2,0,1,1,27.26,83a37.7,37.7,0,0,0,12.59,1.89,1.2,1.2,0,0,1,0,2.4Zm0,0" transform="translate(0 -0.03)"/><path d="M34.7,50.76a1.43,1.43,0,1,1-1.43-1.43,1.43,1.43,0,0,1,1.43,1.43Zm0,0" transform="translate(0 -0.03)"/><path d="M34.7,60.36a1.43,1.43,0,1,1-1.43-1.43,1.43,1.43,0,0,1,1.43,1.43Zm0,0" transform="translate(0 -0.03)"/><path d="M34.7,70a1.43,1.43,0,1,1-1.43-1.43A1.43,1.43,0,0,1,34.7,70Zm0,0" transform="translate(0 -0.03)"/><path d="M27.21,53.24a1.43,1.43,0,1,1-1.43-1.43,1.43,1.43,0,0,1,1.43,1.43Zm0,0" transform="translate(0 -0.03)"/><path d="M27.21,62.84a1.43,1.43,0,1,1-1.43-1.43,1.43,1.43,0,0,1,1.43,1.43Zm0,0" transform="translate(0 -0.03)"/><path d="M27.21,72.44A1.43,1.43,0,1,1,25.79,71a1.43,1.43,0,0,1,1.43,1.43Zm0,0" transform="translate(0 -0.03)"/><path d="M19.68,56.4A1.43,1.43,0,1,1,18.25,55a1.43,1.43,0,0,1,1.43,1.43Zm0,0" transform="translate(0 -0.03)"/><path d="M19.68,66a1.43,1.43,0,1,1-1.43-1.43A1.43,1.43,0,0,1,19.68,66Zm0,0" transform="translate(0 -0.03)"/><path d="M19.68,75.6a1.43,1.43,0,1,1-1.43-1.43,1.43,1.43,0,0,1,1.43,1.43Zm0,0" transform="translate(0 -0.03)"/><path d="M12.14,60.29a1.43,1.43,0,1,1-1.43-1.43,1.43,1.43,0,0,1,1.43,1.43Zm0,0" transform="translate(0 -0.03)"/><path d="M12.14,69.89a1.43,1.43,0,1,1-1.43-1.43,1.43,1.43,0,0,1,1.43,1.43Zm0,0" transform="translate(0 -0.03)"/><path d="M10.29,85.37h0a1.21,1.21,0,0,1-1.17-1.23c.38-14.56,8.25-19,8.59-19.19a1.2,1.2,0,0,1,1.15,2.11,12.18,12.18,0,0,0-3.53,3.59c-1.64,2.4-3.63,6.7-3.81,13.56a1.2,1.2,0,0,1-1.2,1.17Zm0,0" transform="translate(0 -0.03)"/><path d="M10.29,76.07h0a1.21,1.21,0,0,1-1.17-1.23c.38-14.5,8.1-19.58,8.43-19.79a1.2,1.2,0,0,1,1.29,2c-.1.07-7,4.71-7.32,17.83a1.2,1.2,0,0,1-1.2,1.17Zm0,0" transform="translate(0 -0.03)"/><path d="M15.76,81.54h0a1.2,1.2,0,0,1-1.17-1.23C14.94,65.64,25,61.67,25.39,61.51a1.2,1.2,0,0,1,.86,2.25c-.38.15-8.95,3.63-9.29,16.62a1.2,1.2,0,0,1-1.2,1.17Zm0,0" transform="translate(0 -0.03)"/><g class="cls-2"><path d="M15.43,88.47h0a1.2,1.2,0,0,1-1.17-1.23c.15-5.8,1.8-10.21,4.9-13.13A11.44,11.44,0,0,1,25.4,71c1.19-.12,1.53.51,1.63.91a1.21,1.21,0,0,1-1.35,1.48c-1,.11-8.73,1.43-9.05,13.89a1.2,1.2,0,0,1-1.2,1.17Zm0,0" transform="translate(0 -0.03)"/><path d="M3.18,65.13A1.21,1.21,0,0,1,2,64.22,84.54,84.54,0,0,1,0,46.81C-.12,37.75,1.23,24.88,8.43,15,15,6,25.28,1,38.95,0a1.19,1.19,0,0,1,1.28,1.12,1.2,1.2,0,0,1-1.11,1.28C26.19,3.3,16.52,8,10.37,16.42c-6.8,9.31-8.09,21.62-8,30.3A83.47,83.47,0,0,0,4.35,63.65a1.2,1.2,0,0,1-.88,1.45,1.22,1.22,0,0,1-.29,0Zm0,0" transform="translate(0 -0.03)"/></g><path d="M18.48,126c-1.5,0-1.66-1.94-1.75-3.23-1-13.32-2.65-37.5-2.67-37.75a1.2,1.2,0,0,1,2.39-.16c0,.23,1.46,21.76,2.48,35.37.77-3.19,1.87-8.71,3.28-17.67,1.63-10.27,3-21.14,3.1-24.22a1.2,1.2,0,0,1,2.4.07c-.1,3.38-1.6,15-3.34,25.84C20.9,125.94,19.75,126,18.53,126Zm0,0" transform="translate(0 -0.03)"/><path d="M20.1,68.16h0a1.19,1.19,0,0,1-1.17-1.23C19.18,56,25,52.17,25.29,52a1.2,1.2,0,0,1,1.3,2c-.22.14-5,3.41-5.29,13a1.2,1.2,0,0,1-1.2,1.17Zm0,0" transform="translate(0 -0.03)"/><path d="M67.75,35.95a4.79,4.79,0,1,1,4.79-4.78,4.79,4.79,0,0,1-4.79,4.78Zm0-7.17a2.39,2.39,0,1,0,2.39,2.39,2.39,2.39,0,0,0-2.39-2.39Zm0,0" transform="translate(0 -0.03)"/><path d="M65.25,86.42a12.33,12.33,0,0,1-7.84-2.84l-.07-.06c-.09-.09-9.09-8.6-17.7-7.83a1.2,1.2,0,0,1-1.31-1.2V45a1.19,1.19,0,0,1,.36-.85,1.22,1.22,0,0,1,.85-.35,66,66,0,0,1,12.1,1.45c9,1.9,15.79,5.24,20.27,9.93a21.54,21.54,0,0,1,5.93,16.36c-.28,7-5.53,14.91-12.59,14.91ZM59,81.76A9.79,9.79,0,0,0,65.25,84c5.54,0,9.95-6.65,10.19-12.6a19.21,19.21,0,0,0-5.26-14.6c-8.52-8.92-24.87-10.37-29.44-10.6v27c9,0,17.53,7.84,18.24,8.51Zm0,0" transform="translate(0 -0.03)"/><path d="M41.63,41.49a1.2,1.2,0,0,1-1.2-1.09,6.81,6.81,0,0,1,1.43-4.78,4.57,4.57,0,0,1,3.46-1.41,1.2,1.2,0,0,1,0,2.4,2.17,2.17,0,0,0-1.69.63,4.46,4.46,0,0,0-.8,3,1.2,1.2,0,0,1-1.1,1.29Zm0,0" transform="translate(0 -0.03)"/><path d="M39.1,87.26a1.2,1.2,0,1,1,0-2.4A37.66,37.66,0,0,0,51.69,83a1.2,1.2,0,1,1,.76,2.27,40.4,40.4,0,0,1-13.35,2Zm0,0" transform="translate(0 -0.03)"/><path d="M47.11,50.76a1.43,1.43,0,1,1-1.43-1.43,1.43,1.43,0,0,1,1.43,1.43Zm0,0" transform="translate(0 -0.03)"/><path d="M44.25,60.36a1.43,1.43,0,1,0,1.43-1.43,1.43,1.43,0,0,0-1.43,1.43Zm0,0" transform="translate(0 -0.03)"/><path d="M47.11,70a1.43,1.43,0,1,1-1.43-1.43A1.43,1.43,0,0,1,47.11,70Zm0,0" transform="translate(0 -0.03)"/><path d="M54.6,53.24a1.43,1.43,0,1,1-1.43-1.43,1.43,1.43,0,0,1,1.43,1.43Zm0,0" transform="translate(0 -0.03)"/><path d="M54.6,62.84a1.43,1.43,0,1,1-1.43-1.43,1.43,1.43,0,0,1,1.43,1.43Zm0,0" transform="translate(0 -0.03)"/><path d="M54.6,72.44A1.43,1.43,0,1,1,53.17,71a1.43,1.43,0,0,1,1.43,1.43Zm0,0" transform="translate(0 -0.03)"/><path d="M62.13,56.4A1.43,1.43,0,1,1,60.7,55a1.43,1.43,0,0,1,1.43,1.43Zm0,0" transform="translate(0 -0.03)"/><path d="M62.13,66a1.43,1.43,0,1,1-1.43-1.43A1.43,1.43,0,0,1,62.13,66Zm0,0" transform="translate(0 -0.03)"/><path d="M62.13,75.6a1.43,1.43,0,1,1-1.43-1.43,1.43,1.43,0,0,1,1.43,1.43Zm0,0" transform="translate(0 -0.03)"/><path d="M69.66,60.29a1.43,1.43,0,1,1-1.43-1.43,1.43,1.43,0,0,1,1.43,1.43Zm0,0" transform="translate(0 -0.03)"/><path d="M69.66,69.89a1.43,1.43,0,1,1-1.43-1.43,1.43,1.43,0,0,1,1.43,1.43Zm0,0" transform="translate(0 -0.03)"/><path d="M68.66,85.37a1.2,1.2,0,0,1-1.2-1.17c-.18-6.86-2.17-11.16-3.81-13.56a12.05,12.05,0,0,0-3.53-3.59,1.2,1.2,0,0,1,1.15-2.11c.34.18,8.21,4.63,8.59,19.19a1.2,1.2,0,0,1-1.17,1.23Zm0,0" transform="translate(0 -0.03)"/><path d="M68.66,76.07a1.2,1.2,0,0,1-1.2-1.17c-.34-13.15-7.25-17.78-7.32-17.83a1.2,1.2,0,0,1,1.29-2c.33.21,8,5.28,8.43,19.79a1.2,1.2,0,0,1-1.17,1.23Zm0,0" transform="translate(0 -0.03)"/><path d="M63.19,81.54A1.2,1.2,0,0,1,62,80.37c-.34-13-8.92-16.48-9.29-16.62a1.2,1.2,0,0,1,.86-2.24c.43.16,10.45,4.13,10.83,18.8a1.2,1.2,0,0,1-1.17,1.23Zm0,0" transform="translate(0 -0.03)"/><g class="cls-2"><path d="M63.52,88.47a1.2,1.2,0,0,1-1.2-1.17C62,74.85,54.23,73.52,53.27,73.41a1.19,1.19,0,0,1-.6-.07,1.22,1.22,0,0,1-.75-1.41c.09-.4.43-1,1.62-.91.44,0,10.79,1.32,11.18,16.21a1.21,1.21,0,0,1-1.17,1.23Zm0,0" transform="translate(0 -0.03)"/><path d="M75.77,65.13a1.28,1.28,0,0,1-.29,0,1.2,1.2,0,0,1-.88-1.45,84,84,0,0,0,1.94-16.93c.12-8.68-1.17-21-8-30.29C62.43,8,52.76,3.3,39.84,2.43A1.2,1.2,0,0,1,40,0C53.67,1,63.94,6,70.52,15c7.2,9.86,8.55,22.73,8.42,31.8a84.71,84.71,0,0,1-2,17.41,1.2,1.2,0,0,1-1.16.91Zm0,0" transform="translate(0 -0.03)"/></g><path d="M60.46,126h0c-1.22,0-2.37-.06-5.86-21.75-1.75-10.86-3.24-22.45-3.34-25.84a1.2,1.2,0,0,1,2.4-.07c.09,3.08,1.48,13.95,3.1,24.22,1.42,9,2.51,14.48,3.28,17.67,1-13.61,2.47-35.14,2.48-35.37a1.2,1.2,0,1,1,2.4.16c0,.24-1.63,24.42-2.66,37.75-.1,1.29-.25,3.23-1.76,3.23Zm0,0" transform="translate(0 -0.03)"/><path d="M58.85,68.16A1.2,1.2,0,0,1,57.65,67c-.25-9.56-5.08-12.83-5.28-13A1.21,1.21,0,0,1,52,52.38,1.2,1.2,0,0,1,53.66,52c.25.16,6.11,4,6.39,14.92a1.2,1.2,0,0,1-1.17,1.23Zm0,0" transform="translate(0 -0.03)"/></g></g></svg>