<svg xmlns="http://www.w3.org/2000/svg" xmlns:xlink="http://www.w3.org/1999/xlink" viewBox="0 0 84.79 97.4"><defs><style>.cls-1{fill:none;}.cls-2{clip-path:url(#clip-path);}</style><clipPath id="clip-path" transform="translate(0 -0.6)"><rect class="cls-1" y="0.08" width="84.96" height="98.88"/></clipPath></defs><title>Ресурс 8</title><g id="Слой_2" data-name="Слой 2"><g id="Слой_1-2" data-name="Слой 1"><g class="cls-2"><path d="M42.53,98a1.2,1.2,0,0,1,0-2.4,13.75,13.75,0,0,0,7.31-2.29c24.84-17.33,24-51.6,23.94-51.93a1.89,1.89,0,0,1,.46-1.71,2.12,2.12,0,0,1,1.55-.59,7.91,7.91,0,0,0,1.67-.57c4.81-2.29,6.41-9,3.57-15s-9.07-9-13.89-6.68a8.29,8.29,0,0,0-3.7,3.59,1.2,1.2,0,1,1-2.11-1.14,10.67,10.67,0,0,1,4.78-4.61c6-2.86,13.67.65,17.09,7.82s1.3,15.32-4.71,18.19a10.46,10.46,0,0,1-2.32.78c.1,4.39-.35,36.66-24.91,53.8A15.89,15.89,0,0,1,42.56,98Zm0,0" transform="translate(0 -0.6)"/></g><path d="M59.26,63.13a4.6,4.6,0,1,1,4.6-4.6,4.61,4.61,0,0,1-4.6,4.6Zm0-6.8a2.2,2.2,0,1,0,2.2,2.2,2.2,2.2,0,0,0-2.2-2.2Zm0,0" transform="translate(0 -0.6)"/><path d="M74.73,35.13a1.2,1.2,0,0,1-1-.56L66.66,23.35a1.19,1.19,0,0,1-.16-.91,1.21,1.21,0,0,1,.53-.75c3.14-2,7.57-.61,9.87,3S78.51,33,75.37,34.94a1.19,1.19,0,0,1-.64.19Zm-5.3-11.87L75,32.1A5.41,5.41,0,0,0,74.87,26a5.42,5.42,0,0,0-5.43-2.75Zm0,0" transform="translate(0 -0.6)"/><path d="M42.41,96.35c-4.35,0-8.77-4.87-8.77-8.37,0-3.67,4.46-3.67,8.77-3.67,3.28,0,8.77,0,8.77,3.75,0,3.46-4.42,8.28-8.77,8.28Zm0-9.63c-3.48,0-6.37.09-6.37,1.27,0,2.09,3.27,6,6.37,6s6.37-3.82,6.37-5.88c0-1.35-4.79-1.35-6.37-1.35Zm0,0" transform="translate(0 -0.6)"/><path d="M44.21,92.58A1.2,1.2,0,0,1,43,91.41a3.74,3.74,0,0,1,.92-2.52,2.77,2.77,0,0,1,2-.81,1.2,1.2,0,0,1,0,2.4c-.22,0-.29.07-.31.09a1.38,1.38,0,0,0-.24.78,1.2,1.2,0,0,1-1.17,1.23Zm0,0" transform="translate(0 -0.6)"/><path d="M42.67,78.33a1.13,1.13,0,0,1-.3,0,1.2,1.2,0,0,1-.87-1.45,1.19,1.19,0,0,1,.49-.7,6,6,0,0,0,.3-1.05l0-.2c1.59-7.36,6.22-33.38-.68-59.38C41.11,14,41,13,41.43,12.31a1.2,1.2,0,0,1,1-.58h0a41.17,41.17,0,0,1,20.19,6.9,1.2,1.2,0,1,1-1.32,2,40.36,40.36,0,0,0-17.59-6.4c0,.16.1.33.16.48l0,.11c7.06,26.54,2.34,53.07.72,60.56l0,.19c-.3,1.43-.67,2.18-1.24,2.54a1.37,1.37,0,0,1-.72.21Zm0,0" transform="translate(0 -0.6)"/><g class="cls-2"><path d="M65.66,17a1.2,1.2,0,0,1-1.11-.73A21.23,21.23,0,0,0,58.12,8.4q.06.39.13.82c.19,1.27-.1,2.11-.86,2.48-1.07.52-2.22-.34-3-1.17A52.57,52.57,0,0,0,41.8,2.91,1.2,1.2,0,1,1,42.72.69a54.3,54.3,0,0,1,13,7.83,17.88,17.88,0,0,0-.56-2.44,1.2,1.2,0,0,1,1.71-1.46c.28.16,7,4,9.91,10.74a1.2,1.2,0,0,1-.63,1.58,1.19,1.19,0,0,1-.47.1Zm0,0" transform="translate(0 -0.6)"/><path d="M42.26,98h0a16,16,0,0,1-8.7-2.78C9,78.09,8.57,45.74,8.66,41.45a10.46,10.46,0,0,1-2.32-.78c-6-2.86-8.12-11-4.71-18.19s11.07-10.68,17.08-7.82a10.65,10.65,0,0,1,4.78,4.61,1.2,1.2,0,1,1-2.11,1.14,8.27,8.27,0,0,0-3.7-3.59c-4.81-2.29-11,.71-13.88,6.68s-1.24,12.7,3.57,15A8,8,0,0,0,9,39.08a2.14,2.14,0,0,1,1.55.59A1.93,1.93,0,0,1,11,41.42c0,.29-.89,34.56,23.91,51.86A13.79,13.79,0,0,0,42.3,95.6a1.2,1.2,0,0,1,0,2.4Zm0,0" transform="translate(0 -0.6)"/></g><path d="M25.53,63.13a4.6,4.6,0,1,1,4.6-4.6,4.61,4.61,0,0,1-4.6,4.6Zm0-6.8a2.2,2.2,0,1,0,2.2,2.2,2.2,2.2,0,0,0-2.2-2.2Zm0,0" transform="translate(0 -0.6)"/><path d="M10.05,35.13a1.19,1.19,0,0,1-.64-.19c-3.14-2-3.83-6.55-1.53-10.21s6.73-5,9.87-3a1.21,1.21,0,0,1,.53.75,1.19,1.19,0,0,1-.16.91L11.07,34.57a1.2,1.2,0,0,1-1,.56Zm4.48-12A5.71,5.71,0,0,0,9.92,26a5.41,5.41,0,0,0-.12,6.08l5.56-8.83a3.84,3.84,0,0,0-.82-.09Zm0,0" transform="translate(0 -0.6)"/><path d="M40.58,92.58h0a1.2,1.2,0,0,1-1.17-1.22,1.37,1.37,0,0,0-.24-.79s-.09-.09-.31-.09a1.2,1.2,0,0,1,0-2.4,2.76,2.76,0,0,1,2,.82,3.72,3.72,0,0,1,.92,2.51,1.2,1.2,0,0,1-1.2,1.17Zm0,0" transform="translate(0 -0.6)"/><path d="M42.12,78.33a1.37,1.37,0,0,1-.72-.21c-.57-.36-.94-1.12-1.24-2.54l0-.19c-1.62-7.5-6.34-34,.72-60.57l0-.11c.06-.15.11-.32.16-.48a40.51,40.51,0,0,0-17.59,6.4,1.2,1.2,0,1,1-1.32-2,41.19,41.19,0,0,1,20.19-6.9h0a1.19,1.19,0,0,1,1,.58c.39.65.32,1.72-.21,3.18-6.91,26-2.27,52-.68,59.39l0,.2a6,6,0,0,0,.3,1.05,1.19,1.19,0,0,1,.49.7,1.2,1.2,0,0,1-.87,1.46,1.13,1.13,0,0,1-.3,0Zm0,0" transform="translate(0 -0.6)"/><path d="M19.13,17A1.2,1.2,0,0,1,18,15.36C21,8.57,27.66,4.77,27.94,4.62a1.2,1.2,0,0,1,1.71,1.47,17.06,17.06,0,0,0-.56,2.43,54.35,54.35,0,0,1,13-7.83A1.2,1.2,0,0,1,43,2.91a52.65,52.65,0,0,0-12.56,7.62c-.8.83-1.95,1.69-3,1.17-.77-.37-1.06-1.21-.87-2.48q.06-.43.13-.82a21.27,21.27,0,0,0-6.44,7.91,1.2,1.2,0,0,1-1.11.73Zm0,0" transform="translate(0 -0.6)"/></g></g></svg>