<svg xmlns="http://www.w3.org/2000/svg" xmlns:xlink="http://www.w3.org/1999/xlink" viewBox="0 0 89.16 98.38"><defs><style>.cls-1{fill:none;}.cls-2{clip-path:url(#clip-path);}</style><clipPath id="clip-path" transform="translate(0 -0.62)"><rect class="cls-1" y="0.12" width="90" height="99.84"/></clipPath></defs><title>Ресурс 7</title><g id="Слой_2" data-name="Слой 2"><g id="Слой_1-2" data-name="Слой 1"><g class="cls-2"><path d="M12.37,33.53a1.2,1.2,0,0,1-1.18-1c0-.12-2.17-12-3.59-20.59C6.23,3.67,8.46,1.8,9.49,1.38c4.77-3,10.21,3.45,15,9.13l.34.4c2.32,2.74,3.48,4,4,4.59,11.45-6,16.36.51,16.56.79a1.2,1.2,0,0,1-1.94,1.41c-.18-.23-4.18-5.29-14.22.3-1,.5-1.1.55-6.26-5.55l-.34-.4c-4-4.73-9-10.61-12-8.61a1,1,0,0,1-.22.12c-.14.11-1.58,1.47-.5,8,1.41,8.56,3.57,20.43,3.59,20.55a1.2,1.2,0,0,1-1,1.39l-.22,0Zm0,0" transform="translate(0 -0.62)"/><path d="M44.43,99c-8.28,0-14-8.37-14.25-8.73C19.08,73.54,1.07,64.22.88,64.12a1.2,1.2,0,0,1-.63-1.28c.58-3.21,1.62-7.09,2.21-9.21H1.21a1.25,1.25,0,0,1-1-.47A1.21,1.21,0,0,1,0,52.12c2.6-9.29,10.64-19.6,11.35-20.49a49.17,49.17,0,0,1,10-10.78c-2-3.33-6.21-9.91-8.05-11.68C11.74,7.64,11,7.67,10.91,7.69s-.42.33-.55.57a9.76,9.76,0,0,0-.48,1.26,1.2,1.2,0,0,1-2.4-.06,6.52,6.52,0,0,1,.73-2.26,3.2,3.2,0,0,1,2.32-1.87c1.3-.2,2.76.49,4.47,2.13C17.67,10,23.74,20.1,24,20.53a1.2,1.2,0,0,1-.31,1.58A47.36,47.36,0,0,0,13.38,33l-.07.1c-.08.1-7.52,9.5-10.47,18.15H4a1.16,1.16,0,0,1,1,.48,1.19,1.19,0,0,1,.19,1.06c0,.05-1.57,5.33-2.43,9.65,3.71,2,19.16,11.09,29.41,26.52,0,.07,5.27,7.66,12.25,7.66a1.2,1.2,0,1,1,0,2.4Zm0,0" transform="translate(0 -0.62)"/></g><path d="M44.44,85.95a8.15,8.15,0,0,1-6-2.13,6.87,6.87,0,0,1-1.75-5.22c.15-4.48,5.3-4.48,7.78-4.48a1.2,1.2,0,0,1,0,2.4c-4.9,0-5.34,1-5.38,2.15a4.6,4.6,0,0,0,1.08,3.47,6,6,0,0,0,4.3,1.4,1.2,1.2,0,1,1,0,2.4Zm0,0" transform="translate(0 -0.62)"/><path d="M30.46,52.81a4.25,4.25,0,1,1,4.25-4.25,4.26,4.26,0,0,1-4.25,4.25Zm0-6.11a1.86,1.86,0,1,0,1.85,1.86,1.86,1.86,0,0,0-1.85-1.86Zm0,0" transform="translate(0 -0.62)"/><path d="M39.83,89a13.24,13.24,0,0,1-1.88-.13c-7.17-1.51-8.74-6.92-7.85-11.51.06-.67.6-5.4,4.17-19.12a1.2,1.2,0,0,1,2.32.6c-3.71,14.27-4.11,18.73-4.11,18.78a.9.9,0,0,1,0,.14c-.43,2.16-.72,7.35,5.91,8.75,1.35.2,4.45.19,4.93-1.22a1.2,1.2,0,1,1,2.27.77C44.72,88.51,41.82,89,39.83,89Zm0,0" transform="translate(0 -0.62)"/><path d="M2,61.91A1.2,1.2,0,0,1,1,60c14-19.6,29.54-15.83,30.67-15.52a7.63,7.63,0,0,1,5.95,8.3,1.2,1.2,0,1,1-2.4-.18,5.23,5.23,0,0,0-4.09-5.78l-.08,0c-.6-.16-14.86-3.89-28.11,14.6a1.2,1.2,0,0,1-1,.5Zm0,0" transform="translate(0 -0.62)"/><path d="M36.64,53.55a1.14,1.14,0,0,1-.32,0,1.2,1.2,0,0,1-.87-1.33c.38-2.61-2.62-4.65-2.65-4.67a1.2,1.2,0,0,1,1.33-2,10.12,10.12,0,0,1,2.23,2.12,7.39,7.39,0,0,0-.67-3.39,6.26,6.26,0,0,0-4.22-3.16c-.23-.06-6.8-1.54-8.53,4.55A1.2,1.2,0,1,1,20.64,45c1.89-6.67,8.31-7,11.45-6.23a8.6,8.6,0,0,1,5.77,4.43c2.06,4.21,0,9.39-.11,9.62a1.2,1.2,0,0,1-1.11.74Zm0,0" transform="translate(0 -0.62)"/><path d="M44.5,34.85a1.2,1.2,0,0,1-1.2-1.2V17.08a1.2,1.2,0,1,1,2.4,0V33.65a1.2,1.2,0,0,1-1.2,1.2Zm0,0" transform="translate(0 -0.62)"/><path d="M33.05,68.4a1.2,1.2,0,0,1-1.13-.81c-1.71-4.86-3.9-6.48-7.52-9.17l-1-.78c-4.67-3.5-4.64-10.45-4.63-10.74a1.23,1.23,0,0,1,1.21-1.19,1.2,1.2,0,0,1,1.18,1.22c0,.06,0,6,3.68,8.79l1,.77c3.72,2.75,6.4,4.75,8.35,10.31a1.2,1.2,0,0,1-.74,1.53,1.16,1.16,0,0,1-.39.07Zm0,0" transform="translate(0 -0.62)"/><path d="M44.37,93.77c-1,0-6-.13-8.8-2.83a5.9,5.9,0,0,1-1.8-4.38,1.2,1.2,0,1,1,2.4,0,3.54,3.54,0,0,0,1.08,2.66c2.26,2.22,7.17,2.15,7.22,2.15h0a1.2,1.2,0,0,1,0,2.4Zm0,0" transform="translate(0 -0.62)"/><g class="cls-2"><path d="M44.6,85.95a8.14,8.14,0,0,1-6-2.13,6.88,6.88,0,0,1-1.75-5.22c.15-4.48,5.3-4.48,7.78-4.48a1.2,1.2,0,0,1,0,2.4c-4.9,0-5.34,1-5.38,2.15a4.61,4.61,0,0,0,1.07,3.47,6,6,0,0,0,4.3,1.4,1.2,1.2,0,1,1,0,2.4Zm0,0" transform="translate(0 -0.62)"/><path d="M76.79,33.53l-.21,0a1.2,1.2,0,0,1-1-1.39c0-.12,2.17-12,3.59-20.55,1.08-6.51-.36-7.87-.5-8a1.21,1.21,0,0,1-.23-.12c-3-2-8,3.88-12,8.6l-.34.4C61,18.57,60.87,18.52,59.92,18c-10.21-5.69-14.23-.39-14.27-.33a1.2,1.2,0,1,1-1.94-1.41c.21-.29,5.1-6.78,16.56-.79.55-.58,1.71-1.85,4-4.59l.34-.4c4.81-5.69,10.26-12.13,15-9.13,1,.42,3.26,2.29,1.89,10.57C80.14,20.53,78,32.43,78,32.54a1.21,1.21,0,0,1-1.18,1Zm0,0" transform="translate(0 -0.62)"/></g><path d="M44.73,99a1.2,1.2,0,1,1,0-2.4c7,0,12.21-7.59,12.26-7.67,10.24-15.42,25.69-24.49,29.4-26.52C85.52,58.09,84,52.82,84,52.76a1.19,1.19,0,0,1,.19-1.06,1.12,1.12,0,0,1,1-.48h1.21c-3-8.66-10.39-18.05-10.47-18.15l-.07-.1a47.47,47.47,0,0,0-10.3-10.87,1.2,1.2,0,0,1-.31-1.58c.26-.42,6.33-10.52,9-13.09,1.71-1.64,3.16-2.34,4.47-2.13a3.15,3.15,0,0,1,2.29,1.81,6.68,6.68,0,0,1,.76,2.32,1.2,1.2,0,0,1-2.4.06,9.68,9.68,0,0,0-.51-1.32c-.1-.18-.3-.47-.52-.5s-.83,0-2.43,1.49c-1.84,1.77-6,8.35-8.05,11.68a49.41,49.41,0,0,1,10,10.78c.7.89,8.75,11.2,11.35,20.49a1.2,1.2,0,0,1-.2,1.05,1.23,1.23,0,0,1-1,.47H86.7c.59,2.12,1.63,6,2.21,9.21a1.2,1.2,0,0,1-.64,1.28c-.18.09-18.19,9.41-29.29,26.14-.24.36-6,8.73-14.25,8.73Zm0,0" transform="translate(0 -0.62)"/><path d="M44.72,85.95a1.2,1.2,0,0,1,0-2.4,6,6,0,0,0,4.3-1.4,4.6,4.6,0,0,0,1.08-3.47c0-1.13-.48-2.15-5.38-2.15a1.2,1.2,0,0,1,0-2.4c2.48,0,7.63,0,7.78,4.48a6.89,6.89,0,0,1-1.75,5.22,8.15,8.15,0,0,1-6,2.13Zm0,0" transform="translate(0 -0.62)"/><path d="M58.7,52.81A4.25,4.25,0,1,1,63,48.56a4.26,4.26,0,0,1-4.25,4.25Zm0-6.11a1.86,1.86,0,1,0,1.86,1.86A1.86,1.86,0,0,0,58.7,46.7Zm0,0" transform="translate(0 -0.62)"/><path d="M49.32,89c-2,0-4.89-.46-5.73-2.94a1.2,1.2,0,1,1,2.27-.78c.54,1.56,4.08,1.36,5,1.22,6.57-1.39,6.28-6.57,5.85-8.73,0-.05,0-.1,0-.14s-.4-4.5-4.11-18.78a1.2,1.2,0,0,1,2.32-.6C58.46,71.91,59,76.65,59.06,77.32c.89,4.59-.68,10-7.79,11.5a13.61,13.61,0,0,1-2,.14Zm0,0" transform="translate(0 -0.62)"/><path d="M87.18,61.91a1.22,1.22,0,0,1-1-.5c-13.29-18.57-28-14.64-28.1-14.6l-.09,0a5.22,5.22,0,0,0-4.09,5.78,1.2,1.2,0,0,1-2.39.18,7.63,7.63,0,0,1,6-8.3C58.62,44.18,74.11,40.4,88.15,60a1.2,1.2,0,0,1-1,1.9Zm0,0" transform="translate(0 -0.62)"/><path d="M52.52,53.55a1.2,1.2,0,0,1-1.11-.75c-.09-.22-2.16-5.4-.11-9.61A8.56,8.56,0,0,1,57,38.77c3.18-.77,9.6-.45,11.49,6.21a1.2,1.2,0,0,1-2.31.65c-1.74-6.14-8.29-4.61-8.57-4.55a6.24,6.24,0,0,0-4.18,3.15,7.4,7.4,0,0,0-.67,3.39A10.14,10.14,0,0,1,55,45.51a1.2,1.2,0,0,1,1.33,2s-3,2.06-2.65,4.67a1.2,1.2,0,0,1-.87,1.33,1.26,1.26,0,0,1-.31,0Zm0,0" transform="translate(0 -0.62)"/><path d="M44.66,34.85a1.2,1.2,0,0,1-1.2-1.2V17.08a1.2,1.2,0,1,1,2.4,0V33.65a1.2,1.2,0,0,1-1.2,1.2Zm0,0" transform="translate(0 -0.62)"/><path d="M56.11,68.4a1.18,1.18,0,0,1-.4-.07A1.2,1.2,0,0,1,55,66.8c1.95-5.56,4.63-7.55,8.35-10.31l1-.77C68.05,53,68,47,68,46.93a1.2,1.2,0,0,1,1.19-1.21h0a1.2,1.2,0,0,1,1.2,1.19c0,.29,0,7.24-4.64,10.74l-1,.78c-3.62,2.69-5.81,4.31-7.52,9.17a1.21,1.21,0,0,1-1.13.81Zm0,0" transform="translate(0 -0.62)"/><path d="M44.79,93.77h-.15a1.2,1.2,0,0,1,0-2.4h.09c.6,0,5-.07,7.15-2.15A3.54,3.54,0,0,0,53,86.56a1.2,1.2,0,1,1,2.4,0,5.9,5.9,0,0,1-1.81,4.38c-2.76,2.7-7.84,2.83-8.8,2.83Zm0,0" transform="translate(0 -0.62)"/><path d="M44.55,85.95a1.2,1.2,0,1,1,0-2.4,6,6,0,0,0,4.3-1.4,4.6,4.6,0,0,0,1.07-3.47c0-1.13-.48-2.15-5.37-2.15a1.2,1.2,0,1,1,0-2.4c2.47,0,7.62,0,7.77,4.47a6.85,6.85,0,0,1-1.75,5.22,8.14,8.14,0,0,1-6,2.13Zm0,0" transform="translate(0 -0.62)"/></g></g></svg>