<svg xmlns="http://www.w3.org/2000/svg" xmlns:xlink="http://www.w3.org/1999/xlink" viewBox="0 0 79.58 99.66"><defs><style>.cls-1{fill:none;}.cls-2{clip-path:url(#clip-path);}</style><clipPath id="clip-path" transform="translate(0 -0.34)"><rect class="cls-1" y="0.16" width="79.92" height="100.8"/></clipPath></defs><title>Ресурс 6</title><g id="Слой_2" data-name="Слой 2"><g id="Слой_1-2" data-name="Слой 1"><path d="M39.73,92.21a8.45,8.45,0,0,1-8.22-7.79c0-4.17,6.19-4.17,8.22-4.17a1.2,1.2,0,1,1,0,2.4c-2.17,0-5.82.23-5.82,1.77a6.11,6.11,0,0,0,5.82,5.39,1.2,1.2,0,1,1,0,2.4Zm0,0" transform="translate(0 -0.34)"/><path d="M22.31,59.63a5.8,5.8,0,1,1,5.8-5.8,5.81,5.81,0,0,1-5.8,5.8Zm0-9.2a3.4,3.4,0,1,0,3.4,3.4,3.4,3.4,0,0,0-3.4-3.4Zm0,0" transform="translate(0 -0.34)"/><path d="M27,61.23a1.19,1.19,0,0,1-.89-.39l-2.18-2.39a1.2,1.2,0,1,1,1.77-1.61l2.18,2.39a1.2,1.2,0,0,1-.89,2Zm0,0" transform="translate(0 -0.34)"/><path d="M3.71,67.43a1.2,1.2,0,0,1-1.19-1.1c-.45-5.22.5-8.93,2.82-11.05a8.45,8.45,0,0,1,6.78-1.84c0-1.78.45-4.12,1.13-5a3,3,0,0,1,3.8-.85,1.23,1.23,0,0,1,.31.22l2.2,2.2a1.2,1.2,0,1,1-1.7,1.69l-2-2a.58.58,0,0,0-.66.2c-.51.68-.74,3.78-.63,4.59a1.21,1.21,0,0,1-.13,1.06,1.38,1.38,0,0,1-1.58.48c-1-.17-3.92-.71-5.89,1.08-1.74,1.59-2.42,4.64-2,9.07a1.2,1.2,0,0,1-1.09,1.3Zm0,0" transform="translate(0 -0.34)"/><path d="M23.41,53.73a1.1,1.1,0,1,1-1.1-1.1,1.1,1.1,0,0,1,1.1,1.1Zm0,0" transform="translate(0 -0.34)"/><g class="cls-2"><path d="M36.37,96c-2,0-8.69-.77-11.18-10.82-2.76-11.14-3-12.42-3-12.47a1.2,1.2,0,1,1,2.36-.44c0,.05.29,1.45,3,12.33,2.42,9.75,9,9,9.1,9h.19a2.1,2.1,0,0,0,1.53-.36.78.78,0,0,0,.17-.55s0-.12,0-.16v-1a1.2,1.2,0,0,1,2.4,0v.94a3.17,3.17,0,0,1-.75,2.34A4.14,4.14,0,0,1,36.8,96Zm0,0" transform="translate(0 -0.34)"/><path d="M26.6,88a1.22,1.22,0,0,1-.48-.1,70.41,70.41,0,0,1-13-7.63C1.08,71.63.21,57.87.18,57.29-1.21,42.16,6,33.6,8,31.54A116.55,116.55,0,0,1,6.1,13C5.59,2.76,10,1,10.88.75A5.66,5.66,0,0,1,17.69,2.8c1,1.35,7.63,11.86,10,15.61,7.94-3.22,12.72.93,12.93,1.12A1.2,1.2,0,0,1,39,21.32c-.19-.16-4.28-3.6-11.3-.31a1.2,1.2,0,0,1-1.52-.45C22.49,14.65,16.4,5,15.79,4.27l-.11-.15a3.25,3.25,0,0,0-4-1.1l-.13,0S8.07,4.23,8.51,13a117,117,0,0,0,2,18.78,1.2,1.2,0,0,1-.38,1.11,22.92,22.92,0,0,0-4.33,6.09A33,33,0,0,0,2.57,57.11c0,.18.87,13.25,12,21.2a69.29,69.29,0,0,0,12.55,7.36A1.2,1.2,0,0,1,26.6,88Zm0,0" transform="translate(0 -0.34)"/></g><path d="M39.78,100c-6.32,0-8.5-3.64-8.76-5.56a1.2,1.2,0,0,1,2.38-.34c0,.17.68,3.5,6.39,3.5a1.2,1.2,0,0,1,0,2.4Zm0,0" transform="translate(0 -0.34)"/><path d="M32.39,62a5.31,5.31,0,0,1-.93-.08C30.3,61.8,28,60.57,28,57a1.2,1.2,0,1,1,2.4,0c0,2.2,1.2,2.52,1.44,2.56a1.83,1.83,0,0,0,1.64-.31c1-.79,1.18-2.68,1.18-3.35a1.25,1.25,0,0,1,0-.17c.12-.79.16-3,.22-5.55C35.23,34.78,36.07,27,39.81,27a1.2,1.2,0,0,1,0,2.4c-2.1.93-2.41,15.95-2.52,20.88-.06,2.77-.1,4.8-.23,5.78,0,.63-.19,3.53-2,5.08a4,4,0,0,1-2.64.93Zm0,0" transform="translate(0 -0.34)"/><path d="M29.21,58.24h-.05A1.2,1.2,0,0,1,28,57c0-.26-.12-6.66-7.84-8.32a4.54,4.54,0,0,1,.09-9h.2a8.2,8.2,0,0,1,6.23,2.25c3,2.85,4.28,8,3.73,15.21a1.2,1.2,0,0,1-1.19,1.11ZM20.42,42.08a2.14,2.14,0,0,0,.06,4.25l.12,0a12.32,12.32,0,0,1,7.32,4.2c-.39-3.11-1.37-5.45-2.89-6.88a5.85,5.85,0,0,0-4.27-1.61l-.18,0Zm0,0" transform="translate(0 -0.34)"/><path d="M9.38,32.89a1.19,1.19,0,0,1-.79-.3,1.2,1.2,0,0,1-.12-1.69c.13-.15,3.16-3.58,11.82-8.91C18.63,17.93,14.6,9.72,10.87,8.61a2.4,2.4,0,0,0-2.25.45A1.2,1.2,0,1,1,7.19,7.13a4.82,4.82,0,0,1,4.36-.81c5.91,1.75,10.8,14.33,11.34,15.75a1.2,1.2,0,0,1-.5,1.45c-8.94,5.4-12.09,8.93-12.12,9a1.21,1.21,0,0,1-.9.41Zm0,0" transform="translate(0 -0.34)"/><path d="M39.85,92.21a1.2,1.2,0,1,1,0-2.4,6.11,6.11,0,0,0,5.82-5.39c0-1.54-3.65-1.77-5.82-1.77a1.2,1.2,0,0,1,0-2.4c2,0,8.22,0,8.22,4.17a8.45,8.45,0,0,1-8.22,7.79Zm0,0" transform="translate(0 -0.34)"/><path d="M57.27,59.63a5.8,5.8,0,1,1,5.8-5.8,5.81,5.81,0,0,1-5.8,5.8Zm0-9.2a3.4,3.4,0,1,0,3.4,3.4,3.4,3.4,0,0,0-3.4-3.4Zm0,0" transform="translate(0 -0.34)"/><path d="M52.57,61.23a1.2,1.2,0,0,1-.89-2l2.17-2.39a1.2,1.2,0,1,1,1.77,1.61l-2.18,2.39a1.2,1.2,0,0,1-.89.39Zm0,0" transform="translate(0 -0.34)"/><path d="M75.87,67.43h-.1a1.21,1.21,0,0,1-1.09-1.3c.38-4.43-.31-7.48-2-9.07-2-1.79-4.92-1.26-5.88-1.08a1.39,1.39,0,0,1-1.58-.48A1.22,1.22,0,0,1,65,54.43c.11-.8-.12-3.91-.63-4.59a.59.59,0,0,0-.67-.2l-2,2A1.2,1.2,0,1,1,60,50l2.2-2.2a1.24,1.24,0,0,1,.31-.23,3,3,0,0,1,3.8.85c.68.91,1.1,3.25,1.13,5a8.44,8.44,0,0,1,6.78,1.84c2.32,2.11,3.27,5.83,2.82,11a1.2,1.2,0,0,1-1.19,1.1Zm0,0" transform="translate(0 -0.34)"/><path d="M58.37,53.73a1.1,1.1,0,1,1-1.1-1.1,1.1,1.1,0,0,1,1.1,1.1Zm0,0" transform="translate(0 -0.34)"/><g class="cls-2"><path d="M43.3,96l-.54,0a4.14,4.14,0,0,1-3.34-1.19,3.19,3.19,0,0,1-.75-2.34v-.94a1.2,1.2,0,0,1,2.4,0v1a1.6,1.6,0,0,1,0,.18.77.77,0,0,0,.18.52,2.15,2.15,0,0,0,1.54.36H43c.27,0,6.7.66,9.1-9,2.69-10.89,3-12.28,3-12.34a1.2,1.2,0,0,1,2.36.44s-.25,1.32-3,12.47c-1.51,6.08-4.56,8.7-6.86,9.83a9.77,9.77,0,0,1-4.23,1Zm0,0" transform="translate(0 -0.34)"/><path d="M53,88a1.2,1.2,0,0,1-.48-2.3A69.41,69.41,0,0,0,65,78.34c11.16-8,12-21,12-21.18,1.46-16.06-7.45-24.23-7.54-24.31a1.21,1.21,0,0,1-.38-1.1,117.17,117.17,0,0,0,2-18.72c.43-8.8-3-10-3.05-10l-.1,0a3.24,3.24,0,0,0-4,1.12l-.11.14c-.6.73-6.69,10.38-10.39,16.29a1.21,1.21,0,0,1-1.53.45c-7.1-3.32-11.25.27-11.29.31A1.2,1.2,0,1,1,39,19.53c.21-.19,5-4.34,12.93-1.12,2.35-3.75,8.95-14.26,10-15.61A5.65,5.65,0,0,1,68.71.75c.83.24,5.28,2,4.77,12.34a115.82,115.82,0,0,1-1.91,18.46c2,2.06,9.22,10.62,7.84,25.79,0,.54-.9,14.3-13,22.93a70.52,70.52,0,0,1-13,7.6A1.26,1.26,0,0,1,53,88Zm0,0" transform="translate(0 -0.34)"/></g><path d="M39.8,100a1.2,1.2,0,0,1,0-2.4c5.84,0,6.38-3.46,6.39-3.49a1.2,1.2,0,0,1,2.38.33C48.3,96.36,46.12,100,39.8,100Zm0,0" transform="translate(0 -0.34)"/><path d="M47.18,62a4,4,0,0,1-2.62-.92c-1.85-1.55-2-4.45-2-5.08-.13-1-.18-3-.24-5.77-.1-4.95-.42-20-2.53-20.89a1.18,1.18,0,0,1-1.18-1.2A1.21,1.21,0,0,1,39.77,27c3.73,0,4.58,7.82,4.9,23.24.05,2.55.1,4.76.22,5.55a1.49,1.49,0,0,1,0,.18c0,.66.24,2.56,1.19,3.34a1.8,1.8,0,0,0,1.61.32c.27,0,1.47-.37,1.47-2.57a1.2,1.2,0,0,1,2.4,0c0,3.56-2.3,4.79-3.51,4.94a5.11,5.11,0,0,1-.88.08Zm0,0" transform="translate(0 -0.34)"/><path d="M50.37,58.24a1.2,1.2,0,0,1-1.19-1.11c-.55-7.25.7-12.36,3.72-15.21a8.2,8.2,0,0,1,6.23-2.25h.19a4.54,4.54,0,0,1,.09,9c-7.78,1.68-7.84,8.05-7.84,8.32a1.2,1.2,0,0,1-1.15,1.2Zm8.15-16.19a5.83,5.83,0,0,0-4,1.66C53,45.14,52,47.46,51.65,50.55A12.32,12.32,0,0,1,59,46.35l.13,0a2.14,2.14,0,0,0,0-4.25H59l-.18,0Zm0,0" transform="translate(0 -0.34)"/><path d="M70.21,32.89a1.21,1.21,0,0,1-.91-.41c-.06-.07-3.23-3.59-12.12-9a1.2,1.2,0,0,1-.5-1.45c.54-1.43,5.43-14,11.34-15.75a4.82,4.82,0,0,1,4.36.81A1.2,1.2,0,0,1,71,9.06a2.4,2.4,0,0,0-2.25-.45C65,9.72,60.94,17.93,59.29,22,67.94,27.32,71,30.76,71.11,30.9a1.2,1.2,0,0,1-.9,2Zm0,0" transform="translate(0 -0.34)"/></g></g></svg>