<svg xmlns="http://www.w3.org/2000/svg" xmlns:xlink="http://www.w3.org/1999/xlink" viewBox="0 0 106.05 92.93"><defs><style>.cls-1{fill:none;}.cls-2{clip-path:url(#clip-path);}</style><clipPath id="clip-path" transform="translate(0 -0.07)"><rect class="cls-1" y="0.12" width="106.8" height="93.84"/></clipPath></defs><title>Ресурс 80</title><g id="Слой_2" data-name="Слой 2"><g id="Слой_1-2" data-name="Слой 1"><path d="M25.43,88.47a1.18,1.18,0,0,1-.66-.2C10.9,79.08,3.87,66.73,3.87,51.57A39.06,39.06,0,0,1,8.38,33.33a1.2,1.2,0,0,1,2.16,1.05A36.3,36.3,0,0,0,6.27,51.57c0,14.51,6.48,25.86,19.83,34.7a1.2,1.2,0,0,1-.66,2.2Zm0,0" transform="translate(0 -0.07)"/><path d="M13.91,27.14a1.2,1.2,0,0,1-1-1.87,50.32,50.32,0,0,1,12.6-12.83,1.2,1.2,0,0,1,1.38,2,47.6,47.6,0,0,0-12,12.22,1.2,1.2,0,0,1-1,.53Zm0,0" transform="translate(0 -0.07)"/><path d="M26.23,88.63a3.05,3.05,0,0,1-1.64-.47,1.2,1.2,0,0,1,1.28-2,.68.68,0,0,0,.36.1.67.67,0,0,0,.5-.22,1.2,1.2,0,1,1,1.79,1.6,3.06,3.06,0,0,1-2.28,1Zm0,0" transform="translate(0 -0.07)"/><path d="M27.91,87.68a1.2,1.2,0,0,1-.91-2c.19-.22,4.8-5.49,10-3.94a1.2,1.2,0,0,1-.68,2.3c-3.76-1.11-7.51,3.16-7.55,3.21a1.19,1.19,0,0,1-.91.41Zm0,0" transform="translate(0 -0.07)"/><g class="cls-2"><path d="M39.45,60a4.83,4.83,0,1,1,4.82-4.82A4.83,4.83,0,0,1,39.45,60Zm0-7.25a2.42,2.42,0,1,0,2.43,2.42,2.43,2.43,0,0,0-2.43-2.42Zm0,0" transform="translate(0 -0.07)"/><path d="M8.1,26.92a1.19,1.19,0,0,1-1-.59C-.72,13.23.19,6.84,1,4.69a6,6,0,0,1,.36-.85v0A6.33,6.33,0,0,1,3.9,1.11L4,1,4.19.93C6.66-.3,14.25-1.93,31.33,9.64a1.2,1.2,0,0,1-1.35,2C13.09.17,6.43,2.5,5.26,3.09l-.15.08A4.11,4.11,0,0,0,3.5,4.8l0,.08,0,0a4.86,4.86,0,0,0-.23.55c-.36,1-1.76,6.75,5.91,19.64a1.2,1.2,0,0,1-1,1.81Zm0,0" transform="translate(0 -0.07)"/></g><path d="M13.69,27.06a1.2,1.2,0,0,1-1-.55c-5.11-8-7.13-13.66-6-16.91A4.91,4.91,0,0,1,7,9a4.85,4.85,0,0,1,2-2.1l.07,0,.13-.08c1.9-1,6.69-1.5,17.61,5.46a1.2,1.2,0,1,1-1.29,2C14.63,7.31,10.89,8.57,10.25,8.89l-.09.05a2.55,2.55,0,0,0-1,1l0,0,0,0a3,3,0,0,0-.15.35c-.41,1.16-.65,4.87,5.73,14.83a1.2,1.2,0,0,1-1,1.85Zm0,0" transform="translate(0 -0.07)"/><path d="M43.06,56.33a1.2,1.2,0,0,1-1.2-1.14c0-.24-.44-6-7.45-7.09a4.17,4.17,0,0,1-3.86-3.59A4.25,4.25,0,0,1,34,39.68l.23,0a7.58,7.58,0,0,1,5.84,1.76c2.92,2.46,4.32,7.08,4.18,13.73a1.2,1.2,0,0,1-1.18,1.18ZM34.38,42.06a1.83,1.83,0,0,0-1.46,2.09,1.8,1.8,0,0,0,1.67,1.56h.13a11.45,11.45,0,0,1,6.68,3.22,9.77,9.77,0,0,0-2.86-5.69A5.22,5.22,0,0,0,34.66,42l-.18,0Zm0,0" transform="translate(0 -0.07)"/><path d="M53,81.19c-5.09,0-7.76-3.16-7.76-6.28,0-1.71.76-5.69,7.76-5.69a1.2,1.2,0,1,1,0,2.4c-3.56,0-5.36,1.11-5.36,3.29,0,1.92,1.84,3.87,5.36,3.87a1.2,1.2,0,0,1,0,2.4Zm0,0" transform="translate(0 -0.07)"/><path d="M53,93c-5.63,0-8.09-2.5-10.27-4.71a13,13,0,0,0-4.74-3.5C31.2,82.21,30.72,77.2,31,74.43a8.8,8.8,0,0,1,4.84-7c.36-.17.74-.32,1.13-.48,2-.8,4-1.64,6.18-6.45a9.76,9.76,0,0,1,10-5.88A1.2,1.2,0,0,1,52.85,57a7.37,7.37,0,0,0-7.48,4.48c-2.54,5.7-5.28,6.81-7.48,7.7-.34.14-.68.27-1,.43a6.4,6.4,0,0,0-3.48,5.08c-.29,2.53.42,5.95,5.38,7.84a15.06,15.06,0,0,1,5.59,4.06c2.11,2.14,3.93,4,8.55,4A1.2,1.2,0,0,1,53,93Zm0,0" transform="translate(0 -0.07)"/><path d="M34.19,83.12h0a16,16,0,0,1-8-2.35,26,26,0,0,1-11.9-19.23c-.64-5.66.67-10.69,3.5-13.46A8,8,0,0,1,23.6,45.5a8.55,8.55,0,0,1,5.57,2.67,7.48,7.48,0,0,1-1.43,11.09,3.45,3.45,0,0,0-1.64,2s0,.09,0,.13c-1.63,5-.69,9.79,2.79,14.18a23.56,23.56,0,0,0,5.94,5.27,1.2,1.2,0,0,1-.59,2.24ZM23.37,47.89a5.77,5.77,0,0,0-4,1.9C17.12,52,16.05,56.41,16.6,61.27A23.58,23.58,0,0,0,27.41,78.75a11.67,11.67,0,0,0,2,1c-3.83-3.62-8.54-10.19-5.7-19a5.91,5.91,0,0,1,2.8-3.56,5.1,5.1,0,0,0,.77-7.45,6.16,6.16,0,0,0-3.83-1.82Zm0,0" transform="translate(0 -0.07)"/><path d="M46.4,83.41A1.2,1.2,0,0,1,46.14,81a32.27,32.27,0,0,1,6.37-.74A1.19,1.19,0,0,1,53.7,81.5,1.18,1.18,0,0,1,52.5,82.7a31,31,0,0,0-5.84.68,1.1,1.1,0,0,1-.25,0Zm0,0" transform="translate(0 -0.07)"/><path d="M30.86,11.71a1.2,1.2,0,0,1-.57-2.25C36.61,6,44.09,4.27,52.53,4.27H53a1.2,1.2,0,1,1,0,2.4h-.46a43.62,43.62,0,0,0-21.09,4.89,1.18,1.18,0,0,1-.58.15Zm0,0" transform="translate(0 -0.07)"/><g class="cls-2"><path d="M47.33,91.34a1.2,1.2,0,0,1-.15-2.39c.17,0,3.78-.55,4.66-4a1.2,1.2,0,0,1,2.33.59c-1.29,5-6.46,5.73-6.68,5.76Zm0,0" transform="translate(0 -0.07)"/><path d="M1.2,35.47A1.2,1.2,0,0,1,0,33.95a14,14,0,0,1,7.73-9.2A1.2,1.2,0,0,1,8.63,27a11.22,11.22,0,0,0-5.27,5.07c2.3-.77,5.43-1.27,7,.8a1.2,1.2,0,1,1-1.9,1.46c-.94-1.22-4.56-.12-6.72,1a1.23,1.23,0,0,1-.56.14Zm0,0" transform="translate(0 -0.07)"/></g><path d="M80.61,88.47a1.2,1.2,0,0,1-.66-2.2c13.34-8.84,19.82-20.19,19.82-34.7a36.27,36.27,0,0,0-4.26-17.19,1.2,1.2,0,0,1,2.16-1.05,39,39,0,0,1,4.51,18.24c0,15.16-7,27.51-20.9,36.7a1.17,1.17,0,0,1-.66.2Zm0,0" transform="translate(0 -0.07)"/><path d="M92.14,27.14a1.19,1.19,0,0,1-1-.53,47.71,47.71,0,0,0-12-12.22,1.2,1.2,0,1,1,1.38-2,50.32,50.32,0,0,1,12.6,12.83,1.2,1.2,0,0,1-.32,1.67,1.19,1.19,0,0,1-.68.21Zm0,0" transform="translate(0 -0.07)"/><path d="M79.82,88.63a3.07,3.07,0,0,1-2.29-1A1.2,1.2,0,1,1,79.32,86a.66.66,0,0,0,.5.22.66.66,0,0,0,.35-.1,1.2,1.2,0,0,1,1.29,2,3.06,3.06,0,0,1-1.64.48Zm0,0" transform="translate(0 -0.07)"/><path d="M78.13,87.68a1.21,1.21,0,0,1-.91-.42c-.07-.08-3.8-4.31-7.54-3.21a1.2,1.2,0,0,1-.68-2.3c5.24-1.55,9.85,3.71,10,3.94a1.2,1.2,0,0,1-.91,2Zm0,0" transform="translate(0 -0.07)"/><g class="cls-2"><path d="M66.59,60a4.83,4.83,0,1,1,4.82-4.82A4.83,4.83,0,0,1,66.59,60Zm0-7.25A2.42,2.42,0,1,0,69,55.21a2.42,2.42,0,0,0-2.42-2.42Zm0,0" transform="translate(0 -0.07)"/><path d="M97.94,26.92a1.2,1.2,0,0,1-1-1.81c7.67-12.9,6.27-18.61,5.92-19.62a4.4,4.4,0,0,0-.24-.57l-.06-.13A4.09,4.09,0,0,0,101,3.19l-.18-.11C99.62,2.5,93,.17,76.06,11.62a1.2,1.2,0,1,1-1.35-2C91.79-1.93,99.38-.3,101.86.94L102,1l-.56,1.06.66-1a6.22,6.22,0,0,1,2.6,2.77,5.66,5.66,0,0,1,.36.84c.75,2.12,1.66,8.52-6.12,21.62a1.19,1.19,0,0,1-1,.59Zm0,0" transform="translate(0 -0.07)"/></g><path d="M92.35,27.06a1.2,1.2,0,0,1-1-1.85c6.39-10,6.14-13.67,5.74-14.81a3.3,3.3,0,0,0-.15-.37.89.89,0,0,1-.06-.14,2.62,2.62,0,0,0-1-.95l0,0-.09-.05c-.61-.3-4.35-1.55-15.21,5.36a1.2,1.2,0,1,1-1.29-2C90.19,5.25,95,5.8,96.87,6.74l.16.09.08.05a4.89,4.89,0,0,1,2,2.11,5.15,5.15,0,0,1,.26.63c1.14,3.23-.87,8.92-6,16.89a1.2,1.2,0,0,1-1,.55Zm0,0" transform="translate(0 -0.07)"/><path d="M63,56.33h0a1.21,1.21,0,0,1-1.18-1.18C61.64,48.5,63,43.88,66,41.42a7.59,7.59,0,0,1,5.85-1.76l.22,0a4.25,4.25,0,0,1,3.46,4.83,4.18,4.18,0,0,1-3.85,3.59c-7.08,1.13-7.44,6.84-7.46,7.09A1.2,1.2,0,0,1,63,56.33ZM70.89,42a5.24,5.24,0,0,0-3.42,1.29,9.82,9.82,0,0,0-2.83,5.66,11.45,11.45,0,0,1,6.68-3.22h.12a1.8,1.8,0,0,0,1.67-1.56,1.84,1.84,0,0,0-1.46-2.09h-.1l-.18,0a3.73,3.73,0,0,0-.49,0Zm0,0" transform="translate(0 -0.07)"/><path d="M53,81.19a1.2,1.2,0,0,1,0-2.4c3.52,0,5.36-2,5.36-3.87,0-2.18-1.81-3.29-5.36-3.29a1.2,1.2,0,1,1,0-2.4c7,0,7.76,4,7.76,5.69,0,3.12-2.66,6.28-7.76,6.28Zm0,0" transform="translate(0 -0.07)"/><path d="M53.09,93a1.2,1.2,0,0,1,0-2.4c4.63,0,6.44-1.85,8.55-4a15,15,0,0,1,5.6-4.06c5-1.89,5.66-5.31,5.38-7.84a6.39,6.39,0,0,0-3.48-5.08c-.32-.15-.65-.29-1-.43-2.2-.89-4.93-2-7.48-7.7A7.42,7.42,0,0,0,53.19,57a1.2,1.2,0,0,1-.32-2.38,9.77,9.77,0,0,1,10,5.88C65,65.34,67.06,66.18,69,67c.39.16.76.31,1.13.48a8.8,8.8,0,0,1,4.84,7c.31,2.76-.17,7.78-6.91,10.36a13,13,0,0,0-4.74,3.5C61.19,90.5,58.73,93,53.09,93Zm0,0" transform="translate(0 -0.07)"/><path d="M71.85,83.12a1.2,1.2,0,0,1-.59-2.24,23.56,23.56,0,0,0,5.94-5.27c3.48-4.39,4.42-9.17,2.79-14.18a.88.88,0,0,1,0-.13,3.45,3.45,0,0,0-1.65-2,7.47,7.47,0,0,1-1.47-11,8.53,8.53,0,0,1,5.61-2.72,8,8,0,0,1,5.88,2.59c2.83,2.77,4.14,7.8,3.5,13.46A26,26,0,0,1,79.88,80.8a16.07,16.07,0,0,1-8,2.32ZM82.28,60.73c2.85,8.84-1.87,15.41-5.7,19a11.87,11.87,0,0,0,2-1A23.62,23.62,0,0,0,89.44,61.27c.55-4.86-.52-9.25-2.8-11.47a5.68,5.68,0,0,0-4.11-1.9,6.16,6.16,0,0,0-3.88,1.87,5.1,5.1,0,0,0,.82,7.4,5.92,5.92,0,0,1,2.81,3.57Zm0,0" transform="translate(0 -0.07)"/><path d="M59.65,83.41a1.07,1.07,0,0,1-.25,0,31,31,0,0,0-5.85-.68h0a1.2,1.2,0,0,1,0-2.4A31.32,31.32,0,0,1,59.9,81a1.2,1.2,0,0,1-.25,2.38Zm0,0" transform="translate(0 -0.07)"/><path d="M75.18,11.71a1.2,1.2,0,0,1-.58-.15c-6-3.25-13.05-4.89-21.09-4.89h-.46a1.2,1.2,0,1,1,0-2.4h.46C62,4.27,69.44,6,75.76,9.46a1.2,1.2,0,0,1-.58,2.25Zm0,0" transform="translate(0 -0.07)"/><path d="M58.71,91.34h-.15c-.22,0-5.39-.73-6.68-5.76A1.2,1.2,0,1,1,54.21,85c.89,3.46,4.61,4,4.65,4a1.2,1.2,0,0,1-.15,2.39Zm0,0" transform="translate(0 -0.07)"/><path d="M104.84,35.47a1.22,1.22,0,0,1-.55-.14c-2.15-1.13-5.78-2.23-6.72-1a1.2,1.2,0,1,1-1.9-1.46c1.59-2.07,4.72-1.57,7-.8A11.2,11.2,0,0,0,97.41,27a1.2,1.2,0,0,1,.87-2.24,14,14,0,0,1,7.72,9.2,1.19,1.19,0,0,1-1.16,1.52Zm0,0" transform="translate(0 -0.07)"/></g></g></svg>