<svg xmlns="http://www.w3.org/2000/svg" xmlns:xlink="http://www.w3.org/1999/xlink" viewBox="0 0 62.41 106.83"><defs><style>.cls-1{fill:none;}.cls-2{clip-path:url(#clip-path);}</style><clipPath id="clip-path" transform="translate(0 -0.17)"><rect class="cls-1" y="0.2" width="62.88" height="107.76"/></clipPath></defs><title>Ресурс 79</title><g id="Слой_2" data-name="Слой 2"><g id="Слой_1-2" data-name="Слой 1"><path d="M4,61.52a1.2,1.2,0,0,1-1.2-1.2,28.55,28.55,0,0,1,28.43-28.6,1.2,1.2,0,1,1,0,2.4,26.14,26.14,0,0,0-26,26.2A1.2,1.2,0,0,1,4,61.52Zm0,0" transform="translate(0 -0.17)"/><g class="cls-2"><path d="M6.35,69.48a5.2,5.2,0,1,1,5.2-5.2,5.2,5.2,0,0,1-5.2,5.2Zm0-8a2.8,2.8,0,1,0,2.8,2.8,2.8,2.8,0,0,0-2.8-2.8Zm0,0" transform="translate(0 -0.17)"/><path d="M26.78,100.37a1.33,1.33,0,0,1-.3,0C15,97.36,7.23,92.15,3.29,84.82A24.7,24.7,0,0,1,1.51,66.38a1.2,1.2,0,1,1,2.27.78A22.66,22.66,0,0,0,5.43,83.72C9,90.41,16.32,95.22,27.08,98a1.2,1.2,0,0,1-.3,2.36Zm0,0" transform="translate(0 -0.17)"/></g><path d="M31,107c-1.14,0-2.27-1.15-3.7-3.71-2-3.57-5.51-12.86-6.14-17.9s1-7.08,2.79-9.46l.32-.41c1.47-1.92,1.53-2.32,1.92-4.89.07-.46.15-1,.25-1.57.8-4.84,4.35-5.56,4.5-5.59a1.2,1.2,0,0,1,.46,2.35c-.12,0-2.08.53-2.59,3.62-.1.59-.18,1.09-.24,1.55-.42,2.75-.55,3.58-2.39,6l-.32.42c-1.75,2.28-2.81,3.66-2.31,7.7.58,4.62,4,13.61,5.86,17a8.68,8.68,0,0,0,1.73,2.45h.06a1.2,1.2,0,0,1,.23,2.38A1.68,1.68,0,0,1,31,107Zm0,0" transform="translate(0 -0.17)"/><path d="M27.55,83.77a1.2,1.2,0,0,1-.77-.28L25,82a1.2,1.2,0,1,1,1.54-1.84l1.8,1.5a1.2,1.2,0,0,1-.77,2.12Zm0,0" transform="translate(0 -0.17)"/><g class="cls-2"><path d="M23.11,80.32a1.2,1.2,0,0,1-.89-.4C13.34,70,8.92,63,8.32,57.93a10.27,10.27,0,0,1,2.32-8,1.21,1.21,0,0,1,2,.58c2.57,11.72,12.6,24.73,12.71,24.86a1.2,1.2,0,0,1-1.9,1.47c-.39-.5-9-11.61-12.4-22.95a8.4,8.4,0,0,0-.39,3.8c.53,4.5,4.88,11.26,13.3,20.68a1.2,1.2,0,0,1-.89,2Zm0,0" transform="translate(0 -0.17)"/><path d="M1.2,62.76a1.2,1.2,0,0,1-.73-2.15A8.25,8.25,0,0,1,7,59.08a1.2,1.2,0,0,1-.55,2.34,5.81,5.81,0,0,0-4.53,1.1,1.2,1.2,0,0,1-.73.25Zm0,0" transform="translate(0 -0.17)"/></g><path d="M18.51,97.17a1.2,1.2,0,0,1-1-.48c-1.6-2.12-2.9-6.44-3.95-9.91-.38-1.26-.7-2.34-.95-3a9.49,9.49,0,0,0-2.38-3.51l-.06-.05-9-8.6A1.2,1.2,0,1,1,2.87,69.9l9,8.57a11.84,11.84,0,0,1,3,4.46c.28.72.62,1.85,1,3.16.88,2.94,2.22,7.38,3.56,9.15a1.2,1.2,0,0,1-1,1.92Zm0,0" transform="translate(0 -0.17)"/><g class="cls-2"><path d="M30.53,33.5a1.2,1.2,0,0,1-1-.49L18.41,17.83c-1.29-.09-4.63-.35-7.88-.66A1.2,1.2,0,0,1,9.45,16c0-.19-.09-4.66,3-7.31,2-1.71,4.82-2.23,8.34-1.55a1.2,1.2,0,0,1,1,1.4l-1.42,7.87L31.49,31.58a1.2,1.2,0,0,1-.26,1.68,1.19,1.19,0,0,1-.71.24ZM11.92,14.88c2.48.23,4.85.41,6.16.51l1.09-6.07A6.62,6.62,0,0,0,14,10.51a7,7,0,0,0-2.11,4.37Zm0,0" transform="translate(0 -0.17)"/><path d="M31.25,33.94a1.2,1.2,0,0,1-1.2-1.2V11.06c-1-.84-3.52-3-6-5.19a1.2,1.2,0,0,1-.18-1.58C24,4.14,26.59.48,30.67.19c2.64-.18,5.2,1.06,7.63,3.69a1.2,1.2,0,0,1-.05,1.69l-5.8,5.5V32.74a1.2,1.2,0,0,1-1.2,1.2ZM26.56,4.86c1.86,1.65,3.67,3.21,4.66,4.06L35.7,4.67a6.63,6.63,0,0,0-4.85-2.09,6.93,6.93,0,0,0-4.29,2.27Zm0,0" transform="translate(0 -0.17)"/></g><path d="M58.36,61.52a1.2,1.2,0,0,1-1.2-1.2,26.14,26.14,0,0,0-26-26.2,1.2,1.2,0,0,1,0-2.4,28.55,28.55,0,0,1,28.43,28.6,1.2,1.2,0,0,1-1.2,1.2Zm0,0" transform="translate(0 -0.17)"/><g class="cls-2"><path d="M56.06,69.48a5.2,5.2,0,1,1,5.2-5.2,5.21,5.21,0,0,1-5.2,5.2Zm0-8a2.8,2.8,0,1,0,2.8,2.8,2.8,2.8,0,0,0-2.8-2.8Zm0,0" transform="translate(0 -0.17)"/><path d="M35.63,100.37a1.2,1.2,0,0,1-.3-2.36c10.76-2.79,18-7.6,21.66-14.29a22.65,22.65,0,0,0,1.64-16.56,1.2,1.2,0,0,1,2.27-.78,24.68,24.68,0,0,1-1.78,18.44c-3.93,7.32-11.73,12.54-23.18,15.51a1.38,1.38,0,0,1-.3,0Zm0,0" transform="translate(0 -0.17)"/></g><path d="M31.38,107a1.75,1.75,0,0,1-.42-.05,1.2,1.2,0,0,1,.23-2.37h.06A8.69,8.69,0,0,0,33,102.12c1.9-3.42,5.28-12.41,5.86-17,.5-4-.56-5.42-2.31-7.7L36.2,77c-1.84-2.41-2-3.24-2.39-6-.07-.45-.15-1-.24-1.55C33.06,66.28,31,65.82,31,65.82a1.2,1.2,0,0,1,.44-2.36c.15,0,3.7.74,4.5,5.59.1.59.18,1.11.25,1.57.39,2.58.45,3,1.92,4.89l.32.41c1.83,2.38,3.41,4.44,2.78,9.46s-4.16,14.33-6.14,17.9c-1.42,2.56-2.56,3.71-3.69,3.71Zm0,0" transform="translate(0 -0.17)"/><path d="M34.86,83.77a1.2,1.2,0,0,1-.77-2.12l1.8-1.5A1.2,1.2,0,0,1,37.43,82l-1.8,1.5a1.19,1.19,0,0,1-.77.28Zm0,0" transform="translate(0 -0.17)"/><path d="M39.29,80.32a1.17,1.17,0,0,1-.8-.31,1.19,1.19,0,0,1-.1-1.69c8.43-9.41,12.78-16.18,13.3-20.68a8.47,8.47,0,0,0-.39-3.8c-3.44,11.33-12,22.44-12.4,22.95A1.2,1.2,0,1,1,37,75.32c.1-.13,10.13-13.13,12.71-24.86a1.2,1.2,0,0,1,2-.58,10.27,10.27,0,0,1,2.32,8c-.59,5.07-5,12.06-13.89,22a1.21,1.21,0,0,1-.9.4Zm0,0" transform="translate(0 -0.17)"/><path d="M61.2,62.76a1.21,1.21,0,0,1-.73-.25,5.79,5.79,0,0,0-4.52-1.1,1.2,1.2,0,0,1-.55-2.34,8.25,8.25,0,0,1,6.54,1.54,1.2,1.2,0,0,1-.74,2.15Zm0,0" transform="translate(0 -0.17)"/><path d="M43.89,97.17a1.2,1.2,0,0,1-1-1.92c1.34-1.78,2.68-6.22,3.56-9.15.39-1.31.73-2.43,1-3.16a11.82,11.82,0,0,1,3.05-4.46l9-8.58a1.2,1.2,0,1,1,1.66,1.73l-9,8.6-.06.06a9.4,9.4,0,0,0-2.38,3.5c-.25.64-.57,1.72-1,3-1,3.47-2.34,7.79-3.94,9.91a1.21,1.21,0,0,1-1,.47Zm0,0" transform="translate(0 -0.17)"/><g class="cls-2"><path d="M31.88,33.5a1.2,1.2,0,0,1-1-1.91L42.06,16.41,40.64,8.54a1.2,1.2,0,0,1,1-1.4c3.51-.68,6.32-.16,8.33,1.55,3.12,2.65,3,7.12,3,7.31a1.2,1.2,0,0,1-1.09,1.16c-3.24.31-6.58.57-7.88.66L32.85,33a1.21,1.21,0,0,1-1,.49ZM43.22,9.33l1.09,6.07c1.31-.1,3.69-.28,6.16-.51a6.92,6.92,0,0,0-2.11-4.37,6.62,6.62,0,0,0-5.14-1.19Zm0,0" transform="translate(0 -0.17)"/><path d="M31.15,33.94a1.2,1.2,0,0,1-1.2-1.2V11.07l-5.8-5.5a1.2,1.2,0,0,1-.05-1.68C26.54,1.25,29.1,0,31.73.19c4.08.28,6.66,3.94,6.77,4.1a1.2,1.2,0,0,1-.18,1.58c-2.43,2.17-5,4.36-6,5.2V32.74a1.2,1.2,0,0,1-1.2,1.2ZM26.7,4.67l4.47,4.25c1-.85,2.81-2.41,4.67-4.06a6.93,6.93,0,0,0-4.29-2.27A6.63,6.63,0,0,0,26.7,4.67Zm0,0" transform="translate(0 -0.17)"/></g></g></g></svg>