<svg xmlns="http://www.w3.org/2000/svg" xmlns:xlink="http://www.w3.org/1999/xlink" viewBox="0 0 101.42 88.35"><defs><style>.cls-1{fill:none;}.cls-2{clip-path:url(#clip-path);}</style><clipPath id="clip-path" transform="translate(0 -0.65)"><rect class="cls-1" y="0.2" width="101.76" height="89.76"/></clipPath></defs><title>Ресурс 75</title><g id="Слой_2" data-name="Слой 2"><g id="Слой_1-2" data-name="Слой 1"><g class="cls-2"><path d="M22.43,73.48a1.2,1.2,0,0,1-.94-.45c-10-12.62-10.06-28.24-10.05-28.9C12.05,29.19,16,18.3,23.27,11.7A23.14,23.14,0,0,1,38.66,5.4c7.79-.74,11.56,2.68,12.47,3.68a1.22,1.22,0,0,1,.76,1.11L52,31.32a1.2,1.2,0,0,1-1.19,1.21h0a1.2,1.2,0,0,1-1.2-1.2L49.5,10.85l-.14-.18c-.22-.25-3.37-3.58-10.54-2.87h-.18a20.93,20.93,0,0,0-13.8,5.73c-6.72,6.15-10.42,16.47-11,30.66,0,.11,0,15.41,9.53,27.35a1.2,1.2,0,0,1-.94,1.95Zm0,0" transform="translate(0 -0.65)"/><path d="M3.71,16.24c-1.86,0-3.1-.49-3.62-1.89-.2-.54-.13-1.15.84-2.81C2.16,9.43,7.64,1.43,12.07.71c4.89-.79,15,7.1,15.6,8.69a2.11,2.11,0,0,1-.15,1.85c-.93,1.55-3.61,2-9.1,2.76-1.3.18-2.68.38-4.1.61l-1.87.32-2.18.4a40.72,40.72,0,0,1-6.57.9ZM2.5,13.68c.86.5,4.71-.21,7.34-.7l2.19-.4,1.9-.32c1.43-.23,2.83-.43,4.15-.61,2.68-.37,6.26-.88,7.21-1.49-1.51-1.63-9.39-7.63-12.84-7.07C11,3.31,8.71,5.2,6.28,8.14A30.43,30.43,0,0,0,2.5,13.68Zm22.91-3.44h0l1.13-.42-1.12.41Zm0,0" transform="translate(0 -0.65)"/></g><path d="M16.8,23.9h-.16a1.2,1.2,0,0,1-1-1.35c.42-3.16-2.79-6.65-4.07-7.73A1.2,1.2,0,0,1,13.09,13c.23.2,5.58,4.79,4.9,9.88a1.19,1.19,0,0,1-1.19,1Zm0,0" transform="translate(0 -0.65)"/><path d="M34.5,44.8a4.13,4.13,0,1,1,4.13-4.13A4.14,4.14,0,0,1,34.5,44.8Zm0-5.87a1.73,1.73,0,1,0,1.73,1.74,1.74,1.74,0,0,0-1.73-1.74Zm0,0" transform="translate(0 -0.65)"/><path d="M18.53,49.75A9.6,9.6,0,0,1,12.24,47a1.2,1.2,0,0,1,1.58-1.8c1.93,1.69,3.83,2.37,5.65,2,3.42-.64,5.88-4.66,6.77-6.36,2.47-4.7,6.71-4.88,8.6-4.32a1.2,1.2,0,0,1-.67,2.3c-.38-.11-3.69-.88-5.81,3.14-1.31,2.5-4.16,6.8-8.46,7.6a7.75,7.75,0,0,1-1.37.13Zm0,0" transform="translate(0 -0.65)"/><path d="M20.21,60a15.37,15.37,0,0,1-5.53-1,1.2,1.2,0,0,1,1-2.2c.34.15,8.19,3.46,12.63-3.79a1.2,1.2,0,1,1,2,1.25A11.34,11.34,0,0,1,20.21,60Zm0,0" transform="translate(0 -0.65)"/><path d="M44.48,36.9a1.21,1.21,0,0,1-1.1-.72,10.8,10.8,0,0,0-6-5.35c-3.33-1.09-7.32-.32-11.84,2.29A1.2,1.2,0,1,1,24.34,31c5.16-3,9.81-3.8,13.82-2.48a13.08,13.08,0,0,1,7.41,6.66,1.2,1.2,0,0,1-1.1,1.68Zm0,0" transform="translate(0 -0.65)"/><path d="M50.7,62.93a10.05,10.05,0,0,1-10-9.53c0-4.07,5.09-4.07,10-4.07,3.74,0,10,0,10,4.17a10.12,10.12,0,0,1-10,9.43Zm0-11.2c-4.45,0-7.6.12-7.6,1.66a7.7,7.7,0,0,0,7.6,7.14,7.87,7.87,0,0,0,7.6-7c0-1.58-4.34-1.77-7.6-1.77Zm0,0" transform="translate(0 -0.65)"/><path d="M53,58.7a1.2,1.2,0,0,1-1.19-1.05,4.89,4.89,0,0,1,1-3.54A3.39,3.39,0,0,1,55.4,53a1.2,1.2,0,0,1,0,2.4,1,1,0,0,0-.84.29,2.59,2.59,0,0,0-.37,1.66,1.19,1.19,0,0,1-1,1.34Zm0,0" transform="translate(0 -0.65)"/><path d="M48.35,58.7H48.2a1.2,1.2,0,0,1-1-1.33,2.55,2.55,0,0,0-.37-1.67,1,1,0,0,0-.84-.29,1.2,1.2,0,1,1,0-2.4,3.38,3.38,0,0,1,2.64,1.1,4.88,4.88,0,0,1,1,3.54,1.2,1.2,0,0,1-1.19,1.05Zm0,0" transform="translate(0 -0.65)"/><path d="M42.08,84.55a1.2,1.2,0,0,1-1.18-1L39,74.34a1.2,1.2,0,0,1,1.94-1.17l5.32,4.45a1.2,1.2,0,1,1-1.54,1.84L42,77.24l1.23,5.87a1.19,1.19,0,0,1-.93,1.42,1,1,0,0,1-.25,0Zm0,0" transform="translate(0 -0.65)"/><path d="M59.48,84.55a1.07,1.07,0,0,1-.25,0,1.2,1.2,0,0,1-.92-1.42l1.23-5.87-2.66,2.23a1.2,1.2,0,0,1-1.54-1.84l5.32-4.45a1.2,1.2,0,0,1,1.95,1.17L60.65,83.6a1.2,1.2,0,0,1-1.17,1Zm0,0" transform="translate(0 -0.65)"/><g class="cls-2"><path d="M79,73.44a1.2,1.2,0,0,1-.94-1.94c9.48-11.93,9.51-27.2,9.5-27.35C87,30,83.3,19.67,76.59,13.52A21,21,0,0,0,62.78,7.79h-.18c-7.18-.71-10.32,2.63-10.54,2.88a1.82,1.82,0,0,1-1.05.7,1.2,1.2,0,0,1-.72-2.28c.92-1,4.68-4.42,12.47-3.68a23.12,23.12,0,0,1,15.4,6.31C85.4,18.3,89.38,29.19,90,44.08c0,.7,0,16.29-10,28.9a1.2,1.2,0,0,1-.94.45Zm0,0" transform="translate(0 -0.65)"/><path d="M97.71,16.24a40.78,40.78,0,0,1-6.57-.9L89,14.94l-1.87-.32c-1.41-.23-2.8-.42-4.1-.6-5.49-.77-8.17-1.21-9.1-2.76a2.1,2.1,0,0,1-.15-1.85C74.34,7.81,84.45-.08,89.35.71c4.44.72,9.92,8.72,11.14,10.82,1,1.66,1,2.27.83,2.81-.52,1.41-1.76,1.89-3.62,1.89ZM76.13,10.16c.95.61,4.53,1.11,7.2,1.48,1.32.18,2.72.38,4.15.61l1.9.32,2.2.4c2.63.48,6.48,1.2,7.34.7a30.6,30.6,0,0,0-3.77-5.54C92.71,5.2,90.4,3.31,89,3.08s-4.23.84-7.53,3a34.76,34.76,0,0,0-5.31,4.12Zm0,0" transform="translate(0 -0.65)"/></g><path d="M84.62,23.9a1.19,1.19,0,0,1-1.19-1c-.68-5.09,4.67-9.69,4.9-9.88a1.2,1.2,0,0,1,1.55,1.83s-4.58,3.95-4.07,7.73a1.2,1.2,0,0,1-1,1.35Zm0,0" transform="translate(0 -0.65)"/><path d="M66.93,44.8a4.13,4.13,0,1,1,4.13-4.13,4.14,4.14,0,0,1-4.13,4.13Zm0-5.87a1.73,1.73,0,1,0,1.73,1.74,1.74,1.74,0,0,0-1.73-1.74Zm0,0" transform="translate(0 -0.65)"/><path d="M82.89,49.75a7.75,7.75,0,0,1-1.37-.12c-4.3-.8-7.14-5.11-8.45-7.61-2.18-4.15-5.65-3.18-5.8-3.14a1.2,1.2,0,1,1-.68-2.3c1.89-.56,6.13-.37,8.6,4.32.89,1.7,3.35,5.73,6.77,6.36,1.81.34,3.71-.35,5.64-2A1.2,1.2,0,0,1,89.18,47a9.6,9.6,0,0,1-6.29,2.72Zm0,0" transform="translate(0 -0.65)"/><path d="M81.21,60A11.33,11.33,0,0,1,71.1,54.22a1.2,1.2,0,1,1,2-1.25c4.46,7.29,12.29,3.94,12.63,3.8a1.2,1.2,0,0,1,1,2.2,15.35,15.35,0,0,1-5.53,1Zm0,0" transform="translate(0 -0.65)"/><path d="M56.95,36.9a1.15,1.15,0,0,1-.48-.1,1.19,1.19,0,0,1-.62-1.58,13.07,13.07,0,0,1,7.41-6.66c4-1.33,8.66-.49,13.82,2.48a1.2,1.2,0,1,1-1.2,2.08c-4.54-2.61-8.53-3.38-11.87-2.28a10.7,10.7,0,0,0-6,5.34,1.2,1.2,0,0,1-1.1.72Zm0,0" transform="translate(0 -0.65)"/><path d="M34.37,89a15.39,15.39,0,0,1-8.52-2.84c-6.33-4.67-4.34-14-4.25-14.42C24.37,61,30.88,54.48,41,52.37a1.2,1.2,0,1,1,.49,2.35c-9.26,1.94-15,7.69-17.54,17.58,0,0-1.72,8.19,3.35,11.94.26.19,6.06,4.47,12,1a8.88,8.88,0,0,0,2.17-1.67c0-.08.09-.28.16-.53.65-2.09,2.35-7.66,9.28-7.66a1.2,1.2,0,0,1,0,2.4c-5.15,0-6.39,4-7,6a4.84,4.84,0,0,1-.39,1,10.08,10.08,0,0,1-3,2.52A11.93,11.93,0,0,1,34.37,89Zm0,0" transform="translate(0 -0.65)"/><path d="M67.16,89a11.93,11.93,0,0,1-6.08-1.67,10.13,10.13,0,0,1-3-2.53,4.84,4.84,0,0,1-.4-1c-.59-1.94-1.83-6-7-6a1.2,1.2,0,0,1-1.2-1.2V61.73a1.2,1.2,0,1,1,2.4,0V75.45c5.93.6,7.47,5.63,8.07,7.6.08.25.13.45.19.57a9.32,9.32,0,0,0,2.15,1.64c5.92,3.45,11.88-1,11.93-1,5.11-3.77,3.38-11.9,3.36-12C75,62.41,69.31,56.66,60.05,54.72a1.2,1.2,0,1,1,.49-2.35C70.64,54.48,77.16,61,79.91,71.7c.1.43,2.09,9.79-4.25,14.46A15.33,15.33,0,0,1,67.16,89Zm0,0" transform="translate(0 -0.65)"/><path d="M50.73,87A26.3,26.3,0,0,1,42,85.55a1.2,1.2,0,0,1,.86-2.24A25.65,25.65,0,0,0,59,83.17a1.2,1.2,0,0,1,.8,2.26A27.17,27.17,0,0,1,50.73,87Zm0,0" transform="translate(0 -0.65)"/><path d="M41.43,64.16a1.74,1.74,0,1,1-1.74-1.74,1.74,1.74,0,0,1,1.74,1.74Zm0,0" transform="translate(0 -0.65)"/><path d="M33.39,69.08a1.74,1.74,0,1,1-1.74-1.74,1.74,1.74,0,0,1,1.74,1.74Zm0,0" transform="translate(0 -0.65)"/><path d="M33.75,76.64A1.74,1.74,0,1,1,32,74.9a1.74,1.74,0,0,1,1.74,1.74Zm0,0" transform="translate(0 -0.65)"/><path d="M62.87,64.16a1.74,1.74,0,1,1-1.74-1.74,1.74,1.74,0,0,1,1.74,1.74Zm0,0" transform="translate(0 -0.65)"/><path d="M70.91,69.08a1.74,1.74,0,1,1-1.74-1.74,1.74,1.74,0,0,1,1.74,1.74Zm0,0" transform="translate(0 -0.65)"/><path d="M71.27,76.64a1.74,1.74,0,1,1-1.74-1.74,1.74,1.74,0,0,1,1.74,1.74Zm0,0" transform="translate(0 -0.65)"/></g></g></svg>