<svg xmlns="http://www.w3.org/2000/svg" xmlns:xlink="http://www.w3.org/1999/xlink" viewBox="0 0 93.99 99.66"><defs><style>.cls-1{fill:none;}.cls-2{clip-path:url(#clip-path);}</style><clipPath id="clip-path" transform="translate(0 -0.34)"><rect class="cls-1" y="0.16" width="93.84" height="100.8"/></clipPath></defs><title>Ресурс 72</title><g id="Слой_2" data-name="Слой 2"><g id="Слой_1-2" data-name="Слой 1"><g class="cls-2"><path d="M32.93,91.54a1.19,1.19,0,0,1-.79-.29C9.38,71.5,5.39,62.19,4.71,59.8a20.19,20.19,0,0,1-.47-2.41c-.32-4.21,3-8.75,3.41-9.25l5-7.49C3.12,29.77.26,9.57.14,8.7c-1-6.55,3.32-8,4-8.17,8.23-2.33,27.74,17.1,28.9,18.31a25.57,25.57,0,0,1,14.11-3.75,1.2,1.2,0,1,1-.2,2.39A23.62,23.62,0,0,0,34.13,21a2,2,0,0,1-1.41.34,2.31,2.31,0,0,1-1.57-1C29.73,18.55,10.94,1.11,4.81,2.84l-.09,0c-.28.07-2.89.81-2.2,5.5,0,.22,3,21.23,12.49,31.36a1.2,1.2,0,0,1,.13,1.48l-5.5,8.3-.05.07s-3.21,4.19-3,7.57a16.9,16.9,0,0,0,.39,2c.45,1.59,3.86,10.48,26.7,30.29a1.2,1.2,0,0,1-.79,2.11Zm0,0" transform="translate(0 -0.34)"/></g><path d="M41.66,83.75a1.19,1.19,0,0,1-1.14-.84l-8.33-26c-1.15-4.59-4.47-4-4.84-3.87L5.94,58.84a1.2,1.2,0,0,1-.63-2.32l21.44-5.81a6.34,6.34,0,0,1,3.25.14c1.55.49,3.6,1.82,4.49,5.39L42.8,82.19A1.2,1.2,0,0,1,42,83.7a1.22,1.22,0,0,1-.37.06Zm0,0" transform="translate(0 -0.34)"/><path d="M28.4,60.23a4.35,4.35,0,1,1,4.35-4.36,4.36,4.36,0,0,1-4.35,4.36Zm0-6.31a2,2,0,1,0,2,2,2,2,0,0,0-2-2Zm0,0" transform="translate(0 -0.34)"/><path d="M14,41.64a1.18,1.18,0,0,1-.64-.19A1.2,1.2,0,0,1,13,39.79a111,111,0,0,1,12.11-14.7C22.51,22,12.71,11,1.91,4.36a1.2,1.2,0,1,1,1.25-2c12.93,7.91,24,21.49,24.5,22.07A1.2,1.2,0,0,1,27.6,26,113.76,113.76,0,0,0,15,41.09a1.2,1.2,0,0,1-1,.55Zm0,0" transform="translate(0 -0.34)"/><path d="M47.21,90.44c-2.89,0-6.71-3.89-6.71-6.18a2,2,0,0,1,.61-1.49c1-1,2.7-.95,5.09-.93h1c2.61,0,6.55,0,6.55,2.71,0,2.24-3.66,5.89-6.55,5.89Zm-4.28-6c.26,1,2.7,3.62,4.28,3.62s3.94-2.43,4.14-3.37c-.3-.18-1.25-.42-4.14-.42h-1a14.46,14.46,0,0,0-3.26.18Zm8.43.13h0Zm0,0" transform="translate(0 -0.34)"/><path d="M40.51,96.58a9.89,9.89,0,0,1-1.57-.13,8.6,8.6,0,0,1-5.34-3A7.06,7.06,0,0,1,32,87.82,8.62,8.62,0,0,1,33.62,84a1.2,1.2,0,1,1,1.83,1.55,6.44,6.44,0,0,0-1.08,2.66,4.67,4.67,0,0,0,1.07,3.72,6.22,6.22,0,0,0,3.86,2.16,6.63,6.63,0,0,0,4.39-.72,4.3,4.3,0,0,0,2.16-3,1.2,1.2,0,0,1,2.37.38,6.67,6.67,0,0,1-3.32,4.73,8.73,8.73,0,0,1-4.41,1.15Zm0,0" transform="translate(0 -0.34)"/><path d="M47.13,100c-5.57,0-7-2.79-7.38-4a1.2,1.2,0,0,1,2.3-.7c.21.68,1.12,2.28,5.08,2.28a1.2,1.2,0,0,1,0,2.4Zm0,0" transform="translate(0 -0.34)"/><path d="M8.13,94.34a1.2,1.2,0,0,1-.6-2.24C17,86.62,28.16,86.74,34.7,87.46a26,26,0,0,0-22.51-1.61,1.2,1.2,0,0,1-.9-2.23c16.31-6.61,29.32,4.91,29.45,5a1.2,1.2,0,0,1-1.09,2.06c-.17,0-17.71-4.18-30.91,3.47a1.2,1.2,0,0,1-.6.16Zm0,0" transform="translate(0 -0.34)"/><path d="M47.13,100a1.2,1.2,0,1,1,0-2.4C51,97.6,52,96,52.2,95.36a1.2,1.2,0,1,1,2.28.74c-.38,1.17-1.86,3.89-7.35,3.89Zm0,0" transform="translate(0 -0.34)"/><g class="cls-2"><path d="M34.54,86a1.2,1.2,0,0,1-1.13-1.6A7.73,7.73,0,0,1,35,81.8a49.45,49.45,0,0,0-7.24-5.94l-.08-.05A20.19,20.19,0,0,0,24,73.65c-1.94-.77-12.62-4.24-12.72-4.27A1.2,1.2,0,1,1,12,67.1c.44.14,10.86,3.52,12.87,4.33a22.36,22.36,0,0,1,4.26,2.42,55.7,55.7,0,0,1,8.59,7.21,1.2,1.2,0,0,1-.25,1.87,5,5,0,0,0-1.78,2.25,1.2,1.2,0,0,1-1.13.79Zm0,0" transform="translate(0 -0.34)"/><path d="M61.07,91.54a1.2,1.2,0,0,1-.79-2.11C83.11,69.62,86.53,60.73,87,59.14a17.21,17.21,0,0,0,.4-2.06c.25-3.32-2.93-7.47-3-7.51l-.05-.07-5.5-8.3A1.2,1.2,0,0,1,79,39.72C88.48,29.59,91.45,8.59,91.48,8.38c.73-4.87-2.17-5.5-2.2-5.51l-.09,0C83.07,1.11,64.26,18.55,62.82,20.33a2.3,2.3,0,0,1-1.55,1A2,2,0,0,1,59.86,21,23.41,23.41,0,0,0,47,17.48a1.2,1.2,0,1,1-.2-2.39,25.56,25.56,0,0,1,14.11,3.76C62.1,17.63,81.62-1.79,89.84.54c.69.18,5,1.62,4,8.18-.12.86-3,21.05-12.47,31.94l5,7.49c.38.5,3.74,5,3.42,9.19a18.81,18.81,0,0,1-.48,2.47c-.68,2.38-4.67,11.7-27.43,31.45a1.2,1.2,0,0,1-.79.29Zm0,0" transform="translate(0 -0.34)"/></g><path d="M52.26,83.65a1.1,1.1,0,0,1-.37-.06,1.2,1.2,0,0,1-.77-1.51l8.39-25.88c.9-3.54,2.93-4.86,4.48-5.35a6.38,6.38,0,0,1,3.23-.15l21.72,5.89a1.2,1.2,0,0,1-.63,2.32L66.62,53c-.34-.08-3.66-.71-4.79,3.8l0,.08L53.4,82.82a1.2,1.2,0,0,1-1.14.83Zm0,0" transform="translate(0 -0.34)"/><path d="M65.6,60.23A4.35,4.35,0,1,1,70,55.87a4.36,4.36,0,0,1-4.35,4.36Zm0-6.31a2,2,0,1,0,1.95,2,2,2,0,0,0-1.95-2Zm0,0" transform="translate(0 -0.34)"/><path d="M80,41.64a1.2,1.2,0,0,1-1-.55A113.83,113.83,0,0,0,66.4,26a1.2,1.2,0,0,1-.06-1.59c.46-.57,11.58-14.15,24.5-22.07a1.2,1.2,0,0,1,1.25,2C81.28,11,71.48,22,68.87,25.09A111.27,111.27,0,0,1,81,39.79a1.2,1.2,0,0,1-1,1.85Zm0,0" transform="translate(0 -0.34)"/><path d="M53.49,96.58a8.72,8.72,0,0,1-4.41-1.15,6.66,6.66,0,0,1-3.31-4.72,1.2,1.2,0,1,1,2.37-.38,4.29,4.29,0,0,0,2.16,3,6.62,6.62,0,0,0,4.39.73,6.22,6.22,0,0,0,3.86-2.16,4.68,4.68,0,0,0,1.07-3.73,6.37,6.37,0,0,0-1.08-2.66A1.2,1.2,0,1,1,60.37,84,8.62,8.62,0,0,1,62,87.82a7,7,0,0,1-1.58,5.62,8.62,8.62,0,0,1-5.34,3,10.34,10.34,0,0,1-1.58.12Zm0,0" transform="translate(0 -0.34)"/><path d="M85.86,94.34a1.18,1.18,0,0,1-.6-.16c-13.21-7.66-30.74-3.51-30.91-3.47a1.2,1.2,0,0,1-1.09-2.06c.13-.12,13.15-11.63,29.45-5a1.2,1.2,0,0,1-.9,2.23A26,26,0,0,0,59.3,87.46c6.54-.72,17.72-.84,27.17,4.64a1.2,1.2,0,0,1-.61,2.24Zm0,0" transform="translate(0 -0.34)"/><path d="M59.46,86a1.21,1.21,0,0,1-1.13-.79,4.94,4.94,0,0,0-1.77-2.26,1.19,1.19,0,0,1-.25-1.86,55.35,55.35,0,0,1,8.59-7.21,22.5,22.5,0,0,1,4.26-2.42c2-.81,12.43-4.18,12.88-4.33a1.2,1.2,0,0,1,.74,2.28c-.11,0-10.79,3.5-12.73,4.27a20.19,20.19,0,0,0-3.77,2.15l-.07.05A49.08,49.08,0,0,0,59,81.8a7.71,7.71,0,0,1,1.63,2.56,1.2,1.2,0,0,1-.72,1.54,1.21,1.21,0,0,1-.41.07Zm0,0" transform="translate(0 -0.34)"/></g></g></svg>