<svg xmlns="http://www.w3.org/2000/svg" xmlns:xlink="http://www.w3.org/1999/xlink" viewBox="0 0 98.96 87"><defs><style>.cls-1{fill:none;}.cls-2{clip-path:url(#clip-path);}</style><clipPath id="clip-path" transform="translate(0 -1)"><rect class="cls-1" y="0.16" width="98.88" height="88.8"/></clipPath></defs><title>Ресурс 65</title><g id="Слой_2" data-name="Слой 2"><g id="Слой_1-2" data-name="Слой 1"><path d="M35.66,80.52a1.2,1.2,0,0,1-1-.58,11.45,11.45,0,0,1-1.55-5.05A13.67,13.67,0,0,1,41.57,62.3a12,12,0,0,0,1-.64c2.49-1.82,4.08-20.49,4.08-27.88,0-2.3.46-3.82,1.41-4.63a2.22,2.22,0,0,1,1.71-.55A1.2,1.2,0,0,1,49.64,31c-.18.16-.56.9-.56,2.8s-.25,8.52-1,15.22C46.79,60.36,45.13,62.78,44,63.61a6,6,0,0,1-1.75,1,11.21,11.21,0,0,0-6.76,10.23,9.34,9.34,0,0,0,1.21,3.85,1.19,1.19,0,0,1-.41,1.65,1.17,1.17,0,0,1-.61.17Zm0,0" transform="translate(0 -1)"/><path d="M32.81,62.45A7.47,7.47,0,1,1,40.28,55a7.48,7.48,0,0,1-7.47,7.47Zm0-12.54A5.07,5.07,0,1,0,37.88,55a5.07,5.07,0,0,0-5.07-5.07Zm0,0" transform="translate(0 -1)"/><g class="cls-2"><path d="M21.34,49.91a1.2,1.2,0,0,1-1.06-1.76,14.14,14.14,0,0,1,23.23-2.67,1.2,1.2,0,0,1-1.82,1.57,11.74,11.74,0,0,0-19.29,2.22,1.2,1.2,0,0,1-1.07.64Zm0,0" transform="translate(0 -1)"/><path d="M17.35,36.77a1.18,1.18,0,0,1-.57-.14c-2.57-1.38-7.33-4.3-10.46-8.45C-2.15,16.95-.59,4,2.32,1.74c.91-.7,2.36-.9,4.34-.62,5.77.85,14.45,5.66,19.9,13.22a38.79,38.79,0,0,1,3.66,6.95l.24.54a1.2,1.2,0,0,1-2.2,1L28,22.25a36.81,36.81,0,0,0-3.41-6.51C19,7.89,10.57,4.12,6.31,3.5a4,4,0,0,0-2.52.14C2.14,4.9.48,16.45,8.23,26.72c3,3.93,7.76,6.75,9.68,7.79a1.2,1.2,0,0,1-.57,2.26Zm0,0" transform="translate(0 -1)"/></g><path d="M25.07,27a1.2,1.2,0,0,1-1.18-1C21.48,10.27,5.16,6.32,1.91,5.7a1.2,1.2,0,1,1,.46-2.36c3.52.68,21.23,5,23.89,22.26a1.2,1.2,0,0,1-1,1.37l-.18,0Zm0,0" transform="translate(0 -1)"/><path d="M45.2,81.29a5.7,5.7,0,0,1-5-8.38A1.2,1.2,0,1,1,42.29,74a3.3,3.3,0,1,0,6.21,1.55V74.26a1.2,1.2,0,0,1,2.4,0v1.34a5.71,5.71,0,0,1-5.7,5.7Zm0,0" transform="translate(0 -1)"/><path d="M49.68,88h-.52c-7.9-.2-11.56-5-12-5.68a21.09,21.09,0,0,0-3.6-3.1c-19.41-10.09-20-28.37-20-29.14a34.85,34.85,0,0,1,34.8-34.83h2.41A34.84,34.84,0,0,1,85.48,50c0,.8-.64,19.08-20.05,29.17a21.17,21.17,0,0,0-3.6,3.1c-.47.67-4.13,5.48-12,5.68Zm-1.4-70.36A32.44,32.44,0,0,0,15.88,50c0,.15.65,17.66,18.82,27.07l.12.07A23.33,23.33,0,0,1,39,80.8a.73.73,0,0,1,.09.12c.13.18,3.21,4.61,10.41,4.68,7.2-.08,10.28-4.5,10.41-4.69L60,80.8a23.33,23.33,0,0,1,4.18-3.62l.12-.07C82.44,67.71,83.08,50.19,83.09,50a32.43,32.43,0,0,0-32.4-32.37Zm0,0" transform="translate(0 -1)"/><path d="M63.3,80.52a1.2,1.2,0,0,1-1-1.82,9.24,9.24,0,0,0,1.21-3.89c0-7.56-6.77-10.2-6.83-10.22a6,6,0,0,1-1.65-1c-1.17-.85-2.83-3.28-4.11-14.64-.75-6.7-1-13.25-1-15.22s-.38-2.64-.56-2.8a1.2,1.2,0,0,1-.16-2.38,2.21,2.21,0,0,1,1.7.55c.95.82,1.41,2.33,1.41,4.63,0,7.39,1.59,26.06,4.11,27.9.38.25.84.55,1,.63a13.65,13.65,0,0,1,8.49,12.54,11.57,11.57,0,0,1-1.55,5.09,1.21,1.21,0,0,1-1,.58Zm0,0" transform="translate(0 -1)"/><path d="M66.15,62.45A7.47,7.47,0,1,1,73.62,55a7.48,7.48,0,0,1-7.47,7.47Zm0-12.54A5.07,5.07,0,1,0,71.22,55a5.07,5.07,0,0,0-5.07-5.07Zm0,0" transform="translate(0 -1)"/><g class="cls-2"><path d="M77.61,49.91a1.2,1.2,0,0,1-1.06-.64,11.74,11.74,0,0,0-19.29-2.22,1.2,1.2,0,0,1-1.82-1.57,14.14,14.14,0,0,1,23.23,2.67,1.2,1.2,0,0,1-.5,1.62,1.22,1.22,0,0,1-.56.14Zm0,0" transform="translate(0 -1)"/><path d="M81.32,36.92a1.2,1.2,0,0,1-.56-2.26c2-1,6.92-3.89,10-7.93C98.48,16.45,96.82,4.9,95.18,3.64a4,4,0,0,0-2.52-.14C88.39,4.12,80,7.9,74.36,15.75a36.54,36.54,0,0,0-3.41,6.51l-.24.54a1.2,1.2,0,0,1-2.19-1l.24-.54a38.93,38.93,0,0,1,3.66-6.95C77.85,6.78,86.53,2,92.3,1.13c2-.29,3.43-.08,4.34.61,2.91,2.24,4.47,15.21-4,26.43C89.3,32.6,84,35.67,81.87,36.78a1.24,1.24,0,0,1-.56.13Zm0,0" transform="translate(0 -1)"/></g><path d="M74,26.84l-.18,0a1.2,1.2,0,0,1-1-1.37c2.52-16.36,18.5-21,23.34-22a1.2,1.2,0,1,1,.5,2.35C92.2,6.72,77.48,11,75.19,25.83a1.2,1.2,0,0,1-1.18,1Zm0,0" transform="translate(0 -1)"/><path d="M49.74,74.45h-.14l-.2,0c-3.35-.56-6-3-6-5.63,0-3.11,3.66-3.17,6.17-3.18h.16c2.52,0,6.18.06,6.18,3.18,0,2.55-2.69,5.08-6,5.63l-.2,0ZM49.68,68c-1.92,0-3.85.1-3.85.77,0,1.21,1.57,2.82,3.84,3.24,2.28-.43,3.86-2,3.86-3.24,0-.68-1.93-.77-3.85-.77Zm0,0" transform="translate(0 -1)"/><path d="M54.19,81.66a5.71,5.71,0,0,1-5.7-5.7V74.63a1.2,1.2,0,0,1,2.4,0V76a3.3,3.3,0,1,0,6.21-1.55,1.2,1.2,0,1,1,2.12-1.13,5.7,5.7,0,0,1-5,8.38Zm0,0" transform="translate(0 -1)"/><path d="M49.45,83.38a4.46,4.46,0,0,1-4.12-2.73,1.2,1.2,0,0,1,2.21-.93,2.07,2.07,0,0,0,3.77.09,1.2,1.2,0,0,1,2.17,1,4.49,4.49,0,0,1-4,2.55Zm0,0" transform="translate(0 -1)"/></g></g></svg>