<svg xmlns="http://www.w3.org/2000/svg" xmlns:xlink="http://www.w3.org/1999/xlink" viewBox="0 0 129.46 114.01"><defs><style>.cls-1{fill:none;}.cls-2{clip-path:url(#clip-path);}</style><clipPath id="clip-path" transform="translate(0 -0.99)"><rect class="cls-1" y="0.04" width="129.84" height="115.92"/></clipPath></defs><title>Ресурс 68</title><g id="Слой_2" data-name="Слой 2"><g id="Слой_1-2" data-name="Слой 1"><path d="M64.75,115h0c-3.75,0-5.19-2-6.59-3.82a11.2,11.2,0,0,0-3.35-3.28C49.89,105,50,100.48,50,98.3v-.14a10,10,0,0,1,.09-1.1c.23-1.95.62-5.2-4.36-13.4S41.4,66.57,42,63c-5.21.24-21.5.1-25.7-10.68a1.2,1.2,0,0,1,.29-1.3,11,11,0,0,1,4-2.25,11.79,11.79,0,0,1,10,1.45l.07,0a43.7,43.7,0,0,1,5.62,4.78,25.26,25.26,0,0,1,1.87,2.33c1.23,1.66,2.29,3.1,3.75,3.12a1.29,1.29,0,0,1,.41.08l1.06-.07A1.2,1.2,0,0,1,44.59,62c0,.11-2.58,10.93,3.18,20.4,5.41,8.91,5,12.68,4.69,14.93a8.19,8.19,0,0,0-.08.84v.14c0,2-.07,5.32,3.64,7.5a13.41,13.41,0,0,1,4,3.91c1.29,1.7,2.13,2.83,4.7,2.86a1.2,1.2,0,0,1,0,2.4ZM18.84,52.27c3.2,6.53,12.52,8.07,18.7,8.34-.49-.56-.94-1.17-1.39-1.78a23.84,23.84,0,0,0-1.68-2.1,41.32,41.32,0,0,0-5.22-4.45c-5-3-8.92-1-10.4,0Zm0,0" transform="translate(0 -0.99)"/><path d="M44.47,55.39c-1.58,0-3.75-.84-7.24-3.72-5.36-4.44-8.83-5-8.87-5-3.77-.5-6.53,0-8.2,1.49a5.08,5.08,0,0,0-1.64,3.49,1.2,1.2,0,1,1-2.4.05,7.43,7.43,0,0,1,2.44-5.33c2.21-2,5.62-2.68,10.12-2.08.16,0,4.11.58,10.08,5.52,4.61,3.82,6,3.22,6.6,3l.06,0a.68.68,0,0,0,.22-.31.81.81,0,0,0-.23-.5c-1.08-1.4-2.08-2.67-2.34-3a2,2,0,0,1-.28-2.54A1.36,1.36,0,0,1,44,45.71c.59-.62,1.6-1.81,2.3-2.65A1.73,1.73,0,0,1,47,41.17a2.67,2.67,0,0,1,3.32.12l4.22,2.94a1.55,1.55,0,0,0,.86.14l.12-.07c.77-.43,1.83-1,9.17-1h0a1.2,1.2,0,0,1,0,2.4c-6.72,0-7.62.52-8,.74a2.75,2.75,0,0,1-.56.26,3.9,3.9,0,0,1-2.74-.32l-.14-.08-4.25-3a1.23,1.23,0,0,1,0,.14,1.19,1.19,0,0,1-.23.47c-.09.11-2.3,2.81-3.24,3.72l-.26.24,2,2.61A3,3,0,0,1,48,52.89a3.1,3.1,0,0,1-1.37,2l-.19.09L46.3,55a4.49,4.49,0,0,1-1.83.4Zm0,0" transform="translate(0 -0.99)"/><path d="M45.72,75.83h0a3.78,3.78,0,0,1-2.6-6.48,3.78,3.78,0,1,1,2.64,6.48Zm0-5.16a1.38,1.38,0,1,0,1.38,1.39,1.37,1.37,0,0,0-1.37-1.39Zm0,0" transform="translate(0 -0.99)"/><path d="M51.72,76.81A1.2,1.2,0,0,1,50.6,76c-1.85-5-4.83-5.34-5-5.36a1.21,1.21,0,0,1-1.08-1.3,1.19,1.19,0,0,1,1.28-1.09c.19,0,4.59.42,7,6.91a1.2,1.2,0,0,1-1.12,1.62Zm0,0" transform="translate(0 -0.99)"/><path d="M64.19,110.67c-.92,0-1.76-.37-2.75-1.84a4.41,4.41,0,0,0-1.12-1,5.35,5.35,0,0,1-2.6-4.13,3.74,3.74,0,0,1,.84-3,4.26,4.26,0,0,1,2.94-1.29l3.27,0a1.2,1.2,0,0,1,0,2.4h0l-3.24,0a1.85,1.85,0,0,0-1.16.5,1.34,1.34,0,0,0-.25,1.14,3,3,0,0,0,1.63,2.44,6.46,6.46,0,0,1,1.7,1.61c.46.69.7.78.7.78h.46a1.2,1.2,0,0,1,0,2.4h-.38Zm0,0" transform="translate(0 -0.99)"/><path d="M63.09,106.27a1.19,1.19,0,0,1-.8-.3L61,104.8a1.2,1.2,0,1,1,1.6-1.79l1.32,1.17a1.2,1.2,0,0,1-.8,2.1Zm0,0" transform="translate(0 -0.99)"/><path d="M64.71,115a1.2,1.2,0,0,1,0-2.4c2.57,0,3.42-1.15,4.7-2.86a13.38,13.38,0,0,1,4-3.91c3.71-2.18,3.66-5.51,3.64-7.5v-.14a8,8,0,0,0-.08-.84c-.27-2.25-.72-6,4.7-14.93,5.77-9.5,3.2-20.3,3.18-20.41a1.2,1.2,0,0,1,1.28-1.48s.41,0,1.06.07a1.17,1.17,0,0,1,.41-.07c1.46,0,2.53-1.45,3.75-3.12a24.59,24.59,0,0,1,1.87-2.32,42.91,42.91,0,0,1,5.62-4.79l.07-.05a11.82,11.82,0,0,1,10-1.45,11.12,11.12,0,0,1,4,2.25,1.21,1.21,0,0,1,.28,1.3C109,63.12,92.73,63.27,87.52,63c.55,3.55,1.23,12.43-3.76,20.64s-4.59,11.46-4.36,13.4a10.26,10.26,0,0,1,.09,1.1v.14c0,2.18.08,6.71-4.82,9.6a11.29,11.29,0,0,0-3.35,3.28C69.92,113,68.48,115,64.73,115Zm35.52-62.73A41.32,41.32,0,0,0,95,56.72a22.6,22.6,0,0,0-1.68,2.1c-.45.61-.9,1.22-1.39,1.78,6.17-.27,15.5-1.8,18.69-8.34-1.47-1-5.36-3-10.4,0Zm0,0" transform="translate(0 -0.99)"/><path d="M85,55.39a4.55,4.55,0,0,1-1.83-.4L83,54.95l-.19-.09a3.1,3.1,0,0,1-1.37-2,3,3,0,0,1,.69-2.41l2-2.62-.26-.24C83,46.72,80.8,44,80.71,43.91a1.18,1.18,0,0,1-.23-.47,1.37,1.37,0,0,1,0-.14l-4.25,3-.14.09a3.9,3.9,0,0,1-2.74.32,3.1,3.1,0,0,1-.56-.26c-.38-.21-1.29-.72-8-.74a1.2,1.2,0,1,1,0-2.4h0c7.38,0,8.44.61,9.21,1l.12.07a1.57,1.57,0,0,0,.85-.14l4.21-2.93a2.67,2.67,0,0,1,3.33-.13,1.73,1.73,0,0,1,.68,1.89c.7.84,1.7,2,2.3,2.65a1.34,1.34,0,0,1,1.25.73A2,2,0,0,1,86.39,49c-.25.32-1.26,1.59-2.34,3a.8.8,0,0,0-.22.5.69.69,0,0,0,.22.3l.05,0c.59.25,2,.84,6.6-3,6-4.94,9.92-5.5,10.09-5.52,4.5-.6,7.9.1,10.11,2.08a7.47,7.47,0,0,1,2.45,5.33,1.2,1.2,0,0,1-2.4,0,5,5,0,0,0-1.67-3.53c-1.67-1.47-4.42-2-8.17-1.46,0,0-3.5.55-8.87,5-3.48,2.88-5.66,3.72-7.24,3.72Zm0,0" transform="translate(0 -0.99)"/><path d="M83.75,75.83a3.78,3.78,0,0,1,0-7.56h0a3.78,3.78,0,0,1,0,7.55Zm0-5.16h0a1.37,1.37,0,0,0-1,.41,1.36,1.36,0,0,0-.39,1,1.38,1.38,0,1,0,1.38-1.39Zm0,0" transform="translate(0 -0.99)"/><path d="M77.75,76.81a1.19,1.19,0,0,1-.42-.08,1.2,1.2,0,0,1-.71-1.54c2.42-6.49,6.82-6.89,7-6.91a1.2,1.2,0,0,1,.2,2.39c-.16,0-3.12.42-5,5.36a1.2,1.2,0,0,1-1.12.78Zm0,0" transform="translate(0 -0.99)"/><path d="M65.32,110.67h-.38a1.2,1.2,0,1,1,0-2.4h.46s.24-.09.7-.78a6.6,6.6,0,0,1,1.7-1.61,3,3,0,0,0,1.63-2.44,1.35,1.35,0,0,0-.25-1.15,1.91,1.91,0,0,0-1.18-.49l-3.21,0h0a1.2,1.2,0,0,1,0-2.4l3.24,0a4.29,4.29,0,0,1,3,1.29,3.75,3.75,0,0,1,.85,3,5.37,5.37,0,0,1-2.6,4.13,4.39,4.39,0,0,0-1.12,1c-1,1.54-1.93,1.84-2.75,1.84Zm0,0" transform="translate(0 -0.99)"/><g class="cls-2"><path d="M66.42,106.27a1.2,1.2,0,0,1-.8-2.1L66.94,103a1.2,1.2,0,1,1,1.6,1.79L67.22,106a1.21,1.21,0,0,1-.8.3Zm0,0" transform="translate(0 -0.99)"/><path d="M44.54,47.73a1.19,1.19,0,0,1-.62-.17C18.5,32.21,3.58,19.79.77,11.66-.78,7.18.29,4.55,1.46,3.14A6,6,0,0,1,7,1.05a4.76,4.76,0,0,1,4,3.08,3.69,3.69,0,0,1-.86,3.81c-.48.48.16,2.72,1,4.26l.05.1c.91,2.12,3.49,5,5.7,7.16a7.72,7.72,0,0,1,.7-4.75,4.22,4.22,0,0,1,3.76-2.28h0c3.73,0,4.79,3.4,4.82,5.19a17.62,17.62,0,0,0,4.55,12.15,5.25,5.25,0,0,1,.47-2.56,4.22,4.22,0,0,1,3.95-2.52c3,.11,4.14,3.16,4.33,5C40,36.91,48,42.2,48.08,42.25a1.2,1.2,0,1,1-1.31,2c-.37-.24-9.06-6-9.7-14.39,0,0-.34-2.71-2-2.78a1.79,1.79,0,0,0-1.68,1.13c-.68,1.47,0,3.56,1.85,5.59a1.2,1.2,0,0,1-1.53,1.83c-.42-.27-10.33-6.62-9.92-18,0-.4-.2-2.76-2.43-2.77h0a1.81,1.81,0,0,0-1.66,1c-.79,1.43-.79,4.31,1.09,7.26A1.2,1.2,0,0,1,19,24.7c-.33-.28-8-6.9-10-11.39-.51-.93-2.55-5.07-.56-7.06a1.3,1.3,0,0,0,.28-1.36A2.42,2.42,0,0,0,6.61,3.43a3.66,3.66,0,0,0-3.3,1.24C2.21,6,2.12,8.2,3,10.88c1.5,4.34,9,14.6,42.12,34.63a1.2,1.2,0,0,1-.62,2.23Zm0,0" transform="translate(0 -0.99)"/><path d="M84.92,47.73a1.2,1.2,0,0,1-.62-2.23c33.15-20,40.61-30.3,42.11-34.63.93-2.67.83-4.87-.27-6.2a3.66,3.66,0,0,0-3.3-1.24,2.42,2.42,0,0,0-2.09,1.46A1.3,1.3,0,0,0,121,6.25c2,2-.05,6.12-.56,7.06-2,4.48-9.66,11.1-10,11.38a1.2,1.2,0,0,1-1.79-1.55c1.88-2.94,1.89-5.82,1.1-7.26a1.82,1.82,0,0,0-1.67-1c-.24,0-2.38.09-2.43,2.84.41,11.35-9.5,17.7-9.92,18a1.2,1.2,0,0,1-1.53-1.83c1.84-2,2.54-4.12,1.85-5.59a1.79,1.79,0,0,0-1.68-1.13c-1.69.06-2,2.8-2,2.82-.63,8.35-9.32,14.11-9.69,14.35a1.2,1.2,0,0,1-1.31-2c.08-.05,8.07-5.36,8.62-12.56.2-1.83,1.34-4.89,4.34-5a4.21,4.21,0,0,1,3.95,2.52,5.23,5.23,0,0,1,.46,2.55A17.51,17.51,0,0,0,103.3,17.7c0-1.85,1.09-5.24,4.82-5.26h0a4.21,4.21,0,0,1,3.76,2.29,7.7,7.7,0,0,1,.7,4.74c2.22-2.2,4.79-5,5.7-7.16l.05-.1c.86-1.57,1.48-3.78,1-4.26a3.7,3.7,0,0,1-.86-3.81,4.76,4.76,0,0,1,4-3.08A6,6,0,0,1,128,3.14c1.17,1.41,2.23,4,.69,8.52-2.81,8.13-17.73,20.55-43.15,35.9a1.21,1.21,0,0,1-.62.17Zm0,0" transform="translate(0 -0.99)"/></g></g></g></svg>