<svg xmlns="http://www.w3.org/2000/svg" xmlns:xlink="http://www.w3.org/1999/xlink" viewBox="0 0 88.8 96.2"><defs><style>.cls-1{fill:none;}.cls-2{clip-path:url(#clip-path);}</style><clipPath id="clip-path" transform="translate(0 -0.8)"><rect class="cls-1" y="0.04" width="88.8" height="97.92"/></clipPath></defs><title>Ресурс 61</title><g id="Слой_2" data-name="Слой 2"><g id="Слой_1-2" data-name="Слой 1"><path d="M15.53,51.73a6.93,6.93,0,1,1,6.93-6.93,6.94,6.94,0,0,1-6.93,6.93Zm0-11.47a4.53,4.53,0,1,0,4.53,4.53,4.54,4.54,0,0,0-4.53-4.53Zm0,0" transform="translate(0 -0.8)"/><g class="cls-2"><path d="M17.7,44.92a2.13,2.13,0,1,1-2.13-2.14,2.13,2.13,0,0,1,2.13,2.14Zm0,0" transform="translate(0 -0.8)"/><path d="M1.2,97a1.2,1.2,0,0,1-.91-2C7.44,86.62,6.21,77.34,5,68.36c-.36-2.71-.7-5.28-.82-7.83-.33-1.95-4.48-28.09,9.16-45.34C20.32,6.42,30.66,1.58,44.13.8A1.21,1.21,0,0,1,45.4,1.93,1.2,1.2,0,0,1,44.27,3.2c-12.75.74-22.51,5.27-29,13.48C2.06,33.36,6.53,59.93,6.58,60.19a1.05,1.05,0,0,1,0,.16c.11,2.47.45,5,.8,7.7C8.6,77.1,10,87.36,2.11,96.58A1.2,1.2,0,0,1,1.2,97Zm0,0" transform="translate(0 -0.8)"/></g><path d="M12.2,40.8a1.2,1.2,0,0,1-1-.52L8.55,36.41a1.2,1.2,0,0,1,2-1.36l2.67,3.87a1.2,1.2,0,0,1-1,1.88Zm0,0" transform="translate(0 -0.8)"/><path d="M30.73,58.93a1.2,1.2,0,0,1-1-.55l-10.2-15.7a1.2,1.2,0,1,1,2-1.31l10.2,15.7a1.2,1.2,0,0,1-1,1.86Zm0,0" transform="translate(0 -0.8)"/><path d="M44.33,67.67H35.4c-2.26,0-3.24-.73-3.63-1.2A7,7,0,0,1,29,61c0-4,3.61-7.3,8-7.3s8.05,3.27,8.05,7.3a1.2,1.2,0,1,1-2.4,0c0-2.7-2.54-4.9-5.65-4.9s-5.65,2.2-5.65,4.9a4.65,4.65,0,0,0,1.94,3.69,1.1,1.1,0,0,1,.26.27,3.2,3.2,0,0,0,1.79.34h8.93a1.2,1.2,0,0,1,0,2.4Zm0,0" transform="translate(0 -0.8)"/><path d="M44.23,86.41a1.41,1.41,0,0,1-.5-.09c-.7-.27-1.13-.68-3.39-6.76a42.63,42.63,0,0,0-8-12.66,1.2,1.2,0,0,1,1.74-1.66,44.5,44.5,0,0,1,8.52,13.48A53,53,0,0,0,44.72,84a1.2,1.2,0,0,1,.07,2.33,1.45,1.45,0,0,1-.56.12Zm0,0" transform="translate(0 -0.8)"/><path d="M42.33,73.34a1.2,1.2,0,0,1-1.14-.82c-.07-.13-.61-.86-1.12-1.49a1.2,1.2,0,0,1,1.86-1.52,8,8,0,0,1,1.54,2.25,1.2,1.2,0,0,1-.76,1.52,1.31,1.31,0,0,1-.38.06Zm0,0" transform="translate(0 -0.8)"/><path d="M73.27,51.73A6.93,6.93,0,1,1,80.2,44.8a6.94,6.94,0,0,1-6.93,6.93Zm0-11.47A4.53,4.53,0,1,0,77.8,44.8a4.54,4.54,0,0,0-4.54-4.53Zm0,0" transform="translate(0 -0.8)"/><g class="cls-2"><path d="M75.37,44.92a2.13,2.13,0,1,1-2.13-2.14,2.13,2.13,0,0,1,2.13,2.14Zm0,0" transform="translate(0 -0.8)"/><path d="M87.6,97a1.2,1.2,0,0,1-.91-.42C78.84,87.36,80.2,77.1,81.4,68c.36-2.69.69-5.23.8-7.7a1,1,0,0,1,0-.15c0-.26,4.53-26.83-8.68-43.52C67,8.47,57.28,3.93,44.53,3.2A1.2,1.2,0,1,1,44.67.8c13.47.78,23.81,5.62,30.76,14.4,13.64,17.24,9.5,43.39,9.16,45.33-.12,2.55-.46,5.11-.82,7.83-1.19,9-2.41,18.26,4.74,26.67a1.2,1.2,0,0,1-.91,2Zm0,0" transform="translate(0 -0.8)"/></g><path d="M76.6,40.8a1.22,1.22,0,0,1-.68-.21,1.2,1.2,0,0,1-.3-1.67l2.67-3.87a1.2,1.2,0,0,1,2,1.36l-2.67,3.87a1.2,1.2,0,0,1-1,.52Zm0,0" transform="translate(0 -0.8)"/><path d="M58.07,58.93a1.2,1.2,0,0,1-1-1.86l10.2-15.7a1.2,1.2,0,1,1,2,1.31l-10.2,15.7a1.2,1.2,0,0,1-1,.55Zm0,0" transform="translate(0 -0.8)"/><path d="M53.4,67.67H44.47a1.2,1.2,0,1,1,0-2.4H53.4a3.22,3.22,0,0,0,1.79-.34,1.12,1.12,0,0,1,.26-.27A4.65,4.65,0,0,0,57.38,61c0-2.7-2.54-4.9-5.65-4.9s-5.65,2.2-5.65,4.9a1.2,1.2,0,1,1-2.4,0c0-4,3.61-7.3,8.05-7.3s8,3.27,8,7.3A7,7,0,0,1,57,66.46c-.39.48-1.37,1.2-3.63,1.2Zm0,0" transform="translate(0 -0.8)"/><path d="M44.57,86.41a1.45,1.45,0,0,1-.57-.12A1.2,1.2,0,0,1,44.08,84a52,52,0,0,0,2.13-5.24,44.46,44.46,0,0,1,8.53-13.48,1.2,1.2,0,1,1,1.73,1.66,42.79,42.79,0,0,0-8,12.66c-2.25,6.09-2.69,6.49-3.39,6.76a1.4,1.4,0,0,1-.5.09Zm0,0" transform="translate(0 -0.8)"/><path d="M46.47,73.37a1.29,1.29,0,0,1-.4-.07,1.23,1.23,0,0,1-.75-1.55,8,8,0,0,1,1.54-2.25A1.2,1.2,0,0,1,48.73,71a15.51,15.51,0,0,0-1.15,1.55,1.15,1.15,0,0,1-1.11.79Zm0,0" transform="translate(0 -0.8)"/></g></g></svg>