<svg xmlns="http://www.w3.org/2000/svg" xmlns:xlink="http://www.w3.org/1999/xlink" viewBox="0 0 66.73 95.85"><defs><style>.cls-1{fill:none;}.cls-2{clip-path:url(#clip-path);}</style><clipPath id="clip-path" transform="translate(0 -0.15)"><rect class="cls-1" width="66.96" height="96.96"/></clipPath></defs><title>Ресурс 71</title><g id="Слой_2" data-name="Слой 2"><g id="Слой_1-2" data-name="Слой 1"><g class="cls-2"><path d="M50,68.6a1.2,1.2,0,0,1-.52-2.29A26.65,26.65,0,0,0,64.27,46.61c.48-6.86-2-11.45-6.45-17.06a37.16,37.16,0,0,1-6.12-12.14,28,28,0,0,0-5.41-9.68A16.32,16.32,0,0,0,33.53,2.59H33.2A16.44,16.44,0,0,0,20.45,7.71,28.24,28.24,0,0,0,15,17.47,37.15,37.15,0,0,1,8.9,29.55C4.45,35.16,2,39.75,2.46,46.65A26.77,26.77,0,0,0,17.24,66.32a1.2,1.2,0,1,1-1,2.17A28.69,28.69,0,0,1,.07,46.86C-.47,39.18,2.33,34,7,28.05A35.22,35.22,0,0,0,12.7,16.79a30.28,30.28,0,0,1,6-10.72A18.59,18.59,0,0,1,33.35.19a18.6,18.6,0,0,1,14.7,5.9,30.11,30.11,0,0,1,6,10.64,35.41,35.41,0,0,0,5.7,11.33c4.69,5.92,7.49,11.12,7,18.76A28.69,28.69,0,0,1,50.51,68.48a1.2,1.2,0,0,1-.51.12Zm0,0" transform="translate(0 -0.15)"/></g><path d="M33.46,96h0l-3.87-.07h-.11A11.24,11.24,0,0,1,25,94.75c-7.58-3.35-9.37-6.86-9.73-7.81-2-3.13-1.5-7.37-1.47-7.55S18,56.83,20,48.07c.85-3.84,2.22-6.37,4-7.52a3.71,3.71,0,0,1,2.39-.62c2.55-.07,4,2.6,5.33,5.2l.2.38c.63,1.2,1.19,1.5,1.38,1.51a1.2,1.2,0,0,1,.57,2.33c-.23.07-2.33.58-4.07-2.72l-.2-.39c-1-2-2.09-4-3.19-3.91a1.21,1.21,0,0,1-.35,0s-2.31-.2-3.75,6.29c-1.95,8.71-6.09,30.93-6.12,31.16,0,0-.43,3.61,1.18,6a1.07,1.07,0,0,1,.16.35s1.15,3.27,8.53,6.51l.2.11a9.32,9.32,0,0,0,3.43.84l3.81.07a1.2,1.2,0,0,1,0,2.4Zm0,0" transform="translate(0 -0.15)"/><path d="M33.27,96a1.2,1.2,0,0,1,0-2.4l3.82-.07a12.78,12.78,0,0,0,3.14-.59c7.46-3.27,9-6.95,9-7a1.19,1.19,0,0,1,.12-.23c1.61-2.38,1.18-6,1.17-6s-4.06-22.4-6.11-31.08c-1.3-5.5-3.13-6.43-3.73-6.32-.14.07-.11,0-.24,0h0c-1.26,0-2,1.27-3.07,3.44-.14.28-.29.57-.44.85-1.75,3.31-3.84,2.79-4.07,2.72A1.2,1.2,0,0,1,33.43,47c.18,0,.74-.31,1.38-1.52l.43-.82c1.15-2.26,2.35-4.59,5-4.74a3.34,3.34,0,0,1,2.29.43c1.86,1,3.29,3.62,4.25,7.68,2.07,8.74,6.1,31,6.14,31.26s.57,4.52-1.49,7.66c-.38.83-2.53,4.77-10.28,8.17a13.69,13.69,0,0,1-3.9.78h-.09L33.29,96Zm0,0" transform="translate(0 -0.15)"/><path d="M38.48,95.1a1.2,1.2,0,0,1-1.2-1.2c0-5.5-1.6-9.5-3.8-9.5-1.88,0-3.9,3.82-3.9,9.5a1.2,1.2,0,1,1-2.4,0c0-6.89,2.65-11.9,6.3-11.9s6.2,4.67,6.2,11.9a1.2,1.2,0,0,1-1.2,1.2Zm0,0" transform="translate(0 -0.15)"/><path d="M50.77,35.2a3.75,3.75,0,0,1-2.65-6.4,3.76,3.76,0,0,1,5.31,0,3.75,3.75,0,0,1-2.65,6.4Zm0-5.1a1.35,1.35,0,0,0-1,2.3,1.38,1.38,0,0,0,1.91,0,1.35,1.35,0,0,0-1-2.3Zm0,0" transform="translate(0 -0.15)"/><path d="M48.22,37.67A1.2,1.2,0,0,1,47.14,37a7.18,7.18,0,0,1,1-8.19,1.2,1.2,0,0,1,1.71,1.68,4.82,4.82,0,0,0-.53,5.46,1.2,1.2,0,0,1-1.08,1.72Zm0,0" transform="translate(0 -0.15)"/><path d="M16,35.2h0a3.75,3.75,0,1,1,2.65-1.1A3.73,3.73,0,0,1,16,35.2Zm0-5.1a1.35,1.35,0,1,0,0,2.7h0a1.34,1.34,0,0,0,1-.4,1.35,1.35,0,0,0-1-2.3Zm0,0" transform="translate(0 -0.15)"/><path d="M18.6,37.67a1.2,1.2,0,0,1-1.08-1.72A4.82,4.82,0,0,0,17,30.49,1.2,1.2,0,0,1,18.7,28.8a7.18,7.18,0,0,1,1,8.19,1.2,1.2,0,0,1-1.08.68Zm0,0" transform="translate(0 -0.15)"/><path d="M28,63.93c-1.54,0-2.71-1.75-2.71-4.07S26.46,55.8,28,55.8a1.72,1.72,0,0,1,1.24.51c.65.66.63,1.67.6,2.83,0,.25,0,.5,0,.77s0,.52,0,.77c0,1.12.05,2.09-.59,2.75a1.69,1.69,0,0,1-1.25.51Zm0,0" transform="translate(0 -0.15)"/><path d="M38.82,63.93a1.69,1.69,0,0,1-1.25-.51c-.64-.65-.62-1.62-.59-2.75,0-.24,0-.5,0-.76s0-.52,0-.77c0-1.16-.05-2.17.6-2.83a1.7,1.7,0,0,1,1.24-.51c1.54,0,2.71,1.75,2.71,4.07s-1.16,4.07-2.71,4.07Zm0,0" transform="translate(0 -0.15)"/></g></g></svg>