<svg xmlns="http://www.w3.org/2000/svg" xmlns:xlink="http://www.w3.org/1999/xlink" viewBox="0 0 97.88 99.65"><defs><style>.cls-1{fill:none;}.cls-2{clip-path:url(#clip-path);}</style><clipPath id="clip-path" transform="translate(0 -0.35)"><rect class="cls-1" y="0.16" width="97.92" height="100.8"/></clipPath></defs><title>Ресурс 60</title><g id="Слой_2" data-name="Слой 2"><g id="Слой_1-2" data-name="Слой 1"><g class="cls-2"><path d="M48.69,100a1.2,1.2,0,0,1-.79-.29l-9.51-8.19L27.55,98.13A1.19,1.19,0,0,1,26.14,98L16.5,89.68A34.09,34.09,0,0,1,1.42,97.15,1.2,1.2,0,0,1,.46,95c5-3.85,9.09-15.63,12-34,2.19-14.09,2.84-27.13,2.85-27.26A33.45,33.45,0,0,1,48.69.35a1.2,1.2,0,1,1,0,2.4,31.06,31.06,0,0,0-31,31c-.1,2-2.31,45-12.72,59.86a29.21,29.21,0,0,0,10.68-6.43,1.2,1.2,0,0,1,1.63-.06L27,95.62,37.89,89a1.2,1.2,0,0,1,1.41.12l10.18,8.76a1.2,1.2,0,0,1-.78,2.11Zm0,0" transform="translate(0 -0.35)"/></g><path d="M42.89,40.49a1.24,1.24,0,0,1-.45-.09C41.69,40.1,24.06,32.74,19,19.69a1.2,1.2,0,0,1,2.24-.87c4.74,12.1,22,19.29,22.16,19.36a1.2,1.2,0,0,1-.46,2.31Zm0,0" transform="translate(0 -0.35)"/><path d="M28.75,42.4a6.07,6.07,0,0,1,0-12.14,6.29,6.29,0,0,1,1.24.13,1.2,1.2,0,0,1-.48,2.35,3.75,3.75,0,0,0-.75-.08,3.67,3.67,0,1,0,3.67,3.67,3.73,3.73,0,0,0-.21-1.22,1.2,1.2,0,1,1,2.26-.8,6.07,6.07,0,0,1-5.73,8.09Zm0,0" transform="translate(0 -0.35)"/><path d="M30.22,36.25a1.47,1.47,0,1,1-1.46-1.46,1.46,1.46,0,0,1,1.46,1.46Zm0,0" transform="translate(0 -0.35)"/><path d="M43.67,46.31a1.2,1.2,0,0,1-1.19-1.08c0-.25-.57-6,2.18-9.08A5.57,5.57,0,0,1,49,34.31a1.2,1.2,0,1,1,0,2.4,3.22,3.22,0,0,0-2.53,1.05c-1.7,1.88-1.71,5.85-1.57,7.23a1.2,1.2,0,0,1-1.07,1.31Zm0,0" transform="translate(0 -0.35)"/><path d="M48.9,81.09a1.2,1.2,0,0,1-1.16-.87c0-.16-4.57-16.36-5.93-20.75-1.08-3.5-3.45-3.64-3.55-3.65a1.2,1.2,0,0,1-.62-2.21c1.22-.79,3.17-4.31,4.14-6.37,1.57-4.29,3.4-6.79,5.41-7.43a3,3,0,0,1,2.52.26,1.2,1.2,0,0,1,.52,1L50.1,79.9a1.2,1.2,0,0,1-1,1.19Zm-8.35-27a7.46,7.46,0,0,1,3.56,4.69c.71,2.3,2.27,7.78,3.62,12.54l.11-29.17h0c-.57.23-2.09,1.27-3.81,6l0,.09a33.2,33.2,0,0,1-3.43,5.86Zm0,0" transform="translate(0 -0.35)"/><g class="cls-2"><path d="M44.73,66.36a1.19,1.19,0,0,1-.91-.42C42,63.8,32.09,62.28,26.27,61.83a1.2,1.2,0,0,1,0-2.39c3-.21,9.18-4.25,11.33-5.78A1.2,1.2,0,1,1,39,55.6,60,60,0,0,1,31.8,60c5,.67,11.83,2,13.85,4.37a1.2,1.2,0,0,1-.91,2Zm0,0" transform="translate(0 -0.35)"/><path d="M49.19,100a1.2,1.2,0,0,1-.79-2.11l10.18-8.76A1.21,1.21,0,0,1,60,89l10.84,6.61,9.8-8.47a1.2,1.2,0,0,1,1.63.06,29.15,29.15,0,0,0,10.68,6.43C82.52,78.77,80.31,35.82,80.21,33.84a31.08,31.08,0,0,0-31-31.09,1.2,1.2,0,1,1,0-2.4A33.47,33.47,0,0,1,82.61,33.78c0,.07.66,13.13,2.85,27.22,2.87,18.41,7,30.17,12,34a1.2,1.2,0,0,1-1,2.12,34.19,34.19,0,0,1-15.09-7.47L71.74,98a1.21,1.21,0,0,1-1.41.12L59.48,91.51,50,99.71a1.19,1.19,0,0,1-.78.29Zm0,0" transform="translate(0 -0.35)"/></g><path d="M55,40.49a1.2,1.2,0,0,1-.46-2.31c.18-.07,17.43-7.27,22.17-19.36a1.2,1.2,0,0,1,2.24.88C73.81,32.74,56.18,40.1,55.43,40.4a1.16,1.16,0,0,1-.45.09Zm0,0" transform="translate(0 -0.35)"/><path d="M69.05,42.32h-.36a6.07,6.07,0,0,1-5.25-8.4,1.2,1.2,0,1,1,2.22.92A3.66,3.66,0,0,0,65.38,36a3.67,3.67,0,0,0,3.45,3.87,3.66,3.66,0,0,0,3.88-3.45,3.67,3.67,0,0,0-3.45-3.87,3.71,3.71,0,0,0-.75,0,1.2,1.2,0,1,1-.35-2.37,6.07,6.07,0,1,1,.9,12.07Zm0,0" transform="translate(0 -0.35)"/><path d="M70.52,36.18a1.47,1.47,0,1,1-1.46-1.46,1.47,1.47,0,0,1,1.46,1.46Zm0,0" transform="translate(0 -0.35)"/><path d="M54.21,46h-.15a1.2,1.2,0,0,1-1-1.34c.16-1.29.22-5-1.39-6.87a3.41,3.41,0,0,0-2.72-1.11,1.2,1.2,0,0,1,0-2.4,5.76,5.76,0,0,1,4.52,1.93c2.66,3,2,8.52,2,8.75A1.2,1.2,0,0,1,54.21,46Zm0,0" transform="translate(0 -0.35)"/><path d="M49,81.09h-.17a1.2,1.2,0,0,1-1-1.19l-.14-38.83a1.19,1.19,0,0,1,.52-1,3,3,0,0,1,2.52-.26c2,.65,3.84,3.15,5.42,7.43,1,2.07,2.92,5.59,4.13,6.38a1.2,1.2,0,0,1-.64,2.21c-.08,0-2.45.14-3.53,3.64-1.36,4.39-5.88,20.58-5.93,20.75a1.2,1.2,0,0,1-1.15.88Zm1.06-39,.11,29.17c1.35-4.76,2.91-10.25,3.62-12.54a7.46,7.46,0,0,1,3.56-4.69,33.31,33.31,0,0,1-3.43-5.86l0-.09c-1.7-4.64-3.18-5.73-3.82-6Zm0,0" transform="translate(0 -0.35)"/><path d="M53.14,66.36a1.2,1.2,0,0,1-.91-2C54.25,62,61,60.69,66.08,60a60.35,60.35,0,0,1-7.2-4.41,1.2,1.2,0,0,1,1.4-1.95c2.15,1.54,8.36,5.57,11.33,5.78a1.2,1.2,0,0,1,0,2.39c-5.82.45-15.73,2-17.55,4.11a1.19,1.19,0,0,1-.91.42Zm0,0" transform="translate(0 -0.35)"/><path d="M29.51,61.38a1.2,1.2,0,0,1-.09-2.4l13.45-1.06a1.2,1.2,0,1,1,.19,2.39L29.6,61.37Zm0,0" transform="translate(0 -0.35)"/><path d="M68.84,61.38h-.09L55.28,60.32a1.2,1.2,0,0,1,.19-2.39L68.93,59a1.2,1.2,0,0,1-.09,2.4Zm0,0" transform="translate(0 -0.35)"/></g></g></svg>