<svg xmlns="http://www.w3.org/2000/svg" xmlns:xlink="http://www.w3.org/1999/xlink" viewBox="0 0 110.41 115.29"><defs><style>.cls-1{fill:none;}.cls-2{clip-path:url(#clip-path);}</style><clipPath id="clip-path" transform="translate(0 -0.71)"><rect class="cls-1" y="0.08" width="110.88" height="116.88"/></clipPath></defs><title>Ресурс 59</title><g id="Слой_2" data-name="Слой 2"><g id="Слой_1-2" data-name="Слой 1"><path d="M37.8,39.65a4.4,4.4,0,1,1,4.4-4.4,4.41,4.41,0,0,1-4.4,4.4Zm0-6.4a2,2,0,1,0,2,2,2,2,0,0,0-2-2Zm0,0" transform="translate(0 -0.71)"/><g class="cls-2"><path d="M39.93,73.21A5.13,5.13,0,0,1,38.5,73,6.74,6.74,0,0,1,34,70.24a5,5,0,0,1-.67-3.67c0-.24,1.39-7.27,1.64-8.42a.58.58,0,0,0,0-.38l-.1-.09a29,29,0,0,1-.13-42.3,1.2,1.2,0,1,1,1.65,1.75,26.6,26.6,0,0,0,.06,38.75,2.69,2.69,0,0,1,.87,2.78C37,59.78,35.64,67,35.63,67.08A2.63,2.63,0,0,0,36,69a4.56,4.56,0,0,0,3,1.69l.13,0a2.57,2.57,0,0,0,3.15-1.48l1.08-2.46a1.2,1.2,0,0,1,2.2,1l-1.1,2.5a4.92,4.92,0,0,1-4.58,3Zm0,0" transform="translate(0 -0.71)"/><path d="M33.8,69a1.33,1.33,0,0,1-.3,0C14.76,64.24,6.64,44.81,2.74,35.48,2.11,34,1.57,32.67,1.13,31.79A9.69,9.69,0,0,1,3.67,19.7C25.16,1.85,35.66,6.26,36.1,6.45l.2.11a.32.32,0,0,0,.44,0A25.24,25.24,0,0,1,55.4.86,1.2,1.2,0,1,1,55,3.24,23.21,23.21,0,0,0,38.25,8.39a2.72,2.72,0,0,1-3.2.23c-.86-.29-10.55-3.09-29.88,13a7.35,7.35,0,0,0-1.9,9.14c.48.95,1,2.29,1.68,3.84,3.75,9,11.55,27.66,29.14,32.14A1.2,1.2,0,0,1,33.8,69Zm0,0" transform="translate(0 -0.71)"/></g><path d="M18.07,102.69a1.2,1.2,0,0,1-.89-2C31.47,85,33.83,69.56,33.85,69.41a1.2,1.2,0,0,1,2.38.34c-.09.59-2,13.16-13,27.44C27.5,93.73,33.78,86.54,40.1,71.78a1.2,1.2,0,1,1,2.21.94c-11.74,27.42-23.53,29.85-24,29.94l-.21,0Zm0,0" transform="translate(0 -0.71)"/><path d="M45.4,108.65a1.18,1.18,0,0,1-.73-.25,1.2,1.2,0,0,1-.21-1.68c1.32-1.7,1.61-5.05,1.61-6.19,1.56-25-4.11-38.59-4.17-38.73a1.2,1.2,0,1,1,2.2-.95c.25.57,6,14.16,4.36,39.75,0,.12,0,4.9-2.12,7.59a1.2,1.2,0,0,1-.95.46Zm0,0" transform="translate(0 -0.71)"/><path d="M60.86,116a6,6,0,0,1-5.66-4,6,6,0,0,1-11.66-2,5.77,5.77,0,0,1,.73-3,1.2,1.2,0,0,1,2.06,1.23,3.46,3.46,0,0,0-.4,1.81,3.61,3.61,0,0,0,7.22,0,3.31,3.31,0,0,1,.7-2.29,1.84,1.84,0,0,1,1.34-.58,1.8,1.8,0,0,1,1.24.5,3.09,3.09,0,0,1,.82,2.37,3.61,3.61,0,0,0,7.22,0,3.5,3.5,0,0,0-.4-1.81A1.2,1.2,0,0,1,66.14,107a5.82,5.82,0,0,1,.73,3,6,6,0,0,1-6,5.95Zm0,0" transform="translate(0 -0.71)"/><path d="M72.6,39.65a4.4,4.4,0,1,1,4.4-4.4,4.4,4.4,0,0,1-4.4,4.4Zm0-6.4a2,2,0,1,0,2,2,2,2,0,0,0-2-2Zm0,0" transform="translate(0 -0.71)"/><g class="cls-2"><path d="M70.48,73.21a4.88,4.88,0,0,1-4.55-2.94L64.8,67.73a1.2,1.2,0,1,1,2.2-1l1.1,2.5a2.58,2.58,0,0,0,3.13,1.44l.13,0a4.56,4.56,0,0,0,3-1.69,2.63,2.63,0,0,0,.38-1.86c0-.12-1.41-7.34-1.65-8.46A2.69,2.69,0,0,1,74,55.87a26.61,26.61,0,0,0,.07-38.75,1.2,1.2,0,0,1,1.65-1.75,29,29,0,0,1-.13,42.3l-.1.08a.58.58,0,0,0,0,.38c.25,1.15,1.6,8.18,1.66,8.48a5,5,0,0,1-.68,3.61A6.73,6.73,0,0,1,71.91,73a5,5,0,0,1-1.43.2Zm0,0" transform="translate(0 -0.71)"/><path d="M76.6,69a1.2,1.2,0,0,1-.3-2.36c17.59-4.48,25.39-23.16,29.14-32.14.65-1.55,1.21-2.88,1.68-3.84a7.28,7.28,0,0,0-1.86-9.12c-19.29-16-29-13.28-29.91-13a2.75,2.75,0,0,1-3.25-.28A23,23,0,0,0,55.4,3.23,1.2,1.2,0,0,1,55,.86,25.22,25.22,0,0,1,73.66,6.51c.25.2.4.1.46.05l.19-.11c.44-.2,10.93-4.6,32.46,13.27a9.68,9.68,0,0,1,2.5,12.06c-.44.88-1,2.18-1.61,3.68-3.9,9.34-12,28.77-30.77,33.54a1.14,1.14,0,0,1-.3,0Zm0,0" transform="translate(0 -0.71)"/></g><path d="M92.34,102.69l-.23,0c-.49-.09-12.27-2.62-24-30a1.2,1.2,0,0,1,2.21-.95C76.14,85.3,81.9,92.37,85.71,95.9c.5.47,1,.88,1.44,1.26-11-14.27-12.88-26.82-13-27.41a1.2,1.2,0,0,1,2.38-.34c0,.15,2.41,15.59,16.66,31.27a1.2,1.2,0,0,1-.89,2Zm0,0" transform="translate(0 -0.71)"/><path d="M65,108.65a1.19,1.19,0,0,1-.94-.46c-2.1-2.7-2.12-7.46-2.12-7.67C60.34,75,66.06,61.41,66.3,60.84a1.2,1.2,0,0,1,2.2.95c-.06.13-5.73,13.7-4.17,38.65,0,1.22.3,4.58,1.62,6.27a1.2,1.2,0,0,1-.95,1.94Zm0,0" transform="translate(0 -0.71)"/><path d="M49.48,63a1.2,1.2,0,0,1-.72-2.16c.19-.14,4.74-3.41,12.62-.33a1.2,1.2,0,0,1-.87,2.23c-6.56-2.56-10.17-.07-10.32,0a1.19,1.19,0,0,1-.7.22Zm0,0" transform="translate(0 -0.71)"/><path d="M51.13,72.69a1.2,1.2,0,0,1-.71-2.16c.14-.11,3.53-2.53,9.3-.28a1.2,1.2,0,0,1-.87,2.24c-4.48-1.75-7,0-7,0a1.19,1.19,0,0,1-.71.23Zm0,0" transform="translate(0 -0.71)"/><path d="M51.36,81.83a1.2,1.2,0,0,1-1-.5,1.18,1.18,0,0,1,.26-1.66c.13-.1,3.36-2.42,8.85-.28a1.2,1.2,0,0,1-.87,2.24c-4.19-1.64-6.47-.09-6.57,0a1.23,1.23,0,0,1-.7.22Zm0,0" transform="translate(0 -0.71)"/><path d="M52.29,91.4a1.2,1.2,0,0,1-.71-2.16c.11-.08,2.68-1.92,7-.25a1.2,1.2,0,0,1-.87,2.24c-3-1.18-4.66-.08-4.68-.06a1.19,1.19,0,0,1-.71.23Zm0,0" transform="translate(0 -0.71)"/><path d="M52.29,100.35a1.2,1.2,0,0,1-.71-2.17c.11-.08,2.68-1.92,7-.24a1.2,1.2,0,1,1-.87,2.23c-3-1.18-4.66-.07-4.68-.06a1.17,1.17,0,0,1-.71.23Zm0,0" transform="translate(0 -0.71)"/></g></g></svg>