<svg xmlns="http://www.w3.org/2000/svg" xmlns:xlink="http://www.w3.org/1999/xlink" viewBox="0 0 100.94 72.07"><defs><style>.cls-1{fill:none;}.cls-2{clip-path:url(#clip-path);}</style><clipPath id="clip-path" transform="translate(0 -0.93)"><rect class="cls-1" y="0.04" width="100.8" height="73.92"/></clipPath></defs><title>Ресурс 58</title><g id="Слой_2" data-name="Слой 2"><g id="Слой_1-2" data-name="Слой 1"><path d="M22.18,28.46a1.19,1.19,0,0,1-.33,0,14,14,0,1,1,17.57-16,1.2,1.2,0,1,1-2.36.43A11.6,11.6,0,1,0,22.5,26.1a1.2,1.2,0,0,1-.32,2.35Zm0,0" transform="translate(0 -0.93)"/><path d="M22.25,22.79a9.85,9.85,0,1,1,9.85-9.85,9.86,9.86,0,0,1-9.85,9.85Zm0-17.3a7.45,7.45,0,1,0,7.45,7.45,7.46,7.46,0,0,0-7.45-7.45Zm0,0" transform="translate(0 -0.93)"/><g class="cls-2"><path d="M22.35,17.13a3.9,3.9,0,1,1,3.9-3.9,3.9,3.9,0,0,1-3.9,3.9Zm0-5.4a1.5,1.5,0,1,0,1.5,1.5,1.5,1.5,0,0,0-1.5-1.5Zm0,0" transform="translate(0 -0.93)"/><path d="M50.39,73H50.3C17.1,70.53.31,44.9.21,44.64a3.12,3.12,0,0,1,0-2.22A77.46,77.46,0,0,1,12,24.33c.75-.84,1.52-1.68,2.27-2.47A1.2,1.2,0,1,1,16,23.51c-.74.78-1.49,1.59-2.22,2.42-.07.09-7.32,8.25-11.33,17.42a.91.91,0,0,0,0,.36C3.13,44.81,19,68.26,50.48,70.6a1.2,1.2,0,0,1-.09,2.4Zm0,0" transform="translate(0 -0.93)"/></g><path d="M35.94,8.29A1.2,1.2,0,0,1,35.43,6c8.93-4.11,14.8-3.68,15.05-3.66a1.2,1.2,0,0,1-.19,2.39c-.07,0-5.56-.37-13.86,3.45a1.16,1.16,0,0,1-.5.11Zm0,0" transform="translate(0 -0.93)"/><path d="M50.39,58.6c-13.39,0-23.54-5.35-31-9.25-1.94-1-3.62-1.91-5.14-2.59-6.9-3.08-12.17-.82-12.23-.8a1.2,1.2,0,1,1-1-2.19c.25-.11,6.31-2.71,14.17.8,1.59.71,3.38,1.65,5.27,2.65,7.19,3.79,17,9,29.84,9a1.2,1.2,0,0,1,0,2.4Zm0,0" transform="translate(0 -0.93)"/><path d="M45.05,46.93a3.2,3.2,0,1,1,3.2-3.2,3.2,3.2,0,0,1-3.2,3.2Zm0-4a.8.8,0,1,0,.8.8.8.8,0,0,0-.8-.8Zm0,0" transform="translate(0 -0.93)"/><path d="M78.76,28.46a1.2,1.2,0,0,1-.32-2.35A11.6,11.6,0,1,0,63.87,12.83a1.2,1.2,0,1,1-2.36-.43,14,14,0,1,1,17.57,16,1.16,1.16,0,0,1-.32,0Zm0,0" transform="translate(0 -0.93)"/><path d="M78.69,22.79a9.85,9.85,0,1,1,9.85-9.85,9.86,9.86,0,0,1-9.85,9.85Zm0-17.3a7.45,7.45,0,1,0,7.45,7.45,7.46,7.46,0,0,0-7.45-7.45Zm0,0" transform="translate(0 -0.93)"/><g class="cls-2"><path d="M78.59,17.13a3.9,3.9,0,1,1,3.9-3.9,3.9,3.9,0,0,1-3.9,3.9Zm0-5.4a1.5,1.5,0,1,0,1.5,1.5,1.5,1.5,0,0,0-1.5-1.5Zm0,0" transform="translate(0 -0.93)"/><path d="M50.55,73a1.2,1.2,0,0,1-.09-2.4C82,68.26,97.81,44.82,98.52,43.71a.81.81,0,0,0,0-.42c-4-9.11-11.23-17.27-11.31-17.36-.73-.83-1.48-1.64-2.22-2.42a1.2,1.2,0,0,1,1.74-1.65c.76.8,1.52,1.63,2.27,2.48a77.11,77.11,0,0,1,11.73,18.05,3.14,3.14,0,0,1,0,2.26c-.1.25-16.89,25.88-50.09,28.35Zm0,0" transform="translate(0 -0.93)"/></g><path d="M65,8.29a1.22,1.22,0,0,1-.5-.11C56.2,4.36,50.7,4.73,50.65,4.73a1.2,1.2,0,0,1-.19-2.39c.24,0,6.12-.44,15,3.67A1.2,1.2,0,0,1,65,8.29Zm0,0" transform="translate(0 -0.93)"/><path d="M50.55,58.6a1.2,1.2,0,1,1,0-2.4c12.8,0,22.64-5.19,29.83-9,1.9-1,3.69-1.94,5.28-2.65,7.86-3.51,13.92-.91,14.17-.8a1.2,1.2,0,0,1-1,2.2c-.09,0-5.41-2.25-12.23.8-1.52.67-3.19,1.56-5.13,2.58-7.41,3.91-17.57,9.25-31,9.25Zm0,0" transform="translate(0 -0.93)"/><path d="M55.89,46.93a3.2,3.2,0,1,1,3.2-3.2,3.2,3.2,0,0,1-3.2,3.2Zm0-4a.8.8,0,1,0,.8.8.8.8,0,0,0-.8-.8Zm0,0" transform="translate(0 -0.93)"/></g></g></svg>