<svg xmlns="http://www.w3.org/2000/svg" xmlns:xlink="http://www.w3.org/1999/xlink" viewBox="0 0 97.58 119.53"><defs><style>.cls-1{fill:none;}.cls-2{clip-path:url(#clip-path);}</style><clipPath id="clip-path" transform="translate(0 -0.47)"><rect class="cls-1" y="0.24" width="97.92" height="120.72"/></clipPath></defs><title>Ресурс 57</title><g id="Слой_2" data-name="Слой 2"><g id="Слой_1-2" data-name="Слой 1"><g class="cls-2"><path d="M49.13,120c-5.74,0-10.77-6.15-11-6.41a6.53,6.53,0,0,1-1.44-5.71,12.28,12.28,0,0,0,.13-1.56c0-1.51-1.88-5.59-3.07-7.81-6.52-12.1-4.61-28-3.61-33.81-5.47,1.89-20.29,5.36-29.11-8.52a5.57,5.57,0,0,1-1-4,2.68,2.68,0,0,1,2.55-2.75H29.39a1.2,1.2,0,1,1,0,2.4H2.62a1.08,1.08,0,0,0-.16.52c0,.06,0,.11,0,.16A3.16,3.16,0,0,0,3,54.74l.08.11a18.85,18.85,0,0,0,17.72,9.29A29.63,29.63,0,0,0,31.24,61.7,1.2,1.2,0,0,1,32.93,63c0,.2-4.55,20.39,3,34.32.34.65,3.35,6.34,3.35,8.94a14.44,14.44,0,0,1-.15,1.87,4.21,4.21,0,0,0,.93,3.91c0,.05,4.52,5.52,9.11,5.52a1.2,1.2,0,1,1,0,2.4Zm0,0" transform="translate(0 -0.47)"/></g><path d="M30.93,64.12h-.17c-15.71-2.21-29-11.64-29.52-12a1.2,1.2,0,1,1,1.4-1.95c.13.09,13.35,9.48,28.45,11.61a1.2,1.2,0,0,1-.16,2.39Zm0,0" transform="translate(0 -0.47)"/><path d="M31.75,80.6a3.6,3.6,0,0,1-1.63-.39,3.35,3.35,0,0,1-.38-.22,1.2,1.2,0,0,1,1.31-2l.13.08a1.21,1.21,0,0,0,1.6-.48,1.38,1.38,0,0,0-.68-1.35c-.64-.32-1-.35-1.13-.29a1.2,1.2,0,0,1-1.16-2.1,3.66,3.66,0,0,1,3.36.24,3.8,3.8,0,0,1,1.89,2.37,3,3,0,0,1-.26,2.41,3.62,3.62,0,0,1-3.07,1.74Zm0,0" transform="translate(0 -0.47)"/><path d="M45.43,105.47a1.2,1.2,0,0,1-1.19-1.1c-.07-.76-.63-7.49-.58-8.73,0-.26-.66-.92-1.26-1.28-5.54-3.81-7.66-11.47-8.18-13.73a12.44,12.44,0,0,0-1.54-3.88,1.2,1.2,0,0,1,2-1.37,14.6,14.6,0,0,1,1.91,4.71c.34,1.46,2.26,8.89,7.15,12.26.36.22,2.43,1.57,2.35,3.39,0,.83.32,5.49.57,8.43a1.21,1.21,0,0,1-1.09,1.3Zm0,0" transform="translate(0 -0.47)"/><path d="M42.91,112.61a2.6,2.6,0,1,1,2.6-2.6,2.6,2.6,0,0,1-2.6,2.6Zm0-2.79a.2.2,0,0,0-.2.2c0,.22.4.22.4,0a.2.2,0,0,0-.2-.2Zm0,0" transform="translate(0 -0.47)"/><path d="M45.41,113.88a1.35,1.35,0,0,1-.3,0,1.21,1.21,0,0,1-.86-1.46c.46-1.77-.46-2.27-.75-2.38a1.21,1.21,0,0,1-.71-1.53,1.19,1.19,0,0,1,1.5-.74c1.16.39,3.13,2,2.29,5.25a1.2,1.2,0,0,1-1.16.9Zm0,0" transform="translate(0 -0.47)"/><path d="M36.08,59.24a6.18,6.18,0,0,1-5.51-2.86,1.25,1.25,0,0,1-.14-.5c-.44-7-3.89-11.74-7.87-17.29a81.73,81.73,0,0,1-5.79-8.87C11.26,19.61,14.18,11,14.3,10.62,16.83,2.31,23.1.57,23.36.51a1.2,1.2,0,0,1,1.2,2c-4.73,5.24-3.62,12.89-3.61,13C22.1,25.69,25.76,29,31.82,34.56l.89.82c7.51,6.88,9.63,12.69,10.57,16.46a5.45,5.45,0,0,1-.52,4.32A6.45,6.45,0,0,1,39,58.79a10.39,10.39,0,0,1-2.93.45ZM32.8,55.4c.43.56,2,2.11,5.61,1.07a4.08,4.08,0,0,0,2.32-1.57A3.12,3.12,0,0,0,41,52.43c-.87-3.47-2.84-8.83-9.87-15.28l-.89-.82c-6.25-5.71-10.38-9.48-11.63-20.58A21.2,21.2,0,0,1,19.88,5.52a14.37,14.37,0,0,0-3.29,5.85,23,23,0,0,0,2.28,17.22,80.86,80.86,0,0,0,5.63,8.61c4,5.52,7.72,10.74,8.3,18.21Zm0,0" transform="translate(0 -0.47)"/><path d="M31,50.83a1.18,1.18,0,0,1-.84-.34,1.2,1.2,0,0,1,0-1.7l6.18-6.28a1.2,1.2,0,1,1,1.71,1.68l-6.18,6.28a1.19,1.19,0,0,1-.86.36Zm0,0" transform="translate(0 -0.47)"/><path d="M28.31,45.81a1.2,1.2,0,0,1-.85-2L33,38.21a1.2,1.2,0,0,1,1.7,1.7l-5.55,5.54a1.2,1.2,0,0,1-.85.35Zm0,0" transform="translate(0 -0.47)"/><path d="M25.06,41.31a1.2,1.2,0,0,1-.86-2L29,34.35A1.2,1.2,0,1,1,30.73,36l-4.81,4.92a1.2,1.2,0,0,1-.86.36Zm0,0" transform="translate(0 -0.47)"/><path d="M49.06,51.84H41.81a1.2,1.2,0,1,1,0-2.4h7.25a1.2,1.2,0,1,1,0,2.4Zm0,0" transform="translate(0 -0.47)"/><path d="M48.45,120a1.2,1.2,0,0,1,0-2.4c4.61,0,9.07-5.46,9.11-5.52a4.21,4.21,0,0,0,.93-3.9,15.19,15.19,0,0,1-.15-1.87c0-2.6,3-8.3,3.35-8.94,7.52-14,3-34.12,3-34.33a1.2,1.2,0,0,1,1.69-1.35,29.85,29.85,0,0,0,10.54,2.44,18.83,18.83,0,0,0,17.64-9.29l.08-.11a3.15,3.15,0,0,0,.54-2.24,1.15,1.15,0,0,1,0-.16,1.07,1.07,0,0,0-.16-.53H68.19a1.2,1.2,0,0,1,0-2.4H95a2.67,2.67,0,0,1,2.55,2.75,5.57,5.57,0,0,1-1,4c-8.82,13.88-23.64,10.41-29.11,8.52,1,5.78,2.91,21.71-3.61,33.82-1.18,2.21-3.06,6.3-3.06,7.8a12.34,12.34,0,0,0,.13,1.57,6.56,6.56,0,0,1-1.44,5.71c-.21.27-5.24,6.41-11,6.41Zm0,0" transform="translate(0 -0.47)"/><path d="M66.66,64.12a1.2,1.2,0,0,1-.16-2.39C81.62,59.6,94.81,50.22,94.94,50.12a1.2,1.2,0,0,1,1.4,2c-.56.4-13.82,9.83-29.52,12Zm0,0" transform="translate(0 -0.47)"/><path d="M65.83,80.61a3.64,3.64,0,0,1-3.07-1.74,3,3,0,0,1-.25-2.41,3.8,3.8,0,0,1,1.89-2.37,3.67,3.67,0,0,1,3.36-.23A1.2,1.2,0,0,1,66.6,76c-.12-.07-.5,0-1.14.28a1.4,1.4,0,0,0-.68,1.36,1.22,1.22,0,0,0,1.59.48l.16-.09a1.2,1.2,0,1,1,1.29,2,3.35,3.35,0,0,1-.39.22,3.59,3.59,0,0,1-1.61.39Zm0,0" transform="translate(0 -0.47)"/><path d="M52.15,105.47H52a1.2,1.2,0,0,1-1.09-1.3c.24-2.82.61-7.61.57-8.43-.08-1.82,2-3.18,2.41-3.43C58.77,89,60.69,81.55,61,80.09a14.46,14.46,0,0,1,1.92-4.71,1.2,1.2,0,0,1,2,1.37,12.37,12.37,0,0,0-1.54,3.88c-.52,2.26-2.65,9.93-8.13,13.69-.71.44-1.3,1.08-1.31,1.32.05,1.24-.51,8-.58,8.73a1.21,1.21,0,0,1-1.2,1.1Zm0,0" transform="translate(0 -0.47)"/><path d="M54.68,112.61a2.6,2.6,0,1,1,2.6-2.6,2.6,2.6,0,0,1-2.6,2.6Zm0-2.79a.2.2,0,0,0-.2.2c0,.21.39.22.39,0a.2.2,0,0,0-.2-.2Zm0,0" transform="translate(0 -0.47)"/><path d="M52.17,113.88A1.2,1.2,0,0,1,51,113c-.84-3.27,1.13-4.86,2.29-5.25a1.2,1.2,0,0,1,.78,2.27c-.3.12-1.2.63-.75,2.39a1.2,1.2,0,0,1-.86,1.46,1.37,1.37,0,0,1-.3,0Zm0,0" transform="translate(0 -0.47)"/><path d="M61.48,59.23a10.67,10.67,0,0,1-3-.46,6.42,6.42,0,0,1-3.7-2.6,5.45,5.45,0,0,1-.52-4.32c.95-3.77,3.07-9.58,10.57-16.46l.9-.82C71.82,29,75.48,25.7,76.63,15.49c0-.12,1.1-7.8-3.61-13a1.2,1.2,0,0,1,1.2-2c.26.07,6.53,1.8,9.07,10.16.11.31,3,8.94-2.46,19.06A82.67,82.67,0,0,1,75,38.59c-4,5.55-7.43,10.34-7.88,17.29a1.17,1.17,0,0,1-.14.5,6.19,6.19,0,0,1-5.53,2.85ZM77.71,5.55A21.29,21.29,0,0,1,79,15.8c-1.25,11.06-5.37,14.83-11.62,20.54l-.9.82c-7,6.45-9,11.81-9.87,15.28a3.1,3.1,0,0,0,.23,2.47,4.06,4.06,0,0,0,2.26,1.55c3.65,1.05,5.24-.49,5.67-1,.57-7.47,4.33-12.69,8.3-18.21a80.79,80.79,0,0,0,5.63-8.61A23,23,0,0,0,81,11.41a14.41,14.41,0,0,0-3.3-5.86Zm0,0" transform="translate(0 -0.47)"/><path d="M66.55,50.83a1.2,1.2,0,0,1-.86-.36l-6.18-6.28a1.2,1.2,0,0,1,1.72-1.68l6.17,6.28a1.2,1.2,0,0,1-.85,2Zm0,0" transform="translate(0 -0.47)"/><path d="M69.27,45.81a1.2,1.2,0,0,1-.85-.35l-5.55-5.54a1.2,1.2,0,0,1,1.7-1.7l5.54,5.55a1.2,1.2,0,0,1-.85,2Zm0,0" transform="translate(0 -0.47)"/><path d="M72.52,41.31a1.21,1.21,0,0,1-.86-.36L66.85,36a1.2,1.2,0,1,1,1.71-1.68l4.82,4.92a1.2,1.2,0,0,1,0,1.7,1.19,1.19,0,0,1-.84.34Zm0,0" transform="translate(0 -0.47)"/><path d="M55.77,51.84H48.52a1.2,1.2,0,1,1,0-2.4h7.25a1.2,1.2,0,1,1,0,2.4Zm0,0" transform="translate(0 -0.47)"/></g></g></svg>