<svg xmlns="http://www.w3.org/2000/svg" xmlns:xlink="http://www.w3.org/1999/xlink" viewBox="0 0 75.04 118.42"><defs><style>.cls-1{fill:none;}.cls-2{clip-path:url(#clip-path);}</style><clipPath id="clip-path" transform="translate(0 -0.58)"><rect class="cls-1" y="0.2" width="75.84" height="119.76"/></clipPath></defs><title>Ресурс 54</title><g id="Слой_2" data-name="Слой 2"><g id="Слой_1-2" data-name="Слой 1"><path d="M31.3,113.67a4.11,4.11,0,1,1,4.11-4.11,4.12,4.12,0,0,1-4.11,4.11Zm0-5.82A1.71,1.71,0,1,0,33,109.56a1.71,1.71,0,0,0-1.71-1.71Zm0,0" transform="translate(0 -0.58)"/><path d="M34.21,110.76a1.2,1.2,0,0,1-1.2-1.1c0-.41-.52-3.93-5.72-3.93a1.2,1.2,0,0,1,0-2.4c6.07,0,8,4,8.12,6.15a1.2,1.2,0,0,1-1.11,1.28Zm0,0" transform="translate(0 -0.58)"/><path d="M21.21,64a1.2,1.2,0,0,1-1.15-.83c-1.13-3.54-2.73-5.9-4.63-6.84A3.86,3.86,0,0,0,12.76,56a1.2,1.2,0,1,1-.82-2.26,6.06,6.06,0,0,1,4.55.44c2.53,1.25,4.51,4,5.86,8.26A1.2,1.2,0,0,1,21.58,64a1.17,1.17,0,0,1-.36.05Zm0,0" transform="translate(0 -0.58)"/><g class="cls-2"><path d="M14.63,62.35A4,4,0,0,1,14,62.3,3.8,3.8,0,0,1,10.77,58a3.62,3.62,0,0,1,1.57-2.43,4,4,0,0,1,5.35.87,3.62,3.62,0,0,1,.71,2.8,3.77,3.77,0,0,1-3.76,3.1Zm-.11-5a1.49,1.49,0,0,0-.85.25,1.24,1.24,0,0,0-.55.83,1.4,1.4,0,0,0,1.24,1.53A1.39,1.39,0,0,0,16,58.86a1.24,1.24,0,0,0-.25-1,1.53,1.53,0,0,0-1-.57l-.27,0Zm0,0" transform="translate(0 -0.58)"/><path d="M37.93,119H32.48c-5.25,0-8.63-5.25-8.77-5.47C21,109,21.59,104,22.07,99.65c.13-1.15.25-2.23.31-3.28a17.91,17.91,0,0,0-1.76-8.56c-15.68-28.87-9-49.39-7.5-53.21L14.91,30a.65.65,0,0,0-.13-.58,4.06,4.06,0,0,0-.49-.56l-.16-.09C13.6,28.38,1,19.35.06,10.55A8.76,8.76,0,0,1,2.43,3.43a1.16,1.16,0,0,1,.25-.21,9.93,9.93,0,0,1,8.42-.54c5.33,2,9.57,8.36,12.6,18.79a4.51,4.51,0,0,0,.14.43,12.24,12.24,0,0,1,7-3.11,1.2,1.2,0,1,1,.13,2.39c-3.29.17-6,2.94-6,3l-.08.08a1.76,1.76,0,0,1-1.64.34c-1.24-.36-1.69-1.91-1.83-2.42-3.5-12-8-16-11.15-17.21a7.6,7.6,0,0,0-6.17.27,6.34,6.34,0,0,0-1.63,5.1c.79,7.39,11.86,15.63,13,16.44a4.26,4.26,0,0,1,1.25,1.21,3,3,0,0,1,.46,2.94l-1.78,4.59c-1.43,3.64-7.8,23.25,7.38,51.19a20.15,20.15,0,0,1,2,9.84c-.07,1.11-.19,2.22-.32,3.4-.46,4.19-.94,8.53,1.3,12.37,0,0,2.8,4.32,6.72,4.32h5.45a1.2,1.2,0,1,1,0,2.4Zm0,0" transform="translate(0 -0.58)"/></g><path d="M23.08,104.78a1.21,1.21,0,0,1-1.18-1.45A11.3,11.3,0,0,1,28,96c2.92-1.37,2.54-3.37,2.13-5.48-.09-.46-.18-.91-.21-1.32A2.74,2.74,0,0,1,30.79,87a2.62,2.62,0,0,1,2.44-.43,8,8,0,0,1,2.46,1.09,3.31,3.31,0,0,0,2,.68,1.2,1.2,0,1,1,0,2.4,5.63,5.63,0,0,1-3.24-1,5.71,5.71,0,0,0-1.77-.8,1.35,1.35,0,0,0-.31,0,1.06,1.06,0,0,0,0,.12c0,.28.1.66.18,1.07.43,2.22,1.15,5.93-3.46,8.1a8.85,8.85,0,0,0-4.8,5.64,1.21,1.21,0,0,1-1.17.94Zm0,0" transform="translate(0 -0.58)"/><path d="M37.35,90.45a1.2,1.2,0,0,1-1.08-.67C34.9,87,22.82,62.55,22.22,60.94a6.87,6.87,0,0,1,0-5.07C25,48.07,35.81,31,36.27,30.29a1.2,1.2,0,1,1,2,1.28c-.11.18-11.14,17.63-13.82,25.16l-.06.14a4.4,4.4,0,0,0,.05,3.24c.42,1.13,8.57,17.72,13.95,28.6a1.2,1.2,0,0,1-.54,1.61,1.18,1.18,0,0,1-.53.13Zm0,0" transform="translate(0 -0.58)"/><path d="M31.28,88.31a1.2,1.2,0,0,1-1.1-.73C21,66.28,13.95,68.08,13.88,68.11a1.2,1.2,0,1,1-.8-2.26c.92-.32,9.28-2.5,19.3,20.79a1.2,1.2,0,0,1-.63,1.58,1.17,1.17,0,0,1-.47.1Zm0,0" transform="translate(0 -0.58)"/><path d="M30.82,89.58a1.19,1.19,0,0,1-1-.5c-5.36-7.48-8.59-8.89-10-9.07a2,2,0,0,0-.94.08,1.2,1.2,0,0,1-1.56-1.82,3.57,3.57,0,0,1,2.79-.64c3.27.39,7.21,3.77,11.7,10.05a1.2,1.2,0,0,1-1,1.9Zm0,0" transform="translate(0 -0.58)"/><path d="M37.88,71.25a1.21,1.21,0,0,1-1.13-.79l-1-2.69c-3.05-8.35-3.05-8.35-2.84-9.71l0-.18c.21-1.49,3.05-7.91,3.63-9.18a1.2,1.2,0,1,1,2.19,1,79.77,79.77,0,0,0-3.44,8.55l0,.21c-.11.72-.12.75,2.72,8.52l1,2.69a1.2,1.2,0,0,1-.71,1.54,1.25,1.25,0,0,1-.41.07Zm0,0" transform="translate(0 -0.58)"/><path d="M37.61,81.38a1.21,1.21,0,0,1-1.1-.73c-3.41-8.11-5.62-12.95-6.93-15.84-2.09-4.58-2.36-5.17-2.09-7.06.38-2.64,7.49-16.55,8.91-19.31a1.2,1.2,0,1,1,2.13,1.1c-3.22,6.26-8.42,16.82-8.67,18.55-.17,1.16-.11,1.32,1.89,5.73,1.32,2.9,3.53,7.76,7,15.9a1.2,1.2,0,0,1-.64,1.58,1.24,1.24,0,0,1-.47.09Zm0,0" transform="translate(0 -0.58)"/><path d="M17.28,57a1.23,1.23,0,0,1-.44-.08,1.2,1.2,0,0,1-.67-1.56C22,40.74,33.42,26,33.53,25.84a1.2,1.2,0,0,1,1.89,1.48c-.11.14-11.36,14.64-17,28.9a1.2,1.2,0,0,1-1.12.76Zm0,0" transform="translate(0 -0.58)"/><path d="M12.48,46.38a1.2,1.2,0,0,1-1.07-1.75,64.47,64.47,0,0,1,19.2-22.25,1.2,1.2,0,0,1,1.34,2A63.22,63.22,0,0,0,13.55,45.73a1.2,1.2,0,0,1-1.07.65Zm0,0" transform="translate(0 -0.58)"/><path d="M18.88,26.58a1.22,1.22,0,0,1-.6-.16c-1.18-.68-11.5-6.82-11.84-13a3.67,3.67,0,0,1,1.23-2.79,4.11,4.11,0,0,1,3.63-.6c.6.14,6,1.68,9.48,14.26a1.2,1.2,0,0,1-.32,1.18l-.75.73a1.21,1.21,0,0,1-.84.34ZM10,12.31a1.26,1.26,0,0,0-.79.21,1.3,1.3,0,0,0-.35.85c.2,3.5,5.78,7.85,9.18,10.07-3.1-9.83-7.2-11-7.24-11a3.74,3.74,0,0,0-.8-.1Zm0,0" transform="translate(0 -0.58)"/><path d="M30.91,21a1.2,1.2,0,0,1-.63-2.22,2.32,2.32,0,0,0,.7-.87,30.7,30.7,0,0,0,1.24-5.33c1.34-7.24,2.45-12,5.46-12a1.2,1.2,0,1,1,0,2.4C36.44,3,35,10.52,34.58,13a27.71,27.71,0,0,1-1.46,6,4.55,4.55,0,0,1-1.6,1.83,1.2,1.2,0,0,1-.61.16Zm0,0" transform="translate(0 -0.58)"/><path d="M37.64,32c-1.5,0-2.66-1.81-3.37-3.34-.47-1-4.19-8.24-4.22-8.31a1.2,1.2,0,1,1,2.13-1.1c.16.3,3.77,7.34,4.26,8.4a5.81,5.81,0,0,0,1.32,2A1.2,1.2,0,0,1,37.64,32Zm0,0" transform="translate(0 -0.58)"/><path d="M44.19,113.67a4.11,4.11,0,1,1,4.11-4.11,4.12,4.12,0,0,1-4.11,4.11Zm0-5.82a1.71,1.71,0,1,0,1.72,1.71,1.72,1.72,0,0,0-1.72-1.71Zm0,0" transform="translate(0 -0.58)"/><path d="M41.28,110.76h-.09a1.2,1.2,0,0,1-1.11-1.28c.16-2.13,2.05-6.15,8.12-6.15a1.2,1.2,0,0,1,0,2.4c-5.37,0-5.71,3.77-5.72,3.93a1.2,1.2,0,0,1-1.2,1.11Zm0,0" transform="translate(0 -0.58)"/><path d="M54.28,64a1.19,1.19,0,0,1-1.14-1.57c1.36-4.23,3.33-7,5.87-8.26a6.07,6.07,0,0,1,4.56-.44A1.2,1.2,0,0,1,62.75,56a3.82,3.82,0,0,0-2.75.36c-1.87.95-3.45,3.3-4.57,6.8a1.2,1.2,0,0,1-1.14.83Zm0,0" transform="translate(0 -0.58)"/><path d="M60.86,62.35a3.77,3.77,0,0,1-3.76-3.1,3.63,3.63,0,0,1,.71-2.8,4,4,0,0,1,5.35-.87A3.62,3.62,0,0,1,64.73,58a3.8,3.8,0,0,1-3.22,4.29,4,4,0,0,1-.65.05Zm-1.4-3.48a1.48,1.48,0,0,0,2.9-.47,1.24,1.24,0,0,0-.55-.83,1.58,1.58,0,0,0-2.1.34,1.26,1.26,0,0,0-.25,1Zm0,0" transform="translate(0 -0.58)"/><path d="M43,119H37.57a1.2,1.2,0,1,1,0-2.4H43c3.92,0,6.71-4.31,6.74-4.36,2.22-3.8,1.74-8.14,1.28-12.33-.13-1.18-.25-2.3-.32-3.4a20.21,20.21,0,0,1,2-9.84c15.18-27.95,8.81-47.55,7.38-51.2l-1.79-4.62a3,3,0,0,1,.47-2.91,4.24,4.24,0,0,1,1.27-1.22c1.1-.76,12.18-8.62,12.56-15.34a5.55,5.55,0,0,0-2.2-4.7,6.58,6.58,0,0,0-5.79-1c-2.9.92-7.09,4.52-10.55,16.44-.15.51-.6,2.06-1.84,2.43a1.76,1.76,0,0,1-1.64-.34l-.08-.08s-2.74-2.79-6-3a1.2,1.2,0,0,1,.13-2.4,12.25,12.25,0,0,1,7,3.12c0-.12.09-.26.14-.43C54.82,11,58.92,5,64,3.39a9,9,0,0,1,8,1.46A7.91,7.91,0,0,1,75,11.52c-.46,8.21-13.15,16.88-13.7,17.25l-.13.08a4.15,4.15,0,0,0-.48.56.68.68,0,0,0-.15.56l1.8,4.63c1.5,3.82,8.19,24.34-7.5,53.21a18.06,18.06,0,0,0-1.76,8.56c.06,1,.18,2.13.31,3.28.48,4.37,1,9.32-1.61,13.84-.16.26-3.54,5.5-8.79,5.5Zm0,0" transform="translate(0 -0.58)"/><path d="M52.41,104.78a1.2,1.2,0,0,1-1.17-.94,8.85,8.85,0,0,0-4.8-5.64C41.83,96,42.54,92.32,43,90.1c.08-.41.15-.79.18-1.1a.79.79,0,0,0,0-.09,1.31,1.31,0,0,0-.3,0,5.67,5.67,0,0,0-1.77.8,5.62,5.62,0,0,1-3.24,1,1.2,1.2,0,1,1,0-2.4,3.3,3.3,0,0,0,2-.68,8,8,0,0,1,2.46-1.09A2.62,2.62,0,0,1,44.7,87a2.74,2.74,0,0,1,.84,2.16c0,.45-.13.89-.22,1.35-.41,2.11-.79,4.1,2.13,5.48a11.3,11.3,0,0,1,6.13,7.3,1.2,1.2,0,0,1-.92,1.42l-.25,0Zm0,0" transform="translate(0 -0.58)"/><path d="M38.15,90.45a1.18,1.18,0,0,1-.53-.13,1.2,1.2,0,0,1-.54-1.61C42.45,77.83,50.6,61.24,51,60.11a4.4,4.4,0,0,0,.05-3.25.88.88,0,0,1-.05-.13c-2.68-7.54-13.71-25-13.82-25.16a1.2,1.2,0,1,1,2-1.28c.46.72,11.24,17.78,14,25.59a6.87,6.87,0,0,1,0,5.07c-.59,1.61-12.67,26-14.05,28.83a1.2,1.2,0,0,1-1.08.67Zm0,0" transform="translate(0 -0.58)"/><path d="M44.21,88.31a1.2,1.2,0,0,1-1.1-1.68c10-23.29,18.38-21.11,19.3-20.79a1.2,1.2,0,0,1-.77,2.27c-.19,0-7.26-1.61-16.33,19.47a1.2,1.2,0,0,1-1.1.73Zm0,0" transform="translate(0 -0.58)"/><path d="M44.68,89.58a1.2,1.2,0,0,1-1-1.9c4.5-6.28,8.43-9.66,11.7-10.05a3.59,3.59,0,0,1,2.79.64l-1.56,1.82.05,0s-3.36-1.76-11,8.95a1.2,1.2,0,0,1-1,.5Zm0,0" transform="translate(0 -0.58)"/><path d="M37.61,71.25a1.17,1.17,0,0,1-.41-.08,1.2,1.2,0,0,1-.71-1.54l1-2.69c2.84-7.77,2.84-7.8,2.72-8.52l0-.21a79.08,79.08,0,0,0-3.44-8.55,1.2,1.2,0,0,1,2.19-1c.57,1.27,3.41,7.7,3.62,9.19l0,.18c.21,1.36.21,1.36-2.84,9.71l-1,2.69a1.2,1.2,0,0,1-1.13.79Zm0,0" transform="translate(0 -0.58)"/><path d="M37.88,81.38a1.24,1.24,0,0,1-.46-.09,1.2,1.2,0,0,1-.64-1.58c3.43-8.14,5.64-13,7-15.9,2-4.41,2.06-4.57,1.89-5.73-.25-1.73-5.45-12.3-8.67-18.55a1.2,1.2,0,0,1,2.14-1.1C40.51,41.19,47.63,55.1,48,57.74c.27,1.89,0,2.48-2.09,7.06C44.6,67.7,42.4,72.54,39,80.64a1.21,1.21,0,0,1-1.11.73Zm0,0" transform="translate(0 -0.58)"/><path d="M58.21,57a1.2,1.2,0,0,1-1.12-.76c-5.67-14.27-16.92-28.76-17-28.9A1.2,1.2,0,0,1,42,25.84c.11.15,11.57,14.91,17.37,29.5a1.2,1.2,0,0,1-.67,1.56,1.23,1.23,0,0,1-.44.08Zm0,0" transform="translate(0 -0.58)"/><path d="M63,46.38a1.2,1.2,0,0,1-1.07-.65A63.22,63.22,0,0,0,43.54,24.37a1.2,1.2,0,0,1,1.34-2,64.47,64.47,0,0,1,19.2,22.25A1.2,1.2,0,0,1,63,46.38Zm0,0" transform="translate(0 -0.58)"/><path d="M56.61,26.58a1.21,1.21,0,0,1-.84-.34L55,25.5a1.2,1.2,0,0,1-.32-1.18c3.5-12.58,8.87-14.12,9.48-14.26a4.1,4.1,0,0,1,3.63.6,3.64,3.64,0,0,1,1.23,2.75c-.34,6.19-10.66,12.33-11.84,13a1.23,1.23,0,0,1-.6.16Zm8.9-14.27a3.71,3.71,0,0,0-.8.1s-4.14,1.23-7.23,11c3.39-2.22,9-6.57,9.18-10.11a1.27,1.27,0,0,0-.36-.81,1.25,1.25,0,0,0-.78-.2Zm0,0" transform="translate(0 -0.58)"/><path d="M44.58,21a1.2,1.2,0,0,1-.6-.16A4.55,4.55,0,0,1,42.38,19a27.71,27.71,0,0,1-1.46-6c-.46-2.48-1.86-10-3.1-10a1.2,1.2,0,1,1,0-2.4c3,0,4.13,4.75,5.46,12a30.77,30.77,0,0,0,1.24,5.33,2.36,2.36,0,0,0,.71.87A1.21,1.21,0,0,1,44.58,21Zm0,0" transform="translate(0 -0.58)"/><path d="M37.85,32a1.2,1.2,0,0,1-.12-2.39,5.79,5.79,0,0,0,1.32-2c.49-1.06,4.11-8.1,4.26-8.4a1.2,1.2,0,0,1,2.14,1.09c0,.07-3.75,7.3-4.22,8.32C40.52,30.23,39.35,32,37.85,32Zm0,0" transform="translate(0 -0.58)"/></g></g></svg>