<svg xmlns="http://www.w3.org/2000/svg" xmlns:xlink="http://www.w3.org/1999/xlink" viewBox="0 0 99.95 117.16"><defs><style>.cls-1{fill:none;}.cls-2{clip-path:url(#clip-path);}</style><clipPath id="clip-path" transform="translate(0 -0.84)"><rect class="cls-1" y="0.16" width="99.84" height="118.8"/></clipPath></defs><title>Ресурс 53</title><g id="Слой_2" data-name="Слой 2"><g id="Слой_1-2" data-name="Слой 1"><g class="cls-2"><path d="M50,105.6A3.66,3.66,0,0,1,47.9,105l-7.77-6-.07-.06c-3.33-3-3-6-2.77-8.16a8.14,8.14,0,0,0,.08-1.68C37.13,87,34.1,79.3,31.55,75.35a43.77,43.77,0,0,1-4.41-9.77c-2.79-9.46-1.64-16.11-.75-19.13a52.05,52.05,0,0,1-10.09-.58c-8.45-1.37-14-5-16.16-10.42a1.19,1.19,0,0,1,.29-1.3,11.32,11.32,0,0,1,4.12-2.31A12.16,12.16,0,0,1,14.8,33.33l.07,0a44.8,44.8,0,0,1,5.79,4.93,24.87,24.87,0,0,1,1.93,2.4c1.27,1.72,2.38,3.22,3.91,3.23a1.32,1.32,0,0,1,.41.08c.68,0,1.08-.07,1.11-.07a1.2,1.2,0,0,1,1.2,1.71c0,.07-3.31,7.24.23,19.24A42,42,0,0,0,33.57,74c2.63,4.07,5.88,12.15,6.18,14.78A9.69,9.69,0,0,1,39.67,91c-.21,1.93-.42,3.93,2,6.08L49.34,103a1.43,1.43,0,0,0,.62.15,1.2,1.2,0,0,1,0,2.4ZM2.73,35.38C6,42.2,15.77,43.76,22.15,44c-.53-.59-1-1.25-1.49-1.9A23.5,23.5,0,0,0,18.92,40a42.36,42.36,0,0,0-5.39-4.6c-5.21-3.14-9.29-1-10.8,0Zm0,0" transform="translate(0 -0.84)"/><path d="M50.16,44.7A1.2,1.2,0,0,1,49,43.52L48.73,30l-1,0a3.2,3.2,0,0,1-3-1.48c-.29-.43-1.69-2.52-2.13-3.35a.29.29,0,0,0-.2-.16c-1.49.33-5,1.15-6.09,1.52a2.53,2.53,0,0,0-1.17.82l-.84,4c-.23,2.18-3,2.75-3.27,2.8a7.11,7.11,0,0,1-4.63-1l-.13-.09c-5.49-4.38-13-4.24-13.12-4.24-8.92-.16-10.66,5.93-10.73,6.19A1.2,1.2,0,0,1,0,34.48a10.26,10.26,0,0,1,2.47-4.15c1.73-1.81,5-4,10.57-3.84.3,0,8.4-.15,14.56,4.7a4.73,4.73,0,0,0,2.86.62c.65-.12,1.35-.5,1.36-.71,0-.05,0-.1,0-.16l.9-4.3a1.13,1.13,0,0,1,.1-.29,4.62,4.62,0,0,1,2.57-2.09c1.45-.52,6.34-1.6,6.54-1.64l.19,0A2.7,2.7,0,0,1,44.67,24c.35.65,1.59,2.53,2,3.19.06.09.05.05.09.16a1.07,1.07,0,0,0,.75.22h.07c1.52,0,2.28,0,2.29,0a1.2,1.2,0,0,1,1.2,1.18l.25,14.75a1.2,1.2,0,0,1-1.18,1.22Zm0,0" transform="translate(0 -0.84)"/></g><path d="M49.8,98.7a16.86,16.86,0,0,1-11.49-5,1.2,1.2,0,1,1,1.7-1.7,14.67,14.67,0,0,0,8.75,4.19V94.1a1.2,1.2,0,1,1,2.4,0v3.4A1.2,1.2,0,0,1,50,98.7Zm0,0" transform="translate(0 -0.84)"/><path d="M47.06,92.35a1.16,1.16,0,0,1-.54-.13,10,10,0,0,1-4.12-3.8,1.2,1.2,0,0,1,2.11-1.14,7.69,7.69,0,0,0,3.08,2.8,1.2,1.2,0,0,1-.54,2.27Zm0,0" transform="translate(0 -0.84)"/><path d="M50,118c-.88,0-1.18-.8-1.32-1.18l-7-16.86A1.2,1.2,0,1,1,43.87,99l7,16.9a1.31,1.31,0,0,0,.06.15,1.21,1.21,0,0,1,.23.71A1.2,1.2,0,0,1,50,118Zm0,0" transform="translate(0 -0.84)"/><path d="M30,58.89a4.42,4.42,0,0,1-2.36-.69h0a4.09,4.09,0,0,1-1.45-5.59,3.81,3.81,0,0,1,2.6-1.71,4.43,4.43,0,0,1,5,3.34,3.81,3.81,0,0,1-.48,2.89A3.89,3.89,0,0,1,30,58.89ZM29,56.18a1.71,1.71,0,0,0,2.37-.34,1.41,1.41,0,0,0,.17-1.08,2,2,0,0,0-2.27-1.5,1.44,1.44,0,0,0-1,.63A1.71,1.71,0,0,0,29,56.18Zm0,0" transform="translate(0 -0.84)"/><path d="M33.82,60.37h-.09a1.2,1.2,0,0,1-1.11-1.29c.19-2.45-.29-4.21-1.42-5.25a5.79,5.79,0,0,0-4.34-1.11,1.2,1.2,0,0,1-.4-2.37c.16,0,3.81-.62,6.35,1.69,1.72,1.56,2.46,4,2.21,7.22a1.2,1.2,0,0,1-1.2,1.11Zm0,0" transform="translate(0 -0.84)"/><g class="cls-2"><path d="M34.06,27a1.2,1.2,0,0,1-1.15-.87c0-.15-4.3-14.75-12.34-21.83C19.39,3.39,19,2.48,19.39,1.66c.61-1.2,2.2-.86,3.9-.36.46.14,11.17,3.46,19.55,21.5a1.2,1.2,0,0,1-2.18,1c-6.34-13.64-14-18.37-16.9-19.73C31.28,12,35,24.89,35.21,25.47A1.2,1.2,0,0,1,34.39,27a1.23,1.23,0,0,1-.33,0Zm0,0" transform="translate(0 -0.84)"/><path d="M50,105.6a1.2,1.2,0,1,1,0-2.4,1.33,1.33,0,0,0,.66-.18l7.67-5.89C60.7,95,60.49,93,60.28,91a9.69,9.69,0,0,1-.08-2.22c.31-2.62,3.56-10.71,6.18-14.78a42.32,42.32,0,0,0,4.13-9.16c3.54-12,.26-19.17.23-19.24a1.2,1.2,0,0,1,1.2-1.71L73,44a1.13,1.13,0,0,1,.42-.08c1.53,0,2.63-1.51,3.9-3.23a25.41,25.41,0,0,1,1.93-2.4,45,45,0,0,1,5.79-4.93l.07,0a12.14,12.14,0,0,1,10.26-1.49,11.41,11.41,0,0,1,4.12,2.31,1.2,1.2,0,0,1,.29,1.3c-2.12,5.45-7.71,9-16.16,10.42a52.19,52.19,0,0,1-10.1.58c.89,3,2,9.67-.75,19.13a44.07,44.07,0,0,1-4.41,9.78C65.85,79.3,62.83,87,62.59,89.11a8.13,8.13,0,0,0,.08,1.68c.24,2.18.56,5.17-2.77,8.16l-.07.06-7.75,6a3.61,3.61,0,0,1-2.08.65ZM86.43,35.35A42.58,42.58,0,0,0,81,40a24.18,24.18,0,0,0-1.74,2.18c-.48.65-1,1.3-1.48,1.9,6.38-.27,16.11-1.84,19.42-8.65-1.51-1.07-5.55-3.18-10.8,0Zm0,0" transform="translate(0 -0.84)"/><path d="M98.75,36a1.2,1.2,0,0,1-1.16-.9c-.07-.27-1.82-6.34-10.68-6.19-.13,0-7.7-.12-13.18,4.24l-.13.09a7.1,7.1,0,0,1-4.68.94c-.27,0-3-.61-3.23-2.79l-.84-4a2.55,2.55,0,0,0-1.17-.82c-1.05-.37-4.63-1.2-6.1-1.52a.3.3,0,0,0-.18.16c-.44.84-1.84,2.93-2.13,3.35a3.21,3.21,0,0,1-3,1.48c-1.46,0-2.2,0-2.21,0a1.2,1.2,0,0,1,0-2.4s.76,0,2.29.05c.64,0,.84-.24.86-.27l0-.05,0,0c.45-.67,1.69-2.54,2-3.19a2.7,2.7,0,0,1,2.48-1.43l.19,0c.21,0,5.09,1.13,6.55,1.64a4.64,4.64,0,0,1,2.57,2.09,1.19,1.19,0,0,1,.1.29l.9,4.3a1.09,1.09,0,0,1,0,.16c0,.24.77.61,1.32.7a4.77,4.77,0,0,0,2.91-.61c6.16-4.86,14.26-4.71,14.61-4.7,5.56-.11,8.79,2,10.52,3.84a10.34,10.34,0,0,1,2.48,4.15A1.2,1.2,0,0,1,99,35.95a1.22,1.22,0,0,1-.29,0Zm0,0" transform="translate(0 -0.84)"/></g><path d="M50.16,98.7h-.22a1.2,1.2,0,0,1-1.15-1.2V94.1a1.2,1.2,0,0,1,2.4,0v2.13A14.71,14.71,0,0,0,59.95,92a1.2,1.2,0,0,1,1.7,1.7,16.84,16.84,0,0,1-11.48,5Zm0,0" transform="translate(0 -0.84)"/><path d="M52.9,92.35a1.2,1.2,0,0,1-.54-2.27,7.76,7.76,0,0,0,3.08-2.8,1.2,1.2,0,0,1,2.11,1.14,10,10,0,0,1-4.12,3.8,1.16,1.16,0,0,1-.53.13Zm0,0" transform="translate(0 -0.84)"/><path d="M50,118a1.2,1.2,0,0,1-1.2-1.2,1.19,1.19,0,0,1,.23-.71l0-.11,7-16.94a1.2,1.2,0,1,1,2.22.92l-7,16.9A1.45,1.45,0,0,1,50,118Zm0,0" transform="translate(0 -0.84)"/><path d="M69.92,58.89a3.88,3.88,0,0,1-3.32-1.77,3.8,3.8,0,0,1-.48-2.89,4.44,4.44,0,0,1,5-3.34,3.8,3.8,0,0,1,2.59,1.71,4.09,4.09,0,0,1-1.45,5.59h0a4.42,4.42,0,0,1-2.36.69Zm.49-5.66a2,2,0,0,0-1.07.33,1.94,1.94,0,0,0-.88,1.2,1.43,1.43,0,0,0,.17,1.08,1.85,1.85,0,0,0,3.08-1.95,1.43,1.43,0,0,0-1-.63l-.31,0Zm0,0" transform="translate(0 -0.84)"/><path d="M66.14,60.37a1.2,1.2,0,0,1-1.2-1.11c-.25-3.22.5-5.65,2.21-7.21,2.54-2.31,6.2-1.72,6.35-1.69a1.2,1.2,0,0,1-.4,2.37,5.77,5.77,0,0,0-4.34,1.11c-1.13,1-1.61,2.8-1.42,5.25a1.2,1.2,0,0,1-1.11,1.29Zm0,0" transform="translate(0 -0.84)"/><path d="M65.89,27a1.26,1.26,0,0,1-.33,0,1.2,1.2,0,0,1-.82-1.48c.16-.58,3.94-13.52,11.41-21.38a23.8,23.8,0,0,0-4.84,3.17c-3.21,2.65-7.91,7.68-12,16.55a1.2,1.2,0,1,1-2.18-1c8.38-18,19.1-21.36,19.55-21.5,1.71-.5,3.3-.84,3.91.36.42.82,0,1.73-1.23,2.69-8,7-12.24,21.64-12.29,21.79a1.2,1.2,0,0,1-1.15.87Zm0,0" transform="translate(0 -0.84)"/></g></g></svg>