<svg xmlns="http://www.w3.org/2000/svg" xmlns:xlink="http://www.w3.org/1999/xlink" viewBox="0 0 130.07 98.31"><defs><style>.cls-1{fill:none;}.cls-2{clip-path:url(#clip-path);}</style><clipPath id="clip-path" transform="translate(0 -0.69)"><rect class="cls-1" y="0.12" width="130.8" height="99.84"/></clipPath></defs><title>Ресурс 52</title><g id="Слой_2" data-name="Слой 2"><g id="Слой_1-2" data-name="Слой 1"><path d="M43.85,50.19A4.19,4.19,0,0,1,42,49.75a4.47,4.47,0,0,1-.44-.25,1.2,1.2,0,0,1,1.31-2l.2.11a1.72,1.72,0,0,0,2.26-.67,1.17,1.17,0,0,0,0-.79,1.93,1.93,0,0,0-.92-1.21c-.75-.37-1.32-.5-1.61-.34a1.2,1.2,0,1,1-1.16-2.1c1.55-.85,3.27,0,3.84.29a4.36,4.36,0,0,1,2.16,2.71,3.39,3.39,0,0,1-.28,2.71,4.13,4.13,0,0,1-3.5,2Zm0,0" transform="translate(0 -0.69)"/><path d="M48.25,51.35a1.2,1.2,0,0,1-1.17-.93,15.23,15.23,0,0,0-1.91-4.78,1.2,1.2,0,0,1,2-1.37,17.22,17.22,0,0,1,2.28,5.61,1.2,1.2,0,0,1-.9,1.44,1.24,1.24,0,0,1-.27,0Zm0,0" transform="translate(0 -0.69)"/><path d="M63.75,94c-4.91,0-10.37-7.16-11-8.06a1.2,1.2,0,1,1,1.93-1.43c2.18,2.94,6.39,7.17,9.13,7.09V87.94a1.2,1.2,0,1,1,2.4,0v4.61a1.19,1.19,0,0,1-.77,1.12,4.52,4.52,0,0,1-1.64.3Zm0,0" transform="translate(0 -0.69)"/><path d="M62.69,86.4a1.18,1.18,0,0,1-.77-.28L59,83.65a1.2,1.2,0,1,1,1.54-1.84l2.94,2.48a1.2,1.2,0,0,1-.77,2.12Zm0,0" transform="translate(0 -0.69)"/><path d="M56.3,89.11a1.2,1.2,0,0,1-1.19-1c0-.28-.89-6.93,2.64-11.12A9.46,9.46,0,0,1,65,73.7a1.2,1.2,0,1,1,.09,2.4,7.16,7.16,0,0,0-5.48,2.39c-2.84,3.37-2.11,9.2-2.1,9.26a1.2,1.2,0,0,1-1,1.35Zm0,0" transform="translate(0 -0.69)"/><path d="M73.79,89.11h-.16a1.2,1.2,0,0,1-1-1.35c0-.06.74-5.89-2.1-9.26A7.17,7.17,0,0,0,65,76.09a1.2,1.2,0,1,1,.09-2.4A9.48,9.48,0,0,1,72.34,77C75.87,81.14,75,87.79,75,88.07a1.2,1.2,0,0,1-1.19,1Zm0,0" transform="translate(0 -0.69)"/><path d="M64.69,99a4.84,4.84,0,0,1-2.19-.49,19.13,19.13,0,0,1-7.31-6.6c-4-5.79-3.31-10-3-11.55,0-.09,0-.17,0-.23-.4-1.24-3.59-8-6.49-14-5.52-11.63-6.71-23.36-3.39-33a1.2,1.2,0,0,1,1.3-.8c.06,0,6.63.86,11.37-3.4.37-.41,3.88-4.45,4.31-9.09a1.2,1.2,0,0,1,.93-1.06A24.2,24.2,0,0,1,65,18.22a1.2,1.2,0,1,1,0,2.4,20.79,20.79,0,0,0-3.38.31,20.8,20.8,0,0,1-4.85,9.64l-.07.07c-4.45,4-10.08,4.23-12.35,4.13-2.76,8.91-1.5,19.63,3.57,30.33C54.61,79,54.61,79.73,54.61,80a4.48,4.48,0,0,1-.09.73c-.23,1.31-.84,4.78,2.68,9.82a16.91,16.91,0,0,0,6.36,5.76l.08,0a3.12,3.12,0,0,0,2.42-.08,1.2,1.2,0,0,1,.88,2.23,6.11,6.11,0,0,1-2.25.44Zm0,0" transform="translate(0 -0.69)"/><path d="M29.61,68.08h-.06C12.7,67.19,0,52.93,0,34.9,0,16,14,.69,31.24.69a33.3,33.3,0,0,1,30.36,19,1.2,1.2,0,1,1-2.18,1A30.89,30.89,0,0,0,31.25,3.09C15.34,3.09,2.4,17.36,2.4,34.9c0,16.73,11.73,30,27.28,30.79a1.2,1.2,0,0,1-.06,2.4Zm0,0" transform="translate(0 -0.69)"/><path d="M30.26,68.13a1.2,1.2,0,0,1-.42-.07c-19.61-7.29-20-28.7-20-28.92C9.65,26.74,16,18.69,26.5,18.12c9-.48,16.45,5.7,18.16,15a1.2,1.2,0,1,1-2.36.43c-1.52-8.25-7.83-13.52-15.68-13.08C17.44,21,12.07,28,12.26,39.11c0,.82.38,20,18.42,26.7a1.2,1.2,0,0,1-.42,2.32Zm0,0" transform="translate(0 -0.69)"/><path d="M38.34,44.58c-5.76,0-17.09-1.14-20.3-9.75a1.21,1.21,0,0,1,.33-1.32,10.5,10.5,0,0,1,12.54-.45,21.53,21.53,0,0,1,4.36,3.65A22.56,22.56,0,0,1,37,39C38,40.47,39.1,42,40.25,42a1.14,1.14,0,0,1,.38.07l.86-.06a1.2,1.2,0,1,1,.25,2.39c-.2,0-1.5.14-3.4.14ZM20.64,34.81c2.74,5.64,10.43,7,15.67,7.29-.46-.57-.89-1.18-1.3-1.77a20.17,20.17,0,0,0-1.53-2,19,19,0,0,0-3.84-3.22,8.16,8.16,0,0,0-9-.29Zm0,0" transform="translate(0 -0.69)"/><path d="M19.11,35.4a1.11,1.11,0,0,1-.28,0,1.2,1.2,0,0,1-.89-1.44A9.77,9.77,0,0,1,20,30.13c1.47-1.67,4.22-3.63,9-3.55.7,0,4.91-.07,10.82,4.7a3.93,3.93,0,0,0,3.3.82,1.2,1.2,0,1,1,.69,2.3,6.29,6.29,0,0,1-5.52-1.27C32.81,28.71,29.17,29,29.14,29H29c-7.3-.14-8.7,5.45-8.71,5.5a1.2,1.2,0,0,1-1.17.93Zm0,0" transform="translate(0 -0.69)"/><path d="M1.59,40.88a1.2,1.2,0,0,1-1.2-1.19c-.2-24.06,18.19-28,18.38-28a17.42,17.42,0,0,1,13.72,2c9,5.61,12,18.36,12.08,18.9a1.2,1.2,0,0,1-2.34.53c0-.12-2.87-12.32-11-17.39A15.16,15.16,0,0,0,19.27,14c-.72.15-16.67,3.66-16.49,25.68A1.2,1.2,0,0,1,1.6,40.88Zm0,0" transform="translate(0 -0.69)"/><path d="M40.24,24.85a1.24,1.24,0,0,1-.39-.07,1.2,1.2,0,0,1-.74-1.53c0-.11,4.18-11.68,16.75-10.84a1.2,1.2,0,1,1-.16,2.4C45,14.1,41.52,23.64,41.37,24a1.2,1.2,0,0,1-1.13.81Zm0,0" transform="translate(0 -0.69)"/><path d="M33.55,16.59a1.15,1.15,0,0,1-.3,0,1.2,1.2,0,0,1-.86-1.46c0-.1,2.7-10.1,13.29-10.74a1.2,1.2,0,0,1,.14,2.39c-8.86.53-11.09,8.85-11.1,8.94a1.2,1.2,0,0,1-1.16.9Zm0,0" transform="translate(0 -0.69)"/><path d="M29.22,20.52a1.2,1.2,0,0,1-.87-.37,12.79,12.79,0,0,1-3.58-7.67C24.59,9.07,26,2.2,32.92.83a1.2,1.2,0,0,1,.47,2.36c-6.54,1.3-6.24,8.86-6.22,9.18a10.56,10.56,0,0,0,2.92,6.12,1.2,1.2,0,0,1-.87,2Zm0,0" transform="translate(0 -0.69)"/><path d="M22.73,20.72a1.18,1.18,0,0,1-.53-.12,12.48,12.48,0,0,1-6.57-7.15c0-.15-1.4-4.64.7-8.29a1.2,1.2,0,1,1,2.08,1.2c-1.59,2.75-.49,6.38-.48,6.41a10.09,10.09,0,0,0,5.34,5.68,1.2,1.2,0,0,1-.54,2.27Zm0,0" transform="translate(0 -0.69)"/><path d="M15.95,24.51l-.19,0a11.61,11.61,0,0,1-8.3-4.91,9.7,9.7,0,0,1-1.56-4,1.2,1.2,0,0,1,2.39-.26c0,.24.75,5.66,7.84,6.77a1.2,1.2,0,0,1-.18,2.39Zm0,0" transform="translate(0 -0.69)"/><g class="cls-2"><path d="M9.16,30.73c-5.13,0-6.92-2.65-7-2.79a1.2,1.2,0,0,1,2-1.32c.1.14,2,2.62,8.21,1.36a1.2,1.2,0,0,1,.48,2.35,18.49,18.49,0,0,1-3.68.4Zm0,0" transform="translate(0 -0.69)"/><path d="M5,39a9.21,9.21,0,0,1-4.34-1A1.2,1.2,0,0,1,1.88,36c.16.09,3.5,1.85,8.38-.8a1.2,1.2,0,1,1,1.15,2.11A13.26,13.26,0,0,1,5,39Zm0,0" transform="translate(0 -0.69)"/></g><path d="M4.44,46.93a6.43,6.43,0,0,1-1.72-.2,1.2,1.2,0,0,1,.67-2.3c.16,0,3.47.88,7.09-2.74a1.2,1.2,0,0,1,1.7,1.7,10.87,10.87,0,0,1-7.73,3.55Zm0,0" transform="translate(0 -0.69)"/><path d="M6.7,54.95a1.2,1.2,0,0,1-.15-2.39c.05,0,4.11-.56,5.12-3.35a1.2,1.2,0,1,1,2.26.82c-1.51,4.18-6.86,4.88-7.08,4.91Zm0,0" transform="translate(0 -0.69)"/><path d="M12.41,61.24a1.2,1.2,0,0,1-.3-2.36s2.77-.74,3-2.74a1.2,1.2,0,1,1,2.38.32c-.5,3.62-4.65,4.7-4.83,4.74a1.22,1.22,0,0,1-.29,0Zm0,0" transform="translate(0 -0.69)"/><path d="M86.23,50.2a4.16,4.16,0,0,1-3.51-2,3.39,3.39,0,0,1-.28-2.71,4.33,4.33,0,0,1,2.16-2.71c.57-.28,2.29-1.14,3.84-.29a1.2,1.2,0,1,1-1.16,2.1c-.28-.15-.85,0-1.6.34a1.91,1.91,0,0,0-.92,1.21,1.17,1.17,0,0,0,0,.79A1.72,1.72,0,0,0,87,47.6l.2-.12a1.2,1.2,0,0,1,1.31,2,4.52,4.52,0,0,1-.45.26,4.13,4.13,0,0,1-1.84.44Zm0,0" transform="translate(0 -0.69)"/><path d="M81.82,51.35a1.24,1.24,0,0,1-.27,0,1.2,1.2,0,0,1-.9-1.44,17.29,17.29,0,0,1,2.28-5.61,1.2,1.2,0,0,1,2,1.38A15.15,15.15,0,0,0,83,50.42a1.2,1.2,0,0,1-1.17.93Zm0,0" transform="translate(0 -0.69)"/><path d="M66.32,94a4.52,4.52,0,0,1-1.64-.3,1.19,1.19,0,0,1-.77-1.12V87.94a1.2,1.2,0,1,1,2.4,0v3.64h0c2.76,0,6.91-4.17,9.08-7.09a1.2,1.2,0,1,1,1.93,1.43c-.67.9-6.14,8.06-11,8.06Zm0,0" transform="translate(0 -0.69)"/><path d="M67.38,86.4a1.18,1.18,0,0,1-.92-.43,1.19,1.19,0,0,1,.14-1.69l2.95-2.48a1.2,1.2,0,0,1,1.54,1.84l-2.95,2.47a1.17,1.17,0,0,1-.77.28Zm0,0" transform="translate(0 -0.69)"/><path d="M65.38,99a6.11,6.11,0,0,1-2.25-.44A1.2,1.2,0,1,1,64,96.32a3.08,3.08,0,0,0,2.43.07l.08,0a16.81,16.81,0,0,0,6.32-5.69c3.56-5.11,3-8.58,2.72-9.89a4.38,4.38,0,0,1-.09-.73c0-.32,0-1.08,6.74-15,5.07-10.69,6.32-21.41,3.57-30.32-2.28.11-7.9-.09-12.36-4.12l-.07-.07a20.79,20.79,0,0,1-4.86-9.64,20.8,20.8,0,0,0-3.38-.31,1.2,1.2,0,1,1,0-2.4,24.25,24.25,0,0,1,4.73.52,1.2,1.2,0,0,1,.93,1.06c.43,4.66,3.94,8.68,4.31,9.09,4.75,4.26,11.31,3.41,11.38,3.4a1.21,1.21,0,0,1,1.3.8c3.33,9.68,2.13,21.4-3.38,33-2.91,6-6.1,12.78-6.5,14l0,.23c.28,1.58,1,5.76-3.08,11.61a19,19,0,0,1-7.27,6.54,4.79,4.79,0,0,1-2.19.49Zm0,0" transform="translate(0 -0.69)"/><path d="M100.45,68.08a1.2,1.2,0,0,1-.06-2.4c15.55-.82,27.28-14.05,27.28-30.79,0-17.54-12.94-31.8-28.85-31.8A30.87,30.87,0,0,0,70.64,20.76a1.2,1.2,0,1,1-2.18-1A33.29,33.29,0,0,1,98.82.69C116.05.69,130.07,16,130.07,34.9c0,18-12.7,32.3-29.55,33.19Zm0,0" transform="translate(0 -0.69)"/><path d="M99.81,68.13a1.2,1.2,0,0,1-.42-2.32c18-6.71,18.41-25.87,18.42-26.68C118,28,112.63,21,103.44,20.52c-7.86-.43-14.16,4.84-15.67,13.09a1.2,1.2,0,0,1-2.36-.43c1.71-9.34,9.18-15.52,18.16-15,10.48.56,16.86,8.62,16.64,21,0,.2-.37,21.61-20,28.91a1.21,1.21,0,0,1-.42.07Zm0,0" transform="translate(0 -0.69)"/><path d="M91.73,44.58c-1.9,0-3.2-.12-3.4-.14A1.2,1.2,0,0,1,88.58,42l.86.06a1.14,1.14,0,0,1,.38-.07C91,42,92,40.47,93.09,39A22.71,22.71,0,0,1,94.8,36.7,21.63,21.63,0,0,1,99.19,33a10.49,10.49,0,0,1,12.52.46,1.21,1.21,0,0,1,.33,1.32c-3.21,8.61-14.54,9.75-20.3,9.75Zm13.5-11a8.82,8.82,0,0,0-4.78,1.5,19.14,19.14,0,0,0-3.87,3.23,20.58,20.58,0,0,0-1.53,2c-.41.59-.83,1.2-1.29,1.77,5.23-.27,12.93-1.66,15.67-7.29a8,8,0,0,0-4.2-1.22Zm0,0" transform="translate(0 -0.69)"/><path d="M111,35.4a1.19,1.19,0,0,1-1.16-.92c-.06-.24-1.48-5.65-8.72-5.51h-.15s-3.66-.25-9.16,4.18a6.3,6.3,0,0,1-5.49,1.25,1.2,1.2,0,0,1,.69-2.3,3.93,3.93,0,0,0,3.27-.8c5.95-4.79,10.14-4.77,10.85-4.72,4.73-.08,7.48,1.89,9,3.55a9.75,9.75,0,0,1,2.09,3.8,1.2,1.2,0,0,1-.89,1.44,1.06,1.06,0,0,1-.27,0Zm0,0" transform="translate(0 -0.69)"/><path d="M128.48,40.88h0a1.2,1.2,0,0,1-1.19-1.21C127.47,17.58,111,14,110.84,14a15.18,15.18,0,0,0-12,1.66c-8.14,5.07-11,17.27-11,17.39a1.2,1.2,0,1,1-2.34-.53c.12-.54,3.08-13.29,12.08-18.9a17.46,17.46,0,0,1,13.76-2c.14,0,18.54,4,18.33,28a1.2,1.2,0,0,1-1.2,1.19Zm0,0" transform="translate(0 -0.69)"/><path d="M89.83,24.85A1.2,1.2,0,0,1,88.69,24c-.14-.41-3.62-10-14.33-9.23a1.2,1.2,0,0,1-.16-2.4C86.77,11.58,90.92,23.14,91,23.26a1.2,1.2,0,0,1-.74,1.53,1.25,1.25,0,0,1-.4.07Zm0,0" transform="translate(0 -0.69)"/><path d="M96.52,16.59a1.2,1.2,0,0,1-1.16-.9c-.09-.35-2.3-8.41-11.11-8.94a1.2,1.2,0,1,1,.15-2.39C95,5,97.66,15,97.68,15.09a1.2,1.2,0,0,1-.87,1.46,1.3,1.3,0,0,1-.3,0Zm0,0" transform="translate(0 -0.69)"/><path d="M100.85,20.52a1.18,1.18,0,0,1-.83-.33,1.2,1.2,0,0,1,0-1.7,10.43,10.43,0,0,0,2.92-6.11c0-.34.32-7.9-6.22-9.2A1.2,1.2,0,0,1,97.14.83c6.88,1.37,8.34,8.23,8.14,11.67a12.76,12.76,0,0,1-3.57,7.65,1.2,1.2,0,0,1-.87.37Zm0,0" transform="translate(0 -0.69)"/><path d="M107.34,20.72a1.2,1.2,0,0,1-.54-2.27,10.13,10.13,0,0,0,5.33-5.64c0-.07,1.1-3.72-.47-6.44a1.2,1.2,0,0,1,2.08-1.2c2.1,3.65.75,8.13.69,8.32a12.47,12.47,0,0,1-6.56,7.11,1.18,1.18,0,0,1-.53.13Zm0,0" transform="translate(0 -0.69)"/><path d="M114.12,24.51a1.2,1.2,0,0,1-.18-2.39c7.17-1.12,7.84-6.7,7.85-6.76a1.2,1.2,0,1,1,2.38.25,9.64,9.64,0,0,1-1.56,4,11.62,11.62,0,0,1-8.3,4.91l-.19,0Zm0,0" transform="translate(0 -0.69)"/><path d="M120.91,30.73a18.49,18.49,0,0,1-3.68-.4,1.2,1.2,0,1,1,.48-2.35c6.26,1.27,8.13-1.26,8.21-1.37a1.21,1.21,0,0,1,1.66-.31,1.19,1.19,0,0,1,.34,1.63c-.09.14-1.87,2.79-7,2.79Zm0,0" transform="translate(0 -0.69)"/><path d="M125,39a13.26,13.26,0,0,1-6.38-1.74,1.2,1.2,0,0,1,1.15-2.11c4.89,2.66,8.24.87,8.38.8a1.2,1.2,0,0,1,1.19,2.08A9.2,9.2,0,0,1,125,39Zm0,0" transform="translate(0 -0.69)"/><path d="M125.63,46.93a10.87,10.87,0,0,1-7.73-3.55,1.2,1.2,0,1,1,1.7-1.7c3.68,3.68,7,2.75,7.07,2.75a1.2,1.2,0,0,1,.68,2.3,6.67,6.67,0,0,1-1.72.2Zm0,0" transform="translate(0 -0.69)"/><path d="M123.37,54.95h-.14c-.23,0-5.57-.73-7.08-4.91a1.2,1.2,0,1,1,2.25-.82c1,2.77,5.08,3.34,5.12,3.35a1.2,1.2,0,0,1-.15,2.39Zm0,0" transform="translate(0 -0.69)"/><path d="M117.67,61.24a1.23,1.23,0,0,1-.29,0c-.18,0-4.34-1.12-4.83-4.74a1.2,1.2,0,1,1,2.38-.32c.28,2,3,2.73,3,2.73a1.2,1.2,0,0,1-.29,2.37Zm0,0" transform="translate(0 -0.69)"/></g></g></svg>