<svg xmlns="http://www.w3.org/2000/svg" xmlns:xlink="http://www.w3.org/1999/xlink" viewBox="0 0 115.7 95.45"><defs><style>.cls-1{fill:none;}.cls-2{clip-path:url(#clip-path);}</style><clipPath id="clip-path" transform="translate(0 -0.55)"><rect class="cls-1" width="115.92" height="96.96"/></clipPath></defs><title>Ресурс 43</title><g id="Слой_2" data-name="Слой 2"><g id="Слой_1-2" data-name="Слой 1"><path d="M76.83,50.4a4.67,4.67,0,1,1,4.67-4.66,4.67,4.67,0,0,1-4.67,4.66Zm0-6.93a2.27,2.27,0,1,0,2.27,2.27,2.27,2.27,0,0,0-2.27-2.27Zm0,0" transform="translate(0 -0.55)"/><path d="M66.3,60.67l-.25,0a1.2,1.2,0,0,1-.92-1.43C69,41.39,76.08,41,76.86,41.07a1.2,1.2,0,0,1,0,2.4h0c-.16,0-5.94.52-9.36,16.25a1.2,1.2,0,0,1-1.17.95Zm0,0" transform="translate(0 -0.55)"/><path d="M62.32,63.13h0a1.2,1.2,0,0,1-1.18-1.21c0-.29.68-29.55,24-42.14a1.2,1.2,0,1,1,1.14,2.11C64.16,33.82,63.52,61.67,63.52,61.95a1.2,1.2,0,0,1-1.2,1.18Zm0,0" transform="translate(0 -0.55)"/><g class="cls-2"><path d="M67.51,80.93h-.05c-9.09,0-10.84-5.42-10.91-5.65a1.17,1.17,0,0,1-.05-.35v-3.7a1.21,1.21,0,0,1,.57-1,1.19,1.19,0,0,1,1-.1.84.84,0,0,0,.36-.16c.21-.14.7-.55,1.22-1,2.83-2.32,4-3.14,4.88-3.14a1.2,1.2,0,0,1,.14,2.39,27.73,27.73,0,0,0-3.5,2.6c-.61.5-1.09.89-1.38,1.09a3.5,3.5,0,0,1-.93.46v2.34c.3.69,2,3.82,8.58,3.82a8,8,0,0,0,6.88-4.06c.26-.5.56-1.14.9-1.88C78.12,66.42,84.83,52,102.1,55.66a1.2,1.2,0,1,1-.5,2.35c-15.4-3.28-21.32,9.47-24.16,15.6-.36.77-.67,1.45-1,2-2.72,5.19-8.32,5.34-9,5.34Zm0,0" transform="translate(0 -0.55)"/><path d="M57.63,96a1.2,1.2,0,0,1,0-2.4c16.47-.35,26.08-4.14,26.18-4.18l.08,0c8.24-2.65,13.82-7.3,16.59-13.82a20.53,20.53,0,0,0,1.71-8.92,1,1,0,0,1,0-.11c0-14.45-8.68-19.59-9.67-20.13a1.84,1.84,0,0,1-.91-1.76A35.67,35.67,0,0,0,88.48,26.1a1.21,1.21,0,0,1,0-1.12c6.94-13.49,6.84-18.77,6.17-20.71-.29-.82-.67-1-.69-1s0,0-.09,0c-4.32-2-12.05,7-14.42,10.28a1.2,1.2,0,0,1-1.5.38C66.6,8.37,58.12,9.32,58,9.33a1.2,1.2,0,1,1-.29-2.38c.36,0,8.83-1,20.35,4.35a51.38,51.38,0,0,1,5.17-5.75C87.87,1.2,91.76-.33,94.8,1a3.6,3.6,0,0,1,2,2.07c1.69,3.91-.28,11.47-5.87,22.45a38.25,38.25,0,0,1,3.13,19c2.12,1.29,10.54,7.32,10.56,22,.07,1.25.74,18.49-19.93,25.17-.81.32-10.42,4-27,4.34Zm0,0" transform="translate(0 -0.55)"/></g><path d="M89.54,26.73a1.2,1.2,0,0,1-1-.56c-.89-1.42-3.54-5.33-5-6.36a1.21,1.21,0,0,1-.45-1.33C83.63,16.67,88.6.82,95.52,1.85a1.2,1.2,0,0,1-.35,2.38c-3.63-.53-7.83,8.88-9.55,14.21a41.33,41.33,0,0,1,4.94,6.46,1.2,1.2,0,0,1-.37,1.65,1.18,1.18,0,0,1-.64.19Zm0,0" transform="translate(0 -0.55)"/><path d="M105.77,86.13a1.2,1.2,0,0,1-.66-.2C90.67,76.42,67.25,74.55,67,74.53a1.2,1.2,0,0,1-.29-2.33c1.16-.39,28.6-9.67,47.77-9.87h0a1.2,1.2,0,0,1,0,2.4c-13.83.14-32.64,5.3-41.71,8.05,8,1.15,22.95,4.11,33.63,11.15a1.2,1.2,0,0,1-.66,2.2Zm0,0" transform="translate(0 -0.55)"/><path d="M58,84.21l-.42,0a1.2,1.2,0,0,1,.19-2.39A6.21,6.21,0,0,0,63,79.38a1.2,1.2,0,0,1,2,1.37,8.52,8.52,0,0,1-7,3.46Zm0,0" transform="translate(0 -0.55)"/><path d="M38.87,50.4a4.67,4.67,0,1,1,4.66-4.66,4.67,4.67,0,0,1-4.66,4.66Zm0-6.93a2.27,2.27,0,1,0,2.27,2.27,2.27,2.27,0,0,0-2.27-2.27Zm0,0" transform="translate(0 -0.55)"/><path d="M49.4,60.67a1.2,1.2,0,0,1-1.17-.95C44.78,43.81,39,43.47,38.9,43.47a1.18,1.18,0,0,1-1.23-1.17,1.2,1.2,0,0,1,1.17-1.23c.79,0,7.87.32,11.74,18.14a1.2,1.2,0,0,1-.92,1.43,1.19,1.19,0,0,1-.26,0Zm0,0" transform="translate(0 -0.55)"/><path d="M53.38,63.13A1.19,1.19,0,0,1,52.18,62c0-.28-.67-28.15-22.76-40.06a1.2,1.2,0,0,1,1.14-2.11c23.35,12.59,24,41.85,24,42.14a1.2,1.2,0,0,1-1.18,1.21Zm0,0" transform="translate(0 -0.55)"/><g class="cls-2"><path d="M48.17,80.93c-.62,0-6.23-.15-8.95-5.34-.29-.54-.6-1.21-1-2C35.42,67.48,29.5,54.72,14.1,58a1.2,1.2,0,1,1-.5-2.35c17.27-3.68,24,10.77,26.84,16.93.34.74.64,1.38.9,1.88a8,8,0,0,0,6.86,4.06c6.59,0,8.3-3.13,8.6-3.82V72.38a3.38,3.38,0,0,1-.93-.46c-.29-.2-.77-.59-1.38-1.09a27.06,27.06,0,0,0-3.5-2.6,1.2,1.2,0,0,1,.14-2.39c.89,0,2.06.82,4.88,3.14.52.43,1,.83,1.22,1a.81.81,0,0,0,.36.16,1.2,1.2,0,0,1,1.61,1.13v3.7a1.14,1.14,0,0,1-.05.35c-.07.23-1.82,5.65-10.92,5.65Zm0,0" transform="translate(0 -0.55)"/><path d="M58.07,96C41.44,96,32,92.07,31,91.65,10.39,85,11.05,67.74,11.13,66.49c0-6.75,1.74-12.47,5.15-17a19.66,19.66,0,0,1,5.4-5,38.24,38.24,0,0,1,3.13-19C19.23,14.55,17.25,7,18.94,3.09A3.6,3.6,0,0,1,20.9,1c3-1.34,6.93.18,11.53,4.52A52.35,52.35,0,0,1,37.6,11.3C49.12,6,57.59,6.9,57.95,6.94a1.2,1.2,0,1,1-.29,2.38c-.13,0-8.64-.92-19.91,4.55a1.2,1.2,0,0,1-1.5-.37C33.89,10.22,26.16,1.27,21.84,3.23c-.1,0-.05,0-.16.06a1.93,1.93,0,0,0-.62,1c-.68,1.94-.77,7.21,6.17,20.71a1.21,1.21,0,0,1,0,1.11,35.81,35.81,0,0,0-3.11,18.52,1.84,1.84,0,0,1-.86,1.76c-1,.56-9.71,5.71-9.71,20.16a1,1,0,0,1,0,.11c-.06.66-1.19,16.47,18.3,22.75l.13,0c.09,0,9.51,4.16,26.11,4.16a1.2,1.2,0,1,1,0,2.4Zm0,0" transform="translate(0 -0.55)"/><path d="M26.16,26.73a1.2,1.2,0,0,1-1-1.84,41.08,41.08,0,0,1,4.94-6.46c-1.72-5.32-5.91-14.73-9.55-14.21a1.2,1.2,0,1,1-.35-2.37c6.92-1,11.89,14.83,12.43,16.64a1.21,1.21,0,0,1-.45,1.33c-1.45,1-4.09,4.95-5,6.36a1.21,1.21,0,0,1-1,.56Zm0,0" transform="translate(0 -0.55)"/><path d="M9.93,86.13a1.2,1.2,0,0,1-.66-2.2c10.67-7,25.6-10,33.63-11.14C33.83,70,15,64.88,1.19,64.73A1.2,1.2,0,0,1,0,63.52a1.23,1.23,0,0,1,1.21-1.19c19.18.2,46.62,9.47,47.78,9.86a1.2,1.2,0,0,1-.3,2.33c-.23,0-23.67,1.9-38.1,11.41a1.19,1.19,0,0,1-.66.2Zm0,0" transform="translate(0 -0.55)"/></g><path d="M57.68,84.21a8.52,8.52,0,0,1-7-3.46,1.2,1.2,0,1,1,2-1.37,6.2,6.2,0,0,0,5.25,2.42,1.2,1.2,0,0,1,.19,2.39l-.42,0Zm0,0" transform="translate(0 -0.55)"/></g></g></svg>