<svg xmlns="http://www.w3.org/2000/svg" xmlns:xlink="http://www.w3.org/1999/xlink" viewBox="0 0 89.3 98.08"><defs><style>.cls-1{fill:none;}.cls-2{clip-path:url(#clip-path);}</style><clipPath id="clip-path" transform="translate(0 -0.92)"><rect class="cls-1" y="0.12" width="90" height="99.84"/></clipPath></defs><title>Ресурс 45</title><g id="Слой_2" data-name="Слой 2"><g id="Слой_1-2" data-name="Слой 1"><path d="M30,67.63a6,6,0,1,1,6-6,6,6,0,0,1-6,6ZM30,58a3.6,3.6,0,1,0,3.6,3.6A3.62,3.62,0,0,0,30,58Zm0,0" transform="translate(0 -0.92)"/><path d="M33.66,65.69a1.19,1.19,0,0,1-.73-.25l-7.4-5.73A1.2,1.2,0,0,1,27,57.81l7.4,5.74a1.2,1.2,0,0,1-.74,2.15Zm0,0" transform="translate(0 -0.92)"/><path d="M28.2,54.63a1.2,1.2,0,0,1-.63-2.22c.36-.22,8.65-5.53,9-20.41a1.2,1.2,0,1,1,2.4.06c-.41,16.27-9.78,22.15-10.18,22.39a1.21,1.21,0,0,1-.62.18Zm0,0" transform="translate(0 -0.92)"/><path d="M16.27,30.73a3.8,3.8,0,1,1,3.8-3.8,3.81,3.81,0,0,1-3.8,3.8Zm0-5.2a1.4,1.4,0,1,0,1.4,1.4,1.4,1.4,0,0,0-1.4-1.4Zm0,0" transform="translate(0 -0.92)"/><g class="cls-2"><path d="M24.57,42.2a1.19,1.19,0,0,1-1.11-.75c-2.2-5.41-4.74-4.84-4.85-4.81l-.09,0-.08,0A9.88,9.88,0,0,1,6.62,26.33,9.87,9.87,0,0,1,23,19.61a1.2,1.2,0,1,1-1.59,1.8A7.47,7.47,0,0,0,9,26.5,7.47,7.47,0,0,0,18,34.33c.15,0,4.64-1.37,7.73,6.22A1.2,1.2,0,0,1,25,42.11a1.14,1.14,0,0,1-.45.09Zm0,0" transform="translate(0 -0.92)"/><path d="M7.34,61.69a1.19,1.19,0,0,1-1-.59c-8.63-14.48,3.9-28,4-28.11a1.2,1.2,0,0,1,1.75,1.65,27.55,27.55,0,0,0-4.82,7.83c-2.47,6.16-2.1,12,1.12,17.4a1.2,1.2,0,0,1-1,1.81Zm0,0" transform="translate(0 -0.92)"/></g><path d="M11.8,17.93a4.53,4.53,0,1,1,4.53-4.54,4.54,4.54,0,0,1-4.53,4.54Zm0-6.67a2.13,2.13,0,1,0,2.13,2.13,2.14,2.14,0,0,0-2.13-2.13Zm0,0" transform="translate(0 -0.92)"/><path d="M9.93,22.21a1.27,1.27,0,0,1-.31,0,13.11,13.11,0,0,1-4.05-1.9,10.5,10.5,0,0,1-4.5-6.71A9.19,9.19,0,0,1,2.62,6.64C5.51,2.52,11.12,2,15.94,5.32a13.16,13.16,0,0,1,3.18,3.13C22,6,30.26.28,44.66,1a1.2,1.2,0,0,1-.12,2.4C27.79,2.56,19.85,11,19.77,11.13a1.2,1.2,0,0,1-1.95-.24c-.11-.21-.23-.42-.37-.63a10.63,10.63,0,0,0-2.88-3C10.82,4.69,6.71,5,4.58,8a6.8,6.8,0,0,0-1.16,5.12A8.11,8.11,0,0,0,6.93,18.3a10.67,10.67,0,0,0,3.31,1.55,1.2,1.2,0,0,1,.85,1.47,1.21,1.21,0,0,1-1.16.89Zm0,0" transform="translate(0 -0.92)"/><path d="M19.5,94.25c-.38,0-.64,0-.75,0A18.8,18.8,0,1,1,22,56.9a1.2,1.2,0,1,1-.4,2.36A17,17,0,0,0,18.8,59a16.4,16.4,0,0,0,0,32.8h.09A21.66,21.66,0,0,0,31,88.32c6.37-4.18,9.79-5,13.56-5a1.2,1.2,0,0,1,0,2.4c-2.75,0-5.77.35-12.24,4.6A24.12,24.12,0,0,1,19.5,94.25Zm0,0" transform="translate(0 -0.92)"/><path d="M24.1,72.23a1.5,1.5,0,1,1-1.5-1.5,1.5,1.5,0,0,1,1.5,1.5Zm0,0" transform="translate(0 -0.92)"/><path d="M14.2,74a1.5,1.5,0,1,1-1.5-1.5A1.5,1.5,0,0,1,14.2,74Zm0,0" transform="translate(0 -0.92)"/><path d="M19.1,82.53A1.5,1.5,0,1,1,17.6,81a1.5,1.5,0,0,1,1.5,1.5Zm0,0" transform="translate(0 -0.92)"/><path d="M31,79.73a1.5,1.5,0,1,1-1.5-1.5,1.5,1.5,0,0,1,1.5,1.5Zm0,0" transform="translate(0 -0.92)"/><path d="M26.84,99c-4,0-6.87-3.05-8-5.09A1.2,1.2,0,0,1,21,92.75c.13.23,3.15,5.51,8.41,3.3.83-.48,7.85-4.37,15.29-4a1.2,1.2,0,1,1-.11,2.4c-7.07-.33-14,3.69-14,3.74l-.14.07a8.94,8.94,0,0,1-3.54.77Zm0,0" transform="translate(0 -0.92)"/><path d="M44.6,80.83a1.2,1.2,0,0,1-1.2-1.2V68.36a1.2,1.2,0,0,1,2.4,0V79.63a1.2,1.2,0,0,1-1.2,1.2Zm0,0" transform="translate(0 -0.92)"/><path d="M59.3,67.63a6,6,0,1,1,6-6,6,6,0,0,1-6,6Zm0-9.6a3.61,3.61,0,1,0,2.64,1.16A3.61,3.61,0,0,0,59.3,58Zm0,0" transform="translate(0 -0.92)"/><path d="M55.64,65.69a1.2,1.2,0,0,1-.74-2.15l7.4-5.74a1.2,1.2,0,0,1,1.47,1.9l-7.4,5.73a1.19,1.19,0,0,1-.73.25Zm0,0" transform="translate(0 -0.92)"/><path d="M61.1,54.63a1.18,1.18,0,0,1-.62-.18c-.4-.24-9.76-6.12-10.18-22.39A1.2,1.2,0,1,1,52.7,32c.38,15,8.94,20.36,9,20.41a1.2,1.2,0,0,1-.62,2.23Zm0,0" transform="translate(0 -0.92)"/><path d="M73,30.73a3.8,3.8,0,1,1,3.8-3.8,3.81,3.81,0,0,1-3.8,3.8Zm0-5.2a1.4,1.4,0,1,0,1.4,1.4,1.4,1.4,0,0,0-1.4-1.4Zm0,0" transform="translate(0 -0.92)"/><g class="cls-2"><path d="M64.73,42.2a1.22,1.22,0,0,1-.45-.09,1.2,1.2,0,0,1-.66-1.57c2.88-7.09,7-6.4,7.68-6.23h.05a7.34,7.34,0,0,0,2,.13,7.47,7.47,0,0,0-1-14.89,7.37,7.37,0,0,0-4.41,1.84,1.2,1.2,0,0,1-1.59-1.8,9.87,9.87,0,0,1,16.36,6.71A9.88,9.88,0,0,1,70.86,36.69l-.2-.05c-.08,0-2.62-.59-4.82,4.82a1.2,1.2,0,0,1-1.11.75Zm0,0" transform="translate(0 -0.92)"/><path d="M82,61.69a1.22,1.22,0,0,1-.61-.17,1.2,1.2,0,0,1-.41-1.64c3.21-5.39,3.58-11.24,1.11-17.4a27.73,27.73,0,0,0-4.82-7.83A1.2,1.2,0,0,1,79,33c.13.13,12.66,13.63,4,28.11a1.2,1.2,0,0,1-1,.59Zm0,0" transform="translate(0 -0.92)"/></g><path d="M77.6,18a4.53,4.53,0,1,1,4.53-4.53A4.54,4.54,0,0,1,77.6,18Zm0-6.67a2.13,2.13,0,1,0,2.13,2.13,2.14,2.14,0,0,0-2.13-2.13Zm0,0" transform="translate(0 -0.92)"/><path d="M79.37,22.21a1.2,1.2,0,0,1-.31-2.36,10.68,10.68,0,0,0,3.31-1.55,8.09,8.09,0,0,0,3.51-5.16A6.79,6.79,0,0,0,84.72,8c-2.13-3-6.24-3.33-10-.73a10.66,10.66,0,0,0-2.88,3c-.13.21-.25.42-.37.63a1.2,1.2,0,0,1-1.95.24,22.76,22.76,0,0,0-6.06-4.18,37.47,37.47,0,0,0-18.7-3.56A1.2,1.2,0,1,1,44.64,1C59,.28,67.32,6,70.17,8.45a13.15,13.15,0,0,1,3.18-3.12C78.18,2,83.79,2.52,86.68,6.64a9.18,9.18,0,0,1,1.56,6.92,10.47,10.47,0,0,1-4.5,6.71,13.05,13.05,0,0,1-4.05,1.9,1.27,1.27,0,0,1-.32,0Zm0,0" transform="translate(0 -0.92)"/><path d="M69.8,94.25a24.12,24.12,0,0,1-12.86-3.92c-6.48-4.25-9.48-4.6-12.24-4.6a1.2,1.2,0,0,1,0-2.4c3.77,0,7.19.82,13.56,5a21.48,21.48,0,0,0,12.15,3.51h.09a16.4,16.4,0,1,0,0-32.8,16.94,16.94,0,0,0-2.78.23,1.2,1.2,0,1,1-.41-2.36,18.8,18.8,0,1,1,3.23,37.33c-.11,0-.37,0-.75,0Zm0,0" transform="translate(0 -0.92)"/><path d="M68.2,72.23a1.5,1.5,0,1,1-1.5-1.5,1.5,1.5,0,0,1,1.5,1.5Zm0,0" transform="translate(0 -0.92)"/><path d="M78.1,74a1.5,1.5,0,1,1-1.5-1.5A1.5,1.5,0,0,1,78.1,74Zm0,0" transform="translate(0 -0.92)"/><path d="M73.2,82.53A1.5,1.5,0,1,1,71.7,81a1.5,1.5,0,0,1,1.5,1.5Zm0,0" transform="translate(0 -0.92)"/><path d="M61.3,79.73a1.5,1.5,0,1,1-1.5-1.5,1.5,1.5,0,0,1,1.5,1.5Zm0,0" transform="translate(0 -0.92)"/><path d="M62.46,99a8.87,8.87,0,0,1-3.54-.77l-.13-.07c-.07,0-7-4.07-14-3.74a1.2,1.2,0,0,1-.11-2.4c7.46-.35,14.46,3.55,15.3,4,5.3,2.22,8.29-3.07,8.41-3.3a1.2,1.2,0,1,1,2.1,1.16c-1.12,2-4,5.09-8,5.09Zm0,0" transform="translate(0 -0.92)"/><path d="M12.6,19.83a1.24,1.24,0,0,1-.44-.08,1.2,1.2,0,0,1-.68-1.56c1.79-4.52,6.41-8.6,6.61-8.77a1.2,1.2,0,0,1,1.58,1.81s-4.39,3.87-6,7.84a1.19,1.19,0,0,1-1.11.76Zm0,0" transform="translate(0 -0.92)"/><path d="M77,20.43a1.21,1.21,0,0,1-1.11-.74c-1.59-3.83-6.58-8.75-6.63-8.8a1.2,1.2,0,1,1,1.68-1.71c.22.21,5.39,5.32,7.17,9.6a1.2,1.2,0,0,1-.65,1.57,1.22,1.22,0,0,1-.46.09Zm0,0" transform="translate(0 -0.92)"/></g></g></svg>