<svg xmlns="http://www.w3.org/2000/svg" xmlns:xlink="http://www.w3.org/1999/xlink" viewBox="0 0 102.56 87.27"><defs><style>.cls-1{fill:none;}.cls-2{clip-path:url(#clip-path);}</style><clipPath id="clip-path" transform="translate(0 -0.73)"><rect class="cls-1" y="0.16" width="102.96" height="88.8"/></clipPath></defs><title>Ресурс 47</title><g id="Слой_2" data-name="Слой 2"><g id="Слой_1-2" data-name="Слой 1"><g class="cls-2"><path d="M51.25,88C29.09,88,11.07,71.31,11.07,50.8s18-37.2,40.18-37.2S91.43,30.29,91.43,50.8,73.4,88,51.25,88Zm0-72C30.42,16,13.47,31.61,13.47,50.8S30.42,85.6,51.25,85.6,89,70,89,50.8,72.08,16,51.25,16Zm0,0" transform="translate(0 -0.73)"/><path d="M13.95,34.33a13.67,13.67,0,0,1-9.82-3.9C-2.09,24.21-1.2,14.31,6.23,6.88s17.43-8.21,23.54-2.1c3.73,3.73,4.88,9.39,3.06,15.15a1.2,1.2,0,1,1-2.29-.72c1.54-4.89.62-9.65-2.46-12.73C22.93,1.33,14.27,2.23,7.93,8.58S.59,23.5,5.82,28.73c2.77,2.77,6.89,3.81,11.31,2.85a1.2,1.2,0,1,1,.51,2.34,17.55,17.55,0,0,1-3.69.41Zm0,0" transform="translate(0 -0.73)"/></g><path d="M18.05,32.19h0a9.35,9.35,0,0,1-6.45-2.66c-4.7-4.69-4.38-11.56.77-16.71A12.66,12.66,0,0,1,20.59,9a10.81,10.81,0,0,1,8.29,3.23,9.67,9.67,0,0,1,2.56,8.25,1.2,1.2,0,0,1-2.38-.32,7.22,7.22,0,0,0-1.88-6.23,8.47,8.47,0,0,0-6.47-2.54A10.3,10.3,0,0,0,14,14.51c-4.87,4.86-3.89,10.19-.77,13.32a6.88,6.88,0,0,0,4.82,2,1.2,1.2,0,0,1,0,2.4Zm0,0" transform="translate(0 -0.73)"/><path d="M34.91,51.53a3.47,3.47,0,1,1,3.47-3.47,3.47,3.47,0,0,1-3.47,3.47Zm0-4.54A1.07,1.07,0,1,0,36,48.06,1.07,1.07,0,0,0,34.91,47Zm0,0" transform="translate(0 -0.73)"/><path d="M47.65,73.87a4.61,4.61,0,0,1-4.73-4.7,4.47,4.47,0,0,1,1-3,1.2,1.2,0,0,1,1.88,1.49,2.1,2.1,0,0,0-.45,1.47,2.22,2.22,0,0,0,2.34,2.3,2.25,2.25,0,0,0,2.43-2.23,1.2,1.2,0,1,1,2.4,0,4.63,4.63,0,0,1-4.83,4.63Zm0,0" transform="translate(0 -0.73)"/><g class="cls-2"><path d="M40.15,85.7h0a1.2,1.2,0,0,1-1.19-1.21c.15-13.78,5.42-19.3,5.65-19.53a1.2,1.2,0,0,1,1.71,1.67c-.06.07-4.82,5.19-5,17.88a1.2,1.2,0,0,1-1.2,1.19Zm0,0" transform="translate(0 -0.73)"/><path d="M88.62,34.33a17.35,17.35,0,0,1-3.69-.41,1.2,1.2,0,1,1,.51-2.34c4.41,1,8.53-.08,11.3-2.85C102,23.49,101.09,15,94.64,8.57s-15-7.25-20.15-2.1c-3.09,3.09-4,7.85-2.47,12.73a1.2,1.2,0,0,1-2.29.72c-1.81-5.76-.67-11.42,3.06-15.15C78.9-1.34,89-.43,96.34,6.88s8.31,17.33,2.1,23.54a13.65,13.65,0,0,1-9.82,3.91Zm0,0" transform="translate(0 -0.73)"/></g><path d="M84.52,32.19a1.2,1.2,0,0,1,0-2.4,6.9,6.9,0,0,0,4.82-2c3.12-3.12,4.09-8.45-.77-13.32a10.3,10.3,0,0,0-6.68-3.14,8.45,8.45,0,0,0-6.47,2.54,7.21,7.21,0,0,0-1.88,6.23,1.2,1.2,0,1,1-2.38.32,9.67,9.67,0,0,1,2.56-8.25A10.83,10.83,0,0,1,82,9a12.68,12.68,0,0,1,8.26,3.84c5.14,5.14,5.46,12,.77,16.71a9.37,9.37,0,0,1-6.46,2.66Zm0,0" transform="translate(0 -0.73)"/><path d="M67.65,51.53a3.47,3.47,0,1,1,3.47-3.47,3.47,3.47,0,0,1-3.47,3.47Zm0-4.54a1.07,1.07,0,1,0,1.07,1.07A1.07,1.07,0,0,0,67.65,47Zm0,0" transform="translate(0 -0.73)"/><path d="M54.91,73.87a4.63,4.63,0,0,1-4.83-4.63,1.2,1.2,0,1,1,2.4,0,2.25,2.25,0,0,0,2.43,2.23,2.22,2.22,0,0,0,2.34-2.3,2.08,2.08,0,0,0-.45-1.47,1.2,1.2,0,0,1,1.88-1.49,4.46,4.46,0,0,1,1,3,4.61,4.61,0,0,1-4.73,4.7Zm0,0" transform="translate(0 -0.73)"/><path d="M62.41,85.7a1.2,1.2,0,0,1-1.2-1.19c-.14-12.68-5-17.6-5.1-17.65a1.2,1.2,0,0,1,1.66-1.73c.23.22,5.69,5.56,5.84,19.36a1.2,1.2,0,0,1-1.19,1.21Zm0,0" transform="translate(0 -0.73)"/><path d="M51.31,69.33A7,7,0,0,1,45.93,67c-2.06-2.33-2.89-6.11-2.34-10.65.75-6.08,3.21-13.18,7.73-13.18,3.73,0,6.66,5.09,7.46,13,.48,4.72-.44,8.74-2.53,11a6.47,6.47,0,0,1-4.94,2.18Zm0-23.8c-2.23,0-4.58,4.87-5.34,11.08-.46,3.79.17,7,1.75,8.77a4.58,4.58,0,0,0,3.59,1.55,4.07,4.07,0,0,0,3.15-1.39c1.6-1.77,2.32-5.21,1.92-9.19-.63-6.17-2.81-10.82-5.08-10.82Zm0,0" transform="translate(0 -0.73)"/></g></g></svg>