<svg xmlns="http://www.w3.org/2000/svg" xmlns:xlink="http://www.w3.org/1999/xlink" viewBox="0 0 84.33 105.56"><defs><style>.cls-1{fill:none;}.cls-2{clip-path:url(#clip-path);}</style><clipPath id="clip-path" transform="translate(0 -0.44)"><rect class="cls-1" y="0.16" width="84.96" height="106.8"/></clipPath></defs><title>Ресурс 51</title><g id="Слой_2" data-name="Слой 2"><g id="Слой_1-2" data-name="Слой 1"><path d="M42.61,79.86h-.47a3,3,0,0,1-2.6-1.65c-.92-1.77-1.78-1.85-2.54-1.93a3.58,3.58,0,0,1-.84-.15,2.39,2.39,0,0,1-1.5-2.38,2.47,2.47,0,0,1,1.41-2.14c1.57-.84,4.47-1,6.06-1h0a1.2,1.2,0,0,1,0,2.4,13,13,0,0,0-5,.72l-.08,0-.07.07v0l.18,0c.94.09,2.9.29,4.44,3.24a.6.6,0,0,0,.46.33h.47a1.2,1.2,0,0,1,0,2.4Zm0,0" transform="translate(0 -0.44)"/><g class="cls-2"><path d="M28.3,60.66a4.33,4.33,0,0,1,0-8.66h0a4.33,4.33,0,0,1,0,8.66Zm0-6.26a1.93,1.93,0,1,0,1.93,1.93A1.92,1.92,0,0,0,28.3,54.4Zm0,0" transform="translate(0 -0.44)"/><path d="M22.24,106a1.55,1.55,0,0,1-1.18-.59,1.17,1.17,0,0,1-.22-.43c-2.3-8.18-10.17-17-10.25-17.12-5.15-5.7-8.69-11.64-9.23-22.07C.8,54.92,7.63,44.3,9.62,41.43-1.26,26.53.1,13.84.17,13.3a1.2,1.2,0,0,1,2.26-.4c2,4,6,6.06,13.87,7.27a14.59,14.59,0,0,1,10.3,6.9,35.91,35.91,0,0,1,13.58-3.6h2a1.2,1.2,0,0,1,0,2.4H40.31a33,33,0,0,0-13.63,3.87A1.2,1.2,0,0,1,25,29.16a12.15,12.15,0,0,0-9.08-6.62c-5-.78-10-2-13.35-5.39.36,4.76,2.1,13.74,9.49,23.55a1.2,1.2,0,0,1,0,1.45c-.09.12-8.91,12-8.31,23.52.51,9.72,3.81,15.27,8.62,20.59.32.36,7.33,8.25,10.23,16.4A49,49,0,0,0,32,86a1.2,1.2,0,1,1,2.28.75,51.17,51.17,0,0,1-10.67,18.35l-.19.21a1.41,1.41,0,0,1-1.08.64Zm0,0" transform="translate(0 -0.44)"/></g><path d="M35.41,85.26l-.59,0a7.75,7.75,0,0,1-7.53-8.41,8.51,8.51,0,0,1,2-4.94,16.09,16.09,0,0,0,3.37-10.4c0-6.46-3.94-7-4-7A1.2,1.2,0,0,1,29,52.1c.06,0,6.09.83,6.09,9.39a18.29,18.29,0,0,1-3.93,11.93,6.2,6.2,0,0,0-1.48,3.48,5.33,5.33,0,0,0,5.26,5.95c2.89.16,5.94-1.27,6.13-4.31a1.2,1.2,0,1,1,2.39.15c-.24,3.82-3.66,6.57-8.07,6.57Zm0,0" transform="translate(0 -0.44)"/><path d="M42.25,91.62c-4.09,0-7.13-1-9-3.07a7.21,7.21,0,0,1-2-5.05,1.2,1.2,0,0,1,2.4.16A4.77,4.77,0,0,0,35,86.94c1.43,1.51,3.87,2.27,7.24,2.27a1.2,1.2,0,0,1,0,2.4Zm0,0" transform="translate(0 -0.44)"/><path d="M22.22,105.2h-.09A1.2,1.2,0,0,1,21,103.91c.43-6-1.4-13.7-4.9-20.54-5.73-11.2-4.35-21.42-.64-26.16C20.46,50.83,28.27,52,28.6,52a1.2,1.2,0,0,1-.37,2.37c-.29,0-6.76-1-10.85,4.28-4.44,5.68-2.92,16.16.88,23.59,3.69,7.21,5.62,15.37,5.16,21.81a1.2,1.2,0,0,1-1.19,1.11Zm0,0" transform="translate(0 -0.44)"/><path d="M42.19,51.48a1.2,1.2,0,0,1-1.2-1.2v-18a1.2,1.2,0,0,1,2.4,0v18a1.2,1.2,0,0,1-1.2,1.2Zm0,0" transform="translate(0 -0.44)"/><path d="M34,52.87a1.19,1.19,0,0,1-.83-.33c-.08-.08-7.79-7.74,1.18-18.47a1.2,1.2,0,1,1,1.84,1.54c-7.5,9-1.61,15-1.35,15.21A1.2,1.2,0,0,1,34,52.87Zm0,0" transform="translate(0 -0.44)"/><g class="cls-2"><path d="M11.11,42.62a1.2,1.2,0,0,1-.95-1.94,59.33,59.33,0,0,1,8.45-8.75c-1.87-1.85-7-6.11-16.8-9.31a1.2,1.2,0,1,1,.75-2.28c13.58,4.43,18.6,10.77,18.8,11a1.2,1.2,0,0,1-.29,1.74c-4,2.61-9,9-9,9a1.2,1.2,0,0,1-.95.46Zm0,0" transform="translate(0 -0.44)"/><path d="M1.23,15A1.2,1.2,0,0,1,0,13.87,40.55,40.55,0,0,1,1.51,1.3,1.2,1.2,0,0,1,3.81,2,38.77,38.77,0,0,0,2.43,13.72,1.2,1.2,0,0,1,1.31,15Zm0,0" transform="translate(0 -0.44)"/></g><path d="M42.19,79.86h-.48a1.2,1.2,0,0,1,0-2.4h.48a.59.59,0,0,0,.44-.3c1.56-3,3.52-3.17,4.46-3.27l.17,0v0a.3.3,0,0,0-.09-.07,12.88,12.88,0,0,0-5-.75,1.2,1.2,0,0,1,0-2.4h0c1.59,0,4.49.16,6.06,1a2.5,2.5,0,0,1,1.42,2.17,2.38,2.38,0,0,1-1.5,2.34,3.57,3.57,0,0,1-.84.15c-.75.07-1.61.16-2.55,2a3,3,0,0,1-2.58,1.62Zm0,0" transform="translate(0 -0.44)"/><g class="cls-2"><path d="M56,60.66A4.33,4.33,0,0,1,56,52h0a4.33,4.33,0,0,1,0,8.66Zm0-6.26h0a1.93,1.93,0,1,0,1.29.49A1.93,1.93,0,0,0,56,54.4Zm0,0" transform="translate(0 -0.44)"/><path d="M62.09,106H62a1.42,1.42,0,0,1-1.08-.63l-.19-.21A51.12,51.12,0,0,1,50.05,86.8a1.2,1.2,0,1,1,2.28-.75,49,49,0,0,0,9.38,16.61c2.91-8.15,9.91-16,10.23-16.4,4.81-5.33,8.11-10.87,8.62-20.59.6-11.58-8.22-23.4-8.3-23.52a1.19,1.19,0,0,1,0-1.44c7.42-9.85,9.15-18.81,9.5-23.56-3.35,3.38-8.33,4.63-13.36,5.4a12.26,12.26,0,0,0-9.08,6.62,1.2,1.2,0,0,1-1.68.58A33,33,0,0,0,44,25.87H42.18a1.2,1.2,0,0,1,0-2.4h2a35.91,35.91,0,0,1,13.58,3.6A14.59,14.59,0,0,1,68,20.17C75.85,19,79.87,16.85,81.9,12.9a1.2,1.2,0,0,1,2.26.4c.07.54,1.43,13.23-9.45,28.13,2,2.86,8.82,13.49,8.26,24.36-.54,10.43-4.08,16.37-9.24,22.07-.07.08-7.94,8.95-10.24,17.12a1.17,1.17,0,0,1-.22.43,1.56,1.56,0,0,1-1.18.59Zm0,0" transform="translate(0 -0.44)"/></g><path d="M48.92,85.26c-4.41,0-7.83-2.75-8.07-6.57a1.2,1.2,0,1,1,2.4-.15c.19,3,3.23,4.46,6.13,4.31a5.32,5.32,0,0,0,5.27-5.9,6.22,6.22,0,0,0-1.47-3.5,18.3,18.3,0,0,1-3.94-11.95c0-4.38,1.59-6.68,2.93-7.85a6.26,6.26,0,0,1,3.16-1.54,1.2,1.2,0,0,1,.3,2.38c-.19,0-4,.67-4,7A16.1,16.1,0,0,0,55,71.87a8.57,8.57,0,0,1,2.06,5,7.75,7.75,0,0,1-7.53,8.38Zm0,0" transform="translate(0 -0.44)"/><path d="M42.08,91.62a1.2,1.2,0,1,1,0-2.4c3.4,0,5.84-.78,7.27-2.3a4.84,4.84,0,0,0,1.31-3.25,1.2,1.2,0,1,1,2.39-.16,7.21,7.21,0,0,1-1.95,5.05c-1.9,2-4.94,3.07-9,3.07Zm0,0" transform="translate(0 -0.44)"/><path d="M62.11,105.2a1.2,1.2,0,0,1-1.19-1.11c-.46-6.44,1.47-14.59,5.16-21.81,3.8-7.43,5.32-17.91.88-23.59-4.1-5.24-10.58-4.32-10.86-4.28A1.2,1.2,0,0,1,55.73,52c.33-.05,8.14-1.2,13.12,5.17,3.71,4.75,5.1,15-.64,26.16-3.5,6.84-5.33,14.52-4.9,20.54a1.2,1.2,0,0,1-1.11,1.28Zm0,0" transform="translate(0 -0.44)"/><path d="M50.37,52.88a1.2,1.2,0,0,1-.84-2.06c.26-.25,6.14-6.23-1.35-15.21A1.2,1.2,0,1,1,50,34.07c9,10.73,1.26,18.39,1.18,18.47a1.19,1.19,0,0,1-.83.34Zm0,0" transform="translate(0 -0.44)"/><path d="M73.22,42.62a1.2,1.2,0,0,1-.95-.46c-.05-.07-5.06-6.43-9-9A1.2,1.2,0,0,1,63,31.38c.21-.26,5.23-6.61,18.81-11a1.2,1.2,0,1,1,.75,2.28c-9.86,3.22-14.95,7.46-16.8,9.31a59,59,0,0,1,8.45,8.75,1.2,1.2,0,0,1-.94,1.94Zm0,0" transform="translate(0 -0.44)"/><path d="M83.1,15H83a1.2,1.2,0,0,1-1.12-1.27A39,39,0,0,0,80.52,2a1.2,1.2,0,1,1,2.3-.68,40.67,40.67,0,0,1,1.47,12.57A1.2,1.2,0,0,1,83.1,15Zm0,0" transform="translate(0 -0.44)"/></g></g></svg>