<svg xmlns="http://www.w3.org/2000/svg" xmlns:xlink="http://www.w3.org/1999/xlink" viewBox="0 0 102.15 90.66"><defs><style>.cls-1{fill:none;}.cls-2{clip-path:url(#clip-path);}</style><clipPath id="clip-path" transform="translate(0 -0.34)"><rect class="cls-1" y="0.04" width="102.96" height="91.92"/></clipPath></defs><title>Ресурс 40</title><g id="Слой_2" data-name="Слой 2"><g id="Слой_1-2" data-name="Слой 1"><g class="cls-2"><path d="M51.46,91h-.78l-.25,0A20.29,20.29,0,0,1,43,88C32,81.57,25.45,69.78,21.88,61A91.39,91.39,0,0,1,17,45a11.51,11.51,0,0,1-6.95-.2c-4-1.23-11.19-7.16-9.88-21C1.59,8.65,9.78,2.12,13.92.79c4.52-1.46,7.43,1,9,2.26l.26.22c1.37,1.12,8.35,11.14,11,14.95a18.81,18.81,0,0,1,6.37-3,6.9,6.9,0,0,0-3.06-4,1.2,1.2,0,0,1-.4-.34A1.53,1.53,0,0,1,37,9.23c.57-.93,1.83-1.1,4.66-.61,3.7.64,6.41,3.2,8.38,5.07l.93.86a15.47,15.47,0,0,1,9.6-5.93c2.84-.48,4.1-.32,4.66.61a1.52,1.52,0,0,1-.1,1.7,1.27,1.27,0,0,1-.4.34,6.92,6.92,0,0,0-3.07,4,19,19,0,0,1,6.37,3C70.62,14.41,77.6,4.39,79,3.27l.26-.22c1.57-1.3,4.48-3.72,9-2.26,4.13,1.33,12.33,7.86,13.76,23,1.31,13.82-5.87,19.76-9.88,21a11.51,11.51,0,0,1-6.95.2,91,91,0,0,1-4.89,16C76.7,69.78,70.13,81.57,59.13,88A20.35,20.35,0,0,1,51.72,91a1.13,1.13,0,0,1-.25,0Zm-.65-2.4h.52a17.8,17.8,0,0,0,6.4-2.51l.13-.08C77.93,74.23,83,43.39,83.08,43.08a1.2,1.2,0,0,1,.69-.91,1.21,1.21,0,0,1,1.13.07c2.65,1.66,6.38.31,6.41.29s9.74-3.11,8.29-18.5c-1.22-12.91-7.91-19.62-12.11-21C84.23,2,82.23,3.69,80.77,4.9l-.28.23c-.89.74-6.45,8.53-11.24,15.48a1.18,1.18,0,0,1-.83.51,1.19,1.19,0,0,1-.93-.27A16.52,16.52,0,0,0,60,17.39a1.19,1.19,0,0,1-1-1.37,11.15,11.15,0,0,1,2.39-5.1l-.4.07a12.78,12.78,0,0,0-8.43,5.54,1.24,1.24,0,0,1-.25.31,1.79,1.79,0,0,1-2.34,0c-.5-.41-1-.91-1.57-1.42C46.5,13.68,44.2,11.49,41.21,11l-.4-.07A11.2,11.2,0,0,1,43.2,16a1.22,1.22,0,0,1-.23.91,1.19,1.19,0,0,1-.81.47,16.4,16.4,0,0,0-7.5,3.45,1.19,1.19,0,0,1-1.77-.23c-4.79-7-10.35-14.74-11.24-15.48l-.28-.23C19.92,3.69,17.91,2,14.65,3.08,10.45,4.43,3.76,11.13,2.55,24c-1.45,15.39,8.12,18.44,8.21,18.47l.08,0s3.76,1.36,6.41-.29a1.2,1.2,0,0,1,1.82.83c.05.31,5.16,31.17,25.22,42.93l.13.09a17.86,17.86,0,0,0,6.39,2.5Zm0,0" transform="translate(0 -0.34)"/></g><path d="M51.17,89.77H51a5.56,5.56,0,0,1-1.75-.35c-7.89-2.25-12.93-12.53-13.14-13-3.13-6.36,1.06-9.65,4.12-12l.4-.32c.3-.23.54-.44.74-.62a38.07,38.07,0,0,1-6.59-.65c-6.44-.63-11.29-5.62-11.29-11.64a11.28,11.28,0,0,1,19.77-7.36c.37.35,1.55,1.67,3.56,5.7,1.69,3.39,2.64,3.36,3.83,3.33h1c1.19,0,2.13.06,3.83-3.33,2-4,3.19-5.35,3.56-5.7a11.28,11.28,0,0,1,19.77,7.36c0,6-4.84,11-11.29,11.64a37.24,37.24,0,0,1-6.59.65c.2.18.45.39.74.62l.4.32c3.06,2.39,7.25,5.68,4.12,12.05-.21.43-5.26,10.71-13.14,13a5.6,5.6,0,0,1-1.75.35Zm-1.09-2.59a3.24,3.24,0,0,0,1,.19,3.33,3.33,0,0,0,1-.2l.14-.05C59.18,85.19,63.95,75.49,64,75.4c2.28-4.63-.37-6.71-3.44-9.11L60.15,66c-2-1.59-2.75-2.68-2.49-3.74A1.62,1.62,0,0,1,58.91,61a1.32,1.32,0,0,1,.32,0,33.64,33.64,0,0,0,7.84-.56l.13,0c5.23-.49,9.18-4.47,9.18-9.26a8.88,8.88,0,0,0-15.6-5.74.94.94,0,0,1-.14.14s-1,1-3,5c-2.2,4.4-4,4.71-6,4.66h-.86c-2,0-3.84-.26-6-4.66-2-4-3.06-5-3.07-5l-.11-.12a8.88,8.88,0,0,0-15.6,5.74c0,4.79,3.95,8.77,9.18,9.26l.13,0A33.8,33.8,0,0,0,43,61a1.32,1.32,0,0,1,.32,0,1.62,1.62,0,0,1,1.25,1.2c.25,1.06-.47,2.15-2.5,3.74l-.41.32c-3.07,2.4-5.71,4.48-3.44,9.1.05.1,4.83,9.8,11.7,11.73l.15.05Zm0,0" transform="translate(0 -0.34)"/><path d="M35,55a4.13,4.13,0,1,1,4.13-4.14A4.14,4.14,0,0,1,35,55Zm0-5.87a1.73,1.73,0,1,0,1.73,1.73A1.73,1.73,0,0,0,35,49.14Zm0,0" transform="translate(0 -0.34)"/><path d="M68.15,55a4.13,4.13,0,1,1,4.13-4.13A4.14,4.14,0,0,1,68.15,55Zm0-5.87a1.73,1.73,0,1,0,1.73,1.73,1.73,1.73,0,0,0-1.73-1.73Zm0,0" transform="translate(0 -0.34)"/><path d="M18.19,39.27c-.93,0-6.7-.18-10-4.57C5.59,31.16,5.36,26,7.54,19.3c.52-1.46,3.21-8.56,6.26-10.13a5.35,5.35,0,0,1,3.64-.87,4.62,4.62,0,0,1,3,2l8.92,12.11a1.2,1.2,0,0,1-.22,1.66c-.08.06-7.7,6.13-9.71,14.28a1.2,1.2,0,0,1-1.13.91ZM16.68,10.63a2.85,2.85,0,0,0-1.57.55l-.18.11c-1.62.77-4,5.61-5.12,8.79-1.91,5.86-1.8,10.3.33,13.18s5.6,3.43,7.23,3.57c2-6.83,7.29-12,9.41-13.88L18.52,11.71a2.21,2.21,0,0,0-1.84-1.08Zm0,0" transform="translate(0 -0.34)"/><path d="M82.49,39.27h-.12a1.2,1.2,0,0,1-1.13-.91c-2-8.17-9.63-14.22-9.71-14.28a1.2,1.2,0,0,1-.23-1.66l8.93-12.13a4.6,4.6,0,0,1,3-2,5.36,5.36,0,0,1,3.64.87c3.05,1.57,5.74,8.68,6.25,10.1,2.19,6.72,2,11.9-.68,15.43-3.27,4.39-9,4.57-10,4.57ZM73.9,22.94c2.12,1.87,7.38,7,9.41,13.88,1.63-.15,5.17-.79,7.23-3.57s2.24-7.32.32-13.21c-1.14-3.15-3.49-8-5.11-8.75l-.19-.11a2.26,2.26,0,0,0-3.38.52Zm0,0" transform="translate(0 -0.34)"/><path d="M52.17,79.6h-2c-3.11,0-7.53-3.39-7.53-6.57,0-3,2.17-4.77,5.66-4.77H54c3.39,0,5.66,2,5.66,4.9v.07c0,3.16-4.38,6.37-7.53,6.37ZM48.3,70.67c-1.49,0-3.27.4-3.27,2.3,0,1.7,3.12,4.23,5.13,4.23h2c1.9,0,5.13-2.25,5.13-4v-.07c0-2.32-2.5-2.5-3.27-2.5Zm0,0" transform="translate(0 -0.34)"/><path d="M45.89,30.53A1.93,1.93,0,1,1,44,28.6a1.94,1.94,0,0,1,1.93,1.93Zm0,0" transform="translate(0 -0.34)"/><path d="M59.29,30.53a1.93,1.93,0,1,1-1.93-1.93,1.94,1.94,0,0,1,1.93,1.93Zm0,0" transform="translate(0 -0.34)"/><path d="M72.09,34.6a1.93,1.93,0,1,1-1.93-1.93,1.94,1.94,0,0,1,1.93,1.93Zm0,0" transform="translate(0 -0.34)"/><path d="M32.89,34.6A1.93,1.93,0,1,1,31,32.67a1.94,1.94,0,0,1,1.93,1.93Zm0,0" transform="translate(0 -0.34)"/><path d="M49,76.63a1.15,1.15,0,0,1-.32,0,1.2,1.2,0,0,1-.84-1.46,1.06,1.06,0,0,0-.06-.68.79.79,0,0,0-.5-.25l-1.69-.14a1.2,1.2,0,0,1,.2-2.39l1.75.15.11,0a3,3,0,0,1,2.16,1.35,3.44,3.44,0,0,1,.34,2.58,1.2,1.2,0,0,1-1.16.88Zm0,0" transform="translate(0 -0.34)"/><path d="M53.24,76.63a1.19,1.19,0,0,1-1.15-.87,3.41,3.41,0,0,1,.34-2.58,3,3,0,0,1,2.16-1.35l.1,0,1.75-.15a1.2,1.2,0,0,1,.21,2.39L55,74.2a.8.8,0,0,0-.5.25,1.11,1.11,0,0,0-.06.66,1.19,1.19,0,0,1-1.16,1.52Zm0,0" transform="translate(0 -0.34)"/></g></g></svg>