<svg xmlns="http://www.w3.org/2000/svg" viewBox="0 0 95.6 86.08"><title>Ресурс 34</title><g id="Слой_2" data-name="Слой 2"><g id="Слой_1-2" data-name="Слой 1"><path d="M47.73,87c-7.53,0-11.16-4.11-11.31-4.28-6.32-8.38-11.1-8.52-11.29-8.52h0c-8.37,0-9.89,7.88-9.95,8.21a1.21,1.21,0,0,1-2,.68C8.35,78.7,5,71.3,3.22,61.07A82.49,82.49,0,0,1,2,47.11,44,44,0,0,1,12.07,19.05a1.2,1.2,0,0,1,1.86,1.52A41.66,41.66,0,0,0,4.4,47.13c0,.25-.23,22.41,9,32.8,1.16-3,4.22-8.13,11.62-8.13.2,0,6-.18,13.2,9.37.31.34,3.32,3.42,9.47,3.42a1.2,1.2,0,0,1,0,2.4Zm0,0" transform="translate(0 -0.92)"/><path d="M17.48,16.26a1.2,1.2,0,0,1-.81-2.08A45.84,45.84,0,0,1,47.7,2a1.2,1.2,0,0,1,0,2.4A43.42,43.42,0,0,0,18.29,16a1.19,1.19,0,0,1-.81.31Zm0,0" transform="translate(0 -0.92)"/><path d="M27.6,45.26a9.47,9.47,0,1,1,9.46-9.46,9.48,9.48,0,0,1-9.46,9.46Zm0-16.53a7.07,7.07,0,1,0,7.07,7.07,7.07,7.07,0,0,0-7.07-7.07Zm0,0" transform="translate(0 -0.92)"/><path d="M27.47,52.13A16.33,16.33,0,0,1,18,22.5a1.2,1.2,0,0,1,1.39,2A13.94,13.94,0,1,0,40.83,39.76a1.2,1.2,0,1,1,2.3.68A16.42,16.42,0,0,1,27.47,52.13Zm0,0" transform="translate(0 -0.92)"/><path d="M29.52,35.8a2.05,2.05,0,1,1-2.05-2.05,2.05,2.05,0,0,1,2.05,2.05Zm0,0" transform="translate(0 -0.92)"/><path d="M47.8,62.1a1.21,1.21,0,0,1-1.11-.73,64.77,64.77,0,0,1-4.31-16.21c-.13-2.47.44-4.32,1.68-5.55a5.24,5.24,0,0,1,3.81-1.47A1.2,1.2,0,0,1,49,39.35V60.9a1.2,1.2,0,0,1-1,1.18l-.24,0ZM46.6,40.78a2.56,2.56,0,0,0-.87.57,4.69,4.69,0,0,0-1,3.63,65.15,65.15,0,0,0,1.83,8.82Zm0,0" transform="translate(0 -0.92)"/><path d="M47.52,70.37c-1.14,0-3.1-1-6.11-5.36-1-1.45-2-2.21-3-2.3-2-.18-4.36,2-6.59,4.21l-2.71,2.44a1.21,1.21,0,0,1-1.17.25C27.74,69.56,12,64.25,9.48,47.17A29,29,0,0,1,16.7,23.41,1.2,1.2,0,0,1,18.5,25a27.08,27.08,0,0,0-6.66,21.76c2,13.79,13.35,19.19,16.16,20.33l2.13-1.91c2.59-2.59,5.41-5.15,8.46-4.86,1.78.17,3.39,1.29,4.79,3.34,2.57,3.76,3.9,4.24,4.13,4.3a1.2,1.2,0,0,1,.67,2.29,1.75,1.75,0,0,1-.67.13Zm0,0" transform="translate(0 -0.92)"/><path d="M43.6,44.07h0a1.2,1.2,0,0,1-1.11-.86c0-.11-3.09-10.25-10.74-13.71-1.93-.88-3.81-1.52-5.8-2.21C19.5,25.06,12.87,22.76,4.3,13,3.86,12.46.17,8,0,5a1.46,1.46,0,0,1,0-.19s0-.08,0-.12A3.78,3.78,0,0,1,6.43,2a1.13,1.13,0,0,1,.29.29l.17.24.05.09C8.54,4.87,17.2,16.35,29,20.88c14,5.38,14.72,9.64,16.52,19.95a1.2,1.2,0,0,1-.06.63l-.7,1.83a1.2,1.2,0,0,1-1.12.77ZM2.42,5.11c.24,1.68,2.36,4.72,3.7,6.3C14.26,20.7,20.58,22.89,26.69,25c2,.68,4,1.38,6,2.3,4.64,2.09,7.72,6.17,9.61,9.58-1.45-6.84-3.52-9.66-14.21-13.77C15.7,18.34,6.66,6.36,5,4l-.06-.08,0,0-.07-.07a1.36,1.36,0,0,0-1-.47A1.39,1.39,0,0,0,2.4,4.74l0,.11a1.39,1.39,0,0,1,0,.26Zm0,0" transform="translate(0 -0.92)"/><path d="M47.87,87a1.2,1.2,0,0,1,0-2.4c6.16,0,9.16-3.09,9.47-3.43,7.22-9.56,13-9.38,13.25-9.37h0C78,71.77,81,76.92,82.16,79.9c9.28-10.4,9-32.55,9-32.78a41.66,41.66,0,0,0-9.47-26.51,1.2,1.2,0,0,1,1.86-1.51,44,44,0,0,1,10,28c0,1,.28,25.58-11.2,36a1.2,1.2,0,0,1-2-.69c-.06-.33-1.57-8.2-9.88-8.2-.08,0-5,0-11.31,8.45C59,82.86,55.39,87,47.87,87Zm0,0" transform="translate(0 -0.92)"/><path d="M78,16.11a1.19,1.19,0,0,1-.81-.31A43.45,43.45,0,0,0,47.9,4.4a1.2,1.2,0,0,1,0-2.4A45.84,45.84,0,0,1,78.8,14a1.2,1.2,0,0,1-.8,2.09Zm0,0" transform="translate(0 -0.92)"/><path d="M68,45.23a9.47,9.47,0,1,1,9.47-9.47A9.48,9.48,0,0,1,68,45.23ZM68,28.7a7.07,7.07,0,1,0,7.07,7.07A7.08,7.08,0,0,0,68,28.7Zm0,0" transform="translate(0 -0.92)"/><path d="M68.13,52.1A16.43,16.43,0,0,1,52.47,40.41a1.2,1.2,0,0,1,2.3-.68A13.94,13.94,0,1,0,76.22,24.42a1.2,1.2,0,0,1,1.39-2A16.34,16.34,0,0,1,68.13,52.1Zm0,0" transform="translate(0 -0.92)"/><path d="M70.19,35.76a2.05,2.05,0,1,1-2.05-2.05,2.05,2.05,0,0,1,2.05,2.05Zm0,0" transform="translate(0 -0.92)"/><path d="M47.85,62.07l-.24,0a1.2,1.2,0,0,1-1-1.17l0-21.53a1.2,1.2,0,0,1,1.12-1.2,5,5,0,0,1,3.56,1.36A7.25,7.25,0,0,1,53.23,45s0,.09,0,.13A63.27,63.27,0,0,1,49,61.34a1.19,1.19,0,0,1-1.1.73ZM49,40.81l0,13a63.6,63.6,0,0,0,1.79-8.84,5,5,0,0,0-1.18-3.69,2.6,2.6,0,0,0-.64-.44Zm0,0" transform="translate(0 -0.92)"/><path d="M48.08,70.34a1.69,1.69,0,0,1-.68-.13,1.2,1.2,0,0,1,.67-2.29c.23-.06,1.56-.54,4.13-4.29,1.4-2.05,3-3.18,4.79-3.34,3-.29,5.88,2.27,8.52,4.9l2.08,1.88c2.86-1.12,14.13-6.39,16.15-20.27A27.11,27.11,0,0,0,77.1,25a1.2,1.2,0,1,1,1.8-1.59,29,29,0,0,1,7.21,23.84c-2.46,17-18.25,22.31-18.41,22.36a1.19,1.19,0,0,1-1.17-.25l-2.67-2.4c-2.18-2.18-4.62-4.44-6.64-4.25-1,.1-2,.85-3,2.3-3,4.41-5,5.36-6.11,5.36Zm0,0" transform="translate(0 -0.92)"/><path d="M52,44a1.2,1.2,0,0,1-1.12-.77l-.7-1.83a1.22,1.22,0,0,1-.06-.64c1.8-10.3,2.55-14.57,16.52-19.95,11.76-4.53,20.42-16,22-18.27l.2-.29A1.23,1.23,0,0,1,89.18,2,3.78,3.78,0,0,1,95.6,4.71s0,.09,0,.14a.82.82,0,0,1,0,.17c-.16,3-3.86,7.41-4.28,7.91C82.73,22.73,76.1,25,69.69,27.25c-2,.69-3.87,1.34-5.8,2.21-7.65,3.46-10.71,13.61-10.74,13.71A1.2,1.2,0,0,1,52,44ZM90.71,3.86l0,.07C88.94,6.33,79.91,18.31,67.5,23.09,56.82,27.2,54.74,30,53.29,36.86c1.89-3.41,5-7.49,9.62-9.59,2-.91,4-1.62,6-2.29C75,22.86,81.34,20.67,89.5,11.36c1.33-1.57,3.46-4.62,3.69-6.3a1,1,0,0,1,0-.22c0-.05,0-.11,0-.16a1.38,1.38,0,0,0-1.39-1.37,1.37,1.37,0,0,0-1,.47l-.07.07Zm0,0" transform="translate(0 -0.92)"/></g></g></svg>