<svg xmlns="http://www.w3.org/2000/svg" xmlns:xlink="http://www.w3.org/1999/xlink" viewBox="0 0 94.07 93.65"><defs><style>.cls-1{fill:none;}.cls-2{clip-path:url(#clip-path);}</style><clipPath id="clip-path" transform="translate(0 -0.35)"><rect class="cls-1" y="0.16" width="94.8" height="94.8"/></clipPath></defs><title>Ресурс 33</title><g id="Слой_2" data-name="Слой 2"><g id="Слой_1-2" data-name="Слой 1"><path d="M36.41,67.69a1.2,1.2,0,0,1-1.19-1.07,37.66,37.66,0,0,1,4.41-20.2,1.2,1.2,0,1,1,2.12,1.13A35.81,35.81,0,0,0,37.6,66.35a1.2,1.2,0,0,1-1.05,1.33Zm0,0" transform="translate(0 -0.35)"/><path d="M35.06,85.61c-.31,0-.62,0-.93,0a14,14,0,0,1-9-4A11.07,11.07,0,0,1,21.69,73c.42-6.79,4.2-8.84,7.29-9.36a1.2,1.2,0,0,1,.4,2.37c-3.34.56-5,2.83-5.29,7.14a8.72,8.72,0,0,0,2.69,6.75,11.59,11.59,0,0,0,7.5,3.27c5.94.36,11-3.52,11.36-8.67a1.2,1.2,0,1,1,2.4.15c-.39,6.2-6.12,10.95-13,10.95Zm0,0" transform="translate(0 -0.35)"/><path d="M47.64,75.79h-.79a4.15,4.15,0,0,1-3.61-2.3c-1.75-3.34-3.55-3.52-4.86-3.65a5.23,5.23,0,0,1-1.21-.21,3.2,3.2,0,0,1-2-3.18,3.34,3.34,0,0,1,1.93-2.87C40.23,61.91,46.9,62,47.64,62a1.2,1.2,0,0,1,1.17,1.22A1.18,1.18,0,0,1,47.6,64.4c-1.88,0-7.21.13-9.36,1.3l-.07,0s-.57.29-.57.75c0,0,0,.75.36.87a4.4,4.4,0,0,0,.66.09c1.54.15,4.4.43,6.77,5a1.8,1.8,0,0,0,1.47,1h.79a1.2,1.2,0,0,1,0,2.4Zm0,0" transform="translate(0 -0.35)"/><path d="M47.07,94C38.23,94,33,90.64,33,85a1.2,1.2,0,0,1,2.4,0c0,5.94,8.19,6.58,11.71,6.58a1.2,1.2,0,1,1,0,2.4Zm0,0" transform="translate(0 -0.35)"/><path d="M27.33,49.8a5.62,5.62,0,0,1,0-11.24h0a5.62,5.62,0,1,1,0,11.24Zm0-8.84a3.22,3.22,0,1,0,3.22,3.22A3.19,3.19,0,0,0,27.33,41Zm0,0" transform="translate(0 -0.35)"/><path d="M32.68,51.94a1.2,1.2,0,0,1-.91-.41l-2.58-3A1.2,1.2,0,1,1,31,47l2.59,3a1.2,1.2,0,0,1-.91,2Zm0,0" transform="translate(0 -0.35)"/><g class="cls-2"><path d="M24.19,42.18a1.2,1.2,0,0,1-.91-.41l-3-3.44a1.2,1.2,0,1,1,1.81-1.58l3,3.44A1.2,1.2,0,0,1,25,41.89a1.18,1.18,0,0,1-.79.29Zm0,0" transform="translate(0 -0.35)"/><path d="M8,24.21a1.22,1.22,0,0,1-.54-.13C1.18,20.87-1.67,13.53,1,7.37a11,11,0,0,1,6.35-6,12.33,12.33,0,0,1,9.81.84,14.82,14.82,0,0,1,5.07,4.23,1.2,1.2,0,0,1-1.91,1.45,12.38,12.38,0,0,0-4.25-3.54A10,10,0,0,0,8.17,3.6a8.59,8.59,0,0,0-5,4.73c-2.17,5,.19,11,5.37,13.61A1.2,1.2,0,0,1,8,24.21Zm0,0" transform="translate(0 -0.35)"/></g><path d="M12,19.41a1.21,1.21,0,0,1-.51-.12,6.5,6.5,0,0,1-3.61-4.62,5.11,5.11,0,0,1,4.82-6.15,6.45,6.45,0,0,1,5.5,2.71,1.2,1.2,0,1,1-1.95,1.4,4,4,0,0,0-3.42-1.72,2.78,2.78,0,0,0-2.07,1,2.83,2.83,0,0,0-.52,2.3,4.08,4.08,0,0,0,2.28,2.88A1.2,1.2,0,0,1,12,19.41Zm0,0" transform="translate(0 -0.35)"/><path d="M23,76.9a1.2,1.2,0,0,1-1.15-.84,36.64,36.64,0,0,0-7.59-12.73c-9.49-9.94-9.11-23.41-9.09-24,.34-22.59,18-39,41.89-39a1.2,1.2,0,1,1,0,2.4c-10.72,0-20.57,3.53-27.74,9.92-7.53,6.72-11.59,16-11.75,26.75,0,.15-.35,13.07,8.43,22.26a38.48,38.48,0,0,1,8.14,13.67,1.2,1.2,0,0,1-.79,1.5,1.15,1.15,0,0,1-.36.06Zm0,0" transform="translate(0 -0.35)"/><path d="M57.66,67.69h-.14a1.2,1.2,0,0,1-1.06-1.33,35.91,35.91,0,0,0-4.15-18.81,1.2,1.2,0,1,1,2.12-1.12,37.76,37.76,0,0,1,4.41,20.2,1.2,1.2,0,0,1-1.19,1.06Zm0,0" transform="translate(0 -0.35)"/><path d="M59,85.61c-6.86,0-12.59-4.75-13-10.94a1.2,1.2,0,0,1,2.4-.15c.32,5.15,5.4,9,11.36,8.67a11.58,11.58,0,0,0,7.5-3.27A8.71,8.71,0,0,0,70,73.17c-.27-4.31-2-6.58-5.29-7.15a1.2,1.2,0,1,1,.4-2.36c3.09.52,6.86,2.57,7.29,9.36A11.09,11.09,0,0,1,69,81.62a14,14,0,0,1-9.05,4l-.93,0Zm0,0" transform="translate(0 -0.35)"/><path d="M47.23,75.79h-.79a1.2,1.2,0,0,1,0-2.4h.79a1.79,1.79,0,0,0,1.46-1c2.38-4.54,5.24-4.82,6.78-5a4,4,0,0,0,.65-.09c.34-.12.36-.82.36-.83,0-.5-.56-.79-.56-.79l-.08,0c-2.14-1.17-7.48-1.33-9.36-1.29a1.2,1.2,0,1,1,0-2.4c.75,0,7.41-.1,10.52,1.57a3.35,3.35,0,0,1,1.93,2.91,3.19,3.19,0,0,1-2,3.14,5.19,5.19,0,0,1-1.21.21c-1.31.13-3.11.31-4.87,3.68a4.13,4.13,0,0,1-3.59,2.27Zm0,0" transform="translate(0 -0.35)"/><path d="M47,94a1.2,1.2,0,0,1,0-2.4c3.52,0,11.71-.64,11.71-6.58a1.2,1.2,0,0,1,2.4,0c0,5.63-5.27,9-14.11,9Zm0,0" transform="translate(0 -0.35)"/><path d="M66.74,49.8a5.62,5.62,0,1,1,0-11.24h0a5.62,5.62,0,0,1,0,11.24Zm0-8.84h0a3.22,3.22,0,1,0,2.15.82A3.22,3.22,0,0,0,66.74,41Zm0,0" transform="translate(0 -0.35)"/><path d="M61.39,51.94a1.2,1.2,0,0,1-.91-2l2.59-3a1.2,1.2,0,0,1,1.81,1.58l-2.59,3a1.21,1.21,0,0,1-.91.41Zm0,0" transform="translate(0 -0.35)"/><g class="cls-2"><path d="M69.88,42.18a1.18,1.18,0,0,1-.78-.29A1.2,1.2,0,0,1,69,40.19l3-3.44a1.2,1.2,0,1,1,1.81,1.58l-3,3.44a1.19,1.19,0,0,1-.91.41Zm0,0" transform="translate(0 -0.35)"/><path d="M86,24.21a1.2,1.2,0,0,1-.54-2.27C90.68,19.3,93,13.33,90.87,8.33a8.57,8.57,0,0,0-5-4.73A9.94,9.94,0,0,0,78,4.32a12.38,12.38,0,0,0-4.25,3.54,1.2,1.2,0,0,1-1.91-1.45A14.81,14.81,0,0,1,76.9,2.18a12.33,12.33,0,0,1,9.81-.84,11,11,0,0,1,6.36,6c2.68,6.16-.17,13.5-6.48,16.7a1.22,1.22,0,0,1-.54.13Zm0,0" transform="translate(0 -0.35)"/></g><path d="M82,19.41a1.2,1.2,0,0,1-.51-2.28,4.08,4.08,0,0,0,2.27-2.87,2.85,2.85,0,0,0-.51-2.3,2.78,2.78,0,0,0-2.07-1,4,4,0,0,0-3.43,1.72,1.2,1.2,0,1,1-1.95-1.4,6.42,6.42,0,0,1,5.5-2.71,5.14,5.14,0,0,1,3.82,1.93,5.21,5.21,0,0,1,1,4.21,6.5,6.5,0,0,1-3.61,4.61,1.2,1.2,0,0,1-.51.12Zm0,0" transform="translate(0 -0.35)"/><path d="M71.1,76.9a1.24,1.24,0,0,1-.36-.05,1.2,1.2,0,0,1-.79-1.5A38.36,38.36,0,0,1,78.1,61.68c8.77-9.19,8.43-22.11,8.43-22.24-.16-10.8-4.22-20.05-11.75-26.77C67.61,6.28,57.76,2.75,47,2.75a1.2,1.2,0,0,1,0-2.4c23.94,0,41.55,16.41,41.89,39,0,.54.4,14-9.09,24a36.38,36.38,0,0,0-7.59,12.73,1.2,1.2,0,0,1-1.15.84Zm0,0" transform="translate(0 -0.35)"/></g></g></svg>