<svg xmlns="http://www.w3.org/2000/svg" viewBox="0 0 90.26 94.31"><title>Ресурс 30</title><g id="Слой_2" data-name="Слой 2"><g id="Слой_1-2" data-name="Слой 1"><path d="M26.93,54.8a4.4,4.4,0,1,1,4.4-4.4,4.4,4.4,0,0,1-4.4,4.4Zm0-6.4a2,2,0,1,0,2,2,2,2,0,0,0-2-2Zm0,0" transform="translate(0 -0.69)"/><path d="M37.23,74.8a4.1,4.1,0,1,1,4.1-4.1,4.1,4.1,0,0,1-4.1,4.1Zm0-5.8a1.7,1.7,0,1,0,1.7,1.7,1.7,1.7,0,0,0-1.7-1.7Zm0,0" transform="translate(0 -0.69)"/><path d="M35.31,82.69a8.51,8.51,0,0,1-5.85-2.57C25.37,75.45,26,70,31.57,62.59c6-8.06,13.33-7.7,13.64-7.68a1.2,1.2,0,0,1-.15,2.39c-.27,0-6.4-.24-11.57,6.72-6,8.12-4.65,11.76-2.26,14.5.09.09,3.25,3.28,6.83.89,1.25-.84,2.14-1.47,2.86-2,1.86-1.32,2.56-1.82,4.31-1.82a1.2,1.2,0,1,1,0,2.4c-1,0-1.12.1-2.91,1.38-.69.49-1.64,1.17-2.92,2a7.28,7.28,0,0,1-4.09,1.29Zm0,0" transform="translate(0 -0.69)"/><path d="M44.93,95c-11,0-21-3.3-28.1-9.28C9,79.19,4.93,69.88,4.93,58.8A52.49,52.49,0,0,1,16.19,26.6C23.87,17,34.07,11.7,44.93,11.7a1.2,1.2,0,1,1,0,2.4c-22.16,0-37.6,23.55-37.6,44.7,0,23.35,18.88,33.8,37.6,33.8a1.2,1.2,0,1,1,0,2.4Zm0,0" transform="translate(0 -0.69)"/><path d="M14,32.2a1.2,1.2,0,0,1-.88-.38C5.57,23.69,2.45,12.65,2.5,7.47A3.46,3.46,0,1,1,6.8,3.26c5.1.16,15.16,4.3,22.89,12.58a1.2,1.2,0,0,1-1.75,1.64C19.89,8.86,9.31,5.22,5.87,5.69A1.2,1.2,0,0,1,4.52,4.3s0-.09,0-.16A1.06,1.06,0,1,0,3.46,5.21h.17A1.21,1.21,0,0,1,5,6.58c-.48,3.17,1.77,14.85,9.94,23.6a1.2,1.2,0,0,1-.88,2Zm0,0" transform="translate(0 -0.69)"/><path d="M25.33,20.1a1.19,1.19,0,0,1-.8-.31c-10.19-9.11-20.22-8.21-20.31-8.2A1.2,1.2,0,0,1,4,9.21c.45,0,11.18-1,22.16,8.8a1.2,1.2,0,0,1-.8,2.09Zm0,0" transform="translate(0 -0.69)"/><path d="M63.33,54.8a4.4,4.4,0,1,1,4.4-4.4,4.41,4.41,0,0,1-4.4,4.4Zm0-6.4a2,2,0,1,0,2,2,2,2,0,0,0-2-2Zm0,0" transform="translate(0 -0.69)"/><path d="M53,74.8a4.1,4.1,0,1,1,4.1-4.1A4.11,4.11,0,0,1,53,74.8ZM53,69a1.7,1.7,0,1,0,1.7,1.7A1.7,1.7,0,0,0,53,69Zm0,0" transform="translate(0 -0.69)"/><path d="M54.94,82.69a7.25,7.25,0,0,1-4.08-1.29c-1.28-.85-2.23-1.53-2.92-2C46.15,78.1,46,78,45,78a1.2,1.2,0,0,1,0-2.4c1.75,0,2.45.5,4.31,1.82.72.51,1.61,1.15,2.85,2,3.63,2.41,6.74-.79,6.87-.93,2.35-2.7,3.73-6.34-2.29-14.46-5.22-7-11.5-6.73-11.56-6.72a1.2,1.2,0,0,1-.15-2.39c.31,0,7.66-.38,13.64,7.68,5.54,7.46,6.2,12.86,2.14,17.5a8.57,8.57,0,0,1-5.89,2.6Zm0,0" transform="translate(0 -0.69)"/><path d="M45.33,95a1.2,1.2,0,0,1,0-2.4c18.72,0,37.6-10.45,37.6-33.8,0-21.14-15.44-44.7-37.6-44.7a1.2,1.2,0,0,1,0-2.4C56.19,11.7,66.39,17,74.07,26.6A52.51,52.51,0,0,1,85.33,58.8c0,11.08-4.11,20.39-11.9,26.92C66.3,91.7,56.32,95,45.33,95Zm0,0" transform="translate(0 -0.69)"/><path d="M76.23,32.2a1.2,1.2,0,0,1-.88-2c8.17-8.75,10.42-20.43,9.94-23.6a1.2,1.2,0,0,1,1.34-1.37h.16a1.06,1.06,0,1,0-1.06-1.06c0,.07,0,.13,0,.18a1.22,1.22,0,0,1-.3,1,1.21,1.21,0,0,1-1,.4c-3.42-.46-14,3.18-22.06,11.79a1.2,1.2,0,0,1-1.75-1.64C68.31,7.56,78.37,3.41,83.46,3.26a3.46,3.46,0,1,1,4.3,4.21c.05,5.18-3.06,16.22-10.65,24.35a1.21,1.21,0,0,1-.88.38Zm0,0" transform="translate(0 -0.69)"/><path d="M64.93,20.1a1.2,1.2,0,0,1-.8-2.09c11-9.81,21.7-8.85,22.16-8.8A1.2,1.2,0,0,1,86,11.59c-.16,0-10.21-.84-20.32,8.2a1.17,1.17,0,0,1-.8.31Zm0,0" transform="translate(0 -0.69)"/></g></g></svg>