<svg xmlns="http://www.w3.org/2000/svg" viewBox="0 0 98.31 84.47"><title>Ресурс 28</title><g id="Слой_2" data-name="Слой 2"><g id="Слой_1-2" data-name="Слой 1"><path d="M49.09,73.26l-.58,0c-4-.31-6.51-3.81-6.61-4a1.2,1.2,0,0,1,2-1.37s1.94,2.73,4.84,2.94c2,.15,4-.89,6.1-3.08a1.2,1.2,0,0,1,1.74,1.65c-2.42,2.55-4.93,3.84-7.46,3.84Zm0,0" transform="translate(0 -0.53)"/><path d="M49.16,85C22.05,85,0,65.84,0,42.3,0,21.61,24.81.53,49.16.53c26.47,0,49.16,23,49.16,41.76C98.31,65.84,76.26,85,49.16,85Zm0-82.07C26,2.93,2.4,22.8,2.4,42.3c0,22.22,21,40.3,46.76,40.3S95.91,64.52,95.91,42.3c0-8.29-5.23-18.24-13.66-26C72.82,7.69,61.07,2.93,49.16,2.93Zm0,0" transform="translate(0 -0.53)"/><path d="M87.55,49.6h-.06a1.2,1.2,0,0,1-1.14-1.25c0-.64,0-1.29,0-1.95,0-15.59-18.43-30.9-37.2-30.9a1.2,1.2,0,1,1,0-2.4c20,0,39.6,16.5,39.6,33.3,0,.7,0,1.38,0,2.06a1.2,1.2,0,0,1-1.19,1.14Zm0,0" transform="translate(0 -0.53)"/><path d="M49.19,80.8a1.2,1.2,0,1,1,0-2.4c19.29,0,32.45-8.27,36.11-22.7a1.2,1.2,0,0,1,2.33.59c-4,15.57-18,24.5-38.43,24.5Zm0,0" transform="translate(0 -0.53)"/><path d="M68,47a3.67,3.67,0,1,1,3.67-3.66A3.67,3.67,0,0,1,68,47Zm0-4.93a1.27,1.27,0,1,0,1.27,1.27A1.26,1.26,0,0,0,68,42.07Zm0,0" transform="translate(0 -0.53)"/><path d="M90,65.5a1.1,1.1,0,0,1-.33-.05,1.2,1.2,0,0,1-.87-1.09c-.19-3.79-3.06-8.68-7.3-12.47-3.92-3.5-7-1.86-7-1.85C70.6,51.94,68.59,51.89,68,51.8A8.6,8.6,0,0,1,68,34.6c7.34-.18,14.21,4.07,19.8,12.27A54.24,54.24,0,0,1,94,59.23a1.32,1.32,0,0,1,.06.37c0,.37,0,1-3.12,5.39a1.2,1.2,0,0,1-1,.51ZM76.43,47.25a9.93,9.93,0,0,1,6.66,2.85,25.39,25.39,0,0,1,7.55,11.1c.44-.68.8-1.26,1-1.61-1.08-3-8.78-22.94-23.53-22.59a6.2,6.2,0,1,0,0,12.4,1.09,1.09,0,0,1,.27,0h.15a11.94,11.94,0,0,0,4.88-1.51,6.77,6.77,0,0,1,3.07-.67Zm0,0" transform="translate(0 -0.53)"/><path d="M49.13,66.62a1.2,1.2,0,1,1,0-2.4c9.39,0,18.11-3.89,21.21-9.45a1.2,1.2,0,0,1,2.1,1.17c-3.5,6.29-13.09,10.68-23.3,10.68Zm0,0" transform="translate(0 -0.53)"/><path d="M49.36,62.7a1.2,1.2,0,0,1,0-2.4c2.69,0,3.08-.55,3.94-1.75.27-.37.57-.79,1-1.24A12.5,12.5,0,0,1,56,55.71c1.27-1,2.2-1.74,2.2-3.74s-3.67-2.07-8.86-2.07a1.2,1.2,0,0,1,0-2.4c5.54,0,11.26,0,11.26,4.47,0,3.16-1.72,4.52-3.1,5.62a10.36,10.36,0,0,0-1.45,1.3A12.19,12.19,0,0,0,55.25,60C54.06,61.61,53,62.7,49.36,62.7Zm0,0" transform="translate(0 -0.53)"/><path d="M52.26,57.27a1.2,1.2,0,0,1-1.12-1.64c.26-.65,1.66-3.89,4.12-4.15a1.2,1.2,0,0,1,.26,2.39c-.74.08-1.72,1.59-2.15,2.65a1.2,1.2,0,0,1-1.11.76Zm0,0" transform="translate(0 -0.53)"/><path d="M64.23,45a1.2,1.2,0,0,1-.9-2l2.63-3a4.85,4.85,0,0,1,3.39-1.74,4.5,4.5,0,0,1,3.27,1.4A1.2,1.2,0,1,1,71,41.47a2.33,2.33,0,0,0-1.55-.74,2.58,2.58,0,0,0-1.69,1l-2.6,2.94a1.2,1.2,0,0,1-.9.4Zm0,0" transform="translate(0 -0.53)"/><path d="M74.23,57.4a1.2,1.2,0,0,1-1.18-1,2.09,2.09,0,0,0-.53-1.09,2,2,0,0,0-1.17-.63,2.06,2.06,0,0,0-1.15.13,1.2,1.2,0,0,1-.93-2.22,4.52,4.52,0,0,1,2.46-.29A4.48,4.48,0,0,1,75.42,56a1.2,1.2,0,0,1-1,1.37l-.19,0Zm0,0" transform="translate(0 -0.53)"/><path d="M10.88,49.6a1.2,1.2,0,0,1-1.2-1.14c0-.68,0-1.36,0-2.06,0-16.8,19.62-33.3,39.6-33.3a1.2,1.2,0,1,1,0,2.4C30.46,15.5,12,30.81,12,46.4c0,.66,0,1.31,0,1.95a1.21,1.21,0,0,1-1.14,1.25Zm0,0" transform="translate(0 -0.53)"/><path d="M49.23,80.8c-20.48,0-34.48-8.93-38.43-24.5a1.2,1.2,0,1,1,2.32-.59c3.66,14.42,16.82,22.7,36.11,22.7a1.2,1.2,0,1,1,0,2.4Zm0,0" transform="translate(0 -0.53)"/><path d="M30.43,47a3.67,3.67,0,1,1,3.67-3.66A3.67,3.67,0,0,1,30.43,47Zm0-4.93a1.27,1.27,0,1,0,1.26,1.27,1.26,1.26,0,0,0-1.26-1.27Zm0,0" transform="translate(0 -0.53)"/><path d="M8.43,65.5a1.2,1.2,0,0,1-1-.51c-3.12-4.41-3.12-5-3.12-5.4a1.21,1.21,0,0,1,.06-.37,54.06,54.06,0,0,1,6.2-12.35c5.59-8.2,12.46-12.46,19.8-12.28a8.6,8.6,0,0,1,.07,17.2c-.63.09-2.64.14-6.46-1.72-.17-.09-3.22-1.62-7.07,1.82-4.25,3.78-7.11,8.68-7.3,12.47a1.2,1.2,0,0,1-.86,1.09,1.24,1.24,0,0,1-.34,0ZM6.8,59.6c.18.34.54.93,1,1.61a25.45,25.45,0,0,1,7.55-11.1c5.18-4.61,9.59-2.26,9.78-2.15,3.47,1.69,5,1.48,5,1.47a.85.85,0,0,1,.23,0,6.2,6.2,0,1,0,0-12.4C15.54,36.63,7.88,56.59,6.8,59.6Zm0,0" transform="translate(0 -0.53)"/><path d="M49.29,66.62c-10.22,0-19.81-4.39-23.31-10.68a1.2,1.2,0,0,1,2.1-1.17c3.1,5.57,11.82,9.45,21.21,9.45a1.2,1.2,0,0,1,0,2.4Zm0,0" transform="translate(0 -0.53)"/><path d="M49.06,62.7c-3.65,0-4.7-1.09-5.89-2.75-.25-.34-.5-.7-.81-1.06a10.74,10.74,0,0,0-1.45-1.3c-1.38-1.1-3.11-2.46-3.11-5.62,0-4.48,5.72-4.48,11.26-4.48a1.2,1.2,0,0,1,0,2.4c-5.19,0-8.86.15-8.86,2.07s.92,2.73,2.19,3.74a12.48,12.48,0,0,1,1.77,1.6c.39.45.69.87,1,1.24.86,1.2,1.25,1.75,3.94,1.75a1.2,1.2,0,0,1,0,2.4Zm0,0" transform="translate(0 -0.53)"/><path d="M46.16,57.27A1.2,1.2,0,0,1,45,56.51c-.42-1.06-1.41-2.57-2.15-2.65a1.2,1.2,0,0,1,.25-2.39c2.47.27,3.87,3.5,4.12,4.15a1.2,1.2,0,0,1-.68,1.56,1.23,1.23,0,0,1-.44.08Zm0,0" transform="translate(0 -0.53)"/><path d="M34.19,45a1.21,1.21,0,0,1-.9-.4l-2.63-3A2.52,2.52,0,0,0,29,40.73a2.3,2.3,0,0,0-1.55.74,1.2,1.2,0,0,1-1.66-1.74,4.5,4.5,0,0,1,3.27-1.4A4.8,4.8,0,0,1,32.43,40l2.66,3a1.2,1.2,0,0,1-.1,1.7,1.18,1.18,0,0,1-.79.3Zm0,0" transform="translate(0 -0.53)"/><path d="M24.19,57.4l-.19,0A1.2,1.2,0,0,1,23,56a4.48,4.48,0,0,1,3.68-3.71,4.52,4.52,0,0,1,2.46.29,1.2,1.2,0,0,1-.93,2.22,2.05,2.05,0,0,0-1.15-.13,2.07,2.07,0,0,0-1.7,1.72,1.2,1.2,0,0,1-1.18,1Zm0,0" transform="translate(0 -0.53)"/></g></g></svg>