<svg xmlns="http://www.w3.org/2000/svg" xmlns:xlink="http://www.w3.org/1999/xlink" viewBox="0 0 70.68 99.06"><defs><style>.cls-1{fill:none;}.cls-2{clip-path:url(#clip-path);}</style><clipPath id="clip-path" transform="translate(0 -0.94)"><rect class="cls-1" y="0.16" width="70.8" height="100.8"/></clipPath></defs><title>Ресурс 27</title><g id="Слой_2" data-name="Слой 2"><g id="Слой_1-2" data-name="Слой 1"><path d="M35.37,100c-3.62,0-5.61,0-8.43-1.79-3.16-2-6.09-5.09-9.51-10-7-10-14-27.19-12.71-41.13C6.37,29,17.8,18.11,35.3,17.86A1.23,1.23,0,0,1,36.52,19a1.21,1.21,0,0,1-1.18,1.22c-16.15.22-26.7,10.33-28.22,27C5.91,60.65,12.64,77.16,19.4,86.85c3.19,4.56,6,7.53,8.83,9.33,2.13,1.36,3.41,1.42,7.14,1.42a1.2,1.2,0,1,1,0,2.4Zm0,0" transform="translate(0 -0.94)"/><path d="M19.21,53.33a2.53,2.53,0,0,1-.37,0,2.86,2.86,0,1,1,.38,0Zm0-3.37a.48.48,0,1,0,.07,0Zm0,0" transform="translate(0 -0.94)"/><path d="M22.25,54.16A1.2,1.2,0,0,1,21,53c0-2.7-1.31-3-1.46-3a1.18,1.18,0,0,1-1.09-1.28,1.21,1.21,0,0,1,1.3-1.11c1.24.09,3.6,1.32,3.65,5.34a1.2,1.2,0,0,1-1.19,1.21Zm0,0" transform="translate(0 -0.94)"/><g class="cls-2"><path d="M25.49,64.65a16.75,16.75,0,0,1-10.62-4.4C10.93,56.86,8.06,58.6,8,58.61a1.2,1.2,0,1,1-1.28-2c.18-.11,4.41-2.68,9.69,1.84,4.32,3.71,9.55,4.84,13,2.81S33.13,55,30,48.67,20.81,35.58,9.5,38A1.2,1.2,0,0,1,9,35.63c12.81-2.7,19.64,5,23.12,12,4.75,9.5,1.82,13.79-1.47,15.71a10.15,10.15,0,0,1-5.17,1.34Zm0,0" transform="translate(0 -0.94)"/><path d="M11.78,31.36c-1.35,0-8.05-.55-10-11.24C.67,14.33-.9,4.29.66,2.19c1-1.34,3.16-2,6.25.13l1,.64C11.64,5.38,20.45,11.08,23,21.62a1.2,1.2,0,0,1-2.33.56C18.34,12.58,10.09,7.24,6.57,5l-1-.68c-1.37-.95-2.55-1.22-3-.67S2,8.28,4.1,19.68C5.7,28.29,10.37,29,11.78,29h0a1.2,1.2,0,1,1,0,2.4Zm0,0" transform="translate(0 -0.94)"/></g><path d="M18.12,24.7A1.2,1.2,0,0,1,17,23.86C14.11,14.76,6.38,10.26,4.62,9.63c-.68-.25-1-.08-1.07,0a2.07,2.07,0,0,0-.75,1.22,1.2,1.2,0,1,1-2.36-.46A4.45,4.45,0,0,1,2.36,7.52a3.55,3.55,0,0,1,3.07-.15C7.54,8.12,16.07,13,19.27,23.14a1.2,1.2,0,0,1-.79,1.5,1.13,1.13,0,0,1-.36.06Zm0,0" transform="translate(0 -0.94)"/><path d="M15.77,50.58a1.2,1.2,0,0,1-.38-2.34c2.85-1,4.23-.7,4.48-.64a1.2,1.2,0,0,1-.54,2.34,7.61,7.61,0,0,0-3.18.58,1.11,1.11,0,0,1-.38.07Zm0,0" transform="translate(0 -0.94)"/><path d="M35.39,95.4c-3.36,0-6.1-1.33-7.52-3.66a5.88,5.88,0,0,1-.39-5.69,2.92,2.92,0,0,1,1.78-1.6c1.28-.36,2.48.38,3.65,1.1a5,5,0,0,0,2.33,1,1.2,1.2,0,1,1,.19,2.39,6.48,6.48,0,0,1-3.78-1.35c-.52-.32-1.47-.9-1.75-.83,0,0-.14.09-.28.38a3.52,3.52,0,0,0,.3,3.35c.57.93,2,2.5,5.47,2.5a1.2,1.2,0,1,1,0,2.4Zm0,0" transform="translate(0 -0.94)"/><path d="M35.31,100a1.2,1.2,0,1,1,0-2.4c3.73,0,5-.07,7.14-1.42,2.84-1.8,5.64-4.77,8.82-9.33,6.77-9.69,13.5-26.2,12.29-39.54C62,30.6,51.5,20.49,35.34,20.27a1.2,1.2,0,0,1,0-2.4C52.88,18.11,64.32,29,66,47.09,67.22,61,60.25,78.19,53.25,88.22c-3.42,4.9-6.35,8-9.5,10C40.92,100,38.93,100,35.31,100Zm0,0" transform="translate(0 -0.94)"/><path d="M51.47,53.32a2.88,2.88,0,1,1,.37,0,2.46,2.46,0,0,1-.37,0Zm0-3.37h-.06a.48.48,0,0,0-.42.54.49.49,0,1,0,.48-.55Zm0,0" transform="translate(0 -0.94)"/><g class="cls-2"><path d="M48.43,54.16h0a1.2,1.2,0,0,1-1.19-1.21c0-4,2.41-5.25,3.65-5.34a1.2,1.2,0,0,1,.2,2.39c-.17,0-1.42.3-1.45,3a1.2,1.2,0,0,1-1.2,1.18Zm0,0" transform="translate(0 -0.94)"/><path d="M58.9,31.36h0a1.2,1.2,0,0,1,0-2.4h0c1.41,0,6.08-.68,7.68-9.28,2.11-11.4,1.79-15.5,1.48-16.12s-1.56-.22-2.92.72L64.1,5C60.59,7.24,52.34,12.58,50,22.18a1.2,1.2,0,0,1-2.33-.56C50.23,11.08,59,5.38,62.8,3l1-.64C66.86.17,69,.84,70,2.19c1.56,2.11,0,12.14-1.08,17.93-2,10.69-8.69,11.24-10,11.24Zm0,0" transform="translate(0 -0.94)"/></g><path d="M52.56,24.7a1.17,1.17,0,0,1-.36-.06,1.2,1.2,0,0,1-.79-1.5C54.62,13,63.15,8.12,65.26,7.37a3.54,3.54,0,0,1,3.06.15,4.45,4.45,0,0,1,1.92,2.85,1.2,1.2,0,0,1-2.35.46,2.09,2.09,0,0,0-.76-1.23c-.09-.05-.39-.21-1.06,0-1.76.63-9.48,5.13-12.36,14.23a1.2,1.2,0,0,1-1.14.84Zm0,0" transform="translate(0 -0.94)"/><path d="M54.91,50.58a1.17,1.17,0,0,1-.38-.06,7.56,7.56,0,0,0-3.19-.58,1.18,1.18,0,0,1-1.43-.88,1.22,1.22,0,0,1,.89-1.46c.25-.06,1.64-.32,4.49.64a1.2,1.2,0,0,1-.38,2.34Zm0,0" transform="translate(0 -0.94)"/><path d="M35.29,95.4a1.2,1.2,0,0,1,0-2.4c3.43,0,4.9-1.57,5.47-2.5a3.51,3.51,0,0,0,.3-3.34c-.15-.3-.27-.38-.29-.39-.27-.07-1.23.52-1.74.83a6.51,6.51,0,0,1-3.78,1.35,1.2,1.2,0,0,1,.2-2.39,5,5,0,0,0,2.32-1c1.17-.72,2.37-1.46,3.65-1.1A2.9,2.9,0,0,1,43.2,86a5.88,5.88,0,0,1-.39,5.7c-1.42,2.32-4.16,3.66-7.52,3.66Zm0,0" transform="translate(0 -0.94)"/></g></g></svg>