<svg xmlns="http://www.w3.org/2000/svg" xmlns:xlink="http://www.w3.org/1999/xlink" viewBox="0 0 98.48 83.35"><defs><style>.cls-1{fill:none;}.cls-2{clip-path:url(#clip-path);}</style><clipPath id="clip-path" transform="translate(0 -0.65)"><rect class="cls-1" width="98.88" height="84.96"/></clipPath></defs><title>Ресурс 26</title><g id="Слой_2" data-name="Слой 2"><g id="Слой_1-2" data-name="Слой 1"><path d="M36.81,53.36a4.61,4.61,0,1,1,4.61-4.61,4.62,4.62,0,0,1-4.61,4.61Zm0-6.82A2.21,2.21,0,1,0,39,48.75a2.21,2.21,0,0,0-2.21-2.21Zm0,0" transform="translate(0 -0.65)"/><path d="M49.21,84c-4.82,0-6.87-1.42-7.39-1.86-2.76-1.81-4.55-6.8-4.74-7.37-1.34-3.37-5.31-6.48-5.35-6.51l-.07-.06a26.11,26.11,0,0,1-4-4.55,21.77,21.77,0,0,1-3.73-12.51,21.84,21.84,0,0,1,6.46-16,1.2,1.2,0,0,1,1.72,1.68,19.29,19.29,0,0,0-5.78,14.31A19.4,19.4,0,0,0,29.66,62.3a23.64,23.64,0,0,0,3.57,4.1c.48.38,4.55,3.66,6.09,7.54.49,1.39,2.07,5.11,3.85,6.22a1.17,1.17,0,0,1,.21.17s1.48,1.27,5.82,1.27a1.2,1.2,0,0,1,0,2.4Zm0,0" transform="translate(0 -0.65)"/><g class="cls-2"><path d="M49,79.78a7.14,7.14,0,0,1-5.42-2.09,6.23,6.23,0,0,1-1.68-4.54C42.11,70,45.86,70,49.18,70a1.2,1.2,0,0,1,0,2.4c-2.43,0-4.8.06-4.84.84a3.77,3.77,0,0,0,1,2.75A4.84,4.84,0,0,0,49,77.38a1.2,1.2,0,1,1,0,2.4Zm0,0" transform="translate(0 -0.65)"/><path d="M17.24,76.45h-.06a9.43,9.43,0,0,1-8.7-5.37,7.55,7.55,0,0,1-3.7-1.61C.35,65.61.94,59.18,1.24,57.29-.37,54.69,0,49.79.08,49.2c2.36-16.6,18.83-26,22.11-27.69a1.2,1.2,0,0,1,1.11,2.13C20.21,25.26,4.65,34.09,2.46,49.49c-.18,1.91-.07,5.5,1,6.75a1.2,1.2,0,0,1,.25,1c0,.07-1.38,6.87,2.66,10.39A4.8,4.8,0,0,0,9.21,68.7a1.19,1.19,0,0,1,1.23.83,7,7,0,0,0,6.76,4.52A7.76,7.76,0,0,0,22.41,72c1.22-1.32,1.73-3.24,1.5-5.72-.07-.58-.73-6.15,1.41-9a1.2,1.2,0,1,1,1.91,1.45c-1.31,1.72-1.12,5.82-.93,7.25.29,3.24-.43,5.79-2.15,7.62a10,10,0,0,1-6.91,2.83Zm0,0" transform="translate(0 -0.65)"/></g><path d="M49.21,43.91a6.7,6.7,0,0,1-6-3.64,6.7,6.7,0,0,1-10.94-4A6.68,6.68,0,0,1,23.68,30a6.45,6.45,0,0,1,1.2-3.76A6.53,6.53,0,0,1,27,14a6.41,6.41,0,0,1-.17-1.48A6.63,6.63,0,0,1,34,6,6.7,6.7,0,0,1,44.2,2.81,6.72,6.72,0,0,1,49.14.65a1.2,1.2,0,1,1,0,2.4,4.3,4.3,0,0,0-3.71,2.12,1.2,1.2,0,0,1-1.93.21A4.32,4.32,0,0,0,40.3,4a4.24,4.24,0,0,0-4.21,3.57,1.21,1.21,0,0,1-.52.83,1.19,1.19,0,0,1-1,.16,4.22,4.22,0,0,0-5.36,4,4,4,0,0,0,.54,2,1.2,1.2,0,0,1-1.17,1.79l-.47,0a4.15,4.15,0,0,0-.89,8.23,1.2,1.2,0,0,1,.48,2.13A4.1,4.1,0,0,0,26.07,30a4.22,4.22,0,0,0,4.27,4.16,4.27,4.27,0,0,0,2.5-.8,1.21,1.21,0,0,1,1.34,0,1.19,1.19,0,0,1,.53,1.23,4.29,4.29,0,0,0-.07.76,4.22,4.22,0,0,0,4.26,4.16,4.26,4.26,0,0,0,3.79-2.26,1.2,1.2,0,0,1,2.26.47,4.24,4.24,0,0,0,4.25,3.85,1.2,1.2,0,0,1,0,2.4Zm0,0" transform="translate(0 -0.65)"/><path d="M61.68,53.36a4.61,4.61,0,1,1,4.61-4.61,4.62,4.62,0,0,1-4.61,4.61Zm0-6.82a2.21,2.21,0,1,0,2.21,2.21,2.21,2.21,0,0,0-2.21-2.21Zm0,0" transform="translate(0 -0.65)"/><path d="M49.27,84a1.2,1.2,0,0,1,0-2.4c4.36,0,5.81-1.25,5.82-1.27a1.12,1.12,0,0,1,.21-.17c1.79-1.11,3.37-4.84,3.84-6.17,1.56-3.93,5.63-7.21,6.11-7.59a23.39,23.39,0,0,0,3.57-4.1,19.38,19.38,0,0,0,3.32-11.16,19.29,19.29,0,0,0-5.78-14.31,1.2,1.2,0,0,1,1.71-1.68,21.83,21.83,0,0,1,6.47,16,21.77,21.77,0,0,1-3.73,12.51,26.29,26.29,0,0,1-4,4.55l-.07.06s-4,3.14-5.37,6.56c-.18.52-2,5.51-4.72,7.32-.52.44-2.57,1.86-7.39,1.86Zm0,0" transform="translate(0 -0.65)"/><path d="M49.45,79.78a1.2,1.2,0,0,1,0-2.4A4.83,4.83,0,0,0,53.12,76a3.76,3.76,0,0,0,1-2.75c0-.84-2.93-.84-4.84-.84a1.2,1.2,0,0,1,0-2.4c3.31,0,7.07,0,7.24,3.11a6.22,6.22,0,0,1-1.68,4.53,7.15,7.15,0,0,1-5.42,2.09Zm0,0" transform="translate(0 -0.65)"/><path d="M81.22,76.45a10,10,0,0,1-6.88-2.83c-1.71-1.84-2.44-4.38-2.16-7.58.19-1.48.38-5.58-.93-7.3a1.2,1.2,0,1,1,1.91-1.45c2.14,2.81,1.48,8.39,1.4,9A7.09,7.09,0,0,0,76.09,72a7.58,7.58,0,0,0,5.16,2.07A7,7,0,0,0,88,69.53a1.21,1.21,0,0,1,1.23-.83,4.74,4.74,0,0,0,2.89-1.08c4-3.52,2.66-10.31,2.64-10.37a1.2,1.2,0,0,1,.25-1c1-1.25,1.14-4.84,1-6.81C93.83,34.1,78.27,25.26,75.18,23.65a1.2,1.2,0,1,1,1.11-2.13C79.57,23.23,96,32.6,98.39,49.15c.06.64.46,5.54-1.15,8.14.29,1.9.89,8.32-3.53,12.17A7.57,7.57,0,0,1,90,71.08a9.44,9.44,0,0,1-8.72,5.37Zm0,0" transform="translate(0 -0.65)"/><path d="M49.27,43.91a1.2,1.2,0,1,1,0-2.4,4.24,4.24,0,0,0,4.25-3.85,1.2,1.2,0,0,1,2.26-.47,4.27,4.27,0,0,0,3.79,2.26,4.22,4.22,0,0,0,4.27-4.16,4.08,4.08,0,0,0-.07-.76,1.2,1.2,0,0,1,1.87-1.2,4.3,4.3,0,0,0,2.5.8A4.22,4.22,0,0,0,72.41,30a4.1,4.1,0,0,0-1.65-3.28,1.2,1.2,0,0,1,.48-2.13,4.15,4.15,0,0,0-.89-8.23l-.47,0a1.2,1.2,0,0,1-1.17-1.79,4,4,0,0,0,.54-2,4.22,4.22,0,0,0-5.36-4,1.2,1.2,0,0,1-1.49-1A4.25,4.25,0,0,0,58.18,4,4.32,4.32,0,0,0,55,5.38a1.2,1.2,0,0,1-1.93-.2,4.29,4.29,0,0,0-3.71-2.12,1.2,1.2,0,1,1,0-2.4,6.72,6.72,0,0,1,4.94,2.16A6.71,6.71,0,0,1,64.47,6a6.62,6.62,0,0,1,7.17,6.54A6.51,6.51,0,0,1,71.47,14,6.53,6.53,0,0,1,73.6,26.2,6.43,6.43,0,0,1,74.81,30a6.68,6.68,0,0,1-8.64,6.27,6.64,6.64,0,0,1-6.6,5.62,6.71,6.71,0,0,1-4.34-1.58,6.7,6.7,0,0,1-6,3.64Zm0,0" transform="translate(0 -0.65)"/></g></g></svg>