<svg xmlns="http://www.w3.org/2000/svg" xmlns:xlink="http://www.w3.org/1999/xlink" viewBox="0 0 98.43 88.28"><defs><style>.cls-1{fill:none;}.cls-2{clip-path:url(#clip-path);}</style><clipPath id="clip-path" transform="translate(0 -0.72)"><rect class="cls-1" y="0.2" width="98.88" height="89.76"/></clipPath></defs><title>Ресурс 23</title><g id="Слой_2" data-name="Слой 2"><g id="Слой_1-2" data-name="Слой 1"><g class="cls-2"><path d="M49.09,89a16.79,16.79,0,0,1-8.52-2.26A253.31,253.31,0,0,1,1.5,57,5.78,5.78,0,0,1,0,52.44c.05-1.53,1.51-3.65,2-4.28L18,27.6c-1.57-4-8.2-20.71-8.48-21.66a4.19,4.19,0,0,1,1.26-4.51,4.48,4.48,0,0,1,4.39-.26l21.64,9.45A37.4,37.4,0,0,1,49.16,8a1.2,1.2,0,0,1,0,2.4A36,36,0,0,0,37.23,13a1.2,1.2,0,0,1-.93,0L14.17,3.36s-1.23-.54-2,0a1.88,1.88,0,0,0-.4,1.89c.25.79,5.32,13.65,8.67,22.1a1.2,1.2,0,0,1-.17,1.18L3.91,49.6a8.55,8.55,0,0,0-1.48,2.93,1,1,0,0,1,0,.19,3.4,3.4,0,0,0,.82,2.58A250.4,250.4,0,0,0,41.85,84.71a14.65,14.65,0,0,0,7.24,1.89,1.2,1.2,0,1,1,0,2.4Zm0,0" transform="translate(0 -0.72)"/></g><path d="M23.93,24.16h-.2a1.21,1.21,0,0,1-.9-.7c-.94-2.12-4-9.07-4.18-9.52a2.5,2.5,0,0,1,.68-2.72,2.58,2.58,0,0,1,2.59-.29l9.68,3.76a1.2,1.2,0,0,1,.38,2S27.39,21,24.81,23.77a1.2,1.2,0,0,1-.88.39Zm-3-11v0c.13.35,1.89,4.34,3.38,7.68,1.59-1.64,3.43-3.42,4.66-4.59L21,13.15l-.1,0Zm0,0" transform="translate(0 -0.72)"/><path d="M34.56,54.27a5.07,5.07,0,1,1,5.07-5.07,5.07,5.07,0,0,1-5.07,5.07Zm0-7.73a2.67,2.67,0,1,0,2.67,2.67,2.67,2.67,0,0,0-2.67-2.67Zm0,0" transform="translate(0 -0.72)"/><path d="M44.69,69.73a1.2,1.2,0,0,1-1.17-.94,22.92,22.92,0,0,0-5.06-9.06,1.2,1.2,0,1,1,1.79-1.6,24.94,24.94,0,0,1,5.61,10.14,1.2,1.2,0,0,1-1.17,1.46Zm0,0" transform="translate(0 -0.72)"/><path d="M25.06,74.7a1.2,1.2,0,0,1-.89-2c.16-.17,15.39-16.8,17.25-19.13a5.76,5.76,0,0,0,1.25-4.08c-.07-.64-1.61-14.63-1.61-16.57a.68.68,0,0,0-.7-.77l-.16,0C27.41,29.71,9.44,42.45,9.26,42.58a1.2,1.2,0,1,1-1.4-2c.77-.55,18.91-13.42,32.71-10.88a3.06,3.06,0,0,1,2.89,3.16c0,1.5,1.15,12.25,1.59,16.27A8.21,8.21,0,0,1,43.3,55C41.4,57.45,26.58,73.62,25.95,74.31a1.21,1.21,0,0,1-.89.39Zm0,0" transform="translate(0 -0.72)"/><path d="M5.63,60.27A1.18,1.18,0,0,1,4.88,60a1.2,1.2,0,0,1-.2-1.69c10.7-13.45,24.47-20.76,31.59-20,6.51.64,7.92,3.73,8.06,4.08a1.2,1.2,0,0,1-2.22.92c0-.1-1.15-2.12-6.08-2.61C29.68,40,16.63,47.18,6.57,59.82a1.2,1.2,0,0,1-.94.45Zm0,0" transform="translate(0 -0.72)"/><path d="M49.33,89a1.2,1.2,0,0,1,0-2.4,14.67,14.67,0,0,0,7.22-1.87A250.83,250.83,0,0,0,95.2,55.31,3.38,3.38,0,0,0,96,52.72a1.43,1.43,0,0,1,0-.18,8.58,8.58,0,0,0-1.5-3l-16.37-21A1.19,1.19,0,0,1,78,27.36C81.3,18.9,86.37,6,86.62,5.25a1.87,1.87,0,0,0-.4-1.89,2.22,2.22,0,0,0-1.93,0L62.12,13a1.2,1.2,0,0,1-.93,0A36,36,0,0,0,49.27,10.4a1.2,1.2,0,0,1,0-2.4,37.41,37.41,0,0,1,12.35,2.63L83.29,1.16a4.46,4.46,0,0,1,4.36.28,4.2,4.2,0,0,1,1.27,4.51c-.29,1-6.91,17.69-8.48,21.66l16,20.53c.48.66,1.93,2.79,2,4.31A5.77,5.77,0,0,1,96.93,57a253.62,253.62,0,0,1-39.11,29.8A16.88,16.88,0,0,1,49.33,89Zm0,0" transform="translate(0 -0.72)"/><path d="M74.5,24.16a1.19,1.19,0,0,1-.88-.39c-2.59-2.81-7.12-7-7.17-7.09a1.2,1.2,0,0,1,.38-2l9.72-3.77a2.57,2.57,0,0,1,2.55.3,2.51,2.51,0,0,1,.68,2.72c-.15.44-3.24,7.39-4.18,9.52a1.19,1.19,0,0,1-.9.7Zm-5-7.92c1.23,1.17,3.07,3,4.66,4.59,1.48-3.35,3.25-7.33,3.38-7.7,0,0,0,0,0,0l-.09,0Zm0,0" transform="translate(0 -0.72)"/><path d="M63.87,54.27a5.07,5.07,0,1,1,5.07-5.07,5.07,5.07,0,0,1-5.07,5.07Zm0-7.73a2.67,2.67,0,1,0,2.66,2.67,2.67,2.67,0,0,0-2.66-2.67Zm0,0" transform="translate(0 -0.72)"/><path d="M53.73,69.73a1,1,0,0,1-.26,0,1.2,1.2,0,0,1-.91-1.43,25,25,0,0,1,5.61-10.14A1.2,1.2,0,0,1,60,59.73a23,23,0,0,0-5.06,9.07,1.2,1.2,0,0,1-1.17.94Zm0,0" transform="translate(0 -0.72)"/><path d="M73.37,74.7a1.2,1.2,0,0,1-.88-.39C71.85,73.62,57,57.45,55.13,55a8.2,8.2,0,0,1-1.75-5.93C53.82,45.15,55,34.4,55,32.9a3.06,3.06,0,0,1,2.89-3.16C71.66,27.2,89.8,40.08,90.57,40.62a1.2,1.2,0,1,1-1.4,2C89,42.45,71,29.71,58.22,32.11l-.18,0a.67.67,0,0,0-.68.77c0,1.95-1.54,15.94-1.6,16.53A5.76,5.76,0,0,0,57,53.56c1.85,2.34,17.09,19,17.25,19.13a1.2,1.2,0,0,1-.89,2Zm0,0" transform="translate(0 -0.72)"/><path d="M92.8,60.27a1.21,1.21,0,0,1-.94-.45C81.8,47.18,68.72,40,62.39,40.66c-5,.5-6.08,2.59-6.09,2.62a1.21,1.21,0,0,1-1.57.6,1.18,1.18,0,0,1-.64-1.53c.14-.35,1.56-3.44,8.06-4.08,7.13-.71,20.89,6.6,31.59,20a1.2,1.2,0,0,1-.94,1.95Zm0,0" transform="translate(0 -0.72)"/><path d="M49.24,80.75c-3.07,0-6.91-1-8.56-3.24a3.52,3.52,0,0,1-.6-3.23c2-6.43,6.89-6.43,9-6.43s7.16,0,9.15,6.43a3.57,3.57,0,0,1-.59,3.28c-1.41,1.91-4.79,3.2-8.41,3.2Zm-.16-10.5c-2.15,0-5.28,0-6.71,4.73a1.16,1.16,0,0,0,.23,1.11c1,1.29,3.81,2.26,6.64,2.26s5.54-1,6.47-2.22A1.2,1.2,0,0,0,55.95,75c-1.36-4.37-4.22-4.74-6.8-4.74Zm0,0" transform="translate(0 -0.72)"/></g></g></svg>