<svg xmlns="http://www.w3.org/2000/svg" xmlns:xlink="http://www.w3.org/1999/xlink" viewBox="0 0 81.08 100.59"><defs><style>.cls-1{fill:none;}.cls-2{clip-path:url(#clip-path);}</style><clipPath id="clip-path" transform="translate(0 -0.41)"><rect class="cls-1" y="0.2" width="81.84" height="101.76"/></clipPath></defs><title>Ресурс 17</title><g id="Слой_2" data-name="Слой 2"><g id="Слой_1-2" data-name="Слой 1"><path d="M40.48,76.35c-4.69,0-8.8-3.13-8.8-6.7a134.26,134.26,0,0,1,2.52-17.93c2.18-11.11,5.19-22.17,5.22-22.29a1.2,1.2,0,0,1,2.33.05l4.9,21.9c.12.66,2.73,15.09,2.73,18.26,0,3.57-4.16,6.7-8.9,6.7Zm0-41.5c-1.07,4.25-2.65,10.78-3.93,17.33A134.86,134.86,0,0,0,34.08,69.7c0,1.93,2.8,4.24,6.4,4.24s6.5-2.35,6.5-4.3C47,67.19,45,56,44.3,51.86Zm0,0" transform="translate(0 -0.41)"/><path d="M40.59,80.15c-6,0-11.4-4-11.4-8.43a6.1,6.1,0,0,1,3-5.27,1.2,1.2,0,0,1,1.32,2,3.69,3.69,0,0,0-2,3.26c0,2.79,3.93,6,9,6s9-3.24,9-6a4.18,4.18,0,0,0-2-3.47,1.2,1.2,0,0,1,1.34-2A6.59,6.59,0,0,1,52,71.71c0,4.41-5.42,8.43-11.38,8.43Zm0,0" transform="translate(0 -0.41)"/><path d="M14.58,59.49a3.65,3.65,0,1,1,3.65-3.65,3.65,3.65,0,0,1-3.65,3.65Zm0-4.9a1.25,1.25,0,1,0,1.25,1.25,1.25,1.25,0,0,0-1.25-1.25Zm0,0" transform="translate(0 -0.41)"/><g class="cls-2"><path d="M12.51,62.16a8.35,8.35,0,0,1-2.66-.48,1.2,1.2,0,1,1,.77-2.27,4,4,0,0,0,3.47-.07,4.77,4.77,0,0,0,1.71-3.12,1.2,1.2,0,0,1,2.39.25c0,.13-.37,3.32-2.79,4.88a5.21,5.21,0,0,1-2.88.81Zm0,0" transform="translate(0 -0.41)"/><path d="M34.69,99.87h0c-8.07-.13-12-2.88-12.57-3.31-6.27-4-11.16-11.31-14.14-21.2A66.5,66.5,0,0,1,5.32,61.51c-1.1-20.14,3.5-31,5.31-34.41a28.24,28.24,0,0,1-6.9-4.61C-5,12.79,4.23,3.06,4.32,3c2.28-2.4,7-3.32,9.5-1.85a3.36,3.36,0,0,1,1.44,4.15c-1.09,3.49,2.59,7.15,2.63,7.19a1,1,0,0,1,.15.18c2.35,3.47,5.27,2.43,5.67,2.26a35.31,35.31,0,0,1,16.71-4.12,1.2,1.2,0,0,1,0,2.4h0c-.09,0-8.43-.2-15.5,3.84l-.1.05c-1.73.78-5.75,1.16-8.62-3-.67-.69-4.57-5-3.15-9.53.28-.89,0-1.18-.37-1.37-1.42-.83-4.92-.28-6.55,1.44-.33.34-7.72,8.24-.58,16.21a28.32,28.32,0,0,0,7.34,4.65,1.2,1.2,0,0,1,.49,1.76c-.07.1-6.89,10.65-5.6,34.13,0,.24,1.61,24.29,15.71,33.18l.12.08S27,97.35,34.7,97.47a1.2,1.2,0,0,1,0,2.4Zm0,0" transform="translate(0 -0.41)"/></g><path d="M40.48,101h-.14c-10-1.21-13.76-8-13.91-8.28a1.2,1.2,0,0,1,2.11-1.14c.14.25,3.38,6,12.09,7a1.2,1.2,0,0,1-.15,2.39Zm0,0" transform="translate(0 -0.41)"/><path d="M27.81,92.85a6.22,6.22,0,0,1-2.66-.49,4,4,0,0,1-1.69-5.41,3.51,3.51,0,0,1,2.65-1.84,3.45,3.45,0,0,1,3,1.05s3.34,3.65,2.41,5.41c-.46.88-2.12,1.28-3.71,1.28Zm-1.22-5.37h-.16a1.09,1.09,0,0,0-.84.57,1.6,1.6,0,0,0,.68,2.16,5.45,5.45,0,0,0,2.84.09,10.64,10.64,0,0,0-1.75-2.53,1,1,0,0,0-.76-.32Zm0,0" transform="translate(0 -0.41)"/><path d="M20.59,88.57h-.05a1.19,1.19,0,0,1-1.15-1.24,7.1,7.1,0,0,1,2.29-4.8,7.43,7.43,0,0,1,6-1.42,1.2,1.2,0,1,1-.31,2.38,5.19,5.19,0,0,0-4.11.85,4.75,4.75,0,0,0-1.47,3.07,1.2,1.2,0,0,1-1.19,1.15Zm0,0" transform="translate(0 -0.41)"/><path d="M40.53,91.76a9.88,9.88,0,0,1-6.2-2.34A1.2,1.2,0,0,1,35.9,87.6c.2.17,4.81,4,9.1-.27A1.2,1.2,0,0,1,46.7,89a8.55,8.55,0,0,1-6.17,2.74Zm0,0" transform="translate(0 -0.41)"/><path d="M40.53,96.23a8.47,8.47,0,0,1-5.3-2,1.2,1.2,0,0,1,1.57-1.81c.39.33,3.92,3.16,7.3-.22a1.2,1.2,0,0,1,1.7,1.69,7.31,7.31,0,0,1-5.27,2.34Zm0,0" transform="translate(0 -0.41)"/><path d="M12.73,20.19a12.53,12.53,0,0,1-7.81-2.55,4.4,4.4,0,0,1-1.86-3.52A4.31,4.31,0,0,1,4.78,11a3.85,3.85,0,0,1,3.07-.6,5.85,5.85,0,0,1,3.27,2.67c2.09,3.66,6.54,3.8,6.59,3.8a1.2,1.2,0,0,1,.38,2.33,15.93,15.93,0,0,1-5.36,1ZM6.14,13a2,2,0,0,0-.69,1.21,2.37,2.37,0,0,0,1,1.6,10.11,10.11,0,0,0,6.09,2A9.41,9.41,0,0,1,9,14.28a3.51,3.51,0,0,0-1.76-1.53A1.37,1.37,0,0,0,6.14,13Zm0,0" transform="translate(0 -0.41)"/><path d="M66.48,59.49a3.65,3.65,0,1,1,3.65-3.65,3.65,3.65,0,0,1-3.65,3.65Zm0-4.9a1.25,1.25,0,1,0,1.25,1.25,1.25,1.25,0,0,0-1.25-1.25Zm0,0" transform="translate(0 -0.41)"/><g class="cls-2"><path d="M68.56,62.16a5.22,5.22,0,0,1-2.88-.81c-2.41-1.55-2.77-4.74-2.79-4.88a1.2,1.2,0,0,1,2.39-.25A4.77,4.77,0,0,0,67,59.33a4,4,0,0,0,3.47.07,1.2,1.2,0,1,1,.77,2.27,8.35,8.35,0,0,1-2.66.48Zm0,0" transform="translate(0 -0.41)"/><path d="M46.38,99.87a1.2,1.2,0,0,1,0-2.4c7.66-.12,11.13-2.81,11.17-2.83l.11-.08c14.11-8.9,15.69-32.95,15.71-33.19,1.29-23.48-5.53-34-5.6-34.13a1.2,1.2,0,0,1,.5-1.76,28,28,0,0,0,7.39-4.69c7.13-8-.3-15.83-.61-16.16-1.64-1.72-5.14-2.29-6.56-1.45-.32.19-.65.47-.37,1.37,1.43,4.56-2.48,8.84-3.15,9.52-2.87,4.15-6.89,3.78-8.63,3l-.1-.06c-7.09-4.05-15.41-3.84-15.5-3.84a1.2,1.2,0,0,1-.07-2.4,35.25,35.25,0,0,1,16.7,4.12c.48.19,3.35,1.16,5.68-2.26a1,1,0,0,1,.15-.18s3.71-3.72,2.63-7.19a3.36,3.36,0,0,1,1.44-4.15C69.76-.36,74.47.56,76.75,3c.09.09,9.27,9.82.62,19.47a28.11,28.11,0,0,1-6.94,4.65c1.81,3.42,6.42,14.27,5.31,34.41a66.75,66.75,0,0,1-2.63,13.85c-3,9.89-7.87,17.22-14.14,21.2-.57.43-4.51,3.19-12.58,3.31Zm0,0" transform="translate(0 -0.41)"/></g><path d="M40.59,101a1.2,1.2,0,0,1-.14-2.39c8.72-1.06,12-6.8,12.09-7a1.2,1.2,0,0,1,2.11,1.14c-.15.29-3.91,7.06-13.91,8.28Zm0,0" transform="translate(0 -0.41)"/><path d="M53.26,92.85c-1.59,0-3.25-.4-3.71-1.28-.92-1.76,2.38-5.37,2.41-5.41a3.45,3.45,0,0,1,3-1,3.5,3.5,0,0,1,2.65,1.84,4,4,0,0,1-1.69,5.41,6.21,6.21,0,0,1-2.66.49ZM52,90.32a5.47,5.47,0,0,0,2.84-.09,1.61,1.61,0,0,0,.68-2.16,1.1,1.1,0,0,0-.84-.57,1,1,0,0,0-.92.3A10.8,10.8,0,0,0,52,90.32Zm0,0" transform="translate(0 -0.41)"/><path d="M60.48,88.58a1.21,1.21,0,0,1-1.2-1.16,4.7,4.7,0,0,0-1.47-3.07,5.21,5.21,0,0,0-4.11-.85,1.2,1.2,0,1,1-.31-2.38,7.44,7.44,0,0,1,6,1.42,7.11,7.11,0,0,1,2.29,4.8,1.2,1.2,0,0,1-1.16,1.24Zm0,0" transform="translate(0 -0.41)"/><path d="M68.34,20.19a15.93,15.93,0,0,1-5.36-1,1.2,1.2,0,0,1,.37-2.33s4.52-.17,6.59-3.8a5.87,5.87,0,0,1,3.27-2.67,3.82,3.82,0,0,1,3,.56A4.33,4.33,0,0,1,78,14.12a4.44,4.44,0,0,1-1.87,3.54,12.56,12.56,0,0,1-7.8,2.54Zm5.75-7.48a1.12,1.12,0,0,0-.3,0A3.51,3.51,0,0,0,72,14.29a9.39,9.39,0,0,1-3.5,3.5,10.2,10.2,0,0,0,6.07-2,2.37,2.37,0,0,0,1-1.62A2,2,0,0,0,74.87,13a1.42,1.42,0,0,0-.78-.25Zm0,0" transform="translate(0 -0.41)"/></g></g></svg>