<svg xmlns="http://www.w3.org/2000/svg" xmlns:xlink="http://www.w3.org/1999/xlink" viewBox="0 0 108.77 98.01"><defs><style>.cls-1{fill:none;}.cls-2{clip-path:url(#clip-path);}</style><clipPath id="clip-path" transform="translate(0 -0.99)"><rect class="cls-1" y="0.12" width="108.96" height="99.84"/></clipPath></defs><title>Ресурс 15</title><g id="Слой_2" data-name="Слой 2"><g id="Слой_1-2" data-name="Слой 1"><g class="cls-2"><path d="M54.09,99a4.89,4.89,0,0,1-2.22-.5,19.32,19.32,0,0,1-7.42-6.7c-4.11-5.88-3.36-10.13-3.08-11.73,0-.09,0-.17,0-.24-.4-1.25-3.64-8.16-6.6-14.24-7.45-15.7-5.39-27.53-4-32.21-6,1.21-22.67,2.88-30.1-13.48a5.94,5.94,0,0,1-.46-4.38A2.81,2.81,0,0,1,3.28,13c1.38.19,27.72,3.09,28,3.12A1.2,1.2,0,1,1,31,18.52C29.92,18.4,4.36,15.6,2.95,15.4c-.15,0-.32.36-.37.63,0,0,0,.11,0,.15a3.53,3.53,0,0,0,.25,2.58l.06.11c3.44,7.59,9.39,11.88,17.68,12.73a32.71,32.71,0,0,0,11.75-1,1.2,1.2,0,0,1,1.45,1.64,28.31,28.31,0,0,0-1.8,9c-.3,5.19.33,13.45,5,23.39,6.85,14.11,6.85,14.88,6.85,15.2a4.07,4.07,0,0,1-.09.73c-.23,1.33-.86,4.87,2.73,10a17.26,17.26,0,0,0,6.47,5.86l.08,0a3.21,3.21,0,0,0,2.48-.08c3.71-1.45,6.77-5.78,6.8-5.82,3.59-5.13,3-8.67,2.73-10a4.15,4.15,0,0,1-.09-.73c0-.33,0-1.09,6.85-15.21,4.7-9.92,5.33-18.19,5-23.38a28.23,28.23,0,0,0-1.8-9,1.19,1.19,0,0,1,.2-1.29,1.21,1.21,0,0,1,1.26-.35,32.58,32.58,0,0,0,11.75,1c8.3-.85,14.25-5.14,17.68-12.73a.91.91,0,0,1,.07-.12,3.53,3.53,0,0,0,.25-2.57,1.12,1.12,0,0,1,0-.17,1.18,1.18,0,0,0-.3-.61c-1.47.2-27,3-28.12,3.13a1.2,1.2,0,0,1-.26-2.39c.27,0,26.61-2.92,28-3.11a2.81,2.81,0,0,1,3.05,2.5,5.9,5.9,0,0,1-.46,4.38C100.64,36.26,84,34.59,78,33.38c1.37,4.68,3.43,16.5-4,32.2-3,6.09-6.21,13-6.6,14.25l0,.24c.28,1.6,1,5.84-3.12,11.79-.14.2-3.5,5-7.89,6.69a6.22,6.22,0,0,1-2.28.45Zm0,0" transform="translate(0 -0.99)"/></g><path d="M31.73,32.92a1.09,1.09,0,0,1-.33,0C14.85,28.13,2,16,1.48,15.48a1.2,1.2,0,0,1,1.66-1.73c.13.12,13,12.24,28.92,16.82a1.2,1.2,0,0,1-.33,2.35Zm0,0" transform="translate(0 -0.99)"/><path d="M32.91,49.38A4.17,4.17,0,0,1,31,48.93a4.78,4.78,0,0,1-.45-.25,1.2,1.2,0,1,1,1.31-2l.2.12a1.78,1.78,0,0,0,2.33-.69,1.22,1.22,0,0,0,0-.82A2,2,0,0,0,33.47,44c-.77-.38-1.36-.51-1.65-.34a1.2,1.2,0,1,1-1.16-2.1c1.56-.86,3.31,0,3.88.3a4.38,4.38,0,0,1,2.19,2.74,3.42,3.42,0,0,1-.28,2.75,4.18,4.18,0,0,1-3.54,2Zm0,0" transform="translate(0 -0.99)"/><path d="M37.38,50.56a1.2,1.2,0,0,1-1.17-.93,15.23,15.23,0,0,0-1.94-4.86,1.2,1.2,0,0,1,2-1.37,17.44,17.44,0,0,1,2.31,5.7,1.2,1.2,0,0,1-.9,1.44,1,1,0,0,1-.27,0Zm0,0" transform="translate(0 -0.99)"/><path d="M53.14,93.89c-5,0-10.53-7.27-11.21-8.19a1.2,1.2,0,1,1,1.92-1.43c2.23,3,6.5,7.27,9.32,7.22V87.78a1.2,1.2,0,1,1,2.4,0v4.69a1.21,1.21,0,0,1-.77,1.12,4.62,4.62,0,0,1-1.66.3Zm0,0" transform="translate(0 -0.99)"/><path d="M51.26,86.19a1.2,1.2,0,0,1-.77-.28l-3-2.52A1.2,1.2,0,0,1,49,81.55l3,2.52a1.2,1.2,0,0,1-.77,2.12Zm0,0" transform="translate(0 -0.99)"/><path d="M54.25,33.55A6.41,6.41,0,0,1,48.4,30a6.64,6.64,0,0,1-3.92,1.28A6.35,6.35,0,0,1,38.11,26a6.74,6.74,0,0,1-2.36.43,6.3,6.3,0,0,1-6.43-6.14,5.86,5.86,0,0,1,.83-3,5.86,5.86,0,0,1-.83-3,6.3,6.3,0,0,1,6.43-6.14,6.62,6.62,0,0,1,2.36.43,6.35,6.35,0,0,1,6.37-5.25A6.62,6.62,0,0,1,48.4,4.57,6.41,6.41,0,0,1,54.25,1a1.2,1.2,0,1,1,0,2.4,3.88,3.88,0,0,0-4,3.63A1.2,1.2,0,0,1,48,7.61a4.1,4.1,0,0,0-3.52-1.92,3.9,3.9,0,0,0-4,3.74,3.49,3.49,0,0,0,.15,1,1.2,1.2,0,0,1-2,1.21,4.17,4.17,0,0,0-2.86-1.11,3.9,3.9,0,0,0-4,3.74,3.55,3.55,0,0,0,.82,2.25,1.2,1.2,0,0,1,0,1.52,3.53,3.53,0,0,0-.82,2.25,3.9,3.9,0,0,0,4,3.74,4.17,4.17,0,0,0,2.86-1.11,1.2,1.2,0,0,1,2,1.21,3.47,3.47,0,0,0-.15,1,3.9,3.9,0,0,0,4,3.74A4.1,4.1,0,0,0,48,26.93a1.2,1.2,0,0,1,2.23.59,3.88,3.88,0,0,0,4,3.63,1.2,1.2,0,1,1,0,2.4Zm0,0" transform="translate(0 -0.99)"/><path d="M36.73,75.31a6,6,0,0,1-6-5.83,6,6,0,0,1-7.53-7.43,6,6,0,0,1-4.7-9.46,6,6,0,0,1-2.11-9.82,6,6,0,0,1,3-11.2,1.2,1.2,0,1,1,0,2.4,3.6,3.6,0,0,0-.09,7.21,1.2,1.2,0,0,1,.31,2.35,3.61,3.61,0,0,0,1,7.06,3.41,3.41,0,0,0,.46,0,1.2,1.2,0,0,1,.69,2.26,3.61,3.61,0,0,0,1.6,6.84A3.54,3.54,0,0,0,25,59.26a1.2,1.2,0,0,1,1.39,1.92,3.6,3.6,0,1,0,5.22,5,1.2,1.2,0,0,1,1.94,1.39,3.61,3.61,0,0,0,3.14,5.37A3.56,3.56,0,0,0,39,72.1,1.2,1.2,0,1,1,40.51,74a6,6,0,0,1-3.79,1.34Zm0,0" transform="translate(0 -0.99)"/><path d="M77,32.92a1.2,1.2,0,0,1-.33-2.35c16-4.59,28.79-16.7,28.92-16.82a1.2,1.2,0,0,1,1.66,1.73c-.54.52-13.37,12.64-29.91,17.39a1.24,1.24,0,0,1-.33,0Zm0,0" transform="translate(0 -0.99)"/><path d="M75.86,49.38a4.21,4.21,0,0,1-3.55-2A3.43,3.43,0,0,1,72,44.63a4.37,4.37,0,0,1,2.19-2.74c.57-.29,2.32-1.16,3.88-.3a1.2,1.2,0,1,1-1.16,2.1c-.3-.16-.88,0-1.65.34a2,2,0,0,0-.95,1.24,1.22,1.22,0,0,0,0,.81,1.77,1.77,0,0,0,2.32.7l.21-.12a1.2,1.2,0,0,1,1.31,2c-.14.09-.3.18-.46.26a4.16,4.16,0,0,1-1.86.45Zm0,0" transform="translate(0 -0.99)"/><path d="M71.38,50.56a1,1,0,0,1-.27,0,1.2,1.2,0,0,1-.9-1.44,17.55,17.55,0,0,1,2.31-5.7,1.2,1.2,0,1,1,2,1.38,15.43,15.43,0,0,0-1.94,4.86,1.2,1.2,0,0,1-1.17.93Zm0,0" transform="translate(0 -0.99)"/><path d="M55.62,93.89a4.6,4.6,0,0,1-1.66-.3,1.2,1.2,0,0,1-.77-1.12V87.78a1.2,1.2,0,1,1,2.4,0V91.5c3.1.07,7.81-5.19,9.32-7.22a1.2,1.2,0,1,1,1.93,1.43c-.68.91-6.23,8.19-11.21,8.19Zm0,0" transform="translate(0 -0.99)"/><path d="M57.5,86.19a1.2,1.2,0,0,1-.77-2.12l3-2.52a1.2,1.2,0,0,1,1.54,1.84l-3,2.52a1.21,1.21,0,0,1-.77.28Zm0,0" transform="translate(0 -0.99)"/><path d="M54.52,33.55a1.2,1.2,0,1,1,0-2.4,3.88,3.88,0,0,0,4-3.63,1.21,1.21,0,0,1,.89-1.12,1.2,1.2,0,0,1,1.33.54,4.11,4.11,0,0,0,3.51,1.91,3.9,3.9,0,0,0,4-3.74,3.48,3.48,0,0,0-.14-1,1.2,1.2,0,0,1,2-1.21A4.18,4.18,0,0,0,73,24a3.9,3.9,0,0,0,4-3.74A3.53,3.53,0,0,0,76.22,18a1.2,1.2,0,0,1,0-1.52A3.54,3.54,0,0,0,77,14.26a3.9,3.9,0,0,0-4-3.74,4.16,4.16,0,0,0-2.86,1.11,1.2,1.2,0,0,1-2-1.21,3.46,3.46,0,0,0,.14-1,3.9,3.9,0,0,0-4-3.74A4.11,4.11,0,0,0,60.77,7.6a1.19,1.19,0,0,1-1.33.54A1.21,1.21,0,0,1,58.54,7a3.88,3.88,0,0,0-4-3.63,1.2,1.2,0,1,1,0-2.4,6.42,6.42,0,0,1,5.85,3.58,6.63,6.63,0,0,1,3.91-1.28,6.35,6.35,0,0,1,6.37,5.25A6.63,6.63,0,0,1,73,8.12a6.3,6.3,0,0,1,6.43,6.14,5.82,5.82,0,0,1-.83,3,5.83,5.83,0,0,1,.83,3A6.3,6.3,0,0,1,73,26.41,6.65,6.65,0,0,1,70.65,26a6.35,6.35,0,0,1-6.37,5.25A6.63,6.63,0,0,1,60.37,30a6.42,6.42,0,0,1-5.85,3.58Zm0,0" transform="translate(0 -0.99)"/><path d="M72,75.31A6,6,0,0,1,68.25,74a1.2,1.2,0,1,1,1.51-1.86,3.56,3.56,0,0,0,2.27.8,3.61,3.61,0,0,0,3.14-5.37,1.2,1.2,0,0,1,1.94-1.39,3.6,3.6,0,1,0,5.22-5,1.2,1.2,0,0,1,1.39-1.92,3.54,3.54,0,0,0,1.63.39A3.61,3.61,0,0,0,87,52.82a1.2,1.2,0,0,1,.69-2.26,3.47,3.47,0,0,0,.46,0,3.61,3.61,0,0,0,1-7.06,1.2,1.2,0,0,1,.31-2.35A3.6,3.6,0,0,0,89.35,34a1.2,1.2,0,1,1,0-2.4,6,6,0,0,1,3,11.2,6,6,0,0,1-2.1,9.82,6,6,0,0,1-4.71,9.46A6,6,0,0,1,78,69.48a6,6,0,0,1-6,5.83Zm0,0" transform="translate(0 -0.99)"/></g></g></svg>