<svg xmlns="http://www.w3.org/2000/svg" xmlns:xlink="http://www.w3.org/1999/xlink" viewBox="0 0 62.66 106.16"><defs><style>.cls-1{fill:none;}.cls-2{clip-path:url(#clip-path);}</style><clipPath id="clip-path" transform="translate(0 -0.84)"><rect class="cls-1" y="0.2" width="62.88" height="107.76"/></clipPath></defs><title>Ресурс 14</title><g id="Слой_2" data-name="Слой 2"><g id="Слой_1-2" data-name="Слой 1"><g class="cls-2"><path d="M13.29,35.85h0a3.75,3.75,0,1,1,2.65-1.1,3.72,3.72,0,0,1-2.65,1.1Zm0-5.1a1.35,1.35,0,0,0-1.35,1.35,1.34,1.34,0,0,0,.39,1h0a1.33,1.33,0,0,0,.95.4h0a1.35,1.35,0,1,0,0-2.7Zm0,0" transform="translate(0 -0.84)"/><path d="M17,67.71a1.24,1.24,0,0,1-.42-.08C2.2,62.27.34,47,.27,46.33c-1.15-9.85,1.46-19,7.37-25.72l.19-.23a4.49,4.49,0,0,0,.44-1.53v-.1C12.39-1.09,31.27.89,31.46.91a1.2,1.2,0,1,1-.28,2.38c-.72-.08-16.87-1.7-20.54,15.9a6.39,6.39,0,0,1-.87,2.6l-.33.4C4,28.41,1.58,36.89,2.65,46.06c0,.15,1.79,14.48,14.73,19.32A1.2,1.2,0,0,1,17,67.71Zm0,0" transform="translate(0 -0.84)"/></g><path d="M31.39,107c-2.05,0-4.4-2.24-4.92-2.77a101.07,101.07,0,0,1-8.29-8.15C15,92.34,15.38,87.21,15.39,87c.25-6.14.89-22.37.9-23a2.17,2.17,0,0,0-.41-.61C12,60.32,14.1,52.11,15.62,46.11l.4-1.59a34.12,34.12,0,0,0,1.16-7.84c-.53-4.61-3.63-6-3.66-6a1.2,1.2,0,1,1,.93-2.21c.18.07,4.46,1.94,5.13,8a.69.69,0,0,1,0,.09,34.59,34.59,0,0,1-1.24,8.53q-.18.76-.41,1.61c-1.21,4.79-3.25,12.79-.53,14.84l.12.11A3.72,3.72,0,0,1,18.69,64c0,.71-.81,20.86-.9,23.15,0,.09-.31,4.41,2.21,7.38a102.61,102.61,0,0,0,8.08,7.93l.06.06c.83.84,2.43,2.09,3.25,2.09a1.2,1.2,0,0,1,0,2.4Zm0,0" transform="translate(0 -0.84)"/><path d="M31.39,41.4c-11,0-14.42-6.31-14.56-6.58A1.2,1.2,0,0,1,19,33.7c.13.23,3,5.3,12.44,5.3a1.2,1.2,0,1,1,0,2.4Zm0,0" transform="translate(0 -0.84)"/><path d="M17.39,64.3h-.09A1.2,1.2,0,0,1,16.19,63c0-.44.77-10.79,4.84-15,.39-.37,1.66-1.45,3-1.09a2.11,2.11,0,0,1,1.46,1.61.86.86,0,0,1,0,.1A2.38,2.38,0,0,1,25,50.55a2.05,2.05,0,0,1-.84.61c-.29,1.43-.74,4.84,1,7.12,1.2,1.6,3.31,2.41,6.29,2.41a1.2,1.2,0,0,1,0,2.4c-3.78,0-6.55-1.14-8.22-3.38C21.07,56.84,21.41,53,21.76,51c-2.13,3.46-3,9.75-3.18,12.16a1.2,1.2,0,0,1-1.19,1.12Zm0,0" transform="translate(0 -0.84)"/><path d="M24.52,74h-.07c-.55,0-2.23-.1-2.06-7.27.07-2.75.84-5.65,1.73-6.46a1.37,1.37,0,0,1,1-.37c1.65.11,1.56,1.83,1.35,5.61,0,.51-.06,1.05-.08,1.61s0,1.09-.07,1.6c-.13,3.24-.2,4.3-.87,4.92a1.39,1.39,0,0,1-.94.37Zm0,0" transform="translate(0 -0.84)"/><g class="cls-2"><path d="M49.37,35.85a3.71,3.71,0,0,1-2.65-1.1,3.75,3.75,0,1,1,5.3-5.3,3.75,3.75,0,0,1-2.65,6.4Zm0-5.1a1.35,1.35,0,0,0-1,2.3,1.38,1.38,0,0,0,1.91,0,1.35,1.35,0,0,0,0-1.91,1.36,1.36,0,0,0-1-.39Zm0,0" transform="translate(0 -0.84)"/><path d="M45.71,67.71a1.2,1.2,0,0,1-.42-2.32C58.22,60.54,60,46.21,60,46.07c1.07-9.18-1.34-17.66-6.79-23.87-.17-.2-.28-.33-.33-.4A6.43,6.43,0,0,1,52,19.2c-3.69-17.67-19.86-16-20.54-15.9A1.2,1.2,0,1,1,31.2.91c.19,0,19.07-2,23.18,17.85a.7.7,0,0,1,0,.1,4.57,4.57,0,0,0,.45,1.55l.18.21c5.9,6.73,8.52,15.87,7.37,25.73-.07.64-1.93,15.93-16.27,21.29a1.24,1.24,0,0,1-.42.08Zm0,0" transform="translate(0 -0.84)"/></g><path d="M31.27,107a1.2,1.2,0,0,1,0-2.4c.78,0,2.38-1.21,3.24-2.08l.07-.06a101.84,101.84,0,0,0,8.08-7.93c2.55-3,2.22-7.28,2.21-7.32C44.78,84.85,44,64.7,44,64a3.72,3.72,0,0,1,1.15-2.35l.12-.11c2.72-2.05.68-10.06-.54-14.84l-.41-1.61a34.19,34.19,0,0,1-1.23-8.53.74.74,0,0,1,0-.09c.67-6,4.94-7.89,5.13-8a1.2,1.2,0,0,1,.94,2.21c-.15.07-3.15,1.45-3.68,6a34.34,34.34,0,0,0,1.17,7.83c.12.5.26,1,.4,1.59,1.53,6,3.61,14.22-.26,17.29a2,2,0,0,0-.41.63c0,.61.65,16.83.9,23,0,.16.4,5.29-2.79,9a101.57,101.57,0,0,1-8.29,8.15c-.53.54-2.87,2.77-4.92,2.77Zm0,0" transform="translate(0 -0.84)"/><path d="M32.44,106.76h-.17L30,106.42a1.2,1.2,0,0,1-.61-.28l-4.64-4a1.2,1.2,0,0,1,.37-2,3.23,3.23,0,0,0,2.07-2.83c0-2.67,0-7.61,4-7.79h.34c4,.18,4,5.12,4,7.79a3.23,3.23,0,0,0,2.07,2.83,1.21,1.21,0,0,1,.75.9,1.19,1.19,0,0,1-.36,1.11l-4.68,4.32a1.18,1.18,0,0,1-.81.32Zm-1.75-2.67,1.36.2,3.08-2.84a5.16,5.16,0,0,1-2.06-4.15c0-3.88-.47-5.36-1.74-5.4s-1.74,1.52-1.74,5.4a5.16,5.16,0,0,1-2,4.12Zm0,0" transform="translate(0 -0.84)"/><path d="M31.27,41.4a1.2,1.2,0,0,1,0-2.4c9.46,0,12.32-5.08,12.44-5.3a1.2,1.2,0,0,1,2.12,1.12c-.14.27-3.56,6.58-14.56,6.58Zm0,0" transform="translate(0 -0.84)"/><path d="M45.27,64.3a1.2,1.2,0,0,1-1.2-1.12c0-.09-.57-8-3.17-12.16.35,1.95.68,5.82-1.46,8.69C37.77,62,35,63.1,31.22,63.1a1.2,1.2,0,1,1,0-2.4c3,0,5.1-.81,6.29-2.42,1.71-2.3,1.26-5.68,1-7.12a2.09,2.09,0,0,1-.84-.61,2.38,2.38,0,0,1-.45-1.88.7.7,0,0,1,0-.1A2.12,2.12,0,0,1,38.68,47,3.41,3.41,0,0,1,41.6,48c4.09,4.2,4.84,14.55,4.87,15a1.2,1.2,0,0,1-1.11,1.28Zm0,0" transform="translate(0 -0.84)"/><path d="M38.14,74a1.38,1.38,0,0,1-.94-.37c-.67-.62-.75-1.67-.87-4.9,0-.51,0-1.05-.07-1.61s-.05-1.1-.08-1.62c-.2-3.77-.3-5.49,1.35-5.6a1.37,1.37,0,0,1,1,.37c.88.81,1.66,3.71,1.73,6.46.18,7.17-1.5,7.24-2.06,7.27Zm0,0" transform="translate(0 -0.84)"/></g></g></svg>