<svg xmlns="http://www.w3.org/2000/svg" xmlns:xlink="http://www.w3.org/1999/xlink" viewBox="0 0 95.3 98.39"><defs><style>.cls-1{fill:none;}.cls-2{clip-path:url(#clip-path);}</style><clipPath id="clip-path" transform="translate(0 -0.61)"><rect class="cls-1" y="0.12" width="96" height="99.84"/></clipPath></defs><title>Ресурс 22</title><g id="Слой_2" data-name="Слой 2"><g id="Слой_1-2" data-name="Слой 1"><path d="M47.59,32.07a1.2,1.2,0,0,1-1.2-1.2V1.81a1.2,1.2,0,0,1,2.4,0V30.87a1.2,1.2,0,0,1-1.2,1.2Zm0,0" transform="translate(0 -0.61)"/><path d="M62.54,15.75a1.21,1.21,0,0,1-.85-.36,20.32,20.32,0,0,0-14.4-5.73,1.2,1.2,0,1,1,0-2.4,22.75,22.75,0,0,1,16.1,6.44,1.2,1.2,0,0,1-.85,2Zm0,0" transform="translate(0 -0.61)"/><path d="M57.54,20.26a1.2,1.2,0,0,1-.85-.35,13.24,13.24,0,0,0-9.4-3.68,1.2,1.2,0,0,1,0-2.4,15.66,15.66,0,0,1,11.1,4.4,1.2,1.2,0,0,1-.85,2Zm0,0" transform="translate(0 -0.61)"/><path d="M47.39,65.22a1.2,1.2,0,0,1,0-2.4,1.19,1.19,0,0,0,1-.57c2-3.55,4.35-3.77,5.62-3.89a3.82,3.82,0,0,0,.49-.06.54.54,0,0,0,.1-.34c0-.12-.25-.29-.29-.31-1.17-.59-3.66-.95-6.74-1a1.2,1.2,0,0,1,0-2.4h0c2,0,5.77.21,7.73,1.21A2.8,2.8,0,0,1,57,57.93a2.67,2.67,0,0,1-1.76,2.64,4.68,4.68,0,0,1-1,.17c-1.06.1-2.38.22-3.73,2.64a3.58,3.58,0,0,1-3.08,1.84Zm0,0" transform="translate(0 -0.61)"/><g class="cls-2"><path d="M58.65,91.54a1.2,1.2,0,0,1-.45-2.32A45.07,45.07,0,0,0,79.87,70.86a1.2,1.2,0,0,1,2-.12c.32.47.66,1,1,1.42.22-.93.54-2.17,1-3.82a93.41,93.41,0,0,0,2.37-12.95,1.11,1.11,0,0,1,.13-.43,1.78,1.78,0,0,1,1.4-1,2.34,2.34,0,0,1,1.92.88,5.57,5.57,0,0,0,2.12,1.58c-1.05-3.46-1.15-8.77-1.14-10.72a44.69,44.69,0,0,0-13-30.35A42.44,42.44,0,0,0,47.6,3a1.2,1.2,0,1,1,0-2.4,44.82,44.82,0,0,1,31.79,13,47.1,47.1,0,0,1,13.73,32c0,4.85.67,10.64,1.78,11.63a1.2,1.2,0,0,1,.32,1.34,1.19,1.19,0,0,1-1.16.75A9.22,9.22,0,0,1,88.51,57a90.15,90.15,0,0,1-2.28,12c-1.33,4.79-1.39,5.71-1.38,5.89l-1.16.32L84.87,75a1.22,1.22,0,0,1-.71,1.36c-.88.38-1,.36-3.16-2.68A47.67,47.67,0,0,1,59.1,91.45a1.12,1.12,0,0,1-.45.09Zm0,0" transform="translate(0 -0.61)"/><path d="M84.63,23.2a1.2,1.2,0,0,1-.19-2.39,8.72,8.72,0,0,0,3-1.11A8.56,8.56,0,0,0,90.21,7.8,8.39,8.39,0,0,0,78.55,4.52,8.75,8.75,0,0,0,74.45,10a1.2,1.2,0,1,1-2.33-.57,11.12,11.12,0,0,1,5.21-7,10.86,10.86,0,0,1,15,4.13c3.21,5.45,1.64,12.13-3.58,15.2a11.23,11.23,0,0,1-3.87,1.4l-.19,0Zm0,0" transform="translate(0 -0.61)"/></g><path d="M82,18.29h-.15a1.2,1.2,0,1,1,.07-2.4,2.79,2.79,0,0,0,2.86-2.71,2.79,2.79,0,0,0-2.71-2.86H82A2.79,2.79,0,0,0,79.24,13a1.2,1.2,0,1,1-2.4-.07A5.19,5.19,0,1,1,82,18.29Zm0,0" transform="translate(0 -0.61)"/><path d="M64.87,43.35a5,5,0,1,1,5-5,5,5,0,0,1-5,5Zm0-7.6a2.6,2.6,0,1,0,1.73.66,2.6,2.6,0,0,0-1.73-.66Zm0,0" transform="translate(0 -0.61)"/><path d="M60.27,45.19a1.18,1.18,0,0,1-.78-.29,1.2,1.2,0,0,1-.12-1.69l2.22-2.56a1.2,1.2,0,1,1,1.81,1.58l-2.23,2.55a1.19,1.19,0,0,1-.91.41Zm0,0" transform="translate(0 -0.61)"/><path d="M67.57,36.81a1.2,1.2,0,0,1-.9-2l2.57-3a1.2,1.2,0,0,1,1.81,1.58l-2.57,3a1.2,1.2,0,0,1-.91.41Zm0,0" transform="translate(0 -0.61)"/><path d="M67.45,68.06a1.2,1.2,0,0,1-.29-2.36c.65-.16,1.45-.32,1.7-.36,12.16-4,15.18-15.86,15.21-16,3.62-14.88-6.16-21.07-6.27-21.13a1.2,1.2,0,1,1,1.25-2c.11.07,11.37,7.18,7.34,23.74-.13.54-3.4,13.38-16.87,17.72l-.15,0s-.94.17-1.63.34a1.21,1.21,0,0,1-.29,0Zm0,0" transform="translate(0 -0.61)"/><path d="M71.06,61.18a1.2,1.2,0,0,1-.52-2.29c10-4.73,9.64-15.81,9.62-16.28a1.2,1.2,0,0,1,2.4-.11c0,.13.46,13.14-11,18.55a1.21,1.21,0,0,1-.51.12Zm0,0" transform="translate(0 -0.61)"/><path d="M70,56.34A1.2,1.2,0,0,1,69.6,54c6.21-2.36,6.4-9.32,6.4-9.39a1.2,1.2,0,0,1,2.4,0c0,.35-.24,8.67-8,11.59a1.19,1.19,0,0,1-.43.08Zm0,0" transform="translate(0 -0.61)"/><path d="M57.27,73.5c-5.63,0-10.34-3.87-10.66-8.92a1.2,1.2,0,0,1,1.12-1.27A1.18,1.18,0,0,1,49,64.43c.25,4,4.23,6.94,8.87,6.66a9.07,9.07,0,0,0,6.25-2.91,6.57,6.57,0,0,0,1.71-4.76c-.23-3.52-2.29-5.71-5.33-5.62a1.18,1.18,0,0,1-1.24-1.16,1.2,1.2,0,0,1,1.16-1.24c4.28-.14,7.5,3.08,7.81,7.86a8.93,8.93,0,0,1-2.31,6.5A11.47,11.47,0,0,1,58,73.48l-.75,0Zm0,0" transform="translate(0 -0.61)"/><path d="M52.46,24.51a1.2,1.2,0,0,1-.79-.3,6.38,6.38,0,0,0-4.18-1.43,1.2,1.2,0,0,1,0-2.4,8.78,8.78,0,0,1,5.77,2,1.2,1.2,0,0,1-.79,2.1Zm0,0" transform="translate(0 -0.61)"/><path d="M48.73,99c-.39,0-.78,0-1.19-.05a1.2,1.2,0,0,1,.21-2.39,8.87,8.87,0,0,0,9.79-7.13,1.2,1.2,0,1,1,2.34.54,11.27,11.27,0,0,1-11.15,9Zm0,0" transform="translate(0 -0.61)"/><path d="M55.53,58a1.2,1.2,0,0,1-1.2-1.2V52.08a5.43,5.43,0,0,1,.89-3.71,3.83,3.83,0,0,1,2.68-1.45,1.2,1.2,0,1,1,.27,2.38,1.41,1.41,0,0,0-1.05.52,3.07,3.07,0,0,0-.4,2c0,.05,0,.11,0,.16v4.75a1.2,1.2,0,0,1-1.2,1.2Zm0,0" transform="translate(0 -0.61)"/><path d="M51.81,55.14a1.2,1.2,0,0,1-1.2-1.2V49.19c-.11-1.72.54-5.22,3.83-5.6L60,42.84a1.2,1.2,0,0,1,.32,2.38L54.73,46c-1.87.22-1.73,3-1.73,3.15v4.82a1.2,1.2,0,0,1-1.2,1.2Zm0,0" transform="translate(0 -0.61)"/><path d="M47.66,49a1.2,1.2,0,0,1-1.2-1.2V43.15a3.54,3.54,0,0,1,.59-2.51,4,4,0,0,1,3-1.54l3.78-.52A1.2,1.2,0,0,1,54.13,41l-3.81.52A1.92,1.92,0,0,0,49,42a1.17,1.17,0,0,0-.17.77,1.29,1.29,0,0,1,0,.25V47.8a1.2,1.2,0,0,1-1.2,1.2Zm0,0" transform="translate(0 -0.61)"/><path d="M56.4,81l-.19,0a1.2,1.2,0,0,1-1-1l-1.07-7.22a1.2,1.2,0,1,1,2.37-.35L57,75.61A19,19,0,0,0,58.15,72a1.2,1.2,0,1,1,2.37.38c-.43,2.71-2.94,7.74-3,8A1.19,1.19,0,0,1,56.4,81Zm0,0" transform="translate(0 -0.61)"/><path d="M56.53,90.74a1.2,1.2,0,0,1-1.17-.93,10.5,10.5,0,0,0-.62-1.72l-.13,1.46a1.2,1.2,0,0,1-2.39-.21l.51-5.56a1.2,1.2,0,0,1,2.23-.5,29.08,29.08,0,0,1,2.74,6,1.2,1.2,0,0,1-.89,1.45,1.37,1.37,0,0,1-.28,0Zm0,0" transform="translate(0 -0.61)"/><path d="M56.8,91.92H47.63a1.2,1.2,0,1,1,0-2.4H56.8a1.11,1.11,0,0,0,1.05-1,59.9,59.9,0,0,1,4.65-12.89c4-7.32,3.3-12.58,3.3-12.63a1.2,1.2,0,0,1,2.37-.36c0,.24.86,6.05-3.57,14.14A57.07,57.07,0,0,0,60.21,89a3.47,3.47,0,0,1-3.41,2.91Zm0,0" transform="translate(0 -0.61)"/><path d="M47.72,32.07a1.2,1.2,0,0,1-1.2-1.2V1.81a1.2,1.2,0,0,1,2.4,0V30.87a1.2,1.2,0,0,1-1.2,1.2Zm0,0" transform="translate(0 -0.61)"/><path d="M32.76,15.75a1.2,1.2,0,0,1-.85-2A22.75,22.75,0,0,1,48,7.26a1.2,1.2,0,0,1,0,2.4,20.32,20.32,0,0,0-14.4,5.73,1.2,1.2,0,0,1-.85.36Zm0,0" transform="translate(0 -0.61)"/><path d="M37.76,20.26a1.2,1.2,0,0,1-.85-2A15.66,15.66,0,0,1,48,13.82a1.2,1.2,0,0,1,0,2.4,13.25,13.25,0,0,0-9.4,3.69,1.2,1.2,0,0,1-.85.35Zm0,0" transform="translate(0 -0.61)"/><g class="cls-2"><path d="M47.92,65.22a3.6,3.6,0,0,1-3.1-1.86c-1.33-2.39-2.65-2.51-3.71-2.61a4.94,4.94,0,0,1-1-.17,2.69,2.69,0,0,1-1.76-2.69,2.83,2.83,0,0,1,1.74-2.45c1.89-1,5.61-1.15,7.66-1.17h0a1.2,1.2,0,0,1,0,2.4c-3.08,0-5.57.39-6.67.95-.18.09-.36.23-.36.32a.67.67,0,0,0,.09.36,3.52,3.52,0,0,0,.5.07c1.27.12,3.65.34,5.61,3.86a1.19,1.19,0,0,0,1,.6,1.2,1.2,0,1,1,0,2.4Zm0,0" transform="translate(0 -0.61)"/><path d="M36.65,91.54a1.2,1.2,0,0,1-.44-.09A47.66,47.66,0,0,1,14.3,73.63c-2.07,3-2.27,3.05-3.15,2.68A1.23,1.23,0,0,1,10.43,75l1,.12h0l-1-.2c0-.16,0-1.08-1.38-5.87A90.63,90.63,0,0,1,6.79,57a9.19,9.19,0,0,1-5.55,2.34,1.2,1.2,0,0,1-.84-2.1c1.11-1,1.79-6.79,1.78-11.59A47.12,47.12,0,0,1,15.92,13.62,44.82,44.82,0,0,1,47.71.61a1.2,1.2,0,0,1,0,2.4,42.44,42.44,0,0,0-30.1,12.31,44.7,44.7,0,0,0-13,30.39c0,1.91-.09,7.22-1.15,10.68a5.41,5.41,0,0,0,2.1-1.55,2.37,2.37,0,0,1,1.95-.91,1.79,1.79,0,0,1,1.4,1,1.2,1.2,0,0,1,.13.43,93.75,93.75,0,0,0,2.37,12.95c.46,1.65.78,2.88,1,3.82l1-1.42a1.2,1.2,0,0,1,2,.12A45.22,45.22,0,0,0,37.1,89.22a1.2,1.2,0,0,1-.45,2.32Zm0,0" transform="translate(0 -0.61)"/><path d="M10.67,23.2l-.2,0a11.18,11.18,0,0,1-3.87-1.4C1.39,18.71-.19,12,3,6.58A10.86,10.86,0,0,1,18,2.45a11.12,11.12,0,0,1,5.21,7,1.2,1.2,0,0,1-2.33.57,8.74,8.74,0,0,0-4.1-5.53A8.39,8.39,0,0,0,5.09,7.8,8.56,8.56,0,0,0,7.82,19.71a8.75,8.75,0,0,0,3,1.1,1.2,1.2,0,0,1-.2,2.39Zm0,0" transform="translate(0 -0.61)"/></g><path d="M13.27,18.29A5.18,5.18,0,1,1,18.46,13a1.2,1.2,0,0,1-1.17,1.23A1.21,1.21,0,0,1,16.06,13a2.78,2.78,0,1,0-4.7,2.1,2.72,2.72,0,0,0,2,.76,1.2,1.2,0,0,1,.07,2.4Zm0,0" transform="translate(0 -0.61)"/><path d="M30.43,43.35a5,5,0,1,1,5-5,5,5,0,0,1-5,5Zm0-7.6a2.58,2.58,0,0,0-1.73.66,2.6,2.6,0,1,0,1.73-.66Zm0,0" transform="translate(0 -0.61)"/><path d="M35,45.19a1.18,1.18,0,0,1-.91-.41L31.9,42.22a1.2,1.2,0,0,1,1.81-1.58l2.23,2.56a1.2,1.2,0,0,1-.12,1.69,1.18,1.18,0,0,1-.79.29Zm0,0" transform="translate(0 -0.61)"/><path d="M27.73,36.81a1.19,1.19,0,0,1-.91-.41l-2.57-3a1.2,1.2,0,1,1,1.81-1.58l2.58,3a1.2,1.2,0,0,1-.9,2Zm0,0" transform="translate(0 -0.61)"/><path d="M27.86,68.06a1.23,1.23,0,0,1-.29,0c-.69-.17-1.62-.34-1.63-.34l-.15,0C12.31,63.29,9,50.46,8.91,49.92,6.82,41.3,8.89,35.32,11,31.83a17.57,17.57,0,0,1,5.25-5.65,1.2,1.2,0,0,1,1.25,2c-.41.25-9.86,6.32-6.27,21.13,0,.12,3.09,12,15.21,16,.25,0,1,.2,1.7.36a1.2,1.2,0,0,1-.29,2.36Zm0,0" transform="translate(0 -0.61)"/><path d="M24.24,61.18a1.14,1.14,0,0,1-.51-.12c-11.45-5.42-11-18.42-11-18.55a1.2,1.2,0,0,1,2.4.11c0,.48-.36,11.55,9.62,16.28a1.2,1.2,0,0,1-.52,2.29Zm0,0" transform="translate(0 -0.61)"/><path d="M25.28,56.34a1.15,1.15,0,0,1-.42-.08c-7.72-2.92-7.95-11.24-8-11.59a1.2,1.2,0,0,1,1.18-1.22h0a1.2,1.2,0,0,1,1.2,1.18c0,.31.24,7.05,6.41,9.39a1.2,1.2,0,0,1-.43,2.32Zm0,0" transform="translate(0 -0.61)"/><path d="M38,73.5l-.75,0a11.46,11.46,0,0,1-7.89-3.72,9,9,0,0,1-2.31-6.5c.31-4.78,3.52-8,7.81-7.86a1.2,1.2,0,1,1-.09,2.4c-3-.09-5.1,2.1-5.33,5.62a6.55,6.55,0,0,0,1.71,4.76,9.07,9.07,0,0,0,6.24,2.91c4.64.29,8.62-2.7,8.87-6.66a1.17,1.17,0,0,1,1.27-1.12,1.2,1.2,0,0,1,1.12,1.27c-.32,5-5,8.92-10.66,8.92Zm0,0" transform="translate(0 -0.61)"/><path d="M42.84,24.51a1.2,1.2,0,0,1-.79-2.1,8.78,8.78,0,0,1,5.77-2,1.2,1.2,0,1,1,0,2.4,6.37,6.37,0,0,0-4.18,1.43,1.21,1.21,0,0,1-.79.3Zm0,0" transform="translate(0 -0.61)"/><path d="M46.57,99a11.27,11.27,0,0,1-11.15-9,1.2,1.2,0,1,1,2.34-.54,8.87,8.87,0,0,0,9.79,7.13A1.2,1.2,0,0,1,47.76,99c-.41,0-.8.05-1.19.05Zm0,0" transform="translate(0 -0.61)"/><path d="M39.78,58a1.2,1.2,0,0,1-1.2-1.2V52a.87.87,0,0,1,0-.18,3.09,3.09,0,0,0-.41-2,1.41,1.41,0,0,0-1.05-.52,1.2,1.2,0,0,1,.27-2.39,3.84,3.84,0,0,1,2.68,1.45A5.42,5.42,0,0,1,41,52.08v4.68A1.2,1.2,0,0,1,39.78,58Zm0,0" transform="translate(0 -0.61)"/><path d="M43.5,55.14a1.2,1.2,0,0,1-1.2-1.2V49.19c0-.19.14-3-1.7-3.21L35,45.22a1.2,1.2,0,1,1,.32-2.38l5.57.75c3.26.38,3.92,3.88,3.8,5.67v4.68a1.2,1.2,0,0,1-1.2,1.2Zm0,0" transform="translate(0 -0.61)"/><path d="M47.64,49a1.2,1.2,0,0,1-1.2-1.2V43a1.33,1.33,0,0,1,0-.25,1.16,1.16,0,0,0-.18-.78A1.9,1.9,0,0,0,45,41.48L41.17,41a1.2,1.2,0,0,1,.32-2.38l3.8.52a4,4,0,0,1,3,1.54,3.54,3.54,0,0,1,.59,2.51V47.8a1.19,1.19,0,0,1-1.2,1.2Zm0,0" transform="translate(0 -0.61)"/><path d="M38.9,81a1.2,1.2,0,0,1-1.07-.66c-.11-.21-2.61-5.25-3-8A1.2,1.2,0,1,1,37.15,72a19.11,19.11,0,0,0,1.16,3.58l.47-3.18a1.2,1.2,0,1,1,2.37.35L40.09,80a1.2,1.2,0,0,1-1,1l-.19,0Zm0,0" transform="translate(0 -0.61)"/><path d="M38.77,90.74a1.18,1.18,0,0,1-.28,0,1.2,1.2,0,0,1-.89-1.44,29.15,29.15,0,0,1,2.74-6,1.2,1.2,0,0,1,2.23.5l.51,5.56a1.2,1.2,0,1,1-2.39.22l-.13-1.46a10.56,10.56,0,0,0-.62,1.72,1.21,1.21,0,0,1-1.17.93Zm0,0" transform="translate(0 -0.61)"/><path d="M38.5,91.92h9.18a1.2,1.2,0,0,0,0-2.4H38.5a1.11,1.11,0,0,1-1.05-1,59.83,59.83,0,0,0-4.65-12.89c-4-7.32-3.3-12.58-3.3-12.63a1.2,1.2,0,0,0-2.37-.36c0,.24-.86,6.05,3.57,14.14A57.12,57.12,0,0,1,35.09,89a3.48,3.48,0,0,0,3.4,2.91Zm0,0" transform="translate(0 -0.61)"/></g></g></svg>