<svg xmlns="http://www.w3.org/2000/svg" xmlns:xlink="http://www.w3.org/1999/xlink" viewBox="0 0 103.56 94.2"><defs><style>.cls-1{fill:none;}.cls-2{clip-path:url(#clip-path);}</style><clipPath id="clip-path" transform="translate(0 -0.8)"><rect class="cls-1" y="0.2" width="103.92" height="95.76"/></clipPath></defs><title>Ресурс 12</title><g id="Слой_2" data-name="Слой 2"><g id="Слой_1-2" data-name="Слой 1"><g class="cls-2"><path d="M42.51,95h-.11C23.81,93.26,16.57,84.14,14.23,80.07c-2.24,3.21-2.41,3.23-3.29,2.85a1.23,1.23,0,0,1-.71-1.36l1,.09,0,0-1-.18c0-.17,0-1.16-1.5-6.43A52.85,52.85,0,0,1,7.18,62a9.86,9.86,0,0,1-5.94,2.49,1.22,1.22,0,0,1-1.16-.75A1.2,1.2,0,0,1,.4,62.39c1.23-1.1,2-7.44,2-12.68a51.14,51.14,0,0,1,14.9-34.79A48.65,48.65,0,0,1,51.77.8,1.2,1.2,0,0,1,53,2V33.6a1.2,1.2,0,0,1-2.4,0V3.21A46.21,46.21,0,0,0,19,16.61,48.74,48.74,0,0,0,4.77,49.74c0,1.51-.06,7.88-1.32,11.8A6.1,6.1,0,0,0,6,59.73a2.47,2.47,0,0,1,2-1,1.85,1.85,0,0,1,1.45,1.07,1.18,1.18,0,0,1,.14.6,53.87,53.87,0,0,0,1.46,13.93c.54,1.93.9,3.34,1.14,4.38L13.42,77a1.21,1.21,0,0,1,1.14-.51,1.2,1.2,0,0,1,1,.79,19.64,19.64,0,0,0,5.18,6.86c3.64,3.26,10.39,7.37,21.9,8.45A1.2,1.2,0,0,1,42.51,95Zm0,0" transform="translate(0 -0.8)"/><path d="M11.5,25.15l-.2,0a12,12,0,0,1-4.18-1.51C1.5,20.31-.19,13.12,3.27,7.24A11.71,11.71,0,0,1,19.39,2.78,12,12,0,0,1,25,10.36a1.2,1.2,0,0,1-2.33.57,9.63,9.63,0,0,0-4.5-6.08C13.64,2.18,8.12,3.73,5.34,8.46s-1.45,10.47,3,13.1a9.71,9.71,0,0,0,3.35,1.21,1.2,1.2,0,0,1-.19,2.38Zm0,0" transform="translate(0 -0.8)"/></g><path d="M14.33,19.81a5.53,5.53,0,1,1,5.54-5.69,1.2,1.2,0,0,1-1.16,1.23,1.23,1.23,0,0,1-1.23-1.17,3.13,3.13,0,1,0-6.27.18,3.11,3.11,0,0,0,1,2.19,3.14,3.14,0,0,0,2.24.85,1.2,1.2,0,1,1,.07,2.4Zm0,0" transform="translate(0 -0.8)"/><path d="M33,48.67a5.33,5.33,0,1,1,5.33-5.34A5.34,5.34,0,0,1,33,48.67Zm0-8.27a2.93,2.93,0,1,0,2.93,2.93A2.92,2.92,0,0,0,33,40.4Zm0,0" transform="translate(0 -0.8)"/><path d="M38,50.67a1.19,1.19,0,0,1-.91-.41l-2.42-2.78a1.2,1.2,0,1,1,1.81-1.58l2.42,2.78a1.2,1.2,0,0,1-.12,1.69,1.18,1.18,0,0,1-.79.3Zm0,0" transform="translate(0 -0.8)"/><path d="M30.05,41.55a1.2,1.2,0,0,1-.91-.41l-2.8-3.21a1.2,1.2,0,1,1,1.81-1.58L31,39.56a1.2,1.2,0,0,1-.12,1.69,1.19,1.19,0,0,1-.79.29Zm0,0" transform="translate(0 -0.8)"/><path d="M30.19,75.53a1.22,1.22,0,0,1-.29,0c-.75-.19-1.76-.37-1.78-.38l-.15,0C13.37,70.37,9.83,56.47,9.69,55.88,5.33,37.94,17.5,30.25,17.63,30.17a1.2,1.2,0,0,1,1.25,2c-.45.28-10.79,6.91-6.86,23.09,0,.13,3.38,13.14,16.62,17.46.27,0,1.13.21,1.84.39a1.2,1.2,0,0,1-.29,2.36Zm0,0" transform="translate(0 -0.8)"/><path d="M26.26,68.06a1.2,1.2,0,0,1-.51-.12C13.36,62.08,13.85,48,13.85,47.86a1.2,1.2,0,0,1,2.4.11c0,.53-.4,12.63,10.52,17.8a1.2,1.2,0,0,1-.51,2.29Zm0,0" transform="translate(0 -0.8)"/><path d="M27.38,62.79a1.17,1.17,0,0,1-.43-.08c-8.33-3.15-8.57-12.13-8.58-12.51a1.2,1.2,0,0,1,2.4,0c0,.33.25,7.74,7,10.31a1.2,1.2,0,0,1-.43,2.32Zm0,0" transform="translate(0 -0.8)"/><path d="M34.87,17A1.2,1.2,0,0,1,34,15,24.62,24.62,0,0,1,51.45,8a24.64,24.64,0,0,1,17.44,7,1.2,1.2,0,0,1-1.7,1.69,22.23,22.23,0,0,0-15.74-6.27,22.21,22.21,0,0,0-15.73,6.27,1.19,1.19,0,0,1-.85.36Zm0,0" transform="translate(0 -0.8)"/><path d="M62.6,22a1.21,1.21,0,0,1-.85-.35,15.14,15.14,0,0,0-20.59,0,1.2,1.2,0,0,1-1.7-1.69,17.54,17.54,0,0,1,24,0,1.2,1.2,0,0,1,0,1.7,1.18,1.18,0,0,1-.84.35Zm0,0" transform="translate(0 -0.8)"/><path d="M46,26.58a1.19,1.19,0,0,1-.9-.41,1.2,1.2,0,0,1,.11-1.7,9.94,9.94,0,0,1,12.2-.18,1.2,1.2,0,0,1-1.52,1.86,7.15,7.15,0,0,0-4.47-1.46,7,7,0,0,0-4.62,1.58,1.2,1.2,0,0,1-.8.3Zm0,0" transform="translate(0 -0.8)"/><path d="M51.55,76.1h-.69a1.2,1.2,0,0,1,0-2.4h.69A1.43,1.43,0,0,0,52.69,73c2.11-4.05,4.67-4.31,6-4.45a3.6,3.6,0,0,0,.54-.07c.14,0,.21-.41.21-.59,0-.33-.42-.55-.42-.55-1.9-1-6.53-1.17-8.15-1.14h0a1.2,1.2,0,0,1,0-2.4c.66,0,6.5-.09,9.25,1.38a3.09,3.09,0,0,1,1.76,2.68,2.93,2.93,0,0,1-1.82,2.88,4.72,4.72,0,0,1-1.09.2c-1.18.12-2.64.26-4.14,3.13a3.77,3.77,0,0,1-3.27,2.06Zm0,0" transform="translate(0 -0.8)"/><path d="M42.45,69A1.2,1.2,0,0,1,41.26,68a33.07,33.07,0,0,1,3.87-17.72,1.2,1.2,0,1,1,2.12,1.13,31.1,31.1,0,0,0-3.6,16.33A1.2,1.2,0,0,1,42.59,69Zm0,0" transform="translate(0 -0.8)"/><path d="M41.29,84.67l-.83,0c-6.43-.4-11.36-5.39-11-11.12.38-6,3.74-7.85,6.49-8.31a1.2,1.2,0,0,1,.4,2.37c-1.78.3-4.19,1.26-4.49,6.09-.28,4.41,3.65,8.26,8.75,8.58a10,10,0,0,0,6.75-2,7.45,7.45,0,0,0,3-5.44,1.2,1.2,0,0,1,2.39.15,9.82,9.82,0,0,1-3.93,7.19,12.25,12.25,0,0,1-7.53,2.51Zm0,0" transform="translate(0 -0.8)"/><g class="cls-2"><path d="M61.05,95a1.2,1.2,0,0,1-.11-2.39c11.51-1.08,18.26-5.18,21.9-8.45A19.55,19.55,0,0,0,88,77.29,1.2,1.2,0,0,1,90.14,77l1.21,1.73c.24-1,.61-2.45,1.14-4.38A54,54,0,0,0,94,60.45a1.17,1.17,0,0,1,.13-.6,1.86,1.86,0,0,1,1.45-1.07,2.45,2.45,0,0,1,2,.92,6.18,6.18,0,0,0,2.57,1.85c-1.26-3.92-1.33-10.3-1.32-11.85a48.7,48.7,0,0,0-14.2-33.09A46.26,46.26,0,0,0,51.79,3.2a1.2,1.2,0,0,1,0-2.4,48.65,48.65,0,0,1,34.5,14.11,51.12,51.12,0,0,1,14.9,34.75c0,5.29.74,11.63,2,12.73a1.2,1.2,0,0,1,.32,1.34,1.22,1.22,0,0,1-1.16.75A9.88,9.88,0,0,1,96.37,62a53,53,0,0,1-1.56,13c-1.47,5.28-1.52,6.26-1.5,6.44l0,.1a1.22,1.22,0,0,1-.71,1.36c-.88.38-1,.36-3.29-2.86C87,84.14,79.75,93.26,61.17,95Zm0,0" transform="translate(0 -0.8)"/><path d="M92.06,25.15a1.2,1.2,0,0,1-.19-2.38,9.71,9.71,0,0,0,3.35-1.21c4.46-2.63,5.78-8.38,3-13.1s-8.3-6.27-12.84-3.61a9.61,9.61,0,0,0-4.5,6.08,1.2,1.2,0,0,1-2.34-.57,12,12,0,0,1,5.62-7.58,11.71,11.71,0,0,1,16.12,4.46c3.46,5.88,1.77,13.07-3.86,16.38a12,12,0,0,1-4.18,1.52Zm0,0" transform="translate(0 -0.8)"/></g><path d="M89.23,19.81h-.16a1.2,1.2,0,1,1,.07-2.4,3.16,3.16,0,0,0,2.24-.85,3.13,3.13,0,1,0-5.29-2.36,1.21,1.21,0,0,1-1.23,1.16,1.2,1.2,0,0,1-1.16-1.23A5.53,5.53,0,1,1,93,18.29a5.48,5.48,0,0,1-3.8,1.52Zm0,0" transform="translate(0 -0.8)"/><path d="M70.57,48.67a5.33,5.33,0,1,1,5.34-5.34,5.34,5.34,0,0,1-5.34,5.34Zm0-8.27a2.94,2.94,0,1,0,2,.75,2.94,2.94,0,0,0-2-.75Zm0,0" transform="translate(0 -0.8)"/><path d="M65.57,50.67a1.18,1.18,0,0,1-.79-.3,1.2,1.2,0,0,1-.12-1.69l2.42-2.78a1.2,1.2,0,1,1,1.81,1.58l-2.42,2.78a1.2,1.2,0,0,1-.91.41Zm0,0" transform="translate(0 -0.8)"/><path d="M73.51,41.55a1.19,1.19,0,0,1-.79-.29,1.2,1.2,0,0,1-.12-1.69l2.8-3.22a1.2,1.2,0,0,1,1.81,1.58l-2.8,3.21a1.2,1.2,0,0,1-.91.41Zm0,0" transform="translate(0 -0.8)"/><path d="M73.37,75.53a1.2,1.2,0,0,1-.29-2.37c.71-.18,1.58-.34,1.84-.39C88.2,68.44,91.51,55.44,91.54,55.32c3.95-16.26-6.75-23-6.86-23.09a1.2,1.2,0,1,1,1.25-2c.12.08,12.29,7.77,7.94,25.71-.14.59-3.68,14.49-18.28,19.2l-.15,0s-1,.19-1.77.38a1.05,1.05,0,0,1-.29,0Zm0,0" transform="translate(0 -0.8)"/><path d="M77.3,68.06a1.2,1.2,0,0,1-.51-2.29c11-5.19,10.53-17.67,10.52-17.8a1.2,1.2,0,0,1,2.4-.11c0,.14.5,14.21-11.9,20.08a1.19,1.19,0,0,1-.51.12Zm0,0" transform="translate(0 -0.8)"/><path d="M76.18,62.79a1.2,1.2,0,0,1-.43-2.32c6.82-2.59,7-10.23,7-10.3A1.23,1.23,0,0,1,84,49a1.2,1.2,0,0,1,1.18,1.22c0,.38-.25,9.35-8.58,12.51a1.17,1.17,0,0,1-.43.08Zm0,0" transform="translate(0 -0.8)"/><path d="M62.28,84.67a12.28,12.28,0,0,1-7.54-2.51A9.83,9.83,0,0,1,50.81,75a1.2,1.2,0,1,1,2.39-.15,7.46,7.46,0,0,0,3,5.44,10,10,0,0,0,6.75,2c5.11-.32,9-4.17,8.76-8.58-.3-4.84-2.71-5.79-4.49-6.09a1.2,1.2,0,1,1,.4-2.37c2.75.46,6.11,2.28,6.49,8.31.36,5.73-4.58,10.72-11,11.13l-.83,0Zm0,0" transform="translate(0 -0.8)"/><path d="M68.25,17a1.19,1.19,0,0,1-.85-.36,22.19,22.19,0,0,0-15.73-6.27,22.2,22.2,0,0,0-15.73,6.27A1.2,1.2,0,1,1,34.23,15,24.64,24.64,0,0,1,51.67,8,24.62,24.62,0,0,1,69.1,15a1.2,1.2,0,0,1-.85,2Zm0,0" transform="translate(0 -0.8)"/><path d="M40.52,22a1.2,1.2,0,0,1-.85-2,17.53,17.53,0,0,1,24,0A1.2,1.2,0,1,1,62,21.6a15.14,15.14,0,0,0-20.59,0,1.2,1.2,0,0,1-.85.35Zm0,0" transform="translate(0 -0.8)"/><path d="M57.08,26.58a1.21,1.21,0,0,1-.79-.3,7,7,0,0,0-4.62-1.58,7.17,7.17,0,0,0-4.47,1.46,1.2,1.2,0,0,1-1.51-1.86,9.94,9.94,0,0,1,12.19.18,1.2,1.2,0,0,1-.79,2.1Zm0,0" transform="translate(0 -0.8)"/><path d="M52.25,76.1h-.69A3.78,3.78,0,0,1,48.28,74c-1.48-2.84-2.95-3-4.12-3.11a4.76,4.76,0,0,1-1.09-.2,2.94,2.94,0,0,1-1.82-2.92A3.07,3.07,0,0,1,43,65.14c2.75-1.47,8.59-1.4,9.25-1.38A1.2,1.2,0,0,1,53.44,65a1.16,1.16,0,0,1-1.22,1.18c-1.62,0-6.25.11-8.09,1.11l-.07,0s-.41.22-.41.52.07.57.21.61a3.8,3.8,0,0,0,.54.07c1.37.14,3.93.39,6,4.41a1.43,1.43,0,0,0,1.15.77h.69a1.2,1.2,0,1,1,0,2.4Zm0,0" transform="translate(0 -0.8)"/><path d="M60.77,69h-.14a1.2,1.2,0,0,1-1.06-1.33A31.19,31.19,0,0,0,56,51.36a1.2,1.2,0,1,1,2.12-1.12A33.08,33.08,0,0,1,62,68,1.2,1.2,0,0,1,60.77,69Zm0,0" transform="translate(0 -0.8)"/><path d="M51.35,93c-10.14,0-16.2-4-16.2-10.6a1.2,1.2,0,1,1,2.4,0c0,5.21,5,8.2,13.8,8.2,4.91,0,13.22-1,13.77-7.5a1.2,1.2,0,0,1,2.39.2C67.21,86.92,64.7,93,51.35,93Zm0,0" transform="translate(0 -0.8)"/></g></g></svg>