<svg xmlns="http://www.w3.org/2000/svg" viewBox="0 0 97.12 97.38"><title>Ресурс 10</title><g id="Слой_2" data-name="Слой 2"><g id="Слой_1-2" data-name="Слой 1"><path d="M13.85,33.91a13.85,13.85,0,1,1,13.3-17.73c0,.07,3.28,10.09,9.8,11.05a1.2,1.2,0,0,1-.35,2.37c-8-1.18-11.6-12.26-11.75-12.73a11.46,11.46,0,1,0-3.73,12,1.2,1.2,0,1,1,1.53,1.85,13.88,13.88,0,0,1-8.8,3.16Zm0,0" transform="translate(0 -0.62)"/><path d="M18.92,32.75a1.16,1.16,0,0,1-.41-.07,1.2,1.2,0,0,1-.72-1.53,12.64,12.64,0,0,0-11.89-17,12.69,12.69,0,0,0-2.1.19A1.2,1.2,0,0,1,3.4,12a15.25,15.25,0,0,1,2.49-.22A15.09,15.09,0,0,1,21,26.82,15,15,0,0,1,20,32a1.2,1.2,0,0,1-1.12.79Zm0,0" transform="translate(0 -0.62)"/><path d="M4.16,59.91a1.2,1.2,0,0,1-.4-2.33l.62-.22c10.76-3.8,20.93-7.4,21.34-13.8.54-8.49,5.42-12.1,6.1-12.57C35.3,28.11,46.42,18.9,47.16,18.45a2.71,2.71,0,0,0,.21-.91V3.79A18.37,18.37,0,0,0,41.65,3a34.1,34.1,0,0,0-20.33,6.6l-.18.12a1.2,1.2,0,1,1-1.38-2l.17-.12a36.46,36.46,0,0,1,21.72-7c1,0,5.94.08,7.7,1.59a1.21,1.21,0,0,1,.42.91V17.6c0,.41-.17,2.18-1.37,2.91C47.71,21,39,28.16,33.31,32.88l-.12.09c-.18.12-4.58,3.08-5.07,10.75-.51,8-11.4,11.84-22.93,15.91l-.62.22a1.23,1.23,0,0,1-.4.07Zm0,0" transform="translate(0 -0.62)"/><path d="M48.64,98c-12.1,0-29.83-5.91-40-22.58C4.21,68.13,1.77,57.79,1.38,44.7a118.45,118.45,0,0,1,.75-17.46,1.2,1.2,0,0,1,2.38.32c0,.3-3.91,30,6.2,46.62C20.35,90,37.17,95.6,48.64,95.6a1.2,1.2,0,0,1,0,2.4Zm0,0" transform="translate(0 -0.62)"/><path d="M12.66,80.11a1.16,1.16,0,0,1-.44-.09,1.2,1.2,0,0,1-.67-1.56l3-7.57C14.7,70.63,16.93,66,21,66c3.36,0,18,1,18.58,1.09.05,0,4.66.33,6.4-2.1a8.82,8.82,0,0,0,1.44-2.54,1.2,1.2,0,0,1,2-1.18c1.14,1.1-.2,3.31-1.48,5.11-2.53,3.54-8.29,3.11-8.54,3.09S24.26,68.43,21,68.43c-2.52,0-4.2,3.39-4.22,3.43l-3,7.5a1.2,1.2,0,0,1-1.11.76Zm0,0" transform="translate(0 -0.62)"/><path d="M48.57,85.09c-24.2,0-25.63-17.49-25.64-17.67a1.2,1.2,0,0,1,2.39-.16c0,.63,1.36,15.43,23.25,15.43a1.2,1.2,0,1,1,0,2.4Zm0,0" transform="translate(0 -0.62)"/><path d="M2.6,45.37a1.2,1.2,0,0,1-.69-2.18c.52-.37,13-8.9,24.88-2.46a1.2,1.2,0,0,1-1.14,2.11C15.1,37.11,3.41,45.08,3.29,45.16a1.17,1.17,0,0,1-.68.21Zm0,0" transform="translate(0 -0.62)"/><path d="M40.13,39.39a1.2,1.2,0,0,1-.88-2L44,32.19a1.2,1.2,0,0,1,1.77,1.62L41,39a1.21,1.21,0,0,1-.89.39Zm0,0" transform="translate(0 -0.62)"/><path d="M17.11,33.45H17a1.2,1.2,0,0,1-1.1-1.29c0-.06.44-6.51-3.46-10.5-2.31-2.36-5.73-3.45-10.16-3.22A1.2,1.2,0,1,1,2.17,16c5.16-.27,9.2,1.06,12,4,4.66,4.79,4.15,12,4.12,12.35a1.2,1.2,0,0,1-1.2,1.11Zm0,0" transform="translate(0 -0.62)"/><path d="M83.27,33.91a13.87,13.87,0,0,1-8.8-3.16A1.2,1.2,0,1,1,76,28.91a11.44,11.44,0,1,0-3.73-12.06c-.16.5-3.75,11.58-11.75,12.76a1.2,1.2,0,0,1-.35-2.37c6.53-1,9.77-11,9.8-11.08a13.86,13.86,0,1,1,13.3,17.76Zm0,0" transform="translate(0 -0.62)"/><path d="M78.2,32.75A1.2,1.2,0,0,1,77.07,32a15,15,0,0,1,14.15-20.2,15.17,15.17,0,0,1,2.49.22,1.2,1.2,0,1,1-.39,2.37,13,13,0,0,0-2.1-.19,12.64,12.64,0,0,0-11.9,17,1.2,1.2,0,0,1-.72,1.54,1.12,1.12,0,0,1-.41.07Zm0,0" transform="translate(0 -0.62)"/><path d="M93,59.91a1.21,1.21,0,0,1-.4-.07l-.62-.22C80.4,55.55,69.51,51.69,69,43.71,68.5,36,64,33,63.93,33l-.12-.09C58.12,28.16,49.41,21,48.7,20.5a3.7,3.7,0,0,1-1.35-2.83V3.12a1.21,1.21,0,0,1,.42-.91C49.53.7,54.5.62,55.47.62a36.46,36.46,0,0,1,21.72,7l.18.13a1.2,1.2,0,1,1-1.39,2l-.18-.13A34.14,34.14,0,0,0,55.47,3a18.45,18.45,0,0,0-5.72.77V17.6a2.12,2.12,0,0,0,.25.88c.7.41,11.81,9.63,15.29,12.51.69.47,5.56,4.08,6.11,12.57.41,6.4,10.57,10,21.34,13.8l.62.22a1.2,1.2,0,0,1-.4,2.33Zm0,0" transform="translate(0 -0.62)"/><path d="M48.48,98a1.2,1.2,0,1,1,0-2.4C60,95.6,76.77,90,86.41,74.18c10.11-16.6,6.24-46.32,6.2-46.62A1.2,1.2,0,0,1,95,27.24a117,117,0,0,1,.75,17.46c-.38,13.09-2.83,23.43-7.28,30.73C78.3,92.09,60.57,98,48.48,98Zm0,0" transform="translate(0 -0.62)"/><path d="M84.46,80.11a1.2,1.2,0,0,1-1.11-.75l-3-7.57s-1.66-3.36-4.19-3.36c-3.27,0-18.26,1.07-18.41,1.08s-6,.45-8.53-3.1c-1.28-1.8-2.62-4-1.48-5.11a1.2,1.2,0,0,1,2,1.18A8.82,8.82,0,0,0,51.15,65c1.74,2.43,6.34,2.1,6.39,2.1.63,0,15.23-1.09,18.59-1.09,4.07,0,6.29,4.6,6.38,4.8l3.06,7.64A1.2,1.2,0,0,1,84.9,80a1.18,1.18,0,0,1-.44.09Zm0,0" transform="translate(0 -0.62)"/><path d="M48.55,85.09a1.2,1.2,0,1,1,0-2.4c22,0,23.23-15.27,23.25-15.43a1.2,1.2,0,0,1,2.39.16c0,.18-1.44,17.67-25.64,17.67Zm0,0" transform="translate(0 -0.62)"/><path d="M94.51,45.37a1.16,1.16,0,0,1-.68-.21c-.12-.08-11.81-8-22.37-2.31a1.2,1.2,0,0,1-1.14-2.11c11.87-6.44,24.36,2.09,24.88,2.46a1.2,1.2,0,0,1-.69,2.18Zm0,0" transform="translate(0 -0.62)"/><path d="M57,39.39A1.19,1.19,0,0,1,56.1,39l-4.76-5.19a1.2,1.2,0,1,1,1.76-1.62l4.76,5.19a1.2,1.2,0,0,1-.89,2Zm0,0" transform="translate(0 -0.62)"/><path d="M80,33.45a1.2,1.2,0,0,1-1.2-1.11c0-.3-.54-7.57,4.12-12.35,2.81-2.89,6.85-4.22,12-4a1.2,1.2,0,1,1-.12,2.39c-4.43-.23-7.85.86-10.16,3.22-3.9,4-3.46,10.44-3.46,10.5a1.2,1.2,0,0,1-1.11,1.29Zm0,0" transform="translate(0 -0.62)"/></g></g></svg>