<svg xmlns="http://www.w3.org/2000/svg" xmlns:xlink="http://www.w3.org/1999/xlink" viewBox="0 0 368 291.32"><defs><style>.cls-1{fill:none;}.cls-2{clip-path:url(#clip-path);}</style><clipPath id="clip-path" transform="translate(0 -0.68)"><rect class="cls-1" y="0.16" width="367.92" height="292.8"/></clipPath></defs><title>Ресурс 29</title><g id="Слой_2" data-name="Слой 2"><g id="Слой_1-2" data-name="Слой 1"><g class="cls-2"><path d="M147.47,234.52c10.27-.29,19.57,8.34,19.57,18.61V286a6,6,0,0,0,6,6H255.2a6,6,0,0,0,5.36-3.28c.41-.79,39.52-77.86,56.7-144a86,86,0,0,0,13.86-6.62c18.76-11.27,28.68-28.29,28.68-49.22a110.53,110.53,0,0,0-4.38-31.47c8.18-3.8,12.6-9.86,12.6-17.81C368,14.85,359.82.68,345.56.68c-8.52,0-19.41,3.71-27.51,10.11C305.17,4.08,289.65.68,271.63.68,254,.68,238.44,4.21,225.47,11,217.35,4.48,206.31.68,197.7.68c-14,0-22.1,13.6-22.43,37.36C157,41.23,122.6,47.6,73.21,58.32c-32.73,7.1-56.68,15.51-67.16,33.4-10.77,18.41-6,44.65,5.18,81C32.71,242.6,63.1,287.5,64.39,289.38a6,6,0,0,0,5,2.62h53.6a6,6,0,0,0,6-6V253.13c0-9.92,8.72-18.34,18.51-18.61Zm142.11-95.36a136.53,136.53,0,0,1-18,1.17,136.44,136.44,0,0,1-18-1.17A38.18,38.18,0,0,1,246.89,117c0-9.94,3.26-24.61,8.12-36.51C260.17,67.84,266.54,60,271.63,60s11.46,7.85,16.62,20.48c4.86,11.9,8.12,26.57,8.12,36.51a38.17,38.17,0,0,1-6.78,22.18ZM267,12.8v40C249.66,59,238.87,99.2,238.87,117a48,48,0,0,0,4.47,20.35,85,85,0,0,1-25-9.57c-15.16-9.11-22.84-22.2-22.84-38.91,0-17.47,5.26-73.57,71.55-76Zm-69.35-.09c5.32,0,11.63,2.12,16.8,5.33a71.68,71.68,0,0,0-11,10.54,77.75,77.75,0,0,0-11.12,17.65c-3-1.52-5.07-3.66-5.07-6.67,0-4.48.5-26.84,10.41-26.84ZM116.93,253.13V280H105.31l-1.14-5.69c-2.27-11.36-.79-20.38,4.4-26.81a29.1,29.1,0,0,1,11.75-8.33,30.45,30.45,0,0,0-3.39,14Zm31.48-30.66c-22.1.59-40.34,6.48-49.2,17.45-7.44,9.21-9.8,21.91-6.84,36.73L93,280H72.6c-6.72-10.54-31.82-52.05-49.87-110.75-12.07-39.27-13.78-58.63-6.3-71.43,7.06-12.07,24.25-20.1,59.32-27.72,50.14-10.88,84.73-17.26,102.54-20.35a23.07,23.07,0,0,0,9.76,7.74,106.44,106.44,0,0,0-4.58,31.37c0,20.93,9.91,37.95,28.67,49.21,15.35,9.22,36.47,14.3,59.48,14.3a140.42,140.42,0,0,0,32.05-3.57c-15.49,55.43-45,116.53-52.2,131.19H222.15L238,225.61a6,6,0,1,0-11.54-3.37L209.62,280H179.07V253.13a30.69,30.69,0,0,0-30.66-30.65Zm176.5-94.73a84.91,84.91,0,0,1-25,9.58A48,48,0,0,0,304.39,117c0-18.17-11.27-59.74-29.32-64.54V12.76c65.52,1.75,72.69,53.58,72.69,76.08,0,16.71-7.68,29.8-22.84,38.91Zm26.26-81.66a77,77,0,0,0-11-17.48,72.15,72.15,0,0,0-11.14-10.75c5.11-3.1,11.27-5.14,16.49-5.14,9.91,0,10.41,22.36,10.41,26.84,0,2.92-1.95,5-4.8,6.53Zm0,0" transform="translate(0 -0.68)"/></g><path d="M230.56,103.07a6,6,0,1,0-4.26-1.75,6.07,6.07,0,0,0,4.26,1.75Zm0,0" transform="translate(0 -0.68)"/><path d="M312.7,91A6,6,0,1,0,317,92.8,6,6,0,0,0,312.7,91Zm0,0" transform="translate(0 -0.68)"/><path d="M271.63,93.85c-9.55,0-16.76,4.29-16.76,10,0,4.86,5.26,8.69,12.75,9.71V125.9h-4.2a4,4,0,1,0,0,8h16.43a4,4,0,1,0,0-8h-4.2V113.54c7.48-1,12.75-4.85,12.75-9.71,0-5.69-7.2-10-16.76-10Zm0,0" transform="translate(0 -0.68)"/></g></g></svg>