<svg xmlns="http://www.w3.org/2000/svg" xmlns:xlink="http://www.w3.org/1999/xlink" viewBox="0 0 367.76 368"><defs><style>.cls-1{fill:none;}.cls-2{clip-path:url(#clip-path);}</style><clipPath id="clip-path" transform="translate(0 -1)"><rect class="cls-1" width="368" height="369"/></clipPath></defs><title>Ресурс 12</title><g id="Слой_2" data-name="Слой 2"><g id="Слой_1-2" data-name="Слой 1"><g class="cls-2"><path d="M220.62,163.15c.51,3.79.62,9.14,1.87,13.48-16.62,5.09-71.2,22-119.47,40A41.41,41.41,0,0,0,80.77,235.3,54.39,54.39,0,0,1,81.84,221a53.33,53.33,0,0,1,25-35.24l55-33a66,66,0,0,0,20.32-94.21l-38-54.95A6,6,0,0,0,133.2,6.27L128.28,45.6A44.54,44.54,0,0,1,104,80L40.25,111.83a72.77,72.77,0,0,0-22,113.24l56.93,64.51c5.74,36.91,23.45,73.78,24.55,76a6,6,0,0,0,5.42,3.39h33.11a6,6,0,0,0,6-5.27l9-67.53a39,39,0,0,0,7.45-18.25h41.77a20.91,20.91,0,0,1,20.88,20.88V363a6,6,0,0,0,6,6H279a6,6,0,0,0,6-5.39l13.45-127.77c13.86-2.48,28.32-11.4,40.71-25.32,13.33-15,19.76-33.95,21.56-47.35,3.46-25.86,7.09-71.19,7.09-73.34a6,6,0,0,0-10.28-4.28s-36.27,36.51-36.56,37.24a123.85,123.85,0,0,0-60.55,0c-.29-.72-36.55-37.22-36.55-37.22a6,6,0,0,0-10.28,4.28c0,2.16,3.63,47.47,7.09,73.33Zm67.45,35.53a35.39,35.39,0,0,0-11-23.48c-13.11-12.46-34.12-14.63-44-14.93,2.46-11.5,15.68-28.07,53.56-29.16v36.2a4,4,0,1,0,8,0v-36.2c35.59,1.09,50.88,16.63,53.56,29.16-9.88.3-30.88,2.47-44,14.92a35.43,35.43,0,0,0-11,23.48Zm67.28-94c-.45,11.13-1.37,25.05-3.07,37.29a47.74,47.74,0,0,0-8-8,59.1,59.1,0,0,0-11.34-6.85Zm-129.41,0,22.41,22.41A53.36,53.36,0,0,0,229,141.69c-1.67-12.16-2.58-25.94-3-37ZM140.24,47.1l3-23.69,29.07,42a54,54,0,0,1-16.61,77l-9.88,5.93L104.42,93.22l4.93-2.46A56.55,56.55,0,0,0,140.24,47.1Zm-113,170a60.73,60.73,0,0,1,18.38-94.5L97.12,96.87l41.73,55.64-38.18,22.91a65.85,65.85,0,0,0-26.73,82.31,95.81,95.81,0,0,0-.56,11.64ZM132.92,357H127.7V317.08a87.53,87.53,0,0,0,11.06-6.83Zm140.62,0H260.33l2.3-76.58a6,6,0,0,0-12-.36L248.28,357h-13V298.82a33,33,0,0,0-32.92-32.93h-47.6a6,6,0,0,0-6,6.4c1.37,21.89-29.17,35.35-29.47,35.48a6,6,0,0,0-3.65,5.54V357H109c-6.87-15.2-33.32-77.73-19.87-111.25a29.84,29.84,0,0,1,18.12-17.81c48.86-18.15,104.27-35.31,119.65-40a100.44,100.44,0,0,0,15.32,22.64c13.38,15,29.2,24.24,44.05,25.79Zm17.11-132.45c-26.49,0-54.41-34.54-57.7-56.18,6.74.22,19.22,1.4,29.67,6.6a5.85,5.85,0,0,0-.94-.08,6,6,0,1,0,4.59,2.13,34.07,34.07,0,0,1,5.26,4.05,27.26,27.26,0,0,1,8.52,18.15,5.18,5.18,0,0,0-.56,2.49c0,4.26,5.69,9.67,9.09,12.51a3.2,3.2,0,0,0,4.13,0c3.4-2.84,9.09-8.25,9.09-12.51a5.15,5.15,0,0,0-.56-2.47A27.26,27.26,0,0,1,309.75,181a33.54,33.54,0,0,1,5.25-4,6,6,0,1,0,4.62-2.16,6.39,6.39,0,0,0-.91.08c10.43-5.17,22.89-6.35,29.63-6.59-3.3,21.64-31.21,56.18-57.7,56.18Zm0,0" transform="translate(0 -1)"/></g></g></g></svg>