<svg xmlns="http://www.w3.org/2000/svg" xmlns:xlink="http://www.w3.org/1999/xlink" viewBox="0 0 283.16 368"><defs><style>.cls-1{fill:none;}.cls-2{clip-path:url(#clip-path);}</style><clipPath id="clip-path" transform="translate(0 -1)"><rect class="cls-1" width="284" height="369"/></clipPath></defs><title>Ресурс 3</title><g id="Слой_2" data-name="Слой 2"><g id="Слой_1-2" data-name="Слой 1"><g class="cls-2"><path d="M23.25,257.34c0-6.19,1.87-11.57,5.52-14.41,6-4.64,16.28-4.73,23.76-3.86a46.18,46.18,0,0,0-2.88,5.83C32.8,286,68,362.33,69.53,365.57A6,6,0,0,0,74.93,369h32.36a6,6,0,0,0,5.92-5.38L119.28,300s0-.09,0-.14a38.18,38.18,0,0,0,6.89-14.19c6.73,3.48,16.32,8.55,22.51,12.32,10.21,6.22,15.17,13,15.17,20.85V363A6,6,0,0,0,169.8,369h46.12a6,6,0,0,0,5.92-5.35l25.55-251.19c16.76-12.57,26.83-42.91,26.83-60.66a32,32,0,0,0-.5-5.73l4.2-4.2A17.79,17.79,0,0,0,283,27.25l-1.84-16.59a6,6,0,0,0-10.12-3.55L258.22,20a18,18,0,0,0-3.84,5.74c-1-.33-2-.63-3.07-.91l2.76-8.28a7.83,7.83,0,1,0-7.4-2.89l-3.23,9.68a93.73,93.73,0,0,0-11.9-.7,91.35,91.35,0,0,0-11.39.66L217.06,14a7.81,7.81,0,1,0-7.55,2.45l2.77,8.3c-1.1.29-2.15.59-3.15.92A18,18,0,0,0,205.31,20L192.44,7.11a6,6,0,0,0-10.12,3.55l-1.84,16.59a17.79,17.79,0,0,0,5.13,14.63l3.85,3.86a29.83,29.83,0,0,0-.61,6.07c0,1.14.06,2.34.15,3.55l-35.42,127.1a3.93,3.93,0,0,0-.15,1.07v21.23c-17.23,1-46.29,4.69-80.58,17.42a40.05,40.05,0,0,0-11.31,6.38c-5.15-1.16-26.86-5.24-40,5-6.39,4.94-9.76,12.21-10,21.58a14,14,0,0,0-7.13,5c-9.36,12.38-1.47,26.13,4,31.67a5.94,5.94,0,0,0,7.14,1C22.38,289,33.87,277.89,28,263.66a15.31,15.31,0,0,0-4.75-6.32ZM252.91,8.8l-.16-.07a.09.09,0,0,1,.06,0,.11.11,0,0,1,.1.09ZM13.78,279.24c-1.77-3.22-3.09-7.79,0-11.93a1.87,1.87,0,0,1,1.34-.87h.13c.65.09,1.28.74,1.7,1.74,1.89,4.57-.63,8.49-3.22,11ZM243.13,35.18,231.54,82.46,220,35.12a100.75,100.75,0,0,1,11.55-.61,90.77,90.77,0,0,1,11.59.67Zm-11.59,71.11c-4,0-8.57-2.93-13-8.16,1.68-5.19,6.71-8.67,13.18-8.67s11.68,3.61,13.26,9c-4.18,4.82-8.78,7.87-13.41,7.87ZM200.75,51.81c0-3.07,0-10.67,11.44-14.7l11.68,47.38a19,19,0,0,0-9.64,7.85c-1.07-1.64-2.12-3.4-3.14-5.3-6.18-11.44-10.33-25.6-10.33-35.24ZM194,33.47a6,6,0,0,1-1.72-4.91l.48-4.28,4.11,4.12a6,6,0,0,1,1.34,2l.16.81A25.83,25.83,0,0,0,195,34.46ZM161.37,184.07l31-111.32a108.54,108.54,0,0,0,5.43,14.34l-32.5,117.35c-1.13,0-2.46,0-3.95,0Zm-26.76,34.59,13,19.61-10.07,5L110,236.4l-5.81-11.63a273.54,273.54,0,0,1,30.46-6.12Zm-74.7,32.74,12.54,6.27v19l-14,14c-2.2-14.3-2.41-28.3,1.43-39.26ZM96.25,357.1V318.51a82.15,82.15,0,0,0,9.89-6.11l-4.27,44.7ZM226.94,195.94,212.1,191l6.29-25.14,12-4Zm4.35-42.74L213.81,159a4,4,0,0,0-2.59,2.8l-7.7,30.81a4,4,0,0,0,2.59,4.73l20,6.67L210.54,357.1H199.12l2-38.13a5.95,5.95,0,1,0-11.88-.62l-2,38.75H175.75V318.81c0-12.13-7-22.56-20.87-31-10.75-6.55-30.35-16.36-31.18-16.77a6,6,0,0,0-8.6,5.69c1.26,20.07-26.87,32.47-27.15,32.59a6,6,0,0,0-3.61,5.47V357.1H78.79c-3.75-8.64-13.44-32.33-18.58-57l19-19a4,4,0,0,0,1.16-2.8V255.21a4,4,0,0,0-2.19-3.55l-14.87-7.44A26.63,26.63,0,0,1,77,233.33c6.66-2.48,13.14-4.59,19.36-6.4l7.33,14.65a4,4,0,0,0,2.58,2.07l30.81,7.7a4,4,0,0,0,1,.12,4,4,0,0,0,1.77-.42l15.41-7.7a4,4,0,0,0,1.53-5.75l-13.36-20c16-1.69,25.82-1.12,26-1.11a6,6,0,0,0,6.13-4.35L206.14,101.6c7.71,10.76,16.53,16.57,25.39,16.57a23.56,23.56,0,0,0,3.33-.24Zm18-60.62a19,19,0,0,0-10.06-8.18L250.9,37c11.42,3.93,11.42,11.37,11.42,14.77,0,11.91-5.39,28.93-13,40.77Zm15.82-61.21.18-.92a6,6,0,0,1,1.34-2l4.11-4.12.48,4.28a6,6,0,0,1-1.72,4.9l-1.11,1.11a25,25,0,0,0-3.29-3.21Zm0,0" transform="translate(0 -1)"/></g><path d="M214.68,69.63a4,4,0,1,0-2.8,1.16,4,4,0,0,0,2.8-1.16Zm0,0" transform="translate(0 -1)"/><path d="M225.31,92.85a3.18,3.18,0,0,0-2.25.93,3.17,3.17,0,1,0,4.49,4.49,3.17,3.17,0,0,0-2.24-5.42Zm0,0" transform="translate(0 -1)"/><path d="M238.29,92.85a3.18,3.18,0,1,0,2.24.93,3.21,3.21,0,0,0-2.24-.93Zm0,0" transform="translate(0 -1)"/><path d="M250.8,62.87A4,4,0,1,0,253.6,64a4,4,0,0,0-2.8-1.16Zm0,0" transform="translate(0 -1)"/><path d="M199.66,235.84H168.85a4,4,0,0,0-3.85,4.93l7.7,30.81a4,4,0,0,0,3.85,3h23.11a4,4,0,0,0,2.81-1.16l7.7-7.7a4,4,0,0,0,1-4.06l-7.7-23.11a4,4,0,0,0-3.76-2.71ZM198,266.65H179.65l-5.72-22.88H196.8l6,18.07Zm0,0" transform="translate(0 -1)"/></g></g></svg>