<svg xmlns="http://www.w3.org/2000/svg" xmlns:xlink="http://www.w3.org/1999/xlink" viewBox="0 0 362.71 368"><defs><style>.cls-1{fill:none;}.cls-2{clip-path:url(#clip-path);}</style><clipPath id="clip-path" transform="translate(0)"><rect class="cls-1" width="363" height="368"/></clipPath></defs><title>Ресурс 28</title><g id="Слой_2" data-name="Слой 2"><g id="Слой_1-2" data-name="Слой 1"><g class="cls-2"><path d="M168.57,258.57a27.94,27.94,0,0,1,23.8,29.14c-1.84,31.14-3.89,73.6-3.91,74a6,6,0,0,0,6,6.27h46.28a6,6,0,0,0,5.76-4.36c.34-1.23,30.55-108.48,56.23-187.49,23.26-15.83,39.79-38.35,42.95-62.08A27.69,27.69,0,0,0,338,61,124.21,124.21,0,0,0,323.89,34.4C308.25,12.21,288.18,0,267.39,0s-40.86,12.21-56.5,34.4a121.21,121.21,0,0,0-10,17c-31.86,10-44.25,27.43-56.21,44.29-2.4,3.39-4.68,6.59-7.12,9.75-2.15,2.78-4.24,5.67-6.26,8.46-14.7,20.32-29.91,41.33-85.52,50.11C26.07,167.18,12.49,176.57,5.43,192-19.64,246.73,50,360.17,53,365a6,6,0,0,0,5.08,2.83H105a6,6,0,0,0,6-5.86l2.25-111.07s41.52,5.73,55.35,7.69ZM188.5,99.46q-.48-.5-.92-1a15.75,15.75,0,0,1,2.33-22.15,16,16,0,0,1,2.39-1.59,115.35,115.35,0,0,0-3.8,24.77ZM87.89,355.84l-2.71-76.19a27.76,27.76,0,0,1,16-26.17L99.13,355.84Zm148.3.2H224.48l27.92-123.93a6,6,0,0,0-11.67-2.62L212.23,356H200.71c.64-13,2.18-43.68,3.59-67.63a39.74,39.74,0,0,0-34-41.68l-51.66-7.42a39.75,39.75,0,0,0-45.38,40.76l2.7,75.77H61.47a517.69,517.69,0,0,1-30.55-60.48C12.26,250.85,7.21,216.82,16.31,197c5.36-11.7,15.61-18.6,31.34-21.08,60.53-9.55,78-33.65,93.35-54.91,2.06-2.85,4-5.54,6-8.16,2.59-3.36,5-6.81,7.41-10.15,5.74-8.09,11.33-15.95,19.09-22.88a27.81,27.81,0,0,0-1.26,5.84,27.72,27.72,0,0,0,16.88,28.47c3,22.38,15.42,42.5,36.38,58.69A138.57,138.57,0,0,0,262,193a5.94,5.94,0,0,0,1.91.31,6,6,0,0,0,1.51-.19,133.68,133.68,0,0,0,21.93-8.44C265.55,253,241.8,336.25,236.19,356Zm62.89-191.82a135.62,135.62,0,0,1-34.91,16.84,131.21,131.21,0,0,1-31.61-17.95c-21.36-16.6-32.19-36.73-32.19-59.8,0-20.82,7.58-44,20.28-62C234,22.37,250.6,12,267.39,12s33.39,10.41,46.73,29.33c12.7,18,20.29,41.2,20.29,62,0,24.37-11.88,44.87-35.32,60.92Zm47.21-64.75a115.53,115.53,0,0,0-3.8-24.78,15.69,15.69,0,0,1,3.8,24.78Zm0,0" transform="translate(0)"/></g><path d="M267.39,59.16a34.1,34.1,0,1,0-44.83,51.06,30.4,30.4,0,0,0-6.33,18.23c0,10.46,5.61,20.14,15.79,27.27,9.53,6.67,22.1,10.35,35.38,10.35s25.85-3.68,35.38-10.35c10.18-7.12,15.79-16.81,15.79-27.27a30.35,30.35,0,0,0-6.34-18.22,34.1,34.1,0,1,0-44.83-51.06Zm46.74,23.6a22.08,22.08,0,0,1-13.68,20.46,6,6,0,0,0-1.66,10c3.56,3.13,7.81,8.3,7.81,15.21,0,13.9-18,25.65-39.21,25.65s-39.2-11.75-39.2-25.65c0-6.9,4.25-12.08,7.81-15.21a6,6,0,0,0-1.66-10A22.14,22.14,0,1,1,262.16,72a6,6,0,0,0,10.46,0,22.14,22.14,0,0,1,41.51,10.72Zm0,0" transform="translate(0)"/><path d="M288.9,84.26a4,4,0,0,0,2.82,6.81,4,4,0,0,0,4-4,4,4,0,0,0-6.81-2.82Zm0,0" transform="translate(0)"/><path d="M243.06,83.09a4,4,0,0,0-4,4,4,4,0,1,0,6.81-2.82,4,4,0,0,0-2.82-1.16Zm0,0" transform="translate(0)"/><path d="M274.34,106a3.19,3.19,0,1,0,0,6.38,3.19,3.19,0,0,0,2.25-5.45,3.24,3.24,0,0,0-2.25-.93Zm0,0" transform="translate(0)"/><path d="M262.7,111.4a3.19,3.19,0,1,0-4.51,0,3.19,3.19,0,0,0,4.51,0Zm0,0" transform="translate(0)"/><path d="M271.45,139.91h-8.11a4,4,0,0,0,0,8h8.11a4,4,0,1,0,0-8Zm0,0" transform="translate(0)"/></g></g></svg>