<svg xmlns="http://www.w3.org/2000/svg" xmlns:xlink="http://www.w3.org/1999/xlink" viewBox="0 0 368 271.44"><defs><style>.cls-1{fill:none;}.cls-2{clip-path:url(#clip-path);}</style><clipPath id="clip-path" transform="translate(0 -0.56)"><rect class="cls-1" y="0.08" width="367.92" height="272.88"/></clipPath></defs><title>Ресурс 10</title><g id="Слой_2" data-name="Слой 2"><g id="Слой_1-2" data-name="Слой 1"><path d="M311.81,50.71a6,6,0,1,0,4.27,1.76,6.1,6.1,0,0,0-4.27-1.76Zm0,0" transform="translate(0 -0.56)"/><g class="cls-2"><path d="M231.57,50.71a6,6,0,1,0,4.28,1.76,6.09,6.09,0,0,0-4.28-1.76Zm0,0" transform="translate(0 -0.56)"/><path d="M347.94,61.76a41.37,41.37,0,0,0-5-19.76,26.09,26.09,0,1,0-46.75-20h-49a26.09,26.09,0,0,0-50.32-3.83c-4.3-.49-8.84-1-13.6-1.36-30.66-2.61-76.09-3.23-118.38,8.63C38,32.94,18.4,48.2,8.16,69.52-4.61,96.1-2.36,131.3,14.65,171.3c25,58.89,51,96.53,52.12,98.11a6,6,0,0,0,5,2.59h56.7a6,6,0,0,0,6-6V231.2c0-10.66,9.37-19.71,19.89-20,11-.31,21,9,21,20V266a6,6,0,0,0,6,6h86.89a6,6,0,0,0,4.91-2.52c1.48-2.05,30.24-42.51,50.2-96.38C348,173,368,152.21,368,127.58c0-18.62-11.42-35.35-27.62-42.1a40.87,40.87,0,0,0,7.56-23.72Zm-140.41,0c0-14.94,12.16-27.73,27.1-27.73h74.13c14.95,0,27.1,12.79,27.1,27.73a28.42,28.42,0,0,1-8.7,20.47c-1.31-.12-109.63-.12-110.93,0a28.42,28.42,0,0,1-8.7-20.47ZM321.84,12.64a14,14,0,0,1,13,19.27,39,39,0,0,0-26.06-10h-.11a14,14,0,0,1,13.19-9.32Zm-100.29,0A14,14,0,0,1,234.73,22h-.1a39,39,0,0,0-26.06,10,13.87,13.87,0,0,1-1-5.26,14,14,0,0,1,14-14ZM122.39,231.2v28.71H109.51l-1.25-6.27c-2.42-12.11-.83-21.74,4.72-28.62,3.15-3.9,7.63-7,13.38-9.25a31.9,31.9,0,0,0-4,15.43Zm-25.2,28.71H75c-6.25-9.48-28.31-44.25-49.19-93.34C10.16,129.86,7.84,98.11,19.05,74.75,27.74,56.65,44.73,43.61,68.18,37,112.92,24.48,162,26.34,195.69,30.21A26,26,0,0,0,200.46,42a41.36,41.36,0,0,0-5,19.76A40.87,40.87,0,0,0,203,85.48c-16.2,6.75-27.62,23.48-27.62,42.1,0,24.7,20.1,45.53,44.8,45.53h90.27a457.66,457.66,0,0,1-45.31,86.81H232.93L249.86,202a6,6,0,0,0-11.6-3.39l-17.92,61.3H187.47V231.21c0-17.7-14.4-32.34-32.11-32.11-23.29.31-42.48,6.81-51.79,18.34-7.8,9.67-9.5,26.91-6.38,42.49ZM355.92,127.58c0,18-14.68,33.45-32.72,33.45h-103c-18,0-32.71-15.41-32.71-33.45s14.67-33.45,32.71-33.45h103c18,0,32.72,15.41,32.72,33.45Zm0,0" transform="translate(0 -0.56)"/></g><path d="M217,108a19.57,19.57,0,1,0,19.57,19.57A19.59,19.59,0,0,0,217,108Zm0,31.09a11.52,11.52,0,1,1,11.52-11.52A11.53,11.53,0,0,1,217,139.1Zm0,0" transform="translate(0 -0.56)"/><path d="M326.36,108a19.57,19.57,0,1,0,19.57,19.57A19.59,19.59,0,0,0,326.36,108Zm0,31.09a11.52,11.52,0,1,1,11.52-11.52,11.53,11.53,0,0,1-11.52,11.52Zm0,0" transform="translate(0 -0.56)"/></g></g></svg>