<svg xmlns="http://www.w3.org/2000/svg" xmlns:xlink="http://www.w3.org/1999/xlink" viewBox="0 0 367.74 307.77"><defs><style>.cls-1{fill:none;}.cls-2{clip-path:url(#clip-path);}</style><clipPath id="clip-path" transform="translate(0 -0.23)"><rect class="cls-1" y="0.08" width="367.92" height="308.88"/></clipPath></defs><title>Ресурс 4</title><g id="Слой_2" data-name="Слой 2"><g id="Слой_1-2" data-name="Слой 1"><g class="cls-2"><path d="M109.65,266.51a40.93,40.93,0,0,0,10.49-19.75c7.89-2.26,27-7.53,36-8.43,11.25-1.12,27.52,1.8,38.5,10.85,7.4,6.1,11.62,14.27,12.54,24.27,1.59,17.19,1.75,28.46,1.76,28.57a6.05,6.05,0,0,0,6.05,6h45.18a6,6,0,0,0,4.77-2.34c24.11-31,56.45-107.5,64.46-137a89.74,89.74,0,0,0,19.06-21.88C360.52,127.69,366,106.17,366,94.25a67,67,0,0,0-1.36-13.67c10.74-28.36-10.11-75.34-11-77.31a5.24,5.24,0,0,0-9.62.23l-15.14,37.4c-13.9-5.18-28.32-6-36.33-6s-22.16.84-35.95,5.89L241.54,3.51a5.24,5.24,0,0,0-9.63-.23c-.73,1.59-14.75,32.34-14.33,59a357.23,357.23,0,0,0-46.49-5.93C136.68,54.3,87.25,56.89,47.2,81c-42.47,25.57-56.66,72.8-41,136.58,11.5,46.94,34.76,85.86,35.74,87.49A6,6,0,0,0,47.1,308H98.4a6,6,0,0,0,6-5.16Zm239.22-247c4,11.2,9.11,28.43,8.68,43.29a52.54,52.54,0,0,0-19.1-17.54ZM323.77,51.9a223.4,223.4,0,0,0-12.43,37.94c-4.3,18.55-6.75,37.07-7.42,42.46a28.43,28.43,0,0,0-22.7,0c-.67-5.4-3.12-23.92-7.42-42.46A224,224,0,0,0,261.38,51.9C272.76,47.8,284.82,47,292.57,47s19.81.81,31.2,4.91Zm-68.45,2.56a217.27,217.27,0,0,1,12.23,37.12c3.18,13.72,5.33,27.43,6.47,35.61h-.27c-.64,0-15.62.8-20.25-22.43a4,4,0,0,0-8,.47c-.15,1.94-3.36,47.07,26.27,55.22a24,24,0,0,0,13.32,8.86c-35.07-6.14-53.89-54.49-53.89-75,0-21.52,10.92-33.35,24.1-39.8Zm13,95.66s0,.06,0,.09c-7.86-4.93-11.63-14.56-13.41-23.59a25.64,25.64,0,0,0,19.47,8.6,4,4,0,0,0,.64-.12,3.88,3.88,0,0,0,.28.85,18.57,18.57,0,0,0-7,14.16Zm8.07,0c0-6.68,7.24-12.1,16.14-12.1s16.14,5.43,16.14,12.1-7.24,12.11-16.14,12.11-16.14-5.43-16.14-12.11Zm33.35-14.16a3.79,3.79,0,0,0,.28-.86,4,4,0,0,0,.64.13,25.64,25.64,0,0,0,19.5-8.63c-1.77,9-5.54,18.69-13.43,23.62,0,0,0-.06,0-.09a18.57,18.57,0,0,0-7-14.16ZM236.71,19.54l10.34,25.55a52.84,52.84,0,0,0-19,17.08c-.26-14.69,4.72-31.59,8.69-42.63Zm-156,276.35,0-16a55.67,55.67,0,0,0,14.5-3.72l1-.42-3,20.1Zm176.4,0H244.27L255,256.69a6.05,6.05,0,1,0-11.68-3.2l-11.61,42.4h-10.9c-.22-5.11-.67-13.25-1.62-23.55a46.7,46.7,0,0,0-16.9-32.5c-14.6-12-34.66-14.82-47.41-13.55-12.59,1.26-40.56,9.54-41.74,9.89a6.05,6.05,0,0,0-4.26,4.9c-4.15,27.51-32.89,27.16-34.1,27.13a6.05,6.05,0,0,0-6.23,6.07l.05,21.62h-18c-5.54-9.84-23.35-43.18-32.66-81.2C3.48,155.75,15.43,114.25,53.44,91.37c37.31-22.46,84-24.86,116.65-22.92a346.54,346.54,0,0,1,49,6.54,41.14,41.14,0,0,0,1.51,5,66.45,66.45,0,0,0-1.49,14.32c0,11.9,5.52,33.42,17.64,52.53C247,162.87,264.92,182,292.57,182a55.86,55.86,0,0,0,21.27-4.13c-11.15,32.73-37.09,91.3-56.72,118ZM300,169.3a24,24,0,0,0,13.32-8.86c29.62-8.15,26.42-53.28,26.27-55.22a4,4,0,0,0-8-.47c-4.61,23.16-19.52,22.47-20.24,22.43-.09,0-.18,0-.28,0,1.15-8.18,3.29-21.89,6.47-35.61a217.77,217.77,0,0,1,12.23-37.12C343,60.9,353.93,72.74,353.93,94.26c0,20.55-18.82,68.9-53.89,75Zm0,0" transform="translate(0 -0.23)"/></g><path d="M330.46,89.81a4.44,4.44,0,1,0,0,8.88,4.44,4.44,0,0,0,0-8.87Zm0,0" transform="translate(0 -0.23)"/><path d="M254.6,98.69a4.44,4.44,0,1,0-3.14-1.3,4.47,4.47,0,0,0,3.14,1.3Zm0,0" transform="translate(0 -0.23)"/><path d="M298.62,146.88a3.23,3.23,0,1,0,2.29.94,3.26,3.26,0,0,0-2.29-.94Zm0,0" transform="translate(0 -0.23)"/><path d="M286.52,146.88a3.23,3.23,0,1,0,3.23,3.23,3.23,3.23,0,0,0-3.23-3.23Zm0,0" transform="translate(0 -0.23)"/></g></g></svg>