<svg xmlns="http://www.w3.org/2000/svg" xmlns:xlink="http://www.w3.org/1999/xlink" viewBox="0 0 368 326.83"><defs><style>.cls-1{fill:none;}.cls-2{clip-path:url(#clip-path);}</style><clipPath id="clip-path" transform="translate(0 -0.17)"><rect class="cls-1" y="0.12" width="367.92" height="327.84"/></clipPath></defs><title>Ресурс 13</title><g id="Слой_2" data-name="Слой 2"><g id="Слой_1-2" data-name="Слой 1"><path d="M321.06,87.71a4.42,4.42,0,1,0,1.3,3.13,4.46,4.46,0,0,0-1.3-3.13Zm0,0" transform="translate(0 -0.17)"/><path d="M263.5,95.26A4.42,4.42,0,1,0,260.38,94a4.45,4.45,0,0,0,3.12,1.29Zm0,0" transform="translate(0 -0.17)"/><path d="M187.59,123.27h-.05c-9.93-2.29-13,4.84-15.08,9.56-1.37,3.14-2.78,6.38-5.72,8.63-3.74,2.86-4.29,5.82-4.09,7.8.58,5.77,7.68,9.21,15.2,12.84,2.5,1.21,4.87,2.35,6.72,3.46a12.88,12.88,0,0,0,6.68,2,11.33,11.33,0,0,0,4.72-1c5.83-2.67,10.24-10.39,12.1-21.18,2.23-12.91-11.82-19.94-20.47-22.05ZM200.14,144c-1.52,8.84-4.88,14-7.52,15.24-.8.36-2,.63-3.91-.54-2.16-1.3-4.81-2.58-7.36-3.81-3.31-1.6-9.31-4.5-10.57-6.27a5.76,5.76,0,0,1,.83-.75c4.61-3.51,6.61-8.12,8.22-11.82,2.29-5.27,2.73-5.66,5.87-4.94.56.14,15.93,4.27,14.45,12.88Zm0,0" transform="translate(0 -0.17)"/><path d="M189.41,140.19h-.05a4.44,4.44,0,0,0-5,2.36,4.25,4.25,0,0,0-1.07,3.26,4.84,4.84,0,0,0,3,3.79l.1,0a4.58,4.58,0,0,0,2.35.66,4.52,4.52,0,0,0,1.85-.4,5.31,5.31,0,0,0,2.88-4.07,5,5,0,0,0-4.06-5.64Zm0,0" transform="translate(0 -0.17)"/><path d="M120.57,148.89c-10.39-.19-14.17,11.38-14.77,18.24a.26.26,0,0,1,0,.05c-.62,8.33,5.64,10,9.39,11,2.39.63,4.65,1.23,6.4,2.91a7.94,7.94,0,0,0,5.54,2.56,6.22,6.22,0,0,0,1.58-.2c4.69-1.21,6.48-7,8.36-13.15.59-1.92,1.15-3.74,1.73-5.16a9.81,9.81,0,0,0-.67-9.35c-2.78-4.22-9.18-6.73-17.55-6.88Zm10.78,13.19c-.72,1.75-1.35,3.83-2,5.84a50.35,50.35,0,0,1-2.55,7.05c-3.18-2.9-6.88-3.87-9.6-4.59-3.52-.93-3.55-.93-3.43-2.56,0-.42,1.27-10.89,6.54-10.89h.07c6.14.11,10,1.77,11,3.26.14.22.44.68-.05,1.89Zm0,0" transform="translate(0 -0.17)"/><path d="M92.62,184.21c-3.18-1.27-6.46-2.58-8.8-5.45-3-3.65-5.95-4.11-7.93-3.85-5.75.76-9,8-12.37,15.59-1.13,2.54-2.2,4.94-3.26,6.82-2.74,4.91-1.84,8.92-.6,11.42,2.85,5.74,10.7,9.91,21.54,11.44a16.57,16.57,0,0,0,2.24.16c11.5,0,17.44-13.11,19.18-21.3a.26.26,0,0,0,0-.05c2-10-5.24-12.88-10-14.78Zm2.14,13.18c-.14.61-3.83,16-12.43,14.84-8.88-1.25-14.17-4.45-15.46-7.05-.39-.79-.69-1.94.41-3.93,1.24-2.2,2.43-4.88,3.58-7.47,1.5-3.36,4.21-9.45,5.94-10.75a5.19,5.19,0,0,1,.77.8c3.65,4.5,8.32,6.36,12.06,7.85,5.34,2.13,5.74,2.57,5.12,5.71Zm0,0" transform="translate(0 -0.17)"/><g class="cls-2"><path d="M83.26,196.37a4.24,4.24,0,0,0-3.29-1,4.84,4.84,0,0,0-3.7,3.14l0,.11a4.51,4.51,0,0,0-.12,4.21,5.29,5.29,0,0,0,4.15,2.75,4.93,4.93,0,0,0,.67,0,5.06,5.06,0,0,0,4.84-4.27v-.05a4.44,4.44,0,0,0-2.52-5Zm0,0" transform="translate(0 -0.17)"/><path d="M290.73,29.51c-8.63-.18-26.49.33-38.89,4.59-2.23-1.66-4.93-3.57-7.82-5.43-11.31-7.27-19-9.43-24.26-6.8a13.31,13.31,0,0,0-7,8.94c-2.24,8.77,2.14,22.44,11.71,36.89a61.89,61.89,0,0,0-.52,8.15,88.59,88.59,0,0,0,3,21.42c-25.07,5.47-84.17,18.58-146.21,33.91a50.41,50.41,0,0,0-24.23,13.61c-1.45-11.6-3-36.61,2.58-73.75,2.84-18.71-.42-35.73-9.42-49.2C42.23,10.64,32.05,3.89,25,1.3A18.49,18.49,0,0,0,8.43,3.25l-.27.18A18.23,18.23,0,0,0,0,18.75,18.64,18.64,0,0,0,8.55,34.29C20.64,42.14,25.26,55.82,22.27,75,9.14,159,34.57,218.82,35.64,221.28c1.34,48.37,17,98.42,17.94,101.52A6,6,0,0,0,59.32,327h42.62a6,6,0,0,0,6-5.39l9.32-87.84c5.23-6.79,9.25-14.85,10.25-24.15,0,0,46.68,4.82,61.75,8.81,12.37,3.27,19.85,16.34,19.85,29.17V321a6,6,0,0,0,6,6h54.34a6,6,0,0,0,5.89-4.72l38.55-173.82c12.64-4.78,23.08-13.76,30.76-26.63a95.08,95.08,0,0,0,12.78-46,60.91,60.91,0,0,0-.74-9.7c8.86-13.87,12.85-26.89,10.7-35.34a13.31,13.31,0,0,0-7-8.94c-5.24-2.64-12.95-.48-24.26,6.8-2.72,1.75-5.29,3.56-7.44,5.15-12.17-4-29.6-4.49-38-4.31ZM301.28,46a21.48,21.48,0,0,1,.91-3.76,109.6,109.6,0,0,1,11,.55l.3.17a18.73,18.73,0,0,0-3.9,6.43,18.14,18.14,0,0,1-.87,1.9,3.64,3.64,0,0,1-.45-.07c-1.3-.31-7.43-2.34-7-5.22Zm-41.13,2.1a19.14,19.14,0,0,1,1-4.19,73.78,73.78,0,0,1,10.91-1.44.65.65,0,0,1,.12.18,1.43,1.43,0,0,1-.15.59c-.57,1.4-1.07,3-1.56,4.61-.38,1.23-.92,3-1.45,4.3a18.73,18.73,0,0,0-6.9-3,17.34,17.34,0,0,1-2-.61,3.76,3.76,0,0,1,0-.45Zm33.65-5.81c-.18.78-.34,1.64-.47,2.48-1.34,8.63,7.66,13,13.18,14.29h.05a11.29,11.29,0,0,0,2.36.27c5.23,0,7-4.38,8.08-6.88a10,10,0,0,1,2.64-4.26,7.36,7.36,0,0,0,2.72-3.79c5.59,1.46,10.82,3.87,14.83,7.79a26.38,26.38,0,0,1,7.18,13.47c-7.84.12-27,1.71-39.77,13.77-7.31,6.89-11.33,16-12,27.1h-3.86c-.68-11.09-4.7-20.23-12-27.1C264,67.46,245,65.83,237.07,65.71a26.34,26.34,0,0,1,7.18-13.47,28,28,0,0,1,8-5.36c0,.2,0,.39-.06.58,0,0,0,0,0,.05-.54,7.22,5,8.68,8,9.46a10,10,0,0,1,4.58,2,7,7,0,0,0,4.91,2.24,6,6,0,0,0,1.46-.19c4.13-1.07,5.59-5.8,7.13-10.82.45-1.47.88-2.86,1.31-3.93a9.06,9.06,0,0,0,.72-4Zm-13.46,60.94c-6.1,1.07-18.47,5.13-27,20.46a60.7,60.7,0,0,1-5.86-8.13C239.58,102.56,236,86.23,236,75.84c0-.71,0-1.41,0-2.09,6.09,0,24,1,35.18,11.59a30.27,30.27,0,0,1,9.08,17.94ZM222.93,33.39a3,3,0,0,1,1.47-2.15c2.32-.53,9.21,2.9,16.79,8.06a37.45,37.45,0,0,0-5.36,4.33,36.39,36.39,0,0,0-7.34,10.29C223.54,44.49,222,37,222.93,33.39ZM47.48,155.86C42,165.65,38.63,178.65,37,191.36a284.78,284.78,0,0,1-7.55-51.84,6.1,6.1,0,0,0,2.37.84,4.79,4.79,0,0,0,.67,0,5.06,5.06,0,0,0,4.84-4.27s0,0,0-.05a4.43,4.43,0,0,0-2.52-5,4.25,4.25,0,0,0-3.29-1,4.09,4.09,0,0,0-2.42,1.21,302.1,302.1,0,0,1,3.51-54.78c4.59-29.38-7.45-44-18.36-51.06a8.1,8.1,0,0,1-3.79-6.84,7.71,7.71,0,0,1,3.5-6.56l.27-.18a8,8,0,0,1,7.19-.83c5.49,2,13.53,7.41,19.61,16.53,7.64,11.43,10.25,25.5,7.78,41.83-1,6.39-1.72,12.42-2.32,18.12a4.07,4.07,0,0,0-1.15,0,4.85,4.85,0,0,0-3.7,3.15l0,.1A4.51,4.51,0,0,0,41.46,95a5.27,5.27,0,0,0,4.1,2.74c-2.7,36.4,1.68,57.1,1.92,58.09Zm49,159.08H86.13V258.46a107.41,107.41,0,0,0,17.64-11.24Zm95.74-108.19c-2-.5-8-1.21-8-1.21,2.05-3,3.2-3.12,8.07-3.65,2.11-.22,4.74-.5,8.08-1.11l.26-.05c2.89-.72,7.95-1,9.53.51.59.55.74,1.66.46,3.3a33,33,0,0,0,.53,14.27c.13.57.25,1.1.35,1.63-4.81-6-11.59-11.7-19.32-13.7Zm93.68,12.07c-2.52-.36-6.59-1.29-7.54-3.2s0-5.4,2.4-9.77l.11-.19c2.2-3.94,7.65-13.68,11.52-16Zm-1.72,7.87-19.57,88.25H249l7-66.91a6,6,0,1,0-12-1.25l-7.09,68.16h-15.7V247.6a43.13,43.13,0,0,0-2.69-15,25.24,25.24,0,0,0,.59-15.57,25,25,0,0,1-.46-11.16c1-5.59-1.05-8.83-2.91-10.55-5.31-4.93-15.12-2.86-16.81-2.45-3,.54-5.32.79-7.38,1-6.9.73-10.43,1.43-15.21,9.22a4,4,0,0,0-.48,1.21l-53.32-7.6a6,6,0,0,0-6.87,6.34c1.79,28.56-37.52,45.86-37.91,46a6,6,0,0,0-3.65,5.54v60.3H63.82c-5.91-20.41-29.62-109.68-5.92-152,6-10.72,14.44-17.29,25.78-20.09,62.91-15.55,122.79-28.8,147.07-34.09a86.8,86.8,0,0,0,6.43,13.07c12.14,20,30.66,30.64,53.56,30.64a71,71,0,0,0,10.11-.71l-6.51,29.35c-7.46.64-14.57,10.13-20.43,20.6l-.11.19c-3.92,7-4.79,12.82-2.58,17.26,2,4,6.56,6.58,13,7.49Zm6.51-86.25c-12.32,0-22.68-3.62-31.28-10.79,6.67-13.84,16.87-17.42,21.64-18.35.16,3.19,3.59,7.3,6.41,9.87v7.41h-4.95a3.21,3.21,0,1,0,0,6.43h16.33a3.21,3.21,0,1,0,0-6.43h-4.95v-7.41c2.88-2.52,6.85-6.23,7.13-9.68,4.77.93,14.53,4.58,21.21,18.42-7.83,6.34-18.12,10.52-31.55,10.52Zm37.58-16.35c-8.57-15.68-21.13-19.77-27.26-20.83a30.24,30.24,0,0,1,9-17.91c11.19-10.57,29.22-11.58,35.27-11.61,0,.68,0,1.38,0,2.09,0,11.07-3.74,33-17.1,48.25Zm17.33-80.47a37.9,37.9,0,0,0-6-4.75c7.33-4.92,13.92-8.16,16.18-7.64a3,3,0,0,1,1.46,2.15c.89,3.48-.49,10.47-4.93,19.32a36.12,36.12,0,0,0-6.73-9.09Zm0,0" transform="translate(0 -0.17)"/></g></g></g></svg>