<svg xmlns="http://www.w3.org/2000/svg" xmlns:xlink="http://www.w3.org/1999/xlink" viewBox="0 0 368 297.36"><defs><style>.cls-1{fill:none;}.cls-2{clip-path:url(#clip-path);}</style><clipPath id="clip-path" transform="translate(0 -0.64)"><rect class="cls-1" y="0.16" width="367.92" height="298.8"/></clipPath></defs><title>Ресурс 22</title><g id="Слой_2" data-name="Слой 2"><g id="Слой_1-2" data-name="Слой 1"><g class="cls-2"><path d="M109.13,253.6c5.37-7,9.39-15.36,10-25.09,0,0,28.95-7,38.82-7.53,18.24-1,24.73,17.27,26.12,27.41,2.1,15.29,5.89,44.15,5.92,44.44a5.94,5.94,0,0,0,5.89,5.16h39.86a5.93,5.93,0,0,0,5.44-3.55c.31-.7,27-61.79,52.08-129.92a90.72,90.72,0,0,0,18.58-8.31c19.07-11.46,29.15-28.76,29.15-50A135.7,135.7,0,0,0,340,90c19.42-4,28-15.33,28-35.94,0-27.71-23.49-40.12-46.77-40.12-7.23,0-14.66,0-21,1.44C286.54,5.66,270,.64,251.28.64c-18.5,0-34.92,5.05-48.6,14.81-6.41-1.52-14-1.52-21.35-1.52C158,13.93,134.56,26.33,134.56,54c0,1.4,0,2.74.12,4.05-26.18,2.86-58.92,9-91.17,22.1C24.07,88.07,11,101.76,4.57,120.88-4.58,148.22,0,186,18.26,233.06A447.33,447.33,0,0,0,48,295.12,5.94,5.94,0,0,0,53.13,298h48a5.94,5.94,0,0,0,5.93-5.61ZM181.33,25.8c3.54,0,6.64,0,9.36.16a91.55,91.55,0,0,0-9.16,11.48,118.22,118.22,0,0,0-17,40.85c-16.5-3.56-18.14-13.14-18.14-24.24,0-26.89,29.07-28.25,34.9-28.25ZM82.26,286.13,80,276.94a103.27,103.27,0,0,0,16.53-10.74L95.5,286.13H82.26Zm75.16-77c-11.53.25-45.33,8.68-45.33,8.68a5.93,5.93,0,0,0-4.79,6.2c1.71,27.44-36.1,44.09-36.47,44.25a5.93,5.93,0,0,0-3.43,6.84l2.66,11.05H56.55C46.75,268.88-2.2,178.48,15.83,124.65,21.15,108.74,31.66,97.8,48,91.21c31.17-12.62,63.32-18.55,88.9-21.29,3.71,10.8,12,17.28,25.73,20.08a131.1,131.1,0,0,0-1,16.19c0,19.39,8.38,35.48,24.31,46.85-2.48,12.07-2.68,30.1,9.71,48.82,16.19,24.44,21.52,39.15,23.33,45.68l-9,38.6h-8.84c-1.2-9.07-3.69-28-5.25-39.35-3.24-23.59-18.59-38.1-38.43-37.68Zm87.75-65H242.9a4,4,0,0,0,0,7.91h16.76a4,4,0,1,0,0-7.91h-2.52c6.17-3,9.61-10.69,11.52-18.06a11.77,11.77,0,0,1,2.39,7.13v24.33a141.37,141.37,0,0,1-39.57,0V133.18a11.78,11.78,0,0,1,2.15-6.79c1.82,7.27,5.22,14.77,11.52,17.73Zm6.12-10.54c-4.25,0-7.89-13.27-7.89-24.13a3,3,0,0,1,.1-.87c.18-.19,1.39-1.11,7.79-1.11s7.62.93,7.77,1.09a2.27,2.27,0,0,1,.12.9,60.8,60.8,0,0,1-2.62,15.82c-1.94,6.1-4.22,8.32-5.27,8.32ZM226.6,243.63c-2.48-8.09-9.11-23-24.42-46.14a55.76,55.76,0,0,1-9.1-39.92c15.4,8.52,35.92,13.2,58.2,13.2a145.85,145.85,0,0,0,28-2.64c-3.12,8.36-5.69,16.82-9.33,24.57-12.55,26.71-34.05,43.28-43.33,50.93ZM257.21,225c-11.93,29.74-21.71,52.65-25.36,61.12h-9.74l8-34.6A229.28,229.28,0,0,0,257.21,225Zm48.52-79A87.72,87.72,0,0,1,279,156.1V133.18a19.76,19.76,0,0,0-8.57-16.28,74.22,74.22,0,0,0,.63-7.46c0-13.85-14.87-13.85-19.76-13.85s-19.76,0-19.76,13.85A73,73,0,0,0,232,117a19.76,19.76,0,0,0-8.41,16.18V156.1A87.73,87.73,0,0,1,196.82,146c-15.53-9.32-23.4-22.74-23.4-39.86,0-31.59,15.47-90.61,73.31-93.55V69.88a4,4,0,1,0,7.91,0V12.57c58.68,2.12,74.48,59.47,74.48,93.61,0,17.12-7.87,30.53-23.4,39.86Zm32.35-67.78c-3.18-15.08-8.87-29.2-16.62-40.8a89.38,89.38,0,0,0-9.13-11.53c2.61-.1,5.55-.14,8.9-.14,5.82,0,34.89,1.36,34.89,28.25,0,11.07-1.64,20.63-18,24.21Zm0,0" transform="translate(0 -0.64)"/></g><path d="M209.55,108.63a5.94,5.94,0,1,0,4.2,1.74,6,6,0,0,0-4.2-1.74Zm0,0" transform="translate(0 -0.64)"/><path d="M293.34,108.63a5.94,5.94,0,1,0,4.2,1.74,6,6,0,0,0-4.2-1.74Zm0,0" transform="translate(0 -0.64)"/></g></g></svg>