<svg xmlns="http://www.w3.org/2000/svg" xmlns:xlink="http://www.w3.org/1999/xlink" viewBox="0 0 368 308.2"><defs><style>.cls-1{fill:none;}.cls-2{clip-path:url(#clip-path);}</style><clipPath id="clip-path" transform="translate(0 -0.8)"><rect class="cls-1" y="0.12" width="367.92" height="309.84"/></clipPath></defs><title>Ресурс 27</title><g id="Слой_2" data-name="Слой 2"><g id="Слой_1-2" data-name="Слой 1"><g class="cls-2"><path d="M122.11,228.39a42.22,42.22,0,0,0,8.7-20.05s39.37,4,52.08,7.43c10.25,2.73,16.43,13.59,16.43,24.23v63a6,6,0,0,0,6,6H252a6,6,0,0,0,5.87-4.7l17.7-79.45a263.11,263.11,0,0,0,44.18-36C351.31,156.8,368,121.59,368,87.06c0-26.3-10.2-48.46-29.49-64.08C320.84,8.68,296.12.8,268.91.8S217,8.68,199.3,23C180,38.6,169.81,60.76,169.81,87.06A115.36,115.36,0,0,0,173,113.95c-23.52,8.3-52.9,17.75-83.28,25.26a46.69,46.69,0,0,0-9.06,3.23,232.12,232.12,0,0,1,1.76-58.68c2.47-16.28-.26-29.68-8.11-39.81s-18.55-14.19-25-15.86a23.55,23.55,0,0,0-2.11-11.46C43.27,7.89,29.09-5.8,3.75,4.47A6,6,0,0,0,0,10.71C1.31,22.11,9,42.9,29,42.9c.74,0,1.5,0,2.28-.09,5.88-.45,10.41-2.16,13.52-5.11,4.22.88,14.59,3.84,21.39,12.69,6,7.79,8,18.48,6,31.79-4.61,30.42-3,53.68-1.21,66.67a48.54,48.54,0,0,0-10.39,13c-25.29,45.13,4,139,5.25,142.95a6,6,0,0,0,5.73,4.2h36.59a6,6,0,0,0,6-5.37ZM37,28.37c-.76,1.3-3.18,2.2-6.64,2.46C19.14,31.67,14.6,20.59,12.9,14c16.9-4.73,22.8,6.3,23.44,7.63l.05.11C37,23.08,38,26.6,37,28.37ZM102.72,297H95.38V249.82a93.31,93.31,0,0,0,13.27-8.31Zm83.16-92.86c-14.68-3.74-60-8.62-60-8.62a6,6,0,0,0-6.85,6.33c1.5,23.92-31.72,38.55-32,38.69A6,6,0,0,0,83.36,246V297H76c-5.32-18.54-24.94-93.64-5-129.25,5-9,12.1-14.5,21.6-16.84,30.51-7.54,60-17,83.76-25.38,7.59,22.14,21.63,43.81,41.69,64a252,252,0,0,0,45,35.91L247.16,297H235.37l6.38-56.48a6,6,0,1,0-11.95-1.35L223.27,297H211.34V240c0-15.85-10.1-32-25.46-35.89Zm125.49-23.87a254.16,254.16,0,0,1-42.51,34.6,244.16,244.16,0,0,1-42.45-34c-20.34-20.54-44.58-53.48-44.58-93.77,0-51.28,43.73-74.23,87.07-74.23S356,35.78,356,87.06c0,39.45-24.26,72.45-44.61,93.18Zm0,0" transform="translate(0 -0.8)"/></g><path d="M315.56,70.27c-15-9.65-38.61-1.47-46.66,1.79-8-3.27-31.64-11.46-46.62-1.83-7.81,5-11.77,13.68-11.77,25.75,0,9.15,0,26.19,7.31,40.79,9.06,18.1,26.25,27.28,51.08,27.28,22.2,0,39.12-9.35,48.92-27,8.28-14.93,9.51-32.09,9.51-41,0-12.05-4-20.72-11.77-25.75Zm-87,61.11c-6-12.06-6-26.67-6-35.4,0-7.81,2-12.92,6.24-15.62,3-1.91,6.86-2.64,11.05-2.64a62.83,62.83,0,0,1,17.4,3V93.51A64,64,0,0,1,252,118.94L240.58,145h0a34.18,34.18,0,0,1-12-13.64ZM246.21,148a3.32,3.32,0,0,0,.25-.46l11.4-26.07a70.36,70.36,0,0,0,5.79-28V82.92c1.05.41,2,.81,2.76,1.16a6,6,0,0,0,5,0c.77-.35,1.71-.75,2.77-1.16V93.51a70.36,70.36,0,0,0,5.79,28l11.21,25.63c-5.89,3-13.2,4.87-22.25,4.87s-16.45-1.32-22.7-4Zm50.44-4.35-10.82-24.74a64,64,0,0,1-5.25-25.43V80.71c9.14-2.76,21.45-4.86,28.49-.32,4.2,2.71,6.25,7.82,6.25,15.63,0,12-2.29,35.22-18.66,47.66Zm0,0" transform="translate(0 -0.8)"/><path d="M294.29,108a4.43,4.43,0,1,0,3.12,1.3,4.45,4.45,0,0,0-3.12-1.3Zm0,0" transform="translate(0 -0.8)"/><path d="M243.52,116.85a4.41,4.41,0,1,0-3.11-1.29,4.42,4.42,0,0,0,3.11,1.29Zm0,0" transform="translate(0 -0.8)"/><path d="M276.52,141.14h-4.41v-6.61c2.81-2.46,6.7-6.16,6.7-9.5a4.64,4.64,0,0,0-1.55-3.69c-1.67-1.43-3.7-1.11-5.5-.83a12,12,0,0,1-5,0c-1.79-.28-3.83-.6-5.5.83A4.63,4.63,0,0,0,259.7,125c0,3.07,3.29,7,6,9.5v6.61h-4.41a3.21,3.21,0,0,0,0,6.42h15.23a3.21,3.21,0,0,0,0-6.42Zm0,0" transform="translate(0 -0.8)"/><path d="M211.93,66.44a6.69,6.69,0,0,1,1.48-9.34,6.17,6.17,0,0,1,8.89,1.48,5.21,5.21,0,1,0,8.43-6.12,16.62,16.62,0,0,0-23.45-3.79,17.13,17.13,0,0,0-3.79,23.9,5.21,5.21,0,1,0,8.43-6.13Zm0,0" transform="translate(0 -0.8)"/><path d="M337.37,59.84a17,17,0,0,0-6.84-11.17,16.62,16.62,0,0,0-23.45,3.79,5.21,5.21,0,1,0,8.43,6.12,6.16,6.16,0,0,1,8.89-1.48,6.69,6.69,0,0,1,1.48,9.34,5.21,5.21,0,1,0,8.43,6.13,17,17,0,0,0,3.06-12.73Zm0,0" transform="translate(0 -0.8)"/></g></g></svg>