<svg xmlns="http://www.w3.org/2000/svg" xmlns:xlink="http://www.w3.org/1999/xlink" viewBox="0 0 368 363.33"><defs><style>.cls-1{fill:none;}.cls-2{clip-path:url(#clip-path);}</style><clipPath id="clip-path" transform="translate(0 -0.67)"><rect class="cls-1" y="0.16" width="368.88" height="364.8"/></clipPath></defs><title>Ресурс 26</title><g id="Слой_2" data-name="Слой 2"><g id="Слой_1-2" data-name="Слой 1"><g class="cls-2"><path d="M192.28,130.4c-30.17,1.3-67.72,2.91-113.47,25.68A83.06,83.06,0,0,0,64,165.45c-4.48-19.06-11.84-58.77-6.23-95.78,2.76-18.21-.41-34.77-9.17-47.88C41.35,10.88,31.42,4.3,24.57,1.79A18.16,18.16,0,0,0,8.28,3.69L8,3.87a17.91,17.91,0,0,0-8,15A18.3,18.3,0,0,0,8.39,34.18C20,41.74,24.49,54.94,21.6,73.42A257.29,257.29,0,0,0,26.05,175a213.37,213.37,0,0,0,11.11,33.16c-6.67,26-3.87,58.87,8.38,97.89a357.62,357.62,0,0,0,22.12,54.52,6.11,6.11,0,0,0,5.4,3.25H98.47a6.11,6.11,0,0,0,6.07-5.4l10.31-88.28s42-6.85,56.2-7.49c14.4-.66,21.77,12,23,29.65,2.17,30.6,0,64.87,0,65.21a6.11,6.11,0,0,0,6.09,6.5H234a6.11,6.11,0,0,0,5.74-4c.4-1.11,34.07-94.23,60.92-170.28a80.23,80.23,0,0,0,21.68-14.89c14.22-13.74,22.79-32.48,25.13-54.72a28.66,28.66,0,0,0-11-56,72.92,72.92,0,0,0-11.62-14.33C310.5,36,290.69,28.38,269.12,28.38S227.74,36,213.35,49.73a73.13,73.13,0,0,0-11.61,14.32,28.67,28.67,0,0,0-11,56q.54,5.38,1.53,10.34Zm-6.12-27.46a16.45,16.45,0,0,1,9.43-26.46,85.35,85.35,0,0,0-5.46,30,16.47,16.47,0,0,1-4-3.53ZM70.25,197.17c-1.62,18.85-9.69,36.11-24,51.35-1-14.71-.07-29.21,4.11-42.2A64.75,64.75,0,0,1,69.31,177a75.58,75.58,0,0,1,.93,20.19ZM14.16,25.3a7.63,7.63,0,0,1-3.57-6.44,7.26,7.26,0,0,1,3.29-6.18l.27-.18a7.55,7.55,0,0,1,6.77-.78c5.29,1.94,13,7.15,18.91,15.94,7.37,11,9.9,24.64,7.51,40.42-6.6,43.53,3.54,89.24,7.82,105.68a75.51,75.51,0,0,0-12.59,19.11A243,243,0,0,1,32.06,75.06c4.47-28.62-7.27-42.86-17.9-49.76ZM93,351.59H89.92L87.3,296.87c-.37-10.58,3.39-17,14.72-22.19Zm102.42-209.1c12.54,36.39,46,54.5,70,54.92A86.08,86.08,0,0,0,285.83,195c-23,65-49.66,138.91-56.11,156.78h-3.47l17.14-87.41a6.11,6.11,0,1,0-12-2.35l-17.6,89.76h-7.24c.54-11.58,1.36-36.7-.32-60.37-1.66-23.5-14.75-40.38-34.1-41-13.57-.42-40.65,4.35-53.94,7.09C95.64,262.19,74.12,270,75.1,297.38l2.6,54.21h-.87C71.23,340.18,53,300.59,47.47,260h0c22.08-22.17,30.93-41.89,33.37-62.5a70.42,70.42,0,0,0-2.22-27.39C80.42,169,82.3,168,84.25,167c43.44-21.62,80.84-23.23,111.21-24.54Zm6.87-35.14s0,0,0,0C204.39,68.1,229.8,40.6,269.12,40.6s68.17,31.56,66.79,70.84c-.74,21-9.07,42-22,54.57-15.36,14.83-34.86,20-48,19.17-25.07-1.55-63.56-23.24-63.56-77.83Zm149.79-4.41a16.42,16.42,0,0,1-4,3.55,85.4,85.4,0,0,0-5.46-30,16.45,16.45,0,0,1,9.47,26.47Zm0,0" transform="translate(0 -0.67)"/></g><path d="M327.87,93c0-17.6-15.33-31.92-34.18-31.92a35.46,35.46,0,0,0-24.57,9.73,35.44,35.44,0,0,0-24.57-9.73c-18.85,0-34.18,14.32-34.18,31.92a31.13,31.13,0,0,0,13.44,25.4A27.11,27.11,0,0,0,217.89,135c0,19.71,22.5,35.15,51.23,35.15s51.23-15.44,51.23-35.15a27.12,27.12,0,0,0-5.92-16.56A31.12,31.12,0,0,0,327.87,93ZM302.24,111.2a6.11,6.11,0,0,0-1.66,10.46c3.45,2.78,7.56,7.36,7.56,13.34,0,12.44-17.87,22.94-39,22.94s-39-10.51-39-22.94c0-6,4.11-10.55,7.56-13.34A6.11,6.11,0,0,0,236,111.2C227.85,108.1,222.58,101,222.58,93c0-10.87,9.86-19.71,22-19.71,8.07,0,15.48,4,19.34,10.37a6.11,6.11,0,0,0,10.46,0c3.86-6.39,11.27-10.37,19.34-10.37,12.11,0,22,8.84,22,19.71,0,7.93-5.26,15.05-13.42,18.16Zm0,0" transform="translate(0 -0.67)"/><path d="M293.42,87.08a4.07,4.07,0,1,0,2.87,1.19,4.1,4.1,0,0,0-2.87-1.19Zm0,0" transform="translate(0 -0.67)"/><path d="M244.82,87.08a4.07,4.07,0,0,0,0,8.14,4.07,4.07,0,1,0,0-8.14Zm0,0" transform="translate(0 -0.67)"/><path d="M276.06,109.92a3.25,3.25,0,1,0,2.3,1,3.31,3.31,0,0,0-2.3-1Zm0,0" transform="translate(0 -0.67)"/><path d="M264.48,115.49a3.26,3.26,0,1,0-5.56-2.3,3.25,3.25,0,0,0,3.26,3.26,3.32,3.32,0,0,0,2.3-1Zm0,0" transform="translate(0 -0.67)"/><path d="M273.19,143.82V127.66a4.07,4.07,0,0,0-8.14,0v16.16a4.07,4.07,0,0,0,0,8.14h8.1a4.07,4.07,0,0,0,0-8.14Zm0,0" transform="translate(0 -0.67)"/></g></g></svg>