<svg xmlns="http://www.w3.org/2000/svg" xmlns:xlink="http://www.w3.org/1999/xlink" viewBox="0 0 356.2 368"><defs><style>.cls-1{fill:none;}.cls-2{clip-path:url(#clip-path);}</style><clipPath id="clip-path" transform="translate(0 0)"><rect class="cls-1" y="0.08" width="356.88" height="368.88"/></clipPath></defs><title>Ресурс 23</title><g id="Слой_2" data-name="Слой 2"><g id="Слой_1-2" data-name="Слой 1"><g class="cls-2"><path d="M129.84,368a6,6,0,0,0,6-6.7L132,328a41.41,41.41,0,0,0,8.77-21.65s30.59-6,40.93-6.71c6.68-.48,13.28,3.13,17.68,8.06a18,18,0,0,1,4.76,14.11c-1.56,13.61-5.43,39-5.46,39.25a6,6,0,0,0,5.94,6.92h46.13a6,6,0,0,0,5.52-3.61c.28-.64,25-57.2,47.66-119.24a38.61,38.61,0,0,0,25.69-61.8,100.38,100.38,0,0,0,4.13-27.18c0-9.06-2.18-16.46-6.6-22.35l26.11-94.41c4-14.47,5.19-33.18-4.62-38.31-2.4-1.25-8.77-3.21-16.12,5.63L318.15,24c-9.51,11.43-18.26,29.89-24,50.64l-11.49,41.54c-5.37-.42-11.25-.63-17.68-.63-4.26,0-8.61.09-12.94.31l-11.4-41.22c-5.74-20.75-14.49-39.2-24-50.64L202.28,6.73c-7.36-8.84-13.72-6.88-16.12-5.63-9.81,5.13-8.62,23.84-4.62,38.31l25,90.55c-6.42,6-10.35,14.42-10.35,26.21A93.26,93.26,0,0,0,197,168c-21.47,2.19-75.18,9.33-124.21,29.17l-.51.22a22.51,22.51,0,0,1-2.18-2.91,30.61,30.61,0,0,1-1.9-4.54c-1.55-4.24-3.47-9.53-8.5-12.43s-10.38-1.9-14.79-1.14a33.05,33.05,0,0,1-5.13.63,33,33,0,0,1-5.13-.62c-4.41-.75-9.89-1.69-14.79,1.14s-6.95,8.19-8.5,12.43a31.3,31.3,0,0,1-1.9,4.54,29.22,29.22,0,0,1-2.86,3.7C3.68,201.69,0,206,0,212s3.68,10.33,6.64,13.8a29,29,0,0,1,2.86,3.7,30.86,30.86,0,0,1,1.9,4.54c1.55,4.24,3.47,9.53,8.5,12.43a15.25,15.25,0,0,0,7.8,1.92,38,38,0,0,0,6.41-.68c-4.84,50.6,40.4,114.8,42.48,117.73a6,6,0,0,0,4.9,2.53ZM315.06,138.35l-8.88,4.91c-10.68,5.91-19.25,18.13-24.16,34.4l-9.29,30.84a24.39,24.39,0,0,0-12.75,0l-9.29-30.84c-4.9-16.28-13.48-28.5-24.16-34.4l-10.32-5.72c7.31-5.79,21-9.71,46.13-10v9.93a4,4,0,0,0,8,0v-9.88c25.19.53,38.11,4.81,44.69,10.72Zm-107.9,68.5A26.38,26.38,0,0,1,212.4,191a6,6,0,0,0,.9-5.45,97.25,97.25,0,0,1-5-29.38,25.65,25.65,0,0,1,2.65-12.39l11.75,6.5c8.71,4.82,16.13,15.64,20.36,29.7l10.18,33.81a4.58,4.58,0,0,0-.22,1.36c0,3.32,4.1,10.91,9.77,13.37v9.08a37,37,0,0,1-15.92-5,6,6,0,0,0-4.84-.5,26.59,26.59,0,0,1-34.83-25.29Zm-14-170.65c-3.41-12.34-2.66-20.33-1.65-23.41A15,15,0,0,1,193,14.43l14.36,17.26c8.34,10,16.43,27.27,21.65,46.15l10.82,39.11c-8.22,1.09-16,3-22.72,6.07ZM25.92,236.09c-1.24-.72-2.29-3.6-3.21-6.14a39.43,39.43,0,0,0-2.8-6.45A37.58,37.58,0,0,0,15.8,218c-1.85-2.17-3.77-4.42-3.77-6s1.91-3.82,3.77-6a37.39,37.39,0,0,0,4.11-5.48,39.32,39.32,0,0,0,2.8-6.45c.93-2.54,2-5.42,3.21-6.14a3.65,3.65,0,0,1,1.73-.31,33.41,33.41,0,0,1,5,.61,42.11,42.11,0,0,0,7.16.8,42.06,42.06,0,0,0,7.15-.8c2.5-.43,5.6-1,6.74-.3s2.29,3.6,3.21,6.14a40,40,0,0,0,2.8,6.45A24.7,24.7,0,0,0,61.36,203c-12.51,7.74-20.87,18.52-24.88,32.23-1.3.15-2.58.36-3.82.57-2.49.43-5.6,1-6.73.3Zm82,119.88-1.69-7a92,92,0,0,0,14.92-9.86L123.1,356Zm25.91-60.67a6,6,0,0,0-5,6.31c1.49,23.83-31.59,38.39-31.92,38.53a6,6,0,0,0-3.48,6.94L95.55,356H84.66C75.75,342.69,35.94,280.05,48,238.67c4.1-14.07,13.7-24,29.34-30.32C125.16,189,179.1,182,199.23,179.92c.52,2.16,1.09,4.33,1.74,6.5a38.58,38.58,0,0,0,6,48.19,56.94,56.94,0,0,0,7.75,47.59c13.9,21,18.82,33.58,20.56,39.55L220.85,356H211.6c1.27-8.61,3.4-23.27,4.49-32.77a29.89,29.89,0,0,0-7.74-23.49c-6.75-7.57-16.93-12.92-27.12-12.1-12,1-47.39,7.69-47.39,7.69Zm112.6,30.83a166.83,166.83,0,0,0,21.17-20.23C257.91,330,250,348.49,246.8,356H233.9ZM243,318.32c-2.3-7.31-8.25-20.37-21.61-40.54a49,49,0,0,1-7.5-37.82,38.58,38.58,0,0,0,29.28,4.36A47.68,47.68,0,0,0,265,249.71a45.51,45.51,0,0,0,22.25-6.05,38.29,38.29,0,0,0,4,1.05c-3.84,10.43-7,21-11.53,30.5C269,297.59,251.14,311.53,243,318.32Zm56-84.87a26.46,26.46,0,0,1-10.07-2,6,6,0,0,0-5.47.46,37.07,37.07,0,0,1-13.46,5.3v-8.72c5.66-2.47,9.77-10.05,9.77-13.37a4.66,4.66,0,0,0-.21-1.36L289.71,180c4.23-14.06,11.65-24.88,20.36-29.7l9.75-5.39a28.06,28.06,0,0,1,1.89,11.28,90.77,90.77,0,0,1-4.52,26.75,6,6,0,0,0,1.32,5.9A26.59,26.59,0,0,1,299,233.45ZM341.66,36.21,317.09,125l-.22-.14c-5.75-3.34-13-5.75-22.12-7.28l11-39.78C311,59,319.07,41.71,327.41,31.69l14.36-17.26a15.08,15.08,0,0,1,1.55-1.64c1,3.09,1.76,11.07-1.65,23.41Zm0,0" transform="translate(0 0)"/></g><path d="M237.35,196.57a6,6,0,1,0-1.76,4.26,6.08,6.08,0,0,0,1.76-4.26Zm0,0" transform="translate(0 0)"/><path d="M297.45,190.55a6,6,0,1,0,4.25,1.77,6,6,0,0,0-4.25-1.77Zm0,0" transform="translate(0 0)"/></g></g></svg>