<svg xmlns="http://www.w3.org/2000/svg" xmlns:xlink="http://www.w3.org/1999/xlink" viewBox="0 0 368 384.6"><defs><style>.cls-1{fill:none;}.cls-2{clip-path:url(#clip-path);}</style><clipPath id="clip-path" transform="translate(0 -0.4)"><rect class="cls-1" y="0.04" width="367.92" height="385.92"/></clipPath></defs><title>Ресурс 18</title><g id="Слой_2" data-name="Слой 2"><g id="Слой_1-2" data-name="Слой 1"><g class="cls-2"><path d="M368,215.51c0-14.27-2.76-34.42-15.48-51.24,5.54-6.73,10.57-15.79,7.06-26.08-2-5.87-8-10.75-15.19-12.44s-14.36.18-19.34,5.17a45.07,45.07,0,0,0-7.18,9.69,99.47,99.47,0,0,0-28.65-3.87,96.6,96.6,0,0,0-28.53,4,45.07,45.07,0,0,0-7.29-9.85c-5-5-12-6.87-19.34-5.17s-13.19,6.57-15.19,12.44c-3.54,10.4,1.63,19.54,7.25,26.29-1.21,1.6-2.35,3.28-3.43,5a220.87,220.87,0,0,0-62.53-10.41,161.94,161.94,0,0,0-19.65.94l18.08-10.85a64.77,64.77,0,0,0,19.93-92.41L141.3,3a6.07,6.07,0,0,0-11,2.7l-4.81,38.46a43.38,43.38,0,0,1-23.69,33.49L39.47,108.83a71.36,71.36,0,0,0-21.59,111l30,34c-.33,19.7,4.17,42.54,13.51,68.35a357.82,357.82,0,0,0,28.38,59.93A6.08,6.08,0,0,0,94.9,385h32.39a6.08,6.08,0,0,0,6.07-6.07V360.17A15.67,15.67,0,0,1,149,344.52h53.44a15.67,15.67,0,0,1,15.65,15.65v18.76a6.08,6.08,0,0,0,6.08,6.07h24.56a6.07,6.07,0,0,0,2.7-.64c.59-.29,14.65-7.41,32.05-26.55,15.77-17.35,37.58-48.5,52-98.42C357.07,246,368,231.26,368,215.51Zm-25.82,24c-8.12-8.83-24.13-23.43-43.77-27.12a12.37,12.37,0,0,1-.75-8.77,14.7,14.7,0,0,1,5.3-6.88c22.72,2.22,42.66,9.83,52.82,20.44-.64,8.09-6,15.63-13.6,22.34Zm-93.91,23.05a252.67,252.67,0,0,0,39.2,17,6.13,6.13,0,0,0,3.52,0,218,218,0,0,0,29.17-11.7c-3.83,11.54-7.16,22.36-12.45,31.12-12.8,21.22-38.42,30.47-48,34.15-1.64-7.29-5.83-22.68-15.54-44.82-6.52-14.87.21-22.69,4.08-25.72ZM283.15,149v19.36a6.07,6.07,0,1,0,12.14,0V149c43.85,2.41,56.3,31.35,59.53,52.67-15.77-10.6-39.76-17-65.61-17s-49.71,6.4-65.48,17c3.3-20.19,15.56-50.1,59.41-52.59Zm8.13,62.46c-.68,0-1.37-.06-2.06-.06s-1.6,0-2.39.07a17.54,17.54,0,0,0-.23-10,18.35,18.35,0,0,0-2.87-5.4q2.74-.11,5.5-.1,2.6,0,5.17.1a18.41,18.41,0,0,0-2.88,5.4,17.58,17.58,0,0,0-.24,10Zm-16.09-14.79a14.73,14.73,0,0,1,5.25,6.82,12.36,12.36,0,0,1-.77,8.87c-19.46,3.81-35.32,18.28-43.4,27.06-7.6-6.7-13-14.25-13.61-22.34,10.12-10.56,29.93-18.15,52.52-20.41ZM285,265.9c-2.61-.92-5.45-2-8.5-3.24a14.7,14.7,0,0,1,1.43-21.25,5.63,5.63,0,0,0,0,.69c0,3.25,2.83,5.8,7.12,6.82Zm8.1.12V249c4.48-1,7.45-3.56,7.45-6.89a5.84,5.84,0,0,0,0-.69,14.7,14.7,0,0,1,1.43,21.25c-3.19,1.3-6.14,2.42-8.84,3.36Zm20.28-8.41a22.62,22.62,0,0,0,.53-4.88c0-13-11.08-23.59-24.7-23.59s-24.7,10.58-24.7,23.59a22.38,22.38,0,0,0,.54,4.88,153.32,153.32,0,0,1-19.77-11.21c8.39-9,25-23.61,43.93-23.61s35.55,14.63,43.93,23.61a153.21,153.21,0,0,1-19.77,11.21Zm20.26-118.1a7.65,7.65,0,0,1,5.57-2.22,10.87,10.87,0,0,1,2.42.29c3.34.78,5.9,2.91,6.45,4.52,1.38,4.07-.3,8.32-3.91,13a65.12,65.12,0,0,0-14.89-10.08,31,31,0,0,1,4.35-5.56ZM230.36,142.1c.55-1.61,3.11-3.75,6.45-4.52a10.92,10.92,0,0,1,2.42-.29,7.66,7.66,0,0,1,5.58,2.21,31.82,31.82,0,0,1,4.46,5.82,66.29,66.29,0,0,0-14.83,10.06c-3.73-4.82-5.49-9.15-4.09-13.28Zm-140.24,35-43.59-58.2L95.18,94.56l40.6,54.13L98.56,171a64,64,0,0,0-8.44,6.05ZM137.53,45.7,140.37,23l28.16,40.68a52.7,52.7,0,0,1-3.11,64L125.28,74.16A55.53,55.53,0,0,0,137.53,45.7ZM119.6,80.09l40,53.39a53.61,53.61,0,0,1-7.31,5.28l-9.58,5.75L102.54,90.88l4.68-2.34a55.86,55.86,0,0,0,12.39-8.45ZM83.7,181.88a95.65,95.65,0,0,0-16.76,16.95L22.36,139.38a58.7,58.7,0,0,1,17-16.54ZM49.41,237.25,27,211.84a58.78,58.78,0,0,1-13.72-50.48A59.56,59.56,0,0,1,18,147L62,205.79c-1.73,2.69-3.37,5.47-4.9,8.38a79.3,79.3,0,0,0-7.73,23.08Zm71.8,135.6h-5c-1.05-6.44-2.21-14-2.32-16.1-.23-4.51.44-7.54,2.06-9.24s5.13-2.82,10.06-3a27.65,27.65,0,0,0-4.82,15.63Zm130.32-39.23L232,372.85h-1.71V360.17a27.83,27.83,0,0,0-27.8-27.8H127.29c-9.22,0-15.8,2.21-20.13,6.77-4,4.26-5.79,10.22-5.37,18.24.14,2.63,1.24,9.86,2.15,15.47H98.37c-9.73-16.82-56.77-103-30.48-153,17.16-32.68,48-49,91.8-48.59,25.09.25,47.54,6.21,57.38,9.25a92,92,0,0,0-6.62,35c0,15.29,10.31,29.63,30.66,42.7-5.44,5.43-11.85,16.17-4.34,33.28,8.9,20.29,13,34.81,14.76,42.13ZM275,349.08c-13.22,14.67-24.34,21.74-27.84,23.77h-1.74l15.09-31.44a133.79,133.79,0,0,0,33.84-18.13A189.18,189.18,0,0,1,275,349.08Zm0,0" transform="translate(0 -0.4)"/></g><path d="M253.19,219a6.07,6.07,0,1,0-4.3-1.78,6.11,6.11,0,0,0,4.3,1.78Zm0,0" transform="translate(0 -0.4)"/><path d="M325.26,206.87a6.08,6.08,0,1,0,4.29,1.78,6.11,6.11,0,0,0-4.29-1.78Zm0,0" transform="translate(0 -0.4)"/></g></g></svg>