<svg xmlns="http://www.w3.org/2000/svg" xmlns:xlink="http://www.w3.org/1999/xlink" viewBox="0 0 341.17 368"><defs><style>.cls-1{fill:none;}.cls-2{clip-path:url(#clip-path);}</style><clipPath id="clip-path" transform="translate(0 -1)"><rect class="cls-1" width="342" height="369"/></clipPath></defs><title>Ресурс 15</title><g id="Слой_2" data-name="Слой 2"><g id="Слой_1-2" data-name="Слой 1"><g class="cls-2"><path d="M307,281c18.61,0,34.2-15.13,34.2-33.73a33.61,33.61,0,0,0-6.72-20.2,86.11,86.11,0,0,0,3.44-23c0-10-3.05-17.69-9.27-23.34V160.54c0-7.1-3.57-13.15-8.89-15.06-4.28-1.54-8.9-.12-12,3.7L302.09,156A30.8,30.8,0,0,0,296,169.39c-5.24-.5-11.06-.75-17.54-.75-5.72,0-11.61.17-17.36.72A30.76,30.76,0,0,0,255,156l-5.59-6.78c-3.15-3.82-7.76-5.23-12-3.7-5.32,1.91-8.9,8-8.9,15.07v20.23C222.64,186,219,193.51,219,204.09c0,1.82.08,3.69.22,5.58-19.82.59-56.94,3.71-91.19,17.57a56.47,56.47,0,0,0-12.1,6.64,66.7,66.7,0,0,1,21.85-48l57.9-53.06a79.46,79.46,0,0,0,1.28-116l-.18-.16a62.65,62.65,0,0,0-89.38,6.55c-26.15,31-60.68,72-76.66,91.25C8.15,141.73-2.59,171.52.53,198.4,3,219.75,14.23,238.51,33,252.67l.16.11L100.08,300c8.22,33.21,29,64.54,30.29,66.41A5.94,5.94,0,0,0,135.3,369h37.77a6,6,0,0,0,5.93-6.5l-3-31.55a34,34,0,0,0,6.61-15.34h30.58a18,18,0,0,1,13.24,5.88,12.77,12.77,0,0,1,3.41,10c-.94,8.16-7.14,23.8-9.46,29.14a6,6,0,0,0,5.46,8.31h41.65a5.94,5.94,0,0,0,5.45-3.57c.2-.46,17.23-39.5,34-84.41Zm-77-33.73a21.63,21.63,0,0,1,4.31-13,6,6,0,0,0,.89-5.38A85,85,0,0,1,231,207.24l12.28,4.09a34,34,0,0,1,19.81,17.18l9.21,18.42c-2.14,1-3.47,2.56-3.47,4.37,0,2.25,2.45,7,6,9.1v8.83a3.56,3.56,0,0,0,2.75,3.47,30.35,30.35,0,0,1-14.25-4.16,6,6,0,0,0-4.79-.49A21.86,21.86,0,0,1,230,247.29Zm1.34-48.1c1.76-9.81,10.35-18,43.16-18.62v7.16a4,4,0,1,0,7.93,0v-7.16c34.18.61,41.74,9.24,43.23,18.62l-14.54,4.62A41.91,41.91,0,0,0,286.72,225l-8.26,16.52L270.2,225a41.91,41.91,0,0,0-24.39-21.16Zm79.94-35.67c1.59-2.65,5.46-6,5.46-3v13.2a62.18,62.18,0,0,0-8.94-2.59,26.19,26.19,0,0,1,3.48-7.63Zm-70.89-3c0-3,3.68-.26,5.45,3,1.21,2.2,2.8,4.61,3.49,7.63a62.82,62.82,0,0,0-8.94,2.62ZM40.07,243.11C23.79,230.8,14.46,215.3,12.34,197c-2.74-23.62,7.06-50.22,27.58-74.92,16-19.21,50.47-60.19,76.61-91.18a50.76,50.76,0,0,1,72.32-5.39,67.56,67.56,0,0,1-1.18,98.51l-57.9,53.07a79.13,79.13,0,0,0-25.08,68.57,46.52,46.52,0,0,0-5.43,11.74c-2.47,8.06-2.95,16.89-2.09,25.91Zm117.24,114-1.53-9.36a74.4,74.4,0,0,0,9.33-6l1.44,15.36Zm78-43.52a30,30,0,0,0-22.12-9.87H177A5.95,5.95,0,0,0,171,310c1.11,17.72-23.93,28.76-24.18,28.87a6,6,0,0,0-3.52,6.43l1.93,11.76h-6.7c-7.62-12.14-37.95-63.48-27.91-96.19,3.25-10.59,10.41-18,21.89-22.64,33-13.36,69.85-16.19,88.43-16.7.57,2.71,1.24,5.44,2,8.18a33.72,33.72,0,0,0,9.08,44.86,43.66,43.66,0,0,0,7.53,26.48c8.52,12.86,12.51,21.48,14.37,26.57L243.17,357.1h-8.49c2.71-7.09,6.2-17.2,7-24.2a24.56,24.56,0,0,0-6.35-19.32ZM263.6,357.1H256l8.87-22.8a136.88,136.88,0,0,0,13.2-11.91c-6.6,16.28-12,28.88-14.46,34.71ZM262,326.42c-1.92-5.73-6.2-15.3-15.74-29.71a36.34,36.34,0,0,1-6.18-17.81,33.73,33.73,0,0,0,19.69,1.18,41.4,41.4,0,0,0,18.71,4.54,38.48,38.48,0,0,0,15.75-3.48c-1.82,4.84-3.31,9.74-5.43,14.22-7.08,14.93-20.23,25.58-26.81,31Zm45.46-57.28a21.66,21.66,0,0,1-8.27-1.63,6,6,0,0,0-5.41.46,29.07,29.07,0,0,1-14.46,4.73,3.56,3.56,0,0,0,2.74-3.46v-8.83c3.6-2.1,6-6.85,6-9.1,0-1.81-1.32-3.36-3.47-4.37l9.21-18.42a34,34,0,0,1,19.81-17.18l12.27-4.09a80.05,80.05,0,0,1-3.72,19.39,6,6,0,0,0,1.3,5.83,21.84,21.84,0,0,1-16,36.67Zm0,0" transform="translate(0 -1)"/></g><path d="M256.56,231.64a5.94,5.94,0,1,0-4.21,1.75,6,6,0,0,0,4.21-1.75Zm0,0" transform="translate(0 -1)"/><path d="M304,221.49a5.94,5.94,0,1,0,4.21,1.73,6,6,0,0,0-4.21-1.73Zm0,0" transform="translate(0 -1)"/></g></g></svg>