<svg xmlns="http://www.w3.org/2000/svg" xmlns:xlink="http://www.w3.org/1999/xlink" viewBox="0 0 382.97 463"><defs><style>.cls-1{fill:none;}.cls-2{clip-path:url(#clip-path);}</style><clipPath id="clip-path" transform="translate(-0.72)"><rect class="cls-1" width="384" height="463"/></clipPath></defs><title>Ресурс 1</title><g id="Слой_2" data-name="Слой 2"><g id="Слой_1-2" data-name="Слой 1"><path d="M192.21,223.42a64.3,64.3,0,0,1,8,.56A423,423,0,0,1,214,118.86c-6.91.45-14.08.74-21.75.74s-14.84-.3-21.75-.74A423.09,423.09,0,0,1,184.19,224a64.32,64.32,0,0,1,8-.56Zm0,0" transform="translate(-0.72)"/><path d="M192.21,335.23a110.15,110.15,0,0,1-49-11.55,96.49,96.49,0,0,1-20.48-13.86,70.72,70.72,0,0,0,138.89,0,97.1,97.1,0,0,1-20.48,13.86,110.15,110.15,0,0,1-49,11.55Zm0,0" transform="translate(-0.72)"/><path d="M100.14,18.61,73.27,5.18,89.16,33Zm0,0" transform="translate(-0.72)"/><path d="M311.15,5.18,284.28,18.61l11,14.37Zm0,0" transform="translate(-0.72)"/><path d="M320.86,66.44A66.27,66.27,0,0,0,332.56,40l.26-1.33a66.94,66.94,0,0,0-.69-29.22l-.95-3.77a6.8,6.8,0,0,0-.93-1.75L305.79,46.73Zm0,0" transform="translate(-0.72)"/><g class="cls-2"><path d="M51.86,40a66.29,66.29,0,0,0,11.7,26.45l15.06-19.7L54.14,3.91a6.65,6.65,0,0,0-.92,1.75l-.94,3.77a66.91,66.91,0,0,0-.7,29.21Zm0,0" transform="translate(-0.72)"/><path d="M86.15,368.86l44.46,17.79a274.11,274.11,0,0,1,61.61,34.44,273.33,273.33,0,0,1,61.6-34.44l44.46-17.79a128.53,128.53,0,0,0,79.81-135.3A294,294,0,0,0,320,91.56l-52.73-69-14.8-4.94a108.32,108.32,0,0,1-14.34-5.93l-4.06-2a95.11,95.11,0,0,0-83.64,0l-4.08,2A107.87,107.87,0,0,1,132,17.66l-14.79,4.93-52.73,69a293.94,293.94,0,0,0-58.13,142,128.53,128.53,0,0,0,79.82,135.3ZM84.7,80.93c.36.22,36.63,22.7,107.51,22.7s107.15-22.47,107.51-22.7l8.62,13.45a103.85,103.85,0,0,1-13.63,6.85l-16,53.42a156.65,156.65,0,0,0,4.59,103.26l5.52,13.81-4.34,8.67c-1.35,2.7-2.87,5.31-4.46,7.86l-1.46,16.07a86.7,86.7,0,0,1-172.68,0l-1.46-16.07c-1.59-2.55-3.11-5.17-4.46-7.86l-4.34-8.67,5.52-13.81a156,156,0,0,0,11.23-58.22,156.23,156.23,0,0,0-6.62-45l-16-53.42a102,102,0,0,1-13.62-6.85Zm0,0" transform="translate(-0.72)"/></g><path d="M342.45,360.89A144.49,144.49,0,0,1,304.2,383.7l-44.46,17.8a257.31,257.31,0,0,0-58.91,33.1l-8.62,6.46-8.63-6.48a257.87,257.87,0,0,0-58.91-33.1L80.22,383.68A144.47,144.47,0,0,1,42,360.87,166.84,166.84,0,0,0,.72,463h383a166.72,166.72,0,0,0-41.24-102.11Zm0,0" transform="translate(-0.72)"/><path d="M128.32,199.69A172.08,172.08,0,0,1,116,263.84L113.11,271l1.13,2.25a81.34,81.34,0,0,0,36.16,36.15,95.12,95.12,0,0,0,83.64,0,81.34,81.34,0,0,0,36.16-36.15l1.12-2.25-2.85-7.15a172.67,172.67,0,0,1-5.07-113.78L276,108a255.74,255.74,0,0,1-45.11,9.35,406.87,406.87,0,0,0-14.72,108.28v2.45c18.86,7.71,31.95,24.16,31.95,43.23h-16c0-17.62-17.91-31.95-39.93-31.95s-39.93,14.33-39.93,31.95h-16c0-19.06,13.09-35.51,31.95-43.23v-2.45a407,407,0,0,0-14.72-108.28A255.07,255.07,0,0,1,108.42,108l12.61,42a172.58,172.58,0,0,1,7.29,49.63Zm111.81-56.13v-16h16v16ZM200.2,263.36h16v16h-16Zm-31.95,0h16v16h-16ZM128.32,127.59h16v16h-16Zm0,0" transform="translate(-0.72)"/></g></g></svg>