<svg xmlns="http://www.w3.org/2000/svg" viewBox="0 0 419.15 464"><title>Ресурс 5</title><g id="Слой_2" data-name="Слой 2"><g id="Слой_1-2" data-name="Слой 1"><path d="M56.15,125.54c2.58-4.95,5.36-9.77,8.38-14.42A48,48,0,1,1,121,56.65c4.76-2.86,9.68-5.45,14.71-7.84a64,64,0,1,0-79.51,76.73Zm0,0" transform="translate(0)"/><path d="M201.57,352.64V295.18a41,41,0,0,1-24.24-14.67l-15.51-19.39a38.51,38.51,0,0,1-3.13-4.67A88.07,88.07,0,0,0,121.57,328v16a88,88,0,0,0,176,0V328a88,88,0,0,0-37.12-71.56,37.5,37.5,0,0,1-3.13,4.67l-15.5,19.4a41,41,0,0,1-24.24,14.66v57.47c31.12,4.56,46.47,34.41,47.16,35.79l-14.31,7.16c-.13-.26-14.31-27.58-40.84-27.58s-40.72,27.32-40.86,27.6l-14.29-7.18c.66-1.38,16-31.23,47.13-35.79Zm0,0" transform="translate(0)"/><path d="M228,216H191.18a21.61,21.61,0,0,0-16.87,35.11l15.52,19.4a25.28,25.28,0,0,0,39.49,0l15.51-19.41A21.61,21.61,0,0,0,228,216Zm0,0" transform="translate(0)"/><path d="M227,200A419.94,419.94,0,0,1,279.79,64.8a155.16,155.16,0,0,0-140.45,0A419.55,419.55,0,0,1,192.11,200Zm0,0" transform="translate(0)"/><path d="M345.57,32a32,32,0,0,0-32,32,31.85,31.85,0,0,0,.36,3.41,175,175,0,0,1,29.5,28.36,19.67,19.67,0,0,0,2.15.23,32,32,0,0,0,0-64Zm0,0" transform="translate(0)"/><path d="M345.57,16a48,48,0,0,1,9,95.12c3,4.65,5.81,9.47,8.38,14.42a64,64,0,1,0-79.51-76.73c5,2.4,10,5,14.71,7.84A48,48,0,0,1,345.57,16Zm0,0" transform="translate(0)"/><path d="M395.57,395.37a149.41,149.41,0,0,1-21.48,27.43A195,195,0,0,1,313.56,464H419.15a191.91,191.91,0,0,1-23.58-68.63Zm0,0" transform="translate(0)"/><path d="M401.57,317.82A131.58,131.58,0,0,0,390.15,264l-6.23-14a244.53,244.53,0,0,1-18.82-66.22,157.08,157.08,0,0,0-71.43-111A403.8,403.8,0,0,0,242.73,203a37.65,37.65,0,0,1,22.85,34.57c0,.91-.17,1.81-.23,2.71A104.2,104.2,0,0,1,313.57,328v16a104,104,0,1,1-208,0V328a104.19,104.19,0,0,1,48.24-87.68c-.07-.91-.23-1.8-.23-2.71A37.66,37.66,0,0,1,176.41,203,403.78,403.78,0,0,0,125.48,72.77,157.07,157.07,0,0,0,54,183.76,244.45,244.45,0,0,1,35.22,250L29,264A132.48,132.48,0,0,0,56.38,411.5,178.12,178.12,0,0,0,183.16,464H236a178.15,178.15,0,0,0,126.78-52.5,131.65,131.65,0,0,0,38.8-93.68ZM81.57,168h64a32,32,0,0,1-64,0Zm224,32a32,32,0,0,1-32-32h64a32,32,0,0,1-32,32Zm0,0" transform="translate(0)"/><path d="M73.57,32a32,32,0,1,0,0,64,19.66,19.66,0,0,0,2.15-.23,175.13,175.13,0,0,1,29.5-28.36,31.83,31.83,0,0,0,.35-3.41,32,32,0,0,0-32-32Zm0,0" transform="translate(0)"/><path d="M23.57,395.37A191.8,191.8,0,0,1,0,464H105.59a195.27,195.27,0,0,1-60.53-41.19,150,150,0,0,1-21.49-27.43Zm0,0" transform="translate(0)"/></g></g></svg>