<svg xmlns="http://www.w3.org/2000/svg" xmlns:xlink="http://www.w3.org/1999/xlink" viewBox="0 0 464 408"><defs><style>.cls-1{fill:none;}.cls-2{clip-path:url(#clip-path);}</style><clipPath id="clip-path" transform="translate(0 0)"><rect class="cls-1" width="464" height="408"/></clipPath></defs><title>Ресурс 2</title><g id="Слой_2" data-name="Слой 2"><g id="Слой_1-2" data-name="Слой 1"><path d="M244.69,384,240,379.31a11.6,11.6,0,0,0-16,0L219.31,384A27.13,27.13,0,0,1,200,392H176.21A39.84,39.84,0,0,0,208,408h48a39.82,39.82,0,0,0,31.79-16H264a27.11,27.11,0,0,1-19.31-8Zm0,0" transform="translate(0 0)"/><g class="cls-2"><path d="M232,325.14a47.34,47.34,0,0,1,16-9.75V245A370,370,0,0,1,285.08,84.21,84.8,84.8,0,0,0,258.71,80H205.27a85.09,85.09,0,0,0-26.37,4.21A369.81,369.81,0,0,1,216,245v70.4a47.23,47.23,0,0,1,16,9.75Zm0,0" transform="translate(0 0)"/><path d="M205.28,64h14.23a58.8,58.8,0,0,1,2.7-46.31v0A64.69,64.69,0,0,0,177.68,0a65.42,65.42,0,0,0-40.73,14.29,94.22,94.22,0,0,0-27.66,36.34l-7.16,16.7A34.21,34.21,0,0,1,96,76.77v1.34a68.21,68.21,0,0,0,7.16,30.31l-14.31,7.16a84.29,84.29,0,0,1-8.34-29A34.23,34.23,0,0,1,70.78,88c-.54,0-1.07-.08-1.6-.11A59.94,59.94,0,0,0,64,112H48a76.13,76.13,0,0,1,5.73-28.61,34.51,34.51,0,0,1-9-7.6A34.9,34.9,0,0,0,33.93,91.5l-2.34,7L16.41,93.46l2.35-7a50.69,50.69,0,0,1,17.7-24.59,123.11,123.11,0,0,1-11.69-40,59.34,59.34,0,0,0-17,77.67l1.63,2.84a66.64,66.64,0,0,0,92.17,24.1l14.17-8.5a101.34,101.34,0,0,1,89.5-54Zm0,0" transform="translate(0 0)"/></g><path d="M41.34,147.62l1.87,16.81A40,40,0,0,0,83,200h21V165.29a101.05,101.05,0,0,1,2.87-23.55A82.54,82.54,0,0,1,67.32,152a82.19,82.19,0,0,1-26-4.38Zm0,0" transform="translate(0 0)"/><path d="M200,312.44V245A353.85,353.85,0,0,0,164.23,90.57,85.36,85.36,0,0,0,120,165.28v37.25a83.22,83.22,0,0,0,.59,10l10.69,90.85a85.65,85.65,0,0,0,21.65,47.37,47.66,47.66,0,0,1,46.68-38.3c.13,0,.26.05.4.05ZM160,200a24,24,0,0,1-24-24h48a24,24,0,0,1-24,24Zm0,0" transform="translate(0 0)"/><path d="M299.77,90.57A353.81,353.81,0,0,0,264,245v67.45c.14,0,.27,0,.4,0a47.67,47.67,0,0,1,46.68,38.3,85.63,85.63,0,0,0,21.65-47.37l10.69-90.84a83.23,83.23,0,0,0,.59-10V165.29a85.34,85.34,0,0,0-44.23-74.71ZM304,200a24,24,0,0,1-24-24h48a24,24,0,0,1-24,24Zm0,0" transform="translate(0 0)"/><g class="cls-2"><path d="M357.13,141.74A101,101,0,0,1,360,165.28V200h21a40,40,0,0,0,39.75-35.59l1.87-16.8a80.44,80.44,0,0,1-65.54-5.87Zm0,0" transform="translate(0 0)"/><path d="M439.21,21.9a122.75,122.75,0,0,1-11.68,40,50.72,50.72,0,0,1,17.7,24.59l2.34,7-15.17,5.06-2.34-7A34.9,34.9,0,0,0,419.3,75.8a34.37,34.37,0,0,1-9,7.6A76.06,76.06,0,0,1,416,112H400a60,60,0,0,0-5.18-24.11c-.54,0-1.05.11-1.6.11a34,34,0,0,1-9.71-1.43,84.28,84.28,0,0,1-8.34,29l-14.31-7.16A68.21,68.21,0,0,0,368,78.11V76.77a34.09,34.09,0,0,1-6.14-9.44L354.7,50.64A94.18,94.18,0,0,0,327,14.29a65.2,65.2,0,0,0-86.84,4.81l-1.63,1.64-2.05,4.11a42.85,42.85,0,0,0,0,38.31l.43.84h21.77a101.33,101.33,0,0,1,89.5,54l14.17,8.5a66.64,66.64,0,0,0,92.16-24.08l1.65-2.88a59.32,59.32,0,0,0-17-77.65Zm0,0" transform="translate(0 0)"/></g><path d="M264.4,328.4a31.4,31.4,0,0,0-22.34,9.26L232,347.71l-10.05-10.05A31.6,31.6,0,0,0,168,360v8a40,40,0,0,0,.81,8H200a11.25,11.25,0,0,0,8-3.31l4.69-4.69c10.31-10.31,28.31-10.31,38.62,0l4.69,4.69a11.25,11.25,0,0,0,8,3.31h31.19a40,40,0,0,0,.81-8v-8a31.64,31.64,0,0,0-31.6-31.6ZM200,360H184V344h16Zm80,0H264V344h16Zm0,0" transform="translate(0 0)"/></g></g></svg>