<svg xmlns="http://www.w3.org/2000/svg" viewBox="0 0 463 436.48"><title>Ресурс 30</title><g id="Слой_2" data-name="Слой 2"><g id="Слой_1-2" data-name="Слой 1"><path d="M204.25,369.26a57.86,57.86,0,0,1-17.9-14.81l-10.49-13.13a37.69,37.69,0,0,1-8.22-23.46,37.22,37.22,0,0,1,2.28-12.45,47.73,47.73,0,0,0-50.14,20.26A324.77,324.77,0,0,0,20,361.18l7.75,14a308.79,308.79,0,0,1,84.81-31.73,46.52,46.52,0,0,0-.86,8.78A47.59,47.59,0,0,0,120,379.11a274.57,274.57,0,0,0-30.41,29.55L73.77,426.79l12,10.51,15.85-18.12a256.4,256.4,0,0,1,29.54-28.53,47.65,47.65,0,0,0,73.06-21.39Zm0,0" transform="translate(0 -0.83)"/><path d="M104.4,107.27,73.77,157.39a122.29,122.29,0,0,0-1.28,125.37l27.41,47a63.77,63.77,0,0,1,78.84-38.52,37.37,37.37,0,0,1,20.82-10.35V244.64A385.35,385.35,0,0,0,153.43,62.16a122.35,122.35,0,0,0-49,45.11Zm58.54,64.57L175.6,184.5l-12.67,12.66a38.55,38.55,0,0,1-54.52,0L95.75,184.5l12.66-12.67a38.56,38.56,0,0,1,54.52,0Zm0,0" transform="translate(0 -0.83)"/><path d="M44.07,187.6a138.24,138.24,0,0,1,16.07-38.53L90.77,98.94a135.91,135.91,0,0,1,15.39-20.51l-7.78-7.78a156.75,156.75,0,0,0-23.07-19l8.94-13.23a173,173,0,0,1,25.43,21l7.9,7.9a138.18,138.18,0,0,1,14.34-11l-9.58-9.58A156.53,156.53,0,0,0,11.61.84H0C0,3.67.22,6.49.32,9.32A172.4,172.4,0,0,1,29.5,14a172.28,172.28,0,0,1,38,14.43l-7.4,14.16A156.52,156.52,0,0,0,25.64,29.46,157.6,157.6,0,0,0,1.13,25.4c.34,4.83.66,9.66,1.14,14.46L6.45,81.65c1,9.73,1.46,19.59,1.46,29.3A99.3,99.3,0,0,0,44.07,187.6Zm0,0" transform="translate(0 -0.83)"/><path d="M205.16,296.29a21.57,21.57,0,0,0-16.84,35l10.5,13.13a41.84,41.84,0,0,0,65.37,0l10.49-13.12a21.56,21.56,0,0,0-16.83-35Zm0,0" transform="translate(0 -0.83)"/><path d="M215.53,280.32h31.94v-35.7a401.48,401.48,0,0,1,47.41-188.8,121.42,121.42,0,0,0-40.61-7.08H208.73a121.48,121.48,0,0,0-40.61,7.08,401.45,401.45,0,0,1,47.42,188.8Zm0,0" transform="translate(0 -0.83)"/><path d="M303.37,288.31a63.93,63.93,0,0,1,59.74,41.46l27.42-47a122.27,122.27,0,0,0-1.29-125.37L358.6,107.27a122.45,122.45,0,0,0-49-45.12,385.44,385.44,0,0,0-46.13,182.48v36.26a37.39,37.39,0,0,1,20.82,10.35,63.42,63.42,0,0,1,19.11-2.94Zm-3.31-116.48a38.56,38.56,0,0,1,54.52,0l12.67,12.67-12.67,12.66a38.55,38.55,0,0,1-54.52,0L287.4,184.5Zm0,0" transform="translate(0 -0.83)"/><path d="M451.39.84A156.64,156.64,0,0,0,340.66,46.7l-9.58,9.58a140.18,140.18,0,0,1,14.34,11l7.9-7.9A172.23,172.23,0,0,1,462.68,9.31c.1-2.83.27-5.65.32-8.48H451.39Zm0,0" transform="translate(0 -0.83)"/><path d="M364.61,70.66l-7.78,7.78a136.54,136.54,0,0,1,15.4,20.51l30.63,50.13a137.76,137.76,0,0,1,16.07,38.53,99.31,99.31,0,0,0,36.16-76.65c0-9.71.49-19.57,1.46-29.29l4.18-41.8c.48-4.79.82-9.62,1.14-14.46a156.08,156.08,0,0,0-97.25,45.26Zm0,0" transform="translate(0 -0.83)"/><path d="M303.37,304.28a47.89,47.89,0,0,0-10.27,1.13,37.09,37.09,0,0,1,2.29,12.45,37.68,37.68,0,0,1-8.24,23.46l-10.48,13.13a57.91,57.91,0,0,1-17.9,14.81,47.65,47.65,0,0,0,73.11,21.36,255.35,255.35,0,0,1,29.49,28.57l15.85,18.12,12-10.51-15.86-18.12A271,271,0,0,0,343,379.11a47.49,47.49,0,0,0,7.45-35.7,308.24,308.24,0,0,1,84.8,31.73l7.75-14a325.34,325.34,0,0,0-99.82-35.62,47.91,47.91,0,0,0-39.81-21.28Zm0,0" transform="translate(0 -0.83)"/><path d="M243.72,374.82a57,57,0,0,1-24.44,0,63.39,63.39,0,0,1-32.79,35.36c6.16,8.08,20.26,21.86,45,21.86s38.82-13.82,45-21.87a63.41,63.41,0,0,1-32.78-35.36Zm0,0" transform="translate(0 -0.83)"/></g></g></svg>