<svg xmlns="http://www.w3.org/2000/svg" viewBox="0 0 438.46 455"><title>Ресурс 27</title><g id="Слой_2" data-name="Слой 2"><g id="Слой_1-2" data-name="Слой 1"><path d="M235.74,383.07l28.91-46.26a16.87,16.87,0,0,0-14.3-25.8H188.09a16.86,16.86,0,0,0-14.3,25.81l28.9,46.25A16.79,16.79,0,0,0,217,391h4.44a16.75,16.75,0,0,0,14.3-7.93ZM235.22,335h16v16h-16Zm-32,16h-16V335h16Zm0,0"/><path d="M82.9,81.18a140.75,140.75,0,0,0-75-54.45,159.31,159.31,0,0,1,3.37,32.05V80.95a92.16,92.16,0,0,0,48.52,81.21c-.3-3.48-.52-7-.52-10.46A117.42,117.42,0,0,1,82.9,81.18Zm0,0"/><path d="M187.22,235.18V205.53A276.82,276.82,0,0,0,142.06,53.86a146,146,0,0,0-33.29,22.5,98.08,98.08,0,0,0-22.31,28.58,102.47,102.47,0,0,0-7.34,74.57L87,206.85l.22-.33A71.05,71.05,0,0,0,98.88,174a7.87,7.87,0,0,1,7.9-7,8.07,8.07,0,0,1,8,8.88,86.93,86.93,0,0,1-14.21,39.53L98,219.31A85,85,0,0,0,89,236.23a87.44,87.44,0,0,0,7.42,77.63L107.78,332a114.06,114.06,0,0,1,27.69-64.26,107.36,107.36,0,0,1,51.76-32.54ZM139.22,135h16v16h-16Zm0,0"/><path d="M93.69,68.86c1.46-1.46,2.83-3,4.37-4.38a162.54,162.54,0,0,1,22.71-17A140.57,140.57,0,0,0,28.32,2.19L0,0C1.13,2.85,2,5.78,3,8.69l2.23.56A156.74,156.74,0,0,1,93.69,68.86Zm0,0"/><path d="M219.22,411.81a60.09,60.09,0,0,1-44,19.19l-.39,0c5.33,10,17.56,24,44.39,24,27.13,0,39.28-14.1,44.5-24-.17,0-.34,0-.5,0a60.1,60.1,0,0,1-44-19.19Zm0,0"/><path d="M222.05,247h-5.66a91.5,91.5,0,0,0-68.89,31.26,98.1,98.1,0,0,0-24.28,64.61v2.45a89.68,89.68,0,0,0,15.13,50,44.23,44.23,0,0,0,65.67,9,32.7,32.7,0,0,1-14.88-12.75L160.23,345.3A32.86,32.86,0,0,1,188.09,295h62.26a32.87,32.87,0,0,1,27.87,50.28L249.3,391.56a32.7,32.7,0,0,1-14.88,12.75,44.23,44.23,0,0,0,65.67-9,89.71,89.71,0,0,0,15.13-50v-2.45a98.06,98.06,0,0,0-24.28-64.6A91.52,91.52,0,0,0,222.05,247Zm0,0"/><path d="M296.38,53.86a276.86,276.86,0,0,0-45.16,151.67v29.66A107.44,107.44,0,0,1,303,267.73,114.09,114.09,0,0,1,330.68,332l10.67-17.08a88.64,88.64,0,0,0,11.42-26.36,87.29,87.29,0,0,0-12.16-69l-2.74-4.11a87,87,0,0,1-14.21-39.53,8.06,8.06,0,0,1,8-8.88,7.87,7.87,0,0,1,7.9,7,71.1,71.1,0,0,0,11.63,32.53l.3.45,7.83-27.46A102.51,102.51,0,0,0,352,105a98.14,98.14,0,0,0-22.3-28.58,145.41,145.41,0,0,0-33.29-22.51ZM299.22,151h-16V135h16Zm0,0"/><path d="M410.14,2.19a140.61,140.61,0,0,0-92.46,45.27,162.19,162.19,0,0,1,22.71,17c1.55,1.38,2.91,2.92,4.38,4.38a156.76,156.76,0,0,1,88.5-59.62l2.23-.56c1-2.9,1.84-5.84,3-8.69Zm0,0"/><path d="M355.54,81.18a117.4,117.4,0,0,1,23.68,70.51c0,3.5-.21,7-.52,10.46a92.18,92.18,0,0,0,48.52-81.21V58.77a159.32,159.32,0,0,1,3.37-32.05,140.87,140.87,0,0,0-75.05,54.46Zm0,0"/><path d="M203.22,231.89a107.8,107.8,0,0,1,13.17-.89h5.66a106.1,106.1,0,0,1,13.17.89V205.53A292.7,292.7,0,0,1,281.44,47.66,145.5,145.5,0,0,0,232.29,39H206.16A145.46,145.46,0,0,0,157,47.66a292.69,292.69,0,0,1,46.22,157.88Zm0,0"/></g></g></svg>