<svg xmlns="http://www.w3.org/2000/svg" viewBox="0 0 399.11 464"><title>Ресурс 26</title><g id="Слой_2" data-name="Слой 2"><g id="Слой_1-2" data-name="Слой 1"><path d="M58.39,334.12A62.87,62.87,0,0,1,7.57,360l8.26,16.51a28,28,0,0,0,48.11,3.42l58.36-84.3-22.7-18.16Zm0,0" transform="translate(-0.01)"/><path d="M340.73,334.12l-41.2-56.66-22.7,18.16,58.36,84.3a28,28,0,0,0,48.11-3.42L391.56,360a62.85,62.85,0,0,1-50.82-25.87Zm0,0" transform="translate(-0.01)"/><path d="M223.56,369c0-3,.15-6,.27-9H176.39l3.33,16h44c-.08-2.34-.17-4.68-.17-7Zm0,0" transform="translate(-0.01)"/><path d="M227.64,328H199.56V312h31.57c1.22-5.31,2.38-10.64,3.33-16H164.15c.75,5.18,1.63,10.52,2.6,16h16.82v16H169.78c.35,1.74.66,3.4,1,5.18L173.07,344h52c.63-5.36,1.52-10.69,2.57-16Zm0,0" transform="translate(-0.01)"/><path d="M19.06,64a82.22,82.22,0,0,1,117-25.56c1.48-.84,3-1.57,4.52-2.34A65.92,65.92,0,0,0,81.64,0,66.63,66.63,0,0,0,24.78,32.19L19.7,40.66a141.34,141.34,0,0,0-19.7,62A156.88,156.88,0,0,1,14,72.43Zm0,0" transform="translate(-0.01)"/><path d="M309.49,24a82.71,82.71,0,0,1,70.57,40l5.08,8.46a157.37,157.37,0,0,1,14,30.22,141.2,141.2,0,0,0-19.7-62l-5.08-8.47A66.64,66.64,0,0,0,317.49,0a65.92,65.92,0,0,0-59,36.05c1.51.77,3,1.51,4.52,2.34A82.75,82.75,0,0,1,309.49,24Zm0,0" transform="translate(-0.01)"/><path d="M69.68,64a84.13,84.13,0,0,1,31,6.09,111,111,0,0,1,21-21.79A66.25,66.25,0,0,0,32.78,72.18L27.7,80.65a141.31,141.31,0,0,0-20.14,72.7c0,2.34.1,4.66.21,7,1,2.9,2,5.82,3.21,8.67l9,21.07,27.55-9.19V208A73.22,73.22,0,0,0,91.62,191.9a113.84,113.84,0,0,1-10.21-31.53,60,60,0,0,0-20.57,6l-1.69.84L52,152.84l1.69-.84a76.12,76.12,0,0,1,26.1-7.54c0-1.24-.2-2.45-.2-3.69v-5.5c0-3.32.32-6.59.61-9.87A60.08,60.08,0,0,0,55.57,120V104a76.18,76.18,0,0,1,27.17,5.12,110.89,110.89,0,0,1,9.45-25.23A68.09,68.09,0,0,0,69.68,80H63.57V64h6.11Zm0,0" transform="translate(-0.01)"/><path d="M238.48,264H223.56V248h15.72c.09-3,.28-6,.28-9v-7h16v7c0,10.73-.66,21.43-1.68,32.11l10.93,13.66,27.7-22.17L249.16,204.8,262,195.2l12,16a98,98,0,0,0,29.63-70.38v-5.5A95.26,95.26,0,0,0,208.3,40H190.83a95.27,95.27,0,0,0-95.27,95.26v5.5a98,98,0,0,0,29.64,70.38l12-16L150,204.8l-43.34,57.8,27.7,22.17,10.84-13.56c-1.1-12.84-1.6-25.59-1.6-39.21h16c0,5.46.11,10.76.29,16h47.71v16H160.68c.38,5.31.82,10.63,1.41,16h74.85c.67-5.31,1.13-10.66,1.55-16Zm9.08-144h16v16h-16Zm-96,16h-16V120h16Zm0,0" transform="translate(-0.01)"/><path d="M366.35,72.2a66.25,66.25,0,0,0-88.94-23.89,111.2,111.2,0,0,1,21,21.79,84.15,84.15,0,0,1,31-6.09h6.1V80h-6.11a68.08,68.08,0,0,0-22.5,3.89,110.76,110.76,0,0,1,9.44,25.23A76.14,76.14,0,0,1,343.56,104v16a60.08,60.08,0,0,0-24.61,5.4c.29,3.27.61,6.53.61,9.86v5.5c0,1.24-.17,2.45-.21,3.68a76.12,76.12,0,0,1,26.1,7.54l1.69.84L340,167.15l-1.69-.84a60.22,60.22,0,0,0-20.58-6,113.38,113.38,0,0,1-10.21,31.54A73.31,73.31,0,0,0,351.55,208V180.9l27.55,9.19,9-21.07c1.22-2.85,2.18-5.77,3.21-8.67.13-2.33.22-4.66.22-7a141.26,141.26,0,0,0-20.13-72.69Zm0,0" transform="translate(-0.01)"/><path d="M275.13,409.06l-4,6.06a37.79,37.79,0,0,1-21.31,15.43c1.2,3.59,2.3,7.2,3.71,10.73L255,445,240.14,451l-1.5-3.75A209.87,209.87,0,0,1,224.87,392h-41.8l7.68,36.86A44.35,44.35,0,0,0,234,464a43.84,43.84,0,0,0,31.21-12.93,48.81,48.81,0,0,0,14.38-34.73v-5.92c0-2.15-3.23-3.13-4.44-1.36Zm0,0" transform="translate(-0.01)"/></g></g></svg>