<svg xmlns="http://www.w3.org/2000/svg" viewBox="0 0 464 408.02"><title>Ресурс 23</title><g id="Слой_2" data-name="Слой 2"><g id="Слой_1-2" data-name="Слой 1"><path d="M215.8,169.73a76.88,76.88,0,0,1,32.4,0,152.89,152.89,0,0,1,71-123.42l9.09-5.79a158.82,158.82,0,0,0-192.57,0l9.09,5.79a152.9,152.9,0,0,1,71,123.43Zm0,0" transform="translate(0 0)"/><path d="M463.59,58.49a50.86,50.86,0,0,0-75.22-3.55,143.46,143.46,0,0,1-12.93,11.3A175.32,175.32,0,0,1,403.35,128h3A54.84,54.84,0,0,0,452,103.54,71,71,0,0,0,464,64c0-1.86-.27-3.68-.41-5.52Zm0,0" transform="translate(0 0)"/><path d="M72,194.1a119.65,119.65,0,0,1,99.6,1.57A80.31,80.31,0,0,1,200,174.83a137,137,0,0,0-63.75-115l-13.34-8.48A159.46,159.46,0,0,0,72,168ZM136,112a16,16,0,1,1-16,16,16,16,0,0,1,16-16Zm0,0" transform="translate(0 0)"/><path d="M264,174.83a80.31,80.31,0,0,1,28.36,20.83A119.65,119.65,0,0,1,392,194.1V168A159.42,159.42,0,0,0,341.12,51.32L327.78,59.8a137.07,137.07,0,0,0-63.75,115ZM344,128a16,16,0,1,1-16-16,16,16,0,0,1,16,16Zm0,0" transform="translate(0 0)"/><path d="M365.62,53.65a128.35,128.35,0,0,0,11.45-10,66.64,66.64,0,0,1,79.38-11.34,72.17,72.17,0,0,0-4.41-7.8l-1.17-1.76a51,51,0,0,0-78.48-7.78,143.74,143.74,0,0,1-25.26,20.11,177.54,177.54,0,0,1,18.49,18.59Zm0,0" transform="translate(0 0)"/><path d="M86.93,43.63a128.5,128.5,0,0,0,11.45,10A177.6,177.6,0,0,1,116.88,35,143.69,143.69,0,0,1,91.62,14.93,51,51,0,0,0,13.14,22.7L12,24.48a72.06,72.06,0,0,0-4.41,7.79A66.63,66.63,0,0,1,86.93,43.63Zm0,0" transform="translate(0 0)"/><path d="M249.38,270.18l13.09-21.82A10.8,10.8,0,0,0,253.2,232H210.8a10.8,10.8,0,0,0-9.27,16.34l13.1,21.83a20.27,20.27,0,0,0,34.75,0Zm0,0" transform="translate(0 0)"/><path d="M208,343.34,214.55,376h34.89l6.63-33.18a64.45,64.45,0,0,1-23.9-24.18A64.36,64.36,0,0,1,208,343.34Zm0,0" transform="translate(0 0)"/><path d="M344,200a104.12,104.12,0,0,0-49.94,12.78l-6.17,3.38-4.14-5.69a63.84,63.84,0,0,0-103.51,0l-4.14,5.69-6.17-3.38a104,104,0,1,0-.33,182.57c-15.13-18.09-21.67-40-24.17-51.13a64,64,0,0,1,21.43-119.57l2.27,15.84a48,48,0,1,0,54.31,54.43,36.46,36.46,0,0,1-22.54-16.52l-13.09-21.82a26.8,26.8,0,0,1,23-40.58h42.41a26.79,26.79,0,0,1,23,40.59L263.1,278.41a36.46,36.46,0,0,1-22.45,16.51,48,48,0,1,0,54.22-55l2.27-15.84a64,64,0,0,1,21.57,119.47c-2.39,10.9-8.89,33.35-24.32,51.79A104,104,0,1,0,344,200Zm0,0" transform="translate(0 0)"/><path d="M57.69,128h3a175.09,175.09,0,0,1,27.9-61.77,142.21,142.21,0,0,1-12.93-11.3A50.86,50.86,0,0,0,.4,58.49C.27,60.33,0,62.15,0,64a71.08,71.08,0,0,0,12,39.53A54.81,54.81,0,0,0,57.69,128Zm0,0" transform="translate(0 0)"/><path d="M288,351.44a63.76,63.76,0,0,1-16.86-2.33L262.55,392H201.44L193,349.65A63.56,63.56,0,0,1,176,352a64.36,64.36,0,0,1-12.41-1.23C170.14,372.27,187.66,408,232,408c25.92,0,45.86-12.09,59.28-35.92a110.23,110.23,0,0,0,9.22-21.9,63.7,63.7,0,0,1-12.5,1.25Zm0,0" transform="translate(0 0)"/></g></g></svg>