<svg xmlns="http://www.w3.org/2000/svg" viewBox="0 0 335.57 463"><title>Ресурс 22</title><g id="Слой_2" data-name="Слой 2"><g id="Слой_1-2" data-name="Слой 1"><path d="M125.37,431a44.61,44.61,0,0,1-10.73-1.36A40.11,40.11,0,0,0,154,463h28.69A40.11,40.11,0,0,0,222,429.69,44.59,44.59,0,0,1,211.24,431Zm0,0" transform="translate(-0.51 0)"/><path d="M303.66,10.79A106.77,106.77,0,0,0,273,38.46l-6.36,8.47a105.25,105.25,0,0,1,8.95,6.71l.61-.8a122.82,122.82,0,0,1,35.25-31.79,94,94,0,0,1,24.66-10.32V0a78.65,78.65,0,0,0-32.42,10.79Zm0,0" transform="translate(-0.51 0)"/><path d="M131.33,335.16c1.69,0,3.35.21,5,.37V287.07a770.14,770.14,0,0,0-22-182.3L103.13,116,90.32,96.76a58.71,58.71,0,0,1-9.91-32.71c0-1.75.14-3.47.29-5.18a87.32,87.32,0,0,0-40.24,73.77v66.23A88.2,88.2,0,0,0,51.19,241l27.2,49.85a103.49,103.49,0,0,1,12.05,38.26l2.61,23.55a50.74,50.74,0,0,1,38.28-17.46ZM88.4,175.37v-16h16v16Zm0,0" transform="translate(-0.51 0)"/><path d="M47.64,62.44A107,107,0,0,0,17,34.77a78.36,78.36,0,0,0-16-7.24A97.59,97.59,0,0,0,32.45,92.74,102.61,102.61,0,0,1,49.62,65.09Zm0,0" transform="translate(-0.51 0)"/><path d="M159.57,343.72l8.73,5.81,8.72-5.82a51.39,51.39,0,0,1,7.26-4V287.07a786.11,786.11,0,0,1,12.83-141.2,108.7,108.7,0,0,1-24.71,20.36l-4.1,2.48-4.12-2.47a108.77,108.77,0,0,1-24.7-20.36,786.11,786.11,0,0,1,12.83,141.2v52.68a51.36,51.36,0,0,1,7.25,4Zm0,0" transform="translate(-0.51 0)"/><path d="M289,62.43l-2,2.65a102.52,102.52,0,0,1,17.17,27.65,97.59,97.59,0,0,0,31.53-65.21,77.94,77.94,0,0,0-16,7.24A106.47,106.47,0,0,0,289,62.43Zm0,0" transform="translate(-0.51 0)"/><path d="M255.89,58.86c.14,1.72.29,3.44.29,5.19a58.78,58.78,0,0,1-9.91,32.71L233.46,116l-11.23-11.24a769.52,769.52,0,0,0-22,182.3v48.47a49.67,49.67,0,0,1,5-.37,50.76,50.76,0,0,1,38.28,17.45l2.62-23.55a103.22,103.22,0,0,1,12-38.26L285.4,241a88.16,88.16,0,0,0,10.73-42.09V132.64a87.35,87.35,0,0,0-40.24-73.78Zm-7.7,116.51h-16v-16h16Zm0,0" transform="translate(-0.51 0)"/><path d="M105.62,90.91,125.7,70.84l2.86,17.32a92.7,92.7,0,0,0,39.74,61.76A92.72,92.72,0,0,0,208,88.15l2.86-17.31L231,90.91l2-3a42.81,42.81,0,0,0,3.51-41.26l-.52-.33.23-.37a42.92,42.92,0,0,0-12.13-15.47,68.2,68.2,0,0,0-42.47-14.9H155a68.18,68.18,0,0,0-42.47,14.89,42.92,42.92,0,0,0-12.14,15.48l.23.38-.52.33a42.81,42.81,0,0,0,3.49,41.26Zm0,0" transform="translate(-0.51 0)"/><path d="M60.42,52.84l.6.8a105,105,0,0,1,9-6.71l-6.35-8.47A107.08,107.08,0,0,0,32.94,10.79,78.7,78.7,0,0,0,.51,0V10.74A94,94,0,0,1,25.18,21.06,122.57,122.57,0,0,1,60.42,52.84Zm0,0" transform="translate(-0.51 0)"/><path d="M205.27,351.14A34.91,34.91,0,0,0,185.88,357L168.3,368.73,150.71,357a34.95,34.95,0,0,0-54.32,29.07,29,29,0,0,0,29,29h85.86a29,29,0,0,0,29-29,35,35,0,0,0-34.94-34.94Zm-60.94,39.95h-16v-16h16Zm63.92,0h-16v-16h16Zm0,0" transform="translate(-0.51 0)"/></g></g></svg>