<svg xmlns="http://www.w3.org/2000/svg" viewBox="0 0 463 444.33"><title>Ресурс 18</title><g id="Слой_2" data-name="Слой 2"><g id="Слой_1-2" data-name="Слой 1"><path d="M202.68,271.08a38.69,38.69,0,0,1,27.55,11.41l1.26,1.27,1.26-1.27a38.71,38.71,0,0,1,27.55-11.41,39.67,39.67,0,0,1,6,.48l1.48-3a35.08,35.08,0,0,0-2.82-36.08l-27.29-38.21c-2.83-3.95-9.46-3.95-12.26,0l-27.3,38.21a35.06,35.06,0,0,0-2.83,36.09l1.47,3a38.64,38.64,0,0,1,6-.49Zm0,0" transform="translate(0 -0.44)"/><path d="M182.13,299.77a62.76,62.76,0,0,0-6.58,27.88,7.39,7.39,0,0,0,7.38,7.38h97.14a7.38,7.38,0,0,0,7.38-7.38,62.82,62.82,0,0,0-6.58-27.88,23,23,0,0,0-36.79-6L231.5,306.36l-12.56-12.57a23,23,0,0,0-36.81,6Zm73.34,3.28h16v16h-16Zm-63.94,0h16v16h-16Zm0,0" transform="translate(0 -0.44)"/><path d="M79.64,127.22a31.9,31.9,0,0,1,61.87-11A71.87,71.87,0,0,1,154.57,106a47.91,47.91,0,1,0-55.46,67.38c.78-1.21,1.39-2.48,2.25-3.65l7.82-10.74a31.9,31.9,0,0,1-29.54-31.72Zm0,0" transform="translate(0 -0.44)"/><path d="M127.59,127.22a16,16,0,1,1-16-16,16,16,0,0,1,16,16Zm0,0" transform="translate(0 -0.44)"/><path d="M306.44,276.21,286.54,262A51,51,0,0,1,282,275.76l-.74,1.47a38.85,38.85,0,0,1,13.84,15.39,78.67,78.67,0,0,1,8.27,35A23.4,23.4,0,0,1,280.07,351H182.93a23.4,23.4,0,0,1-23.37-23.36,78.76,78.76,0,0,1,8.27-35,38.94,38.94,0,0,1,13.84-15.39l-.73-1.47A51.43,51.43,0,0,1,176.44,262l-19.91,14.23A50.06,50.06,0,0,0,185.64,367h91.71a50,50,0,0,0,29.09-90.78Zm0,0" transform="translate(0 -0.44)"/><path d="M367.36,127.22a16,16,0,1,1-16-16,16,16,0,0,1,16,16Zm0,0" transform="translate(0 -0.44)"/><path d="M316.06,134.21a55.92,55.92,0,0,0-45.11-23H192a55.91,55.91,0,0,0-45.1,23l-32.64,44.88A55.8,55.8,0,0,0,107,231l20.16,55.43a65.89,65.89,0,0,1,20.12-23.19l29.59-21.14a50.46,50.46,0,0,1,8.21-18.83L212.36,185a23.54,23.54,0,0,1,38.29,0l27.29,38.21a50.66,50.66,0,0,1,8.22,18.83l29.59,21.14a66,66,0,0,1,20.13,23.19L356,231a55.8,55.8,0,0,0-7.31-51.87ZM181.2,193.5a19.29,19.29,0,0,1-27.29,0l-10.34-10.33,10.34-10.34a19.3,19.3,0,0,1,27.29,0l10.34,10.34Zm127.88,0a19.29,19.29,0,0,1-27.29,0l-10.33-10.33,10.33-10.34a19.3,19.3,0,0,1,27.29,0l10.34,10.34Zm0,0" transform="translate(0 -0.44)"/><path d="M351.38,79.27a48.3,48.3,0,0,0-43,26.69,71.61,71.61,0,0,1,13.06,10.26,31.9,31.9,0,1,1,32.34,42.72l7.82,10.74c.85,1.17,1.47,2.44,2.25,3.65a47.85,47.85,0,0,0-12.49-94.07Zm0,0" transform="translate(0 -0.44)"/><path d="M424.72,87.79,414.09,71.85l14.1-28.19A214.63,214.63,0,0,0,356.3,31.32H333.16L340.89.45,318.64,2.67a201.22,201.22,0,0,0-83,27.51L231,32.94l-4.29-3.22A201.09,201.09,0,0,0,144.36,2.66L122.11.44l7.73,30.87H106.7A214.63,214.63,0,0,0,34.81,43.65l14.1,28.2L38.29,87.79A228.82,228.82,0,0,0,0,204l23.69-7.9v24A214.3,214.3,0,0,0,35,288.86a44.49,44.49,0,0,1,28-9.78A45.15,45.15,0,0,1,83,283.81l13.93,7-7.37,29.49a64.88,64.88,0,0,0,45.13,78.12l9.84,2.82a261.45,261.45,0,0,1,87,43.58,261.6,261.6,0,0,1,87-43.58l9.84-2.82a64.87,64.87,0,0,0,45.11-78.12L366,290.77l13.94-7a45.66,45.66,0,0,1,48,5,214.33,214.33,0,0,0,11.27-68.8v-24L463,204A228.76,228.76,0,0,0,424.72,87.79ZM371.15,188a70.87,70.87,0,0,1-.12,48.42l-27.87,76.66c.07,1.28.23,2.56.23,3.86a66.12,66.12,0,0,1-66,66h-91.7a66.13,66.13,0,0,1-66-66c0-1.3.16-2.57.23-3.85L92,236.43A70.86,70.86,0,0,1,91.84,188,63.93,63.93,0,1,1,169,99.15a71.33,71.33,0,0,1,23-3.9H271a71.28,71.28,0,0,1,23,3.9A63.93,63.93,0,1,1,371.15,188Zm0,0" transform="translate(0 -0.44)"/></g></g></svg>