<svg xmlns="http://www.w3.org/2000/svg" xmlns:xlink="http://www.w3.org/1999/xlink" viewBox="0 0 496 479.95"><defs><style>.cls-1{fill:none;}.cls-2{clip-path:url(#clip-path);}</style><clipPath id="clip-path" transform="translate(0 0)"><rect class="cls-1" width="496" height="480"/></clipPath></defs><title>Ресурс 17</title><g id="Слой_2" data-name="Слой 2"><g id="Слой_1-2" data-name="Слой 1"><path d="M158.6,206.91l6.93,17.34a176.39,176.39,0,0,0-81.66,24.83l8.23,13.72A160.35,160.35,0,0,1,172.78,240a93.29,93.29,0,0,0,28.58,31.06,94.78,94.78,0,0,1-1.19-10.15,55.63,55.63,0,0,1-8.17-29,24,24,0,0,1,24-24V158.3a202.77,202.77,0,0,0-13-71.46,59.91,59.91,0,0,0-56.12-38.89H134.21A104.73,104.73,0,0,0,120,100.44v.83a105.5,105.5,0,0,0,11.09,47l18.2,36.39c.5,1,.91,2.05,1.38,3.08A303.24,303.24,0,0,0,67.07,176H64v16h3.07a286.84,286.84,0,0,1,91.53,15Zm17.4-95a16,16,0,1,1-16,16,16,16,0,0,1,16-16Zm0,0" transform="translate(0 0)"/><path d="M482.43,383.95,456,366.33l-24,16-24-16-26.43,17.62H368v16h18.43L408,385.56l24,16,24-16,21.57,14.39H496v-16Zm0,0" transform="translate(0 0)"/><path d="M272.62,375.31,248,383.52l-24.62-8.21-17.27,8.64H192v16h17.89l14.73-7.36L248,400.38l23.38-7.79,14.73,7.36H304v-16H289.89Zm0,0" transform="translate(0 0)"/><path d="M96,366.33l-24,16-24-16L21.57,383.95H0v16H26.43L48,385.56l24,16,24-16,21.57,14.39H128v-16h-5.57Zm0,0" transform="translate(0 0)"/><rect x="16" y="423.95" width="16" height="16"/><rect x="48" y="463.95" width="16" height="16"/><rect x="104" y="423.95" width="16" height="16"/><g class="cls-2"><rect x="184" y="439.95" width="16" height="16"/><rect x="480" y="423.95" width="16" height="16"/></g><rect x="448" y="463.95" width="16" height="16"/><rect x="392" y="423.95" width="16" height="16"/><rect x="312" y="439.95" width="16" height="16"/><path d="M197.14,333.56A39.88,39.88,0,0,0,200,318.71v-6.76a40,40,0,1,0-80,0v6.76a39.88,39.88,0,0,0,2.85,14.85l7.35,18.39h59.58Zm0,0" transform="translate(0 0)"/><path d="M168,397.64a15.52,15.52,0,0,0,6.51-7.53l8.87-22.17H168Zm0,0" transform="translate(0 0)"/><g class="cls-2"><path d="M145.49,390.13a15.51,15.51,0,0,0,6.51,7.52v-29.7H136.62Zm0,0" transform="translate(0 0)"/><path d="M175.12,37.38A76.07,76.07,0,0,1,218,81.22a218.85,218.85,0,0,1,14,77.08v49.65h32V158.3a218.85,218.85,0,0,1,14-77.08,75.94,75.94,0,0,1,71.1-49.27h1.38a104.86,104.86,0,0,0-21.23-18.9A78.56,78.56,0,0,0,261.29,4L248,8.38,234.71,3.95a78.6,78.6,0,0,0-67.94,9.1,105.1,105.1,0,0,0-21.23,18.9h1.38a75.67,75.67,0,0,1,28.2,5.43Zm0,0" transform="translate(0 0)"/></g><path d="M321.49,390.13a15.51,15.51,0,0,0,6.51,7.52v-29.7H312.62Zm0,0" transform="translate(0 0)"/><path d="M344,397.64a15.52,15.52,0,0,0,6.51-7.53l8.87-22.17H344Zm0,0" transform="translate(0 0)"/><path d="M326.82,52.23A60,60,0,0,0,293,86.84a202.63,202.63,0,0,0-13,71.46v49.65a24,24,0,0,1,24,24,55.63,55.63,0,0,1-8.17,29,94.75,94.75,0,0,1-1.19,10.15A93.45,93.45,0,0,0,323.22,240a160.34,160.34,0,0,1,80.66,22.79l8.23-13.72a176.39,176.39,0,0,0-81.66-24.83l6.93-17.34a287.07,287.07,0,0,1,91.54-15H432v-16h-3.07a303.28,303.28,0,0,0-83.6,11.76c.47-1,.88-2.06,1.38-3.07l18.2-36.4a105.37,105.37,0,0,0,11.1-47v-.83a104.87,104.87,0,0,0-14.2-52.5H349.09a60,60,0,0,0-22.27,4.3ZM304,127.95a16,16,0,1,1,16,16,16,16,0,0,1-16-16Zm0,0" transform="translate(0 0)"/><path d="M220.13,280.44c4,11.84,12,23.5,27.87,23.5s23.83-11.66,27.87-23.5a55.51,55.51,0,0,1-55.74,0Zm0,0" transform="translate(0 0)"/><path d="M288,231.95a8,8,0,0,0-8-8H216a8,8,0,0,0-8,8,40,40,0,0,0,80,0Zm-56,16H216v-16h16Zm32-16h16v16H264Zm0,0" transform="translate(0 0)"/><path d="M376,318.71v-6.76a40,40,0,0,0-80,0v6.76a39.88,39.88,0,0,0,2.86,14.85l7.35,18.39h59.58l7.35-18.39A39.73,39.73,0,0,0,376,318.71Zm0,0" transform="translate(0 0)"/></g></g></svg>