<svg xmlns="http://www.w3.org/2000/svg" viewBox="0 0 464 392"><title>Ресурс 15</title><g id="Слой_2" data-name="Слой 2"><g id="Слой_1-2" data-name="Слой 1"><path d="M88,192a79.38,79.38,0,0,0,29.36,61.91,109.72,109.72,0,0,1,14.11-28.55,294.06,294.06,0,0,0,47.09-112.6A81.58,81.58,0,0,0,168,112a80.1,80.1,0,0,0-80,80Zm48-16H120V160h16Zm0,0"/><path d="M264.4,248a31.4,31.4,0,0,0-22.34,9.26L232,267.31l-10.05-10.05a31.6,31.6,0,1,0-44.69,44.69L210.34,335a30.63,30.63,0,0,0,43.31,0l33.09-33.09A31.6,31.6,0,0,0,264.4,248ZM208,288H192V272h16Zm64,0H256V272h16Zm0,0"/><path d="M232,360a47,47,0,0,1-33-13.66l-23-23V336a56,56,0,0,0,112,0V323.31l-23,23A47,47,0,0,1,232,360Zm0,0"/><path d="M112,287.72a109.8,109.8,0,0,1,1.34-17A95.85,95.85,0,0,1,168,96a96.57,96.57,0,0,1,13.19,1A296.9,296.9,0,0,0,184,57.23V32H155.31L126.43,60.89A367.81,367.81,0,0,0,42.65,189.81,159,159,0,0,0,32,247.15,128.65,128.65,0,0,0,156.81,375.83,108.72,108.72,0,0,1,112,287.72Zm0,0"/><path d="M45,145.61A71.92,71.92,0,0,1,88,16a71.42,71.42,0,0,1,44.92,15.77l11.3-11.3A87.87,87.87,0,1,0,37.92,160.18c2.27-4.9,4.58-9.79,7-14.57Zm0,0"/><path d="M32,88a56.31,56.31,0,0,0,20.69,43.39,384.23,384.23,0,0,1,62.42-81.8l6.38-6.39A55.93,55.93,0,0,0,32,88Zm0,0"/><path d="M304,336a71.51,71.51,0,0,1-4.94,26,93.31,93.31,0,0,0,20.3-127.53A310.09,310.09,0,0,1,264,57.23V32H200V57.23a310.09,310.09,0,0,1-55.37,177.25A93.31,93.31,0,0,0,164.94,362,71.48,71.48,0,0,1,160,336V306a47.6,47.6,0,0,1,72-61.29A47.6,47.6,0,0,1,304,306Zm0,0"/><path d="M346.64,253.92a79.83,79.83,0,0,0-61.21-141.15,294.06,294.06,0,0,0,47.09,112.61,109.19,109.19,0,0,1,14.12,28.55ZM328,160h16v16H328Zm0,0"/><path d="M337.57,60.89,308.69,32H280V57.23A297.12,297.12,0,0,0,282.81,97,95.4,95.4,0,0,1,392,192a95.2,95.2,0,0,1-41.34,78.69,110.8,110.8,0,0,1,1.34,17,108.69,108.69,0,0,1-44.81,88.1A128.64,128.64,0,0,0,432,247.15a159,159,0,0,0-10.65-57.34A367.81,367.81,0,0,0,337.57,60.89Zm0,0"/><path d="M432,88a55.93,55.93,0,0,0-89.5-44.81l6.38,6.38a384.55,384.55,0,0,1,62.42,81.81A56.28,56.28,0,0,0,432,88Zm0,0"/><path d="M376,0a88,88,0,0,0-56.22,20.46l11.3,11.3A72,72,0,0,1,448,88a72.37,72.37,0,0,1-29,57.61c2.47,4.79,4.78,9.67,7,14.58A87.89,87.89,0,0,0,376,0Zm0,0"/></g></g></svg>