<svg xmlns="http://www.w3.org/2000/svg" viewBox="0 0 464 408.01"><title>Ресурс 11</title><g id="Слой_2" data-name="Слой 2"><g id="Слой_1-2" data-name="Слой 1"><path d="M363.17,276.2A125.06,125.06,0,0,0,368,242.37v-7.72a126,126,0,0,0-15.82-61l-32.11-57.78a100.18,100.18,0,0,0-13.93-19.21l-30,25A39.69,39.69,0,0,0,262,148.34l-5.9,59a43.62,43.62,0,0,1,8.54,7.25l44.77,49.75a72.1,72.1,0,0,1,13.75,74.29c3.28-2.76,6.38-5.71,9.34-8.76a228.09,228.09,0,0,1,61.35,51.31l12.3-10.25a244.29,244.29,0,0,0-63.08-53.57,125.78,125.78,0,0,0,14.74-25.8,287.51,287.51,0,0,1,57.77,14.88l13.62,5.11,5.63-15-13.62-5.11a302.56,302.56,0,0,0-58-15.21ZM304,184H288V168h16Zm0,0" transform="translate(0 0)"/><path d="M204,391.71c4.44,7.39,12.89,16.3,28,16.3s23.52-8.9,28-16.3a43.77,43.77,0,0,1-28-12.39,43.77,43.77,0,0,1-28,12.39Zm0,0" transform="translate(0 0)"/><path d="M257.37,280A14.73,14.73,0,0,0,247,284.29l-15,15-15-15A14.63,14.63,0,0,0,196.28,305l20.89,20.89c7.82,7.8,21.84,7.8,29.66,0L267.71,305a14.63,14.63,0,0,0-10.34-25ZM216,304H200V288h16Zm48,0H248V288h16Zm0,0" transform="translate(0 0)"/><path d="M136,312.7a72.28,72.28,0,0,1,18.57-48.41l44.78-49.75a43.31,43.31,0,0,1,8.54-7.25l-5.9-59a39.77,39.77,0,0,0-14.19-26.75l-30-25a100.68,100.68,0,0,0-13.94,19.21l-32.1,57.78a126.13,126.13,0,0,0-15.81,61v7.72A125.29,125.29,0,0,0,100.78,276a303.44,303.44,0,0,0-58,15.41l-13.62,5.11,5.63,15,13.62-5.11a286.9,286.9,0,0,1,57.73-15,125.76,125.76,0,0,0,14.77,25.89,244.42,244.42,0,0,0-63.07,53.57l12.3,10.25a228,228,0,0,1,61.35-51.31,124.53,124.53,0,0,0,9.34,8.76A72.26,72.26,0,0,1,136,312.7ZM160,168h16v16H160Zm0,0" transform="translate(0 0)"/><path d="M40.49,154.37A68.59,68.59,0,0,0,81.39,168H96v1.39c.62-1.18,1.18-2.38,1.83-3.55l22.93-41.25A77,77,0,0,1,90.5,77.3l-.36-1.8A54.25,54.25,0,0,0,37.09,32,54.28,54.28,0,0,0,6.23,41.83,84.16,84.16,0,0,0,0,73.4a101.71,101.71,0,0,0,40.49,81Zm0,0" transform="translate(0 0)"/><path d="M217.91,146.74l5.42,54.16A43.65,43.65,0,0,1,232,200a44.31,44.31,0,0,1,8.67.89l5.42-54.16A55.71,55.71,0,0,1,266,109.29l28.4-23.66a100.7,100.7,0,0,0-124.7,0L198,109.29a55.65,55.65,0,0,1,19.87,37.45Zm0,0" transform="translate(0 0)"/><path d="M335.43,110.5a61.17,61.17,0,0,0,22.39-36.34l.36-1.8a69.89,69.89,0,0,1,84.88-54.42A54,54,0,0,0,349.86,43.5l-.36,1.8A77,77,0,0,1,322,90.53a116.45,116.45,0,0,1,12,17.55Zm0,0" transform="translate(0 0)"/><path d="M373.85,75.5l-.36,1.8a77,77,0,0,1-30.26,47.29l22.93,41.25c.65,1.17,1.21,2.37,1.83,3.55V168h14.61a68.59,68.59,0,0,0,40.9-13.63A101.71,101.71,0,0,0,464,73.4a84.08,84.08,0,0,0-6.23-31.56A53.9,53.9,0,0,0,373.85,75.5Zm0,0" transform="translate(0 0)"/><path d="M252.76,225.26a27.94,27.94,0,0,0-41.52,0L166.46,275a56.37,56.37,0,0,0-1.4,73.78l14.21,17A28.26,28.26,0,0,0,221,367.73l11-11,11,11a28.26,28.26,0,0,0,41.69-1.89l14.21-17.05A56.36,56.36,0,0,0,297.53,275Zm26.27,91-20.89,20.89a37,37,0,0,1-52.29,0L185,316.29A30.63,30.63,0,0,1,228.28,273l3.72,3.72,3.72-3.72A30.63,30.63,0,0,1,279,316.29Zm0,0" transform="translate(0 0)"/><path d="M105.83,72.36l.36,1.8a61.16,61.16,0,0,0,22.39,36.34l1.35-2.43a117.22,117.22,0,0,1,12-17.55A77,77,0,0,1,114.5,45.3l-.36-1.8A54,54,0,0,0,21,17.93,69.59,69.59,0,0,1,37.09,16a70.31,70.31,0,0,1,68.74,56.36Zm0,0" transform="translate(0 0)"/></g></g></svg>