<svg xmlns="http://www.w3.org/2000/svg" viewBox="0 0 399.2 460"><title>Ресурс 10</title><g id="Слой_2" data-name="Слой 2"><g id="Слой_1-2" data-name="Слой 1"><path d="M227.14,434.36a60.66,60.66,0,0,0-53.37,0l-13.55,6.78a27.19,27.19,0,0,1-4.34,1.57A34.05,34.05,0,0,0,185.47,460h30A34.06,34.06,0,0,0,245,442.71a26.83,26.83,0,0,1-4.34-1.57Zm0,0" transform="translate(-0.86 0)"/><path d="M233.85,404.11a49.69,49.69,0,0,1-33.39-12.77A49.86,49.86,0,0,1,139.84,396a69.65,69.65,0,0,0-3.25,20.71A11.41,11.41,0,0,0,148,428.07a11.57,11.57,0,0,0,5.11-1.2l13.55-6.78a76.89,76.89,0,0,1,67.65,0l13.56,6.78a11.4,11.4,0,0,0,16.49-10.19,69.21,69.21,0,0,0-3.26-20.7,49.9,49.9,0,0,1-27.23,8.14Zm0,0" transform="translate(-0.86 0)"/><path d="M253.19,345.07l-4.41-2.94c-7.69,5.42-23.84,14.09-48.32,14.09s-40.62-8.67-48.32-14.09l-4.41,2.94a25,25,0,0,0-11.15,20.83,12.73,12.73,0,0,0,2.16,7.09,34.07,34.07,0,0,0,52.43,5.18l9.29-9.29,9.29,9.29A34.07,34.07,0,0,0,262.19,373a12.8,12.8,0,0,0,2.14-7.09,25,25,0,0,0-11.14-20.83Zm-84.67,35.09h-16v-16h16Zm79.84,0h-16v-16h16Zm0,0" transform="translate(-0.86 0)"/><path d="M328.2,96.3a30,30,0,0,0-5.06-16.72l-1.56-2.35a82.09,82.09,0,0,1-19.46,23.31,96.09,96.09,0,0,1,14.7,19.27A30,30,0,0,0,328.2,96.3Zm0,0" transform="translate(-0.86 0)"/><path d="M169.84,297.64c5.39,4,16.41,10.67,30.62,10.67s25.29-6.62,30.63-10.63l-2.77-10.6a76.29,76.29,0,0,1-55.73,0Zm0,0" transform="translate(-0.86 0)"/><path d="M73.59,145.94a95.06,95.06,0,0,1,3.54-11.4A46.07,46.07,0,0,1,64.49,70.73l8.19-12.29A74.64,74.64,0,0,0,44.54,2.19L41.82,0,18.94,26.7A75.1,75.1,0,0,0,.86,75.56v5.89l17.7,17.7-8,16,12.8,12.8A70.27,70.27,0,0,0,73,148.6Zm0,0" transform="translate(-0.86 0)"/><path d="M84.09,119.81a96.43,96.43,0,0,1,14.7-19.27A81.91,81.91,0,0,1,79.34,77.23l-1.57,2.35a30.05,30.05,0,0,0,6.32,40.23Zm0,0" transform="translate(-0.86 0)"/><path d="M400.06,75.56A75.1,75.1,0,0,0,382,26.7L359.11,0l-2.73,2.17a74.66,74.66,0,0,0-28.14,56.26l8.18,12.29a46.07,46.07,0,0,1-12.64,63.82,95,95,0,0,1,3.54,11.41l.62,2.65a70.26,70.26,0,0,0,49.61-20.69l12.8-12.8-8-16,17.69-17.69Zm0,0" transform="translate(-0.86 0)"/><path d="M311.77,149.6a80.24,80.24,0,0,0-29.88-45.7,135.77,135.77,0,0,0-162.87,0,80.17,80.17,0,0,0-29.87,45.69l-22.5,95.63a71.53,71.53,0,0,0-1.91,16.45v42.72A71.93,71.93,0,0,0,88.85,358.1l36,32c.05-.14.08-.29.13-.44l2-5.85c-.49-.67-1-1.29-1.5-2a28.75,28.75,0,0,1-4.83-15.95,40.89,40.89,0,0,1,18.26-34.11l6.71-4.48L200.46,117l54.87,210.35,6.7,4.44a40.92,40.92,0,0,1,18.26,34.12,28.71,28.71,0,0,1-4.82,15.93c-.47.7-1,1.32-1.52,2l1.94,5.85c.05.14.08.3.13.45l36-32a71.91,71.91,0,0,0,24.13-53.71V261.68a71.6,71.6,0,0,0-1.91-16.46ZM104.65,196.53h16v16h-16Zm36.33,36a29.08,29.08,0,0,1-48.16,11.37L83,234.1l11.29-11.28,9.79,9.78a13.12,13.12,0,0,0,21.73-5.13L137,194l15.14,5.05Zm139.32-36h16v16h-16Zm27.79,47.37a29.08,29.08,0,0,1-48.16-11.37l-11.15-33.47L263.91,194l11.16,33.47a13.12,13.12,0,0,0,21.73,5.13l9.79-9.78,11.29,11.28Zm0,0" transform="translate(-0.86 0)"/><path d="M161.59,329.27c5.65,4,18.47,11,38.88,11s33.2-7,38.87-11l-4-15.29a64.28,64.28,0,0,1-69.77,0Zm0,0" transform="translate(-0.86 0)"/><path d="M224.27,271.5l-23.81-91.25-23.8,91.25a60.7,60.7,0,0,0,47.61,0Zm0,0" transform="translate(-0.86 0)"/></g></g></svg>