<svg xmlns="http://www.w3.org/2000/svg" viewBox="0 0 464 392"><title>Ресурс 9</title><g id="Слой_2" data-name="Слой 2"><g id="Слой_1-2" data-name="Слой 1"><path d="M104,147.53a109.47,109.47,0,0,1,1.83-19.77A80.63,80.63,0,0,1,64,112L42.67,96,64,80a80.58,80.58,0,0,1,48-16,55.74,55.74,0,0,1,4.07-20.86C107.51,36,97.92,32,88,32c-30.87,0-56,35.89-56,80s25.13,80,56,80h25.43l-.86-2A108.85,108.85,0,0,1,104,147.53Zm0,0"/><path d="M211.24,368a43.75,43.75,0,0,1-8.6-.86,29.77,29.77,0,0,0,58.73,0,43.15,43.15,0,0,1-8.61.86Zm0,0"/><path d="M200,270.74V258.59A303,303,0,0,0,185.5,166a55,55,0,0,1-9.5-3.51V176H160V151.08a55.75,55.75,0,0,1-15.95-36.49,55.9,55.9,0,0,1-14.18-9.73l-3.19,8a93.34,93.34,0,0,0,.63,70.93l48.84,116c.63-.89,1.16-1.84,1.86-2.69l21.59-25.9c.13-.15.26-.27.39-.43Zm0,0"/><path d="M112,80A64.42,64.42,0,0,0,73.59,92.8L69.33,96l4.27,3.2a64.35,64.35,0,0,0,36.5,12.64c.57-1.65,1.06-3.32,1.71-4.95L118.57,90a55.76,55.76,0,0,1-4.22-10Zm0,0"/><path d="M16,112c0-52.94,32.3-96,72-96,12.94,0,25.35,4.52,36.31,13.06a56.24,56.24,0,0,1,11.56-10.85C121.67,6.45,105.1,0,88,0,39.48,0,0,50.24,0,112S39.48,224,88,224a22.7,22.7,0,0,0,21.72-16H88c-39.7,0-72-43.06-72-96Zm0,0"/><path d="M154.79,101.71l5.69,2-.42,6.83c0,.49-.07,1-.07,1.47a39.94,39.94,0,0,0,66.66,29.75L232,137l5.34,4.8A39.94,39.94,0,0,0,304,112c0-.5,0-1-.07-1.47l-.06-.81-.36-6,5.69-2A40,40,0,0,0,296,24a39.41,39.41,0,0,0-10,1.34A55.75,55.75,0,0,1,288,40H272a40,40,0,0,0-80,0H176a55.65,55.65,0,0,1,2-14.66A39.1,39.1,0,0,0,168,24a40,40,0,0,0-13.21,77.71Zm0,0"/><path d="M232,256a42.17,42.17,0,0,1,16,3.21v-.61a319.14,319.14,0,0,1,13.21-90.81A55.71,55.71,0,0,1,232,157.89a55.68,55.68,0,0,1-29.21,9.89A319.2,319.2,0,0,1,216,258.6v.61A42,42,0,0,1,232,256Zm0,0"/><path d="M252.1,281.41a26.16,26.16,0,0,0-40.2,0l-21.58,25.9A27.24,27.24,0,0,0,211.24,352h41.52a27.24,27.24,0,0,0,20.92-44.68ZM258.34,329l-7,7a27.31,27.31,0,0,1-38.62,0l-7-7a19.31,19.31,0,0,1,13.66-33h25.38a19.31,19.31,0,0,1,13.66,33Zm0,0"/><path d="M353.89,111.85A64.44,64.44,0,0,0,390.4,99.21l4.27-3.2-4.27-3.2A64.45,64.45,0,0,0,352,80h-2.36a55.49,55.49,0,0,1-4.23,10l6.76,16.89c.66,1.62,1.15,3.3,1.72,4.95Zm0,0"/><path d="M334.13,104.86A56.18,56.18,0,0,1,320,114.59,55.73,55.73,0,0,1,304,151.08V176H288V162.53a55.28,55.28,0,0,1-9.5,3.51A302.85,302.85,0,0,0,264,258.6v12.15c.13.14.27.27.39.41L286,297.08c.7.84,1.23,1.79,1.86,2.68l48.84-116a93.39,93.39,0,0,0,.64-70.93Zm0,0"/><path d="M432,112c0-44.11-25.13-80-56-80-9.92,0-19.51,4-28.07,11.14A55.76,55.76,0,0,1,352,64a80.54,80.54,0,0,1,48,16l21.33,16L400,112a80.67,80.67,0,0,1-41.84,15.74A108.93,108.93,0,0,1,351.43,190l-.86,2H376c30.87,0,56-35.9,56-80Zm0,0"/><path d="M244.69,312H219.31a3.31,3.31,0,0,0-2.34,5.66l7,7a11.6,11.6,0,0,0,16,0l7-7a3.31,3.31,0,0,0-2.34-5.66Zm0,0"/><path d="M376,0c-17.1,0-33.67,6.45-47.87,18.21a56.75,56.75,0,0,1,11.56,10.85C350.66,20.53,363.05,16,376,16c39.7,0,72,43.06,72,96s-32.3,96-72,96H354.28A22.7,22.7,0,0,0,376,224c48.52,0,88-50.24,88-112S424.52,0,376,0Zm0,0"/></g></g></svg>