<svg xmlns="http://www.w3.org/2000/svg" viewBox="0 0 392.44 453"><title>Ресурс 8</title><g id="Слой_2" data-name="Слой 2"><g id="Слой_1-2" data-name="Слой 1"><path d="M156.7,302.84a15.71,15.71,0,0,0,3.44,9.8l16.8,21a25.27,25.27,0,0,0,39.45,0l16.81-21A15.7,15.7,0,0,0,221,287.17H172.37a15.69,15.69,0,0,0-15.67,15.67Zm0,0" transform="translate(-0.43)"/><path d="M81.32,57.46l11.86,5.93q6.84-4.18,14.1-7.69A342.43,342.43,0,0,1,41.37,13.07,59.73,59.73,0,0,0,11.41,0c-.07,3.62-.39,7.24-.55,10.87A74.8,74.8,0,0,1,19,16.68,323.26,323.26,0,0,0,81.32,57.46Zm0,0" transform="translate(-0.43)"/><path d="M315.24,73.72A162.67,162.67,0,0,1,365,138.84l4.41-5.81A94.15,94.15,0,0,0,386.6,95a92.67,92.67,0,0,0,.9-31.83l-1-6.93c-1.26-8.76-2.23-17.58-3-26.43a339.5,339.5,0,0,1-64.38,42Zm0,0" transform="translate(-0.43)"/><path d="M312,57.46a323.72,323.72,0,0,0,62.37-40.79,75.92,75.92,0,0,1,8.1-5.8c-.16-3.63-.48-7.25-.54-10.87a59.73,59.73,0,0,0-30,13.07A342.43,342.43,0,0,1,286.05,55.7q7.26,3.52,14.11,7.69Zm0,0" transform="translate(-0.43)"/><path d="M23.89,133l4.41,5.81A162.67,162.67,0,0,1,78.09,73.72l-3.91-2A339.92,339.92,0,0,1,9.8,29.8c-.75,8.85-1.72,17.67-3,26.42l-1,6.95A93.24,93.24,0,0,0,6.71,95a94.29,94.29,0,0,0,17.17,38Zm0,0" transform="translate(-0.43)"/><path d="M236.77,195.8a148.3,148.3,0,0,0-8.13,48.15v28.29a31.57,31.57,0,0,1,17,50.38l-16.81,21a41.1,41.1,0,0,1-13.52,11L216,356a34.58,34.58,0,0,0,51,12.68l9-6.41a77.67,77.67,0,0,0,9.37-118.5Zm0,0" transform="translate(-0.43)"/><path d="M177.31,356l.68-1.35a41.07,41.07,0,0,1-13.53-11l-16.8-21a31.58,31.58,0,0,1,17-50.39V243.95a148.35,148.35,0,0,0-8.14-48.18l-48.62,48a77.66,77.66,0,0,0,9.36,118.5l9,6.41a34.59,34.59,0,0,0,51-12.68Zm0,0" transform="translate(-0.43)"/><path d="M201.72,363.11l-2.09-4.18c-1,.07-2,.17-3,.17s-2-.1-3-.17l-2.09,4.18a50.23,50.23,0,0,1-37.84,27.4c6,7.44,18.35,16.54,42.9,16.54s36.88-9.09,42.9-16.54a50.23,50.23,0,0,1-37.86-27.4Zm0,0" transform="translate(-0.43)"/><path d="M347.95,264l44.92,18A127.77,127.77,0,0,0,379.25,250a123.2,123.2,0,0,1-9.76-20.76,115.29,115.29,0,0,1-42.43,25.52L322,239.63a99.65,99.65,0,0,0,38.73-23.93l3.63-3.63a122.87,122.87,0,0,1-2.23-14.44l-.72-8L356,195a115.55,115.55,0,0,1-45,27.8L306,207.68a99.69,99.69,0,0,0,38.73-23.93l13.57-13.57A146.45,146.45,0,0,0,239.2,57.35c-12.68-2.05-26.28-.2-39.37,5.4l-3,1.3-3.11-1.21c-13.3-5.69-26.92-7.57-39.59-5.48A146.41,146.41,0,0,0,35,170.18l13.55,13.56A99.57,99.57,0,0,0,87.3,207.68l-5.06,15.15a115.33,115.33,0,0,1-45-27.8l-5.37-5.36-.72,7.95a121.33,121.33,0,0,1-2.24,14.45l3.63,3.63A99.56,99.56,0,0,0,71.3,239.62l-5.06,15.15a115.35,115.35,0,0,1-42.43-25.52A123.27,123.27,0,0,1,14.06,250,127.73,127.73,0,0,0,.43,281.91l44.92-18L34.27,286.11a127.55,127.55,0,0,0-12.48,41.41l23-15.33v26.08a86.92,86.92,0,0,0,7.62,35.66l8.37-16.73,8,15.94a200.16,200.16,0,0,0,27.8,41.66l8.49-34,21.54,28.72a50.88,50.88,0,0,0,28.27,18.79,67.38,67.38,0,0,1,24.3,11.55L196.66,453l17.48-13.11a67.13,67.13,0,0,1,24.29-11.55,50.87,50.87,0,0,0,28.26-18.78l21.55-28.73,8.49,34a200.11,200.11,0,0,0,27.8-41.66l8-15.93,8.37,16.73a86.94,86.94,0,0,0,7.62-35.66V312.2l23,15.34A128,128,0,0,0,359,286.12ZM135.25,71.8,150,76.7a52.76,52.76,0,0,0,39.84-2.83l6.85-3.42,6.85,3.43a52.72,52.72,0,0,0,39.84,2.83l14.71-4.9L263.13,87l-14.72,4.9a68,68,0,0,1-21.55,3.5,68.59,68.59,0,0,1-30.19-7,68.92,68.92,0,0,1-51.75,3.54l-14.71-4.9Zm0,32L150,108.67a52.76,52.76,0,0,0,39.84-2.83l6.85-3.42,6.85,3.43a52.72,52.72,0,0,0,39.84,2.83l14.71-4.9,5.06,15.15-14.72,4.9a68.13,68.13,0,0,1-51.75-3.56,68.92,68.92,0,0,1-51.75,3.55l-14.71-4.9ZM285.32,375.23l-9,6.41a50.3,50.3,0,0,1-17.62,7.89c-4.37,10.1-19.12,33.5-62.07,33.5s-57.69-23.4-62.07-33.5A50.32,50.32,0,0,1,117,381.65l-9-6.41A93.64,93.64,0,0,1,96.7,232.35l48.95-48.23a15.55,15.55,0,0,0-9.11-24.44l-2.22,4.45a34.65,34.65,0,0,1-59.82,3.72l-5.71-8.55,7.43-7.43a61.7,61.7,0,0,1-22.07-20.11l13.3-8.86a45.75,45.75,0,0,0,38.15,20.42h27.64a31.42,31.42,0,0,1,31.3,29.89A164.37,164.37,0,0,1,180.68,244v27.24h32V244a164.37,164.37,0,0,1,16.14-70.74,31.42,31.42,0,0,1,31.3-29.89h27.64a45.74,45.74,0,0,0,38.14-20.42l13.3,8.86a61.69,61.69,0,0,1-22.07,20.11l7.43,7.43-5.7,8.54A34.65,34.65,0,0,1,259,164.12l-2.22-4.45a15.46,15.46,0,0,0-8.59,25l48.42,47.66a93.64,93.64,0,0,1-11.3,142.89Zm0,0" transform="translate(-0.43)"/></g></g></svg>