<svg xmlns="http://www.w3.org/2000/svg" viewBox="0 0 456.22 464"><title>Ресурс 7</title><g id="Слой_2" data-name="Слой 2"><g id="Слой_1-2" data-name="Слой 1"><path d="M348.12,270.28a87.59,87.59,0,0,1-16,6.3v11.77a488,488,0,0,1-6.62,80,141.64,141.64,0,0,1-60.94,94.25l-2,1.34H397.88a365.64,365.64,0,0,1-49.76-184.3Zm0,0" transform="translate(-0.01)"/><path d="M380.12,192c0-2.46-.13-4.89-.37-7.28A160.28,160.28,0,0,1,448,206.86l8.23-13.72A176.5,176.5,0,0,0,376,168.35a71.82,71.82,0,0,0-99.43-41.06,37.25,37.25,0,0,1,7.5,22.31,37.76,37.76,0,0,1-8.25,23.5l-15.5,19.4a41.06,41.06,0,0,1-22.68,14.37,71.93,71.93,0,0,0,138.1,9.48A160.32,160.32,0,0,1,448,238.87l8.23-13.72a176.42,176.42,0,0,0-76.69-24.52,69.93,69.93,0,0,0,.58-8.63Zm-88,24h-16V200h16Zm8-56V144h16v16Zm32,40h-16V184h16Zm0,0" transform="translate(-0.01)"/><path d="M148.12,264a71.67,71.67,0,0,0,70.43-57.13,41,41,0,0,1-22.68-14.38L180.36,173.1a37.77,37.77,0,0,1-8.24-23.5,37.25,37.25,0,0,1,7.5-22.31A71.83,71.83,0,0,0,80.2,168.35,176.36,176.36,0,0,0,0,193.13l8.23,13.72A160.32,160.32,0,0,1,76.5,184.71c-.24,2.4-.37,4.83-.37,7.29a71.59,71.59,0,0,0,.57,8.63A176.42,176.42,0,0,0,0,225.14l8.23,13.72a160.58,160.58,0,0,1,72.21-22.51A72.07,72.07,0,0,0,148.12,264Zm16-64h16v16h-16Zm-24-56h16v16h-16Zm-16,40h16v16h-16Zm0,0" transform="translate(-0.01)"/><path d="M309.71,365.78a472.39,472.39,0,0,0,6.41-77.41v-8.77c-2.64.24-5.3.41-8,.41a88.94,88.94,0,0,1-23.06-3.08,558.62,558.62,0,0,1-12,158.39,125.6,125.6,0,0,0,36.63-69.53Zm0,0" transform="translate(-0.01)"/><path d="M192.8,116.21A37.12,37.12,0,0,1,209.74,112h36.78a37.14,37.14,0,0,1,16.94,4.21A87.61,87.61,0,0,1,355.63,118C350.5,52.11,295.34,0,228.12,0S105.75,52.11,100.63,118a87.62,87.62,0,0,1,92.17-1.82ZM284.12,56h16V72h-16Zm-128,0h16V72h-16Zm0,0" transform="translate(-0.01)"/><path d="M268.58,270.72a87.54,87.54,0,0,1-40.45-42.07,87.5,87.5,0,0,1-40.46,42.07A543,543,0,0,0,199.79,436.3l6.39,27.7h43.88l6.39-27.7a542.48,542.48,0,0,0,12.12-165.58Zm0,0" transform="translate(-0.01)"/><path d="M148.12,280c-2.7,0-5.36-.17-8-.41v8.77a472.9,472.9,0,0,0,6.41,77.41,125.73,125.73,0,0,0,36.63,69.53,558.77,558.77,0,0,1-12-158.39A88.89,88.89,0,0,1,148.12,280Zm0,0" transform="translate(-0.01)"/><path d="M246.52,128H209.73a21.61,21.61,0,0,0-16.87,35.11l15.52,19.4a25.28,25.28,0,0,0,39.49,0l15.51-19.41A21.6,21.6,0,0,0,246.52,128Zm0,0" transform="translate(-0.01)"/><path d="M130.75,368.4a488,488,0,0,1-6.62-80V276.59a87.36,87.36,0,0,1-16-6.3v9.41A365.61,365.61,0,0,1,58.37,464H193.7l-2-1.34a141.66,141.66,0,0,1-60.94-94.25Zm0,0" transform="translate(-0.01)"/></g></g></svg>