<svg xmlns="http://www.w3.org/2000/svg" viewBox="0 0 437.7 448"><title>Ресурс 6</title><g id="Слой_2" data-name="Слой 2"><g id="Слой_1-2" data-name="Слой 1"><path d="M21,16a211.55,211.55,0,0,1,60.75,8.91A131.88,131.88,0,0,1,144,65.4c4.84-2.37,9.81-4.49,14.86-6.39A116.66,116.66,0,0,0,93.17,8.24,195.46,195.46,0,0,0,37,0H18.86V4.19c0,3.91.16,7.86.27,11.81Zm0,0" transform="translate(-0.01 0)"/><path d="M198.86,360a4,4,0,0,0-4,4,4.07,4.07,0,0,0,.81,2.41l16.8,22.39c3,4,9.8,4,12.8,0l16.8-22.4a4.15,4.15,0,0,0,.79-2.41,4,4,0,0,0-4-4Zm0,0" transform="translate(-0.01 0)"/><path d="M360.56,40.25a115.79,115.79,0,0,0-52.45,33.1,170.16,170.16,0,0,1,60,62.93l5.11,9.29A179.67,179.67,0,0,0,417,43.68c.36-4,.56-7.79.8-11.67h-1.12a195.06,195.06,0,0,0-56.15,8.24Zm0,0" transform="translate(-0.01 0)"/><path d="M202.86,264.28V344h32V264.28A647.87,647.87,0,0,1,263.53,73.62l.82-2.67a152.66,152.66,0,0,0-91,0l.82,2.67a647.87,647.87,0,0,1,28.67,190.67Zm0,0" transform="translate(-0.01 0)"/><path d="M356,24.92A211.44,211.44,0,0,1,416.72,16h1.87c.11-3.95.27-7.91.27-11.81V0H400.71a195.67,195.67,0,0,0-56.16,8.24A116.65,116.65,0,0,0,278.86,59c5.05,1.9,10,4,14.86,6.39A131.82,131.82,0,0,1,356,24.92Zm0,0" transform="translate(-0.01 0)"/><path d="M135.06,347.8a286.49,286.49,0,0,0-43-135.56l-2.38-3.8,16.64-33.28A70.84,70.84,0,0,1,169.69,136h3.91c-4-19.41-8.86-38.66-14.72-57.68l-.59-1.94A154.21,154.21,0,0,0,83.6,144l-28.55,51.9A200.25,200.25,0,0,1,21.17,241,118.06,118.06,0,0,1,0,257.8a99.69,99.69,0,0,0,37.38,22.61l9.94,3.3-7.78,11.67A82.14,82.14,0,0,1,7.27,323.55,130.29,130.29,0,0,0,85,371.46l52.16,10.43c-.21-1.43-.37-2.87-.46-4.34Zm0,0" transform="translate(-0.01 0)"/><path d="M21,32H19.88c.24,3.67.42,7.34.75,11A180.46,180.46,0,0,0,64.48,145.55l5.11-9.29a170.11,170.11,0,0,1,60-62.93,115.75,115.75,0,0,0-52.45-33.1A195.69,195.69,0,0,0,21,32Zm0,0" transform="translate(-0.01 0)"/><path d="M398.17,295.39l-7.78-11.67,9.94-3.3A99.7,99.7,0,0,0,437.7,257.8,118.2,118.2,0,0,1,416.54,241a200,200,0,0,1-33.89-45.13L354.11,144a154.27,154.27,0,0,0-74.69-67.6l-.59,1.94c-5.86,19-10.69,38.27-14.71,57.68H268a70.84,70.84,0,0,1,63.36,39.16L348,208.44l-2.38,3.8a286.49,286.49,0,0,0-43,135.56L301,377.56c-.08,1.46-.25,2.91-.46,4.34l52.16-10.43a130.31,130.31,0,0,0,77.73-47.92,82.23,82.23,0,0,1-32.27-28.17Zm0,0" transform="translate(-0.01 0)"/><path d="M317.07,182.31A54.84,54.84,0,0,0,268,152h-7a631.94,631.94,0,0,0-10.12,112.29V348.1a19.91,19.91,0,0,1,8,15.9,20.11,20.11,0,0,1-4,12h0l-16.81,22.4a23.13,23.13,0,0,1-4.16,4.24,33.14,33.14,0,0,0,51.15-26l1.65-29.76a302.61,302.61,0,0,1,43-139.3ZM290.86,208h-16V192h16Zm0,0" transform="translate(-0.01 0)"/><path d="M218.86,411.15A48.74,48.74,0,0,1,185.8,424c-.58,0-1.14-.06-1.7-.08,6.48,10.27,18.25,24.08,34.76,24.08s28.36-13.82,34.8-24.09c-.59,0-1.16.09-1.75.09a48.78,48.78,0,0,1-33-12.85Zm0,0" transform="translate(-0.01 0)"/><path d="M203.83,402.64a23.59,23.59,0,0,1-4.16-4.25L182.86,376a20.18,20.18,0,0,1-4-12,19.91,19.91,0,0,1,8-15.9V264.28A631.41,631.41,0,0,0,176.74,152h-7a54.85,54.85,0,0,0-49,30.31L108,207.6a302.54,302.54,0,0,1,43,139.3l1.65,29.76a33.14,33.14,0,0,0,51.14,26ZM162.86,208h-16V192h16Zm0,0" transform="translate(-0.01 0)"/></g></g></svg>