<?xml version="1.0" encoding="UTF-8"?>
<!DOCTYPE svg PUBLIC "-//W3C//DTD SVG 1.1//EN" "http://www.w3.org/Graphics/SVG/1.1/DTD/svg11.dtd">
<svg xmlns="http://www.w3.org/2000/svg" version="1.1" width="50px" height="50px" style="shape-rendering:geometricPrecision; text-rendering:geometricPrecision; image-rendering:optimizeQuality; fill-rule:evenodd; clip-rule:evenodd" xmlns:xlink="http://www.w3.org/1999/xlink">
<g><path style="opacity:0.78" fill="#3fc156" d="M 49.5,25.5 C 49.5,29.8333 49.5,34.1667 49.5,38.5C 48.8444,39.2778 48.0111,39.9444 47,40.5C 45.4045,39.5035 43.9045,38.3368 42.5,37C 39.725,36.2217 37.225,36.7217 35,38.5C 33.7147,38.0496 32.548,37.3829 31.5,36.5C 28.6144,37.5964 26.6144,39.5964 25.5,42.5C 24.1667,41.5 22.8333,40.5 21.5,39.5C 20.1667,40.5 18.8333,41.5 17.5,42.5C 15.31,41.2524 14.9766,39.5857 16.5,37.5C 15.1502,36.0499 13.4835,35.3832 11.5,35.5C 11.4772,33.4004 12.1439,31.5671 13.5,30C 12.7935,27.46 11.1268,26.2933 8.5,26.5C 9.56663,18.8958 6.56663,15.8958 -0.5,17.5C -0.5,16.1667 -0.5,14.8333 -0.5,13.5C 6.29181,6.05143 14.6251,3.38476 24.5,5.5C 22.5781,8.58149 21.4115,11.9148 21,15.5C 21.414,15.9574 21.914,16.2907 22.5,16.5C 25.0559,12.1291 27.3893,11.9624 29.5,16C 30.8333,16 32.1667,16 33.5,16C 33.9863,18.0266 33.9863,20.1933 33.5,22.5C 37.3771,21.473 39.3771,18.8063 39.5,14.5C 41.9032,14.393 43.7365,15.393 45,17.5C 46.795,20.0993 48.295,22.7659 49.5,25.5 Z M 15.5,7.5 C 16.9778,7.23798 18.3112,7.57131 19.5,8.5C 16.182,14.0864 17.3486,18.4197 23,21.5C 24.6349,18.4229 26.8015,17.9229 29.5,20C 29.1119,21.5252 29.1119,23.1918 29.5,25C 35.4309,26.9253 39.5976,25.092 42,19.5C 46.0723,24.0942 47.4057,29.4275 46,35.5C 45.5,35 45,34.5 44.5,34C 40.1035,33.9342 35.7702,33.7676 31.5,33.5C 28.7862,33.9404 26.6195,35.2738 25,37.5C 21.3164,37.0961 18.1497,35.5961 15.5,33C 17.2012,29.0218 16.2012,25.8551 12.5,23.5C 11.7841,18.6225 9.11739,15.4559 4.5,14C 7.64748,10.7666 11.3142,8.59998 15.5,7.5 Z"/></g>
</svg>
