<svg xmlns="http://www.w3.org/2000/svg" version="1.1" xmlns:xlink="http://www.w3.org/1999/xlink" xmlns:svgjs="http://svgjs.com/svgjs" width="512" height="512" x="0" y="0" viewBox="0 0 512.009 512.009" style="enable-background:new 0 0 512 512" xml:space="preserve" class=""><g><g xmlns="http://www.w3.org/2000/svg"><path d="m162.89 432.115c12.2 0 22.125-9.925 22.125-22.124 0-12.2-9.925-22.125-22.125-22.125s-22.125 9.925-22.125 22.125 9.925 22.124 22.125 22.124zm0-29.249c3.929 0 7.125 3.196 7.125 7.125 0 3.928-3.196 7.124-7.125 7.124s-7.125-3.196-7.125-7.124 3.196-7.125 7.125-7.125z" fill="#6AAF08" data-original="#6AAF08" class=""></path><path d="m349.12 432.115c12.199 0 22.124-9.925 22.124-22.124 0-12.2-9.925-22.125-22.124-22.125-12.2 0-22.125 9.925-22.125 22.125s9.924 22.124 22.125 22.124zm0-29.249c3.928 0 7.124 3.196 7.124 7.125 0 3.928-3.196 7.124-7.124 7.124-3.929 0-7.125-3.196-7.125-7.124s3.196-7.125 7.125-7.125z" fill="#6AAF08" data-original="#6AAF08" class=""></path><path d="m299.764 94.729h-87.52c-4.143 0-7.5 3.357-7.5 7.5s3.357 7.5 7.5 7.5h87.52c4.143 0 7.5-3.357 7.5-7.5s-3.357-7.5-7.5-7.5z" fill="#6AAF08" data-original="#6AAF08" class=""></path><path d="m299.764 121.912h-87.52c-4.143 0-7.5 3.357-7.5 7.5s3.357 7.5 7.5 7.5h87.52c4.143 0 7.5-3.357 7.5-7.5s-3.357-7.5-7.5-7.5z" fill="#6AAF08" data-original="#6AAF08" class=""></path><path d="m299.764 149.095h-87.52c-4.143 0-7.5 3.357-7.5 7.5s3.357 7.5 7.5 7.5h87.52c4.143 0 7.5-3.357 7.5-7.5s-3.357-7.5-7.5-7.5z" fill="#6AAF08" data-original="#6AAF08" class=""></path><path d="m504.504 497.009h-27.566v-205.347c0-4.143-3.357-7.5-7.5-7.5s-7.5 3.357-7.5 7.5v205.347h-13.325v-283.221c0-18.144-14.761-32.904-32.904-32.904h-319.408c-18.144 0-32.904 14.761-32.904 32.904v283.221h-13.326v-344.226l205.934-96.37 205.934 96.37v109.879c0 4.143 3.357 7.5 7.5 7.5s7.5-3.357 7.5-7.5v-103.084c2.682.874 5.458 1.313 8.24 1.313 3.079 0 6.169-.538 9.149-1.618 6.732-2.439 12.111-7.355 15.146-13.841 6.265-13.389.469-29.378-12.919-35.644l-229.187-107.251c-7.22-3.383-15.505-3.383-22.727-.001l-171.565 80.287c-3.752 1.756-5.37 6.22-3.614 9.972 1.755 3.752 6.221 5.371 9.972 3.614l171.566-80.287c3.181-1.489 6.826-1.491 10.009 0l229.188 107.252c5.896 2.76 8.449 9.803 5.69 15.7-1.337 2.856-3.705 5.021-6.67 6.096-2.965 1.073-6.171.931-9.028-.407l-221.006-103.423c-2.014-.943-4.344-.943-6.357 0l-221.005 103.423c-1.586.742-3.266 1.118-4.991 1.118-4.569 0-8.771-2.672-10.707-6.807-2.759-5.897-.207-12.94 5.689-15.7l31.348-14.67c3.752-1.756 5.37-6.221 3.614-9.972-1.755-3.752-6.221-5.372-9.972-3.614l-31.349 14.67c-13.387 6.266-19.182 22.256-12.917 35.645 4.393 9.385 13.928 15.448 24.293 15.448 2.822 0 5.582-.437 8.241-1.303v337.431h-27.566c-4.143 0-7.5 3.357-7.5 7.5s3.357 7.5 7.5 7.5h497c4.143 0 7.5-3.357 7.5-7.5s-3.357-7.5-7.5-7.5zm-350.314-12.485v-26.271h24.971v26.271c0 6.885-5.601 12.485-12.485 12.485s-12.486-5.601-12.486-12.485zm-4.365-157.434h-17.268c-.758 0-1.375-.617-1.375-1.375v-13.57c0-.758.617-1.374 1.375-1.374h21.482zm31.046-60.232c3.352-12.98 15.056-22.046 28.462-22.046h93.345c13.406 0 25.11 9.065 28.462 22.046l24.498 94.871h-199.265zm177.099 43.912h21.482c.758 0 1.375.617 1.375 1.375v13.57c0 .758-.617 1.375-1.375 1.375h-17.268zm22.527 65.959c4.434 0 8.041 3.607 8.041 8.041v50.442c0 4.434-3.607 8.041-8.041 8.041h-146.875c-4.143 0-7.5 3.357-7.5 7.5s3.357 7.5 7.5 7.5h84.228v26.271c0 4.493 1.084 8.737 3.003 12.485h-129.695c1.919-3.749 3.003-7.993 3.003-12.485v-26.271h10.461c4.143 0 7.5-3.357 7.5-7.5s-3.357-7.5-7.5-7.5h-73.108c-4.434 0-8.041-3.607-8.041-8.041v-50.442c0-4.434 3.607-8.041 8.041-8.041zm-22.677 107.795c0 6.885-5.601 12.485-12.485 12.485s-12.485-5.601-12.485-12.485v-26.271h24.971v26.271zm11.997 12.485c1.919-3.749 3.003-7.993 3.003-12.485v-26.271h7.677c12.705 0 23.041-10.336 23.041-23.041v-50.442c0-12.705-10.336-23.041-23.041-23.041h-9.368l-5.071-19.639h13.395c9.029 0 16.375-7.346 16.375-16.375v-13.57c0-9.029-7.346-16.375-16.375-16.375h-25.356l-8.434-32.662c-5.062-19.604-22.738-33.296-42.985-33.296h-93.345c-20.247 0-37.924 13.691-42.985 33.296l-8.434 32.663h-25.356c-9.029 0-16.375 7.346-16.375 16.374v13.57c0 9.029 7.346 16.375 16.375 16.375h13.395l-5.071 19.639h-9.368c-12.705 0-23.041 10.336-23.041 23.041v50.442c0 12.705 10.336 23.041 23.041 23.041h7.677v26.271c0 4.493 1.084 8.737 3.003 12.485h-63.797v-283.221c0-9.872 8.032-17.904 17.904-17.904h319.407c9.872 0 17.904 8.032 17.904 17.904v283.221z" fill="#6AAF08" data-original="#6AAF08" class=""></path><g><path d="m331.908 350.849h-151.806c-2.319 0-4.509-1.073-5.93-2.907-1.42-1.834-1.912-4.222-1.332-6.468l18.564-71.896c2.112-8.177 9.484-13.887 17.927-13.887h93.346c8.444 0 15.816 5.71 17.927 13.886l18.565 71.896c.58 2.246.088 4.634-1.332 6.468-1.42 1.835-3.61 2.908-5.929 2.908zm-142.123-15h132.44l-16.145-62.521c-.4-1.552-1.8-2.636-3.403-2.636h-93.346c-1.603 0-3.002 1.085-3.403 2.638z" fill="#6AAF08" data-original="#6AAF08" class=""></path></g><g><g><path d="m296.308 417.491h-80.607c-4.143 0-7.5-3.357-7.5-7.5s3.357-7.5 7.5-7.5h80.607c4.143 0 7.5 3.357 7.5 7.5s-3.357 7.5-7.5 7.5z" fill="#6AAF08" data-original="#6AAF08" class=""></path></g></g></g></g></svg>