<?xml version="1.0" encoding="UTF-8"?>
<!DOCTYPE svg PUBLIC "-//W3C//DTD SVG 1.1//EN" "http://www.w3.org/Graphics/SVG/1.1/DTD/svg11.dtd">
<svg xmlns="http://www.w3.org/2000/svg" version="1.1" width="50px" height="50px" style="shape-rendering:geometricPrecision; text-rendering:geometricPrecision; image-rendering:optimizeQuality; fill-rule:evenodd; clip-rule:evenodd" xmlns:xlink="http://www.w3.org/1999/xlink">
<g><path style="opacity:0.726" fill="#3fc257" d="M 18.5,4.5 C 21.3252,4.16161 23.4918,5.16161 25,7.5C 25.4828,6.55198 25.6495,5.55198 25.5,4.5C 27.3307,5.05216 28.9974,5.05216 30.5,4.5C 31.6427,8.12479 32.9761,8.29146 34.5,5C 39.4198,4.25488 43.0865,6.08821 45.5,10.5C 39.1597,12.1856 33.493,15.1856 28.5,19.5C 26.4892,16.1866 23.8225,14.5199 20.5,14.5C 18.4123,12.1351 15.7456,11.1351 12.5,11.5C 12.3505,10.448 12.5172,9.44802 13,8.5C 14.8121,7.02294 16.6455,5.6896 18.5,4.5 Z M 23.5,10.5 C 21.3193,10.7163 19.6526,9.88301 18.5,8C 20.6721,7.72005 22.3387,8.55338 23.5,10.5 Z M 34.5,10.5 C 35.3218,8.27209 36.6552,7.60542 38.5,8.5C 37.4231,9.70512 36.0898,10.3718 34.5,10.5 Z M 34.5,10.5 C 30.7163,15.5886 27.0497,15.5886 23.5,10.5C 25.7224,10.822 27.5557,10.1554 29,8.5C 30.4007,10.1922 32.2341,10.8588 34.5,10.5 Z"/></g>
<g><path style="opacity:0.75" fill="#3fc156" d="M 7.5,14.5 C 10.2385,13.9648 12.0718,14.9648 13,17.5C 13.3076,16.6919 13.8076,16.0253 14.5,15.5C 17.3728,16.7749 20.3728,17.6082 23.5,18C 24.8721,19.2419 25.8721,20.7419 26.5,22.5C 22.257,23.6023 18.0904,24.9356 14,26.5C 10.9794,23.0732 7.47942,20.2399 3.5,18C 4.73052,16.5952 6.06386,15.4286 7.5,14.5 Z M 14.5,19.5 C 15.2674,20.172 15.9341,21.0053 16.5,22C 12.7797,22.4916 12.1131,21.6583 14.5,19.5 Z"/></g>
<g><path style="opacity:0.73" fill="#40c156" d="M 32.5,35.5 C 31.0905,38.6533 29.4238,41.6533 27.5,44.5C 24.179,42.4611 20.679,40.7944 17,39.5C 15.1601,41.7591 13.1601,41.7591 11,39.5C 8.78252,40.2179 6.61585,40.7179 4.5,41C 4.64785,35.3042 7.64785,31.4708 13.5,29.5C 15.4366,30.2604 17.2699,31.2604 19,32.5C 19.4935,30.8659 19.6602,29.1992 19.5,27.5C 20.8221,27.33 21.9887,27.6634 23,28.5C 24.9125,26.0444 26.5792,26.3778 28,29.5C 29.2692,28.0953 29.7692,26.4286 29.5,24.5C 35.5335,22.5603 40.8669,23.7269 45.5,28C 43.7148,29.1628 41.7148,29.8295 39.5,30C 37.9632,31.1096 37.2965,32.6096 37.5,34.5C 35.7085,34.366 34.0418,34.6993 32.5,35.5 Z M 32.5,35.5 C 29.9097,36.5627 27.743,38.2294 26,40.5C 20.6736,38.3312 15.1736,36.6645 9.5,35.5C 10.4363,34.0256 11.7697,33.0256 13.5,32.5C 15.2895,33.8772 17.2895,34.8772 19.5,35.5C 21.1693,34.3291 22.6693,32.9958 24,31.5C 28.931,33.4027 31.7643,31.7361 32.5,26.5C 34.5273,26.3379 36.5273,26.5045 38.5,27C 36.6266,29.2089 34.46,31.0422 32,32.5C 31.5304,33.5768 31.6971,34.5768 32.5,35.5 Z"/></g>
</svg>
