<?xml version="1.0" encoding="UTF-8"?>
<!DOCTYPE svg PUBLIC "-//W3C//DTD SVG 1.1//EN" "http://www.w3.org/Graphics/SVG/1.1/DTD/svg11.dtd">
<svg xmlns="http://www.w3.org/2000/svg" version="1.1" width="64px" height="64px" style="shape-rendering:geometricPrecision; text-rendering:geometricPrecision; image-rendering:optimizeQuality; fill-rule:evenodd; clip-rule:evenodd" xmlns:xlink="http://www.w3.org/1999/xlink">
<g><path style="opacity:0.708" fill="#40c850" d="M 40.5,3.5 C 43.8606,4.20318 44.1939,5.53651 41.5,7.5C 39.3576,6.56289 39.0243,5.22955 40.5,3.5 Z"/></g>
<g><path style="opacity:0.792" fill="#40c055" d="M 23.5,5.5 C 30.536,4.6026 32.2027,7.1026 28.5,13C 22.7853,13.401 21.1187,10.901 23.5,5.5 Z"/></g>
<g><path style="opacity:0.693" fill="#41be54" d="M 7.5,6.5 C 12.8333,7.5 12.8333,8.5 7.5,9.5C 7.5,8.5 7.5,7.5 7.5,6.5 Z"/></g>
<g><path style="opacity:0.819" fill="#3fc156" d="M 54.5,27.5 C 50.2183,28.755 48.5516,31.4216 49.5,35.5C 55.4017,32.0349 57.9017,33.7016 57,40.5C 53.2676,42.2567 50.601,41.2567 49,37.5C 46.2576,40.0537 45.7576,43.0537 47.5,46.5C 47.5472,48.0004 46.8805,49.0004 45.5,49.5C 43.2011,48.3649 41.0344,47.0316 39,45.5C 36.2761,47.7633 33.4428,47.7633 30.5,45.5C 27.9486,46.3586 25.4486,47.3586 23,48.5C 20.1311,46.4828 16.9644,45.1495 13.5,44.5C 10.1985,45.3797 6.86514,46.0463 3.5,46.5C 5.14755,39.4023 9.14755,33.9023 15.5,30C 18.9472,28.8907 21.6138,29.8907 23.5,33C 24.3317,33.6877 24.9984,33.521 25.5,32.5C 23.3318,29.5021 22.3318,26.1687 22.5,22.5C 26.9315,23.4702 29.2648,21.8035 29.5,17.5C 30.8734,17.3433 32.2068,17.51 33.5,18C 38.83,25.801 40.1634,25.301 37.5,16.5C 40.1723,12.0229 44.1723,9.18958 49.5,8C 52.4424,6.8756 55.4424,6.54227 58.5,7C 59.03,9.1363 58.1967,10.9696 56,12.5C 53.2123,17.2716 52.7123,22.2716 54.5,27.5 Z M 40.5,27.5 C 41.6854,26.1434 42.6854,24.6434 43.5,23C 42.549,20.8417 42.049,18.675 42,16.5C 45.046,13.7215 48.546,12.2215 52.5,12C 50.9337,14.9304 50.1004,18.0971 50,21.5C 48.9806,19.7306 48.814,18.0639 49.5,16.5C 48.1667,15.1667 46.8333,15.1667 45.5,16.5C 46.0769,19.9656 47.0769,23.2989 48.5,26.5C 46.8062,28.5543 45.6395,30.8877 45,33.5C 43.872,31.6547 43.372,29.6547 43.5,27.5C 42.5,27.5 41.5,27.5 40.5,27.5 Z M 32.5,24.5 C 32.5,25.8333 32.5,27.1667 32.5,28.5C 34.1238,28.6399 35.2904,27.9733 36,26.5C 37.3561,27.3802 38.8561,27.7135 40.5,27.5C 39.9003,31.5351 40.9003,35.0351 43.5,38C 42.9221,39.8114 42.4221,41.6447 42,43.5C 40.1746,42.8971 38.3413,42.2304 36.5,41.5C 35.2603,37.5932 32.5936,35.5932 28.5,35.5C 29.0772,33.1764 30.0772,31.0098 31.5,29C 30.1068,27.6992 29.6068,26.1992 30,24.5C 30.7697,25.5981 31.603,25.5981 32.5,24.5 Z M 27.5,36.5 C 27.369,37.2389 27.5357,37.9056 28,38.5C 29.586,39.376 31.086,40.376 32.5,41.5C 29.9728,42.2136 27.4728,42.8803 25,43.5C 23.188,39.3919 20.0213,37.3919 15.5,37.5C 15.3601,39.1238 16.0267,40.2904 17.5,41C 14.8333,41.6667 12.1667,41.6667 9.5,41C 12.3333,38.1667 15.1667,35.3333 18,32.5C 20.2393,35.962 23.406,37.2954 27.5,36.5 Z"/></g>
<g><path style="opacity:0.567" fill="#40c056" d="M 32.5,10.5 C 33.5,10.5 34.5,10.5 35.5,10.5C 35.5,11.5 35.5,12.5 35.5,13.5C 34.5,13.5 33.5,13.5 32.5,13.5C 32.5,12.5 32.5,11.5 32.5,10.5 Z"/></g>
<g><path style="opacity:0.555" fill="#40bf56" d="M 21.5,16.5 C 22.5,16.5 23.5,16.5 24.5,16.5C 24.5,17.5 24.5,18.5 24.5,19.5C 23.5,19.5 22.5,19.5 21.5,19.5C 21.5,18.5 21.5,17.5 21.5,16.5 Z"/></g>
<g><path style="opacity:0.78" fill="#3fc155" d="M 5.5,17.5 C 8.83333,17.5 12.1667,17.5 15.5,17.5C 15.5,18.5 15.5,19.5 15.5,20.5C 12.1667,20.5 8.83333,20.5 5.5,20.5C 5.5,19.5 5.5,18.5 5.5,17.5 Z"/></g>
<g><path style="opacity:0.779" fill="#3fbe55" d="M 7.5,21.5 C 10.1667,21.5 12.8333,21.5 15.5,21.5C 15.5,22.5 15.5,23.5 15.5,24.5C 12.8333,24.5 10.1667,24.5 7.5,24.5C 7.5,23.5 7.5,22.5 7.5,21.5 Z"/></g>
<g><path style="opacity:0.561" fill="#3fbf56" d="M 54.5,27.5 C 55.5,27.5 56.5,27.5 57.5,27.5C 57.5,28.5 57.5,29.5 57.5,30.5C 56.5,30.5 55.5,30.5 54.5,30.5C 54.5,29.5 54.5,28.5 54.5,27.5 Z"/></g>
<g><path style="opacity:0.616" fill="#3ec753" d="M 4.5,28.5 C 5.5,28.5 6.5,28.5 7.5,28.5C 7.5,29.5 7.5,30.5 7.5,31.5C 4.43311,31.8795 3.43311,30.8795 4.5,28.5 Z"/></g>
<g><path style="opacity:0.616" fill="#3ec753" d="M 52.5,44.5 C 53.5,44.5 54.5,44.5 55.5,44.5C 55.5,45.5 55.5,46.5 55.5,47.5C 52.4331,47.8795 51.4331,46.8795 52.5,44.5 Z"/></g>
<g><path style="opacity:0.799" fill="#3fbf56" d="M 12.5,49.5 C 18.4877,49.664 19.821,52.164 16.5,57C 12.7983,58.3927 10.7983,57.226 10.5,53.5C 10.8029,51.8857 11.4695,50.5523 12.5,49.5 Z"/></g>
<g><path style="opacity:0.536" fill="#42bd54" d="M 20.5,50.5 C 23.8606,51.2032 24.1939,52.5365 21.5,54.5C 19.3576,53.5629 19.0243,52.2296 20.5,50.5 Z"/></g>
<g><path style="opacity:0.751" fill="#3fc356" d="M 32.5,50.5 C 35.6169,50.8723 38.6169,50.8723 41.5,50.5C 44.1667,51.8333 44.1667,53.1667 41.5,54.5C 38.6169,54.1277 35.6169,54.1277 32.5,54.5C 32.5,53.1667 32.5,51.8333 32.5,50.5 Z"/></g>
<g><path style="opacity:0.791" fill="#40bf56" d="M 51.5,51.5 C 56.5861,53.8476 56.7528,56.5142 52,59.5C 47.5358,57.008 47.3691,54.3414 51.5,51.5 Z"/></g>
</svg>
