<svg xmlns="http://www.w3.org/2000/svg" version="1.1" xmlns:xlink="http://www.w3.org/1999/xlink" xmlns:svgjs="http://svgjs.com/svgjs" width="512" height="512" x="0" y="0" viewBox="0 0 512 512" style="enable-background:new 0 0 512 512" xml:space="preserve" class=""><g><g xmlns="http://www.w3.org/2000/svg"><path d="m307.973 255.518c13.111 0 25.999-5.653 34.475-15.121 5.915-6.608 12.549-18.229 10.568-36.062-2.325-20.931-13.623-30.327-22.7-37.877-4.233-3.52-7.889-6.56-10.021-10.221-.748-1.283-1.872-4.292-3.062-7.478-6.506-17.411-20.043-53.642-61.232-53.642-16.617 0-30.593 6.021-41.541 17.896-2.813 3.052-2.619 7.806.433 10.619s7.805 2.619 10.619-.432c8.097-8.783 18.07-13.053 30.489-13.053 30.76 0 41.021 27.464 47.152 43.873 1.543 4.131 2.762 7.394 4.155 9.783 3.468 5.952 8.515 10.15 13.397 14.21 8.082 6.722 15.717 13.071 17.373 27.981 1.083 9.748-1.279 18.178-6.829 24.379-5.671 6.334-14.371 10.116-23.276 10.116-8.14 0-13.369-2.415-19.989-5.471-7.991-3.69-17.048-7.872-31.983-7.872s-23.992 4.182-31.983 7.872c-6.62 3.057-11.849 5.471-19.989 5.471-8.904 0-17.605-3.782-23.276-10.116-5.55-6.202-7.912-14.632-6.829-24.379 1.657-14.91 9.291-21.259 17.373-27.981 4.882-4.06 9.929-8.258 13.397-14.21 1.392-2.389 2.612-5.653 4.155-9.784.818-2.189 1.745-4.669 2.784-7.235 1.557-3.847-.298-8.228-4.146-9.785-3.848-1.56-8.228.299-9.786 4.145-1.115 2.754-2.079 5.336-2.931 7.614-1.191 3.186-2.315 6.196-3.063 7.479-2.132 3.66-5.788 6.7-10.021 10.22-9.078 7.55-20.375 16.946-22.7 37.877-1.982 17.833 4.653 29.454 10.568 36.062 8.476 9.468 21.364 15.121 34.475 15.121 11.443 0 18.991-3.485 26.291-6.856 7.225-3.337 14.049-6.488 25.682-6.488s18.457 3.151 25.682 6.488c7.298 3.372 14.846 6.857 26.289 6.857z" fill="#6AAF08" data-original="#6AAF08" class=""></path><path d="m139.481 158.476c4.873 2.134 9.759 3.199 14.453 3.199 5.133 0 10.036-1.274 14.439-3.816 16.606-9.587 20.122-34.699 7.836-55.976-5.743-9.947-14.091-17.696-23.507-21.819-10.202-4.468-20.464-4.249-28.891.617-16.606 9.587-20.122 34.699-7.836 55.976 5.742 9.947 14.091 17.696 23.506 21.819zm-8.156-64.78c2.053-1.185 4.411-1.777 6.956-1.777 2.64 0 5.482.637 8.391 1.912 6.501 2.847 12.367 8.376 16.52 15.567 8.004 13.863 6.935 30.095-2.335 35.447-4.183 2.415-9.634 2.368-15.347-.134-6.501-2.847-12.367-8.376-16.52-15.567-8.004-13.864-6.934-30.097 2.335-35.448z" fill="#6AAF08" data-original="#6AAF08" class=""></path><path d="m212.44 95.203c2.618 0 5.24-.342 7.826-1.05 19.937-5.47 30.432-30.794 23.392-56.453-3.3-12.028-9.932-22.457-18.677-29.366-9.419-7.442-20.161-10.017-30.248-7.25-10.085 2.766-18.01 10.462-22.314 21.667-3.996 10.404-4.379 22.758-1.078 34.785 6.126 22.331 23.541 37.667 41.099 37.667zm-25.989-67.064c2.546-6.631 6.9-11.092 12.26-12.562 1.292-.355 2.621-.529 3.975-.529 4.26 0 8.748 1.736 12.978 5.078 6.249 4.936 11.043 12.589 13.501 21.549 4.764 17.368-1.132 34.763-12.874 37.984-11.754 3.227-25.69-8.732-30.455-26.099-2.459-8.96-2.241-17.988.615-25.421z" fill="#6AAF08" data-original="#6AAF08" class=""></path><path d="m343.627 157.859c4.403 2.542 9.306 3.816 14.439 3.816 4.694 0 9.581-1.065 14.453-3.199 9.415-4.124 17.764-11.872 23.507-21.819 12.286-21.278 8.77-46.389-7.836-55.976-8.43-4.867-18.691-5.084-28.891-.617-9.415 4.124-17.764 11.872-23.507 21.819-12.287 21.278-8.771 46.389 7.835 55.976zm5.181-48.462c4.153-7.192 10.019-12.72 16.52-15.567 2.909-1.274 5.751-1.912 8.391-1.912 2.545 0 4.903.592 6.956 1.777 9.269 5.352 10.339 21.584 2.335 35.447-4.153 7.192-10.019 12.72-16.52 15.567-5.714 2.503-11.164 2.55-15.347.134-9.27-5.351-10.34-21.583-2.335-35.446z" fill="#6AAF08" data-original="#6AAF08" class=""></path><path d="m291.735 94.152c2.587.709 5.207 1.05 7.825 1.05 17.556 0 34.973-15.338 41.098-37.667 3.301-12.028 2.918-24.382-1.078-34.786-4.303-11.206-12.228-18.901-22.314-21.667-10.085-2.766-20.828-.192-30.248 7.25-8.745 6.909-15.377 17.338-18.677 29.366-7.039 25.66 3.456 50.985 23.394 56.454zm-8.899-52.477c2.458-8.96 7.253-16.613 13.501-21.549 4.23-3.342 8.718-5.078 12.978-5.078 1.353 0 2.684.175 3.975.529 5.359 1.47 9.714 5.931 12.26 12.562 2.855 7.433 3.073 16.461.616 25.421-4.764 17.366-18.707 29.321-30.454 26.099-11.744-3.221-17.641-20.616-12.876-37.984z" fill="#6AAF08" data-original="#6AAF08" class=""></path><path d="m204.97 334.229c-11.636-10.207-22.88-16.297-26.899-18.318l-42.106-48.417c-4.295-4.939-9.869-8.147-15.818-9.575v-67.264c0-15.861-12.905-28.765-28.766-28.765-10.977 0-20.534 6.182-25.381 15.245l-.125-.443c-4.898-17.428-22.53-27.772-40.133-23.557-17.787 4.262-28.962 22.237-24.912 40.07l24.935 109.823c4.167 18.356 11.367 35.74 21.399 51.667l21.303 33.823c5.121 8.342 18.021.146 12.719-8.009l-21.304-33.824c-9.123-14.484-15.67-30.292-19.461-46.985l-24.935-109.823c-2.236-9.848 3.936-19.773 13.757-22.127 9.721-2.329 19.458 3.385 22.162 13.008l31.947 113.659c.012.043.029.082.042.125 1.066 4.511 3.17 8.842 6.36 12.608l41.004 48.408c2.682 3.167 7.424 3.559 10.591.877s3.56-7.424.877-10.591l-41.004-48.407c-5.468-6.456-4.685-16.182 1.745-21.681 6.407-5.481 16.123-4.764 21.656 1.599l43.109 49.57c.696.8 1.564 1.449 2.527 1.894.482.223 48.289 22.798 51.955 65.031 1.479 17.034-3.915 31.445-8.701 40.534-5.79 10.999-8.851 23.423-8.851 35.93v26.655h-84.797v-30.37c0-16.146-4.548-31.902-13.153-45.564l-9.505-15.09c-2.212-3.512-6.853-4.565-10.363-2.354-3.512 2.212-4.566 6.852-2.353 10.363l9.504 15.09c7.092 11.26 10.841 24.247 10.841 37.555v37.884c0 4.15 3.364 7.514 7.515 7.514h99.826c4.151 0 7.515-3.364 7.515-7.514v-34.17c0-10.077 2.462-20.08 7.121-28.929 5.723-10.871 12.169-28.168 10.374-48.835-1.847-21.286-12.987-41.454-32.217-58.32zm-111.772-69.894c-.748.64-1.454 1.311-2.124 2.006l-13.43-47.778v-27.908c0-7.574 6.162-13.736 13.736-13.736 7.575 0 13.736 6.162 13.736 13.736v67.425c-4.27 1.13-8.353 3.207-11.918 6.255z" fill="#6AAF08" data-original="#6AAF08" class=""></path><path d="m486.261 153.135c-17.612-4.221-35.235 6.128-40.135 23.557l-.124.441c-4.848-9.063-14.404-15.244-25.381-15.244-15.862 0-28.766 12.904-28.766 28.765v67.264c-5.949 1.427-11.523 4.636-15.818 9.575l-42.106 48.417c-4.019 2.021-15.263 8.112-26.899 18.318-19.23 16.866-30.37 37.034-32.217 58.323-1.795 20.667 4.651 37.964 10.374 48.835 4.659 8.849 7.121 18.852 7.121 28.929v34.17c0 4.15 3.364 7.514 7.515 7.514h99.826c4.151 0 7.515-3.364 7.515-7.514v-37.884c0-13.308 3.749-26.295 10.841-37.555l46.83-74.352c10.033-15.927 17.232-33.311 21.4-51.667l5.101-22.466c.919-4.047-1.616-8.073-5.665-8.992-4.045-.918-8.073 1.618-8.992 5.664l-5.101 22.466c-3.791 16.693-10.338 32.501-19.462 46.985l-46.831 74.353c-8.604 13.662-13.152 29.417-13.152 45.564v30.37h-84.797v-26.655c0-12.507-3.061-24.93-8.851-35.93-4.786-9.09-10.179-23.501-8.701-40.534 3.666-42.234 51.473-64.808 51.945-65.027.971-.445 1.836-1.093 2.536-1.899l43.109-49.57c5.534-6.364 15.248-7.079 21.656-1.599 6.43 5.499 7.213 15.225 1.745 21.68l-41.004 48.408c-2.683 3.167-2.29 7.909.877 10.591 3.169 2.682 7.909 2.289 10.591-.877l41.005-48.408c3.198-3.776 5.305-8.119 6.368-12.643.009-.031.024-.058.033-.089l31.946-113.659c2.707-9.625 12.442-15.336 22.164-13.009 9.82 2.353 15.992 12.279 13.756 22.127l-13.178 58.038c-.919 4.047 1.617 8.073 5.665 8.992 4.046.917 8.073-1.617 8.991-5.664l13.178-58.038c4.052-17.834-7.124-35.81-24.908-40.071zm-79.377 104.944v-67.424c0-7.574 6.162-13.736 13.736-13.736 7.575 0 13.736 6.162 13.736 13.736v27.906l-13.43 47.779c-3.819-4.006-8.902-6.928-14.042-8.261z" fill="#6AAF08" data-original="#6AAF08" class=""></path></g></g></svg>