<svg xmlns="http://www.w3.org/2000/svg" version="1.1" xmlns:xlink="http://www.w3.org/1999/xlink" xmlns:svgjs="http://svgjs.com/svgjs" width="512" height="512" x="0" y="0" viewBox="0 0 64 64" style="enable-background:new 0 0 512 512" xml:space="preserve" class=""><g><g xmlns="http://www.w3.org/2000/svg"><circle cx="44" cy="36" r="1" fill="#6AAF08" data-original="#6AAF08" class=""></circle><circle cx="32" cy="22" r="1" fill="#6AAF08" data-original="#6AAF08" class=""></circle><circle cx="12" cy="14" r="1" fill="#6AAF08" data-original="#6AAF08" class=""></circle><circle cx="26" cy="42" r="1" fill="#6AAF08" data-original="#6AAF08" class=""></circle><circle cx="12" cy="38" r="1" fill="#6AAF08" data-original="#6AAF08" class=""></circle><path d="m11 43h2v4h-2z" fill="#6AAF08" data-original="#6AAF08" class=""></path><path d="m38.175 19h-.175v2h.175c.587 0 1.148-.119 1.67-.322 1.624 2.666 4.561 4.322 7.684 4.322h15.471v-2h-15.471c-2.444 0-4.745-1.302-6.002-3.398l-.018-.03c.541-.565.946-1.268 1.146-2.07l.626-2.502h-2.281v-1.092c0-2.1-.616-4.134-1.781-5.883-.428-.642-1.145-1.025-1.916-1.025-1.27 0-2.303 1.033-2.303 2.303 0 1.524-.503 3.036-1.418 4.255l-1.082 1.442h-.086c-.406 0-.8.047-1.185.125l-2.505-5.367c-2.483-5.32-7.881-8.758-13.752-8.758-3.432 0-6.799 1.181-9.479 3.326l-1.8 1.439 2.932 4.886c-.663.768-1.236 1.62-1.669 2.56l-4.085 8.85 3.796 6.327 8.377-5.235c.159-.1.342-.152.53-.152h.531l.689 6.198c-.275.089-.543.2-.794.347-.607-.356-1.295-.546-2-.546-2.206 0-4 1.794-4 4 0 .75.218 1.458.599 2.078-.514.573-.922 1.239-1.197 1.973-1.965.244-3.608 1.655-4.099 3.617l-.584 2.332h4.281v6h-6v14h62v-14h-12v-1.764c0-1.019-.153-2.021-.443-2.991 1.508-1.256 2.443-3.143 2.443-5.245h-2c0 2.4-1.722 4.407-4.094 4.772l-7.542 1.16c-1.528-1.699-2.364-3.872-2.364-6.175v-.139l2.536-1.268c.855-.427 1.46-1.246 1.618-2.19l.275-1.653c.242-1.453 1.487-2.507 2.96-2.507h.611v1.395c0 1.34.666 2.584 1.781 3.328l2.219 1.479 2.219-1.479c1.115-.744 1.781-1.989 1.781-3.328v-.662c.452.373.809.858 1 1.43l.14.419c.681 2.044 2.588 3.418 4.743 3.418h4.117v-2h-4.117c-1.293 0-2.437-.824-2.846-2.051l-.14-.419c-.521-1.561-1.767-2.772-3.315-3.273-.65-1.331-2.004-2.257-3.582-2.257-1.474 0-2.75.81-3.444 2h-1.168c-2.455 0-4.529 1.757-4.932 4.178l-.275 1.652c-.053.315-.254.588-.54.73l-.951.476c-.445-.763-.69-1.638-.69-2.551 0-1.357-.388-2.653-1.104-3.769 1.869-.814 3.104-2.647 3.104-4.716h-2c0 1.363-.869 2.569-2.163 3l-1.968.656c-.97.323-1.806.926-2.418 1.743l-1.05 1.4c-.564.752-1.462 1.201-2.401 1.201-.462 0-.894-.113-1.285-.301l2.992-2.992-1.414-1.414-2.992 2.992c-.188-.391-.301-.823-.301-1.285v-2c0-.313.149-.612.4-.8l1.502-1.126c1.295-.971 2.153-2.45 2.354-4.056l.189-1.514c.249-1.998 1.956-3.504 3.969-3.504h1.086l1.682-2.242c.309-.412.579-.851.813-1.308l3.005 1.147v.42c-1.664.084-3.143 1.033-3.895 2.536l1.789.895c.447-.893 1.344-1.448 2.342-1.448h1.483l-.004.017c-.292 1.168-1.336 1.983-2.54 1.983zm18.825 32h4v4h-4zm0 6h4v4h-4zm-4-6h2v10h-2zm-6-20c0-1.103.897-2 2-2s2 .897 2 2v1.395c0 .67-.333 1.292-.891 1.664l-1.109.739-1.109-.74c-.558-.371-.891-.994-.891-1.663zm-20.597-21.368c.181.316.353.638.509.971l1.068 2.289-3.184 1.592-.257-.669c-.251-.654-.558-1.278-.908-1.872zm-1.133-1.659-2.798 2.331c-.58-.698-1.236-1.329-1.957-1.888l1.869-3.114c1.084.739 2.059 1.637 2.886 2.671zm-4.618-3.67-1.703 2.839c-.145-1.409-.641-2.74-1.453-3.888 1.099.216 2.158.57 3.156 1.049zm-7.067-1.22-1.356 4.068c-.01.003-.02.007-.031.01l-1.688-3.375c.991-.357 2.024-.591 3.075-.703zm-7.278 3.152.435-.348c.609-.487 1.261-.913 1.942-1.283l1.626 3.252c-.79.37-1.532.826-2.21 1.367zm5.693 24.765c.621 0 1.066.284 1.331.521l.669.603.669-.602c.265-.238.71-.522 1.331-.522 1.103 0 2 .897 2 2 0 .601-.268 1.153-.71 1.526-1.105-.954-2.526-1.526-4.06-1.526-1.112 0-2.154.296-3.059.809-.111-.252-.171-.525-.171-.809 0-1.103.897-2 2-2zm-3 8.23c0-2.332 1.898-4.23 4.23-4.23 1.823 0 3.436 1.163 4.013 2.893l.808 2.424c.188.565.449 1.093.762 1.59-.649.531-1.137 1.262-1.352 2.123l-.742 2.97h5.044l2 1c.442.221.77.579.982 1h-15.745zm10.281 5.77.122-.485c.194-.779.828-1.352 1.598-1.485v1.97zm-13.995-4c.264-.854.909-1.51 1.717-1.813-.001.014-.003.029-.003.043v1.77zm-.286 20h-2v-10h2zm6 0h-4v-4h4zm0-6h-4v-4h4zm4 6h-2v-10h2zm6 0h-4v-4h4zm0-6h-4v-4h4zm4 6h-2v-10h2zm-.342-14.789-1.658-.829v-2.382c0-2.206 1.794-4 4-4s4 1.794 4 4v.528c0 2.071.771 3.993 2.093 5.472h-6.219c-.289-1.197-1.079-2.22-2.216-2.789zm6.342 14.789h-4v-4h4zm0-6h-4v-4h4zm4 6h-2v-10h2zm6 0h-4v-4h4zm0-6h-4v-4h4zm4 6h-2v-10h2zm6 0h-4v-4h4zm0-10v4h-4v-4zm-26.298-26.526-1.503 1.126c-.751.564-1.199 1.461-1.199 2.4v2c0 2.757 2.243 5 5 5 1.565 0 3.061-.748 4-2l1.051-1.401c.367-.49.869-.852 1.451-1.045l.416-.139c.689.877 1.082 1.943 1.082 3.1 0 1.201.314 2.38.895 3.42l-.895.447v1.375c0 3.003 1.169 5.826 3.293 7.95l.358.358 8.559-1.317c.548-.084 1.068-.236 1.56-.437.147.629.23 1.272.23 1.924v1.765h-12.732c-2.017-1.092-3.268-3.165-3.268-5.472v-.528c0-3.309-2.691-6-6-6-2.607 0-4.824 1.673-5.65 4h-.008c-.228 0-.451.02-.67.056-.3-.424-.558-.875-.724-1.373l-.808-2.424c-.143-.428-.342-.822-.566-1.199.89-.746 1.426-1.855 1.426-3.06 0-1.934-1.38-3.551-3.207-3.92l-.678-6.102c2.206-.114 4.129-1.547 4.834-3.662l-1.897-.633c-.463 1.386-1.754 2.317-3.214 2.317h-2.264c-.563 0-1.113.158-1.59.456l-6.65 4.156-2.204-3.673 3.642-7.89c1.205-2.61 3.607-4.504 6.425-5.068l.569-.114 1.665-4.996c1.01 1.142 1.569 2.591 1.569 4.129v.618l.553.276c2.356 1.178 4.174 3.18 5.12 5.638l3.237 8.418c-.277.594-.679 1.126-1.208 1.524zm1.961-5.137-1.145-2.978 3.308-1.654.532 1.14c-1.289.767-2.265 2.006-2.695 3.492zm10.041-7.757c.192-.742.296-1.508.296-2.277 0-.268.406-.392.555-.168.662.994 1.092 2.105 1.298 3.265z" fill="#6AAF08" data-original="#6AAF08" class=""></path></g></g></svg>