<svg xmlns="http://www.w3.org/2000/svg" version="1.1" xmlns:xlink="http://www.w3.org/1999/xlink" xmlns:svgjs="http://svgjs.com/svgjs" width="512" height="512" x="0" y="0" viewBox="0 0 512 512" style="enable-background:new 0 0 512 512" xml:space="preserve" class=""><g><path xmlns="http://www.w3.org/2000/svg" d="M174.806,19.794A8,8,0,0,0,168,16H136a8,8,0,0,0-6.656,3.562L115.719,40h-10.3A24.014,24.014,0,0,0,84.435,52.344L49.007,116.115a8,8,0,0,0,1.336,9.542l16,16a8,8,0,0,0,10.095,1l21.023-14.015c6.844,1.491,21.3,3.287,34.579-3.825l43.066,122.021a75.281,75.281,0,0,0-9.969,25.689c-2.986,15.923-1.985,40.293,19.233,66.779l15.178,113.834-8.519,8.518A23.842,23.842,0,0,0,184,478.627V488a8,8,0,0,0,8,8h32a24.028,24.028,0,0,0,24-24V369.364a254.9,254.9,0,0,0,43.2,1.992l.075,0a201.475,201.475,0,0,0,24.763-2.5c6.575,10.619,22.945,36.287,35.96,50.358v33.472l-8.971,8.97A23.842,23.842,0,0,0,336,478.627V488a8,8,0,0,0,8,8h32a24.028,24.028,0,0,0,24-24V425.3l7.59-22.768a8,8,0,0,0,.33-3.661l-7.516-52.61c5.871-7.839,20.47-30.139,18.57-55.673,5.822,9.873,11,24.795,12.552,47.222C422.463,341.813,416,352.04,416,364c0,15.439,10.767,28,24,28s24-12.561,24-28c0-12.369-6.913-22.883-16.466-26.579-3.864-59.134-31.094-75.691-41.756-79.93a79.6,79.6,0,0,0-12.069-12.138A23.942,23.942,0,0,0,378.593,240H345.3l-57.969-19.32-.206-.065-9.071-3.029c-6.736-15.871-16.688-26.245-29.606-30.855a46.8,46.8,0,0,0-11.961-2.547L172.3,84.334l14.234-4.745A8,8,0,0,0,192,72V48a8,8,0,0,0-8-8H168.944l6.211-12.422A8,8,0,0,0,174.806,19.794ZM440,352c4.262,0,8,5.607,8,12s-3.738,12-8,12-8-5.607-8-12S435.738,352,440,352ZM172.045,190.089l-9.038-25.607,7.941,2.362,10.388,15.582ZM313.906,352.983c-5.636.956-11.548,1.648-17.672,2.069l-6.847-17.125L299.313,328h15.743l4.306,8.614Zm89.07-61.556c1.425,17.763-7.963,34.421-13.395,42.419l-20.264-10.132,5.425-21.7Zm-75.122-40.375,9.481,3.159L329.966,280h-19.72l-4.833-19.331ZM248.094,204.2c5.869,3.576,10.65,9.5,14.476,17.918l-16.15,16.15-18.058-9.029ZM169.889,56H176V66.234l-18.53,6.177a8,8,0,0,0-4.2,11.915l72,112a8,8,0,0,0,5.807,3.615l-21.361,27.106a8,8,0,0,0,2.7,12.107l32,16a8,8,0,0,0,9.235-1.5l20.5-20.5,8.1,2.7c.07.024.141.046.213.068l22.536,7.511-12.157,5.21a8,8,0,0,0-4.61,9.293l8,32A8,8,0,0,0,304,296h32a8,8,0,0,0,7.692-5.8l9.772-34.2h25.129a7.892,7.892,0,0,1,4.993,1.744,56.05,56.05,0,0,1,15.108,18.2l-33.5,12.565a8,8,0,0,0-4.951,5.551l-8,32a8,8,0,0,0,4.183,9.095l28.251,14.126,7.14,49.981-7.4,22.208A8.027,8.027,0,0,0,384,424v48a8.009,8.009,0,0,1-8,8H352v-1.373a7.946,7.946,0,0,1,2.344-5.657l11.313-11.313A8,8,0,0,0,368,456V416a8,8,0,0,0-2.343-5.657c-12.6-12.6-30.99-41.765-36.892-51.34l6.825-20.473a8,8,0,0,0-.435-6.108l-8-16A8,8,0,0,0,320,312H296a8,8,0,0,0-5.657,2.343l-16,16a8,8,0,0,0-1.771,8.627l6.626,16.57a227.718,227.718,0,0,1-37.627-3.384A8,8,0,0,0,232,360V472a8.009,8.009,0,0,1-8,8H200v-1.373a7.946,7.946,0,0,1,2.344-5.657l11.313-11.313a8,8,0,0,0,2.273-6.714l-16-120a8.01,8.01,0,0,0-1.784-4.065c-35.126-42.151-9-76.47-7.9-77.88a8,8,0,0,0,1.3-7.661l-13.83-39.184,19.377-15.982a8,8,0,0,0,1.565-10.609l-16-24a8,8,0,0,0-4.376-3.23l-21.855-6.5-12.881-36.5a8,8,0,0,0-13.2-2.994c-12.213,12.215-31.653,6.12-31.813,6.068a8,8,0,0,0-6.968.933L73.02,125.706l-7.1-7.1,32.5-58.495A8,8,0,0,1,105.414,56H120a8,8,0,0,0,6.656-3.562L140.281,32h14.775L144.845,52.422a8,8,0,0,0,10.733,10.733Z" fill="#000000" data-original="#000000"></path><circle xmlns="http://www.w3.org/2000/svg" cx="120" cy="80" r="8" fill="#000000" data-original="#000000"></circle><path xmlns="http://www.w3.org/2000/svg" d="M193.225,275.747a7.994,7.994,0,0,0-.986,6.193l8,32a8,8,0,0,0,4.79,5.488l40,16a8,8,0,0,0,9.627-2.99l16-24a8,8,0,0,0-.707-9.786L241.7,267.227a8,8,0,0,0-7.576-2.485l-35.75,7.425A8,8,0,0,0,193.225,275.747Zm39.65,5.6L253.9,304.73l-8.954,13.432L214.77,306.091l-4.989-19.952Z" fill="#000000" data-original="#000000"></path></g></svg>