<svg xmlns="http://www.w3.org/2000/svg" version="1.1" xmlns:xlink="http://www.w3.org/1999/xlink" xmlns:svgjs="http://svgjs.com/svgjs" width="512" height="512" x="0" y="0" viewBox="0 0 512 512" style="enable-background:new 0 0 512 512" xml:space="preserve" class=""><g><g xmlns="http://www.w3.org/2000/svg"><path d="m256 511.934c-1.919 0-3.839-.732-5.303-2.196l-41.759-41.76-31.759 31.76c-2.929 2.928-7.678 2.928-10.606 0l-57.57-57.57c-2.929-2.93-2.929-7.678 0-10.607 2.929-2.928 7.678-2.928 10.606 0l52.267 52.268 31.759-31.76c2.929-2.928 7.678-2.928 10.606 0l41.759 41.758 41.759-41.76c2.93-2.928 7.678-2.928 10.607 0 2.929 2.93 2.929 7.678 0 10.607l-47.063 47.063c-1.464 1.464-3.384 2.197-5.303 2.197zm84.125-10c-1.919 0-3.839-.732-5.304-2.196l-15.063-15.063c-2.929-2.93-2.929-7.678 0-10.607 2.93-2.928 7.678-2.928 10.607 0l9.759 9.76 52.267-52.268c2.929-2.928 7.677-2.93 10.607 0l18.258 18.259c48.226-50.664 75.744-114.66 75.744-176.674 0-32.366-9.477-67.355-26.684-98.522-8.93-16.175-19.636-30.9-31.801-43.846-3.941 2.813-8.314 5.644-13.328 8.629 26.683 38.287 41.997 70.379 41.997 115.047 0 14.468-2.499 29.698-7.428 45.27-1.25 3.948-5.465 6.137-9.414 4.887-3.948-1.25-6.137-5.465-4.887-9.414 4.465-14.104 6.729-27.812 6.729-40.742 0-43.46-15.453-73.268-43.969-113.069-1.243-1.735-1.688-3.919-1.223-6.003.465-2.083 1.796-3.87 3.66-4.912 6.684-3.736 12.224-7.122 17.015-10.408-10.047-9.206-20.913-17.288-32.447-24.087-1.94-1.144-3.264-3.099-3.604-5.325-.342-2.227.336-4.488 1.846-6.16l18.878-20.918-51.425-6.911c-2.265-.305-4.267-1.625-5.438-3.586s-1.387-4.349-.583-6.487l11.848-31.509c-41.08.112-84.868 1.488-106.062 18.408-2.739 2.187-6.622 2.185-9.359 0-21.193-16.92-64.982-18.296-106.063-18.408l11.848 31.509c.804 2.139.59 4.526-.583 6.487-1.172 1.961-3.174 3.281-5.438 3.586l-51.425 6.908 18.878 20.918c1.509 1.672 2.187 3.934 1.846 6.16-.341 2.227-1.665 4.182-3.605 5.325-11.538 6.801-22.405 14.884-32.454 24.094 5.108 3.499 10.794 6.921 17.021 10.401 1.864 1.042 3.195 2.828 3.661 4.912s.021 4.268-1.223 6.003c-28.516 39.802-43.969 69.609-43.969 113.069 0 44.416 26.766 96.325 75.534 146.76l14.843-14.843c2.929-2.93 7.678-2.929 10.606-.001 2.929 2.93 2.929 7.678 0 10.606l-20.191 20.191c-1.406 1.407-3.314 2.197-5.303 2.197s-3.897-.79-5.303-2.196c-27.708-27.709-49.104-55.872-63.592-83.708-14.329-27.531-21.595-54.113-21.595-79.007 0-44.67 15.315-76.762 42.001-115.052-4.931-2.944-9.349-5.806-13.32-8.636-12.169 12.947-22.88 27.679-31.813 43.857-17.206 31.17-26.682 66.159-26.682 98.526 0 64.226 29.517 130.578 80.981 182.042 2.929 2.93 2.929 7.678 0 10.607-2.929 2.928-7.678 2.928-10.606 0-54.257-54.257-85.375-124.475-85.375-192.649 0-34.858 10.14-72.423 28.551-105.772 9.346-16.929 20.527-32.385 33.226-46.036-2.939-2.714-5.537-5.453-7.853-8.262-10.386-12.595-15.435-27.217-15.435-44.7 0-32.151 26.157-58.308 58.308-58.308 12.311 0 24.035 3.966 34.995 11.814l-4.39-11.675c-.866-2.304-.547-4.886.854-6.909s3.706-3.23 6.167-3.23c46.039 0 93.56 0 121.579 18.316 28.018-18.317 75.537-18.317 121.576-18.317 2.461 0 4.766 1.207 6.166 3.23 1.401 2.023 1.721 4.605.854 6.909l-4.391 11.675c10.959-7.849 22.684-11.814 34.995-11.814 32.151 0 58.308 26.156 58.308 58.308 0 11.397-2.082 21.369-6.365 30.484-1.762 3.749-6.227 5.362-9.978 3.599-3.749-1.762-5.36-6.229-3.599-9.978 3.325-7.076 4.941-14.961 4.941-24.105 0-23.88-19.428-43.308-43.308-43.308-12.292 0-24.097 5.572-35.085 16.562l-2.183 2.183 50.504 6.787c2.758.371 5.084 2.238 6.042 4.852.959 2.612.392 5.541-1.474 7.607l-22.396 24.816c29.633 19.319 54.696 46.64 72.837 79.499 18.414 33.35 28.554 70.914 28.554 105.773 0 68.175-31.118 138.393-85.374 192.649-2.929 2.927-7.677 2.929-10.607 0l-18.323-18.324-52.267 52.268c-1.465 1.463-3.385 2.196-5.304 2.196zm-243.328-476.868c-23.88 0-43.308 19.428-43.308 43.308 0 18.22 6.666 31.133 18.877 42.326 9.062-8.5 18.768-16.142 29.022-22.827l-22.396-24.816c-1.864-2.066-2.432-4.995-1.474-7.607.958-2.613 3.284-4.48 6.042-4.852l50.504-6.787-2.182-2.182c-10.989-10.99-22.794-16.563-35.085-16.563zm159.203 410.482c-20.798 0-37.291-5.179-49.018-15.394-8.628-7.516-14.503-17.538-17.493-29.83-6.231-2.19-12.897-7.328-18.496-14.466-7.776-9.914-12.267-21.959-12.773-34.149-6.521-10.016-32.995-51.562-46.454-86.013-1.507-3.858.398-8.208 4.257-9.715 3.858-1.51 8.207.398 9.715 4.256 9.163 23.455 25.167 51.183 35.643 68.318 4.685-15.814 13.811-30.913 22.725-45.659 2.249-3.72 4.573-7.565 6.796-11.369 2.09-3.576 6.682-4.782 10.259-2.692 3.576 2.09 4.782 6.683 2.692 10.259-2.279 3.901-4.633 7.796-6.91 11.563-12.224 20.222-23.77 39.322-23.77 58.74 0 21.708 17.186 37.104 22.664 37.104 17.795 0 42.644-9.3 52.664-13.37v-22.724c-12.251-4.4-31.779-16.398-36.075-26.77-2.041-4.927-1.146-9.98 2.393-13.52 10.003-10.005 31.994-5.654 41.182-3.253 9.187-2.401 31.178-6.751 41.183 3.252 3.539 3.54 4.433 8.594 2.393 13.521-4.297 10.371-23.824 22.369-36.075 26.77v22.722c10.029 4.069 34.904 13.372 52.664 13.372 5.478 0 22.664-15.396 22.664-37.104 0-19.418-11.546-38.518-23.769-58.739-2.277-3.767-4.632-7.662-6.911-11.563-2.09-3.576-.885-8.169 2.692-10.259 3.575-2.09 8.169-.886 10.259 2.692 2.223 3.804 4.548 7.65 6.797 11.37 6.276 10.384 12.767 21.121 17.589 31.896 2.131 4.762 3.847 9.349 5.155 13.793 19.104-31.187 42.671-75.24 42.671-96.348 0-13.792-11.041-37.059-28.813-60.719-18.907-25.171-34.514-36.255-38.302-36.354-12.361 0-46.081 13.354-62.696 20.471v52.519c0 4.143-3.357 7.5-7.5 7.5-4.142 0-7.5-3.357-7.5-7.5v-52.518c-16.619-7.118-50.345-20.472-62.702-20.472-3.784.1-19.389 11.183-38.297 36.354-17.772 23.661-28.813 46.927-28.813 60.719 0 4.143-3.358 7.5-7.5 7.5s-7.5-3.357-7.5-7.5c0-25.486 24.49-59.993 31.997-69.962 7.438-9.879 33.034-42.11 50.113-42.11 17.207 0 57.952 17.064 70.202 22.369 12.25-5.305 52.995-22.369 70.201-22.369 6.415 0 14.378 4.359 24.344 13.327 8.196 7.375 17.348 17.597 25.771 28.783 7.506 9.969 31.996 44.476 31.996 69.962 0 33.775-44.2 103.611-54.531 119.471-.407 9.791-3.384 19.488-8.569 28.063l31.441 31.441c25.793-26.65 45.367-53.483 58.239-79.848 1.817-3.723 6.311-5.268 10.029-3.449 3.723 1.816 5.267 6.308 3.449 10.029-14.462 29.624-36.793 59.642-66.371 89.221-2.931 2.929-7.679 2.927-10.607 0l-35.558-35.559c-4.306 4.152-8.923 7.169-13.322 8.716-2.99 12.292-8.864 22.314-17.493 29.83-11.731 10.215-28.223 15.394-49.021 15.394zm-50.753-44.651c6.543 19.684 23.581 29.65 50.753 29.65 27.173 0 44.21-9.967 50.754-29.65-20.037-2.39-42.641-11.239-50.754-14.626-8.113 3.387-30.717 12.237-50.753 14.626zm22.211-81.267c1.68 1.997 5.308 5.375 12.178 9.642 7.903 4.908 14.425 7.479 16.364 7.843 1.939-.363 8.461-2.935 16.364-7.843 6.875-4.27 10.503-7.649 12.181-9.646-5.221-1.656-17.178-.437-26.484 2.224-1.346.385-2.774.385-4.122 0-9.313-2.643-21.262-3.859-26.481-2.22zm82.82-76.573c-1.92 0-3.839-.732-5.304-2.196-2.929-2.93-2.929-7.678 0-10.607l20-20c2.929-2.927 7.677-2.929 10.607 0 2.929 2.93 2.929 7.678 0 10.607l-20 20c-1.464 1.463-3.384 2.196-5.303 2.196zm-108.557 0c-1.919 0-3.839-.732-5.303-2.196l-20-20c-2.929-2.93-2.929-7.678 0-10.607 2.929-2.928 7.678-2.928 10.606 0l20 20c2.929 2.93 2.929 7.678 0 10.607-1.464 1.463-3.383 2.196-5.303 2.196z" fill="#000000" data-original="#000000" class=""></path></g></g></svg>