<svg xmlns="http://www.w3.org/2000/svg" version="1.1" xmlns:xlink="http://www.w3.org/1999/xlink" xmlns:svgjs="http://svgjs.com/svgjs" width="512" height="512" x="0" y="0" viewBox="0 0 60 60" style="enable-background:new 0 0 512 512" xml:space="preserve" class=""><g><path xmlns="http://www.w3.org/2000/svg" id="Shape" d="m60.05 3c-.5567636-1.3337017-1.6760576-2.35201244-3.056307-2.78056539-1.3802493-.42855295-2.8794594-.22326025-4.093693.56056539l-12.84 9.08c-5.7649508-2.49227629-12.3061457-2.47778859-18.06.04l-12.94-9.15c-1.21172228-.74888522-2.69016825-.93094657-4.04737536-.49840889-1.3572071.43253767-2.45767404 1.43649053-3.01262464 2.74840889-1.91 4.54-1 9.47 2.76 15.75-3.4 5.73-4.59 13.95-3.18 22.15.11052659.6860415.56922736 1.2655433 1.21156358 1.5306344.64233621.2650911 1.37623273.1777724 1.93843642-.2306344.10421836 5.218944 2.06075525 10.2307976 5.52 14.14.3757769.4163922.9091314.6558575 1.47.66.87 0 1-.3 3.85-2.41 2.5 1.14 4 2 4.29 2.18 6.7985609 4.2946841 15.4614391 4.2946841 22.26 0 .38-.18 1.67-1 4.3-2.18 2.91 2.18 3 2.4 3.86 2.4.5625133.0035259 1.098861-.2372832 1.47-.66 3.4570386-3.9065978 5.4134232-8.9145169 5.52-14.13.5622037.4084068 1.2961002.4957255 1.9384364.2306344s1.101037-.8445929 1.2115636-1.5306344c1.41-8.2.22-16.42-3.18-22.15 3.81-6.28 4.67-11.21 2.81-15.75zm-1.85.76c2.62 6.36-1.82 12.85-5.64 18.39-.4587971-1.0015875-.979815-1.9734864-1.56-2.91 4.09-4.24 6.24-9.24 4-14.75-.2918433-.72952514-.8442206-1.32466705-1.55-1.67l.55-.38c.7178221-.4541857 1.5995357-.56832006 2.4093454-.3118803.8098098.25643977 1.4651099.85729512 1.7906546 1.6418803zm-38.32 45.43c-.8381057-1.315186-1.0985836-2.9171187-.7203419-4.4300855s1.3619258-2.803859 2.7203419-3.5699145c.37.3 8 5 8.12 5-.0021272 2.1813711-1.297806 4.1537496-3.2989666 5.0219321-2.0011605.8681824-4.3266637.4668156-5.9210334-1.0219321-.266053-.3623891-.5675413-.697376-.9-1zm11.12-12.19c2.6553703.0492436 5.2948368.4219927 7.86 1.11.1004313.0998167.1516666.238884.14.38 0 .57.06 1.07-.15 1.2l-7.85 4.85-7.87-4.85c-.2-.12-.15-.58-.15-1.12-.0133009-.1443064.0379579-.2870987.14-.39 2.5962274-.575038 5.2292117-.9693174 7.88-1.18zm9.13 4.21c1.3584161.7660555 2.3421002 2.0569477 2.7203419 3.5699145s.1177638 3.1148995-.7203419 4.4300855c-.3337245.331431-.6320021.6967372-.89 1.09-1.5943697 1.4887477-3.9198729 1.8901145-5.9210334 1.0219321-2.0011606-.8681825-3.2968394-2.840561-3.2989666-5.0219321.09-.11 7.72-4.77 8.11-5.09zm.86-1.8s0-.07 0-.11v-.81c.0438747-1.0529725-.6245117-2.0042955-1.63-2.32l-1.13-.27-2-7.25 1.38-.34c.8434585 1.6486305 2.5381371 2.6870554 4.39 2.69 2.7456757-.0376541 4.9623459-2.2543243 5-5 .3930048-.0335712.7426413-.2629027.93-.61.1327594-.274806.1327594-.595194 0-.87l-1-2c-.2700473-.4487927-.8406385-.6131719-1.3080622-.3768341s-.6732882.7933069-.4719378 1.2768341l.43.87-9.81 2.39c-.5248404.1352373-.972323.4776898-1.2400034.9489581s-.3326361 1.030996-.1799966 1.5510419l1.74 6.25c-3.3395961-.6431583-6.7769848-.5784305-10.09.19l1.7-6.42c.1520585-.5228035.0843992-1.0850039-.1873568-1.5568025s-.7241168-.8124109-1.2526432-.9431975l-9.8-2.38.43-.87c.1932607-.3211808.1906728-.7234705-.0067041-1.0421383-.1973768-.3186678-.5563928-.5001928-.9300368-.4702434s-.6991617.2663431-.8432591.6123817l-1 2c-.1484899.2738983-.1608353.6013563-.03339.8856576.1274454.2843012.3801182.492958.68339.5643424h.24c.032395 2.7478934 2.2521066 4.967605 5 5 1.8416962-.0008851 3.5299865-1.0261938 4.38-2.66l1.39.34-2 7.34-1 .2c-1.0747435.2612683-1.8156034 1.2448959-1.77 2.35v.73.11c-2.5136865 1.3512197-4.0585264 3.9967581-4 6.85-1.9338381-2.0319166-3.6128783-4.2919048-5-6.73 1.3025892.3544663 2.6507236.5128721 4 .47.5522847 0 1-.4477153 1-1s-.4477153-1-1-1c-1.8100706.1010374-3.6137666-.2894178-5.22-1.13-.6061706-1.4900101-1.01301757-3.0535129-1.21-4.65 2.192612 2.2651171 5.1617763 3.6157118 8.31 3.78.5522847 0 1-.4477153 1-1s-.4477153-1-1-1c-3.5013841-.2028487-6.6623996-2.1634309-8.4-5.21.00909065-.5390338.10707373-1.0728727.29-1.58.7896539 1.0096714 1.9552706 1.6556324 3.23 1.79.5522847 0 1-.4477153 1-1s-.4477153-1-1-1c-.74 0-1.82-1.15-2.49-2.11 2.9481662-8.396413 10.6118598-14.2316728 19.49-14.84v4.95l-4.62-1.92c-.3359032-.1782033-.7438083-.1504819-1.0525129.0715291-.3087045.222011-.4647856.5998916-.4027343.9750409.0620514.3751493.3314969.682646.6952472.79343l5.38 2.25v3.37l-10.86-1.54c-.3572656-.0500172-.7140765.094364-.9360254.3787564-.2219489.2843925-.2753166.6655904-.14 1 .1353166.3344097.4387598.5712264.7960254.6212436l11.14 1.56v1c0 .5522847.4477153 1 1 1s1-.4477153 1-1v-1l11.14-1.56c.5522847-.0773199.9373199-.5877153.86-1.14s-.5877153-.9373199-1.14-.86l-10.86 1.58v-3.35l5.39-2.31c.342728-.1298693.586951-.4368224.6364837-.7999685.0495327-.363146-.1035621-.7242929-.3989895-.9412058-.2954273-.216913-.6858464-.2548331-1.0174942-.0988257l-4.61 2v-5.08c8.9197048.5345282 16.6300206 6.4111247 19.51 14.87-.67.97-1.76 2.13-2.51 2.13-.5522847 0-1 .4477153-1 1s.4477153 1 1 1c1.2420156-.1304189 2.3783283-.7580964 3.15-1.74.1045406.5155072.1813178 1.0362572.23 1.56-1.7437998 3.0267047-4.8930132 4.9733546-8.38 5.18-.5522847 0-1 .4477153-1 1s.4477153 1 1 1c3.1596743-.1565961 6.142929-1.5035267 8.35-3.77-.1928724 1.6005623-.589415 3.1699304-1.18 4.67-1.595941.8168293-3.3797622 1.1963657-5.17 1.1-.5522847 0-1 .4477153-1 1s.4477153 1 1 1c1.3286699.0380527 2.6558307-.116895 3.94-.46-1.3607434 2.4337035-3.0202666 4.6878331-4.94 6.71.0570481-2.8502768-1.4879048-5.4921462-4-6.84zm-1.35-11.59 5.29-1.29c-.2257141 1.1469729-1.0971113 2.0583829-2.2328027 2.3353284s-2.3288255-.1310154-3.0571973-1.0453284zm-17.3 0c-.7346874.8892978-1.9141942 1.2785905-3.0339007 1.0013298s-1.981272-1.1719617-2.2160993-2.3013298zm-13.51-22.58c.43-1 1.69-.88 2.58-.31l8.53 6c-3.0077123 1.6692214-5.6310681 3.9518817-7.7 6.7-3.44-3.72-5.24-7.78-3.41-12.39zm41 12.31c-2.0633307-2.7506941-4.6880538-5.0311353-7.7-6.69l8.43-5.86c.92-.59 2.18-.77 2.61.29 1.83 4.55.04 8.59-3.36 12.26zm-46.03-13.78c.32223803-.7873354.97500678-1.39269855 1.78435876-1.65477443.80935197-.26207588 1.69306166-.15423908 2.41564124.29477443l.58.41c-.71943596.3360932-1.28423703.93306649-1.58 1.67-2.25 5.51-.07 10.51 4.07 14.78-.6007207.9366161-1.13857106 1.9120963-1.61 2.92-3.75-5.43-8.29-12.02-5.66-18.42zm10.58 49.23-2.63 2c-3.20320482-3.6416657-4.97936424-8.3200696-5-13.17-.00061039-.7514744-.45813687-1.4270607-1.15571167-1.7065307s-1.49499709-.106655-2.01428833.4365307c-1.27-7.2-.34-14.66 2.42-19.9 2.2 3.3 2.62 3.61 2.53 3.88-.40803236 1.0895892-.74212361 2.205454-1 3.34 0 .31-.09 1.07-.09 1.17-.61 9.95 6.95 17.49 10.26 20.78l.59.59c.2565243.3857292.5477332.7472299.87 1.08.5062664.8727704.6902864 1.8954969.52 2.89-1.27-.69-2.54-1.28-3.29-1.62-.6622353-.2928436-1.4310356-.2048715-2.01.23zm7.13 2.43c.1806904-.7151202.2515011-1.4535738.21-2.19 3.4827025 1.4075971 7.4679339-.009565 9.28-3.3 1.8120661 3.290435 5.7972975 4.7075971 9.28 3.3-.0415011.7364262.0293096 1.4748798.21 2.19-5.8779068 3.369958-13.1020932 3.369958-18.98 0zm34.49-34.77c2.74 5.24 3.67 12.7 2.46 20-.5105987-.5603246-1.3125844-.7501497-2.0201855-.4781655s-1.1759711.9501022-1.1798145 1.7081655c-.0290595 4.8423625-1.8044456 9.511628-5 13.15l-2.64-2c-.5747768-.434391-1.3387679-.5260699-2-.24-.74.34-2 .93-3.29 1.62-.1651982-.9944753.0185123-2.0154821.52-2.89.3222668-.3327701.6134757-.6942708.87-1.08l.6-.59c3.62-3.6 13.07-13 9.28-25-.18-.81-.6.35 2.4-4.2z" transform="translate(-1)" fill="#000000" data-original="#000000" class=""></path></g></svg>