<svg xmlns="http://www.w3.org/2000/svg" version="1.1" xmlns:xlink="http://www.w3.org/1999/xlink" xmlns:svgjs="http://svgjs.com/svgjs" width="512" height="512" x="0" y="0" viewBox="0 0 512 512" style="enable-background:new 0 0 512 512" xml:space="preserve" class=""><g><g xmlns="http://www.w3.org/2000/svg"><path d="m394.685 334-26.371 37.142c-3.462 4.879-3.907 11.211-1.162 16.524 2.745 5.314 8.166 8.616 14.148 8.616h76.931c5.982 0 11.404-3.302 14.149-8.616 2.744-5.314 2.299-11.646-1.165-16.525l-26.376-37.15c-1.026-1.441-1.569-3.146-1.569-4.928v-41.671h4.492c4.143 0 7.5-3.357 7.5-7.5s-3.357-7.5-7.5-7.5h-56.443c-4.143 0-7.5 3.357-7.5 7.5s3.357 7.5 7.5 7.5h4.941v41.671c0 1.782-.542 3.486-1.575 4.937zm64.367 46.782c-.258.5-.652.5-.821.5h-76.931c-.169 0-.563 0-.822-.5-.258-.5-.029-.821.067-.958l24.128-33.982h30.185l24.126 33.981c.097.137.326.46.068.959zm-30.782-93.391c.063 1.704-.124 41.554.068 43.45h-17.146c.213-3.741-.01-40.295.068-43.45z" fill="#6aaf08" data-original="#000000" class=""></path><path d="m236.849 289.393h46.026c4.143 0 7.5-3.357 7.5-7.5s-3.357-7.5-7.5-7.5h-46.026c-4.143 0-7.5 3.357-7.5 7.5s3.357 7.5 7.5 7.5z" fill="#6aaf08" data-original="#000000" class=""></path><path d="m236.849 325.162h108.538c4.143 0 7.5-3.357 7.5-7.5s-3.357-7.5-7.5-7.5h-108.538c-4.143 0-7.5 3.357-7.5 7.5s3.357 7.5 7.5 7.5z" fill="#6aaf08" data-original="#000000" class=""></path><path d="m236.849 360.931h108.538c4.143 0 7.5-3.357 7.5-7.5s-3.357-7.5-7.5-7.5h-108.538c-4.143 0-7.5 3.357-7.5 7.5s3.357 7.5 7.5 7.5z" fill="#6aaf08" data-original="#000000" class=""></path><path d="m236.849 396.7h46.026c4.143 0 7.5-3.357 7.5-7.5s-3.357-7.5-7.5-7.5h-46.026c-4.143 0-7.5 3.357-7.5 7.5s3.357 7.5 7.5 7.5z" fill="#6aaf08" data-original="#000000" class=""></path><path d="m236.849 432.468h224.332c4.143 0 7.5-3.357 7.5-7.5s-3.357-7.5-7.5-7.5h-224.332c-4.143 0-7.5 3.357-7.5 7.5s3.357 7.5 7.5 7.5z" fill="#6aaf08" data-original="#000000" class=""></path><path d="m482.01 182.42h-147.852l99.33-151.252c.001-.001.001-.001.002-.002 2.662-4.057 2.886-9.228.583-13.493-2.302-4.264-6.743-6.912-11.593-6.912h-29.52c-7.312 0-14.065 3.646-18.059 9.743l-106.337 161.916h-15.777l-106.336-161.912c-4.008-6.104-10.761-9.749-18.063-9.749h-29.523c-4.849 0-9.29 2.65-11.593 6.917-2.303 4.268-2.08 9.436.582 13.488l138.143 210.345c4.26 6.487 11.438 10.36 19.2 10.36h62.6c4.143 0 7.5-3.357 7.5-7.5s-3.357-7.5-7.5-7.5h-19.251l-25.908-39.449h219.372c8.266 0 14.99 6.725 14.99 14.99v258.84c0 8.266-6.725 14.99-14.99 14.99h-452.02c-8.266 0-14.99-6.725-14.99-14.99v-258.84c0-8.266 6.725-14.99 14.99-14.99h134.21c4.143 0 7.5-3.357 7.5-7.5s-3.357-7.5-7.5-7.5h-134.21c-16.537 0-29.99 13.454-29.99 29.991v258.84c0 16.537 13.453 29.99 29.99 29.99h452.02c16.537 0 29.99-13.453 29.99-29.99v-258.84c0-16.537-13.453-29.991-29.99-29.991zm-236.813 54.45c-2.693 0-5.185-1.344-6.663-3.595l-136.284-207.516h26.138c2.233 0 4.299 1.114 5.525 2.982l136.688 208.129zm175.752-213.934.002-.002-.006.009c.001-.003.003-.005.004-.007zm-33.505 5.794c1.218-1.858 3.279-2.969 5.516-2.969h26.135l-102.881 156.659h-29.704z" fill="#6aaf08" data-original="#000000" class=""></path><path d="m192.89 378.715c4.143 0 7.5-3.357 7.5-7.5v-78.485c0-11.215-9.124-20.339-20.338-20.339h-126.453c-11.215 0-20.339 9.124-20.339 20.339v155.629c0 11.215 9.124 20.338 20.339 20.338h126.453c11.214 0 20.338-9.123 20.338-20.338v-41.995c0-4.143-3.357-7.5-7.5-7.5s-7.5 3.357-7.5 7.5v41.995c0 2.943-2.395 5.338-5.338 5.338h-10.343l-2.748-30.587c-1.283-14.295-13.074-25.074-27.427-25.074h-45.419c-14.352 0-26.143 10.779-27.426 25.074l-2.748 30.587h-10.342c-2.944 0-5.339-2.395-5.339-5.338v-155.629c0-2.944 2.395-5.339 5.339-5.339h126.453c2.943 0 5.338 2.395 5.338 5.339v78.485c0 4.143 3.357 7.5 7.5 7.5zm-111.261 45.737c.585-6.508 5.952-11.416 12.486-11.416h15.21v7.866c0 4.143 3.357 7.5 7.5 7.5s7.5-3.357 7.5-7.5v-7.866h15.209c6.534 0 11.902 4.908 12.487 11.416l2.627 29.245h-75.646z" fill="#6aaf08" data-original="#000000" class=""></path><circle cx="461.181" cy="461.197" r="7.44" fill="#6aaf08" data-original="#000000" class=""></circle><path d="m103.037 305.163c-10.184 0-18.469 8.285-18.469 18.469v31.928c0 17.786 14.471 32.257 32.257 32.257s32.257-14.471 32.257-32.257v-31.928c0-10.184-8.285-18.469-18.469-18.469zm31.045 50.396c0 9.516-7.741 17.257-17.257 17.257s-17.257-7.741-17.257-17.257v-9.718h34.514zm0-31.928v7.21h-34.514v-7.21c0-1.913 1.556-3.469 3.469-3.469h27.576c1.913.001 3.469 1.556 3.469 3.469z" fill="#6aaf08" data-original="#000000" class=""></path></g></g></svg>