<?xml version="1.0" encoding="iso-8859-1"?>
<!-- Generator: Adobe Illustrator 19.0.0, SVG Export Plug-In . SVG Version: 6.00 Build 0)  -->
<svg xmlns="http://www.w3.org/2000/svg" xmlns:xlink="http://www.w3.org/1999/xlink" version="1.1" id="Layer_1" x="0px" y="0px" viewBox="0 0 512.122 512.122" style="enable-background:new 0 0 512.122 512.122;" xml:space="preserve" width="512" height="512">
<g>
	<path style="fill:#7C8388;" d="M25.171,35.46l104.912,131.514l55.053-77.93C148.705,40.133,83.779,18.644,25.171,35.46z"/>
	<path style="fill:#575F64;" d="M326.976,88.971l85.053,77.93l74.854-131.44C428.172,18.6,363.363,40.118,326.976,88.971z"/>
	<path style="fill:#575F64;" d="M131.137,111.046C89.008,63.087,54.482,27.169,25.097,35.475   C-27.335,50.966,12.969,152.485,49.97,192.33c1.89,2.021,3.779,3.926,5.698,5.669l80.859-80.83L131.137,111.046z"/>
	<path style="fill:#32393F;" d="M486.882,35.46c-29.253-8.276-63.823,27.642-105.996,75.63l-5.288,5.991l81.05,80.684   c20.229-18.913,38.036-51.943,47.139-78.018C514.86,88.035,518.958,44.815,486.882,35.46z"/>
	<path style="fill:#D3D3D8;" d="M512.122,317.34v36.299l-70.201-30l-185.799-0.298h-184.9l-71.1,30v-36   c0-119.101,136.901-255,256-255S512.122,198.239,512.122,317.34z"/>
	<path style="fill:#BABAC0;" d="M512.122,317.34v36.299l-70.201-30l-185.799-0.298v-261   C375.221,62.34,512.122,198.239,512.122,317.34z"/>
	<path style="fill:#575F64;" d="M512.122,353.639v0.3l-4.501,4.2c-17.999,18.3-39.3,32.701-62.699,43.2l-37.5-29.7l-151.3,0.3h-136   l-52.5,30c-23.101-10.801-44.399-25.501-62.999-44.101l-4.501-4.2v-0.298c24-30.601,45.601-63.602,63.6-90.901   c21-31.199,56.8-50.1,94.6-50.1c32.1,0,63.001,13.799,84.3,37.8h27.001c21.299-24.001,52.2-37.8,84.3-37.8   c37.8,0,73.599,18.9,94.6,50.1C452.722,267.839,472.522,311.34,512.122,353.639z"/>
	<path style="fill:#32393F;" d="M512.122,353.639v0.3l-4.501,4.2c-17.999,18.3-39.3,32.701-62.699,43.2l-37.5-29.7l-151.3,0.3   v-121.8h13.5c21.299-24.001,52.2-37.8,84.3-37.8c37.8,0,73.599,18.9,94.6,50.1C452.722,267.839,472.522,311.34,512.122,353.639z"/>
	<path style="fill:#D3D3D8;" d="M452.122,377.34c0,10.199-2.701,17.999-7.2,24c-22.8,10.8-48.701,17.701-74.2,20.099   c-6.601,0.601-12.9,0.901-19.501,0.901H161.022c-9,0-19.001-0.601-27.7-1.8c-22.8-2.701-45-9-65.7-18.6c-5.7-7.8-7.5-16.8-7.5-24.6   c0-40.201,45.399-105,106-105c23.401,0,46.8,10.8,66.899,30h46.201c20.099-19.2,43.499-30,66.899-30   C406.722,272.34,452.122,337.139,452.122,377.34z"/>
	<path style="fill:#BABAC0;" d="M452.122,377.34c0,10.199-2.701,17.999-7.2,24c-22.8,10.8-48.701,17.701-74.2,20.099   c-6.601,0.601-12.9,0.901-19.501,0.901h-95.099v-120h23.101c20.099-19.2,43.499-30,66.899-30   C406.722,272.34,452.122,337.139,452.122,377.34z"/>
	<rect x="151.122" y="332.34" style="fill:#7C8388;" width="30" height="30"/>
	<rect x="331.122" y="332.34" style="fill:#575F64;" width="30" height="30"/>
	<path style="fill:#7C8388;" d="M301.122,362.04h-90c1.199-72.001,7.5-239.7,45-239.7S299.922,290.039,301.122,362.04z"/>
	<path style="fill:#575F64;" d="M301.122,362.04h-45v-239.7C293.622,122.34,299.922,290.039,301.122,362.04z"/>
	<path style="fill:#ECECF1;" d="M298.122,353.04c-9.6-14.101-25.801-21-42.001-21s-32.4,6.899-42.001,21l-32.999,49.799v4.501   c0,41.4,33.6,75,75,75s75-33.6,75-75v-4.501L298.122,353.04z"/>
	<path style="fill:#D3D3D8;" d="M331.122,402.839v4.501c0,41.4-33.6,75-75,75v-150.3c16.199,0,32.401,6.899,42.001,21   L331.122,402.839z"/>
	<rect x="241.122" y="392.34" style="fill:#7C8388;" width="30" height="30"/>
	<rect x="256.122" y="392.34" style="fill:#575F64;" width="15" height="30"/>
</g>















</svg>
