<?xml version="1.0" encoding="iso-8859-1"?>
<!-- Generator: Adobe Illustrator 19.0.0, SVG Export Plug-In . SVG Version: 6.00 Build 0)  -->
<svg xmlns="http://www.w3.org/2000/svg" xmlns:xlink="http://www.w3.org/1999/xlink" version="1.1" id="Layer_1" x="0px" y="0px" viewBox="0 0 512 512" style="enable-background:new 0 0 512 512;" xml:space="preserve" width="512" height="512">
<g>
	<path style="fill:#575F64;" d="M512,136c0-57.891-48.109-105-106-105h-16.216c-49.863,0-93.179,35.493-102.964,84.404   l-4.468,22.354l146.982,129.536c26.045-8.511,45.883-30.205,51.171-56.294H512v-15c0-16.875-5.596-32.461-15.029-45H512V136z"/>
	<path style="fill:#7C8388;" d="M225.18,115.404C215.395,66.493,172.079,31,122.216,31H106C48.109,31,0,78.109,0,136v15h15.029   C5.596,163.539,0,179.125,0,196v15h32.494c5.288,26.089,24.126,47.783,50.171,56.294l146.982-129.536L225.18,115.404z"/>
	<path style="fill:#D3D3D8;" d="M256,121c-107.401,0-195,87.599-195,195v30c0,74.399,60.601,135,135,135h120   c74.399,0,135-60.601,135-135v-30C451,208.599,363.401,121,256,121z"/>
	<path style="fill:#BABAC0;" d="M451,316v30c0,74.399-60.601,135-135,135h-60V121C363.401,121,451,208.599,451,316z"/>
	<rect x="121" y="271" style="fill:#575F64;" width="30" height="30"/>
	<rect x="361" y="271" style="fill:#32393F;" width="30" height="30"/>
	<path style="fill:#32393F;" d="M375.063,133.07l-29.414-5.889C349.838,106.22,368.412,91,389.784,91H406v30h-16.216   C382.65,121,376.469,126.083,375.063,133.07z"/>
	<path style="fill:#575F64;" d="M136.923,133.041C135.531,126.068,129.35,121,122.216,121H106V91h16.216   c21.387,0,39.946,15.22,44.121,36.182L136.923,133.041z"/>
	<path style="fill:#7C8388;" d="M329.5,301L256,376l-73.5-75c6.901-34.2,37.2-60,73.5-60S322.599,266.8,329.5,301z"/>
	<path style="fill:#575F64;" d="M329.5,301L256,376V241C292.301,241,322.599,266.8,329.5,301z"/>
	<path style="fill:#575F64;" d="M331,316v60H181v-60c0-5.101,0.601-10.201,1.5-15H211c24.901,0,45,20.099,45,45   c0-24.901,20.099-45,45-45h28.5C330.399,305.799,331,310.899,331,316z"/>
	<path style="fill:#32393F;" d="M331,316v60h-75v-30c0-24.901,20.099-45,45-45h28.5C330.399,305.799,331,310.899,331,316z"/>
	<path style="fill:#575F64;" d="M331,376v30c0,41.4-33.6,75-75,75s-75-33.6-75-75v-30H331z"/>
	<path style="fill:#32393F;" d="M331,376v30c0,41.4-33.6,75-75,75V376H331z"/>
	<rect x="151" y="361" style="fill:#7C8388;" width="210" height="30"/>
	<rect x="256" y="361" style="fill:#575F64;" width="105" height="30"/>
</g>















</svg>
