<?xml version="1.0" encoding="iso-8859-1"?>
<!-- Generator: Adobe Illustrator 19.0.0, SVG Export Plug-In . SVG Version: 6.00 Build 0)  -->
<svg xmlns="http://www.w3.org/2000/svg" xmlns:xlink="http://www.w3.org/1999/xlink" version="1.1" id="Layer_1" x="0px" y="0px" viewBox="0 0 512 512" style="enable-background:new 0 0 512 512;" xml:space="preserve" width="512" height="512">
<g>
	<path style="fill:#ECECF1;" d="M512,322.301c0,38.699-15,75-42.299,102.299C433.4,460.901,383.8,481,332.5,481H179.5   C128.2,481,78.6,460.901,42.299,424.6C15,397.301,0,361,0,322.301c0-33.6,5.099-66.901,15-98.701C28.5,198.1,50.4,151,75,151h362   c24.6,0,46.5,47.1,60,72.599C506.901,255.399,512,288.701,512,322.301z"/>
	<path style="fill:#D3D3D8;" d="M512,322.301c0,38.699-15,75-42.299,102.299C433.4,460.901,383.8,481,332.5,481H256V151h181   c24.6,0,46.5,47.1,60,72.599C506.901,255.399,512,288.701,512,322.301z"/>
	<path style="fill:#7C8388;" d="M497,223.599C483.5,198.1,461.6,181,437,181c-32.1,0-61.199,30-71.4,72.599   C382.7,271.601,392,293.5,392,316c0,57.9-61.601,105-136,105s-136-47.1-136-105c0-22.5,9.3-44.399,26.4-62.401   C136.199,211,107.1,181,75,181c-24.6,0-46.5,17.1-60,42.599C54.3,96.4,151.3,31,256,31C362.8,31,458.301,99.101,497,223.599z"/>
	<path style="fill:#575F64;" d="M497,223.599C483.5,198.1,461.6,181,437,181c-32.1,0-61.199,30-71.4,72.599   C382.7,271.601,392,293.5,392,316c0,57.9-61.601,105-136,105V31C362.8,31,458.301,99.101,497,223.599z"/>
	<path style="fill:#FFDA2D;" d="M310.3,266.499L267.1,244.9c-3.3-1.8-7.2-2.701-11.1-2.701s-7.8,0.901-11.1,2.701l-43.2,21.599   c-7.2,3.301-12.299,10.201-13.5,18.301c-1.199,7.798,1.5,15.899,7.2,21.599l42.9,43.2c4.801,4.501,11.102,7.2,17.701,7.2   s12.9-2.699,17.701-7.2l42.9-43.2c5.7-5.7,8.399-13.801,7.2-21.599C322.599,276.7,317.5,269.801,310.3,266.499z"/>
	
		<rect x="53.787" y="256.002" transform="matrix(0.7071 0.7071 -0.7071 0.7071 213.5929 26.3411)" style="fill:#7C8388;" width="42.426" height="29.997"/>
	
		<rect x="422.002" y="249.787" transform="matrix(0.7071 0.7071 -0.7071 0.7071 319.6203 -229.6316)" style="fill:#575F64;" width="29.997" height="42.426"/>
	<path style="fill:#FDBF00;" d="M323.8,284.801c1.199,7.798-1.5,15.899-7.2,21.599l-42.9,43.2c-4.801,4.501-11.102,7.2-17.701,7.2   v-114.6c3.9,0,7.8,0.901,11.1,2.701l43.2,21.599C317.5,269.801,322.599,276.7,323.8,284.801z"/>
</g>















</svg>
