<?xml version="1.0" encoding="iso-8859-1"?>
<!-- Generator: Adobe Illustrator 19.0.0, SVG Export Plug-In . SVG Version: 6.00 Build 0)  -->
<svg xmlns="http://www.w3.org/2000/svg" xmlns:xlink="http://www.w3.org/1999/xlink" version="1.1" id="Layer_1" x="0px" y="0px" viewBox="0 0 512 512" style="enable-background:new 0 0 512 512;" xml:space="preserve" width="512" height="512">
<g>
	<g>
		<path style="fill:#FF9100;" d="M112.519,327.956c-4.231-3.985-51.223-26.033-71.137-91.333    C27.466,190.905-12.7,40.129,55.02,19.489c46.963-14.3,135.476,3.246,158.119,66.182    C246.536,178.512,129.126,302.31,112.519,327.956z"/>
	</g>
	<g>
		<path style="fill:#FFBD86;" d="M63.75,48.2c-24.829,7.559-22.046,86.484,6.343,179.692c7.148,23.511,21.068,44.385,37.27,59.077    c83.145-103.872,88.345-161.147,77.549-191.147C168.558,50.423,97.546,37.933,63.75,48.2z"/>
	</g>
	<g>
		<path style="fill:#FF641A;" d="M399.687,328.014c-5.264-8.085-132.356-144.549-101.543-239.458    c19.95-61.496,106.186-85.113,159.13-69.067c67.72,20.64,27.554,171.416,13.638,217.134    C450.794,302.707,404.434,323.546,399.687,328.014z"/>
	</g>
	<g>
		<path style="fill:#F6A96C;" d="M386.254,49.489c-21.841,5.596-49.907,18.53-59.59,48.325    c-9.756,30.059-3.618,87.056,78.193,189.229c16.245-14.722,30.194-35.625,37.343-59.15    c28.389-93.208,31.157-172.134,6.328-179.692C436.136,44.406,410.688,43.22,386.254,49.489L386.254,49.489z"/>
	</g>
	<path style="fill:#FDBF00;" d="M482,302.394c0,116.7-91.3,195-226,195s-226-78.3-226-195c0-95.4,61.601-199.801,151-238.801   l15,13.801l15-24.3c9.6-2.401,19.799-3.9,30-4.801l15,59.101l15-59.101c10.201,0.901,20.4,2.401,30,4.801l15,24.3l15-13.801   C420.399,102.593,482,206.995,482,302.394z"/>
	<path style="fill:#FF9100;" d="M482,302.394c0,116.7-91.3,195-226,195v-390l15-59.101c10.201,0.901,20.4,2.401,30,4.801l15,24.3   l15-13.801C420.399,102.593,482,206.995,482,302.394z"/>
	<polygon style="fill:#714C2F;" points="376,346.94 368.734,317.848 504.734,284.098 512,313.19  "/>
	<polygon style="fill:#895D3C;" points="136,346.94 0,313.19 7.266,284.098 143.266,317.848  "/>
	<path style="fill:#FED2A4;" d="M166,287.394c-24.814,0-45-20.186-45-45s20.186-45,45-45s45,20.186,45,45   S190.814,287.394,166,287.394z"/>
	<path style="fill:#32393F;" d="M166,257.394c-8.271,0-15-6.729-15-15s6.729-15,15-15s15,6.729,15,15S174.271,257.394,166,257.394z"/>
	<path style="fill:#FFBD86;" d="M346,287.394c-24.814,0-45-20.186-45-45s20.186-45,45-45s45,20.186,45,45   S370.814,287.394,346,287.394z"/>
	<path style="fill:#24292D;" d="M346,257.394c-8.271,0-15-6.729-15-15s6.729-15,15-15s15,6.729,15,15S354.271,257.394,346,257.394z"/>
	<path style="fill:#895D3C;" d="M331,392.394c0,24.899-20.099,45-45,45c-11.4,0-21.899-4.501-30-11.4   c-8.101,6.899-18.6,11.4-30,11.4c-24.901,0-45-20.101-45-45h30c0,8.399,6.599,15,15,15s15-6.601,15-15v-12.001h30v12.001   c0,8.399,6.599,15,15,15s15-6.601,15-15H331z"/>
	<path style="fill:#714C2F;" d="M331,392.394c0,24.899-20.099,45-45,45c-11.4,0-21.899-4.501-30-11.4v-45.601h15v12.001   c0,8.399,6.599,15,15,15s15-6.601,15-15H331z"/>
	<path style="fill:#FF9100;" d="M271,48.293v149.101h-30V48.293c5.099-0.3,9.901-0.899,15-0.899S265.901,47.993,271,48.293z"/>
	<path style="fill:#FF9100;" d="M211,167.394v-114.3c-10.34,2.609-20.297,6.248-30,10.496v103.804H211z"/>
	<path style="fill:#FF641A;" d="M331,167.394V63.59c-9.703-4.248-19.66-7.886-30-10.496v114.3H331z"/>
	<polygon style="fill:#714C2F;" points="493.367,436.94 372.367,406.94 379.633,377.848 500.633,407.848  "/>
	<polygon style="fill:#895D3C;" points="18.662,436.926 11.396,407.834 132.367,377.848 139.633,406.94  "/>
	<path style="fill:#FF641A;" d="M271,197.394h-15v-150c5.099,0,9.901,0.599,15,0.899V197.394z"/>
	<path style="fill:#895D3C;" d="M314.5,303.293c-5.4-9.899-15.3-15.899-26.4-15.899h-64.2c-11.1,0-21,6-26.4,15.899   c-5.099,9.6-4.499,21.601,1.5,30.601l32.1,47.999c5.4,8.401,14.7,13.5,24.901,13.5s19.501-5.099,24.901-13.5l32.1-47.999   C318.999,324.894,319.6,312.894,314.5,303.293z"/>
	<path style="fill:#714C2F;" d="M313.001,333.894l-32.1,47.999c-5.4,8.401-14.7,13.5-24.901,13.5V287.394h32.1   c11.1,0,21,6,26.4,15.899C319.6,312.894,318.999,324.894,313.001,333.894z"/>
</g>















</svg>
