<?xml version="1.0" encoding="iso-8859-1"?>
<!-- Generator: Adobe Illustrator 19.0.0, SVG Export Plug-In . SVG Version: 6.00 Build 0)  -->
<svg xmlns="http://www.w3.org/2000/svg" xmlns:xlink="http://www.w3.org/1999/xlink" version="1.1" id="Layer_1" x="0px" y="0px" viewBox="0 0 512 512" style="enable-background:new 0 0 512 512;" xml:space="preserve" width="512" height="512">
<g>
	<path style="fill:#FFBD86;" d="M512,211.4c-11.1-15-46.8-36.901-32.1-80.7c12.001-35.4-4.2-74.401-38.101-90.601l-4.799-2.1   c-18.6-9-41.499-9.899-60.7-2.1l-37.8,15.3C311.8,37.999,283.9,31.4,256,31.4s-55.8,6.599-82.5,19.799l-37.8-15.3   c-19.2-7.798-41.1-6.899-59.7,2.1l-4.799,2.1C37.599,56.299,21.099,95.3,33.1,130.7c14.7,43.799-22.301,66-33.1,80.7h43.001   C35.2,236.299,31,261.8,31,286.4c0,116.7,90.3,195,225,195s226-78.3,226-195c0-24.6-4.2-50.101-11.7-75H512z"/>
	<path style="fill:#F6A96C;" d="M470.3,211.4c7.5,24.899,11.7,50.4,11.7,75c0,116.7-91.3,195-226,195v-450   c27.9,0,55.8,6.599,82.5,19.799l37.8-15.3c19.2-7.798,42.1-6.899,60.7,2.1l4.799,2.1c33.9,16.199,50.101,55.201,38.101,90.601   c-14.7,43.799,21,65.7,32.1,80.7H470.3z"/>
	<path style="fill:#FED2A4;" d="M256,271.4c-58.801,0-105,32.999-105,75c0,41.999,46.199,75,105,75s105-33.001,105-75   C361,304.399,314.801,271.4,256,271.4z"/>
	<path style="fill:#FFBD86;" d="M361,346.4c0,41.999-46.199,75-105,75v-150C314.801,271.4,361,304.399,361,346.4z"/>
	<rect x="211" y="331.4" style="fill:#895D3C;" width="30" height="30"/>
	<rect x="151" y="211.4" style="fill:#895D3C;" width="30" height="30"/>
	<rect x="271" y="331.4" style="fill:#714C2F;" width="30" height="30"/>
	<rect x="331" y="211.4" style="fill:#714C2F;" width="30" height="30"/>
</g>















</svg>
