<?xml version="1.0" encoding="iso-8859-1"?>
<!-- Generator: Adobe Illustrator 19.0.0, SVG Export Plug-In . SVG Version: 6.00 Build 0)  -->
<svg xmlns="http://www.w3.org/2000/svg" xmlns:xlink="http://www.w3.org/1999/xlink" version="1.1" id="Layer_1" x="0px" y="0px" viewBox="0 0 511.922 511.922" style="enable-background:new 0 0 511.922 511.922;" xml:space="preserve" width="512" height="512">
<g>
	<path style="fill:#7C8388;" d="M450.961,315.922c0,87.299-57.299,148.9-153.3,162.999h-83.401c-96-14.099-153.3-75.7-153.3-162.999   c0-38.101,10.8-81.301,30.3-122.1c-2.1-51.899,12.299-121.601,50.7-162.4c31.199-32.999,76.199-41.1,114-18.6   c37.8-22.8,83.101-14.399,114.3,18.9c38.101,40.201,52.5,110.2,50.4,162.1C440.161,234.621,450.961,277.821,450.961,315.922z"/>
	<path style="fill:#575F64;" d="M450.961,315.922c0,87.299-57.299,148.9-153.3,162.999h-41.7V12.822   c37.8-22.8,83.101-14.399,114.3,18.9c38.101,40.201,52.5,110.2,50.4,162.1C440.161,234.621,450.961,277.821,450.961,315.922z"/>
	<path style="fill:#FFDA2D;" d="M361.862,284.422l-36,126.999H186.061l-36-126.999l31.201-62.4c1.8-23.101,21.299-41.1,44.7-41.1   c11.4,0,21.899,4.499,30,11.4c8.101-6.901,18.6-11.4,30-11.4c23.401,0,42.9,17.999,44.7,41.1L361.862,284.422z"/>
	<path style="fill:#FDBF00;" d="M361.862,284.422l-36,126.999h-69.901V192.322c8.101-6.901,18.6-11.4,30-11.4   c23.401,0,42.9,17.999,44.7,41.1L361.862,284.422z"/>
	<rect x="150.961" y="120.922" style="fill:#32393F;" width="30" height="60"/>
	<rect x="330.961" y="120.922" style="fill:#24292D;" width="30" height="60"/>
	<rect x="210.961" y="270.922" style="fill:#FDBF00;" width="30" height="30"/>
	<rect x="270.961" y="270.922" style="fill:#FF9100;" width="30" height="30"/>
	<path style="fill:#FDBF00;" d="M325.862,411.421c-0.901,3.6-16.201,57.301-17.1,60.901c-6.899,23.399-28.5,39.6-52.8,39.6   s-45.901-16.201-52.8-39.6c0-0.3-16.199-57.599-17.1-60.901c18.9-11.999,43.2-19.499,69.901-19.499   C282.361,391.922,306.961,399.422,325.862,411.421z"/>
	<path style="fill:#FF9100;" d="M325.862,411.421c-0.901,3.6-16.201,57.301-17.1,60.901c-6.899,23.399-28.5,39.6-52.8,39.6v-120   C282.361,391.922,306.961,399.422,325.862,411.421z"/>
</g>















</svg>
