<?xml version="1.0" encoding="iso-8859-1"?>
<!-- Generator: Adobe Illustrator 19.0.0, SVG Export Plug-In . SVG Version: 6.00 Build 0)  -->
<svg xmlns="http://www.w3.org/2000/svg" xmlns:xlink="http://www.w3.org/1999/xlink" version="1.1" id="Layer_1" x="0px" y="0px" viewBox="0 0 512 512" style="enable-background:new 0 0 512 512;" xml:space="preserve" width="512" height="512">
<g>
	<path style="fill:#32393F;" d="M91,356.3V407c0,41.4,33.6,75,75,75h30V331L91,356.3z"/>
	<path style="fill:#24292D;" d="M316,331v151h30c41.4,0,75-33.6,75-75v-50.7L316,331z"/>
	<path style="fill:#575F64;" d="M331,437v30c0,24.899-20.099,45-45,45h-60c-24.901,0-45-20.101-45-45v-30H331z"/>
	<path style="fill:#32393F;" d="M331,437v30c0,24.899-20.099,45-45,45h-30v-75H331z"/>
	<path style="fill:#32393F;" d="M440.863,0c-40.635,0-75.19,29.063-82.192,69.097L393.52,120H406c57.891,0,106-47.109,106-105V0   H440.863z"/>
	<path style="fill:#575F64;" d="M71.137,0H0v15c0,57.891,48.109,105,106,105h16.04l31.978-46.143C149.169,31.743,113.529,0,71.137,0   z"/>
	<path style="fill:#7C8388;" d="M256,0C165.099,0,91,74.099,91,165v191.3l51.599,25.8C147.7,384.8,151,389.9,151,395.6V407   c0,24.899,20.099,45,45,45h120c24.901,0,45-20.101,45-45v-11.4c0-5.7,3.3-10.8,8.401-13.5L421,356.3V165   C421,74.099,346.901,0,256,0z"/>
	<path style="fill:#575F64;" d="M421,165v191.3l-51.599,25.8C364.3,384.8,361,389.9,361,395.6V407c0,24.899-20.099,45-45,45h-60V0   C346.901,0,421,74.099,421,165z"/>
	<path style="fill:#ECECF1;" d="M269.801,129.3L256,95.4l-13.801,33.9C234.401,148.2,196,244.6,196,271c0,32.999,27.001,60,60,60   s60-27.001,60-60C316,244.6,277.599,148.2,269.801,129.3z"/>
	<rect x="151" y="211" style="fill:#32393F;" width="30" height="30"/>
	<rect x="211" y="362" style="fill:#575F64;" width="30" height="30"/>
	<rect x="331" y="211" style="fill:#24292D;" width="30" height="30"/>
	<rect x="271" y="362" style="fill:#32393F;" width="30" height="30"/>
	<path style="fill:#D3D3D8;" d="M316,271c0,32.999-27.001,60-60,60V95.4l13.801,33.9C277.599,148.2,316,244.6,316,271z"/>
</g>















</svg>
