<?xml version="1.0" encoding="iso-8859-1"?>
<!-- Generator: Adobe Illustrator 19.0.0, SVG Export Plug-In . SVG Version: 6.00 Build 0)  -->
<svg xmlns="http://www.w3.org/2000/svg" xmlns:xlink="http://www.w3.org/1999/xlink" version="1.1" id="Layer_1" x="0px" y="0px" viewBox="0 0 512 512" style="enable-background:new 0 0 512 512;" xml:space="preserve" width="512" height="512">
<g>
	<polygon style="fill:#D3D3D8;" points="511.099,76 489.8,149.799 459.699,262 52,262 22.2,150.099 0.3,76 61,76 61,0 141.4,63.999    158.5,0 222.7,63.999 256,2.399 289.3,63.999 353.5,0 370.6,63.999 451,0 451,76  "/>
	<polygon style="fill:#BABAC0;" points="511.099,76 489.8,149.799 459.699,262 256,262 256,2.399 289.3,63.999 353.5,0    370.6,63.999 451,0 451,76  "/>
	<path style="fill:#523522;" d="M475.023,128.705c-38.953-20.982-86.59,2.569-108.721,43.594   c-9.624,17.813-13.901,37.207-12.407,56.089c5.645,4.112,90.465,65.891,87.144,63.472c23.481-6.797,45.37-24.419,58.275-48.354   C522.869,199.838,511.425,148.334,475.023,128.705z"/>
	<path style="fill:#714C2F;" d="M145.697,172.313c-22.285-41.339-69.995-64.451-108.721-43.608   c-36.401,19.629-47.846,71.133-24.291,114.8c12.905,23.936,34.794,41.558,58.275,48.354l86.221-51.885   C156.962,234.09,164.11,206.364,145.697,172.313z"/>
	
		<rect x="414.075" y="177.1" transform="matrix(0.8801 0.4747 -0.4747 0.8801 152.9852 -178.0555)" style="fill:#4C2C19;" width="29.992" height="73.616"/>
	
		<rect x="46.121" y="198.912" transform="matrix(0.4748 0.8801 -0.8801 0.4748 231.8177 39.3633)" style="fill:#523522;" width="73.616" height="29.992"/>
	<path style="fill:#895D3C;" d="M445.6,262.899c-19.2-32.1-54.3-51.899-91.5-51.899c-28.5,0-55.501,11.1-75.601,31.199   c-6.301,6.301-14.399,9.6-22.5,9.6s-16.199-3.3-22.5-9.6C213.401,222.1,186.4,211,157.899,211c-37.2,0-72.299,19.799-92.999,54.3   C23.2,334.9,0,415.699,0,497v15h512v-15C512,415.699,488.8,334.9,445.6,262.899z"/>
	<path style="fill:#714C2F;" d="M512,497v15H256V251.8c8.101,0,16.199-3.3,22.5-9.6C298.599,222.1,325.6,211,354.101,211   c37.2,0,72.299,19.799,91.5,51.899C488.8,334.9,512,415.699,512,497z"/>
	<path style="fill:#FFBD86;" d="M374.801,412c-12.001,24-36.301,39-63.301,39c-22.5,0-42.599-10.501-55.499-27.001   C243.1,440.499,223.001,451,200.501,451c-27.001,0-51.301-15-63.301-39l26.7-13.5c7.2,13.799,21,22.5,36.601,22.5   C222.7,421,241,402.7,241,380.499V376h30v4.499C271,402.7,289.3,421,311.499,421c15.601,0,29.401-8.701,36.601-22.5L374.801,412z"/>
	<rect x="121" y="301" style="fill:#32393F;" width="30" height="30"/>
	<rect x="361" y="301" style="fill:#24292D;" width="30" height="30"/>
	<path style="fill:#F6A96C;" d="M374.801,412c-12.001,24-36.301,39-63.301,39c-22.5,0-42.599-10.501-55.499-27.001V376h15v4.499   C271,402.7,289.3,421,311.499,421c15.601,0,29.401-8.701,36.601-22.5L374.801,412z"/>
	<path style="fill:#FED2A4;" d="M256,301c-42.9,0-75,19.499-75,45c0,25.499,32.1,45,75,45s75-19.501,75-45   C331,320.499,298.9,301,256,301z"/>
	<path style="fill:#FFBD86;" d="M331,346c0,25.499-32.1,45-75,45v-90C298.9,301,331,320.499,331,346z"/>
</g>















</svg>
