<?xml version="1.0" encoding="iso-8859-1"?>
<!-- Generator: Adobe Illustrator 19.0.0, SVG Export Plug-In . SVG Version: 6.00 Build 0)  -->
<svg xmlns="http://www.w3.org/2000/svg" xmlns:xlink="http://www.w3.org/1999/xlink" version="1.1" id="Layer_1" x="0px" y="0px" viewBox="0 0 512.166 512.166" style="enable-background:new 0 0 512.166 512.166;" xml:space="preserve" width="512" height="512">
<g>
	<path style="fill:#575F64;" d="M421.052,181.083L421.052,181.083c-49.706,0-90-41.294-90-91v0c0-49.706,40.294-90,90-90h0   c49.706,0,91,40.294,91,90v0C512.052,139.788,470.758,181.083,421.052,181.083z"/>
	<path style="fill:#7C8388;" d="M91.052,181.083L91.052,181.083c-49.706,0-91-41.294-91-91v0c0-49.706,41.294-90,91-90h0   c49.706,0,90,40.294,90,90v0C181.052,139.788,140.758,181.083,91.052,181.083z"/>
	<path style="fill:#ECECF1;" d="M510.252,256.383l-3.9-30c-15-111.301-112-196.3-224.2-196.3h-52.2c-112.2,0-209.2,85-224.2,196.3   l-3.9,30c-8.399,64.199,12.1,129,54.699,177.9c42.902,48.9,104.401,77.8,169.501,77.8h60c65.099,0,127.599-28.9,170.501-77.8   C499.153,385.383,518.651,320.582,510.252,256.383z"/>
	<path style="fill:#D3D3D8;" d="M456.553,434.283c-42.902,48.9-105.401,77.8-170.501,77.8h-30v-482h26.1   c112.2,0,209.2,85,224.2,196.3l3.9,30C518.651,320.582,499.153,385.383,456.553,434.283z"/>
	<path style="fill:#575F64;" d="M331.052,406.083c0,24.899-20.099,45-45,45c-11.7,0-21.899-4.501-30-11.7   c-8.101,7.2-18.3,11.7-30,11.7c-24.901,0-45-20.101-45-45h30c0,8.399,6.599,15,15,15s15-6.601,15-15v-30h30v30   c0,8.399,6.599,15,15,15s15-6.601,15-15H331.052z"/>
	<path style="fill:#32393F;" d="M331.052,406.083c0,24.899-20.099,45-45,45c-11.7,0-21.899-4.501-30-11.7v-63.3h15v30   c0,8.399,6.599,15,15,15s15-6.601,15-15H331.052z"/>
	<path style="fill:#7C8388;" d="M93.865,315.863c-36.519-19.409-47.3-70.854-24.009-114.668   c23.262-43.843,71.924-63.691,108.442-44.297c36.519,19.409,47.3,70.854,24.009,114.668   C180.02,313.56,131.689,335.97,93.865,315.863z"/>
	<path style="fill:#575F64;" d="M309.856,271.566c-23.291-43.813-12.51-95.259,23.994-114.668   c36.504-19.453,85.181,0.454,108.457,44.297l0,0c23.291,43.813,12.51,95.259-23.994,114.668   C379.739,336.368,331.778,312.874,309.856,271.566z"/>
	<rect x="361.052" y="211.083" style="fill:#24292D;" width="30" height="30"/>
	<rect x="121.052" y="211.083" style="fill:#32393F;" width="30" height="30"/>
	<path style="fill:#7C8388;" d="M256.052,301.083c-33.6,0-60,19.799-60,45c0,25.199,26.4,45,60,45s60-19.801,60-45   C316.052,320.882,289.652,301.083,256.052,301.083z"/>
	<path style="fill:#575F64;" d="M316.052,346.083c0,25.199-26.4,45-60,45v-90C289.652,301.083,316.052,320.882,316.052,346.083z"/>
</g>















</svg>
