<?xml version="1.0" encoding="iso-8859-1"?>
<!-- Generator: Adobe Illustrator 19.0.0, SVG Export Plug-In . SVG Version: 6.00 Build 0)  -->
<svg xmlns="http://www.w3.org/2000/svg" xmlns:xlink="http://www.w3.org/1999/xlink" version="1.1" id="Layer_1" x="0px" y="0px" viewBox="0 0 512 512" style="enable-background:new 0 0 512 512;" xml:space="preserve" width="512" height="512">
<g>
	<path style="fill:#575F64;" d="M136,151.5h45v-45c0-57.99-47.01-106-105-106l-76,1l0,15C0,91.058,61.442,151.5,136,151.5z"/>
	<path style="fill:#D3D3D8;" d="M151,121.5v-15c0-41.353-33.647-76-75-76H31.069c7.295,50.815,52.123,91,104.931,91H151z"/>
	<path style="fill:#32393F;" d="M376,151.5h-45v-45c0-57.99,47.01-106,105-106h76v15C512,90.058,450.558,151.5,376,151.5z"/>
	<path style="fill:#BABAC0;" d="M361,121.5v-15c0-41.353,33.647-76,75-76h44.931c-7.295,50.815-52.123,91-104.931,91H361z"/>
	<path style="fill:#ECECF1;" d="M417.7,277.2L388.599,345l-16.8-3.001l4.801,31.201L361,409.499l-105,0.3H151v-0.3L135.399,373.2   l34.801-31.201l-46.8,3.001L94.3,277.2C82.301,249,80.501,218.7,87.7,190.8L115,206.999L102.4,155.1c5.7-9.3,12.299-18.6,20.4-26.7   c0.601-0.3,0.901-0.601,1.5-1.199L153.1,147.3l-1.5-39.6C169.9,97.5,190.3,91.5,211.901,91.5h88.198   c21.601,0,42.301,6,60.601,16.199L359.5,147.9l28.799-20.4c0.3,0.298,0.601,0.599,0.901,0.899c8.101,8.101,14.7,17.401,20.4,26.7   L397,206.999L424.3,190.8C431.499,218.7,429.699,249,417.7,277.2z"/>
	<path style="fill:#D3D3D8;" d="M417.7,277.2L388.599,345l-16.8-3.001l4.801,31.201L361,409.499l-105,0.3V91.5h44.099   c21.601,0,42.301,6,60.601,16.199L359.5,147.9l28.799-20.4c0.3,0.298,0.601,0.599,0.901,0.899c8.101,8.101,14.7,17.401,20.4,26.7   L397,206.999L424.3,190.8C431.499,218.7,429.699,249,417.7,277.2z"/>
	<rect x="151" y="241.5" style="fill:#24292D;" width="30" height="30"/>
	<rect x="331" y="241.5" style="fill:#24292D;" width="30" height="30"/>
	<rect x="241" y="136.5" style="fill:#7C8388;" width="30" height="195"/>
	<path style="fill:#575F64;" d="M320.072,312.984l-8.145,28.887c23.397,6.586,45.079,17.276,64.673,31.3l12.109-28.257   C367.753,330.768,344.738,319.93,320.072,312.984z"/>
	<path style="fill:#7C8388;" d="M191.942,312.984c-24.752,6.967-47.677,17.88-68.621,32.003l12.144,28.337   c19.578-14,41.116-24.849,64.592-31.454L191.942,312.984z"/>
	<path style="fill:#575F64;" d="M367.094,207.12l17.813,24.141c15.868-11.699,28.993-25.475,39.41-40.605   c-3.166-12.4-8.08-24.311-14.745-35.484C400.452,174.903,386.43,192.862,367.094,207.12z"/>
	<path style="fill:#7C8388;" d="M127.094,231.261l17.813-24.141c-19.336-14.258-33.358-32.217-42.477-51.949   c-6.665,11.173-11.58,23.084-14.745,35.484C98.101,205.785,111.226,219.562,127.094,231.261z"/>
	<path style="fill:#7C8388;" d="M388.299,127.5c-3.3,12.299-9.3,24.3-17.999,35.099c-24.6,30.601-67.5,48.9-114.3,48.9   c-50.4,0-96-21.301-119.399-55.8c-6.301-9.001-9.901-18.602-12.301-28.5c8.101-7.8,17.401-14.101,27.301-19.501   c0.3,12.9,4.799,23.401,9.899,31.199C178.9,164.7,216.099,181.5,256,181.5c37.2,0,72.299-14.401,91.199-37.8   c6.301-8.101,13.2-20.7,13.5-36C370.6,113.099,379.9,119.7,388.299,127.5z"/>
	<path style="fill:#575F64;" d="M388.299,127.5c-3.3,12.299-9.3,24.3-17.999,35.099c-24.6,30.601-67.5,48.9-114.3,48.9v-30   c37.2,0,72.299-14.401,91.199-37.8c6.301-8.101,13.2-20.7,13.5-36C370.6,113.099,379.9,119.7,388.299,127.5z"/>
	<rect x="256" y="136.5" style="fill:#575F64;" width="15" height="195"/>
	<path style="fill:#7C8388;" d="M361,409.499V436.5c0,41.4-33.6,75-75,75h-60c-41.4,0-75-33.6-75-75v-26.7   c30.3-27.001,66.599-45.601,105-45.601c0.3,0,0.3,0,0.601,0C294.699,364.499,331,382.799,361,409.499z"/>
	<path style="fill:#575F64;" d="M256.601,364.199c38.099,0.3,74.399,18.6,104.399,45.3V436.5c0,41.4-33.6,75-75,75h-30V364.199   C256.3,364.199,256.3,364.199,256.601,364.199z"/>
	<rect x="211" y="421.5" style="fill:#575F64;" width="30" height="30"/>
	<rect x="271" y="421.5" style="fill:#32393F;" width="30" height="30"/>
	<path style="fill:#7C8388;" d="M176.8,0.5l37.5,151H297.7l37.5-151H176.8z"/>
	<polygon style="fill:#575F64;" points="297.7,151.5 256,151.5 256,0.5 335.2,0.5  "/>
</g>















</svg>
