<?xml version="1.0" encoding="iso-8859-1"?>
<!-- Generator: Adobe Illustrator 19.0.0, SVG Export Plug-In . SVG Version: 6.00 Build 0)  -->
<svg xmlns="http://www.w3.org/2000/svg" xmlns:xlink="http://www.w3.org/1999/xlink" version="1.1" id="Layer_1" x="0px" y="0px" viewBox="0 0 512 512" style="enable-background:new 0 0 512 512;" xml:space="preserve" width="512" height="512">
<g>
	<path style="fill:#ECECF1;" d="M512,302v210H389.5c-50.7,0-95.099-7.8-133.5-20.7c-48.9-16.5-88.801-41.4-121.199-69.3l22.798-15   L103.9,392c-28.2-30.3-50.2-62.1-65.499-90l58.9-30H470.9L512,302z"/>
	<rect x="211" y="287" style="fill:#24292D;" width="30" height="45"/>
	<path style="fill:#D3D3D8;" d="M512,302v210H389.5c-50.7,0-95.099-7.8-133.5-20.7V272h214.9L512,302z"/>
	<path style="fill:#32393F;" d="M342.4,143.899l84.3,34.95L512,153.8V0C507.499,2.401,381.4,15.5,342.4,143.899z"/>
	<path style="fill:#7C8388;" d="M512,153.8V302H38.401C13.801,257.601,2.999,222.201,0,218.599C17.401,214.1,106.901,167,256,149.9   c26.7-2.999,55.8-5.4,86.4-6c47.401-1.199,100.3,1.201,156.4,8.101L512,153.8z"/>
	<path style="fill:#575F64;" d="M512,153.8V302H256V149.9c26.7-2.999,55.8-5.4,86.4-6c47.401-1.199,100.3,1.201,156.4,8.101   L512,153.8z"/>
	<path style="fill:#7C8388;" d="M299.2,384.5L277.599,422H134.801c-11.1-9.6-21.301-19.799-30.901-30H260.2l12.599-22.5L299.2,384.5   z"/>
	<path style="fill:#BABAC0;" d="M316,452v-30c6.123,0,15-11.689,15-30s-8.877-30-15-30v-30c25.239,0,45,26.353,45,60   S341.239,452,316,452z"/>
	<path style="fill:#BABAC0;" d="M376,452v-30c6.123,0,15-11.689,15-30s-8.877-30-15-30v-30c25.239,0,45,26.353,45,60   S401.239,452,376,452z"/>
	<polygon style="fill:#575F64;" points="299.2,384.5 277.599,422 256,422 256,392 260.2,392 272.8,369.5  "/>
</g>















</svg>
