<?xml version="1.0" encoding="iso-8859-1"?>
<!-- Generator: Adobe Illustrator 19.0.0, SVG Export Plug-In . SVG Version: 6.00 Build 0)  -->
<svg xmlns="http://www.w3.org/2000/svg" xmlns:xlink="http://www.w3.org/1999/xlink" version="1.1" id="Layer_1" x="0px" y="0px" viewBox="0 0 512 512" style="enable-background:new 0 0 512 512;" xml:space="preserve" width="512" height="512">
<g>
	<path style="fill:#7C8388;" d="M194.242,96.801C167.172,78.754,151,47.549,151,15V0H97.211C44.154,0,0,44.154,0,97.211   c0,47.227,34.809,87.144,81.391,94.893l58.931,9.829l63.237-98.921L194.242,96.801z"/>
	<path style="fill:#575F64;" d="M414.789,0H361v15c0,32.549-16.172,63.754-43.242,81.801l-6.167,4.116l66.812,99.888l52.207-8.701   C477.191,184.354,512,144.438,512,97.211C512,44.154,467.846,0,414.789,0z"/>
	<path style="fill:#575F64;" d="M152.523,170.6l-7.397-1.846c-30.498-7.632-56.44-27.935-71.191-55.723l26.514-14.063   c10.752,20.288,29.692,35.112,51.943,40.679l7.397,1.831L152.523,170.6z"/>
	<path style="fill:#32393F;" d="M366.874,168.739l-8.481-28.799c23.467-5.859,42.407-20.684,53.159-40.972l26.514,14.063   C423.314,140.819,397.372,161.122,366.874,168.739z"/>
	<path style="fill:#D3D3D8;" d="M394.9,199.9c-1.199-5.101-2.401-10.801-3.9-15.901c-18.9-65.4-82.8-111.599-135-85.8   c-47.1-23.401-106.8,12.9-127.8,85.8c-0.899,3.001-1.8,6-2.401,9.3C84.401,224.5,61,268.9,61,316c0,66.599,46.5,125.4,118.2,151.5   c19.2,26.7,46.5,44.5,76.8,44.5s57.599-17.8,76.8-44.5C404.5,441.4,451,382.599,451,316C451,271.899,431.201,231.099,394.9,199.9z"/>
	<path style="fill:#BABAC0;" d="M451,316c0,66.599-46.5,125.4-118.2,151.5c-19.2,26.7-46.5,44.5-76.8,44.5V98.2   c52.2-25.8,116.1,20.4,135,85.8c1.5,5.099,2.701,10.8,3.9,15.901C431.201,231.099,451,271.899,451,316z"/>
	<rect x="181" y="241" style="fill:#575F64;" width="30" height="30"/>
	<rect x="301" y="241" style="fill:#32393F;" width="30" height="30"/>
	<polygon style="fill:#7C8388;" points="132.367,330.546 11.367,300.546 18.633,271.454 139.633,301.454  "/>
	<polygon style="fill:#7C8388;" points="18.633,420.546 11.367,391.454 132.367,361.454 139.633,390.546  "/>
	<polygon style="fill:#575F64;" points="379.633,330.546 372.367,301.454 493.367,271.454 500.633,300.546  "/>
	<polygon style="fill:#575F64;" points="493.367,420.546 372.367,390.546 379.633,361.454 500.633,391.454  "/>
	<path style="fill:#7C8388;" d="M256,361c-24.901,0-45,20.099-45,45c0,24.899,20.099,45,45,45s45-20.101,45-45   C301,381.099,280.901,361,256,361z"/>
	<path style="fill:#575F64;" d="M301,406c0,24.899-20.099,45-45,45v-90C280.901,361,301,381.099,301,406z"/>
</g>















</svg>
