<?xml version="1.0" encoding="iso-8859-1"?>
<!-- Generator: Adobe Illustrator 19.0.0, SVG Export Plug-In . SVG Version: 6.00 Build 0)  -->
<svg xmlns="http://www.w3.org/2000/svg" xmlns:xlink="http://www.w3.org/1999/xlink" version="1.1" id="Layer_1" x="0px" y="0px" viewBox="0 0 512 512" style="enable-background:new 0 0 512 512;" xml:space="preserve" width="512" height="512">
<g>
	<circle style="fill:#523522;" cx="406" cy="106" r="75"/>
	<circle style="fill:#714C2F;" cx="106" cy="106" r="75"/>
	<path style="fill:#FFBD86;" d="M106,151c-24.814,0-45-20.186-45-45s20.186-45,45-45s45,20.186,45,45S130.814,151,106,151z"/>
	<path style="fill:#F6A96C;" d="M406,151c-24.814,0-45-20.186-45-45s20.186-45,45-45s45,20.186,45,45S430.814,151,406,151z"/>
	<path style="fill:#895D3C;" d="M451,227.5V226c0-107.401-87.599-195-195-195S61,118.599,61,226v1.5C23.8,248.8,0,287.8,0,331   c0,64.799,52.599,117.9,118.001,120C154.6,470.2,203.5,481,256,481s101.4-10.501,137.701-30C458.8,449.5,512,396.099,512,331   C512,287.8,488.2,248.8,451,227.5z"/>
	<path style="fill:#714C2F;" d="M512,331c0,65.099-53.2,118.5-118.299,120C357.4,470.499,308.5,481,256,481V31   c107.401,0,195,87.599,195,195v1.5C488.2,248.8,512,287.8,512,331z"/>
	<polygon style="fill:#ECECF1;" points="320.2,350.499 296.8,421 215.2,421 191.8,350.499 220,310.899 292,310.899  "/>
	<polygon style="fill:#D3D3D8;" points="320.2,350.499 296.8,421 256,421 256,310.899 292,310.899  "/>
	<rect x="121" y="181" style="fill:#32393F;" width="30" height="30"/>
	<rect x="361" y="181" style="fill:#24292D;" width="30" height="30"/>
	<path style="fill:#714C2F;" d="M256,196c-57.9,0-105,47.1-105,105c0,32.999,27.001,60,60,60c17.999,0,33.9-7.8,45-20.4   c11.1,12.599,27.001,20.4,45,20.4c32.999,0,60-27.001,60-60C361,243.1,313.9,196,256,196z"/>
	<path style="fill:#523522;" d="M361,301c0,32.999-27.001,60-60,60c-17.999,0-33.9-7.8-45-20.4V196C313.9,196,361,243.1,361,301z"/>
	<rect x="241" y="241" style="fill:#FED2A4;" width="30" height="30"/>
	<rect x="256" y="241" style="fill:#FFBD86;" width="15" height="30"/>
</g>















</svg>
