<?xml version="1.0" encoding="iso-8859-1"?>
<!-- Generator: Adobe Illustrator 19.0.0, SVG Export Plug-In . SVG Version: 6.00 Build 0)  -->
<svg xmlns="http://www.w3.org/2000/svg" xmlns:xlink="http://www.w3.org/1999/xlink" version="1.1" id="Layer_1" x="0px" y="0px" viewBox="0 0 512 512" style="enable-background:new 0 0 512 512;" xml:space="preserve" width="512" height="512">
<g>
	<path style="fill:#BABAC0;" d="M448.876,9.802c-37.742-23.451-86.777-2.335-111.138,36.973c-5.261,8.457,1.601-3.882-72.29,145.4   l100.693,64.57c97.085-127.833,94.305-123.183,99.097-130.957C489.796,86.153,486.41,33.061,448.876,9.802z"/>
	<path style="fill:#D3D3D8;" d="M174.291,46.819C149.695,7.138,100.651-13.47,63.139,9.787   C25.443,33.159,22.321,86.351,46.733,125.73c5.116,8.338,0.563,1.236,99.111,131.001l100.693-64.556   C173.466,44.518,179.218,54.748,174.291,46.819z"/>
	<polygon style="fill:#FFBD86;" points="334.955,224.182 309.233,208.743 393.124,68.909 418.847,84.348  "/>
	<polygon style="fill:#FED2A4;" points="177.016,224.182 93.124,84.348 118.847,68.909 202.739,208.743  "/>
	<path style="fill:#ECECF1;" d="M390.986,319.9V316c0-74.401-60.601-135-135-135s-135,60.599-135,135v3.9   c-18.9,14.099-30,34.499-30,56.1c0,60.899,76.199,136,165,136s165-75.101,165-136C420.986,354.399,409.886,333.999,390.986,319.9z"/>
	<path style="fill:#D3D3D8;" d="M420.986,376c0,60.899-76.199,136-165,136V181c74.399,0,135,60.599,135,135v3.9   C409.886,333.999,420.986,354.399,420.986,376z"/>
	<rect x="180.986" y="301" style="fill:#575F64;" width="30" height="30"/>
	<rect x="300.986" y="301" style="fill:#32393F;" width="30" height="30"/>
	<path style="fill:#895D3C;" d="M330.986,406c0,24.899-20.099,45-45,45c-11.7,0-21.899-4.501-30-11.7c-8.101,7.2-18.3,11.7-30,11.7   c-24.901,0-45-20.101-45-45h30c0,8.399,6.599,15,15,15s15-6.601,15-15v-23.701l-25.499-25.8l20.999-21l19.501,19.2l19.501-19.2   l20.999,21l-25.499,25.8V406c0,8.399,6.599,15,15,15s15-6.601,15-15H330.986z"/>
	<path style="fill:#714C2F;" d="M330.986,406c0,24.899-20.099,45-45,45c-11.7,0-21.899-4.501-30-11.7v-84.6l19.501-19.2l20.999,21   l-25.499,25.8V406c0,8.399,6.599,15,15,15s15-6.601,15-15H330.986z"/>
</g>















</svg>
