<?xml version="1.0" encoding="iso-8859-1"?>
<!-- Generator: Adobe Illustrator 19.0.0, SVG Export Plug-In . SVG Version: 6.00 Build 0)  -->
<svg xmlns="http://www.w3.org/2000/svg" xmlns:xlink="http://www.w3.org/1999/xlink" version="1.1" id="Layer_1" x="0px" y="0px" viewBox="0 0 512 512" style="enable-background:new 0 0 512 512;" xml:space="preserve" width="512" height="512">
<g>
	<path style="fill:#714C2F;" d="M33.047,110.189C12.671,120.414,0,140.907,0,163.7c0,25.796,17.436,48.589,41.898,56.733   l29.355,9.785l34.014-155.625L33.047,110.189z"/>
	<path style="fill:#523522;" d="M478.938,110.189l-72.206-35.596l34.014,155.625l30.355-9.771   C495.564,212.289,512,189.496,512,163.7C512,140.907,499.329,120.414,478.938,110.189z"/>
	<path style="fill:#895D3C;" d="M256,0C148.599,0,61,88.599,61,196v316h390V196C451,88.599,363.401,0,256,0z"/>
	<path style="fill:#714C2F;" d="M451,196v316H256V0C363.401,0,451,88.599,451,196z"/>
	<rect x="121" y="151" style="fill:#24292D;" width="30" height="30"/>
	<rect x="361" y="151" style="fill:#24292D;" width="30" height="30"/>
	<path style="fill:#32393F;" d="M361,286c0,41.4-33.6,75-75,75c-10.499,0-20.7-2.1-30-6.301c-9.3,4.2-19.501,6.301-30,6.301   c-41.4,0-75-33.6-75-75h30c0,24.901,20.099,45,45,45c5.099,0,10.201-1.199,15-2.999V316h30v12.001c4.799,1.8,9.901,2.999,15,2.999   c24.901,0,45-20.099,45-45H361z"/>
	<path style="fill:#714C2F;" d="M331,166h-30c0-3.6-15.901-15-45-15s-45,11.4-45,15h-30c0-25.499,32.1-45,75-45S331,140.501,331,166   z"/>
	<path style="fill:#714C2F;" d="M391,376c0,42.9-57.9,75-135,75s-135-32.1-135-75h30c0,21.301,45,45,105,45s105-23.699,105-45H391z"/>
	<polygon style="fill:#714C2F;" points="18.633,360.546 11.367,331.454 132.367,301.454 139.633,330.546  "/>
	<rect y="241" style="fill:#714C2F;" width="151" height="30"/>
	<rect x="361" y="241" style="fill:#523522;" width="151" height="30"/>
	<polygon style="fill:#523522;" points="493.367,360.546 372.367,330.546 379.633,301.454 500.633,331.454  "/>
	<path style="fill:#523522;" d="M256,151v-30c42.9,0,75,19.501,75,45h-30C301,162.4,285.099,151,256,151z"/>
	<path style="fill:#523522;" d="M391,376c0,42.9-57.9,75-135,75v-30c60,0,105-23.699,105-45H391z"/>
	<path style="fill:#24292D;" d="M361,286c0,41.4-33.6,75-75,75c-10.499,0-20.7-2.1-30-6.301V316h15v12.001   c4.799,1.8,9.901,2.999,15,2.999c24.901,0,45-20.099,45-45H361z"/>
	<path style="fill:#32393F;" d="M319.6,229.9l-9.3-18.9H201.7l-9.3,18.9c-8.699,17.401-5.4,38.399,8.399,51.899L256,337.301   l55.201-55.501C325,268.299,328.299,247.301,319.6,229.9z"/>
	<path style="fill:#24292D;" d="M311.201,281.8L256,337.301V211h54.3l9.3,18.9C328.299,247.301,325,268.299,311.201,281.8z"/>
</g>















</svg>
