<?xml version="1.0" encoding="iso-8859-1"?>
<!-- Generator: Adobe Illustrator 19.0.0, SVG Export Plug-In . SVG Version: 6.00 Build 0)  -->
<svg xmlns="http://www.w3.org/2000/svg" xmlns:xlink="http://www.w3.org/1999/xlink" version="1.1" id="Layer_1" x="0px" y="0px" viewBox="0 0 512.039 512.039" style="enable-background:new 0 0 512.039 512.039;" xml:space="preserve" width="512" height="512">
<g>
	<polygon style="fill:#895D3C;" points="423.42,150.32 414.42,211.819 330.719,422.019 181.32,422.019 98.519,211.219 89.82,146.72    256.019,148.52  "/>
	<polygon style="fill:#714C2F;" points="423.42,150.32 414.42,211.819 330.719,422.019 256.019,422.019 256.019,148.52  "/>
	<path style="fill:#714C2F;" d="M216.937,251.775c-15.396-30.791-47.549-51.365-82.178-49.959   c-12.653,0.608-24.789,3.983-36.324,9.509l4.2,34.023l6.533,49.801c5.894,41.307,21.821,79.878,45.055,113.729   c2.997,4.367,5.662,8.947,8.914,13.141h18.16l38.892-99.829C229.081,299.353,227.894,273.689,216.937,251.775z"/>
	<path style="fill:#523522;" d="M369.852,201.772c-31.831,1.172-60.439,21.57-74.663,50.003   c-10.957,21.929-12.144,47.593-3.237,70.43l38.882,99.814h18.03c3.274-4.237,5.966-8.873,8.985-13.293   c23.194-33.953,39.181-72.748,45.02-113.577l7.072-49.488l4.548-33.838C400.389,204.931,385.378,201.391,369.852,201.772z"/>
	<rect x="151.019" y="272.019" style="fill:#32393F;" width="30" height="30"/>
	<rect x="331.019" y="272.019" style="fill:#24292D;" width="30" height="30"/>
	<path style="fill:#FED2A4;" d="M512.019,99.62c-1.199,66-62.199,111-128.8,110.4c-30-0.3-77.999-14.7-105-45.601   c-6-6.899-13.2-11.1-22.2-11.1s-16.199,4.2-22.2,11.1c-27.001,30.901-75,45.3-105,45.601C62.219,210.62,1.219,165.62,0.019,99.62   C-0.882,53.12,29.82,7.519,82.32,0.92c4.499-0.601,9.3-0.901,13.799-0.901h24.901v30c-25.201,0-45,21.599-45,45v21   c0,13.2,12.9,24,26.4,24c18.9,0,22.8-17.401,32.699-29.7c19.501-29.399,71.7-65.7,111-42.301c3.6,2.1,6.901,4.501,9.901,7.202   c2.999-2.701,6.301-5.101,9.901-7.202c39.3-23.399,91.5,12.902,111,42.301c9.899,12.299,13.799,29.7,32.699,29.7   c13.5,0,26.4-10.8,26.4-24v-21c0-23.401-19.799-45-45-45v-30h24.901c4.499,0,9.3,0.3,13.799,0.901   C482.219,7.519,512.92,53.12,512.019,99.62z"/>
	<path style="fill:#FFBD86;" d="M512.019,99.62c-1.199,66-62.199,111-128.8,110.4c-30-0.3-77.999-14.7-105-45.601   c-6-6.899-13.2-11.1-22.2-11.1V55.22c2.999-2.701,6.301-5.101,9.901-7.202c39.3-23.399,91.5,12.902,111,42.301   c9.899,12.299,13.799,29.7,32.699,29.7c13.5,0,26.4-10.8,26.4-24v-21c0-23.401-19.799-45-45-45v-30h24.901   c4.499,0,9.3,0.3,13.799,0.901C482.219,7.519,512.92,53.12,512.019,99.62z"/>
	<path style="fill:#895D3C;" d="M361.019,437.019c0,6.301-0.601,11.7-1.8,16.8h-206.4c-1.199-5.099-1.8-10.8-1.8-16.8   c0-23.401,8.101-45,21.301-62.701l19.199,7.202l1.8-28.2c17.701-13.2,39.3-21.301,62.701-21.301s45,8.101,62.701,21.301   l-7.202,19.199l28.2,1.8C352.919,392.019,361.019,413.618,361.019,437.019z"/>
	<path style="fill:#714C2F;" d="M339.719,374.318c13.2,17.701,21.301,39.3,21.301,62.701c0,6.301-0.601,11.7-1.8,16.8h-103.2v-121.8   c23.401,0,45,8.101,62.701,21.301l-7.202,19.199L339.719,374.318z"/>
	<path style="fill:#714C2F;" d="M359.219,453.819c-2.1,11.7-6.601,21.301-12.9,28.5c-24,29.7-71.4,29.7-90.3,29.7   s-66.301,0-90.601-29.7c-5.999-7.5-10.499-16.8-12.599-28.5c24.6-19.501,61.8-31.8,103.2-31.8S334.319,434.318,359.219,453.819z"/>
	<path style="fill:#523522;" d="M359.219,453.819c-2.1,11.7-6.601,21.301-12.9,28.5c-24,29.7-71.4,29.7-90.3,29.7v-90   C297.419,422.019,334.319,434.318,359.219,453.819z"/>
	<path style="fill:#32393F;" d="M221.625,381.414l-28.195-28.195c-8.057,6.037-15.174,13.154-21.211,21.211l28.195,28.195   L221.625,381.414z"/>
	<path style="fill:#24292D;" d="M311.625,402.625l28.195-28.195c-6.037-8.057-13.154-15.174-21.211-21.211l-28.195,28.195   L311.625,402.625z"/>
</g>















</svg>
