<?xml version="1.0" encoding="iso-8859-1"?>
<!-- Generator: Adobe Illustrator 19.0.0, SVG Export Plug-In . SVG Version: 6.00 Build 0)  -->
<svg xmlns="http://www.w3.org/2000/svg" xmlns:xlink="http://www.w3.org/1999/xlink" version="1.1" id="Layer_1" x="0px" y="0px" viewBox="0 0 512 512" style="enable-background:new 0 0 512 512;" xml:space="preserve" width="512" height="512">
<g>
	<g>
		<path style="fill:#FDBF00;" d="M36.108,238.7C14.29,222.136,0,195.628,0,166v-15h50.142c110.816,0,166.394,77.225,176.942,84.858    L107.23,256C81.861,260.216,56.036,253.828,36.108,238.7z"/>
	</g>
	<g>
		<path style="fill:#FFBD86;" d="M31.846,181c3.384,13.33,11.265,25.356,22.397,33.809c13.55,10.283,31.176,14.399,48.065,11.602    l59.385-9.961C101.88,173.436,40.962,182.17,31.846,181z"/>
	</g>
	<g>
		<path style="fill:#FF9100;" d="M404.77,256l-119.897-20.098C295.98,227.861,350.73,151,461.858,151H512v15    C512,222.123,460.597,265.305,404.77,256z"/>
	</g>
	<g>
		<path style="fill:#F6A96C;" d="M350.292,216.464l59.399,9.946c28.726,4.819,58.231-11.558,68.471-38.95l0,0    c0.791-2.124,1.45-4.277,2.007-6.46h-18.311C421.634,181,382.313,193.422,350.292,216.464z"/>
	</g>
	<path style="fill:#FDBF00;" d="M331,422.199V466c0,24.899-20.099,46-45,46h-60c-24.901,0-45-21.101-45-46v-43.801H331z"/>
	<path style="fill:#FF9100;" d="M331,422.199V466c0,24.899-20.099,46-45,46h-30v-89.801H331z"/>
	<path style="fill:#FFDA2D;" d="M396.7,241c-1.5,6.899-3.3,13.799-6.601,20.099l-18.3,73.2c-4.499,17.701-15.3,32.999-30.3,43.2   c4.2,16.8,1.201,34.2-9.3,48.6C320.799,442,303.1,451,283.599,451h-55.199c-19.501,0-37.2-9-48.6-24.901   c-10.501-14.399-13.5-31.8-9.3-48.6c-15-10.201-25.801-25.499-30.3-43.2l-18.3-73.2c-3.301-6.301-5.101-13.2-6.601-20.099l35.7-15   l-35.099-15c2.1-11.7,6.299-23.101,13.799-33.3C143.5,158.5,151,130.8,151,99.899V71.1l51-10.501L221.8,121H290.2l19.499-59.5   l51.301,9v29.399c0,30.901,7.5,58.601,21.301,77.802c7.5,10.199,11.699,21.599,13.799,33.3L361,226L396.7,241z"/>
	<path style="fill:#FDBF00;" d="M396.7,241c-1.5,6.899-3.3,13.799-6.601,20.099l-18.3,73.2c-4.499,17.701-15.3,32.999-30.3,43.2   c4.2,16.8,1.201,34.2-9.3,48.6C320.799,442,303.1,451,283.599,451H256V121h34.2l19.499-59.5l51.301,9v29.399   c0,30.901,7.5,58.601,21.301,77.802c7.5,10.199,11.699,21.599,13.799,33.3L361,226L396.7,241z"/>
	<path style="fill:#FDBF00;" d="M180.678,90c-24.814,0-45-20.186-45-45s20.186-45,45-45s45,20.186,45,45S205.492,90,180.678,90z"/>
	<path style="fill:#FF9100;" d="M330.253,90c-24.814,0-45-20.186-45-45s20.186-45,45-45s45,20.186,45,45S355.067,90,330.253,90z"/>
	<path style="fill:#8C4A37;" d="M181,211h-65.072c-1.862,9.922-2.402,19.999-0.529,30H181V211z"/>
	<path style="fill:#663325;" d="M396.072,211H331v30h65.601C398.474,230.999,397.934,220.922,396.072,211z"/>
	<rect x="211" y="361" style="fill:#8C4A37;" width="30" height="30"/>
	<rect x="271" y="361" style="fill:#663325;" width="30" height="30"/>
</g>















</svg>
