<?xml version="1.0" encoding="iso-8859-1"?>
<!-- Generator: Adobe Illustrator 19.0.0, SVG Export Plug-In . SVG Version: 6.00 Build 0)  -->
<svg xmlns="http://www.w3.org/2000/svg" xmlns:xlink="http://www.w3.org/1999/xlink" version="1.1" id="Layer_1" x="0px" y="0px" viewBox="0 0 512 512" style="enable-background:new 0 0 512 512;" xml:space="preserve" width="512" height="512">
<g>
	<path style="fill:#5BC980;" d="M30,346v62.754C12.563,414.952,0,431.435,0,451v15h76c24.853,0,45-20.147,45-45v-15v-60H30z"/>
	<path style="fill:#00AB5E;" d="M482,346v62.754c17.437,6.198,30,22.681,30,42.246v15h-76c-24.853,0-45-20.147-45-45v-15v-60H482z"/>
	<path style="fill:#895D3C;" d="M512,284.5v1.5c0,13.5-2.1,25.8-6.301,36.899l-70.899-8.699l55.899,34.799   c-17.999,21.601-48.1,36.899-89.799,45.901H111.099c-41.699-9.001-71.8-24.3-89.799-45.901L51,329.2l-44.7-6.301   C2.1,311.8,0,299.5,0,286v-1.8c0.3-9.3,1.5-18.9,3.6-29.101L72.7,132.1c6.899-7.2,13.799-14.399,21.599-21   c0.601-0.601,1.5-1.199,2.401-1.8l34.2,18.3L120.399,90.7c9.901-6.899,20.4-13.2,31.201-18.9c9.6-4.799,19.499-9,29.7-12.599   h149.099c10.201,3.6,20.4,7.8,30,12.9c10.801,5.4,21.301,11.7,31.201,18.6L373.9,146.8l41.4-37.5c0.901,0.601,1.8,1.199,2.701,2.1   c7.5,6.599,14.7,13.5,21.299,20.7L508.4,255.099C510.5,265.3,511.7,275.2,512,284.5z"/>
	<path style="fill:#714C2F;" d="M512,284.5v1.5c0,13.5-2.1,25.8-6.301,36.899l-70.899-8.699l55.899,34.799   c-17.999,21.601-48.1,36.899-89.799,45.901H256V59.2h74.399c10.201,3.6,20.4,7.8,30,12.9c10.801,5.4,21.301,11.7,31.201,18.6   L373.9,146.8l41.4-37.5c0.901,0.601,1.8,1.199,2.701,2.1c7.5,6.599,14.7,13.5,21.299,20.7L508.4,255.099   C510.5,265.3,511.7,275.2,512,284.5z"/>
	<path style="fill:#714C2F;" d="M251.049,247.621L120.412,90.85c-8.267,5.744-16.227,11.83-23.785,18.344L227.992,266.84   L251.049,247.621z"/>
	<path style="fill:#523522;" d="M284.008,266.84l131.364-157.646c-7.559-6.513-15.518-12.598-23.785-18.344L260.951,247.621   L284.008,266.84z"/>
	<path style="fill:#714C2F;" d="M202.094,239.213L6.158,322.762c3.461,9.631,8.683,18.241,15.185,26.122L213.9,266.781   L202.094,239.213z"/>
	<path style="fill:#523522;" d="M344.667,254.11l-11.807,27.568l157.797,67.205c6.502-7.881,11.724-16.49,15.185-26.122   L344.667,254.11z"/>
	<path style="fill:#7FE881;" d="M421,346c0,66.299-74.099,120-165,120S91,412.299,91,346c0-47.701,37.8-102.601,91.199-130.8   h147.601C383.2,243.699,421,298.299,421,346z"/>
	<path style="fill:#5BC980;" d="M421,346c0,66.299-74.099,120-165,120V215.2h73.801C383.2,243.699,421,298.299,421,346z"/>
	<rect x="181" y="286" style="fill:#575F64;" width="30" height="30"/>
	<rect x="301" y="286" style="fill:#32393F;" width="30" height="30"/>
	<path style="fill:#575F64;" d="M331,361c0,25.499-32.1,45-75,45s-75-19.501-75-45h30c0,3.6,15.901,15,45,15s45-11.4,45-15H331z"/>
	<path style="fill:#523522;" d="M463.129,248.427c13.872,6.813,29.936,8.959,45.158,6.718   c-8.571-40.276-33.543-85.148-68.925-123.062C427.921,145.351,421,162.492,421,181C421,209.901,437.143,235.741,463.129,248.427z"/>
	<path style="fill:#714C2F;" d="M43.667,250.331C71.821,238.671,91,211.454,91,181c0-18.142-6.632-35.526-18.267-49.025   c-35.416,37.916-60.418,82.813-69.007,123.109C17.298,257.062,30.807,255.634,43.667,250.331z"/>
	<path style="fill:#714C2F;" d="M330.399,59.2c0.3,15.599-3.3,30.899-12.299,43.799C303.999,123.699,280.901,136,256,136   c-26.4,0-50.4-13.5-64.2-36C184.3,87.4,181,73.599,181.3,59.2C204.699,50.799,229.9,46,256,46S307,50.799,330.399,59.2z"/>
	<path style="fill:#523522;" d="M256,136V46c26.1,0,51,4.799,74.399,13.2c0.3,15.599-3.3,30.899-12.299,43.799   C303.999,123.699,280.901,136,256,136z"/>
	<path style="fill:#32393F;" d="M301,361h30c0,25.499-32.1,45-75,45v-30C285.099,376,301,364.6,301,361z"/>
	<path style="fill:#5BC980;" d="M331,226c0,32.999-33.6,60-75,60s-75-27.001-75-60c0-3.6,0.601-7.2,1.199-10.8   C204.699,203.2,229.9,196,256,196c26.4,0,51.301,7.2,73.801,19.2C330.399,218.8,331,222.4,331,226z"/>
	<path style="fill:#00AB5E;" d="M256,286v-90c26.4,0,51.301,7.2,73.801,19.2c0.599,3.6,1.199,7.2,1.199,10.8   C331,258.999,297.4,286,256,286z"/>
</g>















</svg>
