<svg xmlns="http://www.w3.org/2000/svg" viewBox="0 0 416 490"><defs><style>.cls-1{fill:#f0bc5e;}</style></defs><title>Ресурс 4</title><g id="Слой_2" data-name="Слой 2"><g id="Слой_1-2" data-name="Слой 1"><path class="cls-1" d="M96,104.43a37.61,37.61,0,0,1,22.32-34.36l13.13-5.83a188.65,188.65,0,0,1,21.73-8l-21.62,0L114.46,56A21.85,21.85,0,0,1,96.27,22L110.94,0H86A54,54,0,0,0,58.2,100.25L77.79,112h19a37.33,37.33,0,0,1-.79-7.57Zm0,0" transform="translate(0 0)"/><path class="cls-1" d="M330,0h-25l14.68,22a21.85,21.85,0,0,1-18.3,34l-39.13.05a187.65,187.65,0,0,1,22.25,8.19l13.13,5.83A37.45,37.45,0,0,1,319.21,112h19l19.58-11.75A54,54,0,0,0,330,0Zm0,0" transform="translate(0 0)"/><path class="cls-1" d="M339.72,335.59a68.78,68.78,0,0,0,20.28-49,69.58,69.58,0,0,0-27.7-55.4l-7.5-5.62h-5.47a152.44,152.44,0,0,1-15.43,54.6l-38,76a64.73,64.73,0,0,1-115.78,0l-38-76a152.3,152.3,0,0,1-15.43-54.6H91.2l-7.5,5.62A69.6,69.6,0,0,0,56,286.62a68.8,68.8,0,0,0,20.28,49L77.69,337a64.84,64.84,0,0,0,20.54,78.67l8.52,6.38a52.17,52.17,0,0,0,36.86,34.09,146.74,146.74,0,0,1,52.69,25.08L208,490l11.69-8.78a146.86,146.86,0,0,1,52.7-25.08,52.17,52.17,0,0,0,36.86-34.09l8.52-6.38A64.81,64.81,0,0,0,338.3,337Zm0,0" transform="translate(0 0)"/><path d="M411.29,100.7A15.89,15.89,0,0,0,400,96h-.07l-72.72.35a45.59,45.59,0,0,0-26.28-33.63l-13.13-5.83a196.48,196.48,0,0,0-159.59,0l-13.13,5.83A45.58,45.58,0,0,0,88.79,96.39L16.07,96H16A16,16,0,0,0,0,112a64,64,0,0,0,64,64H92.14a159.91,159.91,0,0,0,12.81,107.78l38,76a72.72,72.72,0,0,0,130.09,0l38-76A159.86,159.86,0,0,0,323.86,176H352a64,64,0,0,0,64-64,15.88,15.88,0,0,0-4.71-11.34ZM198.37,288l-3.7-16h26.66l-3.69,16ZM148.84,184a45.75,45.75,0,0,1-37-18.84c.5-1.48,1-3,1.59-4.43l46.65,13.33L160,184ZM225,256H191l-3.7-16H228.7ZM256,174l46.58-13.31c.55,1.46,1.08,2.95,1.59,4.43a45.74,45.74,0,0,1-37,18.84H255.88Zm38.47-96.66a29.55,29.55,0,0,1,9.09,47.75l-8.35-16.72-14.31,7.16L296,146l-42,12L234.14,58A179.62,179.62,0,0,1,281.3,71.56ZM217.5,56.33,240,168.79v22.3l-.21.91H216v16h20.1l-3.7,16h-48.8l-3.7-16H200V192H176.21l-.21-.91v-22.3L198.5,56.32a181.5,181.5,0,0,1,19,0ZM121.57,77.39l13.13-5.83A179.7,179.7,0,0,1,181.85,58l-20,99.92L120,146l15.18-30.37-14.31-7.16-8.35,16.71a29.55,29.55,0,0,1,9.08-47.75Zm-32.8,35A45,45,0,0,0,94.72,128H18.79A47.54,47.54,0,0,1,16,112ZM64,160A47.8,47.8,0,0,1,28.3,144h74.89a161.21,161.21,0,0,0-6.46,16Zm40,52a144.45,144.45,0,0,1,2.9-28.41A61.71,61.71,0,0,0,148.84,200h13L182,288H160a24,24,0,0,0-23.84,22.43l-16.9-33.8A145.28,145.28,0,0,1,104,212ZM258.73,352.65a56.71,56.71,0,0,1-101.45,0L152,342.1V312a8,8,0,0,1,8-8h96a8,8,0,0,1,8,8v30.1Zm38-76-16.9,33.8A24,24,0,0,0,256,288H234.05l20.3-88h12.79a61.71,61.71,0,0,0,41.95-16.41,143.3,143.3,0,0,1-12.36,93ZM352,160H319.27a161.21,161.21,0,0,0-6.46-16H387.7A47.8,47.8,0,0,1,352,160Zm45.17-32H321.28a45,45,0,0,0,5.94-15.61L400,112a47.54,47.54,0,0,1-2.79,16Zm0,0" transform="translate(0 0)"/><rect x="232" y="328" width="16" height="16"/><rect x="168" y="328" width="16" height="16"/></g></g></svg>