<svg xmlns="http://www.w3.org/2000/svg" viewBox="0 0 496 440"><defs><style>.cls-1{fill:#f0bc5e;}</style></defs><title>Ресурс 2</title><g id="Слой_2" data-name="Слой 2"><g id="Слой_1-2" data-name="Слой 1"><path class="cls-1" d="M216,261v75.46A39.58,39.58,0,0,1,243.6,348l4.4,4.4,4.4-4.4A39.6,39.6,0,0,1,280,336.44V261a353.77,353.77,0,0,1,37.17-157.43l2.12-4.24A92.9,92.9,0,0,0,274.72,88H221.28a92.88,92.88,0,0,0-44.57,11.32l2.12,4.24A353.77,353.77,0,0,1,216,261Zm0,0"/><rect x="200" y="360" width="16" height="16"/><rect x="280" y="360" width="16" height="16"/><path d="M144,192a32,32,0,1,0,64,0v-8H144Zm45.85,8a16,16,0,0,1-27.7,0Zm0,0"/><path d="M288,192a32,32,0,1,0,64,0v-8H288Zm45.85,8a16,16,0,0,1-27.7,0Zm0,0"/><path d="M459.43,21.53,440,10V24.14a107,107,0,0,1-15.26,55.07A18.11,18.11,0,0,1,392.57,77l-7.16-16.7A110.17,110.17,0,0,0,353,17.8,81.47,81.47,0,0,0,302.32,0,80.56,80.56,0,0,0,248,21,80.56,80.56,0,0,0,193.68,0,81.47,81.47,0,0,0,143,17.8a110.17,110.17,0,0,0-32.37,42.53L103.43,77a18.1,18.1,0,0,1-32.17,2.18A107.15,107.15,0,0,1,56,24V9.87L36.57,21.53a75.32,75.32,0,0,0-26.64,102l1.64,2.86a82.51,82.51,0,0,0,28.82,29.46l2.93,26.36A55.93,55.93,0,0,0,99,232h21.93l10.5,89.21a101.67,101.67,0,0,0,36.82,66.69A56,56,0,0,0,224,440h48a56,56,0,0,0,55.8-52.11,101.67,101.67,0,0,0,36.82-66.69L375.11,232H397a55.94,55.94,0,0,0,55.66-49.82l2.93-26.36a82.56,82.56,0,0,0,28.82-29.46l1.64-2.86a75.34,75.34,0,0,0-26.64-102Zm-434,96.89-1.64-2.86a59.32,59.32,0,0,1,17-77.66,122.86,122.86,0,0,0,11.69,40,50.76,50.76,0,0,0-17.7,24.59l-2.35,7,15.18,5.06,2.34-7A34.89,34.89,0,0,1,60.7,91.79a34.47,34.47,0,0,0,9,7.6A76.06,76.06,0,0,0,64,128H80a60.08,60.08,0,0,1,5.18-24.1c.53,0,1.06.1,1.6.1a34.09,34.09,0,0,0,9.71-1.43,84.19,84.19,0,0,0,8.34,29l14.31-7.16A68.12,68.12,0,0,1,112,94.11V92.77a34.09,34.09,0,0,0,6.14-9.44l7.16-16.7A94.14,94.14,0,0,1,153,30.29a65.05,65.05,0,0,1,85.25,3.38v0A58.8,58.8,0,0,0,235.51,80H221.28a101.34,101.34,0,0,0-89.5,54l-14.17,8.5a66.63,66.63,0,0,1-92.15-24.08ZM83.33,168a82.59,82.59,0,0,0,39.55-10.26A100.61,100.61,0,0,0,120,181.28V184H59.95c-.25-1.19-.6-2.34-.75-3.59l-1.86-16.81a82.26,82.26,0,0,0,26,4.39ZM67,200h53v16H99A39.88,39.88,0,0,1,67,200ZM184,384v-8a31.6,31.6,0,0,1,53.95-22.34L248,363.71l10.06-10.06A31.6,31.6,0,0,1,312,376v8a40,40,0,0,1-.81,8H280a11.4,11.4,0,0,1-8-3.31L267.31,384C257,373.68,239,373.68,228.69,384L224,388.69a11.4,11.4,0,0,1-8,3.31H184.81a40,40,0,0,1-.81-8Zm88,40H224a39.82,39.82,0,0,1-31.79-16H216a27.11,27.11,0,0,0,19.31-8l4.69-4.69a11.72,11.72,0,0,1,16,0l4.69,4.69A27.13,27.13,0,0,0,280,408h23.79A39.82,39.82,0,0,1,272,424Zm88-205.47a84.27,84.27,0,0,1-.59,10l-10.69,90.84a85.65,85.65,0,0,1-21.65,47.37A47.59,47.59,0,0,0,248,341.13a47.59,47.59,0,0,0-79.07,25.57,85.57,85.57,0,0,1-21.65-47.37L136.6,228.5a81,81,0,0,1-.6-10V181.28A85.38,85.38,0,0,1,221.28,96h53.44A85.38,85.38,0,0,1,360,181.28ZM397,216H376V200h53A39.88,39.88,0,0,1,397,216Zm39.76-35.59c-.14,1.23-.5,2.39-.75,3.59H376v-2.72a101,101,0,0,0-2.87-23.54,80.45,80.45,0,0,0,65.53,5.87Zm35.38-64.86-1.64,2.86a66.65,66.65,0,0,1-92.16,24.09L364.21,134a101.31,101.31,0,0,0-89.5-54H252.95l-.43-.84a42.87,42.87,0,0,1,0-38.32l2-4.11,1.64-1.64a65.21,65.21,0,0,1,86.85-4.81,94.21,94.21,0,0,1,27.66,36.34l7.15,16.69A34.25,34.25,0,0,0,384,92.77v1.34a68.1,68.1,0,0,1-7.16,30.31l14.31,7.16a84.24,84.24,0,0,0,8.34-29,34.32,34.32,0,0,0,9.72,1.41c.54,0,1.07-.08,1.59-.1A60,60,0,0,1,416,128h16a76.14,76.14,0,0,0-5.73-28.62,34.34,34.34,0,0,0,9-7.6,34.84,34.84,0,0,1,10.77,15.71l2.34,7,15.18-5.06-2.35-7a50.76,50.76,0,0,0-17.7-24.59,123.07,123.07,0,0,0,11.68-40,59.32,59.32,0,0,1,17,77.66Zm0,0"/></g></g></svg>