<svg xmlns="http://www.w3.org/2000/svg" viewBox="0 0 496 440"><defs><style>.cls-1{fill:#f0bc5e;}</style></defs><title>Ресурс 23</title><g id="Слой_2" data-name="Слой 2"><g id="Слой_1-2" data-name="Слой 1"><path d="M152,120a24,24,0,1,0,24,24,24,24,0,0,0-24-24Zm0,32a8,8,0,1,1,8-8,8,8,0,0,1-8,8Zm0,0"/><path d="M481.34,31.6l-1.18-1.77A67,67,0,0,0,377.06,19.62a127.84,127.84,0,0,1-27.48,20.79,175.39,175.39,0,0,0-203.17,0,127.84,127.84,0,0,1-27.48-20.79A67,67,0,0,0,15.83,29.83l-1.17,1.76a87.25,87.25,0,0,0,0,96.81,70.82,70.82,0,0,0,59,31.59A176.3,176.3,0,0,0,72,184v40H88V184A159.44,159.44,0,0,1,138.88,67.31l13.34,8.49A137.07,137.07,0,0,1,216,192h16A153,153,0,0,0,160.81,62.3l-9.09-5.79a158.79,158.79,0,0,1,192.56,0l-9.09,5.79A153,153,0,0,0,264,192h16A137.06,137.06,0,0,1,343.79,75.8l13.34-8.49A159.46,159.46,0,0,1,408,184v40h16V184a176.3,176.3,0,0,0-1.68-24,70.82,70.82,0,0,0,59-31.59,87.25,87.25,0,0,0,0-96.8ZM76.64,144h-3A54.85,54.85,0,0,1,28,119.53,71.06,71.06,0,0,1,16,80c0-1.86.27-3.68.41-5.52a50.85,50.85,0,0,1,75.22-3.54,144.39,144.39,0,0,0,12.92,11.29A175.09,175.09,0,0,0,76.64,144Zm37.74-74.37a129,129,0,0,1-11.45-10A66.63,66.63,0,0,0,23.56,48.27,71.75,71.75,0,0,1,28,40.46l1.17-1.76a51,51,0,0,1,78.48-7.77A144.13,144.13,0,0,0,132.88,51a177.84,177.84,0,0,0-18.5,18.59ZM363.12,51a143.79,143.79,0,0,0,25.25-20.11,51,51,0,0,1,78.47,7.77L468,40.46a72.24,72.24,0,0,1,4.42,7.8,66.65,66.65,0,0,0-79.38,11.36,129.13,129.13,0,0,1-11.45,10A177.14,177.14,0,0,0,363.12,51ZM468,119.53A54.85,54.85,0,0,1,422.31,144h-3a175.09,175.09,0,0,0-27.9-61.77,143.29,143.29,0,0,0,12.92-11.29,50.85,50.85,0,0,1,75.22,3.54c.14,1.84.41,3.66.41,5.52a71.06,71.06,0,0,1-12,39.53Zm0,0"/><path d="M344,120a24,24,0,1,0,24,24,24,24,0,0,0-24-24Zm0,32a8,8,0,1,1,8-8,8,8,0,0,1-8,8Zm0,0"/><path class="cls-1" d="M360,200a120.36,120.36,0,0,0-51.6,11.66,79.78,79.78,0,0,0-120.8,0A120,120,0,1,0,195.79,424c3.1-1.9,6.21-3.57,9.32-5.14-26.92-19.35-34.89-54.22-36.66-64.1A56,56,0,0,1,184,248.57l27.12-.12A18.75,18.75,0,0,1,226.79,240H269.2a18.76,18.76,0,0,1,15.45,8.12L312,248a56,56,0,0,1,15.66,106.13c-1.56,9-9.32,45-36.78,64.73,3.11,1.57,6.22,3.24,9.32,5.14A120,120,0,1,0,360,200Zm0,0"/><path d="M368,303.43a64.29,64.29,0,0,0-54.86-63.36l-2.27,15.84a48,48,0,1,1-54.23,55,36.41,36.41,0,0,0,22.45-16.5l13.09-21.82a26.78,26.78,0,0,0-23-40.57H226.79a26.79,26.79,0,0,0-23,40.59l13.09,21.82a36.42,36.42,0,0,0,22.54,16.52,48,48,0,1,1-54.31-54.43l-2.27-15.84a64,64,0,0,0-21.43,119.56C166.13,381.05,185,440,248,440c63.7,0,82.27-60.22,86.71-80.45A64,64,0,0,0,368,303.43ZM230.63,286.17l-13.09-21.82A10.69,10.69,0,0,1,216,258.8,10.81,10.81,0,0,1,226.79,248h42.41a10.8,10.8,0,0,1,9.26,16.34l-13.09,21.82a20.26,20.26,0,0,1-34.74,0Zm17.54,48.47a64.43,64.43,0,0,0,23.9,24.18L265.44,392H230.56L224,359.33a64.52,64.52,0,0,0,24.15-24.7Zm59.11,53.45C293.87,411.91,273.93,424,248,424c-44.34,0-61.85-35.73-68.41-57.23A64.36,64.36,0,0,0,192,368a63.55,63.55,0,0,0,17-2.36L217.44,408h61.12l8.58-42.89a62.61,62.61,0,0,0,29.37,1.08,110.55,110.55,0,0,1-9.22,21.89Zm0,0"/></g></g></svg>