<svg xmlns="http://www.w3.org/2000/svg" viewBox="0 0 440.48 496"><defs><style>.cls-1{fill:#f0bc5e;}</style></defs><title>Ресурс 21</title><g id="Слой_2" data-name="Слой 2"><g id="Слой_1-2" data-name="Слой 1"><path class="cls-1" d="M371.6,125.74A117.44,117.44,0,0,0,362,111.86a152.36,152.36,0,0,0-35.22-31.41,31.91,31.91,0,1,0,44.87,45.29Zm0,0" transform="translate(0)"/><path class="cls-1" d="M87.54,101.89a31.9,31.9,0,1,0,52.53-35,152.16,152.16,0,0,0-52.53,35Zm0,0" transform="translate(0)"/><path d="M204.24,273.69h-16v-40a102.94,102.94,0,0,0-10.88-46.15L174,189.79a61.83,61.83,0,0,1-67.5,0L89.14,178.22l7.13-10.69a52.84,52.84,0,0,1,87.93,0,118.91,118.91,0,0,1,20,66.16Zm-92.79-99.83,3.92,2.62a45.59,45.59,0,0,0,49.75,0l3.92-2.62a36.85,36.85,0,0,0-57.59,0Zm0,0" transform="translate(0)"/><path d="M252.24,273.69h-16v-40a118.91,118.91,0,0,1,20-66.16,52.85,52.85,0,0,1,87.93,0l7.13,10.69L334,189.78a61.83,61.83,0,0,1-67.5,0l-3.37-2.25a103,103,0,0,0-10.88,46.16Zm19.21-99.83,3.92,2.62a45.59,45.59,0,0,0,49.75,0l3.92-2.62a36.85,36.85,0,0,0-57.59,0Zm0,0" transform="translate(0)"/><rect x="180.24" y="352" width="16" height="32"/><path d="M265.66,448H174.82l-34-85L155.67,357l30,75h69.17l30-75L299.67,363Zm0,0" transform="translate(0)"/><rect x="244.24" y="352" width="16" height="32"/><path class="cls-1" d="M196,338.28l-13.09-21.82A18.79,18.79,0,0,1,199,288h21.21q-5,0-10-8a56,56,0,1,0-6.77,72h16.81A28.25,28.25,0,0,1,196,338.28Zm0,0" transform="translate(0)"/><path class="cls-1" d="M276.24,256a56.23,56.23,0,0,0-46,24q-5,8-10,8h21.21a18.79,18.79,0,0,1,16.11,28.46l-13.09,21.82A28.26,28.26,0,0,1,220.24,352h16.82a56,56,0,1,0,39.18-96Zm0,0" transform="translate(0)"/><path d="M220.24,360a36.42,36.42,0,0,1-31.09-17.6l-13.09-21.82A26.78,26.78,0,0,1,199,280h42.42a26.79,26.79,0,0,1,23,40.59L251.33,342.4A36.43,36.43,0,0,1,220.24,360ZM199,296a10.79,10.79,0,0,0-9.25,16.34l13.09,21.82a20.26,20.26,0,0,0,34.75,0l13.09-21.82a10.69,10.69,0,0,0,1.54-5.54A10.81,10.81,0,0,0,241.45,296Zm0,0" transform="translate(0)"/><path class="cls-1" d="M229.37,56a32,32,0,1,0,62.87,8s0-.1,0-.14A152,152,0,0,0,244.05,56Zm0,0" transform="translate(0)"/><path d="M393,331a255,255,0,0,1,39,19.77l8.48-13.56a270.89,270.89,0,0,0-44.67-22.33c.17-2.12.43-4.25.43-6.4a82,82,0,0,0-11.68-42.17l-8.16-13.61a123,123,0,0,0,13.88-104.83A79.61,79.61,0,0,0,422.34,50l.17-.21c-.11-.09-.23-.16-.34-.25a80,80,0,0,0-148.4,1.3A160.73,160.73,0,0,0,244.06,48H196.43a160.64,160.64,0,0,0-29.71,2.81,80,80,0,0,0-148.4-1.3c-.11.09-.23.16-.34.25l.17.21a79.58,79.58,0,0,0,32.07,97.9A123,123,0,0,0,64.08,252.71l-8.16,13.61a82,82,0,0,0-11.68,42.17c0,2.16.27,4.27.43,6.4A271.57,271.57,0,0,0,0,337.21l8.48,13.56a255.08,255.08,0,0,1,39-19.77A81.92,81.92,0,0,0,74,371.45a310,310,0,0,0-43.44,46.78l-.73,1,12.8,9.6.73-1a294.37,294.37,0,0,1,44.26-47,104.29,104.29,0,0,1,44.18,50.07l16.85,40.45A39.88,39.88,0,0,0,185.57,496h69.34a39.88,39.88,0,0,0,36.92-24.62l16.86-40.45a104.21,104.21,0,0,1,44.17-50.07,295,295,0,0,1,44.26,47l.72,1,12.8-9.59-.73-1a310.56,310.56,0,0,0-43.44-46.78A82,82,0,0,0,393,331Zm-8.6-198.23a123.86,123.86,0,0,0-16.29-26,160.39,160.39,0,0,0-43.78-37.23A64,64,0,0,1,372.24,48a63.19,63.19,0,0,1,36.58,11.51,63.76,63.76,0,0,1-24.39,73.27ZM348.24,16a63.8,63.8,0,0,1,45.43,19,79.41,79.41,0,0,0-83.8,27.14,159.34,159.34,0,0,0-20.23-7.52A64.19,64.19,0,0,1,348.24,16Zm-256,0a64.2,64.2,0,0,1,58.61,38.6,159.41,159.41,0,0,0-20.23,7.52A79.41,79.41,0,0,0,46.82,35,63.79,63.79,0,0,1,92.24,16Zm-64,64a63.67,63.67,0,0,1,3.43-20.49A63.18,63.18,0,0,1,68.24,48a63.92,63.92,0,0,1,47.87,21.57A160.52,160.52,0,0,0,72.34,106.8a124.06,124.06,0,0,0-16.29,26A63.67,63.67,0,0,1,28.24,80ZM287.49,320.69,281,335.31a294.92,294.92,0,0,1,58.68,34.9,120.2,120.2,0,0,0-45.75,54.57l-16.86,40.45A23.94,23.94,0,0,1,254.9,480H185.57a24,24,0,0,1-22.16-14.78l-16.85-40.45a120.24,120.24,0,0,0-45.75-54.57,294.47,294.47,0,0,1,58.68-34.9L153,320.69A311.15,311.15,0,0,0,86.38,361,66,66,0,0,1,62.5,325.41,254.74,254.74,0,0,1,143.71,312h4.53V296h-4.53A270.84,270.84,0,0,0,60.3,309.31c0-.28-.06-.54-.06-.82a65.94,65.94,0,0,1,9.4-33.93l4.83-8A124.37,124.37,0,0,0,89,281l6.15,5.13,10.24-12.3-6.15-5.13a108.31,108.31,0,0,1-14.49-151.8A143.8,143.8,0,0,1,196.41,64h47.64a143.82,143.82,0,0,1,111.7,52.93,108.31,108.31,0,0,1-14.49,151.8l-6.15,5.13,10.24,12.3L351.5,281A123.6,123.6,0,0,0,366,266.5l4.83,8a66,66,0,0,1,9.4,33.94c0,.28-.05.54-.05.82A270.85,270.85,0,0,0,296.77,296h-4.53v16h4.53A254.82,254.82,0,0,1,378,325.41,66,66,0,0,1,354.1,361a311.35,311.35,0,0,0-66.62-40.34Zm0,0" transform="translate(0)"/><rect x="196.24" y="80" width="16" height="16"/><rect x="348.24" y="144" width="16" height="16"/><rect x="228.24" y="128" width="16" height="16"/><rect x="84.24" y="128" width="16" height="16"/><rect x="156.24" y="112" width="16" height="16"/></g></g></svg>