<svg xmlns="http://www.w3.org/2000/svg" viewBox="0 0 448 496"><defs><style>.cls-1{fill:#f0bc5e;}</style></defs><title>Ресурс 20</title><g id="Слой_2" data-name="Слой 2"><g id="Слой_1-2" data-name="Слой 1"><path class="cls-1" d="M192,256.5V288h.85a64.63,64.63,0,0,1,62.29,0H256V256.5A235.25,235.25,0,0,1,286.94,140l1.21-2.11A124.64,124.64,0,0,0,224,120h0a124.62,124.62,0,0,0-64.14,17.86l1.21,2.11A235.29,235.29,0,0,1,192,256.5Zm0,0"/><path d="M152,216a24,24,0,1,0,24,24,24,24,0,0,0-24-24Zm0,32a8,8,0,1,1,8-8,8,8,0,0,1-8,8Zm0,0"/><path d="M408.13,0A40,40,0,0,0,389,4.86l-4.89,2.67A360.36,360.36,0,0,0,261.59,117.6a128.94,128.94,0,0,0-75.19,0A360.36,360.36,0,0,0,63.85,7.53L59,4.86a39.88,39.88,0,0,0-59,35v60.47A138.34,138.34,0,0,0,83.84,227.5l4,1.71-5.61,26.18A463.06,463.06,0,0,0,72,352a72,72,0,0,0,69.94,71.9,73.49,73.49,0,0,0,7.33,8.69,52.35,52.35,0,0,0,19.55,12.32C173.24,464.41,189.23,496,224,496s50.76-31.59,55.18-51.09a52.41,52.41,0,0,0,19.55-12.32,73.49,73.49,0,0,0,7.34-8.69A72,72,0,0,0,376,352a463.06,463.06,0,0,0-10.23-96.62l-5.61-26.18,4-1.71A138.33,138.33,0,0,0,448,100.34V39.87A39.92,39.92,0,0,0,408.13,0ZM391.8,21.59l4.89-2.68a23.88,23.88,0,0,1,35.3,21V51.41A32.83,32.83,0,0,0,389.7,45a351,351,0,0,0-95.1,87.54,132.76,132.76,0,0,0-17.39-9.33A344.48,344.48,0,0,1,391.8,21.59ZM39.87,16A24,24,0,0,1,51.3,18.91l4.89,2.68A344.45,344.45,0,0,1,170.78,123.21a133.14,133.14,0,0,0-17.38,9.32A350.37,350.37,0,0,0,58.28,45,32.82,32.82,0,0,0,16,51.41V39.87A23.9,23.9,0,0,1,39.87,16ZM26.54,150A121.54,121.54,0,0,1,16,100.34V89.64l9.18-23a16.89,16.89,0,0,1,24.63-8.07,334.63,334.63,0,0,1,90.59,83.32,132.34,132.34,0,0,0-15.58,14.66l-5,5.57a132.86,132.86,0,0,0-28.27,51.29l-1.45-.61A122,122,0,0,1,26.54,150ZM224,480c-23.1,0-33.41-19.79-37.59-32h.07a52.5,52.5,0,0,0,29.19-8.83l8.33-5.55,8.32,5.54A52.46,52.46,0,0,0,261.51,448h.07c-4.18,12.21-14.49,32-37.59,32Zm-8-67.31-13.37-13.38A9,9,0,0,1,209,384H239a9,9,0,0,1,6.34,15.31L232,412.69a11,11,0,0,1-6.24,2.87L224,414.38l-1.76,1.18a11,11,0,0,1-6.24-2.87Zm71.41,8.58a36.64,36.64,0,0,1-46.22,4.57l-.07,0a28.18,28.18,0,0,0,2.19-1.8l13.38-13.37A25,25,0,0,0,239,368H209a25,25,0,0,0-17.66,42.63L204.69,424a26.47,26.47,0,0,0,2.19,1.8l-.07,0c-14.17,9.45-34.17,7.48-46.22-4.57a56.22,56.22,0,0,1-16.59-40,77.62,77.62,0,0,1,16.26-47.4l18.41-23.66a57.44,57.44,0,0,1,90.67,0l18.41,23.66A77.64,77.64,0,0,1,304,381.23a56.25,56.25,0,0,1-16.59,40Zm27.88-14.42A72.53,72.53,0,0,0,320,381.23,93.66,93.66,0,0,0,300.37,324L282,300.34a73.43,73.43,0,0,0-115.92,0L147.63,324A93.66,93.66,0,0,0,128,381.23a72.53,72.53,0,0,0,4.71,25.62A56.1,56.1,0,0,1,88,352a446.5,446.5,0,0,1,9.87-93.26l7.06-32.92a116.88,116.88,0,0,1,26.89-53.08l5-5.57a116.7,116.7,0,0,1,174.45,0l5,5.57a116.87,116.87,0,0,1,26.89,53.08l7.06,32.91A446.22,446.22,0,0,1,360,352a56.1,56.1,0,0,1-44.71,54.85ZM421.46,150a122,122,0,0,1-63.61,62.76l-1.44.61a132.92,132.92,0,0,0-28.27-51.29l-5-5.57a132.55,132.55,0,0,0-15.59-14.66,334.3,334.3,0,0,1,90.59-83.3,16.89,16.89,0,0,1,24.64,8.07l9.18,23v10.7A121.54,121.54,0,0,1,421.46,150Zm0,0"/><path d="M296,216a24,24,0,1,0,24,24,24,24,0,0,0-24-24Zm0,32a8,8,0,1,1,8-8,8,8,0,0,1-8,8Zm0,0"/></g></g></svg>