<svg xmlns="http://www.w3.org/2000/svg" xmlns:xlink="http://www.w3.org/1999/xlink" viewBox="0 0 464 432"><defs><style>.cls-1{fill:none;}.cls-2{clip-path:url(#clip-path);}.cls-3{fill:#f0bc5e;}</style><clipPath id="clip-path" transform="translate(0 0)"><rect class="cls-1" width="464" height="432"/></clipPath></defs><title>Ресурс 19</title><g id="Слой_2" data-name="Слой 2"><g id="Слой_1-2" data-name="Слой 1"><g class="cls-2"><path class="cls-3" d="M61.27,200a261,261,0,0,1,51.32-89.82,158.65,158.65,0,0,1,54.56-40.31A101.12,101.12,0,0,0,104,8,155.94,155.94,0,0,0,54.7,0H32l8,16H33.89A75.72,75.72,0,0,0,0,24L24,48A81.94,81.94,0,0,0,0,105.94a105,105,0,0,0,44,85.48L56,200Zm0,0" transform="translate(0 0)"/><path class="cls-3" d="M464,24a75.72,75.72,0,0,0-33.89-8H424l8-16H409.3A155.94,155.94,0,0,0,360,8a101.11,101.11,0,0,0-63.15,61.88,158.49,158.49,0,0,1,54.56,40.31A261,261,0,0,1,402.73,200H408l12-8.57a105.08,105.08,0,0,0,44-85.49A82,82,0,0,0,440,48Zm0,0" transform="translate(0 0)"/></g><path class="cls-3" d="M232,168a56,56,0,0,0-56,56v87.64a32.36,32.36,0,0,0,46.83,28.94L232,336l9.17,4.59A32.36,32.36,0,0,0,288,311.64V224a56,56,0,0,0-56-56Zm0,0" transform="translate(0 0)"/><path d="M280,312V296a32,32,0,0,0-32,32h16a16,16,0,0,1,16-16Zm0,0" transform="translate(0 0)"/><path d="M200,328h16a32,32,0,0,0-32-32v16a16,16,0,0,1,16,16Zm0,0" transform="translate(0 0)"/><path d="M406.05,171.89a81.21,81.21,0,0,0,33.95-66,57.57,57.57,0,0,0-17-41L411.72,76.28A41.68,41.68,0,0,1,424,105.94a65.18,65.18,0,0,1-27.24,52.93l-2,1.41a269.34,269.34,0,0,0-37.34-55.38,166.15,166.15,0,0,0-23-21.61,61.49,61.49,0,0,1,38.17-37.36c2.51-.84,5.05-1.59,7.6-2.25l-4-15.49c-2.9.76-5.79,1.61-8.64,2.56a77.5,77.5,0,0,0-46.52,43.09,166.34,166.34,0,0,0-178.12,0A77.52,77.52,0,0,0,96.43,30.77c-2.86-1-5.75-1.81-8.65-2.56l-4,15.49c2.55.66,5.09,1.41,7.61,2.26A61.48,61.48,0,0,1,129.52,83.3a166.73,166.73,0,0,0-23,21.62,268.89,268.89,0,0,0-37.34,55.37l-2-1.42A65.17,65.17,0,0,1,40,105.94,41.68,41.68,0,0,1,52.28,76.28L41,65a57.58,57.58,0,0,0-17,41,81.19,81.19,0,0,0,33.94,65.95L62.27,175A269,269,0,0,0,40,282.09v50l77.41,55.61A165.41,165.41,0,0,0,230.27,432h3.47a165.41,165.41,0,0,0,112.86-44.28L424,332.11v-50A268.83,268.83,0,0,0,401.73,175Zm1.94,152L336.85,375l-.8.65A149.42,149.42,0,0,1,233.73,416h-3.47a149.43,149.43,0,0,1-102.32-40.34L56,323.89V282.08a253,253,0,0,1,62.61-166.63,150.67,150.67,0,0,1,226.78,0A253,253,0,0,1,408,282.09Zm0,0" transform="translate(0 0)"/><path d="M312.95,306.49a105,105,0,0,1-42.07,65.06c-22.83,16.3-54.93,16.3-77.77,0A105,105,0,0,1,151,306.49l-7.21-36.05-15.69,3.14,7.21,36.06a120.88,120.88,0,0,0,48.46,74.93,82.87,82.87,0,0,0,96.36,0,120.92,120.92,0,0,0,48.46-74.93l7.21-36.06-15.69-3.14Zm0,0" transform="translate(0 0)"/><path d="M152,192a24,24,0,1,0-24-24,24,24,0,0,0,24,24Zm0-32a8,8,0,1,1-8,8,8,8,0,0,1,8-8Zm0,0" transform="translate(0 0)"/><path d="M312,144a24,24,0,1,0,24,24,24,24,0,0,0-24-24Zm0,32a8,8,0,1,1,8-8,8,8,0,0,1-8,8Zm0,0" transform="translate(0 0)"/></g></g></svg>