<svg xmlns="http://www.w3.org/2000/svg" viewBox="0 0 492 418.77"><defs><style>.cls-1{fill:#f0bc5e;}</style></defs><title>Ресурс 12</title><g id="Слой_2" data-name="Слой 2"><g id="Слой_1-2" data-name="Слой 1"><path class="cls-1" d="M404.3,226.44l-39.36-45a38.29,38.29,0,0,0-28.85-13.1h-19a38.56,38.56,0,0,0-17.14,4.05l-23.29,11.64,1.32,8.28-16,71.91a23.89,23.89,0,0,1,22.65,16.46A57,57,0,0,1,329,312a103.62,103.62,0,0,0,70.78-30.44l2.82-2.82a38.32,38.32,0,0,0,1.74-52.34Zm-64.76.2a19.28,19.28,0,0,1-27.28,0l-10.33-10.33L312.26,206a19.29,19.29,0,0,1,27.28,0l10.33,10.33Zm0,0" transform="translate(0 -0.59)"/><path class="cls-1" d="M214,192.34l1.31-8.28-23.29-11.64a38.52,38.52,0,0,0-17.14-4.05h-19a38.32,38.32,0,0,0-28.85,13.1l-39.36,45a38.34,38.34,0,0,0,1.74,52.34l2.82,2.82A103.67,103.67,0,0,0,163,312.05a57,57,0,0,1,44.32-31.34A23.89,23.89,0,0,1,230,264.25Zm-34.3,34.3a19.28,19.28,0,0,1-27.28,0l-10.33-10.33L152.46,206a19.29,19.29,0,0,1,27.28,0l10.33,10.33Zm0,0" transform="translate(0 -0.59)"/><path d="M448.21,259.3,492,233l-21.93-16.45a109.59,109.59,0,0,1-29.51-33.44l-17.2-30.1A354.58,354.58,0,0,0,421.58,6.84L420.19.59h-6.41a57.44,57.44,0,0,0-33.62,10.78l-57.46,41C310.41,44.7,284.89,32.55,246,32.55S181.59,44.7,169.3,52.41l-57.46-41A57.44,57.44,0,0,0,78.22.59H71.81L70.42,6.85a354.49,354.49,0,0,0-1.78,146.21l-17.2,30.1a109.47,109.47,0,0,1-29.51,33.44L0,233,43.79,259.3A100.65,100.65,0,0,1,9.87,297.55L.48,303.82,21.9,319.88a250.89,250.89,0,0,0,112.17,47.05l-3.35,9.17h27.09a108.56,108.56,0,0,1,76.69,31.77L246,419.36l11.5-11.49a108.47,108.47,0,0,1,76.69-31.77h27.09l-3.34-9.17A250.88,250.88,0,0,0,470.1,319.88l21.42-16.06-9.39-6.26a100.65,100.65,0,0,1-33.92-38.25Zm-201-210.74,22.66,143.53-14.25,64.17H236.43l-14.25-64.17L244.83,48.56c.4,0,.77,0,1.17,0s.77,0,1.17,0ZM234.89,345.18,246,337.77l11.11,7.41c1.1.74,2.28,1.33,3.44,1.95l-1.1,3.31a14.18,14.18,0,0,1-26.91,0l-1.11-3.31a38.84,38.84,0,0,0,3.45-1.94Zm11.11-25a24.09,24.09,0,0,1-19.18-9.58l-9.59-12.79A16,16,0,0,1,230,272.24h32a16,16,0,0,1,12.79,25.57l-9.59,12.78A24.07,24.07,0,0,1,246,320.18ZM139.63,351.64A234.91,234.91,0,0,1,31.49,307.1l-3.81-2.85A116.78,116.78,0,0,0,58.3,266l6.41-12.81L28.6,231.55l2.92-2.18a125.16,125.16,0,0,0,33.79-38.29l17.94-31.39a133.8,133.8,0,0,0,38.57-12.93l-7.31-14.2a118.16,118.16,0,0,1-31.35,10.79A338.3,338.3,0,0,1,80.37,44l74.69,54.32a118.09,118.09,0,0,1-25.57,25.09l9.34,13a134.21,134.21,0,0,0,33.31-34.53L177,94.53,83,26.14c.53-3,1-6.06,1.6-9.08a41.69,41.69,0,0,1,18,7.31L201.41,95l9.29-13-27-19.32c9.49-5,24.43-10.9,44.86-13.18l-22.6,143.1,14.52,65.3a31.91,31.91,0,0,0-18.63,15.65A65.16,65.16,0,0,0,152.93,315Zm194.55,8.48a124.44,124.44,0,0,0-88,36.45l-.19.19-.19-.19a124.44,124.44,0,0,0-88-36.45h-4.28l14.41-39.62a49.16,49.16,0,0,1,30.33-29.6,32.1,32.1,0,0,0,6.17,16.49l9.59,12.8A39.94,39.94,0,0,0,227,331.25l-.95.63a25.93,25.93,0,0,1-32.11-3.17l-6.18-6.18-11.3,11.3,6.18,6.18a41.2,41.2,0,0,0,29.3,12.13,41.61,41.61,0,0,0,4.26-.31l1.22,3.66a30.16,30.16,0,0,0,57.22,0l1.22-3.66a41.61,41.61,0,0,0,4.26.31A41.13,41.13,0,0,0,309.38,340l6.18-6.18-11.3-11.3-6.19,6.18A25.88,25.88,0,0,1,266,331.87l-.95-.63A39.75,39.75,0,0,0,278,320.18l9.58-12.79a32.11,32.11,0,0,0,6.18-16.49A49.16,49.16,0,0,1,324,320.5l14.41,39.62Zm126.34-53a235,235,0,0,1-108.14,44.54L339.07,315a65.16,65.16,0,0,0-48.86-41.5,31.88,31.88,0,0,0-18.63-15.65l14.52-65.3L263.49,49.49c20.43,2.28,35.37,8.2,44.85,13.18L281.3,82l9.29,13,98.86-70.61a41.7,41.7,0,0,1,18-7.31c.61,3,1.07,6.05,1.6,9.08L315,94.52l4.88,7.3a134,134,0,0,0,33.31,34.53l9.34-13A118.23,118.23,0,0,1,336.94,98.3L411.63,44a337.93,337.93,0,0,1-2.8,99.37,118.18,118.18,0,0,1-31.35-10.79l-7.31,14.2a133.84,133.84,0,0,0,38.57,12.93l17.93,31.39a125.16,125.16,0,0,0,33.8,38.29l2.92,2.18-36.11,21.67L433.7,266a116.68,116.68,0,0,0,30.62,38.22Zm0,0" transform="translate(0 -0.59)"/><path d="M201.37,216.31l-16-16c-10.3-10.3-28.29-10.3-38.58,0l-16,16,16,16a27.29,27.29,0,0,0,38.58,0ZM174.09,221a11.55,11.55,0,0,1-16,0l-4.68-4.68,4.68-4.68a11.56,11.56,0,0,1,16,0l4.68,4.68Zm0,0" transform="translate(0 -0.59)"/><path d="M306.61,200.33l-16,16,16,16a27.29,27.29,0,0,0,38.58,0l16-16-16-16c-10.31-10.3-28.29-10.3-38.58,0ZM333.89,221a11.55,11.55,0,0,1-16,0l-4.68-4.68,4.68-4.68a11.56,11.56,0,0,1,16,0l4.68,4.68Zm0,0" transform="translate(0 -0.59)"/></g></g></svg>