<svg xmlns="http://www.w3.org/2000/svg" viewBox="0 0 496 440"><defs><style>.cls-1{fill:#f0bc5e;}</style></defs><title>Ресурс 11</title><g id="Слой_2" data-name="Слой 2"><g id="Слой_1-2" data-name="Слой 1"><path class="cls-1" d="M218,164.33,224.76,232c0,.23.09.41.14.65a35.17,35.17,0,0,1,46.2,0c0-.23.09-.42.14-.65L278,164.33a39.81,39.81,0,0,1,14.18-26.75l36.11-30.09a108.6,108.6,0,0,0-160.61,0l36.11,30.08A39.78,39.78,0,0,1,218,164.33Zm0,0"/><path class="cls-1" d="M248,364a37.22,37.22,0,0,1-26.14-10.83L201,332.28A30.63,30.63,0,0,1,244.28,289l3.72,3.72,3.72-3.72A30.63,30.63,0,0,1,295,332.28l-20.89,20.89A37.22,37.22,0,0,1,248,364Zm0,0"/><rect x="176" y="184" width="16" height="16"/><path d="M449.11,183.17A117.76,117.76,0,0,0,496,89.39a100.42,100.42,0,0,0-23.23-64.17,70.11,70.11,0,0,0-122.6,31.13l-.36,1.8A61.12,61.12,0,0,1,327,94.82a116.58,116.58,0,0,0-157.95,0,61.19,61.19,0,0,1-22.84-36.67l-.36-1.8A70.11,70.11,0,0,0,23.22,25.22,100.44,100.44,0,0,0,0,89.39a117.76,117.76,0,0,0,46.89,93.78A84.7,84.7,0,0,0,97.39,200h8A142,142,0,0,0,96,250.64v7.72A141.52,141.52,0,0,0,105.79,310a304.1,304.1,0,0,0-47,13.38l-13.62,5.11,5.63,15,13.62-5.11a289.21,289.21,0,0,1,48.26-13.44,141.75,141.75,0,0,0,19,27.45,244.73,244.73,0,0,0-57.87,50.47l12.3,10.25A228.44,228.44,0,0,1,143.38,364a141.21,141.21,0,0,0,35.56,23.21l4,4.85a44.17,44.17,0,0,0,18.18,13c4.56,13.62,18.8,35,46.83,35s42.27-21.36,46.83-35a44,44,0,0,0,18.18-13l4-4.85A141.39,141.39,0,0,0,352.61,364a228.3,228.3,0,0,1,57.23,49.11l12.3-10.25a244.57,244.57,0,0,0-57.87-50.47,142.09,142.09,0,0,0,19-27.45,288.45,288.45,0,0,1,48.26,13.44l13.62,5.11,5.63-15-13.62-5.11a305.18,305.18,0,0,0-47-13.37,141.36,141.36,0,0,0,9.8-51.66v-7.72A142.19,142.19,0,0,0,390.59,200h8a84.69,84.69,0,0,0,50.5-16.83ZM365.5,61.29l.36-1.8A54,54,0,0,1,459,33.93a69.89,69.89,0,0,0-84.88,54.42l-.36,1.8a61.16,61.16,0,0,1-22.39,36.34l-1.35-2.43a117.21,117.21,0,0,0-12-17.55A77.09,77.09,0,0,0,365.5,61.29ZM77.09,16a54.25,54.25,0,0,1,53.06,43.5l.36,1.8A77,77,0,0,0,158,106.52a116.62,116.62,0,0,0-12,17.55l-1.35,2.43a61.16,61.16,0,0,1-22.39-36.34l-.36-1.8A69.89,69.89,0,0,0,37,33.93,53.9,53.9,0,0,1,77.09,16Zm20.3,168a68.59,68.59,0,0,1-40.9-13.63A101.71,101.71,0,0,1,16,89.39a84.22,84.22,0,0,1,6.22-31.56A53.9,53.9,0,0,1,106.14,91.5l.36,1.8a77,77,0,0,0,30.26,47.29l-22.93,41.25c-.39.71-.73,1.45-1.11,2.17H97.39Zm32.18,138.32c7.62-1,15.27-1.66,23-2a71.12,71.12,0,0,0-.55,8.38,72.35,72.35,0,0,0,1,11.86c-2.37,1.17-4.77,2.31-7.11,3.57a126.4,126.4,0,0,1-16.33-21.81ZM248,424c-15.07,0-23.52-8.9-28-16.3a43.76,43.76,0,0,0,28-12.39,43.76,43.76,0,0,0,28,12.39c-4.44,7.39-12.89,16.3-28,16.3Zm31-32a28.08,28.08,0,0,1-20-8.27l-11-11-11,11a28.26,28.26,0,0,1-41.69-1.9l-14.21-17a56.6,56.6,0,0,1-9-15.41c3.07-1.3,6.12-2.64,9.25-3.82l5.5-2.06-5.62-15-5.5,2.06c-2.46.92-4.84,2-7.26,3-.14-1.63-.43-3.24-.43-4.88a56.44,56.44,0,0,1,.73-8.69H184V304H173.7a56.34,56.34,0,0,1,8.77-13l44.77-49.75a27.94,27.94,0,0,1,41.52,0L313.53,291a56.85,56.85,0,0,1,8.77,13H312v16h15.27a56.44,56.44,0,0,1,.73,8.69c0,1.64-.29,3.25-.43,4.87-2.42-1-4.8-2.07-7.26-3l-5.5-2.06-5.62,15,5.5,2.06c3.13,1.18,6.18,2.51,9.25,3.82a56.14,56.14,0,0,1-9,15.4l-14.21,17.05A28.15,28.15,0,0,1,279,392Zm71.08-47.87c-2.34-1.26-4.73-2.4-7.11-3.57a68,68,0,0,0,.46-20.25c7.7.35,15.36,1,23,2a126.86,126.86,0,0,1-16.34,21.81Zm-10.42-39.92a72.09,72.09,0,0,0-14.27-23.92l-44.77-49.75a43.93,43.93,0,0,0-65.29,0l-44.78,49.75a72.36,72.36,0,0,0-14.26,23.92,303.45,303.45,0,0,0-34.35,3,125.41,125.41,0,0,1-10-48.84v-7.72a126,126,0,0,1,15.82-61l32.11-57.78a100.77,100.77,0,0,1,176.17,0l32.1,57.78a126.05,126.05,0,0,1,15.81,61v7.72a125.48,125.48,0,0,1-10,48.85,305.39,305.39,0,0,0-34.36-3Zm42.49-122.37-22.93-41.26A77,77,0,0,0,389.5,93.29l.36-1.8a53.9,53.9,0,0,1,83.91-33.67A84.23,84.23,0,0,1,480,89.39a101.71,101.71,0,0,1-40.49,81A68.58,68.58,0,0,1,398.61,184H383.28c-.38-.72-.71-1.46-1.11-2.17Zm0,0"/><rect x="304" y="184" width="16" height="16"/><rect x="216" y="304" width="16" height="16"/><rect x="264" y="304" width="16" height="16"/></g></g></svg>