<svg xmlns="http://www.w3.org/2000/svg" viewBox="0 0 439.11 490"><defs><style>.cls-1{fill:#f0bc5e;}</style></defs><title>Ресурс 8</title><g id="Слой_2" data-name="Слой 2"><g id="Слой_1-2" data-name="Слой 1"><path d="M137.18,57.94a327.92,327.92,0,0,1-62.9-40.68A75.79,75.79,0,0,0,26.18,0h-8V8a438.49,438.49,0,0,1-4.5,62.52l-1,7a109,109,0,0,0,1.05,37.31,110.4,110.4,0,0,0,20.13,44.56l10.22,13.48,12.75-9.67L46.6,149.69a94.31,94.31,0,0,1-17.19-38.07,93.07,93.07,0,0,1-.9-31.85l1-7c1.27-8.76,2.23-17.59,3-26.45A340.18,340.18,0,0,0,97,88.36l13.57,6.79,7.16-14.31L104.11,74A323.89,323.89,0,0,1,41.67,33.21a76.64,76.64,0,0,0-8.12-5.8c.16-3.63.48-7.25.55-10.88a59.81,59.81,0,0,1,30,13.08,342.68,342.68,0,0,0,66,42.68L144,79.18l7.1-14.34Zm0,0" transform="translate(0 0)"/><path d="M426.43,77.48l-1-6.95A440.45,440.45,0,0,1,420.93,8V0h-8a75.8,75.8,0,0,0-48.1,17.27,328.26,328.26,0,0,1-62.9,40.68L288,64.82l7.1,14.34L309,72.29a342.68,342.68,0,0,0,66-42.68,59.8,59.8,0,0,1,30-13.08c.07,3.63.39,7.25.54,10.88a75.67,75.67,0,0,0-8.11,5.81A323.53,323.53,0,0,1,335,74l-13.57,6.79,7.16,14.31,13.57-6.79a340.06,340.06,0,0,0,64.45-42c.75,8.86,1.72,17.7,3,26.46l1,6.94a93.24,93.24,0,0,1-.9,31.86,94.42,94.42,0,0,1-17.18,38.06l-10.22,13.48L395,172.82l10.23-13.49a110.59,110.59,0,0,0,20.13-44.55,109.28,109.28,0,0,0,1-37.31Zm0,0" transform="translate(0 0)"/><path class="cls-1" d="M439.1,325.24l-6.91-27.61a143.15,143.15,0,0,0-16.17-39,108.31,108.31,0,0,1-14.91-45.68l-.81-8.89A162.71,162.71,0,0,0,264.73,58.15a86.35,86.35,0,0,0-45.19,5.21,86.08,86.08,0,0,0-45.18-5.2A162.68,162.68,0,0,0,38.79,204L38,212.9a108.53,108.53,0,0,1-14.91,45.69,143.59,143.59,0,0,0-16.17,39L0,325.24l36.29-14.52A144.29,144.29,0,0,0,27.55,360v14.95l24.07-16a102.94,102.94,0,0,0,17.27,53.53l7.65,11.47,7.25-14.5a216.63,216.63,0,0,0,34.1,44.26l10,10,7.35-29.41,1.39,1.86a66.91,66.91,0,0,0,37.22,24.72,51.82,51.82,0,0,1,18.59,8.85L219.55,490l27.11-20.33a51.64,51.64,0,0,1,18.58-8.85,66.85,66.85,0,0,0,37.22-24.71l1.4-1.87,7.35,29.41,10-10a217.18,217.18,0,0,0,34.11-44.26l7.25,14.5,7.65-11.47a103,103,0,0,0,17.27-53.53l24.07,16V360a144.36,144.36,0,0,0-8.73-49.28ZM91.55,176l16-16c12.14,11.67,33.78,10.24,56,8l-6.41,12.82a34.68,34.68,0,0,1-59.88,3.73Zm212.1,209.64-9,6.41a42.45,42.45,0,0,1-19.21,7.5c0,.16.07.29.1.44,0,0-8,32-56,32s-56-32-56-32c0-.15.07-.28.11-.43a42.59,42.59,0,0,1-19.22-7.5l-9-6.41a85.73,85.73,0,0,1-10.34-130.83l49-48.28a23.47,23.47,0,0,0,5.4-14.55l0,0a155.63,155.63,0,0,1,16,68.73V296h48V260.73a155.61,155.61,0,0,1,16-68.73l0,0a23.48,23.48,0,0,0,5.4,14.55l49,48.28a85.73,85.73,0,0,1-10.34,130.83Zm38.2-201.09A34.68,34.68,0,0,1,282,180.82L275.55,168c29.91,2.62,51,1.07,56-8l16,16Zm0,0" transform="translate(0 0)"/><path d="M362.21,148.44l-13.31-8.88A45.8,45.8,0,0,1,310.71,160H283a31.45,31.45,0,0,0-31.34,29.92,164.56,164.56,0,0,0-16.16,70.81V288h-32V260.73a164.52,164.52,0,0,0-16.16-70.81A31.45,31.45,0,0,0,156.05,160H128.39a45.78,45.78,0,0,1-38.18-20.44l-13.31,8.87a61.94,61.94,0,0,0,15.17,15.73L81.26,175l9.34,14a42.67,42.67,0,0,0,73.69-4.58l2.16-4.32a15.51,15.51,0,0,1,2,20.75l-49,48.28a93.73,93.73,0,0,0,11.31,143l9,6.42a50.26,50.26,0,0,0,17.64,7.9C161.8,416.57,176.56,440,219.55,440s57.75-23.43,62.13-33.53a50.31,50.31,0,0,0,17.64-7.9l9-6.42a93.74,93.74,0,0,0,11.31-143L271.14,201.4a15.37,15.37,0,0,1,1.5-21.31l2.16,4.32A42.69,42.69,0,0,0,348.5,189l9.34-14L347,164.18a61.89,61.89,0,0,0,15.17-15.73ZM126.11,192a26.65,26.65,0,0,1-22.2-11.88l-2.06-3.1,4.94-4.95a61.81,61.81,0,0,0,21.6,3.93H150.6l-.62,1.25A26.51,26.51,0,0,1,126.11,192Zm93.44,168a25.18,25.18,0,0,1-19.75-9.5L183,329.5A15.7,15.7,0,0,1,195.24,304h48.62a15.7,15.7,0,0,1,12.26,25.5l-16.83,21A25.17,25.17,0,0,1,219.55,360ZM140.1,379.14a77.75,77.75,0,0,1-9.38-118.63l48.67-48a148.43,148.43,0,0,1,8.16,48.24v28.32A31.6,31.6,0,0,0,170.5,339.5l16.82,21a41.17,41.17,0,0,0,13.54,11l-.68,1.35a34.63,34.63,0,0,1-51.1,12.7ZM219.55,424c-24.57,0-36.92-9.1-42.94-16.55A50.28,50.28,0,0,0,214.49,380l2.09-4.18c1,.07,2,.17,3,.17s2-.1,3-.17l2.09,4.18a50.28,50.28,0,0,0,37.88,27.43c-6,7.45-18.36,16.55-42.94,16.55Zm88.83-163.5A77.75,77.75,0,0,1,299,379.13l-9,6.42a34.62,34.62,0,0,1-51.09-12.7l-.68-1.35a41.09,41.09,0,0,0,13.54-11l16.83-21a31.6,31.6,0,0,0-17.07-50.43V260.73a148.41,148.41,0,0,1,8.14-48.2ZM337.26,177l-2.07,3.1a26.68,26.68,0,0,1-46.06-2.87L288.5,176H310.7a61.83,61.83,0,0,0,21.61-3.93Zm0,0" transform="translate(0 0)"/><path d="M249.78,112a68.7,68.7,0,0,1-30.23-7.05,69,69,0,0,1-51.81,3.54L153,103.59l5.06-15.17,14.73,4.9a52.78,52.78,0,0,0,39.88-2.83l6.86-3.43,6.86,3.43a52.76,52.76,0,0,0,39.88,2.83L281,88.41l5.06,15.17-14.73,4.9A67.76,67.76,0,0,1,249.78,112Zm0,0" transform="translate(0 0)"/><path d="M249.78,144a68.7,68.7,0,0,1-30.23-7.05,69,69,0,0,1-51.81,3.54L153,135.59l5.06-15.17,14.73,4.9a52.78,52.78,0,0,0,39.88-2.83l6.86-3.42,6.86,3.43a52.79,52.79,0,0,0,39.88,2.83L281,120.41l5.06,15.17-14.73,4.9A67.76,67.76,0,0,1,249.78,144Zm0,0" transform="translate(0 0)"/><path d="M105,239.59a115.59,115.59,0,0,1-45-27.82L45.89,197.65l11.31-11.31,14.11,14.11a99.64,99.64,0,0,0,38.77,24Zm0,0" transform="translate(0 0)"/><path d="M89,271.59a115.59,115.59,0,0,1-45-27.82l-6.11-6.11,11.31-11.31,6.11,6.11a99.64,99.64,0,0,0,38.77,24Zm0,0" transform="translate(0 0)"/><path d="M334.08,239.59,329,224.41a99.78,99.78,0,0,0,38.77-24l14.11-14.11,11.31,11.31L379.1,211.77a115.6,115.6,0,0,1-45,27.82Zm0,0" transform="translate(0 0)"/><path d="M350.08,271.59,345,256.41a99.78,99.78,0,0,0,38.77-24l6.11-6.11,11.31,11.31-6.11,6.11a115.6,115.6,0,0,1-45,27.82Zm0,0" transform="translate(0 0)"/></g></g></svg>