<svg xmlns="http://www.w3.org/2000/svg" xmlns:xlink="http://www.w3.org/1999/xlink" viewBox="0 0 416 496"><defs><style>.cls-1{fill:none;}.cls-2{clip-path:url(#clip-path);}</style><clipPath id="clip-path"><rect class="cls-1" width="416" height="496"/></clipPath></defs><title>Ресурс 1</title><g id="Слой_2" data-name="Слой 2"><g id="Слой_1-2" data-name="Слой 1"><rect x="144" y="144" width="16" height="16"/><rect x="256" y="144" width="16" height="16"/><path d="M121.38,171.1A156.58,156.58,0,0,1,128,216.22a156.53,156.53,0,0,1-11.23,58.32l-5.53,13.83,4.35,8.67c1.35,2.71,2.87,5.32,4.47,7.89L121.52,321a86.84,86.84,0,0,0,173,0L296,304.93c1.6-2.56,3.12-5.18,4.47-7.89l4.34-8.67-5.53-13.83a156.94,156.94,0,0,1-4.61-103.44l16-53.5a102.67,102.67,0,0,0,13.66-6.87L315.7,97.26C315.34,97.49,279,120,208,120S100.66,97.49,100.31,97.26l-8.63,13.47a103.2,103.2,0,0,0,13.66,6.87ZM208,384a70.45,70.45,0,0,1-69.57-57.47A96.64,96.64,0,0,0,159,340.41a109.66,109.66,0,0,0,98.09,0,96.81,96.81,0,0,0,20.52-13.88A70.45,70.45,0,0,1,208,384Zm71.3-217.5a173,173,0,0,0,5.08,114l2.86,7.16-1.12,2.25a81.43,81.43,0,0,1-36.22,36.23,95.25,95.25,0,0,1-83.78,0,81.39,81.39,0,0,1-36.22-36.23l-1.12-2.25,2.86-7.15A172.25,172.25,0,0,0,144,216.21a172.85,172.85,0,0,0-7.3-49.71l-12.63-42.1a255.36,255.36,0,0,0,45.19,9.36A407.67,407.67,0,0,1,184,242.24v2.46c-18.89,7.72-32,24.2-32,43.3h16c0-17.65,17.95-32,40-32s40,14.35,40,32h16c0-19.1-13.11-35.57-32-43.3v-2.46a407.63,407.63,0,0,1,14.74-108.47,256.09,256.09,0,0,0,45.19-9.36Zm-49.51-31.24A423.84,423.84,0,0,0,216,240.55a58.81,58.81,0,0,0-16.06,0,423.84,423.84,0,0,0-13.75-105.29c6.92.44,14.11.74,21.78.74s14.86-.3,21.79-.74Zm0,0"/><rect x="216" y="280" width="16" height="16"/><g class="cls-2"><rect x="184" y="280" width="16" height="16"/><path d="M370.25,366.86a143.62,143.62,0,0,0,20.32-26.26,145.44,145.44,0,0,0,19.5-92.45,310.45,310.45,0,0,0-61.41-150l-1.89-2.46a82.28,82.28,0,0,0,17.5-36.34l.26-1.33a83,83,0,0,0-.86-36.29L362.73,18A23.72,23.72,0,0,0,329.11,2.5L287.38,23.36l-14-4.66a93.88,93.88,0,0,1-12.26-5.08l-4.07-2c-30.29-15.15-67.8-15.15-98.09,0l-4.07,2a92.78,92.78,0,0,1-12.26,5.08l-14,4.66L86.9,2.5A23.73,23.73,0,0,0,53.27,18l-.95,3.78A83,83,0,0,0,51.46,58l.26,1.34a82.25,82.25,0,0,0,17.5,36.34l-1.89,2.46a310.42,310.42,0,0,0-61.41,150A143.78,143.78,0,0,0,45.74,366.87,183.12,183.12,0,0,0,0,488v8H416v-8a183.11,183.11,0,0,0-45.75-121.14Zm-21.39-312-.26,1.34a66.34,66.34,0,0,1-11.73,26.5L321.78,63l24.51-42.89a6.65,6.65,0,0,1,.93,1.75l.95,3.78a66.91,66.91,0,0,1,.7,29.27ZM300.23,34.83l26.91-13.46L311.23,49.22ZM104.77,49.21,88.86,21.37l26.92,13.46Zm-37.36,7-.26-1.34a67,67,0,0,1,.69-29.27l.95-3.79a6.73,6.73,0,0,1,.93-1.74L94.22,63,79.14,82.75A66.51,66.51,0,0,1,67.41,56.25ZM21.8,250.14A294.53,294.53,0,0,1,80,107.9l52.82-69.09,14.82-4.94A111.36,111.36,0,0,0,162,27.93l4.07-2a95.25,95.25,0,0,1,83.78,0l4.07,2a111.59,111.59,0,0,0,14.36,5.95l14.82,4.94L336,107.9a294.42,294.42,0,0,1,58.23,142.24,128.77,128.77,0,0,1-79.95,135.54L269.72,403.5A274.24,274.24,0,0,0,208,438a274.16,274.16,0,0,0-61.71-34.5l-44.54-17.82a128.78,128.78,0,0,1-80-135.54ZM16.18,480A167,167,0,0,1,57.5,377.69a144.44,144.44,0,0,0,38.31,22.85l44.54,17.82a258.22,258.22,0,0,1,59,33.16L208,458l8.64-6.49a258.48,258.48,0,0,1,59-33.16l44.54-17.82a144.88,144.88,0,0,0,38.31-22.85A167.07,167.07,0,0,1,399.82,480H16.18Zm0,0"/></g></g></g></svg>