<svg xmlns="http://www.w3.org/2000/svg" viewBox="0 0 499 495.89"><title>Ресурс 3</title><g id="Слой_2" data-name="Слой 2"><g id="Слой_1-2" data-name="Слой 1"><path d="M217.51,368a24,24,0,1,0,24,24,24,24,0,0,0-24-24Zm0,32a8,8,0,1,1,8-8,8,8,0,0,1-8,8Zm0,0" transform="translate(0 -0.11)"/><path d="M145.53,264.05a40,40,0,0,0,40-40v-8h-80v8a40,40,0,0,0,40,40Zm22.63-32a24,24,0,0,1-45.25,0Zm0,0" transform="translate(0 -0.11)"/><path d="M281.5,368a24,24,0,1,0,24,24,24,24,0,0,0-24-24Zm0,32a8,8,0,1,1,8-8,8,8,0,0,1-8,8Zm0,0" transform="translate(0 -0.11)"/><path d="M457.86,189.77a80,80,0,0,0,29.54-44.48L499,98.84l-12.81-4.27a263.51,263.51,0,0,1-34.32-14.21c-25.85-12.94-58.81-10-81.93,7.39l-6.82,5.12a128.85,128.85,0,0,0-10.2-9A99.48,99.48,0,0,0,324.1,23.41,79.08,79.08,0,0,0,267.84.11H231.16A79.08,79.08,0,0,0,174.9,23.42a99.51,99.51,0,0,0-28.81,60.43,127,127,0,0,0-10.21,9l-6.82-5.12C105.94,70.41,73,67.43,47.13,80.37A262.27,262.27,0,0,1,12.81,94.58L0,98.85,11.6,145.3a79.81,79.81,0,0,0,58.06,58.06l12.52,3.13c-1.31,3.15-2.62,6.31-4,9.41L71.1,231.83a156.26,156.26,0,0,0-7.44,107L39.14,302,25.85,341.85a82.79,82.79,0,0,0,32.62,95.06l1.3.86A108.19,108.19,0,0,0,120,456a109.38,109.38,0,0,0,52.45-13.6,82.19,82.19,0,0,0,154.12,0,108.26,108.26,0,0,0,112.67-4.62l1.31-.87a82.78,82.78,0,0,0,32.61-95.05L459.87,302l-24.52,36.79a156.21,156.21,0,0,0-7.46-107l-7.08-15.93c-1.38-3.11-2.69-6.26-4-9.41l12.53-3.13a79.36,79.36,0,0,0,28.53-13.57Zm-13.14-95.1c4.77,2.38,9.66,4.56,14.58,6.67A174,174,0,0,0,392,135.46a130.84,130.84,0,0,0-18.12-30.67l5.66-4.25c18.4-13.8,44.63-16.15,65.18-5.87Zm-107.23-.35a83.75,83.75,0,0,1-5.28,29.12A317.91,317.91,0,0,0,291.32,20.6,63.5,63.5,0,0,1,312.8,34.73a83.73,83.73,0,0,1,24.68,59.59Zm-51.1,110.3c.28,1.13.39,2.3.64,3.44H212c.25-1.14.36-2.31.64-3.44l8.79-35.17a120.9,120.9,0,0,0,14.95,14.36l13.15,10.5,13.15-10.51a119.8,119.8,0,0,0,15-14.36Zm35.1,185.28a46.68,46.68,0,0,1-9.27,27.82A35.93,35.93,0,0,1,283.62,432a35.48,35.48,0,0,1-25.28-10.48l-8.84-8.83-8.84,8.83A35.46,35.46,0,0,1,215.39,432a35.92,35.92,0,0,1-28.6-14.3,46.68,46.68,0,0,1-9.27-27.82V374.4A46.41,46.41,0,0,1,223.88,328h51.25a46.41,46.41,0,0,1,46.36,46.36ZM267.74,312H231.27l-8-24h52.46Zm21.75-82.17c0,3.42-.22,6.82-.56,10.19H257.5v16h28.6c-.58,2.25-1.21,4.51-1.94,6.73l-3.09,9.27H217.94l-3.09-9.27c-.74-2.23-1.36-4.47-1.94-6.73H241.5v-16H210.07c-.34-3.38-.56-6.77-.56-10.19,0-1.94.25-3.87.36-5.81h79.27c.11,1.94.35,3.87.35,5.81ZM231.16,16.1h5.4l-1,2A172,172,0,0,0,217.51,94.6a169.86,169.86,0,0,0,10,57.05,104,104,0,0,1-18.15-41.13L206,93.69l-22.52,28.14A301.65,301.65,0,0,1,229.72,16.18c.48,0,1-.08,1.45-.08Zm40.37,135.5a169.82,169.82,0,0,0,10-55.39V94.6h-16V96A154.29,154.29,0,0,1,253,155.7l-3.46,8.07L246,155.7a154.21,154.21,0,0,1-12.53-61.1,155.89,155.89,0,0,1,16-68.52,154.49,154.49,0,0,1,15.39,54.73l15.93-1.43a170.46,170.46,0,0,0-17.39-61.31l-1-2h5.4c.49,0,1,.07,1.45.08a301.73,301.73,0,0,1,46.23,105.63L293,93.68l-3.37,16.84a104.05,104.05,0,0,1-18.11,41.09ZM186.2,34.73A63.73,63.73,0,0,1,207.68,20.6,317.79,317.79,0,0,0,166.8,123.43a83.86,83.86,0,0,1,19.4-88.7ZM54.29,94.67c20.55-10.28,46.77-7.93,65.18,5.87l5.66,4.25A130.69,130.69,0,0,0,107,135.46a174,174,0,0,0-67.3-34.12c4.92-2.11,9.81-4.29,14.58-6.67Zm19.26,93.15a63.8,63.8,0,0,1-46.43-46.41l-6.93-27.76a157.56,157.56,0,0,1,81.12,38l-2.91,9.71c-3,10.12-6.46,20.16-10.21,30.08Zm12.19,50.49,7.08-15.93A474.3,474.3,0,0,0,113.71,166l4-13.31a114.32,114.32,0,0,1,28.46-47.54,99.79,99.79,0,0,0,6.53,26.4l14.49,36.24,30.75-38.44a120.12,120.12,0,0,0,11.14,23.48l-12,47.89a120.12,120.12,0,0,0,2.58,67.13l15,45a62.38,62.38,0,0,0-53.14,61.59V384H146.79A95.92,95.92,0,0,1,89,365.25l-8.23-24.72a141.44,141.44,0,0,1,4.93-102.22ZM68.63,424.46l-1.3-.86A66.78,66.78,0,0,1,41,346.92L44,338.09l7.17,10.74A114.91,114.91,0,0,0,146.79,400h15.59a62.74,62.74,0,0,0,9.54,24A93.19,93.19,0,0,1,120,440a92.25,92.25,0,0,1-51.36-15.55ZM249.5,480A66.51,66.51,0,0,1,189,440.68a51.41,51.41,0,0,0,60.46-5.5,51.41,51.41,0,0,0,60.46,5.5A66.52,66.52,0,0,1,249.5,480ZM455,338.09l2.95,8.83a66.78,66.78,0,0,1-26.31,76.68l-1.31.87A92.28,92.28,0,0,1,379,440a93.24,93.24,0,0,1-51.92-16,62.55,62.55,0,0,0,9.53-24h15.59a114.91,114.91,0,0,0,95.65-51.19Zm-29.58-42.3a141.55,141.55,0,0,1-7.25,44.74L410,365.25A95.94,95.94,0,0,1,352.23,384H337.48V374.4a62.4,62.4,0,0,0-53.15-61.6l15-45a120,120,0,0,0,2.59-67.1l-12-47.89a120.26,120.26,0,0,0,11.14-23.48l30.74,38.44,14.49-36.24a99.64,99.64,0,0,0,6.54-26.4A114.23,114.23,0,0,1,381.3,152.7l4,13.31a477.81,477.81,0,0,0,20.89,56.38l7.07,15.93a140.37,140.37,0,0,1,12.21,57.47Zm-14.63-104.3c-3.74-9.92-7.17-20-10.21-30.08l-2.91-9.71a157.53,157.53,0,0,1,81.12-38l-6.93,27.76A64,64,0,0,1,448.27,177a63.26,63.26,0,0,1-22.8,10.85Zm0,0" transform="translate(0 -0.11)"/><path d="M313.49,224.06a40,40,0,1,0,80,0v-8h-80Zm62.62,8a24,24,0,0,1-45.25,0Zm0,0" transform="translate(0 -0.11)"/></g></g></svg>