<svg xmlns="http://www.w3.org/2000/svg" viewBox="0 0 496 496"><title>Ресурс 28</title><g id="Слой_2" data-name="Слой 2"><g id="Слой_1-2" data-name="Слой 1"><rect x="304" y="272" width="16" height="16"/><rect x="184" y="272" width="16" height="16"/><path d="M478.33,40H477a17.67,17.67,0,0,0-14.37,7.4L440.1,78.9a128.89,128.89,0,0,1-33.44,32.38A4.42,4.42,0,0,1,400,107.4a4.29,4.29,0,0,1,.61-2.21l2.62-4.37a227.3,227.3,0,0,0,28.08-72.63,33.61,33.61,0,0,0,.69-6.85V17.67a17.67,17.67,0,0,0-33.86-7.08l-28.42,65a431.61,431.61,0,0,1-61,99.82,127.4,127.4,0,0,0-121.34,0,431.61,431.61,0,0,1-61-99.82l-28.42-65A17.67,17.67,0,0,0,64,17.67v3.67a33.79,33.79,0,0,0,.68,6.82,227.34,227.34,0,0,0,28.09,72.65l2.62,4.38a4.61,4.61,0,0,1,.61,2.52,4.42,4.42,0,0,1-6.66,3.56A128.89,128.89,0,0,1,55.9,78.9l-22.5-31.5A17.69,17.69,0,0,0,19,40H17.67A17.7,17.7,0,0,0,0,57.67,35,35,0,0,0,3.67,73.24L7,79.8A453.32,453.32,0,0,0,46,144L28,168a20,20,0,0,0,16,32h.82a20,20,0,0,0,9.92-2.64L103,169.81A14.13,14.13,0,0,1,120.39,173l28.45,34.14L72,190v16.09c0,.64.11,1.25.13,1.89H72v35.5A44.49,44.49,0,0,0,116.5,288h23.59a128.19,128.19,0,0,0,12.85,31.75,227.44,227.44,0,0,1,23.19,57.71l8.12,32.47.11,0c-.16,1.81-.36,3.6-.36,5.43v4.49a48.08,48.08,0,0,0,8.11,26.77,39,39,0,0,0,9.75,10.08c5,16.61,18.76,39.34,46.14,39.34s41.15-22.73,46.14-39.34a39.22,39.22,0,0,0,9.75-10.08A48.13,48.13,0,0,0,312,419.81v-4.49c0-1.82-.2-3.62-.36-5.41l.11,0,8.12-32.47a227.61,227.61,0,0,1,23.19-57.71A128.47,128.47,0,0,0,355.91,288H379.5A44.49,44.49,0,0,0,424,243.5V208h-.13c0-.63.13-1.25.13-1.89V190L347.16,207.1,375.61,173a14.12,14.12,0,0,1,17.45-3.15l48.21,27.54a20,20,0,0,0,9.92,2.64H452a20,20,0,0,0,16-32l-18-24A453.55,453.55,0,0,0,489,79.79l3.28-6.57A34.88,34.88,0,0,0,496,57.67,17.7,17.7,0,0,0,478.33,40ZM285.53,182.59a610.55,610.55,0,0,0-26.91,140.54l-2.11,29.4a62.29,62.29,0,0,0-7.83-.54h-1.36a62.52,62.52,0,0,0-7.84.54l-2.1-29.4a610.92,610.92,0,0,0-26.91-140.54,110.1,110.1,0,0,1,75.06,0ZM95,155.93,46.8,183.47a4.07,4.07,0,0,1-2,.53H44a4,4,0,0,1-3.2-6.4L66,144l-3.6-4.8A437,437,0,0,1,21.27,72.65L18,66.09a19,19,0,0,1-2-8.42A1.68,1.68,0,0,1,17.67,56H19a1.67,1.67,0,0,1,1.36.7l22.5,31.5a144.55,144.55,0,0,0,37.58,36.39A20.43,20.43,0,0,0,109.11,97l-2.62-4.38A211.72,211.72,0,0,1,80.36,25,18.88,18.88,0,0,1,80,21.34V17.67A1.74,1.74,0,0,1,83.21,17l28.42,65a447.68,447.68,0,0,0,62,101.94c-.82.58-1.66,1.1-2.47,1.7a86.19,86.19,0,0,0-11,10.08l-27.47-33c-9-10.81-25.51-13.75-37.67-6.8Zm48,66.25A88.33,88.33,0,0,0,137.63,240H121.89a34.14,34.14,0,0,1-15.16-3.57A33.68,33.68,0,0,1,88.21,210ZM116.5,272a28.86,28.86,0,0,1-6.91-.85A28.45,28.45,0,0,1,88,243.5v-.76A50.07,50.07,0,0,0,121.89,256H136a128.66,128.66,0,0,0,1,16Zm75.14,101.59a243.39,243.39,0,0,0-24.83-61.77A112.76,112.76,0,0,1,152,256a72.38,72.38,0,0,1,28.8-57.6A111.32,111.32,0,0,1,195.72,189a595.2,595.2,0,0,1,25.71,135.28l2.31,32.37a64.13,64.13,0,0,0-9,4.37,63.11,63.11,0,0,0-21,20.89ZM248,480c-13,0-21-8-25.73-16.15.8,0,1.58.14,2.39.14a39.44,39.44,0,0,0,17.5-4.13l5.85-2.93,5.85,2.93a39.44,39.44,0,0,0,17.5,4.13c.78,0,1.53-.1,2.3-.14C268.87,472,260.92,480,248,480Zm15.48-64.84-11.05,22.11c-1.69,3.38-7.16,3.38-8.84,0l-11.06-22.11a4.84,4.84,0,0,1-.53-2.21,5,5,0,0,1,4.95-4.94h22.11a5,5,0,0,1,4.43,7.16ZM296,419.81a32.11,32.11,0,0,1-5.43,17.9,23.73,23.73,0,0,1-25.65,9.35,22.23,22.23,0,0,0,1.81-2.64l11.06-22.11a21.2,21.2,0,0,0,2.21-9.37A21,21,0,0,0,259.05,392H236.94A21,21,0,0,0,216,412.94a21.2,21.2,0,0,0,2.21,9.37l11.06,22.11a20.67,20.67,0,0,0,1.8,2.63,23.73,23.73,0,0,1-25.66-9.35A32.15,32.15,0,0,1,200,419.81v-4.49A47.31,47.31,0,0,1,247.32,368h1.36A47.32,47.32,0,0,1,296,415.33Zm33.18-108a243.61,243.61,0,0,0-24.82,61.77l-2.08,8.32a60.69,60.69,0,0,0-30-25.27l2.31-32.37A595.2,595.2,0,0,1,300.27,189a110.68,110.68,0,0,1,14.91,9.41A72.35,72.35,0,0,1,344,256a112.69,112.69,0,0,1-14.82,55.82ZM408,242.75v.76a28.45,28.45,0,0,1-21.57,27.64,28.93,28.93,0,0,1-6.92.85H359a128.67,128.67,0,0,0,1-16h14.11A50.07,50.07,0,0,0,408,242.75Zm-18.73-6.33A34.11,34.11,0,0,1,374.11,240H358.37A88.33,88.33,0,0,0,353,222.18L407.79,210a33.71,33.71,0,0,1-18.52,26.4ZM478,66.08l-3.28,6.56a436.44,436.44,0,0,1-41.13,66.55L430,144l25.19,33.59A4,4,0,0,1,452,184h-.82a4,4,0,0,1-2-.53L401,155.93c-12.18-7-28.7-4-37.69,6.79l-27.46,33a86.25,86.25,0,0,0-11-10.08c-.8-.6-1.65-1.11-2.46-1.7A448,448,0,0,0,384.38,82L412.8,17c.63-1.46,3.2-.92,3.2.66v3.67a18.8,18.8,0,0,1-.37,3.69,211.41,211.41,0,0,1-26.12,67.55L386.89,97A20.67,20.67,0,0,0,384,107.72a20.28,20.28,0,0,0,31.53,16.87,144.53,144.53,0,0,0,37.58-36.39L475.62,56.7A1.69,1.69,0,0,1,477,56h1.35A1.68,1.68,0,0,1,480,57.67a18.9,18.9,0,0,1-2,8.41Zm0,0"/></g></g></svg>