<svg xmlns="http://www.w3.org/2000/svg" viewBox="0 0 368 496"><title>Ресурс 22</title><g id="Слой_2" data-name="Слой 2"><g id="Слой_1-2" data-name="Слой 1"><rect x="144" y="392" width="16" height="16"/><rect x="208" y="392" width="16" height="16"/><rect x="104" y="176" width="16" height="16"/><rect x="248" y="176" width="16" height="16"/><path d="M360,0a94.67,94.67,0,0,0-48.7,13.49A123.13,123.13,0,0,0,276,45.32l-7,9.37-4.47-2.79a59,59,0,0,0-14.68-17.46A84.3,84.3,0,0,0,197.32,16H170.69a84.34,84.34,0,0,0-52.51,18.43A58.89,58.89,0,0,0,103.5,51.89L99,54.68l-7-9.37A123.09,123.09,0,0,0,56.7,13.48,94.79,94.79,0,0,0,8,0H0V36.78A114,114,0,0,0,42.73,126,104.86,104.86,0,0,0,40,149.21v66.31a104.41,104.41,0,0,0,12.69,49.81l27.24,49.91a87.72,87.72,0,0,1,10.21,32.43L96,400.88h.06c0,.72-.1,1.4-.1,2.11a45,45,0,0,0,16.78,35l1.41,9.93A56.27,56.27,0,0,0,169.62,496h28.74a56.27,56.27,0,0,0,55.43-48.08l1.41-9.93A44.93,44.93,0,0,0,272,403c0-.71-.08-1.4-.11-2.11H272l5.91-53.21a87.67,87.67,0,0,1,10.21-32.43l27.24-49.92A104.41,104.41,0,0,0,328,215.52V149.21a104.86,104.86,0,0,0-2.73-23.2A114,114,0,0,0,368,36.78V0ZM288.81,54.92a107.2,107.2,0,0,1,30.73-27.71A78.66,78.66,0,0,1,352,16.41V27.15a94.35,94.35,0,0,0-24.7,10.34A123.13,123.13,0,0,0,292,69.32l-.6.8a105.1,105.1,0,0,0-9-6.72Zm-160.65-8A68.35,68.35,0,0,1,170.68,32h26.63a68.35,68.35,0,0,1,42.52,14.91A43.06,43.06,0,0,1,252,62.41l-.22.38.53.33a42.95,42.95,0,0,1-3.52,41.31l-2,3L226.67,87.35l-2.89,17.32A92.86,92.86,0,0,1,184,166.52a92.85,92.85,0,0,1-39.78-61.85l-2.89-17.32-20.09,20.09-2-3a42.87,42.87,0,0,1-3.53-41.31l.53-.33-.23-.38a43,43,0,0,1,12.14-15.5ZM200,356.59a51.16,51.16,0,0,0-7.27,4L184,366.38l-8.73-5.82a51.16,51.16,0,0,0-7.27-4V303.85a787.45,787.45,0,0,0-12.85-141.37,108.89,108.89,0,0,0,24.73,20.38l4.12,2.47,4.12-2.47a108.71,108.71,0,0,0,24.73-20.38A787.46,787.46,0,0,0,200,303.85ZM48.46,27.21A106.87,106.87,0,0,1,79.19,54.92l6.36,8.48a106.81,106.81,0,0,0-9,6.72l-.6-.8A123.13,123.13,0,0,0,40.69,37.5,94.11,94.11,0,0,0,16,27.15V16.41a78.73,78.73,0,0,1,32.46,10.8ZM16.4,44a78.51,78.51,0,0,1,16.06,7.25,107,107,0,0,1,30.73,27.7l2,2.66A102.83,102.83,0,0,0,48,109.26,97.82,97.82,0,0,1,16.4,44ZM106,345.89A103.62,103.62,0,0,0,94,307.57L66.74,257.66A88.2,88.2,0,0,1,56,215.52V149.21A87.43,87.43,0,0,1,96.29,75.35c-.14,1.72-.29,3.44-.29,5.18a58.91,58.91,0,0,0,9.92,32.76l12.84,19.25L130,121.3a771.33,771.33,0,0,1,22,182.54v48.52c-1.66-.16-3.33-.37-5-.37a50.84,50.84,0,0,0-38.33,17.47ZM198.37,480H169.62a40.15,40.15,0,0,1-39.36-33.35A45,45,0,0,0,141,448h86a44.85,44.85,0,0,0,10.74-1.35A40.14,40.14,0,0,1,198.37,480ZM227,432H141a29,29,0,0,1-29-29,35,35,0,0,1,54.39-29.11L184,385.62l17.61-11.74A35,35,0,0,1,256,403a29,29,0,0,1-29,29Zm85-216.48a88.26,88.26,0,0,1-10.74,42.14L274,307.59A103.43,103.43,0,0,0,262,345.9l-2.62,23.58A50.82,50.82,0,0,0,221,352c-1.69,0-3.35.21-5,.37V303.85A771.33,771.33,0,0,1,238,121.3l11.25,11.25,12.84-19.25A58.87,58.87,0,0,0,272,80.53c0-1.74-.14-3.46-.29-5.18A87.42,87.42,0,0,1,312,149.21Zm8-106.26a102.64,102.64,0,0,0-17.2-27.69l2-2.64a107.2,107.2,0,0,1,30.73-27.71A78.77,78.77,0,0,1,351.6,44,97.82,97.82,0,0,1,320,109.26Zm0,0" transform="translate(0)"/></g></g></svg>