<svg xmlns="http://www.w3.org/2000/svg" viewBox="0 0 496 483.33"><title>Ресурс 18</title><g id="Слой_2" data-name="Слой 2"><g id="Слой_1-2" data-name="Слой 1"><rect x="208" y="321.1" width="16" height="16"/><path d="M164.69,185.1l-16,16,16,16a27.31,27.31,0,0,0,38.62,0l16-16-16-16c-10.33-10.32-28.3-10.32-38.62,0ZM192,205.78a11.58,11.58,0,0,1-16,0l-4.69-4.68,4.69-4.68a11.58,11.58,0,0,1,16,0l4.69,4.68Zm0,0" transform="translate(0 0)"/><rect x="272" y="321.1" width="16" height="16"/><path d="M292.69,185.1l-16,16,16,16a27.31,27.31,0,0,0,38.62,0l16-16-16-16c-10.33-10.32-28.3-10.32-38.62,0ZM320,205.78a11.58,11.58,0,0,1-16,0l-4.69-4.68,4.69-4.68a11.58,11.58,0,0,1,16,0l4.69,4.68Zm0,0" transform="translate(0 0)"/><path d="M368,81.1A64.47,64.47,0,0,0,310.51,117a71.46,71.46,0,0,0-23-3.9h-79a71.52,71.52,0,0,0-23,3.9,64,64,0,1,0-77.29,88.94,71,71,0,0,0,.13,48.46l27.9,76.74c-.07,1.29-.23,2.56-.23,3.86a66.18,66.18,0,0,0,66.1,66.11h91.8A66.18,66.18,0,0,0,360,335c0-1.3-.16-2.57-.23-3.86l27.9-76.74a71,71,0,0,0,.13-48.47A64,64,0,0,0,368,81.1Zm-288,64a48,48,0,0,1,91-21.28,71.61,71.61,0,0,0-13.07,10.27,31.93,31.93,0,1,0-32.37,42.76l-7.82,10.75c-.85,1.17-1.47,2.45-2.25,3.66A48.11,48.11,0,0,1,80,145.1Zm48,16a16,16,0,1,1,16-16,16,16,0,0,1-16,16Zm165.89,224H202.1A50.11,50.11,0,0,1,173,294.22L192.9,280a51.06,51.06,0,0,0,4.5,13.79l.74,1.47a38.87,38.87,0,0,0-13.86,15.41A78.76,78.76,0,0,0,176,345.71a23.42,23.42,0,0,0,23.38,23.39h97.23A23.42,23.42,0,0,0,320,345.71a78.86,78.86,0,0,0-8.27-35.06,39,39,0,0,0-13.86-15.41l.74-1.47a51.56,51.56,0,0,0,4.5-13.79L323,294.22a50.11,50.11,0,0,1-29.14,90.88Zm-82.18-98.48a35.11,35.11,0,0,1,2.82-36.11l27.33-38.25c2.82-4,9.45-4,12.27,0l27.32,38.24a35.11,35.11,0,0,1,2.83,36.12l-1.48,3a38.62,38.62,0,0,0-33.54,10.93L248,301.78l-1.27-1.26a38.74,38.74,0,0,0-27.57-11.42,40.22,40.22,0,0,0-6,.48Zm7.45,18.48a22.85,22.85,0,0,1,16.27,6.73L248,324.41l12.57-12.57a23,23,0,0,1,36.83,6A62.79,62.79,0,0,1,304,345.71a7.39,7.39,0,0,1-7.38,7.39H199.38a7.39,7.39,0,0,1-7.38-7.39,62.83,62.83,0,0,1,6.59-27.9,22.86,22.86,0,0,1,20.57-12.71Zm153.48-56.17-20.18,55.48a66.1,66.1,0,0,0-20.14-23.21L302.69,260a50.65,50.65,0,0,0-8.22-18.85L267.16,203a23.55,23.55,0,0,0-38.32,0L201.52,241.2A50.77,50.77,0,0,0,193.3,260l-29.62,21.16a66.18,66.18,0,0,0-20.15,23.21l-20.18-55.49A55.85,55.85,0,0,1,130.68,197l32.67-44.93a56,56,0,0,1,45.14-23h79a56,56,0,0,1,45.15,23L365.32,197a55.82,55.82,0,0,1,7.32,51.91ZM352,145.1a16,16,0,1,1,16,16,16,16,0,0,1-16-16Zm28.5,46.17c-.78-1.21-1.4-2.49-2.25-3.66l-7.82-10.76a31.92,31.92,0,1,0-32.36-42.76A71.88,71.88,0,0,0,325,123.82a48,48,0,1,1,55.5,67.45Zm0,0" transform="translate(0 0)"/><path d="M454.72,96.75l-5.49-8.23L467,52.89,459,49.67a230.57,230.57,0,0,0-86-16.57h-2.68L378.51,0,333.62,4.5A217.75,217.75,0,0,0,248,31.83,217.84,217.84,0,0,0,162.38,4.5L117.49,0l8.27,33.1h-2.68A230.6,230.6,0,0,0,37,49.67L29,52.89,46.77,88.52l-5.49,8.23A245,245,0,0,0,0,233.1v11.09l24-8V238a230.65,230.65,0,0,0,16.57,86l4.5,11.27,13.77-13.77a29.39,29.39,0,0,1,33.37-5.41l2.47,1.23-4.27,17.07a81,81,0,0,0,56.3,97.46l9.85,2.82A245.7,245.7,0,0,1,243,479.34l5,4,5-4a245.84,245.84,0,0,1,86.43-44.62l9.85-2.82a80.89,80.89,0,0,0,56.29-97.45l-4.25-17.07,2.48-1.23a29.35,29.35,0,0,1,33.36,5.41l13.77,13.77,4.5-11.27A230.75,230.75,0,0,0,472,238v-1.83l24,8V233.1A245,245,0,0,0,454.72,96.75ZM456,214v24a214.52,214.52,0,0,1-11.29,68.87,45.72,45.72,0,0,0-48.08-5l-14,7,7.38,29.51a64.92,64.92,0,0,1-45.16,78.2L335,419.34A261.77,261.77,0,0,0,248,463a261.62,261.62,0,0,0-87-43.62l-9.85-2.82a65,65,0,0,1-45.17-78.2l7.38-29.51-13.94-7a45.11,45.11,0,0,0-20.09-4.74,44.55,44.55,0,0,0-28,9.79A214.52,214.52,0,0,1,40,238V214l-23.73,7.91A229,229,0,0,1,54.59,105.63l10.64-16L51.13,61.45A214.5,214.5,0,0,1,123.08,49.1h23.17l-7.73-30.91,22.27,2.22a201.47,201.47,0,0,1,83,27.46l4.16,2.59,4.2-2.52a201.6,201.6,0,0,1,83.09-27.54l22.27-2.22L349.75,49.1h23.17a214.5,214.5,0,0,1,71.95,12.35L430.76,89.66l10.64,16A229,229,0,0,1,479.72,221.9Zm0,0" transform="translate(0 0)"/></g></g></svg>