<svg xmlns="http://www.w3.org/2000/svg" viewBox="0 0 496 496"><title>Ресурс 16</title><g id="Слой_2" data-name="Слой 2"><g id="Слой_1-2" data-name="Слой 1"><path d="M312,104a110.63,110.63,0,0,0-64,20.18A110.63,110.63,0,0,0,184,104a112,112,0,0,0-26,220.9,64.14,64.14,0,0,0-6,27.1v3.31l6.82,6.82,2.32,9.56a89.38,89.38,0,0,0,173.73,0l2.32-9.56,6.82-6.82V352a64.11,64.11,0,0,0-6-27.09A112,112,0,0,0,312,104ZM201,308.28,215,322.34a46.32,46.32,0,0,0,25,12.94v48.34a107,107,0,0,1-68.28-31.21l-3.61-3.61a47.69,47.69,0,0,1,31.75-41.86c.39.44.7.93,1.12,1.35ZM273.37,272a14.62,14.62,0,0,1,10.34,25L269.66,311c-11.57,11.56-31.75,11.56-43.31,0L212.28,297a14.63,14.63,0,0,1,10.35-25ZM295,308.28c.43-.42.73-.92,1.12-1.36a47.68,47.68,0,0,1,31.75,41.86l-3.61,3.61A107.09,107.09,0,0,1,256,383.61V335.28a46.32,46.32,0,0,0,25-12.94ZM248,424a73.14,73.14,0,0,1-67.17-43.83,123.66,123.66,0,0,0,134.34,0A73.15,73.15,0,0,1,248,424Zm80.7-113.55a63.53,63.53,0,0,0-25.27-18,31,31,0,0,0,.57-5.85A30.66,30.66,0,0,0,273.37,256h-.43l4.21-37.85,8,2.68A62.16,62.16,0,0,0,304.74,224h2.41a61.79,61.79,0,0,0,51.5-27.56l3-4.44-6.45-9.68A50.13,50.13,0,0,0,278,174.69a55.23,55.23,0,0,0-15.78,32.82L256.84,256H239.16l-5.39-48.5A55.27,55.27,0,0,0,218,174.68a50.15,50.15,0,0,0-77.17,7.64L134.38,192l3,4.44A61.78,61.78,0,0,0,188.84,224h2.41a62,62,0,0,0,19.58-3.18l8-2.67L223.06,256h-.43A30.66,30.66,0,0,0,192,286.62a31.67,31.67,0,0,0,.57,5.85,63.59,63.59,0,0,0-25.27,18A96,96,0,0,1,184,120a94.93,94.93,0,0,1,59.06,20.44L248,144.3l4.94-3.86A94.93,94.93,0,0,1,312,120a96,96,0,0,1,16.7,190.45ZM279.63,202.11a39,39,0,0,1,9.7-16.11,34.13,34.13,0,0,1,52.54,5.19l.36.54A45.8,45.8,0,0,1,307.16,208h-2.41a46,46,0,0,1-14.52-2.35Zm-63.25,0-10.6,3.53A45.92,45.92,0,0,1,191.26,208h-2.41a45.82,45.82,0,0,1-35.06-16.27l.36-.54a34.12,34.12,0,0,1,52.53-5.2,39.17,39.17,0,0,1,9.69,16.11Zm0,0"/><path d="M471,128a24.79,24.79,0,0,0-17.66,7.31L447,141.68C421.56,59.7,345,0,254.78,0H241.22C151,0,74.44,59.7,49,141.68l-6.37-6.37A25,25,0,0,0,0,153v27.5A304.38,304.38,0,0,0,12.84,268,61.38,61.38,0,0,0,72,312v-2.28a200.27,200.27,0,0,0,15.62,21.47l24.07,28.46A89.71,89.71,0,0,1,132.06,405c7.41,51.86,52.5,91,104.89,91H259c52.39,0,97.48-39.11,104.89-91a89.77,89.77,0,0,1,20.37-45.38l24.07-28.46A201.38,201.38,0,0,0,424,309.72V312a61.38,61.38,0,0,0,59.16-44A304.41,304.41,0,0,0,496,180.48V153a25,25,0,0,0-25-25ZM28.17,263.39A288.56,288.56,0,0,1,16,180.48V153a9,9,0,0,1,15.31-6.35l13,13A199.91,199.91,0,0,0,63.5,295.15a45.38,45.38,0,0,1-35.34-31.76Zm368,57.47-24.07,28.45a105.73,105.73,0,0,0-24,53.46A90.41,90.41,0,0,1,259,480H237a90.39,90.39,0,0,1-89.05-77.23,105.72,105.72,0,0,0-24-53.45L99.83,320.86A185.4,185.4,0,0,1,56,201.21C56,99.09,139.09,16,241.22,16h13.55C356.91,16,440,99.09,440,201.21a185.43,185.43,0,0,1-43.82,119.65ZM480,180.48a288.49,288.49,0,0,1-12.17,82.91,45.36,45.36,0,0,1-35.33,31.76,200,200,0,0,0,19.15-135.5l13-13A9,9,0,0,1,480,153Zm0,0"/></g></g></svg>