<svg xmlns="http://www.w3.org/2000/svg" viewBox="0 0 496 496"><title>Ресурс 13</title><g id="Слой_2" data-name="Слой 2"><g id="Слой_1-2" data-name="Слой 1"><rect x="168" y="240" width="16" height="16"/><rect x="312" y="240" width="16" height="16"/><path d="M475.47,0h-1.93a20,20,0,0,0-5,.62L455.7,3.82A207.63,207.63,0,0,0,314.44,125.38l-6.89,16.54a134.39,134.39,0,0,0-119.09,0l-6.89-16.54A206.93,206.93,0,0,0,75.85,16.24,206.78,206.78,0,0,0,40.3,3.83L27.44.62a20,20,0,0,0-5-.62H20.53A20.52,20.52,0,0,0,2.93,31.09a265,265,0,0,1,31,76.77l8.26,35.81a189.78,189.78,0,0,0,70.42,108.7c-.32,3.84-.59,7.7-.59,11.63v33.06c-1.16.77-2.36,1.47-3.46,2.34C84.63,318.41,72,344.89,72,376c0,57.34,43.06,104,96,104a90,90,0,0,0,36.39-7.9l5.14,23.9h76.92l5.14-23.9A90.06,90.06,0,0,0,328,480c52.94,0,96-46.66,96-104,0-31.1-12.63-57.59-36.54-76.61-1.09-.86-2.3-1.57-3.46-2.34V264c0-3.93-.27-7.79-.59-11.63a189.69,189.69,0,0,0,70.42-108.7l8.25-35.81a265.3,265.3,0,0,1,31-76.77A20.51,20.51,0,0,0,475.47,0ZM329.19,131.53A191.64,191.64,0,0,1,459.57,19.34l12.86-3.21a5.1,5.1,0,0,1,1.1-.13h1.93A4.53,4.53,0,0,1,480,20.53a4.43,4.43,0,0,1-.65,2.33c-1.73,2.88-3.21,5.88-4.83,8.82a209.44,209.44,0,0,0-22.38,8.57A206.89,206.89,0,0,0,346.43,149.38l-6.23,14.95a137.08,137.08,0,0,0-18.61-14.52Zm-8.25,37.4-12.16,8.69a104.47,104.47,0,0,0-42.51,69.91L257.05,312H238.94l-9.21-64.47a104.47,104.47,0,0,0-42.51-69.91l-12.16-8.69a119.18,119.18,0,0,1,145.89,0ZM328,315.33a55,55,0,0,1,16,38.59,54.33,54.33,0,0,1-20.48,42.61l-3.65,2.91a39,39,0,0,1-55.57-7.05l-3.24-4.31a24.63,24.63,0,0,0,6.2-5.34l23.11-28.89a25.67,25.67,0,0,0-17.18-41.56l2.33-16.3h5.84A65.58,65.58,0,0,1,328,315.33ZM200.5,408a39.17,39.17,0,0,1-24.37-8.55l-3.63-2.91A54.33,54.33,0,0,1,152,353.92a55,55,0,0,1,16-38.59A65.58,65.58,0,0,1,214.65,296h5.84l2.33,16.3a25.68,25.68,0,0,0-17.17,41.57l23.12,28.88a24.36,24.36,0,0,0,6.18,5.34l-3.24,4.31A39.19,39.19,0,0,1,200.5,408Zm69.73-80a9.76,9.76,0,0,1,7.62,15.87l-23.1,28.88a8.92,8.92,0,0,1-13.51,0l-23.11-28.88A9.78,9.78,0,0,1,225.77,328ZM20.53,16h1.93a4.58,4.58,0,0,1,1.1.14l12.88,3.22a190.92,190.92,0,0,1,32.8,11.45,191,191,0,0,1,97.57,100.73l7.6,18.27a136.59,136.59,0,0,0-18.61,14.52l-6.23-14.95A206.93,206.93,0,0,0,43.85,40.24a210.27,210.27,0,0,0-22.38-8.57c-1.62-2.94-3.11-5.94-4.83-8.82A4.43,4.43,0,0,1,16,20.53,4.53,4.53,0,0,1,20.53,16ZM76.25,187.31a174.46,174.46,0,0,1-18.48-47.23l-8.26-35.8A280.22,280.22,0,0,0,31.92,52.6c1.77.74,3.57,1.41,5.31,2.21A191,191,0,0,1,134.8,155.53l8.89,21.34A135.67,135.67,0,0,0,115.45,234a173,173,0,0,1-39.2-46.67ZM128,264a119.59,119.59,0,0,1,34.68-84.26l15.24,10.89a88.4,88.4,0,0,1,36,59.17l4.32,30.2h-3.55a81.38,81.38,0,0,0-47,14.87l-2.59-1.3a53.84,53.84,0,0,0-37-3.65V264Zm40,200c-44.11,0-80-39.48-80-88,0-26.05,10.54-48.21,30.5-64.08,9.85-7.84,24-9.88,35.94-5.44A70.44,70.44,0,0,0,162.5,409l3.63,2.9a55.07,55.07,0,0,0,27.78,11.5l7,32.62A73,73,0,0,1,168,464Zm88,16V456H240v24H222.46l-12.27-57A55.23,55.23,0,0,0,240,407.21V440h16V407.22A55.33,55.33,0,0,0,285.81,423l-12.27,57ZM408,376c0,48.52-35.89,88-80,88a73,73,0,0,1-32.94-7.94l7-32.62a55.07,55.07,0,0,0,27.77-11.5l3.65-2.91a70.44,70.44,0,0,0,8.05-102.56c11.94-4.43,26.09-2.38,35.94,5.43,20,15.88,30.5,38,30.5,64.09Zm-77-82.43-2.59,1.3a81.36,81.36,0,0,0-47-14.87H277.8l4.31-30.2a88.44,88.44,0,0,1,36-59.17l15.24-10.89A119.59,119.59,0,0,1,368,264v25.92a53.85,53.85,0,0,0-37,3.65ZM446.5,104.27l-8.26,35.8A172.15,172.15,0,0,1,380.55,234a135.66,135.66,0,0,0-28.25-57.1l8.89-21.34A191,191,0,0,1,458.77,54.8c1.73-.79,3.54-1.46,5.31-2.21a280.51,280.51,0,0,0-17.58,51.68Zm0,0"/></g></g></svg>