<svg xmlns="http://www.w3.org/2000/svg" viewBox="0 0 431.93 490"><title>Ресурс 10</title><g id="Слой_2" data-name="Слой 2"><g id="Слой_1-2" data-name="Слой 1"><path d="M141.28,241.05a13.15,13.15,0,0,1-21.76,5.14l-9.81-9.8L98.4,247.69l9.81,9.8a29.14,29.14,0,0,0,48.25-11.39l11.18-33.53-15.17-5.07Zm0,0" transform="translate(-0.07 0)"/><rect x="119.98" y="210.04" width="16" height="16"/><path d="M312.56,246.19a13.14,13.14,0,0,1-21.76-5.14l-11.18-33.53-15.17,5.07,11.18,33.53a29.13,29.13,0,0,0,48.24,11.39l9.81-9.8-11.31-11.31Zm0,0" transform="translate(-0.07 0)"/><rect x="295.95" y="210.04" width="16" height="16"/><path d="M432,98.06a103.85,103.85,0,0,0-30.63-73.92L377.25,0,366.2,6.64A79,79,0,0,0,328.14,72.2a65.86,65.86,0,0,1-22.78,31,151.57,151.57,0,0,0-178.65,0,65.86,65.86,0,0,1-22.77-31A79,79,0,0,0,65.88,6.64L54.83,0,30.7,24.14A103.87,103.87,0,0,0,.07,98.06v3.31l14.26,14.26-8,16,21,21a86.16,86.16,0,0,0,57.27,25.23L66.39,255.16a88.79,88.79,0,0,0-2.33,20.15v42.8a88.06,88.06,0,0,0,29.53,65.76L136.53,422a84.44,84.44,0,0,0-.48,8.56,27.39,27.39,0,0,0,17.67,25.54A50,50,0,0,0,201,490h30a50,50,0,0,0,47.3-33.87A27.39,27.39,0,0,0,296,430.59a84.59,84.59,0,0,0-.48-8.57l42.94-38.17A88,88,0,0,0,368,318.11v-42.8a88.3,88.3,0,0,0-2.34-20.16l-18.2-77.31a86.23,86.23,0,0,0,57.28-25.23l21-21-8-16L432,101.38Zm-94.62-7.53,1.56,2.34a30.09,30.09,0,0,1-6.33,40.3,96.61,96.61,0,0,0-14.73-19.3,82,82,0,0,0,19.49-23.34ZM93.13,92.89l1.56-2.34a82.35,82.35,0,0,0,19.49,23.35,96.41,96.41,0,0,0-14.72,19.3,30.09,30.09,0,0,1-6.33-40.3ZM38.62,141.3,25.8,128.48l8-16L16.13,94.8A87.94,87.94,0,0,1,42,35.45l15.3-15.3.34.2A63,63,0,0,1,88,71.71L79.82,84a46.18,46.18,0,0,0,12.68,63.95,94.92,94.92,0,0,0-3.54,11.42L88.32,162a70.35,70.35,0,0,1-49.7-20.73ZM216,338A66.54,66.54,0,0,0,251,327.71L255,343c-5.68,4-18.51,11-38.94,11s-33.28-7-38.94-11l4-15.32A66.54,66.54,0,0,0,216,338Zm-30.68-26.68,2.76-10.58a76.59,76.59,0,0,0,55.83,0l2.77,10.62c-5.34,4-16.29,10.65-30.68,10.65-14.23,0-25.27-6.67-30.68-10.69ZM216,290a60.72,60.72,0,0,1-23.85-4.87L216,193.75l23.85,91.41A60.56,60.56,0,0,1,216,290Zm-52.82,68.82,4.42-2.94C175.35,361.34,191.52,370,216,370s40.69-8.68,48.41-14.11l4.41,2.94A25.05,25.05,0,0,1,280,379.72a12.75,12.75,0,0,1-2.15,7.1A34.13,34.13,0,0,1,225.35,392l-9.31-9.3-9.32,9.3a34.13,34.13,0,0,1-52.52-5.18,12.83,12.83,0,0,1-2.15-7.11,25,25,0,0,1,11.16-20.87ZM231.05,474H201a34.12,34.12,0,0,1-29.65-17.31,27.83,27.83,0,0,0,4.35-1.57l13.58-6.8a60.79,60.79,0,0,1,53.46,0l13.59,6.81a27.83,27.83,0,0,0,4.34,1.56A34.12,34.12,0,0,1,231.05,474Zm37.57-32a11.52,11.52,0,0,1-5.11-1.2L249.93,434a77,77,0,0,0-67.77,0l-13.57,6.79a11.42,11.42,0,0,1-16.53-10.21,69,69,0,0,1,3.26-20.73A49.94,49.94,0,0,0,216,405.21a50,50,0,0,0,60.73,4.65A69.36,69.36,0,0,1,280,430.59,11.43,11.43,0,0,1,268.62,442ZM352,275.31v42.8a72,72,0,0,1-24.16,53.81L291.77,404c-.05-.14-.08-.29-.13-.44l-2-5.86c.5-.67,1-1.29,1.51-2a28.82,28.82,0,0,0,4.83-16,41,41,0,0,0-18.3-34.17L271,341.1,216,130.36l-55,210.7-6.73,4.49a41,41,0,0,0-18.29,34.18,28.78,28.78,0,0,0,4.83,16c.47.7,1,1.32,1.51,2l-1.95,5.87c-.05.15-.08.29-.13.44L104.23,371.9a72,72,0,0,1-24.17-53.79v-42.8A72.43,72.43,0,0,1,82,258.83L104.52,163a80.35,80.35,0,0,1,29.94-45.77,136,136,0,0,1,163.18,0A80.34,80.34,0,0,1,327.57,163l22.54,95.79A72.65,72.65,0,0,1,352,275.31Zm54.26-146.83L393.45,141.3A70.35,70.35,0,0,1,343.76,162l-.62-2.66A96.21,96.21,0,0,0,339.58,148,46.17,46.17,0,0,0,352.26,84l-8.19-12.29a63,63,0,0,1,30.36-51.36l.34-.2,15.3,15.3a87.9,87.9,0,0,1,25.88,59.36l-17.67,17.68Zm0,0" transform="translate(-0.07 0)"/><rect x="247.96" y="378.02" width="16" height="16"/><rect x="167.97" y="378.02" width="16" height="16"/></g></g></svg>