<svg xmlns="http://www.w3.org/2000/svg" viewBox="0 0 496 424"><title>Ресурс 9</title><g id="Слой_2" data-name="Слой 2"><g id="Слой_1-2" data-name="Слой 1"><path d="M260.69,312H235.31a19.31,19.31,0,0,0-13.66,33l7,7a27.32,27.32,0,0,0,38.63,0l7-7a19.31,19.31,0,0,0-13.65-33ZM263,333.66l-7,7a11.57,11.57,0,0,1-16,0l-7-7a3.31,3.31,0,0,1,2.34-5.65h25.38a3.31,3.31,0,0,1,2.34,5.66Zm0,0" transform="translate(0 0)"/><path d="M392,0c-23.1,0-45.28,9.37-63.38,26.52a55.11,55.11,0,0,0-33.07,0,55.83,55.83,0,0,0-95.09,0,55.11,55.11,0,0,0-33.07,0C149.28,9.37,127.1,0,104,0,46.66,0,0,57.43,0,128S46.66,256,104,256a38.64,38.64,0,0,0,35.66-23.7l44.57,105.86c-.05.87-.23,1.72-.23,2.6a43.16,43.16,0,0,0,17.07,34.34l1.78,10.65a45.78,45.78,0,0,0,90.3,0l1.78-10.65A43.17,43.17,0,0,0,312,340.76c0-.87-.18-1.73-.23-2.6L356.34,232.3A38.64,38.64,0,0,0,392,256c57.34,0,104-57.43,104-128S449.34,0,392,0ZM194,41.34A55.65,55.65,0,0,0,192,56h16a40,40,0,0,1,80,0h16a55.65,55.65,0,0,0-2-14.66A39.41,39.41,0,0,1,312,40a40,40,0,0,1,13.21,77.71l-5.7,2,.42,6.83c0,.49.07,1,.07,1.46a39.94,39.94,0,0,1-66.66,29.75L248,153l-5.34,4.8A39.94,39.94,0,0,1,176,128c0-.5,0-1,.07-1.46l.42-6.83-5.7-2A40,40,0,0,1,184,40a39.41,39.41,0,0,1,10,1.34ZM368,96a64.38,64.38,0,0,1,38.4,12.8l4.27,3.2-4.27,3.2a64.28,64.28,0,0,1-36.51,12.64c-.57-1.65-1.06-3.32-1.71-4.94L361.41,106a55.63,55.63,0,0,0,4.23-10H368ZM264,274.59v.61a41.52,41.52,0,0,0-32,0v-.61a319,319,0,0,0-13.2-90.81,55.66,55.66,0,0,0,29.2-9.89,55.76,55.76,0,0,0,29.2,9.89A319,319,0,0,0,264,274.59ZM127.82,122.89c-.65,1.63-1.14,3.3-1.71,4.94a64.4,64.4,0,0,1-36.5-12.64L85.34,112l4.27-3.2A64.43,64.43,0,0,1,128,96h2.36a55.57,55.57,0,0,0,4.23,10ZM104,240c-48.52,0-88-50.24-88-112S55.48,16,104,16c17.1,0,33.67,6.45,47.87,18.21a56.18,56.18,0,0,0-11.55,10.85C129.35,36.52,116.94,32,104,32,64.3,32,32,75.06,32,128s32.3,96,72,96h21.72A22.7,22.7,0,0,1,104,240Zm0-32c-30.88,0-56-35.89-56-80s25.12-80,56-80c9.93,0,19.51,4,28.07,11.15A55.73,55.73,0,0,0,128,80,80.51,80.51,0,0,0,80,96L58.66,112,80,128a80.49,80.49,0,0,0,41.83,15.74A108.9,108.9,0,0,0,128.57,206l.86,2Zm39.32-8.23a93.46,93.46,0,0,1-.65-70.94l3.2-8a56,56,0,0,0,14.18,9.73A55.75,55.75,0,0,0,176,167.07V192h16V178.53a55,55,0,0,0,9.5,3.51A303.24,303.24,0,0,1,216,274.59v12.15c-.12.14-.27.27-.38.42L194,313.07c-.7.84-1.23,1.79-1.86,2.68ZM248,408a29.67,29.67,0,0,1-29.37-24.86,43.75,43.75,0,0,0,8.61.86h41.52a43.72,43.72,0,0,0,8.61-.86A29.66,29.66,0,0,1,248,408Zm20.76-40H227.25a27.24,27.24,0,0,1-20.93-44.68l21.59-25.91a26.17,26.17,0,0,1,40.2,0l21.58,25.9A27.24,27.24,0,0,1,268.76,368ZM302,313.07l-21.59-25.89c-.12-.14-.26-.27-.39-.41V274.6A303.2,303.2,0,0,1,294.5,182a55.37,55.37,0,0,0,9.5-3.51V192h16V167.08a55.75,55.75,0,0,0,15.95-36.49,56.08,56.08,0,0,0,14.18-9.73l3.19,8a93.37,93.37,0,0,1-.64,70.92l-48.84,116c-.63-.9-1.16-1.85-1.86-2.69ZM367.43,206a108.9,108.9,0,0,0,6.73-62.23A80.49,80.49,0,0,0,416,128l21.34-16L416,96a80.51,80.51,0,0,0-48-16,55.73,55.73,0,0,0-4.07-20.86C372.49,52,382.07,48,392,48c30.88,0,56,35.89,56,80s-25.12,80-56,80H366.57ZM392,240a22.7,22.7,0,0,1-21.72-16H392c39.7,0,72-43.06,72-96s-32.3-96-72-96c-12.95,0-25.35,4.52-36.31,13.05a56.74,56.74,0,0,0-11.55-10.85C358.33,22.45,374.9,16,392,16c48.52,0,88,50.24,88,112s-39.48,112-88,112Zm0,0" transform="translate(0 0)"/></g></g></svg>