<svg xmlns="http://www.w3.org/2000/svg" viewBox="0 0 456.24 496"><title>Ресурс 7</title><g id="Слой_2" data-name="Слой 2"><g id="Слой_1-2" data-name="Слой 1"><rect x="140.12" y="160" width="16" height="16"/><rect x="124.12" y="200" width="16" height="16"/><rect x="164.12" y="216" width="16" height="16"/><path d="M396.12,208c0-1.7-.16-3.36-.26-5A160.32,160.32,0,0,1,448,222.85l8.23-13.72A176.3,176.3,0,0,0,393.3,186.3a87.78,87.78,0,0,0-21.18-38.51V144c0-79.4-64.6-144-144-144s-144,64.6-144,144v3.79A87.81,87.81,0,0,0,62.94,186.3,176.33,176.33,0,0,0,0,209.14l8.23,13.72A160.39,160.39,0,0,1,60.37,203c-.09,1.67-.25,3.33-.25,5a88.1,88.1,0,0,0,.71,10.66A176.32,176.32,0,0,0,0,241.14l8.23,13.72a160.55,160.55,0,0,1,55.92-20.54,88.29,88.29,0,0,0,28,41.51v19.86a349.6,349.6,0,0,1-54.75,188L29.55,496H426.7l-7.82-12.3a349.6,349.6,0,0,1-54.75-188V275.83a88.3,88.3,0,0,0,28-41.51A160.34,160.34,0,0,1,448,254.86l8.23-13.72a176.2,176.2,0,0,0-60.83-22.48,88.1,88.1,0,0,0,.71-10.66Zm-168-192c67.21,0,122.37,52.11,127.5,118a87.59,87.59,0,0,0-92.17-1.82A37.17,37.17,0,0,0,246.51,128H209.73a37.15,37.15,0,0,0-16.93,4.21A87.59,87.59,0,0,0,100.62,134c5.12-65.92,60.28-118,127.5-118Zm56.94,276.92A89,89,0,0,0,308.12,296c2.7,0,5.36-.17,8-.41v8.77a472.56,472.56,0,0,1-6.41,77.42,125.68,125.68,0,0,1-36.63,69.54,558.51,558.51,0,0,0,12-158.4Zm-16.49-6.2A543,543,0,0,1,256.46,452.3l-6.4,27.7H206.18l-6.39-27.7a542.61,542.61,0,0,1-12.12-165.59,87.53,87.53,0,0,0,40.46-42.07,87.46,87.46,0,0,0,40.45,42.07Zm-85.41,164.6a125.73,125.73,0,0,1-36.63-69.54,473,473,0,0,1-6.41-77.42v-8.77c2.64.24,5.29.41,8,.41a88.89,88.89,0,0,0,23.05-3.08,558.83,558.83,0,0,0,12,158.4Zm45-243.32a25.16,25.16,0,0,1-19.75-9.5l-15.52-19.4A21.61,21.61,0,0,1,209.73,144h36.78a21.6,21.6,0,0,1,16.86,35.11l-15.51,19.41A25.19,25.19,0,0,1,228.12,208ZM80.45,232.35c3.43-.22,6.87-.35,10.32-.35h9.35V216H90.77c-4.71,0-9.41.25-14.08.62a71.39,71.39,0,0,1-.57-8.62,72.4,72.4,0,0,1,.37-7.28c4.73-.42,9.5-.72,14.28-.72h9.35V184H90.77c-3.54,0-7.07.14-10.59.36a71.84,71.84,0,0,1,99.44-41.06,37.25,37.25,0,0,0-7.5,22.31,37.8,37.8,0,0,0,8.24,23.5l15.51,19.39a41,41,0,0,0,22.68,14.38,71.93,71.93,0,0,1-138.1,9.47Zm27.67,63.34v-9.41a87.4,87.4,0,0,0,16,6.3v11.77a488,488,0,0,0,6.62,80,141.66,141.66,0,0,0,60.94,94.25l2,1.34H58.36a365.61,365.61,0,0,0,49.76-184.31ZM397.88,480H262.54l2-1.34a141.64,141.64,0,0,0,60.94-94.25,487.93,487.93,0,0,0,6.62-80V292.59a87.62,87.62,0,0,0,16-6.3v9.41A365.65,365.65,0,0,0,397.88,480ZM308.12,280a71.67,71.67,0,0,1-70.43-57.13,41.05,41.05,0,0,0,22.68-14.37l15.5-19.4a37.69,37.69,0,0,0,8.25-23.5,37.25,37.25,0,0,0-7.5-22.31A71.83,71.83,0,0,1,376,184.36c-3.51-.21-7-.36-10.57-.36h-9.35v16h9.35c4.79,0,9.54.3,14.28.72.24,2.39.37,4.82.37,7.28a71.39,71.39,0,0,1-.57,8.63c-4.67-.38-9.37-.62-14.08-.62h-9.35v16h9.35c3.45,0,6.89.13,10.32.35A72.05,72.05,0,0,1,308.12,280Zm0,0"/><rect x="300.12" y="160" width="16" height="16"/><rect x="316.12" y="200" width="16" height="16"/><rect x="276.12" y="216" width="16" height="16"/><rect x="284.12" y="72" width="16" height="16"/><rect x="156.12" y="72" width="16" height="16"/></g></g></svg>