<svg xmlns="http://www.w3.org/2000/svg" viewBox="0 0 491 479.99"><title>Ресурс 6</title><g id="Слой_2" data-name="Слой 2"><g id="Слой_1-2" data-name="Слой 1"><rect x="173.5" y="208" width="16" height="16"/><path d="M442,307.74a115.78,115.78,0,0,0,35-24l14-14-9.93-5A101.89,101.89,0,0,1,454.5,245.7a184,184,0,0,1-31.18-41.53L408,176.36A196.38,196.38,0,0,0,459.68,60.45c1.21-13.38,1.82-26.92,1.82-40.25V0H427.35a211.61,211.61,0,0,0-60.76,8.91A132.65,132.65,0,0,0,290,70a169.83,169.83,0,0,0-89,0,132.64,132.64,0,0,0-76.6-61A211.33,211.33,0,0,0,63.65,0H29.5V20.2c0,13.33.61,26.87,1.88,40.94A195.76,195.76,0,0,0,83,176.36l-15.3,27.82A184.25,184.25,0,0,1,36.5,245.7,102.2,102.2,0,0,1,9.93,264.85l-9.93,5,14,14a115.78,115.78,0,0,0,35,24,66.1,66.1,0,0,1-30,20.68L9,331.73l5.82,8.72a146.34,146.34,0,0,0,93.66,62.72l61.39,12.28a49.35,49.35,0,0,0,20.6,19.36l-.42.17c.72,1.85,18.42,45,55.41,45s54.7-43.18,55.43-45l-.43-.17a49.36,49.36,0,0,0,20.6-19.36l61.4-12.28a146.32,146.32,0,0,0,93.66-62.72l5.82-8.72L472,328.42a66.17,66.17,0,0,1-30-20.68ZM399.88,161.56l-5.11-9.29a170.19,170.19,0,0,0-60-62.93,115.75,115.75,0,0,1,52.45-33.1A195.62,195.62,0,0,1,443.35,48h1.12c-.25,3.88-.44,7.71-.8,11.67a179.73,179.73,0,0,1-43.79,101.88ZM371.2,24.25A195.62,195.62,0,0,1,427.35,16H445.5V20.2c0,3.9-.16,7.86-.27,11.81h-1.86a211.6,211.6,0,0,0-60.76,8.91,131.87,131.87,0,0,0-62.22,40.49c-4.84-2.37-9.81-4.49-14.86-6.39A116.61,116.61,0,0,1,371.2,24.25ZM291,87l-.82,2.67A647.84,647.84,0,0,0,261.5,280.29V360h-32V280.29A647.84,647.84,0,0,0,200.83,89.63L200,87a152.66,152.66,0,0,1,91,0ZM251.9,404.81c-3,4-9.8,4-12.8,0l-16.8-22.38a4.14,4.14,0,0,1-.8-2.42,4,4,0,0,1,4-4h40a4,4,0,0,1,4,4,4.1,4.1,0,0,1-.81,2.42ZM45.5,16H63.65a195.76,195.76,0,0,1,56.17,8.24A116.66,116.66,0,0,1,185.5,75c-5.05,1.9-10,4-14.86,6.39a131.84,131.84,0,0,0-62.23-40.49A211.65,211.65,0,0,0,47.65,32H45.78c-.11-3.95-.27-7.89-.27-11.81Zm1.76,43c-.33-3.66-.51-7.33-.75-11h1.13a195.76,195.76,0,0,1,56.17,8.24,115.84,115.84,0,0,1,52.45,33.1,170.11,170.11,0,0,0-60,62.93l-5.11,9.29A180.36,180.36,0,0,1,47.27,59Zm64.38,328.47a130.29,130.29,0,0,1-77.73-47.92,82.16,82.16,0,0,0,32.27-28.16L74,299.72,64,296.42a99.76,99.76,0,0,1-37.38-22.61A118.15,118.15,0,0,0,47.82,257,199.83,199.83,0,0,0,81.7,211.88L110.25,160a154.26,154.26,0,0,1,74.69-67.59l.59,1.94c5.86,19,10.69,38.27,14.71,57.68h-3.9A70.84,70.84,0,0,0,133,191.16l-16.64,33.28,2.38,3.81a286.46,286.46,0,0,1,43,135.56l1.65,29.76c.08,1.46.25,2.91.46,4.34Zm67.68,5.2-1.65-29.76a302.49,302.49,0,0,0-43-139.3l12.65-25.29a54.85,54.85,0,0,1,49-30.31h7A631.78,631.78,0,0,1,213.5,280.29v83.8a19.91,19.91,0,0,0-8,15.9,20.18,20.18,0,0,0,4,12l16.81,22.39a23.79,23.79,0,0,0,4.16,4.25,33.14,33.14,0,0,1-51.14-26ZM245.5,464c-16.5,0-28.28-13.82-34.76-24.08.57,0,1.13.08,1.71.08a48.74,48.74,0,0,0,33.05-12.85A48.74,48.74,0,0,0,278.55,440c.59,0,1.16-.06,1.75-.09C273.86,450.18,262.11,464,245.5,464Zm66.18-71.33a33.14,33.14,0,0,1-51.14,26,23.73,23.73,0,0,0,4.16-4.24L281.5,392v0a20.11,20.11,0,0,0,4-12,19.91,19.91,0,0,0-8-15.9v-83.8A631.78,631.78,0,0,1,287.62,168h7a54.85,54.85,0,0,1,49,30.31l12.65,25.29a302.56,302.56,0,0,0-43,139.3Zm67.68-5.2L327.19,397.9c.21-1.43.37-2.87.46-4.34l1.65-29.76a286.49,286.49,0,0,1,43-135.56l2.38-3.8L358,191.16A70.82,70.82,0,0,0,294.67,152h-3.9c4-19.41,8.85-38.66,14.71-57.68l.59-1.94a154.26,154.26,0,0,1,74.7,67.6l28.54,51.89A200.36,200.36,0,0,0,443.19,257a118.16,118.16,0,0,0,21.16,16.8A99.77,99.77,0,0,1,427,296.42l-9.94,3.3,7.79,11.67a82.15,82.15,0,0,0,32.27,28.16,130.41,130.41,0,0,1-77.74,47.92Zm0,0" transform="translate(0 -0.01)"/><rect x="301.5" y="208" width="16" height="16"/></g></g></svg>