<svg xmlns="http://www.w3.org/2000/svg" viewBox="0 0 383.42 453"><title>Ресурс 4</title><g id="Слой_2" data-name="Слой 2"><g id="Слой_1-2" data-name="Слой 1"><path d="M213,223.35H171.66l3.69,16h34Zm0,0" transform="translate(-0.64)"/><path d="M202,271.28l3.69-16H179l3.69,16Zm0,0" transform="translate(-0.64)"/><path d="M317.33,79.93l16.36-9.82A37.92,37.92,0,0,0,319.1,0a37.94,37.94,0,0,1,.46,34.72,37.56,37.56,0,0,1-22.77,19.22,45.59,45.59,0,0,1,14.58,26Zm0,0" transform="translate(-0.64)"/><path d="M283.69,136.78c-.88-2-1.77-4-2.74-5.91L265.08,99.12,279.37,92l8.35,16.69A29.52,29.52,0,0,0,278.65,61l-13.11-5.82a179.15,179.15,0,0,0-47.1-13.61L239.84,149.3Zm0,0" transform="translate(-0.64)"/><path d="M192.34,367.13A56.33,56.33,0,0,0,243,335.82l5.26-10.51V295.24a8,8,0,0,0-8-8H144.42a8,8,0,0,0-8,8v30.08l5.26,10.52a56.34,56.34,0,0,0,50.66,31.3Zm24-55.91h16v16h-16Zm-63.9,0h16v16h-16Zm0,0" transform="translate(-0.64)"/><path d="M264.07,293.68,281,259.92a143.45,143.45,0,0,0,10.17-102.1,53.78,53.78,0,0,1-39.72,17.61H240.08l0,1.8-21.71,94.06h21.91a23.93,23.93,0,0,1,23.8,22.4Zm0,0" transform="translate(-0.64)"/><path d="M308.55,228.8a160.37,160.37,0,0,1-13.32,38.27L257.29,343a72.63,72.63,0,0,1-129.9,0L89.44,267.07A160.48,160.48,0,0,1,76.12,228.8a53.4,53.4,0,0,0-19.57,41.1,52.79,52.79,0,0,0,14,35.91l11.53-15.36L94.89,300,82.43,316.65a49.42,49.42,0,0,0,6.46,66.43,51.94,51.94,0,0,1,8.37-23.52l8.55-12.82,13.29,8.86-8.55,12.82a36.24,36.24,0,0,0,21.37,55.27,162.21,162.21,0,0,1,58.33,27.76l2.08,1.57,2.09-1.57a162.23,162.23,0,0,1,58.34-27.76,36.24,36.24,0,0,0,21.35-55.27l-8.54-12.82,13.29-8.86,8.55,12.82a51.93,51.93,0,0,1,8.37,23.52,49.43,49.43,0,0,0,6.47-66.43L289.8,300l12.78-9.58,11.52,15.37a52.73,52.73,0,0,0,14-35.91,53.37,53.37,0,0,0-19.59-41.1Zm0,0" transform="translate(-0.64)"/><path d="M51,70.12l16.36,9.82,6,0A45.6,45.6,0,0,1,87.88,54,37.59,37.59,0,0,1,65.12,34.72,37.94,37.94,0,0,1,65.58,0,37.92,37.92,0,0,0,51,70.12Zm0,0" transform="translate(-0.64)"/><path d="M89.44,123.75l-3.58-3.58A45.13,45.13,0,0,1,73.3,95.93L.64,95.58a47.93,47.93,0,0,0,47.89,47.89H81.25a158.45,158.45,0,0,1,8.19-19.72Zm0,0" transform="translate(-0.64)"/><path d="M311.39,95.94a45.17,45.17,0,0,1-12.56,24.23l-3.58,3.58a159.06,159.06,0,0,1,8.19,19.72h32.72a47.94,47.94,0,0,0,47.89-47.89Zm0,0" transform="translate(-0.64)"/><path d="M105.32,92l14.29,7.15-15.87,31.75c-1,1.94-1.87,3.93-2.74,5.91l43.7,12.48L166.24,41.55a178.94,178.94,0,0,0-47.09,13.61L106,61A29.51,29.51,0,0,0,97,108.66Zm0,0" transform="translate(-0.64)"/><path d="M166.34,271.28l-21.93-95.85H133.28a53.81,53.81,0,0,1-39.72-17.61,143.42,143.42,0,0,0,10.18,102.1l16.88,33.76a23.93,23.93,0,0,1,23.81-22.4Zm0,0" transform="translate(-0.64)"/><path d="M160.39,174.51l.21.91h23.76v16H164.29l3.69,16h48.74l3.69-16H200.33v-16h23.76l.21-.91V152.25L201.82,39.87c-3.14-.16-6.3-.25-9.47-.25s-6.32.08-9.47.25L160.39,152.25Zm0,0" transform="translate(-0.64)"/></g></g></svg>