<svg xmlns="http://www.w3.org/2000/svg" viewBox="0 0 415.99 464"><title>Ресурс 29</title><g id="Слой_2" data-name="Слой 2"><g id="Слой_1-2" data-name="Слой 1"><path d="M48,208v10.33a129.41,129.41,0,0,1,40,14.83v-18.6l17.85,3a107.2,107.2,0,0,1,64,36.21,37,37,0,0,1,6.12-3.09V218.52A209,209,0,0,0,119.34,74.92,160,160,0,0,0,48,208Zm72-64a16,16,0,1,1-16,16,16,16,0,0,1,16-16Zm0,0" transform="translate(-0.01)"/><path d="M192,248h32v-29.5a224.84,224.84,0,0,1,58.54-152,159.16,159.16,0,0,0-149.09,0,224.85,224.85,0,0,1,58.54,152Zm0,0" transform="translate(-0.01)"/><path d="M79.56,45.23A96.58,96.58,0,0,0,97.68,70.37l.37.37A175.78,175.78,0,0,1,117.73,57,112.82,112.82,0,0,1,97.24,28.4,51.22,51.22,0,0,0,23.46,8.31,66.78,66.78,0,0,1,79.56,45.23Zm0,0" transform="translate(-0.01)"/><path d="M53.07,119.27l2.73.54A176.84,176.84,0,0,1,86,81.32,112.5,112.5,0,0,1,65.26,52.39,51.06,51.06,0,0,0,19.34,24,51.29,51.29,0,0,0,6.94,25.7,50.84,50.84,0,0,0,0,51.34v3.2a66,66,0,0,0,53.06,64.73Zm0,0" transform="translate(-0.01)"/><path d="M240,250.65a37.61,37.61,0,0,1,6.12,3.09,107.26,107.26,0,0,1,64-36.21l17.87-3v18.6a129.21,129.21,0,0,1,40-14.83V208A159.92,159.92,0,0,0,296.66,74.93,208.94,208.94,0,0,0,240,218.52ZM296,144a16,16,0,1,1-16,16,16,16,0,0,1,16-16Zm0,0" transform="translate(-0.01)"/><path d="M226.39,264H189.61a21.61,21.61,0,0,0-16.87,35.11l16.63,20.77A21.46,21.46,0,0,0,206.23,328h3.53a21.46,21.46,0,0,0,16.87-8.11l16.62-20.78A21.6,21.6,0,0,0,226.39,264ZM200,296H184V280h16Zm32,0H216V280h16Zm0,0" transform="translate(-0.01)"/><path d="M318.33,70.37a96.62,96.62,0,0,0,18.12-25.14A66.83,66.83,0,0,1,392.54,8.29a51.22,51.22,0,0,0-73.78,20.09A112.15,112.15,0,0,1,298.28,57,176.85,176.85,0,0,1,318,70.72Zm0,0" transform="translate(-0.01)"/><path d="M380.43,263.16l-8.57-4.29L392,232a112.71,112.71,0,0,0-67.2,22.4L312,264V233.45a91.35,91.35,0,0,0-54.31,31.38A37.34,37.34,0,0,1,264,285.61c0,1-.17,1.93-.25,2.91A63.92,63.92,0,0,1,278.16,412l2.62,1.57a73.43,73.43,0,0,0,111.23-63,130.56,130.56,0,0,0-6.72-41.42l-5.48-16.43L413.18,301a64.64,64.64,0,0,0-32.75-37.88Zm0,0" transform="translate(-0.01)"/><path d="M96,352a64.05,64.05,0,0,1,56.25-63.48c-.08-1-.25-1.92-.25-2.91a37.35,37.35,0,0,1,6.31-20.79A91.36,91.36,0,0,0,104,233.44V264l-12.8-9.6A112.72,112.72,0,0,0,24,232l20.15,26.86-8.57,4.29A64.63,64.63,0,0,0,2.84,301l33.37-8.34-5.48,16.45A130.67,130.67,0,0,0,24,350.56a73.43,73.43,0,0,0,111.23,63l2.62-1.57A64.05,64.05,0,0,1,96,352Zm0,0" transform="translate(-0.01)"/><path d="M304,352a48,48,0,0,0-44.94-47.84,36.77,36.77,0,0,1-3.32,5l-16.6,20.77A37.41,37.41,0,0,1,209.77,344h-3.53a37.4,37.4,0,0,1-29.37-14.12l-16.62-20.77a37.07,37.07,0,0,1-3.31-5,48,48,0,1,0,44.21,72.46L208,365.19l6.85,11.43A48,48,0,0,0,304,352Zm0,0" transform="translate(-0.01)"/><path d="M409.07,25.69a50.44,50.44,0,0,0-58.31,26.69A112.13,112.13,0,0,1,330,81.31a177.38,177.38,0,0,1,30.23,38.49l2.74-.54A65.62,65.62,0,0,0,409,84.05a66.32,66.32,0,0,0,7-29.51v-3.2a51,51,0,0,0-6.93-25.65Zm0,0" transform="translate(-0.01)"/><path d="M216,464h9.75l12.64-50.53A62.94,62.94,0,0,1,216,401.87Zm0,0" transform="translate(-0.01)"/><path d="M190.25,464H200V401.86a63,63,0,0,1-22.39,11.61Zm0,0" transform="translate(-0.01)"/></g></g></svg>