<svg xmlns="http://www.w3.org/2000/svg" viewBox="0 0 480 472"><title>Ресурс 28</title><g id="Слой_2" data-name="Слой 2"><g id="Слой_1-2" data-name="Слой 1"><path d="M101.79,152a21.78,21.78,0,0,1,16.74,7.84l28.31,34A87.18,87.18,0,0,1,163.2,177.6c2.91-2.19,6-4.24,9.12-6.19A439.57,439.57,0,0,1,111,70.75l-28.43-65A9.67,9.67,0,0,0,64,9.67v3.67a27,27,0,0,0,.52,5.26,220.4,220.4,0,0,0,27.1,70.1l2.62,4.37A12.32,12.32,0,0,1,96,99.41v.32a12.28,12.28,0,0,1-19.1,10.22A137.11,137.11,0,0,1,41.39,75.56l-22.5-31.5A9.68,9.68,0,0,0,11,40H9.67A9.67,9.67,0,0,0,0,49.67a26.76,26.76,0,0,0,2.83,12l3.28,6.56A443.65,443.65,0,0,0,48,136l-21.6,28.8A12,12,0,0,0,36,184h.82a11.93,11.93,0,0,0,6-1.59L91,154.86A21.88,21.88,0,0,1,101.79,152Zm0,0"/><path d="M206.74,353a64.27,64.27,0,0,1,9-4.38l-2.31-32.37A595.19,595.19,0,0,0,187.72,181a110.23,110.23,0,0,0-14.92,9.41A72.37,72.37,0,0,0,144,248a112.69,112.69,0,0,0,14.82,55.82,243.76,243.76,0,0,1,24.82,61.78l2.08,8.32a63.18,63.18,0,0,1,21-20.89ZM192,280H176V264h16Zm0,0"/><path d="M98.73,228.43A34,34,0,0,0,113.89,232h15.75A88.3,88.3,0,0,1,135,214.18L80.22,202a33.66,33.66,0,0,0,18.51,26.41Zm0,0"/><path d="M231.48,344.54a64,64,0,0,1,7.84-.53h1.36a64.06,64.06,0,0,1,7.84.53l2.1-29.4a610.93,610.93,0,0,1,26.91-140.54,110.19,110.19,0,0,0-75.07,0,610.13,610.13,0,0,1,26.91,140.54Zm0,0"/><path d="M113.89,248A50.07,50.07,0,0,1,80,234.75v.75a28.45,28.45,0,0,0,21.57,27.65,29.32,29.32,0,0,0,6.91.84H129a128.65,128.65,0,0,1-1-16h-14.1Zm0,0"/><path d="M244.43,429.27l11.05-22.11a5,5,0,0,0-4.43-7.16H228.95a5,5,0,0,0-4.95,4.94,4.9,4.9,0,0,0,.52,2.21l11.05,22.11c1.69,3.38,7.16,3.38,8.85,0Zm0,0"/><path d="M245.84,451.87,240,448.95l-5.85,2.92a39.28,39.28,0,0,1-17.5,4.14c-.81,0-1.59-.1-2.39-.14C219,464,227,472,240,472s20.87-8,25.63-16.15c-.77,0-1.52.14-2.29.14a39.33,39.33,0,0,1-17.5-4.13Zm0,0"/><path d="M381.27,228.43A33.68,33.68,0,0,0,399.78,202L345,214.19A88.28,88.28,0,0,1,350.37,232h15.75a34,34,0,0,0,15.15-3.57Zm0,0"/><path d="M366.11,248H352a128.66,128.66,0,0,1-1,16H371.5a29.15,29.15,0,0,0,6.93-.85A28.45,28.45,0,0,0,400,235.51v-.75A50,50,0,0,1,366.11,248Zm0,0"/><path d="M307.19,190.4A110.73,110.73,0,0,0,292.28,181a595.63,595.63,0,0,0-25.72,135.28l-2.31,32.37a60.86,60.86,0,0,1,30,25.27l2.08-8.32a243.7,243.7,0,0,1,24.83-61.79A112.67,112.67,0,0,0,336,248a72.37,72.37,0,0,0-28.81-57.6ZM312,280H296V264h16Zm0,0"/><path d="M265,366.74A47.41,47.41,0,0,0,240.68,360h-1.36A47.31,47.31,0,0,0,192,407.32v4.5a32,32,0,0,0,5.43,17.88,23.71,23.71,0,0,0,25.64,9.36,21.7,21.7,0,0,1-1.8-2.62l-11.06-22.12A21,21,0,0,1,228.95,384h22.11a21,21,0,0,1,18.74,30.31l-11.06,22.11a19.93,19.93,0,0,1-1.81,2.63,23.73,23.73,0,0,0,25.65-9.35A32,32,0,0,0,288,411.82v-4.5a47.6,47.6,0,0,0-23-40.58Zm0,0"/><path d="M470.33,40H469a9.68,9.68,0,0,0-7.87,4l-22.5,31.5a137.22,137.22,0,0,1-35.51,34.39A12.29,12.29,0,0,1,384,99.72V99.4a12.36,12.36,0,0,1,1.75-6.32l2.63-4.37a220.24,220.24,0,0,0,27.11-70.1,26.41,26.41,0,0,0,.53-5.25V9.67a9.67,9.67,0,0,0-18.54-3.88L369,70.75a439.57,439.57,0,0,1-61.36,100.66c3.15,2,6.22,4,9.12,6.19a87.43,87.43,0,0,1,16.35,16.21l28.31-34a21.8,21.8,0,0,1,27.56-5l48.21,27.55a12,12,0,0,0,6,1.58H444a12,12,0,0,0,9.6-19.2L432,136a443.66,443.66,0,0,0,41.89-67.78l3.28-6.56a26.85,26.85,0,0,0,2.83-12A9.67,9.67,0,0,0,470.33,40Zm0,0"/></g></g></svg>