<svg xmlns="http://www.w3.org/2000/svg" viewBox="0 0 464 464"><title>Ресурс 25</title><g id="Слой_2" data-name="Слой 2"><g id="Слой_1-2" data-name="Слой 1"><path d="M120.38,38A194.94,194.94,0,0,0,25,1.74L5.27,0A5.28,5.28,0,0,0,0,5.27,5.38,5.38,0,0,0,.44,7.38l1,2.32,1.18.12A211,211,0,0,1,107.71,50.59,39.79,39.79,0,0,1,120.38,38Zm0,0"/><path d="M70.69,139l-.09,0L100.85,65.5A194.64,194.64,0,0,0,8.76,26.81L62.63,152.5A73.39,73.39,0,0,1,70.69,139Zm0,0"/><path d="M69.23,229.43a74,74,0,0,1-4.76-8,240.6,240.6,0,0,1-37,72.9l116.14,82-4.76-13.08A577.34,577.34,0,0,0,69.23,229.43Zm0,0"/><path d="M191,298.18,168.57,148.43,154.93,138.2A51.39,51.39,0,0,0,124.34,128a50.71,50.71,0,0,0-39.8,19.13A57.42,57.42,0,0,0,72,182.89v4.55a57,57,0,0,0,10.34,32.83,593,593,0,0,1,67,125.73A88.36,88.36,0,0,1,191,298.18ZM152,224H136a32,32,0,0,1-32-32V176h16a32,32,0,0,1,32,32Zm0,0"/><path d="M161.39,362a76.15,76.15,0,0,1,51.56,49c.47-.28,1-.5,1.44-.82L232,398.38l17.61,11.75c.46.31,1,.53,1.44.82a76.15,76.15,0,0,1,51.56-49,72,72,0,0,0-141.22,0Zm0,0"/><path d="M96.5,118.09a66.83,66.83,0,0,1,68,7.31l10.73,8L232,76.69l56.75,56.75,10.73-8a66.83,66.83,0,0,1,68-7.31L344.76,62.86A23.93,23.93,0,0,0,322.57,48H141.43a23.92,23.92,0,0,0-22.19,14.86Zm0,0"/><path d="M270.31,208H193.69l2.4,16h71.82Zm0,0"/><path d="M263.11,256l2.4-16h-67l2.4,16H216v16H203.29l3,19.85a87.77,87.77,0,0,1,51.45,0l3-19.85H232V256Zm0,0"/><path d="M277.51,160l2-13.19L232,99.31l-47.5,47.5,2,13.19H240v16H188.89l2.4,16h81.42l2.4-16H256V160Zm0,0"/><path d="M394.77,229.43a577.65,577.65,0,0,0-69.59,133.75l-4.76,13.08,116.14-82a240.41,240.41,0,0,1-37-72.9,73.29,73.29,0,0,1-4.76,8.05Zm0,0"/><path d="M393.4,139l-.09,0a73.23,73.23,0,0,1,8.06,13.51L455.24,26.8a194.7,194.7,0,0,0-92.09,38.69Zm0,0"/><path d="M392,187.44v-4.55a57.46,57.46,0,0,0-12.54-35.75A50.71,50.71,0,0,0,339.66,128a51.37,51.37,0,0,0-30.59,10.19l-13.64,10.23L273,298.18A88.34,88.34,0,0,1,314.63,346a592.6,592.6,0,0,1,67-125.73A57,57,0,0,0,392,187.44ZM360,192a32,32,0,0,1-32,32H312V208a32,32,0,0,1,32-32h16Zm0,0"/><path d="M458.73,0h-2.06L439,1.74A194.94,194.94,0,0,0,343.61,38a39.82,39.82,0,0,1,12.68,12.54A210.82,210.82,0,0,1,461.38,9.82l1.2-.12,1-2.34A5.43,5.43,0,0,0,464,5.27,5.28,5.28,0,0,0,458.73,0Zm0,0"/><path d="M240.73,423.44,232,417.62l-8.73,5.82a50.6,50.6,0,0,1-42,6.62C188.05,444.6,202.63,464,232,464c29.56,0,44.09-19.43,50.84-34a50.64,50.64,0,0,1-42.1-6.61Zm0,0"/><path d="M197.69,415.8A60.15,60.15,0,0,0,160,378.22V381a35,35,0,0,0,35,35c.91,0,1.81-.13,2.7-.2Zm0,0"/><path d="M266.31,415.8c.9.07,1.79.2,2.7.2a35,35,0,0,0,35-35v-2.79a60.17,60.17,0,0,0-37.69,37.58Zm0,0"/></g></g></svg>