<svg xmlns="http://www.w3.org/2000/svg" viewBox="0 0 367.21 463"><title>Ресурс 24</title><g id="Слой_2" data-name="Слой 2"><g id="Слой_1-2" data-name="Слой 1"><path d="M312.14,144.26a69.16,69.16,0,0,0-112.64-6.54l-15,18.75-15-18.75a69.16,69.16,0,0,0-112.66,6.55l-1.25,2a97.19,97.19,0,0,0,3.33,108,60.08,60.08,0,0,0,48.8,25.11h5.66a48,48,0,0,1,31.83-37.35l5.43-43.45a31.77,31.77,0,0,1-50.95-36.23,54.8,54.8,0,0,0-16.83-2.71H80.72v-16h2.14a73.09,73.09,0,0,1,40.55,12.58c13.24,8.82,34.6,19.35,61.09,19.35s47.85-10.52,61.09-19.35a73.09,73.09,0,0,1,40.55-12.58h2.14v16h-2.14a54.83,54.83,0,0,0-16.83,2.71,31.48,31.48,0,0,1,3,13.25,31.82,31.82,0,0,1-53.94,23L223.79,242a48,48,0,0,1,31.83,37.35h5.66a60.08,60.08,0,0,0,48.8-25.11,97.14,97.14,0,0,0,3.33-108Zm0,0" transform="translate(-0.89 0)"/><path d="M208.44,335.27v-16A31.93,31.93,0,1,0,189.31,262l-4.81,3.64L179.68,262a31.87,31.87,0,1,0-19.14,57.32v16a47.93,47.93,0,0,1-42.23-25.34,110.77,110.77,0,0,0-20.67,38.84,126.88,126.88,0,0,0,173.71,0,110.53,110.53,0,0,0-20.68-38.86,47.94,47.94,0,0,1-42.23,25.33Zm-39.91-39.91h-16v-16h16Zm31.93-16h16v16h-16Zm0,0" transform="translate(-0.89 0)"/><path d="M207.39,239.55l-6.16-49.29a115.28,115.28,0,0,1-16.73,1.32,116.42,116.42,0,0,1-16.73-1.32l-6.16,49.29A47.1,47.1,0,0,1,184.5,246a47.15,47.15,0,0,1,22.9-6.48Zm0,0" transform="translate(-0.89 0)"/><path d="M118.6,383c11.93,15.48,32.45,32.06,65.89,32.06,33,0,53.54-16.52,65.57-32A142.66,142.66,0,0,1,118.6,383Zm0,0" transform="translate(-0.89 0)"/><path d="M366.71,270.21a656.61,656.61,0,0,1-6.59-92.71v-1.87C360.12,78.79,281.34,0,184.5,0S8.87,78.79,8.87,175.63v1.87a656.6,656.6,0,0,1-6.59,92.71,138.74,138.74,0,0,0,59,134.11l54.86,37.55a121.08,121.08,0,0,0,136.7,0l54.86-37.55a138.7,138.7,0,0,0,59-134.11Zm-43.64-6.65a76.07,76.07,0,0,1-61.79,31.8h-2A126.65,126.65,0,0,1,288,349.3l1.11,4.39-3.2,3.19c-2.05,2.05-4.24,3.89-6.37,5.8-3.11,8.77-26.74,68.39-95.06,68.39s-91.89-59.45-95-68.34c-2-1.8-4.08-3.52-6-5.45l-3.19-3.19.7-4.79a126.8,126.8,0,0,1,28.71-53.95h-2a76.07,76.07,0,0,1-61.79-31.8A113.16,113.16,0,0,1,42,137.82l1.25-2A85.12,85.12,0,0,1,182,127.73l2.54,3.18,2.53-3.17a85.12,85.12,0,0,1,138.66,8.07l1.27,2a113.11,113.11,0,0,1-3.88,125.72Zm0,0" transform="translate(-0.89 0)"/></g></g></svg>