<svg xmlns="http://www.w3.org/2000/svg" viewBox="0 0 440.48 464"><title>Ресурс 21</title><g id="Слой_2" data-name="Слой 2"><g id="Слой_1-2" data-name="Слой 1"><path d="M56.07,116.77a124.27,124.27,0,0,1,16.28-26,160.45,160.45,0,0,1,43.78-37.24A64,64,0,0,0,68.26,32,63.16,63.16,0,0,0,31.68,43.51a63.75,63.75,0,0,0,24.39,73.26Zm0,0" transform="translate(-0.01)"/><path d="M260.25,349.59V368h-16V341.88a54.39,54.39,0,0,1-4.63-3.6,35.68,35.68,0,0,1-38.74,0,57.34,57.34,0,0,1-4.63,3.6V368h-16v-18.4a55.76,55.76,0,0,1-16,2.4c-1.44,0-2.86-.11-4.27-.22L185.66,416h69.18l25.68-64.21c-1.41.1-2.83.22-4.27.22a55.7,55.7,0,0,1-16-2.4Zm0,0" transform="translate(-0.01)"/><path d="M103.75,81.91a15.92,15.92,0,0,0,26.41-17.64,143.65,143.65,0,0,0-26.41,17.64Zm0,0" transform="translate(-0.01)"/><path d="M130.63,46.12a159.4,159.4,0,0,1,20.23-7.52A63.81,63.81,0,0,0,46.83,19a79.4,79.4,0,0,1,83.8,27.14Zm0,0" transform="translate(-0.01)"/><path d="M140.25,144a36.79,36.79,0,0,0-28.8,13.86l3.92,2.61a45.56,45.56,0,0,0,49.75,0l3.92-2.61A36.76,36.76,0,0,0,140.25,144Zm0,0" transform="translate(-0.01)"/><path d="M276.25,256a40,40,0,0,0-25.9,9.64,26.67,26.67,0,0,1,14.07,38.95L251.34,326.4c-.11.19-.25.35-.37.53A40,40,0,1,0,276.25,256Zm0,0" transform="translate(-0.01)"/><path d="M189.52,326.93c-.11-.19-.25-.34-.37-.53l-13.09-21.82a26.68,26.68,0,0,1,14.08-38.93,40,40,0,1,0-.62,61.29Zm0,0" transform="translate(-0.01)"/><path d="M372.25,16a80,80,0,0,1,21.42,3,63.81,63.81,0,0,0-104,19.62,159.45,159.45,0,0,1,20.23,7.52A79.83,79.83,0,0,1,372.25,16Zm0,0" transform="translate(-0.01)"/><path d="M260.25,64a16,16,0,0,0,15.58-12.49A144.86,144.86,0,0,0,244.25,48a16,16,0,0,0,16,16Zm0,0" transform="translate(-0.01)"/><path d="M324.37,53.57a160.49,160.49,0,0,1,43.78,37.24,123.9,123.9,0,0,1,16.28,26,63.74,63.74,0,0,0,24.39-73.27A63.22,63.22,0,0,0,372.25,32a64,64,0,0,0-47.88,21.57Zm0,0" transform="translate(-0.01)"/><path d="M325.13,160.47l3.92-2.61a36.86,36.86,0,0,0-57.6,0l3.92,2.61a45.57,45.57,0,0,0,49.76,0Zm0,0" transform="translate(-0.01)"/><path d="M378,309.37a252.86,252.86,0,0,1,54,25.41l8.49-13.56a268.2,268.2,0,0,0-60.3-27.92c0-.27.06-.54.06-.82a65.91,65.91,0,0,0-9.4-33.93l-4.83-8A124.21,124.21,0,0,1,351.51,265l-6.14,5.13-10.25-12.3,6.15-5.13a108.11,108.11,0,0,0,24.07-137.89A31.7,31.7,0,0,1,348.25,120a32,32,0,0,1-32-32,31.59,31.59,0,0,1,5.34-17.35,143.32,143.32,0,0,0-30.43-14.8A31.94,31.94,0,0,1,228.25,48H196.43a144.32,144.32,0,0,0-51.68,9.71A31.87,31.87,0,0,1,92.12,92.86c-2.5,2.63-5.06,5.23-7.38,8.07A108.31,108.31,0,0,0,99.23,252.72l6.15,5.13-10.25,12.3L89,265a124.86,124.86,0,0,1-14.5-14.51l-4.82,8a65.9,65.9,0,0,0-9.4,33.93c0,.25,0,.5,0,.76a270,270,0,0,0-60.3,28L8.5,334.78a253.26,253.26,0,0,1,54-25.3,66,66,0,0,0,24,35.65,310,310,0,0,0-55.94,57.09l-.73,1,12.8,9.59.73-1A294.26,294.26,0,0,1,101,354.3a120.36,120.36,0,0,1,45.6,54.47l16.85,40.45A24,24,0,0,0,185.6,464h69.33a24,24,0,0,0,22.16-14.78l16.85-40.45a120.32,120.32,0,0,1,45.71-54.55,293.59,293.59,0,0,1,57.48,57.59l.73,1,12.8-9.59-.73-1A309,309,0,0,0,354,345.11a66,66,0,0,0,24-35.73ZM348.25,128h16v16h-16Zm-120-16h16v16h-16Zm-32-48h16V80h-16Zm-40,32h16v16h-16Zm-72,16h16v16h-16ZM299.68,347l-34,85H174.84l-34-85,.2-.08a55.9,55.9,0,1,1,47.23-101.33V217.68a102.91,102.91,0,0,0-10.88-46.15L174,173.77a61.79,61.79,0,0,1-67.5,0L89.16,162.21l7.13-10.69a52.84,52.84,0,0,1,87.93,0,118.92,118.92,0,0,1,20,66.16v39.2a56.31,56.31,0,0,1,5.82,7.11h20.36a56,56,0,0,1,5.82-7.11v-39.2a118.92,118.92,0,0,1,20-66.16,52.84,52.84,0,0,1,87.93,0l7.13,10.69L334,173.77a61.79,61.79,0,0,1-67.5,0l-3.37-2.25a102.84,102.84,0,0,0-10.88,46.16v27.86a55.9,55.9,0,1,1,47.23,101.33Zm0,0" transform="translate(-0.01)"/><path d="M334.51,80a15.87,15.87,0,0,0,21.83,21.74c-.2-.25-.37-.52-.57-.77a145.5,145.5,0,0,0-21.26-21Zm0,0" transform="translate(-0.01)"/><path d="M189.78,296.33l13.09,21.83a20.27,20.27,0,0,0,34.75,0l13.09-21.83A10.79,10.79,0,0,0,241.45,280h-42.4a10.8,10.8,0,0,0-9.27,16.34Zm0,0" transform="translate(-0.01)"/></g></g></svg>