<svg xmlns="http://www.w3.org/2000/svg" viewBox="0 0 415.11 463"><title>Ресурс 20</title><g id="Слой_2" data-name="Слой 2"><g id="Слой_1-2" data-name="Слой 1"><path d="M208.5,397.53l1.76,1.17a10.9,10.9,0,0,0,6.23-2.86l13.34-13.35a8.95,8.95,0,0,0-6.33-15.28h-30a8.95,8.95,0,0,0-6.33,15.28l13.34,13.35a10.92,10.92,0,0,0,6.23,2.86Zm0,0" transform="translate(-0.94 0)"/><path d="M76.37,197a132.46,132.46,0,0,1,28.21-51.18l4.93-5.56a132.43,132.43,0,0,1,15.56-14.62,334.17,334.17,0,0,0-90.4-83.14,16.86,16.86,0,0,0-24.58,8l-9.16,23V84.16a122.09,122.09,0,0,0,74,112.21Zm0,0" transform="translate(-0.94 0)"/><path d="M132.29,307.35l18.37-23.61a73.2,73.2,0,0,1,25.91-21V240A234.74,234.74,0,0,0,148.3,128.63a116.4,116.4,0,0,0-26.84,22.2l-4.94,5.57a116.64,116.64,0,0,0-26.83,53l-7,32.84a445.14,445.14,0,0,0-9.86,93.06A56,56,0,0,0,117.4,390a72.41,72.41,0,0,1-4.7-25.56,93.47,93.47,0,0,1,19.59-57.11Zm4.35-99.79a16,16,0,1,1-16,16,16,16,0,0,1,16-16Zm0,0" transform="translate(-0.94 0)"/><path d="M192.53,257.23a72.72,72.72,0,0,1,31.93,0V240a250.68,250.68,0,0,1,30.05-118.65,115.42,115.42,0,0,0-92,0A250.68,250.68,0,0,1,192.53,240Zm0,0" transform="translate(-0.94 0)"/><path d="M43.14,28.93A349.65,349.65,0,0,1,138,116.29,133.72,133.72,0,0,1,155.39,107,343.82,343.82,0,0,0,41.05,5.56L36.17,2.89A23.84,23.84,0,0,0,.94,23.83V35.35a32.75,32.75,0,0,1,42.2-6.42Zm0,0" transform="translate(-0.94 0)"/><path d="M216.8,422.26l-8.3-5.54-8.3,5.53a52.35,52.35,0,0,1-29.13,8.82H171C175.17,443.25,185.46,463,208.5,463s33.34-19.75,37.51-31.93h-.07a52.35,52.35,0,0,1-29.14-8.81Zm0,0" transform="translate(-0.94 0)"/><path d="M392.23,0a23.9,23.9,0,0,0-11.4,2.9l-4.89,2.67A343.77,343.77,0,0,0,261.6,107,132.46,132.46,0,0,1,279,116.29a350.07,350.07,0,0,1,94.89-87.36,32.74,32.74,0,0,1,42.21,6.41V23.83A23.85,23.85,0,0,0,392.23,0Zm0,0" transform="translate(-0.94 0)"/><path d="M391.24,39.91a16.85,16.85,0,0,0-8.93,2.56,333.63,333.63,0,0,0-90.4,83.13,131.87,131.87,0,0,1,15.56,14.63l4.95,5.57A132.44,132.44,0,0,1,340.62,197l1.44-.61a122.08,122.08,0,0,0,74-112.2V73.48l-9.16-23a16.79,16.79,0,0,0-15.65-10.6Zm0,0" transform="translate(-0.94 0)"/><path d="M327.31,209.38a116.6,116.6,0,0,0-26.83-53l-5-5.57a116,116,0,0,0-26.83-22.2A234.63,234.63,0,0,0,240.43,240v22.75a73.11,73.11,0,0,1,25.91,21l18.37,23.61a93.43,93.43,0,0,1,19.59,57.1,72.41,72.41,0,0,1-4.7,25.57,56,56,0,0,0,44.62-54.75,445.73,445.73,0,0,0-9.85-93.07Zm-47,30.1a16,16,0,1,1,16-16,16,16,0,0,1-16,16Zm0,0" transform="translate(-0.94 0)"/><path d="M253.73,293.55a57.32,57.32,0,0,0-90.48,0l-18.37,23.61a77.45,77.45,0,0,0-16.22,47.3,56.13,56.13,0,0,0,16.55,40A36.55,36.55,0,0,0,191.33,409l.07,0c-.73-.6-1.51-1.12-2.18-1.8l-13.35-13.35a24.93,24.93,0,0,1,17.63-42.54h30a24.92,24.92,0,0,1,17.62,42.53l-13.35,13.35a27.33,27.33,0,0,1-2.18,1.8l.07,0a36.55,36.55,0,0,0,46.11-4.57,56.08,56.08,0,0,0,16.56-39.95,77.47,77.47,0,0,0-16.22-47.3Zm0,0" transform="translate(-0.94 0)"/></g></g></svg>