<svg xmlns="http://www.w3.org/2000/svg" viewBox="0 0 448 408.02"><title>Ресурс 19</title><g id="Слой_2" data-name="Слой 2"><g id="Слой_1-2" data-name="Слой 1"><path d="M248,328a24.38,24.38,0,0,0,22-14.75,15.81,15.81,0,0,0-6-1.21,16,16,0,0,0-16,16Zm0,0"/><path d="M215.52,323.3l8.48-4.24,8.47,4.24A31.39,31.39,0,0,1,272,297.15V216a48,48,0,0,0-96,0v81.14a31.38,31.38,0,0,1,39.52,26.15Zm0,0"/><path d="M184,312a16.12,16.12,0,0,0-6,1.21A24.37,24.37,0,0,0,200,328a16,16,0,0,0-16-16Zm0,0"/><path d="M54.27,167l-4.32-3.09A81.19,81.19,0,0,1,16,97.94,57.57,57.57,0,0,1,33,57L44.28,68.29A41.7,41.7,0,0,0,32,97.94a65.19,65.19,0,0,0,27.24,52.93l2,1.42A268.93,268.93,0,0,1,98.56,96.93a166.73,166.73,0,0,1,23-21.62A61.49,61.49,0,0,0,83.34,38c-2.52-.83-5.06-1.59-7.61-2.25l4-15.49c2.9.76,5.79,1.6,8.64,2.56a77.52,77.52,0,0,1,46.52,43.09q6.83-4.32,14-8A93.66,93.66,0,0,0,93.46,7.59,147.74,147.74,0,0,0,46.69,0H36.94l8,16H25.89A68.2,68.2,0,0,0,6.23,18.92L27.31,40l-5.66,5.66A73.48,73.48,0,0,0,0,97.94a97.25,97.25,0,0,0,40.64,79l7.54,5.39c1.88-5.17,3.89-10.28,6.08-15.33Zm0,0"/><path d="M224,56a150.66,150.66,0,0,0-113.39,51.46A253,253,0,0,0,48,274.1v41.81l71.94,51.77A149.44,149.44,0,0,0,222.27,408h3.47a149.44,149.44,0,0,0,102.32-40.34l.8-.65L400,315.91V274.1a253,253,0,0,0-62.61-166.63A150.66,150.66,0,0,0,224,56Zm80,88a16,16,0,1,1-16,16,16,16,0,0,1,16-16Zm-80,8a64.07,64.07,0,0,1,64,64v87.64A40.41,40.41,0,0,1,247.64,344a40.82,40.82,0,0,1-18-4.25L224,337l-5.59,2.8A40.37,40.37,0,0,1,160,303.65V216a64.07,64.07,0,0,1,64-64Zm-80-8a16,16,0,1,1-16,16,16,16,0,0,1,16-16ZM320.63,301.63a120.88,120.88,0,0,1-48.46,74.93,82.84,82.84,0,0,1-96.35,0,120.91,120.91,0,0,1-48.46-74.93l-7.21-36.06,15.69-3.14,7.21,36.05a105,105,0,0,0,42.07,65.06c22.83,16.3,54.93,16.3,77.77,0A105,105,0,0,0,305,298.49l7.21-36.05,15.69,3.14Zm0,0"/><path d="M426.34,45.66,420.69,40l21.08-21.08A68.2,68.2,0,0,0,422.11,16H403.05l8-16H401.3a147.77,147.77,0,0,0-46.77,7.59A93.66,93.66,0,0,0,299,57.9q7.2,3.64,14,8a77.52,77.52,0,0,1,46.52-43.09c2.85-1,5.73-1.81,8.64-2.56l4,15.49c-2.55.66-5.09,1.42-7.6,2.25a61.49,61.49,0,0,0-38.18,37.36,167,167,0,0,1,23,21.62,268.89,268.89,0,0,1,37.34,55.37l2-1.42A65.19,65.19,0,0,0,416,97.94a41.69,41.69,0,0,0-12.28-29.66L415,57a57.59,57.59,0,0,1,17,41,81.19,81.19,0,0,1-33.94,65.95L393.73,167c2.2,5,4.2,10.16,6.08,15.33l7.54-5.39a97.25,97.25,0,0,0,40.64-79,73.45,73.45,0,0,0-21.66-52.28Zm0,0"/></g></g></svg>