<svg xmlns="http://www.w3.org/2000/svg" xmlns:xlink="http://www.w3.org/1999/xlink" viewBox="0 0 464 424"><defs><style>.cls-1{fill:none;}.cls-2{clip-path:url(#clip-path);}</style><clipPath id="clip-path" transform="translate(0 0)"><rect class="cls-1" width="464" height="424"/></clipPath></defs><title>Ресурс 14</title><g id="Слой_2" data-name="Слой 2"><g id="Слой_1-2" data-name="Слой 1"><g class="cls-2"><path d="M200,320a8,8,0,1,1-8-8,8,8,0,0,1,8,8Zm0,0" transform="translate(0 0)"/><path d="M447.41.35,402,10.83a136.57,136.57,0,0,0-78.53,51.06,168.37,168.37,0,0,1,14.35,9.2,152.33,152.33,0,0,1,76.58-43.86l45.4-10.48a28.09,28.09,0,0,1,4.14-.43v-.1c0-.43,0-.78,0-1.13V13.55A13.71,13.71,0,0,0,447.41.35Zm0,0" transform="translate(0 0)"/><path d="M66,150.26A167.15,167.15,0,0,1,113.55,81,136.35,136.35,0,0,0,46,42.83L1.41,32.54l3.9,46.7a80,80,0,0,0,60.28,70.91Zm0,0" transform="translate(0 0)"/><path d="M49.59,27.23a152.34,152.34,0,0,1,76.58,43.86,167.26,167.26,0,0,1,14.35-9.2A136.55,136.55,0,0,0,62,10.83L16.59.35A13.68,13.68,0,0,0,0,13.55V15.1c0,.39,0,.78,0,1.16v.07a29.06,29.06,0,0,1,4.14.43Zm0,0" transform="translate(0 0)"/></g><path d="M216,211.13V248h32V211.13a302,302,0,0,1,23.36-116.8l13.3-31.91A150.09,150.09,0,0,0,241.27,56H222.73a150.09,150.09,0,0,0-43.39,6.43l13.3,31.91A302,302,0,0,1,216,211.13Zm0,0" transform="translate(0 0)"/><path d="M280,320a8,8,0,1,1-8-8,8,8,0,0,1,8,8Zm0,0" transform="translate(0 0)"/><path d="M152,322.74a37.26,37.26,0,0,0,63.6,26.34l16.4-16.4,16.4,16.4A37.26,37.26,0,0,0,312,322.74,58.81,58.81,0,0,0,253.26,264H210.74A58.81,58.81,0,0,0,152,322.74ZM272,296a24,24,0,1,1-24,24,24,24,0,0,1,24-24Zm-80,48a24,24,0,1,1,24-24,24,24,0,0,1-24,24Zm0,0" transform="translate(0 0)"/><path d="M274.74,376a52.89,52.89,0,0,1-37.65-15.6L232,355.31l-5.09,5.09a53.22,53.22,0,0,1-63,9.15C170.27,393.35,187.15,424,232,424s61.63-30.8,68.06-54.42A52.83,52.83,0,0,1,274.74,376Zm0,0" transform="translate(0 0)"/><path d="M350.44,81A167.09,167.09,0,0,1,398,150.26l.44-.11A80,80,0,0,0,458.7,79.23l3.89-46.7L418,42.83A136.3,136.3,0,0,0,350.44,81Zm0,0" transform="translate(0 0)"/><path d="M394.66,212.68,392,210.3v-3.57A151,151,0,0,0,299.74,67.81l-13.61,32.68A286.14,286.14,0,0,0,264,211.13v37.73a74.8,74.8,0,0,1,64,73.88,52.94,52.94,0,0,1-8.47,28.7c-1.8,20-8.14,40.36-20.19,56.56h17.28a117.52,117.52,0,0,0,83.63-35.43c21.2-21.75,32.46-50,31.7-79.49a110.89,110.89,0,0,0-37.31-80.4ZM312,184a16,16,0,1,1,16-16,16,16,0,0,1-16,16Zm0,0" transform="translate(0 0)"/><path d="M136,322.74a74.8,74.8,0,0,1,64-73.88V211.13a286.16,286.16,0,0,0-22.13-110.64L164.26,67.81A151,151,0,0,0,72,206.73v3.57l-2.66,2.39A110.88,110.88,0,0,0,32,293.09c-.76,29.5,10.5,57.74,31.7,79.49A117.55,117.55,0,0,0,147.38,408H164.5c-12-16.17-18.27-36.51-20-56.55A52.91,52.91,0,0,1,136,322.74ZM152,152a16,16,0,1,1-16,16,16,16,0,0,1,16-16Zm0,0" transform="translate(0 0)"/></g></g></svg>