<svg xmlns="http://www.w3.org/2000/svg" viewBox="0 0 463.99 464"><title>Ресурс 13</title><g id="Слой_2" data-name="Слой 2"><g id="Слой_1-2" data-name="Слой 1"><path d="M213.74,231.53,222.95,296h18.12l9.21-64.47a104.47,104.47,0,0,1,42.51-69.91l12.16-8.69a119.18,119.18,0,0,0-145.89,0l12.16,8.69a104.46,104.46,0,0,1,42.52,69.91Zm0,0" transform="translate(-0.01)"/><path d="M352,273.92V248a119.59,119.59,0,0,0-34.68-84.26l-15.24,10.89a88.38,88.38,0,0,0-36,59.17L261.8,264h3.55a81.36,81.36,0,0,1,47,14.87l2.59-1.3a53.92,53.92,0,0,1,37-3.65ZM312,240H296V224h16Zm0,0" transform="translate(-0.01)"/><path d="M133.57,133.37l6.23,14.95a137.08,137.08,0,0,1,18.61-14.52l-7.61-18.27A190.91,190.91,0,0,0,53.24,14.81,190.45,190.45,0,0,0,20.43,3.36L7.57.14A4.55,4.55,0,0,0,6.47,0H4.54A4.53,4.53,0,0,0,0,4.54,4.45,4.45,0,0,0,.65,6.85c1.73,2.88,3.21,5.89,4.83,8.82a210.29,210.29,0,0,1,22.38,8.57A206.83,206.83,0,0,1,133.57,133.37Zm0,0" transform="translate(-0.01)"/><path d="M279.51,392a39.17,39.17,0,0,0,24.37-8.54l3.65-2.91A54.32,54.32,0,0,0,328,337.93a55,55,0,0,0-16-38.59A65.58,65.58,0,0,0,265.36,280h-5.84l-2.33,16.3a25.66,25.66,0,0,1,17.18,41.56l-23.11,28.89a24.64,24.64,0,0,1-6.19,5.34l3.23,4.31A39.22,39.22,0,0,0,279.51,392Zm0,0" transform="translate(-0.01)"/><path d="M202.21,264l-4.31-30.2a88.44,88.44,0,0,0-36-59.17l-15.24-10.89A119.58,119.58,0,0,0,112,248v25.92a53.83,53.83,0,0,1,37,3.65l2.59,1.3a81.34,81.34,0,0,1,47-14.87ZM168,240H152V224h16Zm0,0" transform="translate(-0.01)"/><path d="M238.77,356.75l23.1-28.88A9.77,9.77,0,0,0,254.23,312H209.77a9.77,9.77,0,0,0-7.62,15.88l23.11,28.87a8.92,8.92,0,0,0,13.51,0Zm0,0" transform="translate(-0.01)"/><path d="M361.5,295.92c-9.84-7.81-24-9.86-35.93-5.43a70.43,70.43,0,0,1-8,102.56l-3.65,2.9a55.09,55.09,0,0,1-27.77,11.5l-7,32.62A73.09,73.09,0,0,0,312,448c44.11,0,80-39.48,80-88,0-26.05-10.54-48.2-30.5-64.07Zm0,0" transform="translate(-0.01)"/><path d="M345.2,139.53l-8.89,21.34A135.69,135.69,0,0,1,364.54,218a172.44,172.44,0,0,0,39.2-46.66,174.34,174.34,0,0,0,18.49-47.23l8.26-35.8a281.25,281.25,0,0,1,17.58-51.67c-1.77.74-3.57,1.41-5.31,2.21A190.91,190.91,0,0,0,345.2,139.53Zm0,0" transform="translate(-0.01)"/><path d="M459.47,0h-1.93a4.58,4.58,0,0,0-1.1.14L443.59,3.35A191.63,191.63,0,0,0,313.2,115.53L305.6,133.8a136.65,136.65,0,0,1,18.61,14.52l6.23-14.95A206.91,206.91,0,0,1,436.14,24.24a210.27,210.27,0,0,1,22.38-8.57c1.62-2.94,3.11-5.94,4.83-8.82A4.46,4.46,0,0,0,464,4.54,4.53,4.53,0,0,0,459.47,0Zm0,0" transform="translate(-0.01)"/><path d="M99.46,218a135.65,135.65,0,0,1,28.24-57.1l-8.89-21.34A191,191,0,0,0,21.24,38.81c-1.73-.79-3.54-1.46-5.31-2.21A280.89,280.89,0,0,1,33.51,88.27l8.26,35.8A172.26,172.26,0,0,0,99.46,218Zm0,0" transform="translate(-0.01)"/><path d="M156.49,380.54l3.63,2.91a39,39,0,0,0,55.58-7l3.24-4.31a24.5,24.5,0,0,1-6.18-5.34l-23.12-28.88a25.67,25.67,0,0,1,17.18-41.57L204.49,280h-5.84A65.58,65.58,0,0,0,152,299.33a55,55,0,0,0-16,38.59,54.31,54.31,0,0,0,20.49,42.61Zm0,0" transform="translate(-0.01)"/><path d="M240,424H224V391.21A55.33,55.33,0,0,1,194.19,407l12.27,57H224V440h16v24h17.53l12.27-57A55.33,55.33,0,0,1,240,391.21Zm0,0" transform="translate(-0.01)"/><path d="M150.13,395.93,146.5,393a70.41,70.41,0,0,1-8.05-102.55c-11.94-4.44-26.09-2.39-35.93,5.44-20,15.86-30.5,38-30.5,64.07,0,48.52,35.89,88,80,88a73,73,0,0,0,32.94-7.94l-7-32.62a55.05,55.05,0,0,1-27.78-11.5Zm0,0" transform="translate(-0.01)"/></g></g></svg>