<svg xmlns="http://www.w3.org/2000/svg" viewBox="0 0 476 379.58"><title>Ресурс 12</title><g id="Слой_2" data-name="Слой 2"><g id="Слой_1-2" data-name="Слой 1"><path d="M222,255.79a16,16,0,0,0-16,16,16.17,16.17,0,0,0,3.2,9.59l9.57,12.78a24,24,0,0,0,38.34,0l9.59-12.78a16.15,16.15,0,0,0,3.18-9.58,16,16,0,0,0-16-16Zm0,0" transform="translate(0 -0.7)"/><path d="M282.18,257.1a65.2,65.2,0,0,1,37.89,22.55,87.78,87.78,0,0,0,60.31-25.79L383.2,251a22.36,22.36,0,0,0,1-30.52l-39.34-45a22.34,22.34,0,0,0-16.81-7.63h-19a22.49,22.49,0,0,0-10,2.37l-22.14,11.07-13.35,60.08a31.93,31.93,0,0,1,18.62,15.65Zm22-67.55a19.28,19.28,0,0,1,27.27,0l10.33,10.33-10.33,10.32a19.28,19.28,0,0,1-27.27,0L293.9,199.89Zm0,0" transform="translate(0 -0.7)"/><path d="M226.87,328.71c-1.1.73-2.27,1.32-3.43,1.94l1.1,3.31a14.18,14.18,0,0,0,26.91,0l1.1-3.31c-1.16-.62-2.34-1.21-3.45-2L238,321.3Zm0,0" transform="translate(0 -0.7)"/><path d="M228.43,239.82h19.13l14.25-64.14L239.16,32.2c-.4,0-.77,0-1.17,0s-.77,0-1.17,0L214.16,175.68Zm0,0" transform="translate(0 -0.7)"/><path d="M422.53,243.4l-4-7.93,54.86-20.58a190.87,190.87,0,0,1-72.75-71.6,133.89,133.89,0,0,1-38.56-12.92l7.32-14.2A118.16,118.16,0,0,0,400.78,127a338.09,338.09,0,0,0,2.79-99.34L328.91,81.94A118.26,118.26,0,0,0,354.47,107L345.14,120a134,134,0,0,1-33.3-34.52l-4.89-7.29,94-68.36c-.53-3-1-6.06-1.6-9.09a41.63,41.63,0,0,0-18,7.31L282.57,78.6l-9.28-13,27-19.31c-9.49-5-24.42-10.89-44.85-13.17l20.66,130.79L291.92,156A38.57,38.57,0,0,1,309.06,152h19a38.31,38.31,0,0,1,28.84,13.09l39.34,45a38.35,38.35,0,0,1-1.75,52.33l-2.82,2.82a103.6,103.6,0,0,1-62.26,29.9c.52,1.19,1.16,2.31,1.6,3.54l13.45,37A218.89,218.89,0,0,0,468,295.89l8-5.59a93.63,93.63,0,0,1-53.47-46.91Zm0,0" transform="translate(0 -0.7)"/><path d="M285.69,274.45a32.14,32.14,0,0,1-6.16,16.47l-9.59,12.79A39.75,39.75,0,0,1,257,314.78l.95.63a25.92,25.92,0,0,0,32.09-3.17l6.18-6.18,11.29,11.29-6.18,6.19a41.15,41.15,0,0,1-29.28,12.13c-1.43,0-2.84-.17-4.25-.31L266.6,339a30.16,30.16,0,0,1-57.21,0l-1.22-3.66a42.63,42.63,0,0,1-4.26.31,41.12,41.12,0,0,1-29.28-12.13l-6.18-6.19,11.29-11.29,6.18,6.18A25.92,25.92,0,0,0,218,315.42l1-.64A39.82,39.82,0,0,1,206,303.71l-9.58-12.79a32.15,32.15,0,0,1-6.16-16.48A49.17,49.17,0,0,0,160,304l-14.4,39.61h4.27a124.41,124.41,0,0,1,88,36.44l.19.2.19-.2a124.39,124.39,0,0,1,88-36.44h4.28L316,304a49.14,49.14,0,0,0-30.32-29.59Zm0,0" transform="translate(0 -0.7)"/><path d="M84.31,265.16l-2.82-2.82A38.31,38.31,0,0,1,79.75,210l39.35-45A38.31,38.31,0,0,1,147.93,152h19A38.59,38.59,0,0,1,184.08,156l15.79,7.89L220.52,33.12c-20.42,2.28-35.35,8.2-44.84,13.17l27,19.31-9.28,13L94.6,8A41.71,41.71,0,0,0,76.64.7c-.61,3-1.07,6.05-1.6,9.09l94,68.36-4.91,7.32A133.63,133.63,0,0,1,130.85,120l-9.33-13a118,118,0,0,0,25.57-25.08L72.42,27.62A338.21,338.21,0,0,0,75.21,127a117.79,117.79,0,0,0,31.34-10.79l7.32,14.2a133.93,133.93,0,0,1-38.56,12.92A190.85,190.85,0,0,1,2.55,214.87l54.87,20.58-4,7.93A93.58,93.58,0,0,1,0,290.28l8,5.59a218.86,218.86,0,0,0,123.54,39.68l13.45-37c.45-1.23,1.09-2.34,1.6-3.54a103.44,103.44,0,0,1-62.27-29.88Zm0,0" transform="translate(0 -0.7)"/><path d="M199.07,181.37,176.93,170.3a22.45,22.45,0,0,0-10-2.37h-19a22.3,22.3,0,0,0-16.81,7.63l-39.34,45a22.35,22.35,0,0,0,1,30.53l2.82,2.82a87.78,87.78,0,0,0,60.31,25.79,65.26,65.26,0,0,1,37.89-22.55,31.89,31.89,0,0,1,18.62-15.65Zm-27.31,28.84a19.28,19.28,0,0,1-27.27,0l-10.33-10.32,10.33-10.33a19.29,19.29,0,0,1,27.27,0l10.32,10.33Zm0,0" transform="translate(0 -0.7)"/></g></g></svg>