<svg xmlns="http://www.w3.org/2000/svg" viewBox="0 0 460 318.28"><title>Ресурс 1</title><g id="Слой_2" data-name="Слой 2"><g id="Слой_1-2" data-name="Слой 1"><path d="M162.08,262.36a7.46,7.46,0,0,0,7.36-6.26L176.61,212a48.11,48.11,0,0,0,10.88-27.68c9.8-2.62,30.23-7.87,39.55-8.8,16.56-1.66,35.81,2.92,53,49.44,5.93,16,11,32.07,11.1,32.23a7.46,7.46,0,0,0,7.11,5.2h37.47a7.46,7.46,0,0,0,7.31-6c2.87-14.22,5.93-29.73,9.16-46.12,12.2,25.15,22.87,47.46,23.06,47.86a7.46,7.46,0,0,0,6.73,4.24h5.6l1.55,3.1a30.66,30.66,0,0,1-10.4,39.16A7.46,7.46,0,1,0,387,317a45.6,45.6,0,0,0,17.06-54.67h2.25a7.47,7.47,0,0,0,5.72-12.24c-1.19-1.44-28.88-35.69-1.8-79.74,25.06-40.76,35.21-60.58,34.74-93,0-1.58-.12-3.14-.26-4.7,8.57-9.9,24.15-41.85,8.71-55.62A16.71,16.71,0,0,0,441,13c-9.5.6-19.82,7.76-26,14.71-11-5.87-24.52-8.93-40-8.93-16.56,0-29.08,3.49-38.42,8.17-6.24-6.7-16.16-13.37-25.31-13.95a17.31,17.31,0,0,0-9.6,2C299.3,14,276.76,4.09,243.37.93A203.23,203.23,0,0,0,116.23,30.56,139.24,139.24,0,0,0,68.91,45.75c-23.69,12.57-54.38,38-66,88.07-2.24,9.61-9.06,38.85,11.87,70.9A7.46,7.46,0,0,0,21,208.09h.44A7.46,7.46,0,0,0,27.66,204c7.71-15.5,21.68-38.26,34.77-51.31.78,6.56,1.9,13.29,3.4,20.2,10.17,46.68,33.11,84.38,34.08,86a7.46,7.46,0,0,0,6.36,3.56h55.82ZM441.81,25.91a3.74,3.74,0,0,1,3,.81c4.93,4.39,1,18.55-4.32,28.85A55.35,55.35,0,0,0,428.89,38c-1-1-2-2-3.13-2.91,4.45-4.51,11.18-8.9,16-9.21Zm-131.38,0c4.49.29,10.58,4.05,15,8.18a56.6,56.6,0,0,0-5,4.57,54.88,54.88,0,0,0-10,14.23c-4.58-9.94-7.54-22.15-3-26.17A3.74,3.74,0,0,1,310.42,25.91ZM20.91,185c-8.47-19.2-6.25-36.06-3.52-47.78,8.29-35.56,27.8-61.8,58-78a125.24,125.24,0,0,1,13.88-6.37C70.18,74.15,60.7,101.63,61.17,134.27,44.75,145.88,29.4,170,20.91,185Zm121.25,62.47-2.47-10.24A107.24,107.24,0,0,0,159,227.48l-3.26,20Zm187.49,0h-5.14l.36-73.42a7.46,7.46,0,0,0-7.42-7.49h0A7.46,7.46,0,0,0,310,174l-.36,73.49H303.7c-2-6.15-5.65-16.93-9.64-27.7-16.07-43.39-37.85-62.16-68.51-59.1C211.84,162,179.39,171,178,171.41a7.46,7.46,0,0,0-5.44,7.65c2,32.78-43.28,46-43.73,46.11a7.46,7.46,0,0,0-5.25,8.93l3.21,13.35H110.56c-5.81-10.31-22.37-41.78-30.23-78.11-12.43-57.46,1.81-99.58,42.32-125.21l.05,0c36-22.74,75.91-32.29,118.69-28.36a191.31,191.31,0,0,1,51.49,11.81c-3.06,14,5.71,33,12.45,42.38a51.82,51.82,0,0,0-.38,7.78h0c.54,19.59,2.52,43.22,19.31,76C328.85,162.6,335,175,341.39,188l-11.75,59.4Zm67.91-84.87c-17.11,27.83-15.43,52.7-11,68.65a86.47,86.47,0,0,0,6.33,16.22h-6.16c-7.7-16.08-35.34-73.62-49.17-100.59-15.36-30-17.15-50.8-17.67-69.57h0a39.27,39.27,0,0,1,11.22-28.23C340.85,39,356,33.7,375,33.7c40.16,0,54.8,22.68,55.11,43.9.4,27.2-7,43.4-32.53,85Z"/><path d="M355.75,127.21a7.47,7.47,0,1,0,5.28,2.19A7.5,7.5,0,0,0,355.75,127.21Z"/><path d="M394.9,127.21a7.47,7.47,0,1,0,5.27,2.19A7.49,7.49,0,0,0,394.9,127.21Z"/></g></g></svg>