<svg xmlns="http://www.w3.org/2000/svg" xmlns:xlink="http://www.w3.org/1999/xlink" viewBox="0 0 368 332.91"><defs><style>.cls-1{fill:none;}.cls-2{clip-path:url(#clip-path);}</style><clipPath id="clip-path" transform="translate(0 -0.09)"><rect class="cls-1" y="0.12" width="368.88" height="333.84"/></clipPath></defs><title>Ресурс 20</title><g id="Слой_2" data-name="Слой 2"><g id="Слой_1-2" data-name="Слой 1"><g class="cls-2"><path d="M23.53,163.67c0-6.31,1.9-11.81,5.63-14.7,4.86-3.77,12.51-4.59,19.27-4.32q-1.51,2.71-2.81,5.65C19.82,209.44,72.79,324.66,75.05,329.53A6,6,0,0,0,80.49,333h33.19a6,6,0,0,0,5.94-5.22L129,255.46a40.56,40.56,0,0,0,8.32-19.24s41.32,1.8,54.62,5.15c8.53,2.15,11.66,13.47,15.31,23.69,6,16.82,15.75,62.71,15.84,63.16A6,6,0,0,0,229,333H268.1a6,6,0,0,0,5.84-4.63L303.66,202a6,6,0,0,0,9,.52c20.86-21.13,11.73-54.57,6.38-68.93,5.42-13.47,8.7-28,8.7-39.48a35.52,35.52,0,0,0-1.82-11.62h12.55A29.54,29.54,0,0,0,365.89,42c-.05-.13-.11-.25-.17-.38L347.32,3.48a6,6,0,0,0-11.4,2.6V30.93a8.42,8.42,0,0,1-8.39,8.41c-7.53,0-15.84,0-24.69-.11-14.76-.14-23.78,4.56-29.15,9.39-5.28-4.75-14.45-9.39-28.81-9.39-8.86.09-17.5.13-25,.11a8.42,8.42,0,0,1-8.39-8.41V6.09a6,6,0,0,0-11.4-2.6L181.68,41.64c-.06.12-.11.25-.16.38a29.48,29.48,0,0,0-1.08,18.67c-1.7.81-3.41,1.7-5.15,2.7-9.16,5.27-16.21,11-23.68,17.07-15,12.18-32,26-72.08,39a54.22,54.22,0,0,0-22.8,14c-8.91-1.26-24.51-2-34.9,6.07-6.49,5-9.9,12.4-10.18,21.93a14.18,14.18,0,0,0-7.26,5.12c-9.49,12.55-1.48,26.5,4.08,32.12a6,6,0,0,0,7.2,1c7-3.92,18.64-15.14,12.69-29.56h0a15.42,15.42,0,0,0-4.83-6.41Zm-8.09,9.18c.68,0,1.41.76,1.84,1.8,1.94,4.7-.67,8.72-3.33,11.33-1.82-3.28-3.21-8,0-12.23a2,2,0,0,1,1.48-.9ZM298.77,147a14.44,14.44,0,0,0-6.18-8.28,19.82,19.82,0,0,0-8.79-2.56L290,110.94,315.6,98.16c-1,15.32-7.63,34.94-16.83,48.85ZM251.51,73.78l6.64,27L235.31,89.33c.92-5,4.25-11.73,16.2-15.54ZM235.14,98.18l25.53,12.77,6.2,25.15c-4.14.33-7.91,1.32-10.85,4.24a15.12,15.12,0,0,0-3.62,6.1q-2.16-3.27-4.21-7.07c-7.09-13.15-12.09-29.1-13-41.2Zm39.8,44.17c5.37,0,11.34,0,14.3,1.83,1.66,1,3.78,3.15,4.36,9.7-5.62,6.47-11.88,10.59-18.26,10.59-5.56,0-11.82-4-17.85-11.13.39-4,1.39-6.83,3-8.46,2.61-2.59,8.78-2.54,14.42-2.53Zm40.48-53-22.88,11.44L299.2,73.7c12.11,3.76,15.35,10.44,16.21,15.61ZM275,135.6,259.29,72a99.21,99.21,0,0,1,16.05-1.16,101.94,101.94,0,0,1,16.06,1.13L275.71,135.6Zm-82.4-89,6.94-14.41a20.43,20.43,0,0,0,20.32,19.09c7.58,0,15.93,0,24.83-.11,12.84-.15,19.34,4.22,22.51,7.83-13.47.83-23.73,3.8-31.18,9a32.17,32.17,0,0,0-3.07,2.45h-24a17.55,17.55,0,0,1-16.36-23.89ZM108.41,321h-4.91V276a90,90,0,0,0,11.73-7.27Zm110.13-60c-4.16-11.65-9.46-28-23.87-31.33-15.31-3.52-62.55-6-62.55-6a6,6,0,0,0-6.55,6.34c1.41,22.65-30.11,36.54-30.43,36.68a6,6,0,0,0-3.63,5.51V321H84.37c-8.59-19.59-49.09-117-27.77-165.91,5.35-12.27,14.06-20.2,26.61-24.27,42.23-13.66,60.14-28.22,75.95-41.06,7.09-5.75,13.77-11.19,22.1-16,1.55-.89,3.09-1.68,4.59-2.39a29.5,29.5,0,0,0,23.09,11.13h15.94A34.35,34.35,0,0,0,223,94.16c0,9.3,2.61,21.76,7.2,34.16-11.94,20.66-12,38.36-9.59,50.09,3,14.61,10.26,23.42,10.57,23.79a6,6,0,0,0,9.69-.7l1.94-3.14c8,14.54,25.53,23.87,26.5,24.38a6,6,0,0,0,4.68.38,45.19,45.19,0,0,0,14.24-7.71L263.35,321H255l5.89-75.47a6,6,0,0,0-12-.93L243,321h-9.16c-2.61-12.23-10.12-45.57-15.29-60Zm90.37-73.22-4.51-7.29a6,6,0,0,0-11.06,2.55c0,.21-2.26,20.06-20.76,27.77-7.74-4.64-21.94-15.56-21.77-27.07a6,6,0,0,0-11.09-3.25l-3.89,6.29c-4-8.75-7.9-24.44.57-44.24,9.46,18.53,23.21,33.89,38.95,33.89,13.08,0,25.74-9.55,36-27,2.81,11.54,4.27,26.63-2.43,38.36ZM353,62.83a17.3,17.3,0,0,1-14.53,7.71H318a33,33,0,0,0-3-2.43c-8-5.66-19.32-8.68-34.58-9.21,3.21-3.57,9.7-7.8,22.37-7.68,8.9.09,17.26.13,24.83.11a20.43,20.43,0,0,0,20.32-19.09l6.95,14.41A17.29,17.29,0,0,1,353,62.83Zm0,0" transform="translate(0 -0.09)"/></g><path d="M253.35,122.41a4,4,0,1,0-2.82,1.17,4,4,0,0,0,2.82-1.17Zm0,0" transform="translate(0 -0.09)"/><path d="M267.49,153.18a3.2,3.2,0,0,0,0-6.39,3.2,3.2,0,0,0,0,6.39Zm0,0" transform="translate(0 -0.09)"/><path d="M283.87,153.18a3.2,3.2,0,1,0-2.27-.94,3.23,3.23,0,0,0,2.27.94Zm0,0" transform="translate(0 -0.09)"/><path d="M302.5,116.75a4,4,0,1,0,1.18,2.83,4,4,0,0,0-1.18-2.83Zm0,0" transform="translate(0 -0.09)"/></g></g></svg>