<svg xmlns="http://www.w3.org/2000/svg" xmlns:xlink="http://www.w3.org/1999/xlink" viewBox="0 0 315.43 368"><defs><style>.cls-1{fill:none;}.cls-2{clip-path:url(#clip-path);}</style><clipPath id="clip-path" transform="translate(0 -1)"><rect class="cls-1" width="316" height="369"/></clipPath></defs><title>Ресурс 11</title><g id="Слой_2" data-name="Слой 2"><g id="Слой_1-2" data-name="Слой 1"><g class="cls-2"><path d="M175.65,71.69a23.22,23.22,0,0,0-11.34-2.8H136.08a6,6,0,0,0-4.4,1.8,5.94,5.94,0,0,0-.37,7.85l16.25,20.32a24.44,24.44,0,0,0,19.18,9.22h4.9c.14,7.9,2.51,17,5.89,25.77l-16.14,30.89c-14.22-.28-65,0-113.71,15.73C46.05,171.78,38.95,152.28,8,151A6,6,0,0,0,2,155.21c-3.48,11.24-4.67,35,14.55,47.16q-1.08,1.93-2,4c-22.08,48.91,18,154.34,19.7,158.8A5.93,5.93,0,0,0,39.8,369H72.33a5.93,5.93,0,0,0,5.91-5.37l9.07-95.94a40.35,40.35,0,0,0,8-17.47l48.1,15.54A24.19,24.19,0,0,1,159,288.3v74.77a5.93,5.93,0,0,0,5.93,5.94H215a5.93,5.93,0,0,0,5.91-5.4l16.63-183.54c8.19-7,15.12-17.51,18.55-23.25,8.11-13.52,16.76-33.32,17-48.74h5.57a24.56,24.56,0,0,0,19.18-9.22l16.26-20.32a6,6,0,0,0-.37-7.85,6.07,6.07,0,0,0-4.41-1.79H281.12a23.27,23.27,0,0,0-11.34,2.79C266.55,73.57,257.35,80,257.35,80c-1.11-.61-2.29-1.2-3.56-1.75l28.85-20.61a47.85,47.85,0,0,0,20-38.86V7.16A6.08,6.08,0,0,0,297.44,1a5.94,5.94,0,0,0-6.68,5.89V18.8a36,36,0,0,1-13.52,28.06V24.45a6.09,6.09,0,0,0-5.2-6.12,5.94,5.94,0,0,0-6.68,5.89V55.41l-13.51,9.65V49.82a6.08,6.08,0,0,0-5.19-6.11A5.94,5.94,0,0,0,240,49.6V74.21a132.07,132.07,0,0,0-34.55-.1V49.83a6.09,6.09,0,0,0-5.2-6.12,5.94,5.94,0,0,0-6.68,5.89V65.06l-13.51-9.65v-31a6.09,6.09,0,0,0-5.19-6.12,5.94,5.94,0,0,0-6.68,5.89V46.86A36,36,0,0,1,154.67,18.8V7.16A6.08,6.08,0,0,0,149.48,1a5.94,5.94,0,0,0-6.68,5.89V18.8a47.83,47.83,0,0,0,20,38.86L191.41,78.1c-1.25.53-2.45,1.12-3.59,1.74,0,0-9-6.3-12.17-8.15Zm55.52,81.67a17.65,17.65,0,0,1,7.43,8.19c-7.47,9.76-13.49,13.56-16.22,13.56-2.55,0-8.53-3.81-15.93-13.38a17.63,17.63,0,0,1,7.18-8.18s-.18,2.51-.21,3.35c-.1,3.2,3.79,9.35,9,9.35s9-6.15,9-9.35c0-.89-.16-3.54-.16-3.54Zm-47.68-46c0-4.08,0-14.32,15.54-19.43l13.16,59.23a24,24,0,0,0-9.87,8.86c-1.1-1.65-2.22-3.4-3.36-5.29-9.4-15.61-15.47-32.63-15.47-43.38Zm39.07,37.44a24.73,24.73,0,0,0-2.75.16L206.73,86A88.27,88.27,0,0,1,218.42,85v4.87a4.05,4.05,0,0,0,3.14,4A4,4,0,0,0,226.33,90V85A90.49,90.49,0,0,1,238,86l-13.08,58.87q-1.18-.12-2.39-.12ZM156.83,91.44l-8.54-10.68h16A12.75,12.75,0,0,1,169.68,82l8.52,5.72a28.26,28.26,0,0,0-4.77,8.53h-6.69a12.7,12.7,0,0,1-9.91-4.77ZM12.39,163.31c22.41,2.91,23.82,18.68,23.9,21.18a38.39,38.39,0,0,0-12.53,8.34c-12.89-7.49-12.54-22.07-11.37-29.52ZM66.94,357.13H62.42V287.65a87.89,87.89,0,0,0,11.88-7.41Zm142.62,0H196.09l2.3-68.79a5.94,5.94,0,0,0-11.87-.4l-2.31,69.19H170.86V288a35.27,35.27,0,0,0-23.59-33.5l-.09,0L91.68,236.57a5.94,5.94,0,0,0-6.43,1.9,6.09,6.09,0,0,0-1.32,4.2c1.3,22.1-29.48,35.67-29.79,35.8a5.93,5.93,0,0,0-3.6,5.45v73.2H43.94C37,337.89,7.51,250.87,25.39,211.28c3.7-8.18,9.09-13.49,16.48-16.24C98.4,174,164,176.67,164.66,176.71a6,6,0,0,0,5.52-3.18l13.53-25.87c1.66,3.26,3.38,6.36,5.08,9.17,5.46,9.07,19.66,30.16,33.58,30.16a15.31,15.31,0,0,0,2.62-.23ZM245.9,150.71c-1.09,1.82-2.16,3.51-3.22,5.1A24.05,24.05,0,0,0,232.59,147l13.15-59.17c15.52,5,15.52,15,15.52,19.51,0,10.8-6,27.83-15.36,43.39Zm42.7-59.27a12.7,12.7,0,0,1-9.91,4.77h-7.29a27.64,27.64,0,0,0-4.5-8.3l8.86-6a12.73,12.73,0,0,1,5.37-1.19h16Zm0,0" transform="translate(0 -1)"/></g><path d="M203.3,135.85a4,4,0,1,0-2.8,1.16,4,4,0,0,0,2.8-1.16Zm0,0" transform="translate(0 -1)"/><path d="M243.77,129.09a4,4,0,1,0,0,7.91,3.95,3.95,0,0,0,4-4,4,4,0,0,0-4-4Zm0,0" transform="translate(0 -1)"/></g></g></svg>