<svg xmlns="http://www.w3.org/2000/svg" xmlns:xlink="http://www.w3.org/1999/xlink" viewBox="0 0 368 264.1"><defs><style>.cls-1{fill:none;}.cls-2{clip-path:url(#clip-path);}</style><clipPath id="clip-path" transform="translate(0 -0.9)"><rect class="cls-1" y="0.04" width="367.92" height="265.92"/></clipPath></defs><title>Ресурс 2</title><g id="Слой_2" data-name="Слой 2"><g id="Слой_1-2" data-name="Слой 1"><g class="cls-2"><path d="M166.84,210c9.34,0,16.38,7.59,16.38,17.67v31.43a5.89,5.89,0,0,0,5.89,5.89h51.62a5.89,5.89,0,0,0,5.62-4.13c.23-.74,22.53-72.73,31.73-136.21a71.84,71.84,0,0,0,9.64-4.8,59.34,59.34,0,0,0,7.23-5.09,77.65,77.65,0,0,0,23.73,3.89,51.55,51.55,0,0,0,21.39-4.21,45.91,45.91,0,0,0,24.68-26.73c5.75-16.11,3.77-36.8-5.3-55.36C352.58,18.26,340.32,10.08,323,8.05,311.55,6.7,298.09,8,280.87,12.13,268.94,4.67,254.08.9,236.44.9c-17.27,0-32.28,3.93-44.31,11.49-17.75-4.34-31.54-5.72-43.27-4.34A50.52,50.52,0,0,0,128,14.88c-19.68,3-42,10-65.75,23.93A104.62,104.62,0,0,0,43.22,53C41.68,53.39,3.82,62.4.07,87.56a5.88,5.88,0,0,0,5,6.69,6.11,6.11,0,0,0,.88.07,5.89,5.89,0,0,0,5.81-5c1.27-8.5,9.54-14.93,17.82-19.17-14.73,26-9.12,56.67.43,86.87,20.85,66,34.75,103.79,34.88,104.16A5.89,5.89,0,0,0,70.37,265h43.85a5.89,5.89,0,0,0,5.89-5.89V227.68A17.72,17.72,0,0,1,136.78,210ZM123,37.52c5.08-10.41,14-16.22,27.23-17.78,8.34-1,18.11-.31,30.21,2.1-1,1-2,2.09-2.9,3.2-11.15,13.2-17.3,31.69-17.3,52.06a47.43,47.43,0,0,0,8.45,27.81c-11.83,3-23.5,2.74-32-1.15a34,34,0,0,1-18.51-20c-4.63-13-2.8-30.7,4.79-46.24ZM108.34,227.68v25.55H97.46l-1.07-5.34c-2.17-10.82-.76-19.42,4.18-25.54a27.46,27.46,0,0,1,10.85-7.79,29.27,29.27,0,0,0-3.09,13.11ZM84.85,253.23H74.5c-4-11.14-16.33-46.05-33.31-99.79C26.58,107.25,26,73.66,68.23,49a182.11,182.11,0,0,1,45.6-19.26q-.73,1.28-1.39,2.64c-9.07,18.56-11,39.25-5.3,55.36a45.92,45.92,0,0,0,24.68,26.73,51.48,51.48,0,0,0,21.39,4.21,77.89,77.89,0,0,0,24.43-4.12,59.65,59.65,0,0,0,7.51,5.32A82.83,82.83,0,0,0,208.45,129c-2,3.58-4.44,5.9-7.51,7-8.17,3-19.38-2.64-23.82-5.23a11,11,0,0,0-15.4,4.61l-2.33,4.65a11,11,0,0,0,2.81,13.41c7,5.79,22.31,16.41,41.1,16.41a50.06,50.06,0,0,0,21.91-5.1c20.85-10,32.32-23.53,38.63-35.66l1.72-.41c-8.16,52.34-24.55,109-29.2,124.49H219.55l4.05-22.77A5.88,5.88,0,0,0,212,228.4l-4.42,24.83H195V227.68c0-16.79-12.1-29.43-28.15-29.43H136.15c-21.18.57-36.24,6.19-44.74,16.72-7.14,8.84-9.41,24-6.57,38.26ZM269.27,115.35a56.39,56.39,0,0,0,2.24-15.82,5.89,5.89,0,1,0-11.76.45c0,.35.87,34.76-39.64,54.23-21.68,10.42-41.82-2.76-49.93-9.38l1.71-3.43c7.49,4.24,21.11,10.15,33.14,5.69,7.64-2.84,13.21-9.19,16.55-18.86,5.17-15-7-31.33-7.5-32a5.89,5.89,0,0,0-9.4,7.09,36.37,36.37,0,0,1,6.18,14.18C189.83,112.33,172,100,172,77.09c0-14.6,4.34-61.11,58.53-64.25V46.63a5.89,5.89,0,0,0,11.77,0V12.84C295,15.79,300.86,58.4,300.86,77.09c0,20.22-13.87,32.18-31.59,38.25Zm84.4-31.59a33.93,33.93,0,0,1-18.51,20c-8.27,3.8-19.6,4.17-31.15,1.38a47.41,47.41,0,0,0,8.61-28c0-14.5-2.94-35.3-16.93-52-1-1.19-2-2.34-3.1-3.44a113.41,113.41,0,0,1,21.27-2.32,66.86,66.86,0,0,1,7.79.43c13.24,1.56,22.14,7.38,27.23,17.78,7.59,15.54,9.42,33.25,4.79,46.24Zm0,0" transform="translate(0 -0.9)"/></g><path d="M192.28,75.11a5.88,5.88,0,1,0,4.16,1.73,5.92,5.92,0,0,0-4.16-1.73Zm0,0" transform="translate(0 -0.9)"/><path d="M280.6,75.11a5.89,5.89,0,1,0,4.16,1.73,5.91,5.91,0,0,0-4.16-1.73Zm0,0" transform="translate(0 -0.9)"/><path d="M239.76,115.75h-6.64a3.92,3.92,0,0,0,0,7.85h6.64a3.92,3.92,0,0,0,0-7.85Zm0,0" transform="translate(0 -0.9)"/><path d="M243.08,102.47H229.8a3.92,3.92,0,0,0,0,7.85h13.28a3.92,3.92,0,0,0,0-7.85Zm0,0" transform="translate(0 -0.9)"/></g></g></svg>