<svg xmlns="http://www.w3.org/2000/svg" xmlns:xlink="http://www.w3.org/1999/xlink" viewBox="0 0 368 309.89"><defs><style>.cls-1{fill:none;}.cls-2{clip-path:url(#clip-path);}</style><clipPath id="clip-path" transform="translate(0 -0.12)"><rect class="cls-1" y="0.16" width="367.92" height="310.8"/></clipPath></defs><title>Ресурс 21</title><g id="Слой_2" data-name="Слой 2"><g id="Слой_1-2" data-name="Слой 1"><g class="cls-2"><path d="M135.28,260.93a35.44,35.44,0,0,0,7.09-16.3H164c9.46,0,15.4,6.27,17.65,18.63,1.87,10.28,7.19,41.39,7.25,41.7a6.05,6.05,0,0,0,6,5H224a6,6,0,0,0,6-5l18.43-104.46c20.88-3,40.46-19.32,49.74-36.62,13.14-16,52-46.25,67.47-57.7a6.05,6.05,0,0,0-4-10.91s-89.56,7-119.48,7c-18,0-72.08-4.25-72.08-4.25,3.46-16,.54-33.69-8.79-47.18L127.85,2.72a6.05,6.05,0,0,0-11,2.7l-4.31,34.5A38.32,38.32,0,0,1,91.64,69.49L35.74,97.44A64.62,64.62,0,0,0,16.19,198l51.46,58.32c6.22,25.8,19.22,49.09,20.08,50.61A6,6,0,0,0,93,310H122a6.05,6.05,0,0,0,6-5.05Zm14.23-130.65c10.51,8.58,21.2,17.76,29,25.5-14.28,5.62-49.11,19.24-87.66,33.56A38.73,38.73,0,0,0,72.34,203a47.16,47.16,0,0,1,1-9,46,46,0,0,1,21.61-30.41Zm30,9.78c-12.07-11.07-26.74-22.89-37.79-31.49l59.7,3.52a50.25,50.25,0,0,0-7.11,4.48c-8.32,6.3-13.56,14.69-14.81,23.48Zm12.21,8.18c8,.36,23.45,2.24,32.64,11a23.44,23.44,0,0,1,7.31,15.64,5.11,5.11,0,0,0-.4,2.08c0,3.91,5.09,8.75,8.12,11.29a3.18,3.18,0,0,0,1.47.7c-22.3-.4-45.85-22.8-49.14-40.69Zm48,25.84a31.52,31.52,0,0,0-9.8-20.74c-11.24-10.68-29-12.83-38.06-13.2,2.53-10.14,14.88-24.39,49.62-24.39,32.68,0,46.85,13.4,49.61,24.39-9.06.37-26.8,2.53-38,13.2a31.57,31.57,0,0,0-9.8,20.74Zm-111.06-44.8L93.32,82.18l3.73-1.86a50.39,50.39,0,0,0,27.52-38.9l2.35-18.79,24.36,35.19a46.15,46.15,0,0,1,7.24,36.35c-.24,1.09-.52,2.16-.82,3.21l-35.07-2.07a6.05,6.05,0,0,0-4,10.91c5.08,3.77,12.7,9.57,21.1,16.23ZM25.27,190a52.51,52.51,0,0,1,15.89-81.72L86,85.85l35.7,47.61-33,19.79a58.53,58.53,0,0,0-24.07,72.42,72,72,0,0,0-.2,8.69ZM113.57,297.9V278.67a78,78,0,0,0,7.28-4.36l-3.93,23.59Zm105.3,0h-3.16l1.94-51.82a6.05,6.05,0,1,0-12.09-.45l-2,52.28H200c-1.6-9.31-5-29-6.41-36.79-3.3-18.16-14.07-28.57-29.56-28.57H136.57a6.05,6.05,0,0,0-6,6.43c1.16,18.66-25.14,30.26-25.4,30.38a6.05,6.05,0,0,0-3.67,5.56v23H96.62C90.43,286,69.37,242.34,78.8,216.61c2.82-7.69,8.15-12.9,16.31-15.93,41.63-15.46,78.94-30.11,90.84-34.81,9.9,17,29.46,32.47,50.08,34.86Zm23.2-109a3.22,3.22,0,0,0,1.47-.7c3-2.54,8.12-7.39,8.12-11.29a5.18,5.18,0,0,0-.39-2.06,23.43,23.43,0,0,1,7.31-15.66c9.18-8.73,24.61-10.61,32.63-11-3.28,17.89-26.84,40.29-49.14,40.69Zm61.46-47.79c-1-8.83-6.28-17.67-14.58-24.15a50.76,50.76,0,0,0-7.5-4.82l61-3.6c-11.41,8.88-26.68,21.18-39,32.56Zm0,0" transform="translate(0 -0.12)"/></g><path d="M219.68,170.8a4.84,4.84,0,1,0-3.43-1.42,4.88,4.88,0,0,0,3.43,1.42Zm0,0" transform="translate(0 -0.12)"/><path d="M263.26,161.11a4.84,4.84,0,1,0,3.42,1.41,4.91,4.91,0,0,0-3.42-1.41Zm0,0" transform="translate(0 -0.12)"/></g></g></svg>