<svg xmlns="http://www.w3.org/2000/svg" xmlns:xlink="http://www.w3.org/1999/xlink" viewBox="0 0 348.78 368"><defs><style>.cls-1{fill:none;}.cls-2{clip-path:url(#clip-path);}</style><clipPath id="clip-path" transform="translate(0 0)"><rect class="cls-1" y="0.08" width="348.96" height="368.88"/></clipPath></defs><title>Ресурс 25</title><g id="Слой_2" data-name="Слой 2"><g id="Слой_1-2" data-name="Слой 1"><g class="cls-2"><path d="M327.15,67.77c7.68-7.61,15.86-19.13,20-30.68a27,27,0,0,0-4.08-25.68l-7-9.12A5.82,5.82,0,0,0,331.5,0H315.89a16.14,16.14,0,0,0-16.12,16.2,4.48,4.48,0,0,1-4.52,4.43h-2.6a16.12,16.12,0,0,0-16.12,16.13v2.61a4.5,4.5,0,0,1-4.5,4.5h-2.61A16.12,16.12,0,0,0,253.28,60V72.15a100.34,100.34,0,0,0-19.11-1.64A101.8,101.8,0,0,0,215.69,72V60a16.12,16.12,0,0,0-16.13-16.12h-2.61a4.5,4.5,0,0,1-4.5-4.5V36.76a16.12,16.12,0,0,0-16.12-16.12h-2.6a4.48,4.48,0,0,1-4.52-4.43A16.14,16.14,0,0,0,153.08,0h-15.6a5.82,5.82,0,0,0-4.62,2.28l-7,9.12a27,27,0,0,0-4.08,25.68c4.17,11.55,11.66,24.11,20,30.68C146,71,160.14,78.16,160.14,78.16A5.77,5.77,0,0,0,157,83.07a6,6,0,0,0,1.37,4l13.33,16.66a21.07,21.07,0,0,0,12.89,7.64q.23,7,.91,13.06c-10.41-1.65-23.94-.66-39.16,8.09-6,3.48-11.27,6.72-16.32,9.86-17,10.55-33,20.5-76.63,36.72a37.05,37.05,0,0,0-12.27,7.47c-8-1.39-29.32-2-40.75,27.22a5.81,5.81,0,0,0,2,6.8,49.48,49.48,0,0,0,22.23,8.72c-1.06,14.71.16,32.49,3.67,53,7.15,41.8,21.12,80.28,21.71,81.89A5.82,5.82,0,0,0,55.45,368H87.29a5.81,5.81,0,0,0,5.78-5.26l8.8-93.81a39.15,39.15,0,0,0,8.1-18.38s46.16,4.81,61.06,8.8c9.25,2.48,14.82,12.28,14.82,21.89v80.94a5.81,5.81,0,0,0,5.81,5.81H248.4a5.81,5.81,0,0,0,5.78-5.23l13-129.54a5.78,5.78,0,0,0,7.92-1c23.43-28.44,11.06-74.77,5.63-91.07,2.37-10.5,3-21.35,3.1-29.75a21.06,21.06,0,0,0,13.47-7.73L310.61,87a5.93,5.93,0,0,0,1.37-4,5.77,5.77,0,0,0-3.13-4.92s14.56-6.67,18.3-10.37Zm-54.91,36.32c0,18.81-1.37,36.85-8.06,49.37-3.45-14-13.52-24.55-25.81-26.46V82.2c33.87,1.13,33.87,16.11,33.87,21.88Zm-76.12,0c0-5.25,0-20.9,34.5-21.9v44.77c-12.09,1.75-22.07,11.88-25.79,25.42-3.63-4.9-8.71-30-8.71-48.28Zm38.24,28.78c12.81,0,23.39,12.19,24.76,27.8-5.65,6.14-13.65,9.77-24.94,9.77-10.32,0-18.42-3.52-24.49-10.7,1.7-15.16,12.11-26.87,24.66-26.87Zm-38.26-53c-2.93-1.46-9.73-2.44-13-2.44,0,0-25.77-13-33.63-18.47-6.9-4.82-13.23-16.16-16.73-25.87a15.44,15.44,0,0,1,2.38-14.67s3.31-5.89,5.24-6.85c2.85-1.41,12.72,0,12.72,0A4.48,4.48,0,0,1,157.58,16a16.14,16.14,0,0,0,16.12,16.2h2.61a4.5,4.5,0,0,1,4.5,4.5v2.61a16.12,16.12,0,0,0,16.13,16.13h2.61a4.5,4.5,0,0,1,4.5,4.5V75.51a47.39,47.39,0,0,0-8,4.4ZM180.8,96.43l-5.87-7.34h11.34a9.7,9.7,0,0,1,1.72.17,29.58,29.58,0,0,0-3.19,10.11,9.55,9.55,0,0,1-4-2.93ZM32.67,197.61A67.48,67.48,0,0,0,26,217.8a37.76,37.76,0,0,1-12.84-4.23c5.92-11.89,13.71-15.29,19.5-16ZM82,356.38H77.59v-68a86.65,86.65,0,0,0,11.63-7.25ZM173.93,248.1c-16.8-4.29-68.66-10-68.66-10a5.86,5.86,0,0,0-6.44,4.16,5.5,5.5,0,0,0-.18,2c1.33,21.68-28.86,35-29.16,35.11A5.81,5.81,0,0,0,66,284.72v71.66h-6.4c-3.7-10.76-14.12-42.71-19.83-76-6.15-35.94-8.07-80.8,17.73-90.38,44.75-16.62,61.25-26.88,78.72-37.74,5-3.09,10.1-6.29,16-9.66,13.38-7.69,25-8,33.46-6.33-13.43,27.08-13.53,50.19-10.95,65.41,3.16,18.6,10.87,29.78,11.19,30.24a5.81,5.81,0,0,0,6.91,2.07,6,6,0,0,0,3.1-2.9l2.52-4.88c8.27,19.17,28.07,31.81,29.13,32.47a5.82,5.82,0,0,0,5.25.48,48.51,48.51,0,0,0,21.88-17.57l-11.5,114.83H225l2.27-75.11a5.81,5.81,0,1,0-11.62-.35l-2.28,75.46H197.47V281.25c0-14.64-9.35-29.52-23.53-33.14ZM271.19,217l-5.34-10.34a6,6,0,0,0-5.05-3.32,5.82,5.82,0,0,0-6,5.32c0,.29-2.61,27.85-23.59,38.4-6.74-4.91-24.85-19.77-24.79-37.58a6,6,0,0,0-3.09-5.47,5.82,5.82,0,0,0-7.88,2.48l-4.8,9.29A79,79,0,0,1,186,199.1c-2.55-15.69-.64-31.71,5.63-47.84,9.55,24.49,27,30.8,42.51,30.8,17.84,0,31.38-7.64,39.63-22.21,3.71,16.4,6.28,39.62-2.62,57.19Zm17-120.6a9.47,9.47,0,0,1-4.61,3.15,29.75,29.75,0,0,0-3.07-10.22,9.56,9.56,0,0,1,2.21-.27h11.34Zm-2.32-19c-3.27,0-10.33,1.15-13.26,2.61a36.9,36.9,0,0,0-7.71-4.57V60a4.5,4.5,0,0,1,4.5-4.5H272a16.12,16.12,0,0,0,16.13-16.12V36.76a4.5,4.5,0,0,1,4.5-4.5h2.61A16.14,16.14,0,0,0,311.39,16a4.48,4.48,0,0,1,4.52-4.43s9.87-1.41,12.72,0c1.93,1,5.24,6.85,5.24,6.85a15.44,15.44,0,0,1,2.38,14.67c-3.5,9.7-9.83,21-16.73,25.87-7.87,5.49-33.63,18.47-33.63,18.47Zm0,0" transform="translate(0 0)"/></g><path d="M212.76,118.15A3.89,3.89,0,1,0,210,117a3.9,3.9,0,0,0,2.74,1.14Zm0,0" transform="translate(0 0)"/><path d="M252.38,117a3.88,3.88,0,0,0,5.48,0,3.87,3.87,0,1,0-5.48,0Zm0,0" transform="translate(0 0)"/><path d="M234.18,163.86c8.51,0,16.52-7.62,16.52-12.23,0-5.45-8.9-7.37-16.52-7.37s-16.52,1.93-16.52,7.38c0,4.6,8,12.23,16.52,12.23Zm0,0" transform="translate(0 0)"/></g></g></svg>