<svg xmlns="http://www.w3.org/2000/svg" xmlns:xlink="http://www.w3.org/1999/xlink" viewBox="0 0 368 277.09"><defs><style>.cls-1{fill:none;}.cls-2{clip-path:url(#clip-path);}</style><clipPath id="clip-path" transform="translate(0 -0.91)"><rect class="cls-1" y="0.08" width="367.92" height="278.88"/></clipPath></defs><title>Ресурс 24</title><g id="Слой_2" data-name="Слой 2"><g id="Слой_1-2" data-name="Слой 1"><g class="cls-2"><path d="M240.26,278a6,6,0,0,0,4.11-1.64c1.86-1.78,41.79-40.46,74.35-124.29,1-.55,2-1.11,3-1.69,18.35-11,28-27.67,28-48.14A130.11,130.11,0,0,0,348.43,84a37.46,37.46,0,0,0-34.54-66.47C300.12,6.6,283.07.91,263.55.91c-19.32,0-36.28,5.73-50.06,16.78a37.39,37.39,0,0,0-43.26,6.8C150.1,22.2,112.83,21.95,64,39.13,32.74,50.15,15.61,62.37,6.74,80c-9.71,19.31-9,44.44,2.43,81.48,21,68.23,50.66,112.09,51.91,113.92A6,6,0,0,0,66,278h45.46a6,6,0,0,0,5.73-4.31c0-.15,4.34-15.06,6.91-24.61,2.37-8.78,8.09-19.21,18.37-19.65,13.09,0,18,14.8,19,19.34,3,13.86,4.73,24.17,4.74,24.27a6,6,0,0,0,5.87,5ZM196.57,25.56A25.39,25.39,0,0,1,204,26.68a88.56,88.56,0,0,0-7.46,9.59A111.92,111.92,0,0,0,181.19,71.5a25.54,25.54,0,0,1,15.39-45.94Zm-110,240.52H69.23c-6.6-10.35-31.07-50.85-48.67-108.1C.69,93.35,16.11,71,57.63,54.26c8.51,5.57,41.24,31,32.79,88.11-10.36,70-4.08,121.58-3.81,123.71Zm26-20.1c-1.7,6.29-4.16,15-5.62,20.11H99.72c-1.63-10.09-.07-18.16,4.66-24,3.06-3.78,7.5-6.72,13.25-8.81a55.77,55.77,0,0,0-5,12.73ZM162,35.82c-15.22,16.36-34.77,43.36-26.06,85.89,4.6,22.44,13.67,65.5,20.83,99.38A30.53,30.53,0,0,0,142,217.53c-20.51.26-36.56,5.71-45.46,15.36a533.05,533.05,0,0,1,5.63-88.77c5.65-38.16-5.63-63.67-16.09-78.34A87.6,87.6,0,0,0,71,49.35c39.88-13.57,71.57-14.83,91-13.53ZM296.62,160.44q3.39-.86,6.61-1.88c-27.12,65-58.12,99.83-65.46,107.52H215.16l8.13-30.38a6,6,0,0,0-11.52-3.08l-9,33.46H178.46c-2.25-10.59-23-108.59-30.86-146.76-5.62-27.44,2.17-47.42,12-61.81A37.57,37.57,0,0,0,178.71,84a126,126,0,0,0-1.34,18.21c0,13,3.93,24.48,11.5,33.94.19,3.15,2.47,40,7.94,54.62,7.25,19.31,20.51,25.5,30.36,27.29a41.51,41.51,0,0,0,7.48.66c14.57,0,30.34-7,40.41-18.54,11.18-12.78,21.15-38.67,21.57-39.76ZM201.71,148c1.2.82,2.43,1.62,3.71,2.39,15,9,35.64,14,58.13,14a145,145,0,0,0,19.08-1.25c-3.56,8.19-10,21.75-16.54,29.25-7.77,8.88-22.89,16.54-36.78,14-9.91-1.8-17.09-8.45-21.34-19.75-3-7.87-5.07-25.43-6.25-38.61Zm113.83-7.83c-13.18,7.91-31.64,12.27-52,12.27s-38.82-4.36-52-12.27c-14.77-8.88-22.27-21.64-22.27-37.92C189.29,72.13,204,15.89,259,13V67.48a4,4,0,1,0,7.95,0V12.91c55.81,2.14,70.84,56.78,70.84,89.34,0,16.28-7.49,29-22.27,37.92ZM346,71.42a111.12,111.12,0,0,0-15-35.12,86.72,86.72,0,0,0-7.52-9.72A25.53,25.53,0,0,1,346,71.42Zm0,0" transform="translate(0 -0.91)"/></g><path d="M223.43,104.3a6,6,0,1,0,4.22,1.75,6,6,0,0,0-4.22-1.75Zm0,0" transform="translate(0 -0.91)"/><path d="M299.44,106a6,6,0,1,0,4.22-1.74,6,6,0,0,0-4.22,1.74Zm0,0" transform="translate(0 -0.91)"/><path d="M263.55,107.08c-9.36,0-16.41,4.21-16.41,9.8,0,4.76,5.13,8.51,12.44,9.52v12h-4a4,4,0,0,0,0,7.95h16a4,4,0,1,0,0-7.95h-4v-12c7.3-1,12.44-4.76,12.44-9.52,0-5.59-7.06-9.8-16.42-9.8Zm0,0" transform="translate(0 -0.91)"/><path d="M282.91,95c-3.2,3.2-6.07,9.08-1.54,18.88,3.24,7,9,13.21,11.37,15.55a23.29,23.29,0,1,0,32.94-32.94c-4.28-4.29-12.2-7.11-21.18-7.56-9.38-.48-17.25,1.74-21.58,6.07Zm41.64,18a15.35,15.35,0,0,1-26.2,10.85,49.64,49.64,0,0,1-9.77-13.26c-3.16-6.83-.82-9.16-.05-9.93,2.37-2.38,7.59-3.8,13.61-3.8.64,0,1.29,0,2,.05,6.86.34,13.12,2.4,16,5.25a15.22,15.22,0,0,1,4.5,10.85Zm0,0" transform="translate(0 -0.91)"/><path d="M244.19,95c-4.33-4.33-12.2-6.55-21.59-6.07-9,.45-16.9,3.28-21.18,7.56a23.29,23.29,0,0,0,32.94,32.94c10.7-10.7,18.9-25.36,9.83-34.43Zm-15.45,28.81a15.35,15.35,0,1,1-21.7-21.7c2.84-2.84,9.11-4.9,16-5.24q1-.05,2-.05c6,0,11.24,1.43,13.61,3.8,5.29,5.29-4.11,17.48-9.82,23.19Zm0,0" transform="translate(0 -0.91)"/></g></g></svg>