<svg xmlns="http://www.w3.org/2000/svg" xmlns:xlink="http://www.w3.org/1999/xlink" viewBox="0 0 368 281.26"><defs><style>.cls-1{fill:none;}.cls-2{clip-path:url(#clip-path);}</style><clipPath id="clip-path" transform="translate(0 -0.74)"><rect class="cls-1" width="368.88" height="282.96"/></clipPath></defs><title>Ресурс 17</title><g id="Слой_2" data-name="Слой 2"><g id="Слой_1-2" data-name="Слой 1"><g class="cls-2"><path d="M150.9,223.3c10.59,0,20.17,8.6,20.17,19.19V276a6,6,0,0,0,6,6h83.88a6,6,0,0,0,4.84-2.48c1.7-2.37,41-57.67,58.52-124.76a86,86,0,0,0,12.58-6.16c19.1-11.47,29.2-28.8,29.2-50.1a121.07,121.07,0,0,0-6.23-38.94c10.86-23.33,7.86-47.25,7.7-48.5a6,6,0,0,0-5.91-5.17,70.11,70.11,0,0,0-34.71,9C312.92,5.56,295.79.74,276.2.74,256.15.74,238.61,5.94,224.39,16A70,70,0,0,0,187.79,5.89a6,6,0,0,0-5.91,5.17A97.08,97.08,0,0,0,184,43.49c-17.63-.36-53.86,1-108.45,12.84C38.09,64.46,16,77.17,6.11,96.3-4.44,116.7-1.42,144,15.9,184.71c24.18,56.86,49.28,93.21,50.34,94.73a6,6,0,0,0,4.9,2.56h54.73a6,6,0,0,0,6-6V242.49c0-10.22,9-18.62,19.07-19.19ZM356,18.07a89.91,89.91,0,0,1-3.12,25.67,88.46,88.46,0,0,0-6.59-10.33,80.25,80.25,0,0,0-9.17-10.35,57.92,57.92,0,0,1,18.88-5Zm-162.66,0a58,58,0,0,1,21.25,6.08,82.26,82.26,0,0,0-8.07,9.25,92,92,0,0,0-8.82,14.39,88.11,88.11,0,0,1-4.36-29.71ZM119.9,242.49v27.59H107.71l-1.19-6c-2.33-11.65-.81-20.91,4.53-27.52a30.15,30.15,0,0,1,12.52-8.75,30.89,30.89,0,0,0-3.67,14.64Zm32-31.13c-22.52.6-41.09,6.59-50.09,17.75-7.56,9.36-10,22.28-6.95,37.35l.72,3.61H74.31c-6.08-9.23-27.33-42.75-47.44-90C11.28,143.37,8,118.5,16.7,101.78,24.84,86,44.35,75.3,78.1,68c58-12.59,95-13,109.74-12.41a77.66,77.66,0,0,0,3.66,7.86,119.58,119.58,0,0,0-5.15,35.07c0,21.31,10.1,38.63,29.2,50.1,15.64,9.4,37.18,14.57,60.64,14.57a142,142,0,0,0,34.51-4.09c-15.64,54-45.47,100-52.93,111H226.92l16.29-55.74A6,6,0,0,0,231.77,211L214.5,270.08H183V242.49a31.16,31.16,0,0,0-31.12-31.13Zm178.84-73c-13.82,8.3-33.17,12.87-54.5,12.87s-40.69-4.57-54.5-12.87c-15.54-9.33-23.41-22.75-23.41-39.88,0-39.6,20.41-85.84,77.92-85.84S354.12,58.9,354.12,98.5c0,17.13-7.88,30.55-23.41,39.88Zm0,0" transform="translate(0 -0.74)"/></g><path d="M243.74,93.84A6,6,0,1,0,242,98a6,6,0,0,0,1.75-4.21Zm0,0" transform="translate(0 -0.74)"/><path d="M314.62,87.88a5.95,5.95,0,1,0,4.22,1.75,6,6,0,0,0-4.22-1.75Zm0,0" transform="translate(0 -0.74)"/><path d="M294.85,87.52c-6.66-11.49,3.38-39.38,11.28-54.26A6,6,0,0,0,299,24.8c-25.08,8.14-42.84,22.36-50,40a44.93,44.93,0,0,0,1.91,38.46c4.16,7.9,15.53,9,20.23,9.14h1.09c8.64,0,19-2.55,23.27-9.8,1.53-2.59,3.49-8-.65-15.13Zm-10.31,6c.57,1,1.15,2.31.71,3.07-1.16,2-6.61,4-13.43,4s-10-2.11-10.37-2.79A33.2,33.2,0,0,1,260,69.32c4.53-11.16,14.68-20.76,29.15-27.79-6,14.84-12.85,37.83-4.66,52Zm0,0" transform="translate(0 -0.74)"/><path d="M247.32,114.79a4,4,0,0,0-5.62,5.62l7.92,7.92a4,4,0,0,0,5.62-5.62Zm0,0" transform="translate(0 -0.74)"/><path d="M305.08,114.79l-7.92,7.92a4,4,0,1,0,5.62,5.62l7.92-7.92a4,4,0,1,0-5.62-5.62Zm0,0" transform="translate(0 -0.74)"/></g></g></svg>