<svg xmlns="http://www.w3.org/2000/svg" xmlns:xlink="http://www.w3.org/1999/xlink" viewBox="0 0 368 317.41"><defs><style>.cls-1{fill:none;}.cls-2{clip-path:url(#clip-path);}</style><clipPath id="clip-path" transform="translate(0 -0.59)"><rect class="cls-1" width="367.92" height="318.96"/></clipPath></defs><title>Ресурс 16</title><g id="Слой_2" data-name="Слой 2"><g id="Слой_1-2" data-name="Слой 1"><g class="cls-2"><path d="M125.61,318a6.06,6.06,0,0,0,6.06-6.06V170.74c24.31-1.27,52.67,1.21,61.82,16.22,18.19,29.82,29.59,124.75,29.7,125.7a6.07,6.07,0,0,0,6,5.35H262a6.07,6.07,0,0,0,5.38-3.26c1.09-2.09,25-48.92,46.72-155.95q3.58-2.82,7.22-5.86c9-7.52,16.06-15.44,23.13-21.76,0,0,23.5-23.57,23.5-45.83,0-40.75-42.6-80.93-95-80.93a108.66,108.66,0,0,0-37.34,6.52A353.88,353.88,0,0,0,154.47.59c-28-.13-53,3.74-74.31,11.51-27,9.86-48.2,26-62.86,48C2.52,82.27-2.82,109.74,1.4,141.75c3.31,25.07,12.49,53,27.29,83a511.14,511.14,0,0,0,58.39,91.06A6.07,6.07,0,0,0,91.74,318Zm218-224.9c2.07,3.88,2.39,7.64.89,10.6-3.29,6.5-14.62,7.66-24.74,2.53a92.86,92.86,0,0,1-18.41-11.93c-4.52-4-6.75-7.59-5.82-9.43,2.92-5.77,25.15-8.29,36.37-2.61a26.9,26.9,0,0,1,11.7,10.85ZM288.37,81.21c-2.88,5.69-.3,12.13,7.69,19.15,7,6.16,16.39,11.2,20.09,13.07a36.71,36.71,0,0,0,16.43,4.15,25,25,0,0,0,11.08-2.41c-10.1,14.18-40.16,20.65-70,20.65s-59.91-6.47-70-20.65a25,25,0,0,0,11.07,2.41,36.72,36.72,0,0,0,16.44-4.15c3.7-1.88,13.08-6.91,20.09-13.07,8-7,10.57-13.46,7.69-19.15-5.38-10.6-30.92-13-45.28-7,.69-.61,1.4-1.22,2.15-1.81C228.5,62.28,248.51,57,273.65,57c25.9,0,45.49,5.18,58.23,15.38q1.29,1,2.45,2.11c-14.21-6.28-40.49-4-45.95,6.77ZM203.65,93.1a27,27,0,0,1,11.7-10.85c4.41-2.23,10.51-3.2,16.48-3.2,9.22,0,18.12,2.31,19.89,5.81.93,1.84-1.3,5.45-5.82,9.43a93,93,0,0,1-18.41,11.93c-10.12,5.13-21.45,4-24.74-2.53-1.5-3-1.18-6.72.89-10.6Zm70,54.84a186,186,0,0,0,39.52-4A380,380,0,0,1,273,173.09a378.6,378.6,0,0,1-40.59-29.5,184,184,0,0,0,41.2,4.35ZM355.88,85.2a52.43,52.43,0,0,0-16.42-22.34c-14.94-12-37.08-18-65.81-18-51.46,0-75.94,20.38-83.25,43.47a25.19,25.19,0,0,1-.19-3c0-37.94,37.16-68.8,82.84-68.8s82.74,30.79,82.84,68.66ZM119.55,300.72,106,173.48c3.92-.65,8.53-1.28,13.55-1.8Zm22.71-142.37a261,261,0,0,0-44.07,4.23,6.06,6.06,0,0,0-4.84,6.59l14.56,136.71H94.63C87.54,297,60.56,262,39.47,219.2c-22-44.73-42-107.47-12.08-152.36C51.33,30.92,93.59,12.71,153,12.71h1.14A340.38,340.38,0,0,1,218,19.43C193.85,34.12,178.08,57,178.08,85.35c0,13.45,11.92,33.82,19.94,41.83,7.64,7.64,15.95,16.79,26.69,25.75a403.63,403.63,0,0,0,45.21,32.47,6.07,6.07,0,0,0,6.25,0c.61-.37,10.33-6.25,23.27-15.54C282,251,263.61,294.22,258.23,305.88h-5.44l18.14-108.51a6.06,6.06,0,0,0-12-2L240.5,305.88h-5.94c-2.74-21.07-13.59-97.13-30.72-125.24-9-14.79-30-22.29-61.58-22.29Zm0,0" transform="translate(0 -0.59)"/></g><path d="M233.82,100.16a6.06,6.06,0,1,0-4.28-10.34,6.06,6.06,0,0,0,4.28,10.34Zm0,0" transform="translate(0 -0.59)"/><path d="M313.46,88a6.07,6.07,0,1,0,4.28,1.78A6.1,6.1,0,0,0,313.46,88Zm0,0" transform="translate(0 -0.59)"/><path d="M257.28,100.67c0,3,2,5.54,5.26,7.31h-2.82a4,4,0,0,0,0,8.08h27.87a4,4,0,0,0,0-8.08h-2.82c3.26-1.77,5.26-4.34,5.26-7.31,0-5.59-7-9.8-16.37-9.8s-16.37,4.21-16.37,9.8Zm0,0" transform="translate(0 -0.59)"/></g></g></svg>