<svg xmlns="http://www.w3.org/2000/svg" xmlns:xlink="http://www.w3.org/1999/xlink" viewBox="0 0 368 321.72"><defs><style>.cls-1{fill:none;}.cls-2{clip-path:url(#clip-path);}</style><clipPath id="clip-path" transform="translate(0 -0.28)"><rect class="cls-1" y="0.16" width="367.92" height="322.8"/></clipPath></defs><title>Ресурс 9</title><g id="Слой_2" data-name="Слой 2"><g id="Слой_1-2" data-name="Слой 1"><g class="cls-2"><path d="M216.64,71.07c0,2.39-.05,8.88,0,11.69a0,0,0,0,1,0,0c-27.78,10.86-80.5,30.21-136,43.93a50.24,50.24,0,0,0-24.56,14s0,0,0,0c-1.26-12.85-2.05-36.47,3-69.73,2.83-18.66-.42-35.63-9.39-49.06C42.09,10.72,31.94,4,24.93,1.41A18.43,18.43,0,0,0,8.4,3.35l-.27.18A18.16,18.16,0,0,0,0,18.8,18.56,18.56,0,0,0,8.52,34.27c12.07,7.84,16.68,21.5,13.7,40.61C9.74,154.75,32.54,211.75,35.63,219.07h0c1.79,47.45,16.85,95.71,17.81,98.74A6,6,0,0,0,59.15,322h42.51a6,6,0,0,0,6-5.35l9.16-87.4h0c5.29-6.81,9.35-14.92,10.36-24.29,0,0,46.59,4.78,61.63,8.76,12.35,3.27,19.82,16.31,19.82,29.12V316a6,6,0,0,0,6,6h54.17a6,6,0,0,0,5.85-4.69L311.54,150.9a0,0,0,0,1,0,0c17.52-4.55,30.5-14.76,38.75-30.55,8.89-17,9.92-36.26,9.92-49.25a65.83,65.83,0,0,0-.71-9.82s0,0,0,0c11.84-19.87,7.88-43.46,7.7-44.5A5.19,5.19,0,0,0,359.78,13L332,26.9h0c-13.74-5.16-33.83-4.83-43.5-4.62-9.68-.21-29.79-.53-43.54,4.64h0L217,13a5.19,5.19,0,0,0-7.43,3.74c-.18,1-4.16,24.7,7.75,44.59,0,0,0,0,0,0a66.06,66.06,0,0,0-.73,9.73ZM357.57,25.75a64.38,64.38,0,0,1-2.71,20.58,0,0,0,0,1-.05,0,38.85,38.85,0,0,0-7.23-9.79,39.7,39.7,0,0,0-4.31-3.64,0,0,0,0,1,0,0l14.26-7.13a0,0,0,0,1,0,0ZM286,104.62s0,0,0,0c-.7-12-5-21.92-12.89-29.34C259,62,237.8,60.52,229.71,60.45a0,0,0,0,1,0,0,29.25,29.25,0,0,1,8-15.3c4.55-4.45,10.51-7.12,16.85-8.71,0,0,0,0,0,0v17a6.17,6.17,0,0,0,5.83,6.27,6,6,0,0,0,6.15-6V34.91c0-.13,0-.26,0-.39,3.54-.28,7-.36,10.21-.36,2,0,3.89,0,5.64.07a0,0,0,0,1,0,0v40.8a6.18,6.18,0,0,0,5.83,6.27,6,6,0,0,0,6.15-6V34.26a0,0,0,0,1,0,0,154.46,154.46,0,0,1,16.56.35c0,.11,0,.22,0,.33V53.43a6.17,6.17,0,0,0,5.83,6.27,6,6,0,0,0,6.15-6V36.59a0,0,0,0,1,0,0c6.09,1.6,11.81,4.25,16.2,8.55a29.25,29.25,0,0,1,8,15.3,0,0,0,0,1,0,0c-8,.06-29.33,1.54-43.45,14.84-7.9,7.45-12.22,17.27-12.89,29.34,0,0,0,0,0,0Zm-66.7-78.89,14.31,7.15a0,0,0,0,1,0,0,38.32,38.32,0,0,0-11.55,13.48,0,0,0,0,1-.05,0,64.39,64.39,0,0,1-2.75-20.65,0,0,0,0,1,0,0ZM14.17,25.57a8.1,8.1,0,0,1-3.79-6.84,7.71,7.71,0,0,1,3.5-6.56l.27-.18a8,8,0,0,1,7.19-.83c5.48,2,13.5,7.4,19.57,16.49,7.62,11.41,10.23,25.45,7.76,41.74q-.41,2.64-.75,5.21l0,0H40.08a4.13,4.13,0,0,0-4.18,3.62,4,4,0,0,0,4,4.36h7a0,0,0,0,1,0,0q-.56,4.85-1,9.38a0,0,0,0,1,0,0H40.08a4.12,4.12,0,0,0-4.17,3.63,4,4,0,0,0,4,4.36h5.37a0,0,0,0,1,0,0c-.22,3.26-.39,6.4-.5,9.38,0,0,0,0,0,0H40.08a4.12,4.12,0,0,0-4.17,3.62,4,4,0,0,0,4,4.36h4.7a0,0,0,0,1,0,0c-.18,19.31,1.73,31.21,2.53,35.3a0,0,0,0,1,0,0c-5.78,10.43-9.06,23.09-10.59,36.73,0,0-.05,0-.06,0a295.33,295.33,0,0,1-4-113C37,47.18,25,32.62,14.17,25.57ZM96.25,310H85.89a0,0,0,0,1,0,0V253.66a0,0,0,0,1,0,0,107.11,107.11,0,0,0,17.59-11.2,0,0,0,0,1,0,0L96.28,310a0,0,0,0,1,0,0Zm95.47-107.93c-17-4.32-69.56-10-69.56-10a6,6,0,0,0-6.5,3.91,6.13,6.13,0,0,0-.32,2.52C117,227,77.91,244.18,77.52,244.35a6,6,0,0,0-3.63,5.51V310a0,0,0,0,1,0,0H63.64a0,0,0,0,1,0,0c-5.89-20.37-29.53-109.45-5.9-151.61,6-10.69,14.41-17.25,25.73-20,10.18-2.52,20.27-5.22,30.13-8a0,0,0,0,1,0,0v29.29a6.17,6.17,0,0,0,5.83,6.27,6,6,0,0,0,6.15-6V126.84a0,0,0,0,1,0,0q8.23-2.45,16.16-4.95a0,0,0,0,1,0,0V169a6.17,6.17,0,0,0,5.83,6.27,6,6,0,0,0,6.15-6V118a0,0,0,0,1,0,0c5.56-1.82,11-3.62,16.16-5.4a0,0,0,0,1,0,0v37.61a6.18,6.18,0,0,0,5.83,6.26,6,6,0,0,0,6.15-6V108.45a0,0,0,0,1,0,0c13.71-4.84,25.69-9.34,35.25-13,0,0,0,0,0,0,1.38,13.38,5.41,28.28,16.85,39.85,12,12.18,30.31,18.35,54.32,18.35q5.33,0,10.29-.49a0,0,0,0,1,0,0l-3.39,15.27,0,0h-20a6.17,6.17,0,0,0-6.27,5.83,6,6,0,0,0,6,6.14h17.61a0,0,0,0,1,0,0l-3.13,14.1,0,0H266.63a6.17,6.17,0,0,0-6.27,5.83,6,6,0,0,0,6,6.15h20.53a0,0,0,0,1,0,0L264,310l0,0H248.34a0,0,0,0,1,0,0l6.94-66.74A6,6,0,0,0,243.34,242l-7.07,68a0,0,0,0,1,0,0H220.6a0,0,0,0,1,0,0V242.83c0-18-11.39-36.3-28.84-40.74Zm86.37-92.84h0c0,3.43,4,7.61,7.11,10.43h0v8.82a0,0,0,0,1,0,0h-5.46a3.3,3.3,0,0,0-3.34,2.91,3.19,3.19,0,0,0,3.18,3.48H297.1a3.31,3.31,0,0,0,3.35-2.91,3.2,3.2,0,0,0-3.18-3.48h-5.62a0,0,0,0,1,0,0v-8.82h0c3.2-2.78,7.14-6.68,7.14-10.43h0c.3-10.62,3.8-21.86,10.43-28.13,12.54-11.84,33-12.7,39.05-12.68,0,15.72-2.16,31.38-6.49,41.8a0,0,0,0,1,0,0H327.22a3.3,3.3,0,0,0-3.34,2.9,3.19,3.19,0,0,0,3.18,3.49H338.6a0,0,0,0,1,0,0,49.12,49.12,0,0,1-5.21,7.5h-14.9a3.3,3.3,0,0,0-3.34,2.9,3.19,3.19,0,0,0,3.18,3.48h8.27a0,0,0,0,1,0,.05c-9.52,7.34-22.22,11-38.18,11-17.81,0-31.7-3.7-41.41-11a0,0,0,0,1,0-.05h11.26a3.3,3.3,0,0,0,3.34-2.91,3.19,3.19,0,0,0-3.18-3.48H240.79a3.2,3.2,0,0,0-.47,0,41.73,41.73,0,0,1-4.93-7.55,0,0,0,0,1,0,0h14.2a3.31,3.31,0,0,0,3.34-2.91,3.2,3.2,0,0,0-3.18-3.48h-17.1l0,0c-4.27-12.31-4.13-32.48-4-41.8,0,0,0,0,0,0,6.13,0,26.45.84,39,12.66,7,6.56,10.49,16.82,10.49,28.15Zm0,0" transform="translate(0 -0.28)"/></g><path d="M317.94,90.27a4.4,4.4,0,1,0,3.1,1.29,4.4,4.4,0,0,0-3.1-1.29Zm0,0" transform="translate(0 -0.28)"/><path d="M258.95,90.27a4.39,4.39,0,1,0,3.11,1.28,4.44,4.44,0,0,0-3.11-1.28Zm0,0" transform="translate(0 -0.28)"/></g></g></svg>