<svg xmlns="http://www.w3.org/2000/svg" xmlns:xlink="http://www.w3.org/1999/xlink" viewBox="0 0 342.27 368"><defs><style>.cls-1{fill:none;}.cls-2{clip-path:url(#clip-path);}</style><clipPath id="clip-path" transform="translate(0 0)"><rect class="cls-1" y="0.08" width="342.96" height="368.88"/></clipPath></defs><title>Ресурс 7</title><g id="Слой_2" data-name="Слой 2"><g id="Слой_1-2" data-name="Слой 1"><g class="cls-2"><path d="M144.2,257.8a40.51,40.51,0,0,0,7.94-17.45L200.63,256a24.39,24.39,0,0,1,15.72,22.72V362a6,6,0,0,0,6,6h50.42a6,6,0,0,0,5.93-5.44l18.89-215.73c7.37-5.13,14.25-13.51,20.16-24.78,8.25-15.7,13.57-35.15,13.57-49.55a37,37,0,0,0-.73-7.48l5.67-5.68a20.55,20.55,0,0,0,5.92-16.87l-2.27-20.39a6,6,0,0,0-10.13-3.55L313.93,34.35a20.72,20.72,0,0,0-4.23,6.14C309,33.18,304,1.48,267.9,0a3.93,3.93,0,0,0-3.58,2,4,4,0,0,0,0,4.09c0,.07,4,6.67.45,10.46-5.58,6-10.91,11.65-10.06,24.52q-1.52.44-2.95.95A20.75,20.75,0,0,0,247,34.35L231.16,18.53A6,6,0,0,0,221,22.08l-2.26,20.39a20.54,20.54,0,0,0,5.92,16.88l5.25,5.25a35.11,35.11,0,0,0-.87,7.91c0,1.26.06,2.58.15,3.92l-29,55.22a4,4,0,0,0-.46,1.85v21c-25.05.89-66.83,4.73-105.6,19.13a38.69,38.69,0,0,0-8.8,4.61c-6.3-7.41-19.6-19.43-38.27-17.12A52.47,52.47,0,0,0,11.7,182.86C.05,199.17-2.92,221.42,2.87,249c2,9.66,4.82,23.88,5.55,35.71,1,16-2.4,18.19-2.43,18.21a6,6,0,0,0,1.66,11.16,46.8,46.8,0,0,0,7.75.59c7,0,17.44-1.35,25.6-8.13,7.74-6.43,11.7-16.11,11.76-28.76.23-47.51,1.57-58.15,12.71-61.21C63,233.2,64,254.47,68.31,279.81c7.36,43,21.73,82.61,22.34,84.27A6,6,0,0,0,96.24,368h35.38a6,6,0,0,0,5.95-5.58Zm136-117c-5.3,0-11.25-3.76-17-10.48,1.77-7.3,8.45-12.28,17.2-12.28,8.92,0,15.71,5.18,17.31,12.72-5.4,6.14-11.39,10-17.5,10ZM241,72.5c0-4.14,0-14.56,15.95-19.68l14.85,60.26a22.54,22.54,0,0,0-13.17,11.27,91.7,91.7,0,0,1-4.77-7.89C246.15,102.21,241,84.55,241,72.5Zm38.64,39.22L264.66,51a96.31,96.31,0,0,1,15.52-1.12A99.7,99.7,0,0,1,295.7,51l-15,60.75Zm-9-89.8c3.79-4,4.13-9.05,3.19-13.32,23,4.09,27.14,24.71,27.88,31.45A99.66,99.66,0,0,0,280.17,38a108.12,108.12,0,0,0-17.6,1.3c-.29-8.43,3.14-12.1,8.06-17.35ZM240.91,47.71a30.08,30.08,0,0,0-5.57,5.44l-2.24-2.23a8.7,8.7,0,0,1-2.5-7.14l.9-8.07,7.05,7.05c.88.88,1.92,3.79,2.36,4.94Zm-33.2,86.75,23.5-44.75a129.71,129.71,0,0,0,8.37,24.73l-20.83,39.84c-2.56-.05-6.32-.08-11,0ZM44.46,223.34c-3.25,10.9-3.48,26.94-3.62,54.38,0,8.94-2.54,15.54-7.41,19.63-4.2,3.51-9.64,4.84-14.25,5.25,2.75-10.58,1.16-28.43-4.65-56.05-5.08-24.18-2.77-43.27,6.86-56.76,7.8-10.92,19.14-15.87,27.15-16.86,13.55-1.68,23.72,8.18,28.23,13.63A54.54,54.54,0,0,0,68.21,204c-13.08,1.73-20.25,7.6-23.75,19.36ZM119,356.09v-78a89.32,89.32,0,0,0,12.48-7.85L126,356.09Zm148.26,0H253.65L256,278.77a6,6,0,1,0-11.91-.36l-2.35,77.68H228.25V278.75a36.36,36.36,0,0,0-23.59-33.93l-.24-.08L148.5,226.66a6,6,0,0,0-7.77,6c1.39,22.34-29.71,36-30,36.18a6,6,0,0,0-3.61,5.47v81.75h-6.63C96.66,345,85.89,312,80,277.67c-6.3-36.94-8.25-83,18.29-92.9,57-21.16,123.06-18.5,123.72-18.47a6,6,0,0,0,5.54-3.19l18.73-35.85c10.07,16.48,22,25.47,33.86,25.47a26.59,26.59,0,0,0,4.94-.47Zm35-231.33A22.51,22.51,0,0,0,288.59,113l14.85-60.23c15.92,5,15.93,15.18,15.93,19.76,0,15.62-7,37.5-17.07,52.26ZM319.93,48c.44-1.16,1.54-4.34,2.41-5.22l7.05-7.05.9,8.07a8.68,8.68,0,0,1-2.5,7.14l-2.46,2.46a29.29,29.29,0,0,0-5.4-5.4Zm0,0" transform="translate(0 0)"/></g><path d="M258.82,93.77A3.93,3.93,0,0,0,260,91a4,4,0,1,0-1.16,2.8Zm0,0" transform="translate(0 0)"/><path d="M272.52,123.66a3.18,3.18,0,0,0,0,6.36,3.19,3.19,0,0,0,2.25-.94,3.15,3.15,0,0,0,.93-2.24,3.17,3.17,0,0,0-3.18-3.18Zm0,0" transform="translate(0 0)"/><path d="M288.46,123.66a3.18,3.18,0,0,0,0,6.36,3.21,3.21,0,0,0,2.25-.94,3.18,3.18,0,0,0-2.25-5.42Zm0,0" transform="translate(0 0)"/><path d="M303.85,87a4,4,0,1,0,2.8,1.16,4,4,0,0,0-2.8-1.16Zm0,0" transform="translate(0 0)"/></g></g></svg>