<svg xmlns="http://www.w3.org/2000/svg" xmlns:xlink="http://www.w3.org/1999/xlink" viewBox="0 0 368.04 363.04"><defs><style>.cls-1{fill:none;}.cls-2{clip-path:url(#clip-path);}</style><clipPath id="clip-path" transform="translate(0 -0.96)"><rect class="cls-1" y="0.16" width="368.88" height="364.8"/></clipPath></defs><title>Ресурс 6</title><g id="Слой_2" data-name="Слой 2"><g id="Слой_1-2" data-name="Слой 1"><g class="cls-2"><path d="M217.55,289.29c1,17.42,7.77,69.36,7.77,69.36a6,6,0,0,0,6,5.35h41.08a6,6,0,0,0,5.86-4.64l27.13-115.15c17-19.59,28.84-42.68,29-61.12,2.8-3.1,5.19-6.11,7.11-8.72,11.65-15.84,19.68-38,19.68-50,9.77-28.2,6.25-63.3,6.09-64.76a5.23,5.23,0,0,0-8.46-3.5L326.95,81.57c-11.42-3-26-2.9-33.72-2.83-8-.07-22.95-.18-34.66,3.09L226.36,56.06a5.22,5.22,0,0,0-8.45,3.5c-.17,1.52-3.85,37.42,7.27,66.26a46.1,46.1,0,0,0,1.61,11.27c-25.77,10.11-76.35,28.8-129.71,42a49.63,49.63,0,0,0-13.51,5.49,42.88,42.88,0,0,1,7-31.88l29.91-43.59A55.51,55.51,0,0,0,103.05,30L55.68,1.81a6,6,0,0,0-8.83,7L56.65,40a35.67,35.67,0,0,1-6.26,33.14L13.54,118.85A61.07,61.07,0,0,0,36.26,213l22,9.77C45.2,275.4,70.71,356,71.95,359.82A6,6,0,0,0,77.69,364h37.79a6,6,0,0,0,6-5.27l10.22-82.43a45.75,45.75,0,0,0,9.75-22.66s43.61,4.49,57.69,8.23c11.48,3,17.77,15.54,18.43,27.43ZM357.47,70.53a163.91,163.91,0,0,1-2.1,31.29A38.44,38.44,0,0,0,349,93.45a42.49,42.49,0,0,0-10.64-7.61ZM265.33,92.59a137.21,137.21,0,0,1,13.78,36.86l-40-16A27.55,27.55,0,0,1,246,102c5.14-5.09,12.15-7.89,19.37-9.43ZM340.49,102a27.55,27.55,0,0,1,6.87,11.42l-40,16a137.07,137.07,0,0,1,13.78-36.86c7.22,1.54,14.23,4.34,19.37,9.43ZM291.32,90.78c4.4,0,15.1-.08,21.31.53-6.48,12.18-16.54,36.43-17.18,70.37a16.59,16.59,0,0,1-2.22.17,16,16,0,0,1-2.22-.18c-.64-33.94-10.7-58.2-17.18-70.37,4.55-.45,13.76-.52,17.5-.52ZM227.73,70.54l19.63,15.7a42.18,42.18,0,0,0-9.89,7.21,38.56,38.56,0,0,0-7.32,10.11,162.79,162.79,0,0,1-2.43-33ZM96.9,40.32a43,43,0,0,1,20.24,28c.31,1.4.54,2.8.71,4.2H65.06a47.69,47.69,0,0,0,3.09-36.2L63.08,20.22ZM59.84,80.59h58.23a43.06,43.06,0,0,1-7.55,21.69l-29.91,43.6c-8.73,12.72-11.77,32-8.34,47.08-2.88,3.1-4.54,6.65-6.77,10.65a67.33,67.33,0,0,0-3.6,7.58l-20.73-9.23a49,49,0,0,1-18.24-75.53Zm50.32,271.36h-7.62V299.38a102,102,0,0,0,15.5-9.77Zm26.29-111.2a6,6,0,0,0-6.86,6.34c1.66,26.62-35.09,42.79-35.45,42.95a6,6,0,0,0-3.65,5.54v56.37H82.16C76.41,332.34,54,249,76,209.46c5.56-10,13.39-16.08,23.94-18.68,53.82-13.3,104.87-32.13,131-42.4,1,2.1,2,4.25,3.18,6.41-2.36,11.32-4.27,38.25,18.36,72.24,18.15,27.25,19,38.54,19,38.58a4,4,0,0,0,6.31,3.21c.35-.24,5-3.49,11.49-9.09l-21.73,92.21h-9.34l4-62.79a6,6,0,0,0-12-.77l-4.09,63.57h-9.5s-6.16-47.44-7.11-63.34c-1-17-10.36-34.06-26.84-38.27-16.22-4.14-66.29-9.59-66.29-9.59Zm141.68,17.79c-2.05-6.57-7-18.1-18.9-36-15.84-23.8-18.64-43.85-18.21-56.44,1.89,2.82,3.91,5.62,6,8.36,8.93,11.46,26.79,30.68,46.16,30.68,12.57,0,23.62-6.13,32.39-13.54-5.25,30.74-35.52,57.42-47.48,66.9Zm15.09-65.42c-10.25,0-24-9.73-36.65-26S237.2,134.56,237.2,127a53.71,53.71,0,0,1,.3-5.84l43.33,17.33h0a163.66,163.66,0,0,1,2.13,24.2,5.26,5.26,0,0,0-1.36,3.79c0,4.06,5.2,9.27,8.39,12.09v2.4h-5.13a3.22,3.22,0,0,0,0,6.43h16.69a3.22,3.22,0,0,0,0-6.43h-5.13v-2.4c3.19-2.82,8.39-8,8.39-12.09a5.26,5.26,0,0,0-1.36-3.79,163.11,163.11,0,0,1,2.13-24.2h0l43.33-17.33a53.71,53.71,0,0,1,.3,5.84c0,18-27.24,66.16-56,66.16Zm0,0" transform="translate(0 -0.96)"/></g><path d="M324.16,139.16a4.5,4.5,0,0,0-3.12-1.29,4.41,4.41,0,1,0,3.12,1.29Zm0,0" transform="translate(0 -0.96)"/><path d="M265.41,137.87a4.41,4.41,0,1,0,3.12,1.29,4.45,4.45,0,0,0-3.12-1.29Zm0,0" transform="translate(0 -0.96)"/></g></g></svg>