<svg xmlns="http://www.w3.org/2000/svg" xmlns:xlink="http://www.w3.org/1999/xlink" viewBox="0 0 345.99 368"><defs><style>.cls-1{fill:none;}.cls-2{clip-path:url(#clip-path);}</style><clipPath id="clip-path" transform="translate(0)"><rect class="cls-1" width="346" height="368"/></clipPath></defs><title>Ресурс 5</title><g id="Слой_2" data-name="Слой 2"><g id="Слой_1-2" data-name="Слой 1"><g class="cls-2"><path d="M345.86,28.3,343.49,7a6,6,0,0,0-10.15-3.56L316.82,20a21.42,21.42,0,0,0-5.11,8.22,60.58,60.58,0,0,0-8.11-2.3l6.88-20.65A4,4,0,0,0,306.71,0h-50A4,4,0,0,0,253,5.23l6.87,20.6a62.49,62.49,0,0,0-8.21,2.29A21.43,21.43,0,0,0,246.55,20L230,3.45A6,6,0,0,0,219.88,7L217.52,28.3a21.2,21.2,0,0,0,6.11,17.42l5.59,5.59a36.4,36.4,0,0,0-.94,8.34,64,64,0,0,0,.43,7.08l-25.47,52a4,4,0,0,0-.42,1.78v24.8c-25.21.57-72.21,4-115.59,20.11A39.6,39.6,0,0,0,74.65,173a41,41,0,0,0-30.59,8.35c-14.78,11.24-23.59,31.93-26.22,61.51a18.31,18.31,0,0,0-11.71,7.24c-13.34,17.63-1.89,37.42,6,45.43a6,6,0,0,0,7.16,1c9.94-5.57,26.54-21.44,18.21-41.64a20.25,20.25,0,0,0-7.93-9.61c2.14-26.29,9.55-45,21.45-54.26a30.52,30.52,0,0,1,14.27-6.18Q59.72,195,57.48,209.63c-2.64,17.42-1.67,39.79,2.9,66.48,7.68,44.9,23.16,87.55,23.32,88A6,6,0,0,0,89.3,368h37a6,6,0,0,0,6-5.59l6.93-109.15c0-.06,0-.12,0-.18a42,42,0,0,0,8.35-18.47l50.92,16.46A25.73,25.73,0,0,1,215,275v87a6,6,0,0,0,6,6h52.66a6,6,0,0,0,5.95-5.45L299.3,137.13c7.7-5.33,14.89-14.07,21.08-25.86,8.59-16.37,14.14-36.64,14.14-51.64a38.52,38.52,0,0,0-.79-7.91l6-6a21.19,21.19,0,0,0,6.11-17.42ZM20.78,254.57c2.3.15,4.57,2.07,5.71,4.84,4.54,11-3.62,19.66-9,23.88-3.94-5.54-9.32-16.2-1.9-26a6.33,6.33,0,0,1,5.14-2.7ZM281.39,131.24c-5.6,0-11.89-4-18-11,1.79-7.79,8.87-13.12,18.15-13.12,9.46,0,16.64,5.53,18.25,13.57-5.68,6.48-12,10.59-18.45,10.59ZM256.75,91.59h-9.51c-4.37-11.37-7-23.11-7-32,0-4.4,0-15.48,17-20.86l15.6,63.32a23.37,23.37,0,0,0-14,12.09,95.43,95.43,0,0,1-5.17-8.52c-1.07-2-2.09-4-3.06-6.12h6.14a4,4,0,0,0,0-8Zm24.84,9.12-.91,0L265,37a93.22,93.22,0,0,1,12.46-1.14V70.59a4,4,0,0,0,8,0V35.82a96,96,0,0,1,12.46,1.1l-15.73,63.8Zm14.06-76.12c-3.21-.37-6.63-.61-10.27-.71V8h15.82ZM262.27,8h15.14V23.89q-5.06.15-9.61.67ZM232.06,37.28a9.33,9.33,0,0,1-2.69-7.66l1-8.95,7.74,7.74a9.4,9.4,0,0,1,2.15,3.35l.41,2.1a31,31,0,0,0-6.08,6Zm-21.29,84.22,20.5-41a138.53,138.53,0,0,0,8,22.89l-21.91,41.93c-1.7,0-3.93-.06-6.62-.06ZM120.65,356.07h-7.83V274.19a92,92,0,0,0,13.57-8.58Zm154.05-74.94h-5.23a6,6,0,1,0,0,11.93h4.19l-.41,4.72h-3.77a6,6,0,1,0,0,11.93h2.73l-.41,4.72h-2.32a6,6,0,1,0,0,11.93h1.27l-2.6,29.7H253.43l2.45-81a6,6,0,1,0-11.93-.36l-2.46,81.37H226.92V328.21h2.77a6,6,0,0,0,0-11.93h-2.77v-4.72h2.77a6,6,0,0,0,0-11.93h-2.77v-4.72h2.77a6,6,0,0,0,0-11.93h-2.77V275a37.71,37.71,0,0,0-24.47-35.2l-.24-.08L143.8,220.88a6,6,0,0,0-7.79,6.05c1.47,23.51-31.18,37.89-31.5,38a6,6,0,0,0-3.61,5.48v85.63H93.53c-2.57-7.49-8.34-25-13.75-46.35h5.9a6,6,0,1,0,0-11.93H76.91q-.53-2.34-1.05-4.72H86.47a6,6,0,0,0,0-11.93H73.42q-.52-2.7-1-5.43h14a6,6,0,0,0,0-11.94H70.53c-5.14-36.55-4.62-77.66,20.85-87.11q2.51-.93,5-1.8v36a6,6,0,1,0,11.93,0V171.07h0c5.85-1.71,11.71-3.2,17.53-4.51v20.63a6,6,0,1,0,11.93,0V164.08c4.42-.83,8.78-1.57,13-2.21V196.8a6,6,0,0,0,11.93,0V160.26c4.51-.54,8.88-1,13-1.36v53.26a6,6,0,1,0,11.93,0V158c4.76-.29,9.15-.48,13-.6v54.75a6,6,0,1,0,11.93,0V157.23c4.94,0,7.79.12,7.93.13a6,6,0,0,0,5.55-3.2l3-5.7,13.4,20.1a4,4,0,0,0,6.62-4.41l-15.82-23.73,4.34-8.3,13.19,19.79a4,4,0,1,0,6.62-4.41L242,124.09l4.1-7.84c9.27,15.3,21.55,26.93,35.34,26.93a27.45,27.45,0,0,0,5.44-.55Zm41.4-189.53h-9.39a4,4,0,1,0,0,8h6.15a97.53,97.53,0,0,1-8.34,15A23.4,23.4,0,0,0,290,102L305.6,38.7c17,5.23,17,16.08,17,20.94,0,9.38-2.42,20.91-6.47,32Zm15.2-54.32L328.55,40a30.55,30.55,0,0,0-5.89-5.95l.46-2.33a9.42,9.42,0,0,1,2.15-3.35L333,20.67l1,8.95a9.33,9.33,0,0,1-2.69,7.66Zm0,0" transform="translate(0)"/></g><path d="M256.16,74.95A4,4,0,1,0,259,76.1a4,4,0,0,0-2.81-1.16Zm0,0" transform="translate(0)"/><path d="M273.41,113.21a3.19,3.19,0,0,0-3.18,3.18,3.24,3.24,0,0,0,.93,2.25,3.19,3.19,0,0,0,2.25.93,3.18,3.18,0,1,0,0-6.37Zm0,0" transform="translate(0)"/><path d="M290.06,113.21a3.19,3.19,0,0,0-3.18,3.18,3.18,3.18,0,1,0,3.18-3.18Zm0,0" transform="translate(0)"/><path d="M306.12,74.95a4,4,0,1,0,2.81,1.16,4,4,0,0,0-2.81-1.16Zm0,0" transform="translate(0)"/></g></g></svg>