<?xml version="1.0" encoding="iso-8859-1"?>
<!-- Generator: Adobe Illustrator 19.0.0, SVG Export Plug-In . SVG Version: 6.00 Build 0)  -->
<svg xmlns="http://www.w3.org/2000/svg" xmlns:xlink="http://www.w3.org/1999/xlink" version="1.1" id="Layer_1" x="0px" y="0px" viewBox="0 0 512 512" style="enable-background:new 0 0 512 512;" xml:space="preserve" width="512" height="512">
<g>
	<path style="fill:#714C2F;" d="M256,0C131.8,0,31,109.701,31,242c0,92.701,48.6,175.201,126.599,215.7l45,30.899H306.7   l47.701-30.899C432.4,417.201,481,334.701,481,242C481,109.701,380.2,0,256,0z"/>
	<path style="fill:#523522;" d="M481,242c0,92.701-48.6,175.201-126.599,215.7L306.7,488.599H256V0C380.2,0,481,109.701,481,242z"/>
	<rect x="91" y="212" style="fill:#24292D;" width="30" height="30"/>
	<rect x="391" y="212" style="fill:#24292D;" width="30" height="30"/>
	<polygon style="fill:#663325;" points="19.003,331.692 12.997,302.308 132.997,277.757 139.003,307.142  "/>
	<polygon style="fill:#663325;" points="21.566,390.931 10.434,363.069 130.58,315.008 141.713,342.869  "/>
	<polygon style="fill:#3C1B13;" points="493.056,331.707 373.056,307.713 378.944,278.299 498.944,302.293  "/>
	<polygon style="fill:#3C1B13;" points="490.434,390.931 370.287,342.869 381.42,315.008 501.566,363.069  "/>
	<path style="fill:#663325;" d="M391,272v47.701c0,60-17.701,118.2-51,168.3c-9.901,15-26.7,24-45,24   c-15.3,0-29.099-6.899-39-17.701C246.099,505.101,232.301,512,217,512c-18.3,0-35.099-9-45-24c-33.3-50.099-51-108.3-51-168.3V272   h30v47.701c0,54.3,15.901,106.5,45.901,151.5C201.4,478.1,208.9,482,217,482c11.1,0,20.7-7.5,23.399-18.6L256,467.3l15.601-3.9   C274.3,474.5,283.9,482,295,482c8.101,0,15.601-3.9,20.099-10.8c30-45,45.901-97.2,45.901-151.5V272H391z"/>
	<path style="fill:#3C1B13;" d="M391,272v47.701c0,60-17.701,118.2-51,168.3c-9.901,15-26.7,24-45,24   c-15.3,0-29.099-6.899-39-17.701V467.3l15.601-3.9C274.3,474.5,283.9,482,295,482c8.101,0,15.601-3.9,20.099-10.8   c30-45,45.901-97.2,45.901-151.5V272H391z"/>
	<path style="fill:#895D3C;" d="M331,362c0,4.2,0,8.401-0.3,12.299H181.3C181,370.401,181,366.2,181,362c0-91.199,33.6-165,75-165   S331,270.801,331,362z"/>
	<path style="fill:#714C2F;" d="M331,362c0,4.2,0,8.401-0.3,12.299H256V197C297.4,197,331,270.801,331,362z"/>
	<path style="fill:#FFBD86;" d="M330.7,374.299c0-21.599-12.599-34.799-45.601-20.4c-9,3.6-19.199,8.101-29.099,8.101   s-20.099-4.501-29.099-8.101c-32.701-14.099-45.601-0.599-45.601,20.4c-0.901,2.701,0.601,14.702,0.899,17.701v0.3   C188.8,429.5,215.799,482,256,482s67.2-52.5,73.801-89.7V392C330.099,389.001,331.601,377,330.7,374.299z"/>
	<path style="fill:#F6A96C;" d="M329.801,392v0.3C323.2,429.5,296.201,482,256,482V362c9.901,0,20.099-4.501,29.099-8.101   C318.1,339.5,330.7,352.7,330.7,374.299C331.601,377,330.099,389.001,329.801,392z"/>
</g>















</svg>
