<?xml version="1.0" encoding="iso-8859-1"?>
<!-- Generator: Adobe Illustrator 19.0.0, SVG Export Plug-In . SVG Version: 6.00 Build 0)  -->
<svg xmlns="http://www.w3.org/2000/svg" xmlns:xlink="http://www.w3.org/1999/xlink" version="1.1" id="Layer_1" x="0px" y="0px" viewBox="0 0 512 512" style="enable-background:new 0 0 512 512;" xml:space="preserve" width="512" height="512">
<g>
	<path style="fill:#7C8388;" d="M421,214.9V271c0,50.099-19.799,96.599-52.8,124.499C342.7,416.8,343.9,436,342.4,440.2   c-7.2,35.999-36,64.3-71.4,70.598L256,466l-15,44.799c-35.4-6.299-64.2-34.6-71.4-70.598c-1.5-4.501-0.3-23.401-25.8-44.702   c-32.701-27.9-52.5-73.799-52.8-123.3v-56.7l30-120L256,95.2l134.7-0.3L421,214.9z"/>
	<path style="fill:#575F64;" d="M421,214.9V271c0,50.099-19.799,96.599-52.8,124.499C342.7,416.8,343.9,436,342.4,440.2   c-7.2,35.999-36,64.3-71.4,70.598L256,466V95.2l134.7-0.3L421,214.9z"/>
	<g>
		<path style="fill:#575F64;" d="M0,271v-15C0,111.394,132.807,72.2,135.81,69.818c1.855,11.02,39.887,68.079-6.489,139.57    C106,245.351,65.596,268.29,22.925,270.766H22.91C16.073,271.145,13.597,270.941,0,271z"/>
	</g>
	<g>
		<path style="fill:#32393F;" d="M512,271h-15c-47.406,0-92.585-24.515-117.338-66.475c-39.227-66.452-4.689-128.172-3.501-134.707    C379.161,72.199,512,111.445,512,256V271z"/>
	</g>
	<path style="fill:#575F64;" d="M211,361v45c0,24.899,20.099,45,45,45s45-20.101,45-45v-45H211z"/>
	<path style="fill:#575F64;" d="M271,436v74.799c-4.799,0.601-9.901,1.201-15,1.201s-10.201-0.601-15-1.201V436H271z"/>
	<rect x="151" y="241" style="fill:#575F64;" width="30" height="30"/>
	<rect x="331" y="241" style="fill:#32393F;" width="30" height="30"/>
	<path style="fill:#ECECF1;" d="M331,30c-4.799,0-9.3,0.599-13.801,1.8C303.1,11.999,280.6,0,256,0s-47.1,11.999-61.199,31.8   C190.3,30.599,185.799,30,181,30c-32.999,0-60,27.999-60,61c0,24,14.099,45,35.4,54.6C166,166.899,187,181,211,181   c17.701,0,33.9-7.8,45-20.4c11.1,12.599,27.299,20.4,45,20.4c24,0,45-14.101,54.6-35.4C376.901,136,391,115,391,91   C391,57.999,363.999,30,331,30z"/>
	<path style="fill:#32393F;" d="M256,361h45v45c0,24.899-20.099,45-45,45V361z"/>
	<path style="fill:#D3D3D8;" d="M391,91c0,24-14.099,45-35.4,54.6C346,166.899,325,181,301,181c-17.701,0-33.9-7.8-45-20.4V0   c24.6,0,47.1,11.999,61.199,31.8C321.7,30.599,326.201,30,331,30C363.999,30,391,57.999,391,91z"/>
	<path style="fill:#32393F;" d="M271,436v74.799c-4.799,0.601-9.901,1.201-15,1.201v-76H271z"/>
</g>















</svg>
