<?xml version="1.0" encoding="iso-8859-1"?>
<!-- Generator: Adobe Illustrator 19.0.0, SVG Export Plug-In . SVG Version: 6.00 Build 0)  -->
<svg xmlns="http://www.w3.org/2000/svg" xmlns:xlink="http://www.w3.org/1999/xlink" version="1.1" id="Layer_1" x="0px" y="0px" viewBox="0 0 512 512" style="enable-background:new 0 0 512 512;" xml:space="preserve" width="512" height="512">
<g>
	<g>
		<path style="fill:#714C2F;" d="M122.45,212.416l-75.366-88.51C20.087,92.573,23.632,45.112,54.965,18.13    c31.377-26.982,78.823-23.394,105.776,7.896l103.11,119.707L122.45,212.416z"/>
	</g>
	<g>
		<path style="fill:#FFBD86;" d="M74.535,40.864c-18.794,16.187-20.918,44.663-4.717,63.472l60.571,71.313l84.829-40.404    l-77.212-89.648C121.744,26.734,93.27,24.718,74.535,40.864z"/>
	</g>
	<g>
		<path style="fill:#523522;" d="M397.387,202.85l-127.412-82.943l80.874-93.882C377.86-5.323,425.292-8.838,456.624,18.13    c31.399,27.008,34.953,74.37,7.882,105.776L397.387,202.85z"/>
	</g>
	<g>
		<path style="fill:#F6A96C;" d="M315.238,113.344l76.436,49.16l50.098-58.169c16.068-18.646,14.302-47.113-4.717-63.472    c-18.823-16.201-47.3-14.048-63.472,4.731L315.238,113.344z"/>
	</g>
	<path style="fill:#895D3C;" d="M445.677,470.9c-29.399,17.399-58.277,29.099-91.877,35.4L259.6,392l-3.6,3.9l-98.101,110.4   c-33.3-6.301-63.024-18.001-92.424-35.4C10.275,437.599-14.025,368.5,8.175,307.899L70.3,129c15-41.1,54.6-69,98.699-69h174.001   C387.1,60,426.7,87.9,441.7,129l62.278,178.9C526.178,368.5,500.878,437.599,445.677,470.9z"/>
	<path style="fill:#714C2F;" d="M445.677,470.9c-29.399,17.399-58.277,29.099-91.877,35.4L259.6,392l-3.6,3.9V60h87.001   C387.1,60,426.7,87.9,441.7,129l62.278,178.9C526.178,368.5,500.878,437.599,445.677,470.9z"/>
	<path style="fill:#FED2A4;" d="M353.8,506.3c-17.701,3.3-35.4,5.7-53.401,5.7c0,0-21.899,0-44.399,0h-44.099   c-18.301,0-36.301-2.401-54.001-5.7c-19.499-22.2-29.099-51.601-25.8-81l13.2-117.7c4.2-37.8,36-66.599,74.399-66.599h72.601   c38.399,0,70.199,28.799,74.399,66.599l13.2,117.7C383.2,454.999,373.6,484.1,353.8,506.3z"/>
	<path style="fill:#FFBD86;" d="M353.8,506.3c-17.701,3.3-35.4,5.7-53.401,5.7c0,0-21.899,0-44.399,0V241h36.301   c38.399,0,70.199,28.799,74.399,66.599l13.2,117.7C383.2,454.999,373.6,484.1,353.8,506.3z"/>
	<rect x="151" y="181" style="fill:#714C2F;" width="30" height="30"/>
	<rect x="331" y="181" style="fill:#523522;" width="30" height="30"/>
	<rect x="211" y="301" style="fill:#895D3C;" width="90" height="30"/>
	<path style="fill:#895D3C;" d="M331,407c0,24.899-20.099,45-45,45c-11.7,0-21.899-4.501-30-11.7c-8.101,7.2-18.3,11.7-30,11.7   c-24.901,0-45-20.101-45-45h30c0,8.399,6.599,15,15,15s15-6.601,15-15v-91h30v91c0,8.399,6.599,15,15,15s15-6.601,15-15H331z"/>
	<rect x="256" y="301" style="fill:#714C2F;" width="45" height="30"/>
	<path style="fill:#714C2F;" d="M331,407c0,24.899-20.099,45-45,45c-11.7,0-21.899-4.501-30-11.7V316h15v91c0,8.399,6.599,15,15,15   s15-6.601,15-15H331z"/>
</g>















</svg>
