<?xml version="1.0" encoding="iso-8859-1"?>
<!-- Generator: Adobe Illustrator 19.0.0, SVG Export Plug-In . SVG Version: 6.00 Build 0)  -->
<svg xmlns="http://www.w3.org/2000/svg" xmlns:xlink="http://www.w3.org/1999/xlink" version="1.1" id="Layer_1" x="0px" y="0px" viewBox="0 0 512 512" style="enable-background:new 0 0 512 512;" xml:space="preserve" width="512" height="512">
<g>
	<path style="fill:#32393F;" d="M432.7,147.7L323.2,417.7H189.101l-108.001-270l42.601-89.401C133.9,59.799,144.101,61,154.6,61H196   c24.6,0,46.199,11.7,60,30c13.801-18.3,35.4-30,60-30h41.4c10.499,0,20.7-1.201,30.899-2.701L432.7,147.7z"/>
	<path style="fill:#24292D;" d="M432.7,147.7L323.2,417.7H256V91c13.801-18.3,35.4-30,60-30h41.4c10.499,0,20.7-1.201,30.899-2.701   L432.7,147.7z"/>
	<path style="fill:#D3D3D8;" d="M487.332,20.815c-28.07,23.683-63.13,31.84-99.08,37.465c-3.565,15.394-2.626,31.434,3.32,46.679   c7.603,19.504,22.579,34.221,41.038,42.832h18.86C489.306,118.056,512,80.347,512,32.285V0L487.332,20.815z"/>
	<path style="fill:#ECECF1;" d="M121.981,100.624c4.583-14.092,5.013-28.493,1.816-42.339c-35.969-5.62-71.045-13.775-99.13-37.469   L0,0v32.285c0,48.062,22.694,85.771,60.531,115.507h20.521C100.388,138.444,115.093,121.806,121.981,100.624z"/>
	<path style="fill:#575F64;" d="M91,121H0v15c0,25.986,12.085,49.6,33.164,64.79C49.966,212.919,71.02,217.958,91,215.263v4.409   c0,53.145,21.782,104.048,60,140.713V421l60.176-41.309C221.005,339.262,226,297.646,226,256C226,181.557,165.443,121,91,121z"/>
	<path style="fill:#32393F;" d="M421,121c-74.443,0-135,60.557-135,135c0,41.646,4.995,83.262,14.824,123.691L361,421v-60.615   c38.218-36.665,60-87.568,60-140.713v-4.409c19.98,2.695,41.034-2.373,57.836-14.473C499.915,185.6,512,161.986,512,136v-15H421z"/>
	<path style="fill:#7C8388;" d="M301,361c-13.5,0-26.4,4.499-36.899,12.9c-2.401,1.5-5.101,2.401-8.101,2.401   s-5.7-0.901-8.101-2.401C237.4,365.499,224.5,361,211,361c-32.999,0-60,26.999-60,60v15c0,41.4,33.6,76,75,76h60   c41.4,0,75-34.6,75-76v-15C361,387.999,333.999,361,301,361z"/>
	<path style="fill:#575F64;" d="M361,421v15c0,41.4-33.6,76-75,76h-30V376.3c2.999,0,5.7-0.901,8.101-2.401   C274.6,365.499,287.5,361,301,361C333.999,361,361,387.999,361,421z"/>
	<rect x="211" y="421" style="fill:#575F64;" width="30" height="30"/>
	<rect x="271" y="421" style="fill:#32393F;" width="30" height="30"/>
	<rect x="151" y="211" style="fill:#32393F;" width="30" height="30"/>
	<rect x="331" y="211" style="fill:#24292D;" width="30" height="30"/>
</g>















</svg>
