<?xml version="1.0" encoding="iso-8859-1"?>
<!-- Generator: Adobe Illustrator 19.0.0, SVG Export Plug-In . SVG Version: 6.00 Build 0)  -->
<svg xmlns="http://www.w3.org/2000/svg" xmlns:xlink="http://www.w3.org/1999/xlink" version="1.1" id="Layer_1" x="0px" y="0px" viewBox="0 0 512 512" style="enable-background:new 0 0 512 512;" xml:space="preserve" width="512" height="512">
<g>
	<path style="fill:#575F64;" d="M76,0H61v29.707c0,15.542-5.859,32.699-16.948,47.758C17.494,113.529,0,164.696,0,211   c0,56.572,26.576,96.533,73.041,112.529L211,144.54V136C211,61.557,150.443,0,76,0z"/>
	<path style="fill:#32393F;" d="M461.107,67.778C454.589,60.088,451,50.098,451,39.668V0h-15c-74.443,0-135,61.557-135,136v8.54   l137.959,178.989C485.424,307.533,512,267.572,512,211C512,160.434,491.415,103.608,461.107,67.778z"/>
	<path style="fill:#24292D;" d="M436,271h-60V151c0-16.569,13.431-30,30-30h0c16.569,0,30,13.431,30,30V271z"/>
	<path style="fill:#32393F;" d="M136,271H76V151c0-16.569,13.431-30,30-30h0c16.569,0,30,13.431,30,30V271z"/>
	<path style="fill:#7C8388;" d="M256,121c-107.401,0-195,74.099-195,165c0,88.5,83.699,226,195,226s195-137.5,195-226   C451,195.099,363.401,121,256,121z"/>
	<path style="fill:#575F64;" d="M451,286c0,88.5-83.699,226-195,226V121C363.401,121,451,195.099,451,286z"/>
	<rect x="271" y="301" style="fill:#32393F;" width="30" height="30"/>
	<g id="Bat">
		<g>
			<path style="fill:#32393F;" d="M151,316h-15c-8.284,0-15-6.716-15-15v-30h30V316z"/>
		</g>
		<g>
			<path style="fill:#24292D;" d="M376,316h-15v-45h30v30C391,309.284,384.284,316,376,316z"/>
		</g>
	</g>
	<path style="fill:#575F64;" d="M391,301v30h-54.3L319.3,295.899C311.499,280.6,296.201,271,278.8,271H233.2   c-17.401,0-32.699,9.6-40.499,24.899L175.3,331H121v-30h30h5.7l9.3-18.6c12.9-25.501,38.401-41.4,67.2-41.4H278.8   c28.799,0,54.3,15.899,67.2,41.4l9.3,18.6h5.7H391z"/>
	<rect x="211" y="376" style="fill:#ECECF1;" width="30" height="45"/>
	<rect x="271" y="376" style="fill:#D3D3D8;" width="30" height="45"/>
	<path style="fill:#32393F;" d="M391,301v30h-54.3L319.3,295.899C311.499,280.6,296.201,271,278.8,271H256v-30h22.8   c28.799,0,54.3,15.899,67.2,41.4l9.3,18.6h5.7H391z"/>
	<rect x="211" y="301" style="fill:#575F64;" width="30" height="30"/>
	<rect x="181" y="361" style="fill:#575F64;" width="150" height="30"/>
	<rect x="256" y="361" style="fill:#32393F;" width="75" height="30"/>
</g>















</svg>
