<?xml version="1.0" encoding="iso-8859-1"?>
<!-- Generator: Adobe Illustrator 19.0.0, SVG Export Plug-In . SVG Version: 6.00 Build 0)  -->
<svg xmlns="http://www.w3.org/2000/svg" xmlns:xlink="http://www.w3.org/1999/xlink" version="1.1" id="Layer_1" x="0px" y="0px" viewBox="0 0 512.3 512.3" style="enable-background:new 0 0 512.3 512.3;" xml:space="preserve" width="512" height="512">
<g>
	<path style="fill:#FF641A;" d="M512.15,259.6V286c0,57.9-48.1,105-106,105c-25.8,0-51.599,5.7-75,16.5v65.799l-75-21.299   l-75,21.299v-66.099C158.35,396.7,133.449,391,108.25,391c-59.7,0-108.1-47.1-108.1-105v-26.4l24-19.501   c23.701-3.6,44.2-21.599,49.001-45.899c1.199-5.101,2.399-9.901,3.9-14.7L121.15,151c0-39.6,67.5-59.101,135-59.101   s135,19.501,135,59.101l44.099,28.5c1.501,4.799,2.701,9.598,3.9,14.7c4.801,24.3,25.3,42.299,49.001,45.899L512.15,259.6z"/>
	<path style="fill:#F03800;" d="M512.15,259.6V286c0,57.9-48.1,105-106,105c-25.8,0-51.599,5.7-75,16.5v65.799l-75-21.299V91.899   c67.5,0,135,19.501,135,59.101l44.099,28.5c1.501,4.799,2.701,9.598,3.9,14.7c4.801,24.3,25.3,42.299,49.001,45.899L512.15,259.6z"/>
	<path style="fill:#F03800;" d="M91.15,331v-30c-22.046,0-42.851-12.246-52.709-31.963l-14.412-28.823   C21.118,240.667,18.168,241,15.15,241h-15v18.549l11.455,22.906C26.576,312.396,57.678,331,91.15,331z"/>
	<path style="fill:#CD0000;" d="M421.15,301v30c33.472,0,64.574-18.604,79.545-48.545l11.455-22.914V241h-15   c-3.019,0-5.969-0.331-8.881-0.786l-15.41,28.823C463.001,288.754,443.196,301,421.15,301z"/>
	<g>
		<path style="fill:#32393F;" d="M335.413,290.995l-28.271-9.99c10.62-30.059,33.955-53.394,64.014-64.014l9.99,28.271    C359.993,252.748,342.898,269.843,335.413,290.995z"/>
	</g>
	<g>
		<path style="fill:#575F64;" d="M176.887,290.995c-7.485-21.152-24.58-38.247-45.732-45.732l9.99-28.271    c30.059,10.62,53.394,33.955,64.014,64.014L176.887,290.995z"/>
	</g>
	<path style="fill:#F03800;" d="M151.15,211h-15c-57.99,0-105-47.01-105-105v0c0-57.99,47.01-106,105-106h15V211z"/>
	<path style="fill:#CD0000;" d="M376.15,211h-15V0h15c57.99,0,105,48.01,105,106v0C481.15,163.99,434.14,211,376.15,211z"/>
	<path style="fill:#575F64;" d="M331.15,473.299l-13.801,13.801c-16.8,16.8-39,25.201-61.199,25.201s-44.399-8.401-61.199-25.201   l-13.801-13.801l75-51.299L331.15,473.299z"/>
	<path style="fill:#32393F;" d="M331.15,473.299l-13.801,13.801c-16.8,16.8-39,25.201-61.199,25.201V422L331.15,473.299z"/>
</g>















</svg>
