<?xml version="1.0" encoding="iso-8859-1"?>
<!-- Generator: Adobe Illustrator 19.0.0, SVG Export Plug-In . SVG Version: 6.00 Build 0)  -->
<svg xmlns="http://www.w3.org/2000/svg" xmlns:xlink="http://www.w3.org/1999/xlink" version="1.1" id="Layer_1" x="0px" y="0px" viewBox="0 0 514.999 514.999" style="enable-background:new 0 0 514.999 514.999;" xml:space="preserve" width="512" height="512">
<g>
	<polygon style="fill:#575F64;" points="62.5,0 62.5,107.5 32.5,61 32.5,0  "/>
	<polygon style="fill:#32393F;" points="482.5,0 482.5,60.399 452.5,107.199 452.5,0  "/>
	<path style="fill:#32393F;" d="M465.039,71.21l-53.833,8.965c-37.148,6.182-70.137,26.133-92.871,56.177l97.793,33.413   l53.833-68.965L465.039,71.21z"/>
	<path style="fill:#575F64;" d="M103.794,80.175L49.961,71.21l-4.922,29.59l67.72,53.657l83.906-18.105   C173.93,106.308,140.942,86.356,103.794,80.175z"/>
	<path style="fill:#7C8388;" d="M513.5,362H1.5l8.401-33.6c9.6-39,24.399-75.901,48.699-107.701C41.8,199.1,32.5,171.7,32.5,143.8   V61l30,16.5l29.7,16.5c21.601,11.7,38.701,30.3,49.2,52.202C171.7,130.3,213.699,121,257.5,121s85.8,9.3,116.1,25.201   c10.499-21.901,27.599-40.501,49.2-52.5l29.7-16.501l30-16.8V143.8c0,27.9-9.3,55.3-26.1,76.899   c24.3,31.8,39.099,68.701,48.699,107.701L513.5,362z"/>
	<path style="fill:#575F64;" d="M513.5,362h-256V121c43.801,0,85.8,9.3,116.1,25.201c10.499-21.901,27.599-40.501,49.2-52.5   l29.7-16.501l30-16.8V143.8c0,27.9-9.3,55.3-26.1,76.899c24.3,31.8,39.099,68.701,48.699,107.701L513.5,362z"/>
	<path style="fill:#D3D3D8;" d="M458.5,362c7.8,35.7-6.301,74.099-37.2,96L340,514.999l-16.8-47.098l-65.7,0.599l-66.301,0.901   L175.6,513.199L84.099,461.6C62.199,449.299,47.8,428,44.5,403.4c-2.1-14.399-0.3-28.5,5.099-41.4H1.5   c67.5-89.7,54.101-78.6,66.1-91.199L227.199,332l30.3,15l30.3-15l159.6-61.199C459.399,283.4,446,272.3,513.5,362H458.5z"/>
	<path style="fill:#BABAC0;" d="M458.5,362c7.8,35.7-6.301,74.099-37.2,96L340,514.999l-16.8-47.098l-65.7,0.599V347l30.3-15   l159.6-61.199C459.399,283.4,446,272.3,513.5,362H458.5z"/>
	<path style="fill:#FDBF00;" d="M447.331,270.896C429.934,252.84,406.245,242,380.664,242c-50.288,0-91.132,40.122-92.844,90h74.68   C402.036,332,435.244,306.34,447.331,270.896z"/>
	<path style="fill:#FFDA2D;" d="M152.5,332h74.68c-1.712-49.878-42.556-90-92.844-90c-25.582,0-49.27,10.84-66.667,28.896   C79.756,306.34,112.964,332,152.5,332z"/>
	<rect x="137.5" y="259.124" style="fill:#8C4A37;" width="30" height="57.876"/>
	<rect x="347.5" y="259.124" style="fill:#663325;" width="30" height="57.876"/>
	<path style="fill:#D3D3D8;" d="M323.2,473.301c-13.5,24-38.401,38.699-65.7,38.699s-52.2-14.7-65.7-38.699L257.5,422L323.2,473.301   z"/>
	<path style="fill:#BABAC0;" d="M323.2,473.301c-13.5,24-38.401,38.699-65.7,38.699v-90L323.2,473.301z"/>
	<path style="fill:#ECECF1;" d="M392.5,392c0,30.901-31.5,90-75,90c-26.4,0-47.1-21-60-42.9C244.9,461,223.9,482,197.5,482   c-43.2,0-75-59.099-75-90c0-38.699,69.3-60,105-60l30,30l30-30C323.2,332,392.5,353.301,392.5,392z"/>
	<path style="fill:#D3D3D8;" d="M392.5,392c0,30.901-31.5,90-75,90c-26.4,0-47.1-21-60-42.9V362l30-30   C323.2,332,392.5,353.301,392.5,392z"/>
	<path style="fill:#575F64;" d="M287.5,332v30c0,16.5-13.5,30-30,30s-30-13.5-30-30v-30H287.5z"/>
	<path style="fill:#32393F;" d="M257.5,392v-60h30v30C287.5,378.5,273.999,392,257.5,392z"/>
</g>















</svg>
