<?xml version="1.0" encoding="iso-8859-1"?>
<!-- Generator: Adobe Illustrator 19.0.0, SVG Export Plug-In . SVG Version: 6.00 Build 0)  -->
<svg xmlns="http://www.w3.org/2000/svg" xmlns:xlink="http://www.w3.org/1999/xlink" version="1.1" id="Layer_1" x="0px" y="0px" viewBox="0 0 512 512" style="enable-background:new 0 0 512 512;" xml:space="preserve" width="512" height="512">
<g>
	<path style="fill:#ECECF1;" d="M451,316c0,48.9-36.301,92.399-96.599,116.7H157.599C97.301,408.399,61,364.9,61,316   c0-26.1,10.8-58.5,30-89.401V166C91,75.099,165.099,0,256,0s165,75.099,165,166v60.599C440.2,257.5,451,289.9,451,316z"/>
	<path style="fill:#D3D3D8;" d="M451,316c0,48.9-36.301,92.399-96.599,116.7H256V0c90.901,0,165,75.099,165,166v60.599   C440.2,257.5,451,289.9,451,316z"/>
	<rect x="331" y="181" style="fill:#32393F;" width="30" height="30"/>
	<rect x="151" y="181" style="fill:#575F64;" width="30" height="30"/>
	<path style="fill:#FFDA2D;" d="M348.999,288.1c3.001-16.201-3.3-32.1-17.098-41.1c-13.5-9.3-30.601-9.3-44.401,0   c-9.6,6.299-20.7,9.598-31.5,9.598s-21.899-3.3-31.5-9.598c-13.801-9.3-30.901-9.3-44.401,0c-13.799,9-20.099,24.899-17.098,41.1   c20.999,105-42.601,170.799-48.9,184.6C122.5,476,174.699,512,256,512s133.2-36,141.899-39.3   C391.601,459.2,328.001,393.1,348.999,288.1z"/>
	<path style="fill:#FDBF00;" d="M397.899,472.7C389.2,476,337.301,512,256,512V256.599c10.8,0,21.899-3.3,31.5-9.598   c13.801-9.3,30.901-9.3,44.401,0c13.799,9,20.099,24.899,17.098,41.1C328.001,393.1,391.601,459.2,397.899,472.7z"/>
	<rect x="211" y="331" style="fill:#FDBF00;" width="30" height="30"/>
	<rect x="271" y="331" style="fill:#FF9100;" width="30" height="30"/>
</g>















</svg>
