<?xml version="1.0" encoding="iso-8859-1"?>
<!-- Generator: Adobe Illustrator 19.0.0, SVG Export Plug-In . SVG Version: 6.00 Build 0)  -->
<svg xmlns="http://www.w3.org/2000/svg" xmlns:xlink="http://www.w3.org/1999/xlink" version="1.1" id="Layer_1" x="0px" y="0px" viewBox="0 0 512 512" style="enable-background:new 0 0 512 512;" xml:space="preserve" width="512" height="512">
<g>
	<path style="fill:#D3D3D8;" d="M359.909,437c0,41.999-46.199,75-105,75s-105-33.001-105-75c0-10.201,2.701-20.101,8.101-29.401   h193.799C357.208,416.899,359.909,426.799,359.909,437z"/>
	<path style="fill:#BABAC0;" d="M351.808,407.599c5.4,9.3,8.101,19.2,8.101,29.401c0,41.999-46.199,75-105,75V407.599H351.808z"/>
	<path style="fill:#575F64;" d="M179.455,38.487C149.053,6.568,103.776-0.959,60.055,0.108   c-3.227,43.697,2.026,89.124,32.476,121.128c22.471,23.599,56.016,33.867,80.933,37.222l39.712-15.542   C213.717,128.81,213.439,74.186,179.455,38.487z"/>
	<path style="fill:#32393F;" d="M451.945,0.094c-43.664-1.059-89.066,6.542-119.414,38.394   c-34.16,35.903-34.263,90.952-33.721,104.663l19.087,17.153l0.029-0.542c22.998,0.732,72.056-7.573,101.528-38.525   C449.919,89.228,455.172,43.798,451.945,0.094z"/>
	<path style="fill:#D3D3D8;" d="M114.269,100.553C94.552,79.84,89.894,48.58,88.942,30.401c18.076,1.787,48.955,7.954,68.774,28.77   c19.702,20.698,24.375,51.914,25.327,70.122C164.923,127.447,133.971,121.236,114.269,100.553z"/>
	<path style="fill:#BABAC0;" d="M397.716,100.553c-19.731,20.728-50.713,26.909-68.818,28.74   c0.908-18.149,5.552-49.292,25.371-70.122c19.688-20.684,50.654-26.88,68.789-28.726   C422.106,48.639,417.418,79.855,397.716,100.553z"/>
	<path style="fill:#7C8388;" d="M389.909,195v32.999c0,48.001-15.3,95.9-43.2,134.001h-183.9c-27.599-38.101-42.9-86.3-42.9-134.001   V195c0-56.4,44.099-102.601,100.499-105h64.501C342.808,90,389.909,137.1,389.909,195z"/>
	<path style="fill:#575F64;" d="M389.909,195v32.999c0,48.001-15.3,95.9-43.2,134.001h-91.8V90h30   C342.808,90,389.909,137.1,389.909,195z"/>
	<rect x="179.909" y="180" style="fill:#32393F;" width="30" height="30"/>
	<rect x="299.909" y="180" style="fill:#24292D;" width="30" height="30"/>
	<path style="fill:#575F64;" d="M284.909,90c0,6-1.8,11.7-4.799,16.5c-22.202,33.3-24.3,70.201-25.201,73.5   c-1.8-3.001-66.899-50.7-24-108.001c5.7-7.5,14.7-11.999,24-11.999C271.408,60,284.909,73.5,284.909,90z"/>
	<path style="fill:#32393F;" d="M280.109,106.5c-22.202,33.3-24.3,70.201-25.201,73.5V60c16.5,0,30,13.5,30,30   C284.909,96,283.109,101.7,280.109,106.5z"/>
	<path style="fill:#ECECF1;" d="M254.909,272c-60,0-105,72.9-105,120c0,60,65.7,60,105,60s105,0,105-60   C359.909,344.9,314.909,272,254.909,272z"/>
	<path style="fill:#D3D3D8;" d="M359.909,392c0,60-65.7,60-105,60V272C314.909,272,359.909,344.9,359.909,392z"/>
	<rect x="209.909" y="362" style="fill:#7C8388;" width="30" height="30"/>
	<rect x="269.909" y="362" style="fill:#575F64;" width="30" height="30"/>
</g>















</svg>
