<?xml version="1.0" encoding="iso-8859-1"?>
<!-- Generator: Adobe Illustrator 19.0.0, SVG Export Plug-In . SVG Version: 6.00 Build 0)  -->
<svg xmlns="http://www.w3.org/2000/svg" xmlns:xlink="http://www.w3.org/1999/xlink" version="1.1" id="Layer_1" x="0px" y="0px" viewBox="0 0 512 512" style="enable-background:new 0 0 512 512;" xml:space="preserve" width="512" height="512">
<g>
	<path style="fill:#895D3C;" d="M224.667,120H85.858c-33.091,0-60-26.909-60-60l0.044-1.904C26.928,25.518,53.266,0,85.858,0   c17.278,0,32.765,7.259,43.711,18.911L224.667,120z"/>
	<path style="fill:#FFBD86;" d="M85.858,90c-16.538,0-30-13.462-30-30c0.542-17.241,13.711-30,30-30   c8.365,0,16.153,3.398,21.841,9.448L155.263,90H85.858z"/>
	<path style="fill:#714C2F;" d="M426.142,120H287.333l95.098-101.104C393.684,6.978,409.219,0,426.142,0c32.887,0,60,26.633,60,60   C486.142,93.091,459.232,120,426.142,120z"/>
	<path style="fill:#F6A96C;" d="M356.737,90l47.549-50.552C409.993,33.432,417.715,30,426.142,30c16.375,0,30,13.206,30,30   c0,16.538-13.462,30-30,30H356.737z"/>
	<path style="fill:#714C2F;" d="M451,211v80.4H61V211c0-82.8,67.2-151,150-151h90C383.8,60,451,128.2,451,211z"/>
	<path style="fill:#523522;" d="M451,291.4H256V60h45c82.8,0,150,68.2,150,151V291.4z"/>
	<path style="fill:#714C2F;" d="M461.201,407.199c-0.601,55.8-45,101.8-100.201,104.2L331,451l-30,61h-90l-30-61l-30,60.399   c-55.201-2.401-99.6-48.401-100.201-104.2H461.201z"/>
	<path style="fill:#523522;" d="M461.201,407.199c-0.601,55.8-45,101.8-100.201,104.2L331,451l-30,61h-45V407.199H461.201z"/>
	<path style="fill:#ECECF1;" d="M151,421v90.518c1.617,0.075,3.142,0.482,4.775,0.482H211v-91H151z"/>
	<path style="fill:#D3D3D8;" d="M301,421v91h55.225c1.633,0,3.159-0.406,4.775-0.482V421H301z"/>
	<path style="fill:#895D3C;" d="M256,211c-124.2,0-225,67.2-225,150c0,90,109.2,90,225,90s225,0,225-90C481,278.2,380.2,211,256,211   z"/>
	<path style="fill:#714C2F;" d="M481,361c0,90-109.2,90-225,90V211C380.2,211,481,278.2,481,361z"/>
	<rect x="151" y="150" style="fill:#663325;" width="30" height="30"/>
	<rect x="331" y="150" style="fill:#3C1B13;" width="30" height="30"/>
	<path style="fill:#714C2F;" d="M166,391c-24.814,0-45-20.186-45-45s20.186-45,45-45s45,20.186,45,45S190.814,391,166,391z"/>
	<path style="fill:#523522;" d="M346,391c-24.814,0-45-20.186-45-45s20.186-45,45-45s45,20.186,45,45S370.814,391,346,391z"/>
</g>















</svg>
