<?xml version="1.0" encoding="iso-8859-1"?>
<!-- Generator: Adobe Illustrator 19.0.0, SVG Export Plug-In . SVG Version: 6.00 Build 0)  -->
<svg xmlns="http://www.w3.org/2000/svg" xmlns:xlink="http://www.w3.org/1999/xlink" version="1.1" id="Layer_1" x="0px" y="0px" viewBox="0 0 514.473 514.473" style="enable-background:new 0 0 514.473 514.473;" xml:space="preserve" width="512" height="512">
<g>
	<path style="fill:#714C2F;" d="M436,1.687h-30c-57.891,0-105,47.109-105,105l90,7.075c0-17.139,9.536-32.563,24.873-40.239   c12.598-6.328,28.656-6.299,41.254,0L512,100.959V76.687C512,35.334,477.353,1.687,436,1.687z"/>
	<path style="fill:#895D3C;" d="M106,1.687H75c-41.353,0-75,33.647-75,75v24.272l54.873-27.437c12.598-6.328,28.656-6.299,41.254,0   C111.464,81.199,121,96.623,121,114.714l90-8.027C211,48.796,163.891,1.687,106,1.687z"/>
	<g>
		<path style="fill:#D3D3D8;" d="M18.369,195.837C1.538,179.006-4.233,154.514,3.296,131.941l3.413-10.254h192.719l-11.25,54.258    L83.266,210.911C60.591,218.469,35.14,212.609,18.369,195.837z"/>
	</g>
	<g>
		<path style="fill:#FED2A4;" d="M30.015,151.687c-0.073,8.467,3.237,16.597,9.565,22.939c8.906,8.892,21.299,11.821,33.193,7.837    l89.799-30.776H30.015z"/>
	</g>
	<g>
		<path style="fill:#BABAC0;" d="M431.254,210.911l-107.051-35.684l-11.909-53.54h195.517l3.413,10.254    c7.529,22.573,1.758,47.065-15.073,63.896C479.384,212.603,453.936,218.471,431.254,210.911z"/>
	</g>
	<g>
		<path style="fill:#FFBD86;" d="M349.809,152.141l90.938,30.322c11.865,3.94,25.302,1.04,34.193-7.837    c6.328-6.343,9.639-14.473,9.565-22.939H349.706L349.809,152.141z"/>
	</g>
	<path style="fill:#D3D3D8;" d="M361,403.087v14.099c0,31.201-12.299,62.601-34.501,84.8L316,512.786l-30-30l-30,30l-30-30l-30,30   l-10.499-10.8c-22.202-22.2-34.501-53.599-34.501-84.8v-14.099H361z"/>
	<path style="fill:#BABAC0;" d="M361,403.087v14.099c0,31.201-12.299,62.601-34.501,84.8L316,512.786l-30-30l-30,30V403.087H361z"/>
	<path style="fill:#ECECF1;" d="M421,224.587c0,38.101-13.5,74.399-37.5,103.5l0.901,1.5c4.199,9,6.599,18.6,6.599,28.5   c0,35.099-28.5,63.6-63.6,63.6H286c-11.4,0-21.899-4.501-30-11.4c-8.101,6.899-18.6,11.4-30,11.4h-41.4   c-35.099,0-63.6-28.5-63.6-63.6c0-9.901,2.401-19.501,6.599-28.5l0.901-1.5c-24-29.101-37.5-65.4-37.5-103.5v-57.9   c0-38.401,29.099-69.6,66.301-74.101l47.399,34.801h102.601l47.399-34.801c37.202,4.501,66.301,35.7,66.301,74.101V224.587z"/>
	<path style="fill:#D3D3D8;" d="M421,224.587c0,38.101-13.5,74.399-37.5,103.5l0.901,1.5c4.199,9,6.599,18.6,6.599,28.5   c0,35.099-28.5,63.6-63.6,63.6H286c-11.4,0-21.899-4.501-30-11.4v-282.9h51.301l47.399-34.801   c37.202,4.501,66.301,35.7,66.301,74.101V224.587z"/>
	<rect x="151" y="181.687" style="fill:#575F64;" width="30" height="30"/>
	<rect x="331" y="181.687" style="fill:#32393F;" width="30" height="30"/>
	<path style="fill:#D3D3D8;" d="M354.699,92.586l-17.399,34.801C313.599,175.086,301,228.487,301,281.586v20.101h-90v-20.101   c0-53.099-12.599-106.5-36.301-154.199l-17.399-34.801c2.699-0.3,5.7-0.899,8.699-0.899h180   C348.999,91.687,352,92.286,354.699,92.586z"/>
	<path style="fill:#BABAC0;" d="M354.699,92.586l-17.399,34.801C313.599,175.086,301,228.487,301,281.586v20.101h-45v-210h90   C348.999,91.687,352,92.286,354.699,92.586z"/>
	<path style="fill:#895D3C;" d="M314.5,287.586c-5.4-9.899-15.3-15.899-26.4-15.899h-64.2c-11.1,0-21,6-26.4,15.899   c-5.099,9.6-4.499,21.601,1.5,30.601l32.1,47.999c5.4,8.401,14.7,13.5,24.901,13.5s19.501-5.099,24.901-13.5l32.1-47.999   C318.999,309.187,319.6,297.186,314.5,287.586z"/>
	<path style="fill:#714C2F;" d="M256,379.686V271.687h32.1c11.1,0,21,6,26.4,15.899c5.099,9.6,4.499,21.601-1.5,30.601l-32.1,47.999   C275.501,374.587,266.201,379.686,256,379.686z"/>
</g>















</svg>
