<?xml version="1.0" encoding="iso-8859-1"?>
<!-- Generator: Adobe Illustrator 19.0.0, SVG Export Plug-In . SVG Version: 6.00 Build 0)  -->
<svg xmlns="http://www.w3.org/2000/svg" xmlns:xlink="http://www.w3.org/1999/xlink" version="1.1" id="Layer_1" x="0px" y="0px" viewBox="0 0 512 512" style="enable-background:new 0 0 512 512;" xml:space="preserve" width="512" height="512">
<g>
	<path style="fill:#ECECF1;" d="M486.25,106v406h-75c-16.8,0-32.401-5.7-45-15v15h-75c-24.6,0-46.199-11.7-60-30   c-13.801,18.3-35.4,30-60,30H25.75l35.999-27.001c63.301-47.401,111.301-112.599,138.301-187l1.8-5.4   c-16.8-11.4-31.501-26.1-43.2-43.2l-2.401-3.9V106c0-57.9,47.1-106,105-106h120C439.149,0,486.25,48.1,486.25,106z"/>
	<path style="fill:#D3D3D8;" d="M486.25,106v406h-75c-16.8,0-32.401-5.7-45-15v15h-45V0h60C439.149,0,486.25,48.1,486.25,106z"/>
	<rect x="306.25" y="106" style="fill:#575F64;" width="30" height="45"/>
	<path style="fill:#FFDA2D;" d="M246.25,106V91h-135c-41.4,0-75,33.6-75,75v156.299l58.101-105.251L311.349,181   C305.649,176.499,246.25,168.699,246.25,106z"/>
	<path style="fill:#FDBF00;" d="M124.45,181c-80.667,0-75.84,92.006-80.7,102.299l-7.5,39l25.499-25.8   c20.101-20.099,45.3-33.6,72.601-39c45.06-9.448,71.343,4.913,135.3,15.601l28.198-62.1l13.5-30H124.45z"/>
	<rect x="321.25" y="106" style="fill:#32393F;" width="15" height="45"/>
	<rect x="276.25" y="91" style="fill:#575F64;" width="90" height="30"/>
	<rect x="321.25" y="91" style="fill:#32393F;" width="45" height="30"/>
</g>















</svg>
