<?xml version="1.0" encoding="iso-8859-1"?>
<!-- Generator: Adobe Illustrator 19.0.0, SVG Export Plug-In . SVG Version: 6.00 Build 0)  -->
<svg xmlns="http://www.w3.org/2000/svg" xmlns:xlink="http://www.w3.org/1999/xlink" version="1.1" id="Layer_1" x="0px" y="0px" viewBox="0 0 512 512" style="enable-background:new 0 0 512 512;" xml:space="preserve" width="512" height="512">
<g>
	<path style="fill:#5BC980;" d="M482,299.2v1.8c0,82.8-101.8,150-226,150S31,383.8,31,301l225-0.901L482,299.2z"/>
	<path style="fill:#00AB5E;" d="M482,299.2v1.8c0,82.8-101.8,150-226,150V300.099L482,299.2z"/>
	<path style="fill:#FED2A4;" d="M418.299,318.1C403.9,361,337.301,391,256,391s-147.9-30-162.299-72.9H418.299z"/>
	<path style="fill:#FFBD86;" d="M418.299,318.1C403.9,361,337.301,391,256,391v-72.9H418.299z"/>
	<path style="fill:#7FE881;" d="M512,256c0,77.699-115.901,75.3-194.801,75.3c-1.199,0-1.5,0-1.5,0c-4.2,0-18.3,0-59.7-0.3h-31.8   C135.399,331.3,0,340.3,0,256c0-36.601,27.1-76.201,72.4-108.3l111.301-50.101C199.9,89.2,220.3,88.9,236.8,96.7   c6,2.999,12.601,4.499,19.2,4.499s13.2-1.5,19.2-4.499c16.5-7.8,36.899-7.5,53.099,0.899L439.6,147.7   C484.9,179.799,512,219.399,512,256z"/>
	<path style="fill:#5BC980;" d="M512,256c0,77.699-115.901,75.3-194.801,75.3c-1.199,0-1.5,0-1.5,0c-4.2,0-18.3,0-59.7-0.3V101.199   c6.599,0,13.2-1.5,19.2-4.499c16.5-7.8,36.899-7.5,53.099,0.899L439.6,147.7C484.9,179.799,512,219.399,512,256z"/>
	<rect x="211" y="241" style="fill:#575F64;" width="30" height="30"/>
	<rect x="271" y="241" style="fill:#32393F;" width="30" height="30"/>
	<path style="fill:#5BC980;" d="M136,211c-41.353,0-75-33.647-75-75s33.647-75,75-75s75,33.647,75,75S177.353,211,136,211z"/>
	<path style="fill:#00AB5E;" d="M376,211c-41.353,0-75-33.647-75-75s33.647-75,75-75s75,33.647,75,75S417.353,211,376,211z"/>
	<path style="fill:#ECECF1;" d="M136,91c-19.53,0-36.024,12.578-42.237,30L121,136l-27.237,15c6.213,17.422,22.707,30,42.237,30   c24.814,0,45-20.186,45-45S160.814,91,136,91z"/>
	<path style="fill:#575F64;" d="M136,121H93.763C92.082,125.715,91,130.716,91,136s1.082,10.285,2.763,15H136V121z"/>
	<path style="fill:#D3D3D8;" d="M418.237,121C412.024,103.578,395.53,91,376,91c-24.814,0-45,20.186-45,45s20.186,45,45,45   c19.53,0,36.024-12.578,42.237-30L391,136L418.237,121z"/>
	<path style="fill:#32393F;" d="M418.237,121H376v30h42.237c1.681-4.715,2.763-9.716,2.763-15S419.918,125.715,418.237,121z"/>
</g>















</svg>
