<?xml version="1.0" encoding="iso-8859-1"?>
<!-- Generator: Adobe Illustrator 19.0.0, SVG Export Plug-In . SVG Version: 6.00 Build 0)  -->
<svg xmlns="http://www.w3.org/2000/svg" xmlns:xlink="http://www.w3.org/1999/xlink" version="1.1" id="Layer_1" x="0px" y="0px" viewBox="0 0 511.839 511.839" style="enable-background:new 0 0 511.839 511.839;" xml:space="preserve" width="512" height="512">
<g>
	<path style="fill:#663325;" d="M176.02,60.575C155.57,16.718,95.541,2.798,92.992,2.271L82.035,0l-5.303,9.858   c-1.23,2.285-29.912,57.587-9.463,101.43c12.173,26.089,31.758,46.875,52.397,55.62l68.555-58.14   C187.636,93.08,183.417,76.425,176.02,60.575z"/>
	<path style="fill:#3C1B13;" d="M435.106,9.858L429.804,0l-10.957,2.271c-2.549,0.527-62.578,14.447-83.027,58.305   c-7.222,15.483-11.426,31.816-12.158,47.227l70.21,58.359c20.288-9.229,38.76-29.238,50.698-54.873   C465.019,67.445,436.337,12.144,435.106,9.858z"/>
	<path style="fill:#8C4A37;" d="M421.762,225.839c0,55.499-22.8,116.201-60,157.899h-210c-37.2-41.999-60-102.4-60-157.899   c0-78.9,47.999-134.099,128.101-147.001h73.799C373.762,91.74,421.762,146.939,421.762,225.839z"/>
	<path style="fill:#663325;" d="M421.762,225.839c0,55.499-22.8,116.201-60,157.899h-105v-304.9h36.899   C373.762,91.74,421.762,146.939,421.762,225.839z"/>
	<path style="fill:#FFBD86;" d="M331.161,432.939H182.362c47.1-69,53.699-156.099,17.999-230.501h112.8   C277.462,276.839,284.061,363.939,331.161,432.939z"/>
	<path style="fill:#F6A96C;" d="M331.161,432.939h-74.399V202.438h56.4C277.462,276.839,284.061,363.939,331.161,432.939z"/>
	<rect x="151.762" y="240.839" style="fill:#663325;" width="30" height="30"/>
	<rect x="331.762" y="240.839" style="fill:#3C1B13;" width="30" height="30"/>
	<path style="fill:#FED2A4;" d="M361.762,383.738v53.101c0,75-78.9,75-105,75s-105,0-105-75v-53.101   c30.3-23.399,66.899-36.899,105-36.899C295.163,346.839,331.461,360.64,361.762,383.738z"/>
	<path style="fill:#FFBD86;" d="M361.762,383.738v53.101c0,75-78.9,75-105,75v-165C295.163,346.839,331.461,360.64,361.762,383.738z   "/>
	
		<rect x="190.549" y="406.84" transform="matrix(0.7071 0.7071 -0.7071 0.7071 360.3087 -26.1844)" style="fill:#8C4A37;" width="42.426" height="29.997"/>
	
		<rect x="286.763" y="400.626" transform="matrix(0.7071 0.7071 -0.7071 0.7071 386.6691 -89.824)" style="fill:#663325;" width="29.997" height="42.426"/>
	<polygon style="fill:#663325;" points="335.962,210.839 271.762,210.839 256.762,180.839 241.762,210.839 177.561,210.839    215.061,60.839 298.462,60.839  "/>
	<polygon style="fill:#3C1B13;" points="271.762,210.839 256.762,180.839 256.762,60.839 298.462,60.839 335.962,210.839  "/>
	<rect x="241.762" y="120.839" style="fill:#8C4A37;" width="30" height="90"/>
	<rect x="256.762" y="120.839" style="fill:#663325;" width="15" height="90"/>
</g>















</svg>
