<?xml version="1.0" encoding="iso-8859-1"?>
<!-- Generator: Adobe Illustrator 19.0.0, SVG Export Plug-In . SVG Version: 6.00 Build 0)  -->
<svg xmlns="http://www.w3.org/2000/svg" xmlns:xlink="http://www.w3.org/1999/xlink" version="1.1" id="Layer_1" x="0px" y="0px" viewBox="0 0 512 512" style="enable-background:new 0 0 512 512;" xml:space="preserve" width="512" height="512">
<g>
	<polygon style="fill:#575F64;" points="17.314,391.836 3.896,365 85.009,324.716 98.427,351.552  "/>
	<polygon style="fill:#575F64;" points="21.211,479.023 0,457.813 105.077,355.712 126.288,376.923  "/>
	<polygon style="fill:#32393F;" points="494.686,391.836 413.573,351.552 426.991,324.716 508.104,365  "/>
	<polygon style="fill:#32393F;" points="490.789,479.023 385.712,376.923 406.923,355.712 512,457.813  "/>
	<path style="fill:#575F64;" d="M69.657,0c-1.196,3-77.03,77.393-17.329,169.97l130.137-70.005L69.657,0z"/>
	<path style="fill:#32393F;" d="M445.258,0L332.04,100.331l128.965,72.012C523.923,79.06,446.442,3.01,445.258,0z"/>
	<path style="fill:#575F64;" d="M326.201,472.301C315.099,495.7,287.5,512,256,512s-59.099-16.3-70.201-39.699L256,391   L326.201,472.301z"/>
	<path style="fill:#32393F;" d="M326.201,472.301C315.099,495.7,287.5,512,256,512V391L326.201,472.301z"/>
	<path style="fill:#7C8388;" d="M481,226c0,46.8-19.501,92.1-54.6,127.5c-19.499,19.501-32.1,42.599-36.899,66.899   c-1.5,3.001-8.401,48.6-57.301,58.801c-29.7,6.301-58.799-5.099-76.199-28.2c-17.401,23.101-46.5,34.501-76.199,28.2   c-48.9-10.201-55.801-55.8-57.301-58.801c-4.799-24.3-17.401-47.399-36.899-66.899C50.501,318.1,31,272.8,31,226   c0-5.4,0.601-10.201,0.901-15L76,196l-37.8-15C65.2,102.4,166.3,91,256,91s190.8,11.4,217.8,90l-39,15l45.298,15   C480.399,215.799,481,220.6,481,226z"/>
	<path style="fill:#575F64;" d="M481,226c0,46.8-19.501,92.1-54.6,127.5c-19.499,19.501-32.1,42.599-36.899,66.899   c-1.5,3.001-8.401,48.6-57.301,58.801c-29.7,6.301-58.799-5.099-76.199-28.2V91c89.7,0,190.8,11.4,217.8,90l-39,15l45.298,15   C480.399,215.799,481,220.6,481,226z"/>
	<path style="fill:#24292D;" d="M434.755,181c-41.353,0-75,33.647-75,75h30c0-24.814,20.186-45,45-45h45.273   c-1.024-10.946-3.127-20.934-6.255-30H434.755z"/>
	<path style="fill:#575F64;" d="M286,301c-11.4,0-21.899,4.501-30,11.4c-8.101-6.899-18.6-11.4-30-11.4c-24.901,0-45,20.099-45,45   c0,20.4,13.5,37.5,31.8,43.2c5.7,18.3,22.8,31.8,43.2,31.8s37.5-13.5,43.2-31.8c18.3-5.7,31.8-22.8,31.8-43.2   C331,321.099,310.901,301,286,301z"/>
	<path style="fill:#32393F;" d="M121,256h30c0-41.353-33.647-75-75-75H38.227c-3.127,9.066-5.231,19.054-6.255,30H76   C100.814,211,121,231.186,121,256z"/>
	<path style="fill:#575F64;" d="M211,346h-30v-22.925c0-46.201,10.928-92.461,31.582-133.784l26.836,13.418   C220.829,239.887,211,281.518,211,323.075V346z"/>
	<path style="fill:#32393F;" d="M331,346h-30v-22.925c0-41.558-9.829-83.188-28.418-120.366l26.836-13.418   C320.072,230.614,331,276.874,331,323.075V346z"/>
	<path style="fill:#32393F;" d="M331,346c0,20.4-13.5,37.5-31.8,43.2c-5.7,18.3-22.8,31.8-43.2,31.8V312.4   c8.101-6.899,18.6-11.4,30-11.4C310.901,301,331,321.099,331,346z"/>
</g>















</svg>
