<?xml version="1.0" encoding="iso-8859-1"?>
<!-- Generator: Adobe Illustrator 19.0.0, SVG Export Plug-In . SVG Version: 6.00 Build 0)  -->
<svg xmlns="http://www.w3.org/2000/svg" xmlns:xlink="http://www.w3.org/1999/xlink" version="1.1" id="Layer_1" x="0px" y="0px" viewBox="0 0 512 512" style="enable-background:new 0 0 512 512;" xml:space="preserve" width="512" height="512">
<g>
	<path style="fill:#FDBF00;" d="M495.2,129.144l-45,44.702l12.599,18.9l-40.8,48.3l57.9-22.5l2.1,2.999v36.601l-41.7,37.5   l41.7-0.601v17.401c0,120.899-124.6,135-128.2,137.1l-31.5,31.5H189.699l-31.5-31.5c-2.999-1.8-128.2-16.201-128.2-137.1v-17.401   l33.3,1.5L30,258.145v-36.601l2.1-3.3L69,231.745c-12.299-8.401-5.4-21.901-19.799-39.3l12.599-18.6l-45-44.702   C6,118.344,0,103.945,0,88.344c0-31.5,25.8-57.299,57.299-57.299c5.101,0.599,45.401-5.101,85.001,24   c26.4-13.5,62.1-20.7,98.699-22.2l15,28.2l15-28.2c36.599,1.5,72.299,8.699,98.699,22.2c39.6-29.101,79.001-23.101,85.001-24   c31.5,0,57.299,25.8,57.299,57.299C512,103.945,506,118.344,495.2,129.144z"/>
	<path style="fill:#FF9100;" d="M495.2,129.144l-45,44.702l12.599,18.9l-40.8,48.3l57.9-22.5l2.1,2.999v36.601l-41.7,37.5   l41.7-0.601v17.401c0,120.899-124.6,135-128.2,137.1l-31.5,31.5H256v-420l15-28.2c36.599,1.5,72.299,8.699,98.699,22.2   c39.6-29.101,79.001-23.101,85.001-24c31.5,0,57.299,25.8,57.299,57.299C512,103.945,506,118.344,495.2,129.144z"/>
	<polygon style="fill:#895D3C;" points="322.599,392.545 309.401,419.545 256,392.845 202.599,419.545 189.401,392.545 241,366.745    241,346.045 271,346.045 271,366.745  "/>
	<polygon style="fill:#714C2F;" points="322.599,392.545 309.401,419.545 256,392.845 256,346.045 271,346.045 271,366.745  "/>
	<path style="fill:#895D3C;" d="M361,136.045h-30c-2.701-3.001-28.5-15-75-15s-72.299,11.999-75.3,16.8l-29.7-1.8   c0-31.201,52.8-45,105-45S361,104.844,361,136.045z"/>
	<path style="fill:#895D3C;" d="M151,376.045h-30v-19.731c0-44.429,28.14-84.214,70.005-99.009l9.99,28.301   C171.098,296.167,151,324.585,151,356.313V376.045z"/>
	<path style="fill:#714C2F;" d="M391,376.045h-30v-19.731c0-31.729-20.098-60.146-49.995-70.708l9.99-28.301   C362.86,272.1,391,311.885,391,356.313V376.045z"/>
	<path style="fill:#895D3C;" d="M109.267,296.475c-28.973-6.458-56.512-19.75-79.267-38.417v37.115   c21.791,14.277,46.892,24.809,72.733,30.569L109.267,296.475z"/>
	<path style="fill:#895D3C;" d="M151,271.045v-30c-39.756,0-77.241-18.572-101.651-48.567l-17.201,25.803   C61.998,251.002,105.194,271.045,151,271.045z"/>
	<path style="fill:#714C2F;" d="M402.733,296.475l6.533,29.268c25.842-5.76,50.942-16.293,72.733-30.569v-37.115   C459.245,276.725,431.706,290.016,402.733,296.475z"/>
	<path style="fill:#714C2F;" d="M361,241.045v30c46.046,0,89.158-19.788,118.958-52.603l-17.078-25.62   C438.514,222.912,400.959,241.045,361,241.045z"/>
	<polygon style="fill:#714C2F;" points="331,271.045 331,205.317 382.709,179.463 369.291,152.627 301,186.772 301,301.045  "/>
	<polygon style="fill:#895D3C;" points="181,271.045 211,301.045 211,186.772 142.709,152.627 129.291,179.463 181,205.317  "/>
	<path style="fill:#714C2F;" d="M361,136.045h-30c-2.701-3.001-28.5-15-75-15v-30C308.2,91.045,361,104.844,361,136.045z"/>
	<path style="fill:#895D3C;" d="M271,32.845v118.2h-30v-118.2c4.799-0.3,9.901-0.601,15-0.601S266.201,32.545,271,32.845z"/>
	<path style="fill:#714C2F;" d="M271,151.045h-15V32.244c5.099,0,10.201,0.3,15,0.601V151.045z"/>
	<path style="fill:#895D3C;" d="M181,271.045v15c0,41.4,33.6,75,75,75s75-33.6,75-75v-15H181z"/>
	<path style="fill:#714C2F;" d="M256,271.045h75v15c0,41.4-33.6,75-75,75V271.045z"/>
</g>















</svg>
