<?xml version="1.0" encoding="iso-8859-1"?>
<!-- Generator: Adobe Illustrator 19.0.0, SVG Export Plug-In . SVG Version: 6.00 Build 0)  -->
<svg xmlns="http://www.w3.org/2000/svg" xmlns:xlink="http://www.w3.org/1999/xlink" version="1.1" id="Layer_1" x="0px" y="0px" viewBox="0 0 512 512" style="enable-background:new 0 0 512 512;" xml:space="preserve" width="512" height="512">
<g>
	<path style="fill:#FDBF00;" d="M76,0H61C27.909,0,0,26.909,0,60c0,22.632,12.524,44.11,32.695,54.438l44.682,3.311L136,91   l23.994-49.018C139.94,15.308,109.325,0,76,0z"/>
	<path style="fill:#FF9100;" d="M451,0h-15c-33.325,0-63.94,15.308-83.994,41.982l38.993,70.034l88.306,2.422   C499.476,104.11,512,82.632,512,60C512,26.909,484.091,0,451,0z"/>
	<path style="fill:#FF9100;" d="M512,151l-32.701,15l31.501,15c-2.701,24.6-11.4,51.299-28.801,68.399V376c0,57.9-48.1,106-106,106   H136c-57.9,0-106-48.1-106-106V249.399C12.599,232.299,3.9,205.6,1.199,181l31.501-15L0,151v-20.4C0,109.3,15.3,90.7,36.301,86.499   c33.6-6.299,37.899-9.399,85.3-16.3L136,41.4C148.9,15.899,174.401,0,203.2,0H308.8c28.799,0,54.3,15.899,67.2,41.4l14.399,28.799   c47.701,6.901,50.501,9.701,85.3,16.3C496.7,90.7,512,109.3,512,130.6V151z"/>
	<path style="fill:#FF641A;" d="M512,151l-32.701,15l31.501,15c-2.701,24.6-11.4,51.299-28.801,68.399V376c0,57.9-48.1,106-106,106   H256V0h52.8c28.799,0,54.3,15.899,67.2,41.4l14.399,28.799c47.701,6.901,50.501,9.701,85.3,16.3C496.7,90.7,512,109.3,512,130.6   V151z"/>
	<path style="fill:#FFBD86;" d="M378.701,408.699L370.3,451.7c-6.899,34.799-37.8,60.3-73.5,60.3H215.2   c-35.7,0-66.601-25.501-73.5-60.3l-8.401-43.001l122.701-60L378.701,408.699z"/>
	<path style="fill:#F6A96C;" d="M378.701,408.699L370.3,451.7c-6.899,34.799-37.8,60.3-73.5,60.3H256V348.699L378.701,408.699z"/>
	<rect x="61" y="166.762" style="fill:#663325;" width="30" height="44.238"/>
	<path style="fill:#663325;" d="M125.395,206.605l21.211-21.211C124.75,163.539,94.486,151,63.578,151H0v15   c0,4.786,0.637,9.924,1.172,15h62.406C86.591,181,109.12,190.331,125.395,206.605z"/>
	<path style="fill:#3C1B13;" d="M512,151h-63.578c-30.908,0-61.172,12.539-83.027,34.395l21.211,21.211   C402.88,190.331,425.409,181,448.422,181h62.403c0.536-5.076,1.176-10.215,1.176-15V151z"/>
	<rect x="421" y="166.762" style="fill:#3C1B13;" width="30" height="44.238"/>
	<path style="fill:#FED2A4;" d="M421,360.099c0,33.6-27.299,60.901-60.901,60.901H316c-24.6,0-46.199-12.001-60-30.601   C242.199,408.999,220.6,421,196,421h-44.099C118.299,421,91,393.699,91,360.099c0-45,22.8-86.999,60-111.899v-25.8L209.2,106h93.6   L361,222.4v25.8C398.2,273.1,421,315.099,421,360.099z"/>
	<path style="fill:#FFBD86;" d="M421,360.099c0,33.6-27.299,60.901-60.901,60.901H316c-24.6,0-46.199-12.001-60-30.601V106h46.8   L361,222.4v25.8C398.2,273.1,421,315.099,421,360.099z"/>
	<rect x="211" y="211" style="fill:#895D3C;" width="30" height="30"/>
	<rect x="271" y="211" style="fill:#714C2F;" width="30" height="30"/>
</g>















</svg>
