<?xml version="1.0" encoding="iso-8859-1"?>
<!-- Generator: Adobe Illustrator 19.0.0, SVG Export Plug-In . SVG Version: 6.00 Build 0)  -->
<svg xmlns="http://www.w3.org/2000/svg" xmlns:xlink="http://www.w3.org/1999/xlink" version="1.1" id="Layer_1" x="0px" y="0px" viewBox="0 0 512.601 512.601" style="enable-background:new 0 0 512.601 512.601;" xml:space="preserve" width="512" height="512">
<g>
	<path style="fill:#7FE881;" d="M423.401,397H89.5c-33.3-179.401-53.699-235.8-44.399-261.301c4.199-11.7,13.2-21,24.6-26.1   L185.2,79.3c7.8-30.3,27.9-66.7,56.1-76.599L256.3,30l15-27.299c28.2,9.899,48.3,46.298,56.1,76.599l113.401,29.7   c13.499,5.7,22.5,15,26.699,26.7C475.901,158.2,461.501,196.901,423.401,397z"/>
	<path style="fill:#5BC980;" d="M423.401,397H256.3V30l15-27.299c28.2,9.899,48.3,46.298,56.1,76.599l113.401,29.7   c13.499,5.7,22.5,15,26.699,26.7C475.901,158.2,461.501,196.901,423.401,397z"/>
	<path style="fill:#FF641A;" d="M91.3,331c-49.629,0-91-40.371-91-90s41.371-90,91-90s90,40.371,90,90S140.929,331,91.3,331z"/>
	<rect x="61.3" y="211" style="fill:#8C4A37;" width="30" height="30"/>
	<path style="fill:#F03800;" d="M421.3,331c-49.629,0-90-40.371-90-90s40.371-90,90-90s91,40.371,91,90S470.929,331,421.3,331z"/>
	<rect x="421.3" y="211" style="fill:#663325;" width="30" height="30"/>
	<rect x="181.3" y="301" style="fill:#7C8388;" width="30" height="30"/>
	<rect x="301.3" y="301" style="fill:#575F64;" width="30" height="30"/>
	<path style="fill:#5BC980;" d="M241.3,256h-30c0-36.929-8.73-73.916-25.254-106.963l-3.164-6.328l26.836-13.418l3.164,6.328   C231.471,172.812,241.3,214.428,241.3,256z"/>
	<path style="fill:#00AB5E;" d="M301.3,256h-30c0-41.572,9.829-83.188,28.418-120.381l3.164-6.328l26.836,13.418l-3.164,6.328   C310.031,182.084,301.3,219.071,301.3,256z"/>
	<path style="fill:#5BC980;" d="M271.3,2.701V151h-30V2.701C246.099,1.199,251.201,0,256.3,0S266.501,1.199,271.3,2.701z"/>
	<path style="fill:#00AB5E;" d="M271.3,151h-15V0c5.099,0,10.201,1.199,15,2.701V151z"/>
	<path style="fill:#5BC980;" d="M423.401,397c-1.199,5.7-91.8,88.9-91.8,88.9c-22.2,17.699-48.9,26.7-75.3,26.7   s-53.101-8.701-75.3-26.7c0,0-90.601-83.2-91.5-88.9c53.101-23.101,109.799-35.099,166.8-35.099   C313.001,361.901,370,373.599,423.401,397z"/>
	<path style="fill:#00AB5E;" d="M423.401,397c-1.199,5.7-91.8,88.9-91.8,88.9c-22.2,17.699-48.9,26.7-75.3,26.7v-150.7   C313.001,361.901,370,373.599,423.401,397z"/>
	<rect x="211.3" y="421" style="fill:#7FE881;" width="90" height="30"/>
	<rect x="256.3" y="421" style="fill:#5BC980;" width="45" height="30"/>
</g>















</svg>
