<?xml version="1.0" encoding="iso-8859-1"?>
<!-- Generator: Adobe Illustrator 19.0.0, SVG Export Plug-In . SVG Version: 6.00 Build 0)  -->
<svg xmlns="http://www.w3.org/2000/svg" xmlns:xlink="http://www.w3.org/1999/xlink" version="1.1" id="Layer_1" x="0px" y="0px" viewBox="0 0 512 512" style="enable-background:new 0 0 512 512;" xml:space="preserve" width="512" height="512">
<g>
	<path style="fill:#FF641A;" d="M391,106c0,17.999-6.301,35.099-17.999,48.6H138.999C127.301,141.099,121,123.999,121,106   c0-41.4,33.6-76,75-76c14.099-18.6,36.301-30,60-30s45.901,11.4,60,30C357.4,30,391,64.6,391,106z"/>
	<path style="fill:#F03800;" d="M373.001,154.6H256V0c23.699,0,45.901,11.4,60,30c41.4,0,75,34.6,75,76   C391,123.999,384.699,141.099,373.001,154.6z"/>
	<path style="fill:#ECECF1;" d="M451,286c0,62.699-41.1,119.399-107.401,147.599H168.401C102.1,405.399,61,348.699,61,286   c0-90.3,85.201-195,195-195S451,195.7,451,286z"/>
	<path style="fill:#D3D3D8;" d="M451,286c0,62.699-41.1,119.399-107.401,147.599H256V91C365.799,91,451,195.7,451,286z"/>
	<path style="fill:#FF641A;" d="M361,451c0,32.999-27.001,61-60,61c-17.999,0-33.9-7.8-45-20.4C244.9,504.2,228.999,512,211,512   c-32.999,0-60-28.001-60-61c0-6.901,1.199-13.5,3.3-20.101L181.3,340l74.7,0.3h74.399l27.301,91.5C360.099,438.999,361,445,361,451   z"/>
	<path style="fill:#F03800;" d="M361,451c0,32.999-27.001,61-60,61c-17.999,0-33.9-7.8-45-20.4V340.3h74.399l27.301,91.5   C360.099,438.999,361,445,361,451z"/>
	<polygon style="fill:#FDBF00;" points="313.9,282.999 313.9,360.099 256,421 196,360.099 196,282.999  "/>
	<polygon style="fill:#FF9100;" points="313.9,282.999 313.9,360.099 256,421 256,282.999  "/>
	<path style="fill:#FFDA2D;" d="M322.899,183.699c-22.5-5.7-47.1-2.1-66.899,9.3C242.5,185.2,226.901,181,211,181   c-49.501,0-90,40.499-90,90c0,76.199,72.001,87.299,75,89.099l60-27.599l57.9,27.599c3.001-1.8,77.1-12.599,77.1-89.099   C391,229.6,362.8,193.599,322.899,183.699z"/>
	<path style="fill:#FDBF00;" d="M391,271c0,76.5-74.099,87.299-77.1,89.099L256,332.5V192.999c19.799-11.4,44.399-15,66.899-9.3   C362.8,193.599,391,229.6,391,271z"/>
	<rect x="181" y="241" style="fill:#8C4A37;" width="30" height="30"/>
	<rect x="301" y="241" style="fill:#663325;" width="30" height="30"/>
</g>















</svg>
