<?xml version="1.0" encoding="iso-8859-1"?>
<!-- Generator: Adobe Illustrator 19.0.0, SVG Export Plug-In . SVG Version: 6.00 Build 0)  -->
<svg xmlns="http://www.w3.org/2000/svg" xmlns:xlink="http://www.w3.org/1999/xlink" version="1.1" id="Layer_1" x="0px" y="0px" viewBox="0 0 512 512" style="enable-background:new 0 0 512 512;" xml:space="preserve" width="512" height="512">
<g>
	<path style="fill:#FF641A;" d="M415,47.999L348.701,0L256,29.099L163.299,0L97,47.999C55.6,78.9,31,129.399,31,181v111.899   C31,342.4,53.8,389.799,92.199,421C97,447.4,115.901,470.6,142,479.599c2.999,1.199,104.099,29.7,114,32.401   c109.799-31.5,106.8-29.7,114-32.401c26.1-9,45-32.199,49.801-58.599C458.2,389.799,481,342.4,481,292.899V181   C481,129.399,456.4,78.9,415,47.999z"/>
	<path style="fill:#F03800;" d="M481,181v111.899c0,49.501-22.8,96.899-61.199,128.101C415,447.4,396.099,470.6,370,479.599   c-7.2,2.701-4.2,0.901-114,32.401V29.099L348.701,0L415,47.999C456.4,78.9,481,129.399,481,181z"/>
	<polygon style="fill:#FF9100;" points="361,421 256,451 151,421 196,391 181,331 331,331 316,391  "/>
	<polygon style="fill:#FF641A;" points="361,421 256,451 256,331 331,331 316,391  "/>
	<polygon style="fill:#FDBF00;" points="391,262.299 352.301,301 364.3,312.999 316,391 271,369.699 256,346 241,369.699 196,391    147.7,312.999 159.699,301 121,262.299 121,159.699 193.001,87.7 256,119.2 318.999,87.7 391,159.699  "/>
	<polygon style="fill:#FF9100;" points="391,262.299 352.301,301 364.3,312.999 316,391 271,369.699 256,346 256,119.2    318.999,87.7 391,159.699  "/>
	<rect x="181" y="181" style="fill:#8C4A37;" width="45" height="30"/>
	<rect x="286" y="181" style="fill:#663325;" width="45" height="30"/>
	<polygon style="fill:#FF641A;" points="271,316 271,369.699 256,362.8 241,369.699 241,316  "/>
	<rect x="211" y="301" style="fill:#FF641A;" width="90" height="30"/>
	<rect x="256" y="301" style="fill:#F03800;" width="45" height="30"/>
	<polygon style="fill:#F03800;" points="271,316 271,369.699 256,362.8 256,316  "/>
</g>















</svg>
