<?xml version="1.0" encoding="iso-8859-1"?>
<!-- Generator: Adobe Illustrator 19.0.0, SVG Export Plug-In . SVG Version: 6.00 Build 0)  -->
<svg xmlns="http://www.w3.org/2000/svg" xmlns:xlink="http://www.w3.org/1999/xlink" version="1.1" id="Layer_1" x="0px" y="0px" viewBox="0 0 512 512" style="enable-background:new 0 0 512 512;" xml:space="preserve" width="512" height="512">
<g>
	<path style="fill:#523522;" d="M406,270h-60v-15c0-57.99,47.01-105,105-105h61v15C512,222.99,463.99,270,406,270z"/>
	<path style="fill:#F6A96C;" d="M377.509,240c6.973-34.189,37.266-60,73.491-60h29.491c-6.973,34.189-38.266,60-74.491,60H377.509z"/>
	<path style="fill:#714C2F;" d="M106,270h60v-15c0-57.99-47.01-105-105-105H0l0,15C0,222.99,48.01,270,106,270z"/>
	<path style="fill:#FFBD86;" d="M134.491,240c-6.973-34.189-37.266-60-73.491-60H31.509c6.973,34.189,38.266,60,74.491,60H134.491z"/>
	<path style="fill:#895D3C;" d="M391,334.799C370.3,365.4,355.3,399.3,346.3,435.3L341.8,453.3c-8.099,33.3-38.099,58.7-72.599,58.7   h-26.4c-34.501,0-64.501-25.401-72.599-58.7L165.7,435.3c-9-36-24-69.901-44.7-100.501c-19.501-29.7-27.001-66.599-20.099-101.4   c5.099-25.499,17.1-48.3,33.9-66.599H377.5c16.5,18.3,28.5,41.1,33.6,66.599C418.001,268.2,410.501,305.1,391,334.799z"/>
	<path style="fill:#714C2F;" d="M391,334.799C370.3,365.4,355.3,399.3,346.3,435.3L341.8,453.3c-8.099,33.3-38.099,58.7-72.599,58.7   H256V166.8h121.5c16.5,18.3,28.5,41.1,33.6,66.599C418.001,268.2,410.501,305.1,391,334.799z"/>
	<path style="fill:#895D3C;" d="M220.551,132.319c-6.24-12.261-9.551-26.001-9.551-39.741V45h-30v47.578   c0,9.152,1.115,18.301,3.243,27.215l-20.162-3.598c-22.209-15.928-32.177-44.652-24.141-70.975l10.4-34.072l-28.682-8.76   l-10.4,34.072c-7.425,24.285-4.332,49.984,7.013,71.559l-25.455-4.543c-12.838-2.294-24.335-7.853-33.906-15.591   C77.408,82.295,91,65.297,91,45V0H61v45c0,8.276-6.724,15-15,15h-8.324C33.52,50.649,30,40.446,30,29.648V0H0v29.648   c0,50.933,37.401,94.409,87.543,103.359l117.041,20.889l2.64-14.782L220.551,132.319z"/>
	<path style="fill:#714C2F;" d="M482,0v29.648c0,10.798-3.52,21-7.676,30.352H466c-8.276,0-15-6.724-15-15V0h-30v45   c0,20.297,13.592,37.295,32.089,42.885c-9.571,7.738-21.068,13.297-33.906,15.591l-25.455,4.543   c11.345-21.575,14.438-47.274,7.013-71.559l-10.4-34.072l-28.682,8.76l10.4,34.072c8.036,26.323-1.932,55.047-24.141,70.975   l-20.162,3.598C329.885,110.88,331,101.73,331,92.578V45h-30v47.578c0,13.74-3.311,27.48-9.551,39.741l13.326,6.795l2.64,14.782   l117.041-20.889C474.599,124.058,512,80.581,512,29.648V0H482z"/>
	<rect x="151" y="270" style="fill:#32393F;" width="30" height="30"/>
	<rect x="331" y="270" style="fill:#24292D;" width="30" height="30"/>
	<g>
		<rect x="241" y="375" style="fill:#714C2F;" width="30" height="75"/>
		<rect x="256" y="375" style="fill:#523522;" width="15" height="75"/>
	</g>
	<g>
		<path style="fill:#714C2F;" d="M377.5,166.8c-45.3,40.8-78.9,99.6-95.099,159.6h-52.8C213.401,267,179.801,207.9,134.801,166.8    c26.1-28.801,63.6-46.8,104.399-46.8h33.6C313.6,120,351.4,137.999,377.5,166.8z"/>
		<path style="fill:#523522;" d="M377.5,166.8c-45.3,40.8-78.9,99.6-95.099,159.6H256V120h16.8C313.6,120,351.4,137.999,377.5,166.8    z"/>
	</g>
	<path style="fill:#32393F;" d="M301,360c0,24.899-20.099,45-45,45s-45-20.101-45-45c0-24.901,20.099-45,45-45S301,335.1,301,360z"/>
	<path style="fill:#24292D;" d="M301,360c0,24.899-20.099,45-45,45v-90C280.901,315,301,335.1,301,360z"/>
</g>















</svg>
