<?xml version="1.0" encoding="iso-8859-1"?>
<!-- Generator: Adobe Illustrator 19.0.0, SVG Export Plug-In . SVG Version: 6.00 Build 0)  -->
<svg xmlns="http://www.w3.org/2000/svg" xmlns:xlink="http://www.w3.org/1999/xlink" version="1.1" id="Layer_1" x="0px" y="0px" viewBox="0 0 512 512" style="enable-background:new 0 0 512 512;" xml:space="preserve" width="512" height="512">
<g>
	<path style="fill:#895D3C;" d="M512,268.3v228.6l-24.3-19.2c-31.8-25.201-77.199-29.7-113.5-11.7l-4.2,2.1   c-35.7,18.001-75,26.7-114,26.7s-78.3-8.699-114-26.7l-4.2-2.1c-36.599-18.3-81.7-13.5-113.5,11.7L0,496.9V268.3H512z"/>
	<path style="fill:#714C2F;" d="M512,268.3v228.6l-24.3-19.2c-31.8-25.201-77.199-29.7-113.5-11.7l-4.2,2.1   c-35.7,18.001-75,26.7-114,26.7V268.3H512z"/>
	<path style="fill:#FDBF00;" d="M352,319.899c-8.101,22.8-21.901,43.801-39.901,60.3l-56.1,52.2l-56.1-52.2   c-17.999-16.5-31.8-37.5-39.901-60.3H352z"/>
	<path style="fill:#FDBF00;" d="M256,319.899h96c-8.101,22.8-21.901,43.801-39.901,60.3l-56.1,52.2V319.899z"/>
	<path style="fill:#FED2A4;" d="M512,270.1c0,74.7-61.3,135-136,135c-52.5,0-97.8-30.3-120-74.401   C233.8,374.8,188.5,405.1,136,405.1c-74.7,0-136-60.3-136-135s61.3-135,136-135h240C450.7,135.1,512,195.4,512,270.1z"/>
	<path style="fill:#FFBD86;" d="M512,270.1c0,74.7-61.3,135-136,135c-52.5,0-97.8-30.3-120-74.401V135.1h120   C450.7,135.1,512,195.4,512,270.1z"/>
	<circle style="fill:#663325;" cx="136" cy="270.1" r="75"/>
	<path style="fill:#FFDA2D;" d="M136,315.1c-24.814,0-45-20.186-45-45s20.186-45,45-45s45,20.186,45,45S160.814,315.1,136,315.1z"/>
	<circle style="fill:#3C1B13;" cx="376" cy="270.1" r="75"/>
	<path style="fill:#FDBF00;" d="M376,315.1c-24.814,0-45-20.186-45-45s20.186-45,45-45s45,20.186,45,45S400.814,315.1,376,315.1z"/>
	<rect x="121" y="253.1" style="fill:#663325;" width="30" height="30"/>
	<rect x="361" y="253.1" style="fill:#3C1B13;" width="30" height="30"/>
	<path style="fill:#895D3C;" d="M466.399,67.6C427.7,105.999,368.8,117.399,316.3,96.1C296.8,88.3,276.4,84.4,256,84.7   c-18.3,0.298-36.899,3.6-54.3,10.499C198.701,95.5,113.699,139.3,45,68.199L0,15.1v82.5c0,75.599,83.2,75.899,86.8,77.699   C150.7,186.1,207.7,223,243.401,276.699l12.599,18.9l12.599-18.9C304.3,223,361.3,186.1,425.2,175.299   C428.2,174.1,512,172.9,512,97.6V15.999L466.399,67.6z"/>
	<path style="fill:#714C2F;" d="M512,15.999V97.6c0,75.3-83.8,76.5-86.8,77.699C361.3,186.1,304.3,223,268.599,276.699L256,295.599   V84.7c20.4-0.3,40.8,3.6,60.3,11.4c52.5,21.299,111.4,9.899,150.099-28.5L512,15.999z"/>
</g>















</svg>
