<?xml version="1.0" encoding="iso-8859-1"?>
<!-- Generator: Adobe Illustrator 19.0.0, SVG Export Plug-In . SVG Version: 6.00 Build 0)  -->
<svg xmlns="http://www.w3.org/2000/svg" xmlns:xlink="http://www.w3.org/1999/xlink" version="1.1" id="Layer_1" x="0px" y="0px" viewBox="0 0 512 512" style="enable-background:new 0 0 512 512;" xml:space="preserve" width="512" height="512">
<g>
	<path style="fill:#FDBF00;" d="M241,83.793L0,0v21.87C0,92.52,58.48,150,129.13,150L241,150.022V83.793z"/>
	<path style="fill:#FF9100;" d="M271,83.932V150h111.87c44.81,0,87.968-23.906,110.995-62.402C505.73,67.808,512,45.088,512,21.87   V0.322L271,83.932z"/>
	<path style="fill:#FF9100;" d="M451,332c0,62.399-34.2,119.7-91.8,152.699H152.8C95.2,451.7,61,394.399,61,332   c0-92.401,82.5-272,195-272S451,239.599,451,332z"/>
	<path style="fill:#FF641A;" d="M451,332c0,62.399-34.2,119.7-91.8,152.699H256V60C368.5,60,451,239.599,451,332z"/>
	<rect x="121" y="272" style="fill:#32393F;" width="30" height="30"/>
	<rect x="361" y="272" style="fill:#24292D;" width="30" height="30"/>
	<path style="fill:#FED2A4;" d="M325,345.5l-29.399,5.999h-79.2L187,345.5l19.499-97.202C210.7,227.3,229.3,212,250.6,212h10.8   c21.301,0,39.901,15.3,44.101,36.299L325,345.5z"/>
	<path style="fill:#FFBD86;" d="M325,345.5l-29.399,5.999H256V212h5.4c21.301,0,39.901,15.3,44.101,36.299L325,345.5z"/>
	<path style="fill:#FED2A4;" d="M376.3,422.3c-3.6-7.202-2.701-90.3-79.501-90.3H215.2c-76.5,0-76.5,84-79.501,90.3   c-9.3,46.5,26.1,89.7,73.5,89.7H226c11.4,0,21.899-4.501,30-11.4c8.101,6.899,18.6,11.4,30,11.4h16.8   C350.2,512,385.6,468.8,376.3,422.3z"/>
	<path style="fill:#FFBD86;" d="M302.8,512H286c-11.4,0-21.899-4.501-30-11.4V332h40.8c76.8,0,75.901,83.099,79.501,90.3   C385.6,468.8,350.2,512,302.8,512z"/>
	<path style="fill:#575F64;" d="M264.101,332c0,0-3.9,0-8.101,0h-7.8c-36.599-0.3-67.2,4.2-67.2,45c0,41.4,33.6,75,75,75   s75-33.6,75-75C331,336.2,301.601,331.7,264.101,332z"/>
	<path style="fill:#32393F;" d="M331,377c0,41.4-33.6,75-75,75V332c4.2,0,8.101,0,8.101,0C301.601,331.7,331,336.2,331,377z"/>
</g>















</svg>
