<?xml version="1.0" encoding="iso-8859-1"?>
<!-- Generator: Adobe Illustrator 19.0.0, SVG Export Plug-In . SVG Version: 6.00 Build 0)  -->
<svg xmlns="http://www.w3.org/2000/svg" xmlns:xlink="http://www.w3.org/1999/xlink" version="1.1" id="Layer_1" x="0px" y="0px" viewBox="0 0 512 512" style="enable-background:new 0 0 512 512;" xml:space="preserve" width="512" height="512">
<g>
	<path style="fill:#895D3C;" d="M461.499,135.399l-37.798-67.301C399.699,26.1,354.699,0,306.4,0H205.6   c-48.3,0-93.3,26.1-117.301,68.099l-37.798,67.301C18.1,192.1,0,257.599,0,322.7v41.999c0,30.901,12.599,60.901,34.501,82.8   c14.7,15,34.3,25.201,54.699,30.601c19.2,20.7,61.5,33.9,91.8,33.9l72.599-30l2.401,0.899L331,512c30.3,0,72.599-13.2,91.8-33.9   c20.4-5.4,40-15.601,54.699-30.601C499.401,425.6,512,395.6,512,364.699V322.7C512,257.599,493.9,192.1,461.499,135.399z"/>
	<path style="fill:#714C2F;" d="M512,322.7v41.999c0,30.901-12.599,60.901-34.501,82.8c-14.7,15-34.3,25.201-54.699,30.601   c-19.2,20.7-61.5,33.9-91.8,33.9l-75-29.101V0h50.4c48.3,0,93.3,26.1,117.301,68.099l37.798,67.301   C493.9,192.1,512,257.599,512,322.7z"/>
	<path style="fill:#FFBD86;" d="M421,249.2c0,29.099-18.6,54.901-45.901,63.9l-54.3,17.999H191.201l-54.3-17.999   C109.6,304.1,91,278.299,91,249.2c0-36.899,30.3-67.2,67.2-67.2h25.501c26.1,0,51.899,9,72.299,24.899   C276.4,191,302.199,182,328.299,182H353.8C390.7,182,421,212.3,421,249.2z"/>
	<path style="fill:#F6A96C;" d="M421,249.2c0,29.099-18.6,54.901-45.901,63.9l-54.3,17.999H256v-124.2   C276.4,191,302.199,182,328.299,182H353.8C390.7,182,421,212.3,421,249.2z"/>
	<path style="fill:#FED2A4;" d="M334.6,367.099c6-5.099,11.1-11.4,13.801-19.2c3.9-11.4,2.999-23.699-2.401-34.499   c-2.1-3.001-7.2-21.601-29.099-28.801c-11.4-3.9-23.701-2.999-34.501,2.401L256,300.2L229.6,287   c-10.8-5.4-23.101-6.301-34.501-2.401c-21.899,7.2-26.999,25.8-29.099,28.801c-5.4,10.8-6.301,23.099-2.401,34.499   c2.701,7.8,7.8,14.101,13.801,19.2L121,452l36.301,30h195.599L391,452L334.6,367.099z"/>
	<path style="fill:#FFBD86;" d="M391,452l-38.101,30H256V300.2l26.4-13.2c10.8-5.4,23.101-6.301,34.501-2.401   c21.899,7.2,26.999,25.8,29.099,28.801c5.4,10.8,6.301,23.099,2.401,34.499c-2.701,7.8-7.8,14.101-13.801,19.2L391,452z"/>
	<rect x="181" y="242" style="fill:#714C2F;" width="30" height="30"/>
	<rect x="301" y="242" style="fill:#523522;" width="30" height="30"/>
	<path style="fill:#714C2F;" d="M361,136h-30c-2.701-3.001-28.5-15-75-15s-72.299,11.999-75.3,16.8L151,136c0-31.201,52.8-45,105-45   S361,104.799,361,136z"/>
	<path style="fill:#523522;" d="M331,136c-2.701-3.001-28.5-15-75-15V91c52.2,0,105,13.799,105,45H331z"/>
	<rect x="241" y="392" style="fill:#895D3C;" width="30" height="90"/>
	<rect x="256" y="392" style="fill:#714C2F;" width="15" height="90"/>
	<path style="fill:#FFBD86;" d="M391,452c0,16.5-6.599,31.5-17.701,42.299C362.5,505.399,347.5,512,331,512H181   c-32.999,0-60-27.001-60-60H391z"/>
	<path style="fill:#F6A96C;" d="M256,452h135c0,16.5-6.599,31.5-17.701,42.299C362.5,505.399,347.5,512,331,512h-75V452z"/>
</g>















</svg>
