<?xml version="1.0" encoding="iso-8859-1"?>
<!-- Generator: Adobe Illustrator 19.0.0, SVG Export Plug-In . SVG Version: 6.00 Build 0)  -->
<svg xmlns="http://www.w3.org/2000/svg" xmlns:xlink="http://www.w3.org/1999/xlink" version="1.1" id="Layer_1" x="0px" y="0px" viewBox="0 0 512.333 512.333" style="enable-background:new 0 0 512.333 512.333;" xml:space="preserve" width="512" height="512">
<g>
	<path style="fill:#FF641A;" d="M331,330.167v105c0,41.4-33.6,77-75,77s-75-35.6-75-77v-105H331z"/>
	<path style="fill:#F03800;" d="M256,330.167h75v105c0,41.4-33.6,77-75,77V330.167z"/>
	<rect x="241" y="345.167" style="fill:#F03800;" width="30" height="106"/>
	<rect x="256" y="345.167" style="fill:#CD0000;" width="15" height="106"/>
	<g>
		<path style="fill:#8C4A37;" d="M421,35.566v306c0,43.2-35.4,78.6-78.6,78.6c-21,0-40.8-8.101-55.499-23.101L256,366.465    l-30.901,30.601c-14.7,15-34.499,23.101-55.499,23.101c-43.2,0-78.6-35.4-78.6-78.6v-305.7c50.7-21.601,103.5-35.7,165-35.7    C315.7,0.167,374.801,14.866,421,35.566z"/>
	</g>
	<path style="fill:#663325;" d="M421,35.566v306c0,43.2-35.4,78.6-78.6,78.6c-21,0-40.8-8.101-55.499-23.101L256,366.465V0.167   C315.7,0.167,374.801,14.866,421,35.566z"/>
	<path style="fill:#663325;" d="M256,180.167c-41.4,0-75,26.999-75,60c0,32.999,33.6,60,75,60s75-27.001,75-60   C331,207.165,297.4,180.167,256,180.167z"/>
	<rect x="301" y="120.167" style="fill:#3C1B13;" width="30" height="60"/>
	<rect x="181" y="120.167" style="fill:#663325;" width="30" height="60"/>
	<g>
		<g>
			<path style="fill:#3C1B13;" d="M480.492,334.722c-5.55-3.472-89.11-15.175-89.136-94.549L391.3,65.504     c-0.001-3.408,1.158-6.714,3.287-9.375L432.207,9.1c9.61-12.013,28.039-11.508,36.977,1.013     c11.456,19.657,44.081,45.893,43.129,96.28c-0.616,32.583-14.676,48.528-35.16,101.855c-8.467,20.332-12.275,42.686-11.03,64.658     C467.58,298.562,474.532,312.895,480.492,334.722z"/>
		</g>
		<g>
			<path style="fill:#663325;" d="M46.5,272.906c1.245-21.973-2.563-44.326-11.03-64.658c-21.296-53.783-33.153-69.443-35.157-95.51     c-1.949-25.34,5.255-50.97,20.438-72.241l22.688-30.384C52.376-2.408,70.806-2.913,80.415,9.1l37.621,47.029     c2.129,2.661,3.288,5.967,3.287,9.375l-0.057,174.669c-0.026,79.726-83.356,90.933-89.136,94.549     C37.961,313.368,45.034,298.701,46.5,272.906z"/>
		</g>
	</g>
	<path style="fill:#3C1B13;" d="M256,300.167v-120c41.4,0,75,26.999,75,60C331,273.166,297.4,300.167,256,300.167z"/>
</g>















</svg>
