<?xml version="1.0" encoding="iso-8859-1"?>
<!-- Generator: Adobe Illustrator 19.0.0, SVG Export Plug-In . SVG Version: 6.00 Build 0)  -->
<svg xmlns="http://www.w3.org/2000/svg" xmlns:xlink="http://www.w3.org/1999/xlink" version="1.1" id="Layer_1" x="0px" y="0px" viewBox="0 0 512 512" style="enable-background:new 0 0 512 512;" xml:space="preserve" width="512" height="512">
<g>
	<path style="fill:#8C4A37;" d="M351.4,86.713l-16.5,145.201c-20.099-13.2-49.501-20.101-78.9-20.101s-58.801,6.901-78.9,20.101   L160.6,86.713c25.199-16.8,60.3-24.901,95.4-24.901S326.201,69.913,351.4,86.713z"/>
	<path style="fill:#663325;" d="M351.4,86.713l-16.5,145.201c-20.099-13.2-49.501-20.101-78.9-20.101v-150   C291.099,61.813,326.201,69.913,351.4,86.713z"/>
	<path style="fill:#FED2A4;" d="M441.4,227.714c-11.4-16.201-19.499-36.601-24.3-55.501c23.401-7.5,44.7-26.4,56.7-51.599   C493.9,78.312,484.3,24.812,444.401,6.213c-40.201-18.9-86.4,8.202-106.201,50.2c-4.799,10.501-8.101,21-9.3,32.1   c-32.401,22.2-57.599,55.8-72.9,92.1c-15.3-36.301-40.499-69.901-72.9-92.1c-1.199-11.1-4.501-21.599-9.3-32.1   c-19.801-41.999-66-69.101-106.201-50.2C27.4,25.113,18.401,78.613,38.2,120.613c12.001,25.199,33.3,44.099,56.7,51.599   c-4.801,18.9-12.9,39.3-24.3,55.501C27.7,251.413,0,296.413,0,345.914c0,72.9,59.2,132.599,131.499,135   c30.901,19.2,75.901,31,124.501,31s93.6-11.8,124.501-31c72.299-2.401,131.499-62.1,131.499-135   C512,296.413,484.3,251.413,441.4,227.714z"/>
	<path style="fill:#FFBD86;" d="M512,345.914c0,72.9-59.2,132.599-131.499,135c-30.901,19.2-75.901,31-124.501,31v-331.3   c15.3-36.301,40.499-69.901,72.9-92.1c1.199-11.1,4.501-21.599,9.3-32.1c19.801-41.999,66-69.101,106.201-50.2   c39.899,18.6,49.499,72.1,29.399,114.401c-12.001,25.199-33.3,44.099-56.7,51.599c4.801,18.9,12.9,39.3,24.3,55.501   C484.3,251.413,512,296.413,512,345.914z"/>
	<rect x="151" y="180.914" style="fill:#8C4A37;" width="30" height="30"/>
	<rect x="331" y="180.914" style="fill:#663325;" width="30" height="30"/>
	<path style="fill:#8C4A37;" d="M331,255.914c0,41.4-33.6,75-75,75s-75-33.6-75-75h30c0,24.899,20.099,45,45,45s45-20.101,45-45H331   z"/>
	<polygon style="fill:#ECECF1;" points="301,373.213 301,450.914 211,450.914 211,373.213 256,343.213  "/>
	<polygon style="fill:#D3D3D8;" points="256,343.213 301,373.213 301,450.914 256,450.914  "/>
	<path style="fill:#663325;" d="M301,255.914h30c0,41.4-33.6,75-75,75v-30C280.901,300.914,301,280.812,301,255.914z"/>
	<path style="fill:#8C4A37;" d="M361,330.914c0,32.999-27.001,60-60,60c-17.999,0-33.9-7.8-45-20.4   c-11.1,12.599-27.001,20.4-45,20.4c-32.999,0-60-27.001-60-60h30c0,16.5,13.5,30,30,30s30-13.5,30-30v-15h30v15   c0,16.5,13.5,30,30,30s30-13.5,30-30H361z"/>
	<path style="fill:#663325;" d="M361,330.914c0,32.999-27.001,60-60,60c-17.999,0-33.9-7.8-45-20.4v-54.6h15v15   c0,16.5,13.5,30,30,30s30-13.5,30-30H361z"/>
</g>















</svg>
