<?xml version="1.0" encoding="iso-8859-1"?>
<!-- Generator: Adobe Illustrator 19.0.0, SVG Export Plug-In . SVG Version: 6.00 Build 0)  -->
<svg xmlns="http://www.w3.org/2000/svg" xmlns:xlink="http://www.w3.org/1999/xlink" version="1.1" id="Layer_1" x="0px" y="0px" viewBox="0 0 512 512" style="enable-background:new 0 0 512 512;" xml:space="preserve" width="512" height="512">
<g>
	<polygon style="fill:#ECECF1;" points="151,512 91,512 90,421 150,421  "/>
	<rect x="361" y="421" style="fill:#D3D3D8;" width="60" height="91"/>
	<path style="fill:#714C2F;" d="M338.2,429.099C318.701,443.2,288.701,451,256,451s-63.701-7.8-83.2-21.901l17.401-84.3h130.598   L338.2,429.099z"/>
	<path style="fill:#523522;" d="M320.799,344.799l17.401,84.3C318.701,443.2,288.701,451,256,451V344.799H320.799z"/>
	<path style="fill:#714C2F;" d="M481,226v31.5H30V226C30,101.8,131.8,0,256,0S481,101.8,481,226z"/>
	<path style="fill:#523522;" d="M481,226v31.5H256V0C380.2,0,481,101.8,481,226z"/>
	<path style="fill:#895D3C;" d="M391,211H120C53.699,211,0,264.699,0,331c0,66.299,53.699,120,120,120c20.4,0,40.499-5.101,58.2-15   l77.8-42.9l76.8,42.9c17.701,9.899,37.8,15,58.2,15c66.301,0,121-53.701,121-120C512,264.699,457.301,211,391,211z"/>
	<path style="fill:#714C2F;" d="M512,331c0,66.299-54.699,120-121,120c-20.4,0-40.499-5.101-58.2-15L256,393.1V211h135   C457.301,211,512,264.699,512,331z"/>
	<path style="fill:#714C2F;" d="M256,211c-42.9,0-76,19.499-76,45c0,25.499,33.1,45,76,45s75-19.501,75-45   C331,230.499,298.9,211,256,211z"/>
	<rect x="150" y="121" style="fill:#32393F;" width="30" height="30"/>
	<rect x="120" y="331" style="fill:#714C2F;" width="30" height="30"/>
	<rect x="60" y="331" style="fill:#714C2F;" width="30" height="30"/>
	<rect x="90" y="271" style="fill:#714C2F;" width="30" height="30"/>
	<rect x="391" y="271" style="fill:#523522;" width="30" height="30"/>
	<rect x="421" y="331" style="fill:#523522;" width="30" height="30"/>
	<rect x="361" y="331" style="fill:#523522;" width="30" height="30"/>
	<rect x="331" y="121" style="fill:#24292D;" width="30" height="30"/>
	<path style="fill:#523522;" d="M331,256c0,25.499-32.1,45-75,45v-90C298.9,211,331,230.499,331,256z"/>
</g>















</svg>
